<!-- Generator: Adobe Illustrator 22.0.0, SVG Export Plug-In  -->
<svg version="1.1"
	 xmlns="http://www.w3.org/2000/svg" xmlns:xlink="http://www.w3.org/1999/xlink" xmlns:a="http://ns.adobe.com/AdobeSVGViewerExtensions/3.0/"
	 x="0px" y="0px" width="169.853px" height="169.853px" viewBox="0 0 169.853 169.853"
	 style="overflow:scroll;enable-background:new 0 0 169.853 169.853;" xml:space="preserve">
<style type="text/css">
	.st0{fill:url(#SVGID_1_);}
	.st1{fill:url(#SVGID_2_);}
	.st2{fill:url(#SVGID_3_);}
	.st3{fill:url(#SVGID_4_);}
	.st4{fill:url(#SVGID_5_);}
	.st5{fill:#FFFFFF;}
	.st6{fill:url(#SVGID_6_);}
	.st7{fill:url(#SVGID_7_);}
	.st8{fill:url(#SVGID_8_);}
	.st9{fill:url(#SVGID_9_);}
	.st10{fill:url(#SVGID_10_);}
</style>
<defs>
</defs>
<linearGradient id="SVGID_1_" gradientUnits="userSpaceOnUse" x1="0" y1="84.9267" x2="169.8532" y2="84.9267">
	<stop  offset="0" style="stop-color:#BD4B49"/>
	<stop  offset="1" style="stop-color:#B43532"/>
</linearGradient>
<circle class="st0" cx="84.927" cy="84.927" r="84.927"/>
<linearGradient id="SVGID_2_" gradientUnits="userSpaceOnUse" x1="16.502" y1="84.9267" x2="153.3514" y2="84.9267">
	<stop  offset="0" style="stop-color:#E2DDDD"/>
	<stop  offset="1" style="stop-color:#C4BEBD"/>
</linearGradient>
<circle class="st1" cx="84.927" cy="84.927" r="68.425"/>
<radialGradient id="SVGID_3_" cx="86.5961" cy="87.3868" r="73.9574" gradientUnits="userSpaceOnUse">
	<stop  offset="0.7955" style="stop-color:#FFFFFF"/>
	<stop  offset="0.8694" style="stop-color:#FEFEFE"/>
	<stop  offset="0.8984" style="stop-color:#F6F6F6"/>
	<stop  offset="0.9195" style="stop-color:#E5E3E4"/>
	<stop  offset="0.9368" style="stop-color:#CCC8CA"/>
	<stop  offset="0.9517" style="stop-color:#AEA7A9"/>
	<stop  offset="0.965" style="stop-color:#8D8586"/>
	<stop  offset="0.9771" style="stop-color:#6B6465"/>
	<stop  offset="0.9883" style="stop-color:#4B4545"/>
	<stop  offset="0.9984" style="stop-color:#2D2929"/>
	<stop  offset="1" style="stop-color:#272324"/>
</radialGradient>
<circle class="st2" cx="84.927" cy="84.927" r="68.425"/>
<radialGradient id="SVGID_4_" cx="91.8835" cy="93.6319" r="51.3664" gradientUnits="userSpaceOnUse">
	<stop  offset="0" style="stop-color:#070308"/>
	<stop  offset="1" style="stop-color:#FFFFFF"/>
</radialGradient>
<circle class="st3" cx="91.884" cy="93.632" r="51.366"/>
<linearGradient id="SVGID_5_" gradientUnits="userSpaceOnUse" x1="29.5422" y1="86.3352" x2="141.1281" y2="86.3352">
	<stop  offset="0" style="stop-color:#BD4B49"/>
	<stop  offset="1" style="stop-color:#B43532"/>
</linearGradient>
<circle class="st4" cx="85.335" cy="86.335" r="55.793"/>
<g>
	<g>
		<path class="st5" d="M39.234,69.398h-0.198c-0.806,0-1.392,0.24-1.758,0.721c-0.366,0.481-0.557,1.262-0.571,2.34h-1.15v-4.167
			h9.479v4.167h-1.15c-0.01-1.063-0.197-1.84-0.564-2.328c-0.365-0.488-0.949-0.732-1.75-0.732h-0.22v6.885
			c0,0.405,0.055,0.661,0.165,0.769c0.109,0.107,0.389,0.161,0.838,0.161h0.857v1.143h-5.838v-1.143h0.872
			c0.444,0,0.72-0.053,0.827-0.157c0.107-0.105,0.162-0.362,0.162-0.772V69.398z"/>
		<path class="st5" d="M45.759,78.355v-1.143h0.645c0.444,0,0.721-0.053,0.828-0.157c0.107-0.105,0.161-0.362,0.161-0.772v-5.926
			c0-0.41-0.054-0.668-0.161-0.772c-0.107-0.105-0.384-0.157-0.828-0.157h-0.645v-1.136h5.436v1.136H50.55
			c-0.45,0-0.729,0.052-0.836,0.157c-0.107,0.104-0.16,0.362-0.16,0.772v5.926c0,0.41,0.053,0.667,0.16,0.772
			c0.107,0.104,0.386,0.157,0.836,0.157h0.645v1.143H45.759z"/>
		<path class="st5" d="M55.603,76.282c0,0.405,0.056,0.661,0.165,0.769c0.11,0.107,0.39,0.161,0.839,0.161h0.703v1.143h-5.398
			v-1.143h0.586c0.444,0,0.721-0.053,0.828-0.157c0.107-0.105,0.161-0.362,0.161-0.772v-5.926c0-0.41-0.054-0.668-0.161-0.772
			c-0.107-0.105-0.384-0.157-0.828-0.157h-0.586v-1.136h5.296c1.357,0,2.382,0.232,3.072,0.696c0.691,0.464,1.036,1.152,1.036,2.064
			c0,0.498-0.094,0.934-0.281,1.305c-0.188,0.371-0.473,0.686-0.854,0.944c-0.273,0.181-0.654,0.311-1.143,0.388
			c-0.488,0.079-1.17,0.117-2.043,0.117h-1.393V76.282z M55.603,72.671h1.004c0.923,0,1.571-0.123,1.944-0.37
			c0.374-0.246,0.561-0.663,0.561-1.249c0-0.6-0.18-1.021-0.538-1.263c-0.359-0.242-1.054-0.362-2.084-0.362h-0.887V72.671z"/>
		<path class="st5" d="M62.386,73.316c0-1.592,0.509-2.875,1.527-3.849c1.018-0.975,2.356-1.462,4.017-1.462
			c1.665,0,3.005,0.487,4.018,1.462c1.014,0.974,1.52,2.257,1.52,3.849c0,1.597-0.508,2.884-1.523,3.859
			c-1.016,0.978-2.354,1.465-4.014,1.465s-2.999-0.489-4.017-1.468C62.895,76.193,62.386,74.907,62.386,73.316z M64.752,73.316
			c0,1.299,0.28,2.311,0.842,3.036c0.562,0.725,1.34,1.087,2.336,1.087s1.774-0.36,2.333-1.084c0.56-0.722,0.839-1.735,0.839-3.039
			c0-1.299-0.278-2.309-0.835-3.028c-0.557-0.721-1.336-1.081-2.337-1.081c-0.996,0-1.774,0.36-2.336,1.081
			C65.032,71.007,64.752,72.017,64.752,73.316z"/>
		<path class="st5" d="M79.033,78.355v-1.143h0.586c0.444,0,0.721-0.053,0.828-0.157c0.107-0.105,0.161-0.362,0.161-0.772v-5.926
			c0-0.41-0.054-0.668-0.161-0.772c-0.107-0.105-0.384-0.157-0.828-0.157h-0.586v-1.136h5.713c1.758,0,3.088,0.425,3.988,1.274
			c0.901,0.85,1.352,2.1,1.352,3.75s-0.452,2.903-1.355,3.758s-2.231,1.281-3.984,1.281H79.033z M82.725,77.212h1.318
			c0.786,0,1.375-0.061,1.766-0.184c0.391-0.121,0.728-0.329,1.011-0.622s0.507-0.713,0.67-1.26
			c0.164-0.547,0.245-1.157,0.245-1.831s-0.081-1.281-0.245-1.824c-0.163-0.541-0.387-0.959-0.67-1.252s-0.62-0.502-1.011-0.626
			c-0.391-0.125-0.979-0.187-1.766-0.187h-1.318V77.212z"/>
		<path class="st5" d="M91.198,78.355v-1.143h0.586c0.444,0,0.721-0.053,0.828-0.157c0.107-0.105,0.161-0.362,0.161-0.772v-5.926
			c0-0.41-0.054-0.668-0.161-0.772c-0.107-0.105-0.384-0.157-0.828-0.157h-0.586v-1.136h9.902v4.007h-1.143
			c-0.029-1.147-0.216-1.913-0.56-2.297c-0.345-0.383-1.042-0.574-2.091-0.574H94.89v3.09h0.572c0.629,0,1.042-0.108,1.237-0.325
			c0.195-0.218,0.317-0.717,0.366-1.498l1.143-0.007v5.046l-1.143-0.007c-0.044-0.865-0.164-1.423-0.359-1.674
			c-0.195-0.252-0.605-0.377-1.23-0.377H94.89v3.537h2.637c0.879,0,1.482-0.204,1.81-0.611c0.327-0.408,0.534-1.244,0.622-2.509
			h1.143v4.263H91.198z"/>
		<path class="st5" d="M110.894,76.282c0,0.405,0.056,0.661,0.165,0.769c0.11,0.107,0.39,0.161,0.839,0.161h0.703v1.143h-5.398
			v-1.143h0.586c0.444,0,0.721-0.053,0.828-0.157c0.107-0.105,0.161-0.362,0.161-0.772v-5.926c0-0.41-0.054-0.668-0.161-0.772
			c-0.107-0.105-0.384-0.157-0.828-0.157h-0.586v-1.136h5.296c1.357,0,2.382,0.232,3.072,0.696c0.691,0.464,1.036,1.152,1.036,2.064
			c0,0.498-0.094,0.934-0.281,1.305c-0.188,0.371-0.473,0.686-0.854,0.944c-0.273,0.181-0.654,0.311-1.143,0.388
			c-0.488,0.079-1.17,0.117-2.043,0.117h-1.393V76.282z M110.894,72.671h1.004c0.923,0,1.571-0.123,1.944-0.37
			c0.374-0.246,0.561-0.663,0.561-1.249c0-0.6-0.18-1.021-0.538-1.263c-0.359-0.242-1.054-0.362-2.084-0.362h-0.887V72.671z"/>
		<path class="st5" d="M117.507,78.355v-1.143h0.645c0.444,0,0.721-0.053,0.828-0.157c0.107-0.105,0.161-0.362,0.161-0.772v-5.926
			c0-0.41-0.054-0.668-0.161-0.772c-0.107-0.105-0.384-0.157-0.828-0.157h-0.645v-1.136h5.436v1.136h-0.645
			c-0.45,0-0.729,0.052-0.836,0.157c-0.107,0.104-0.16,0.362-0.16,0.772v5.926c0,0.41,0.053,0.667,0.16,0.772
			c0.107,0.104,0.386,0.157,0.836,0.157h0.645v1.143H117.507z"/>
		<path class="st5" d="M123.659,78.355v-1.143h0.586c0.444,0,0.721-0.053,0.828-0.157c0.107-0.105,0.161-0.362,0.161-0.772v-5.926
			c0-0.41-0.054-0.668-0.161-0.772c-0.107-0.105-0.384-0.157-0.828-0.157h-0.586v-1.136h9.902v4.007h-1.143
			c-0.029-1.147-0.216-1.913-0.56-2.297c-0.345-0.383-1.042-0.574-2.091-0.574h-2.418v3.09h0.572c0.629,0,1.042-0.108,1.237-0.325
			c0.195-0.218,0.317-0.717,0.366-1.498l1.143-0.007v5.046l-1.143-0.007c-0.044-0.865-0.164-1.423-0.359-1.674
			c-0.195-0.252-0.605-0.377-1.23-0.377h-0.586v3.537h2.637c0.879,0,1.482-0.204,1.81-0.611c0.327-0.408,0.534-1.244,0.622-2.509
			h1.143v4.263H123.659z"/>
		<path class="st5" d="M55.764,94.282c0,0.405,0.056,0.661,0.165,0.769c0.11,0.107,0.39,0.161,0.839,0.161h0.871v1.143h-5.852
			v-1.143h0.871c0.444,0,0.721-0.053,0.828-0.157c0.107-0.105,0.161-0.362,0.161-0.772v-2.139l-2.49-3.678
			c-0.264-0.39-0.503-0.661-0.718-0.813s-0.459-0.227-0.732-0.227h-0.498v-1.136h5.324v1.136h-0.732
			c-0.229,0-0.396,0.025-0.501,0.076c-0.105,0.052-0.157,0.131-0.157,0.238c0,0.068,0.017,0.143,0.051,0.224
			c0.034,0.08,0.085,0.172,0.154,0.274l1.699,2.358l1.794-2.446c0.073-0.103,0.124-0.187,0.153-0.253
			c0.029-0.065,0.045-0.133,0.045-0.201c0-0.088-0.047-0.155-0.14-0.201c-0.093-0.047-0.228-0.069-0.403-0.069H55.61v-1.136h4.665
			v1.136h-0.344c-0.264,0-0.478,0.045-0.641,0.135c-0.164,0.091-0.339,0.268-0.523,0.531l-3.004,4.051V94.282z"/>
		<path class="st5" d="M65.425,91.316c0-1.592,0.509-2.875,1.527-3.849c1.018-0.975,2.356-1.462,4.017-1.462
			c1.665,0,3.005,0.487,4.018,1.462c1.014,0.974,1.52,2.257,1.52,3.849c0,1.597-0.508,2.884-1.523,3.859
			c-1.016,0.978-2.354,1.465-4.014,1.465s-2.999-0.489-4.017-1.468C65.934,94.193,65.425,92.907,65.425,91.316z M67.791,91.316
			c0,1.299,0.28,2.311,0.842,3.036c0.562,0.725,1.34,1.087,2.336,1.087s1.774-0.36,2.333-1.084c0.56-0.722,0.839-1.735,0.839-3.039
			c0-1.299-0.278-2.309-0.835-3.028c-0.557-0.721-1.336-1.081-2.337-1.081c-0.996,0-1.774,0.36-2.336,1.081
			C68.071,89.007,67.791,90.017,67.791,91.316z"/>
		<path class="st5" d="M81.069,87.398h-0.198c-0.806,0-1.392,0.24-1.758,0.721c-0.366,0.481-0.557,1.262-0.571,2.34h-1.15v-4.167
			h9.479v4.167h-1.15c-0.01-1.063-0.197-1.84-0.564-2.328c-0.365-0.488-0.949-0.732-1.75-0.732h-0.22v6.885
			c0,0.405,0.055,0.661,0.165,0.769c0.109,0.107,0.389,0.161,0.838,0.161h0.857v1.143h-5.838v-1.143h0.872
			c0.444,0,0.72-0.053,0.827-0.157c0.107-0.105,0.162-0.362,0.162-0.772V87.398z"/>
		<path class="st5" d="M91.257,94.282c0,0.405,0.056,0.661,0.165,0.769c0.11,0.107,0.39,0.161,0.839,0.161h0.703v1.143h-5.398
			v-1.143h0.586c0.444,0,0.721-0.053,0.828-0.157c0.107-0.105,0.161-0.362,0.161-0.772v-5.926c0-0.41-0.054-0.668-0.161-0.772
			c-0.107-0.105-0.384-0.157-0.828-0.157h-0.586v-1.136h6.014c1.26,0,2.194,0.198,2.805,0.593c0.61,0.396,0.916,1.004,0.916,1.824
			c0,0.723-0.243,1.3-0.729,1.732c-0.486,0.432-1.203,0.704-2.15,0.816c0.719,0.107,1.22,0.312,1.506,0.611
			c0.285,0.301,0.452,0.822,0.502,1.564l0.065,0.9c0.024,0.352,0.068,0.581,0.132,0.688s0.168,0.161,0.314,0.161
			c0.293,0,0.449-0.549,0.469-1.648c0-0.019,0-0.033,0-0.043h0.953c0.009,0.063,0.016,0.13,0.018,0.201
			c0.003,0.07,0.004,0.172,0.004,0.304c0,0.923-0.167,1.597-0.502,2.021c-0.334,0.425-0.863,0.638-1.586,0.638
			c-0.596,0-1.062-0.164-1.398-0.491s-0.516-0.781-0.535-1.362l-0.043-1.18c-0.029-0.785-0.204-1.319-0.524-1.6
			c-0.319-0.281-0.927-0.422-1.819-0.422h-0.719V94.282z M91.257,90.458h1.773c0.712,0,1.234-0.12,1.566-0.362
			c0.332-0.241,0.498-0.626,0.498-1.153c0-0.542-0.158-0.93-0.476-1.164s-0.864-0.352-1.641-0.352h-1.722V90.458z"/>
		<path class="st5" d="M99.357,91.316c0-1.592,0.509-2.875,1.527-3.849c1.018-0.975,2.356-1.462,4.017-1.462
			c1.665,0,3.005,0.487,4.018,1.462c1.014,0.974,1.52,2.257,1.52,3.849c0,1.597-0.508,2.884-1.523,3.859
			c-1.016,0.978-2.354,1.465-4.014,1.465s-2.999-0.489-4.017-1.468C99.866,94.193,99.357,92.907,99.357,91.316z M101.724,91.316
			c0,1.299,0.28,2.311,0.842,3.036c0.562,0.725,1.34,1.087,2.336,1.087s1.774-0.36,2.333-1.084c0.56-0.722,0.839-1.735,0.839-3.039
			c0-1.299-0.278-2.309-0.835-3.028c-0.557-0.721-1.336-1.081-2.337-1.081c-0.996,0-1.774,0.36-2.336,1.081
			C102.004,89.007,101.724,90.017,101.724,91.316z"/>
		<path class="st5" d="M111.641,96.355v-4.152h1.172c0.161,1.001,0.532,1.766,1.113,2.296c0.581,0.529,1.335,0.794,2.263,0.794
			c0.669,0,1.181-0.111,1.535-0.336c0.354-0.225,0.531-0.55,0.531-0.975c0-0.381-0.136-0.69-0.407-0.93
			c-0.271-0.239-0.704-0.428-1.3-0.564l-1.633-0.381c-1.172-0.273-2.016-0.644-2.531-1.109c-0.515-0.467-0.772-1.09-0.772-1.871
			c0-0.947,0.329-1.707,0.989-2.278c0.658-0.571,1.54-0.856,2.644-0.856c0.547,0,1.059,0.084,1.534,0.252
			c0.477,0.169,0.938,0.429,1.389,0.78l0.527-0.732h0.9V90.1h-1.143c-0.171-0.913-0.531-1.621-1.08-2.124
			c-0.55-0.503-1.239-0.754-2.069-0.754c-0.605,0-1.074,0.113-1.406,0.34c-0.332,0.228-0.498,0.544-0.498,0.949
			c0,0.342,0.117,0.615,0.352,0.82s0.61,0.365,1.128,0.482l2.029,0.469c1.073,0.245,1.877,0.627,2.409,1.146
			c0.532,0.521,0.798,1.184,0.798,1.988c0,0.953-0.349,1.73-1.047,2.333c-0.698,0.604-1.604,0.905-2.717,0.905
			c-0.563,0-1.119-0.104-1.67-0.309c-0.553-0.205-1.111-0.517-1.678-0.938l-0.33,0.945H111.641z"/>
		<path class="st5" d="M39.187,108.108h1.074c-0.082,1.115-0.425,1.977-1.029,2.585c-0.604,0.608-1.421,0.912-2.45,0.912
			c-0.614,0-1.17-0.096-1.666-0.287c-0.497-0.19-0.94-0.483-1.331-0.879c-0.431-0.427-0.758-0.92-0.979-1.479
			s-0.333-1.161-0.333-1.804c0-0.646,0.108-1.24,0.324-1.779s0.541-1.026,0.977-1.462c0.395-0.395,0.836-0.692,1.324-0.894
			c0.488-0.202,1.014-0.303,1.574-0.303c0.448,0,0.87,0.07,1.267,0.211c0.397,0.141,0.787,0.357,1.169,0.65l0.25-0.751h0.904v3.437
			h-0.965c-0.098-0.802-0.355-1.423-0.772-1.862s-0.955-0.659-1.614-0.659c-0.769,0-1.372,0.308-1.81,0.922
			s-0.656,1.465-0.656,2.551c0,1.034,0.218,1.833,0.653,2.396s1.048,0.845,1.837,0.845c0.614,0,1.113-0.2,1.495-0.601
			C38.812,109.455,39.064,108.872,39.187,108.108z"/>
		<path class="st5" d="M41.321,107.155c0-1.326,0.425-2.396,1.273-3.207c0.848-0.813,1.964-1.218,3.348-1.218
			c1.388,0,2.503,0.405,3.348,1.218c0.844,0.812,1.267,1.881,1.267,3.207c0,1.33-0.424,2.402-1.27,3.217
			c-0.847,0.813-1.962,1.221-3.345,1.221c-1.384,0-2.5-0.408-3.348-1.224C41.746,109.553,41.321,108.482,41.321,107.155z
			 M43.293,107.155c0,1.082,0.234,1.926,0.702,2.53c0.468,0.604,1.117,0.906,1.947,0.906s1.478-0.302,1.943-0.903
			c0.466-0.603,0.699-1.447,0.699-2.533c0-1.082-0.232-1.924-0.695-2.523c-0.465-0.601-1.113-0.9-1.947-0.9
			c-0.83,0-1.479,0.3-1.947,0.9C43.527,105.232,43.293,106.073,43.293,107.155z"/>
		<path class="st5" d="M58.571,111.355v-0.952h0.562c0.37,0,0.6-0.044,0.689-0.131c0.09-0.088,0.134-0.303,0.134-0.645v-5.42
			l-2.702,7.147h-0.827l-2.543-7.287v5.56c0,0.342,0.045,0.557,0.134,0.645c0.09,0.087,0.319,0.131,0.69,0.131h0.5v0.952h-3.912
			v-0.952h0.451c0.37,0,0.601-0.044,0.689-0.131c0.09-0.088,0.135-0.303,0.135-0.645v-4.938c0-0.342-0.045-0.557-0.135-0.644
			c-0.089-0.088-0.319-0.132-0.689-0.132h-0.451v-0.946h3.9l1.868,5.438l2.08-5.438h3.741v0.946H62.41
			c-0.374,0-0.607,0.045-0.699,0.135c-0.091,0.089-0.137,0.303-0.137,0.641v4.938c0,0.338,0.046,0.552,0.137,0.642
			c0.092,0.089,0.325,0.134,0.699,0.134h0.476v0.952H58.571z"/>
		<path class="st5" d="M66.548,109.627c0,0.338,0.046,0.552,0.137,0.642c0.092,0.089,0.325,0.134,0.699,0.134h0.586v0.952h-4.498
			v-0.952h0.488c0.37,0,0.6-0.044,0.689-0.131c0.09-0.088,0.135-0.303,0.135-0.645v-4.938c0-0.342-0.045-0.557-0.135-0.644
			c-0.09-0.088-0.319-0.132-0.689-0.132h-0.488v-0.946h4.412c1.132,0,1.985,0.193,2.561,0.58c0.576,0.387,0.864,0.961,0.864,1.722
			c0,0.415-0.079,0.777-0.235,1.086c-0.156,0.31-0.394,0.572-0.711,0.788c-0.228,0.15-0.545,0.258-0.952,0.323
			c-0.407,0.064-0.975,0.098-1.703,0.098h-1.159V109.627z M66.548,106.618h0.836c0.77,0,1.31-0.103,1.62-0.309
			c0.312-0.205,0.468-0.552,0.468-1.04c0-0.501-0.15-0.852-0.449-1.053c-0.299-0.202-0.878-0.303-1.736-0.303h-0.738V106.618z"/>
		<path class="st5" d="M72.199,107.155c0-1.326,0.425-2.396,1.273-3.207c0.848-0.813,1.964-1.218,3.348-1.218
			c1.388,0,2.503,0.405,3.348,1.218c0.844,0.812,1.267,1.881,1.267,3.207c0,1.33-0.424,2.402-1.27,3.217
			c-0.847,0.813-1.962,1.221-3.345,1.221c-1.384,0-2.5-0.408-3.348-1.224C72.624,109.553,72.199,108.482,72.199,107.155z
			 M74.171,107.155c0,1.082,0.234,1.926,0.702,2.53c0.468,0.604,1.117,0.906,1.947,0.906s1.478-0.302,1.943-0.903
			c0.466-0.603,0.699-1.447,0.699-2.533c0-1.082-0.232-1.924-0.695-2.523c-0.465-0.601-1.113-0.9-1.947-0.9
			c-0.83,0-1.479,0.3-1.947,0.9C74.405,105.232,74.171,106.073,74.171,107.155z"/>
		<path class="st5" d="M90.699,111.355h-1.768l-4.171-6.836v5.108c0,0.342,0.045,0.557,0.134,0.645
			c0.09,0.087,0.319,0.131,0.69,0.131h0.573v0.952h-4.12v-0.952h0.586c0.37,0,0.601-0.044,0.689-0.131
			c0.09-0.088,0.135-0.303,0.135-0.645v-4.938c0-0.342-0.045-0.557-0.135-0.644c-0.089-0.088-0.319-0.132-0.689-0.132h-0.537v-0.946
			h3.589l3.711,6.086v-4.364c0-0.342-0.045-0.557-0.134-0.644c-0.09-0.088-0.319-0.132-0.689-0.132h-0.593v-0.946h3.968v0.946
			h-0.403c-0.374,0-0.607,0.045-0.698,0.135c-0.092,0.089-0.138,0.303-0.138,0.641V111.355z"/>
		<path class="st5" d="M92.445,111.355v-0.952h0.488c0.37,0,0.6-0.044,0.689-0.131c0.09-0.088,0.135-0.303,0.135-0.645v-4.938
			c0-0.342-0.045-0.557-0.135-0.644c-0.09-0.088-0.319-0.132-0.689-0.132h-0.488v-0.946h8.252v3.339h-0.952
			c-0.024-0.956-0.181-1.594-0.467-1.913c-0.287-0.319-0.868-0.479-1.743-0.479h-2.014v2.576h0.476c0.525,0,0.869-0.091,1.032-0.271
			c0.162-0.182,0.264-0.598,0.305-1.249l0.952-0.006v4.205l-0.952-0.006c-0.037-0.72-0.137-1.185-0.299-1.395
			c-0.163-0.209-0.505-0.314-1.025-0.314h-0.488v2.948h2.197c0.732,0,1.234-0.17,1.508-0.51c0.272-0.34,0.445-1.036,0.519-2.091
			h0.952v3.553H92.445z"/>
		<path class="st5" d="M110.408,111.355h-1.768l-4.171-6.836v5.108c0,0.342,0.045,0.557,0.134,0.645
			c0.09,0.087,0.319,0.131,0.69,0.131h0.573v0.952h-4.12v-0.952h0.586c0.37,0,0.601-0.044,0.689-0.131
			c0.09-0.088,0.135-0.303,0.135-0.645v-4.938c0-0.342-0.045-0.557-0.135-0.644c-0.089-0.088-0.319-0.132-0.689-0.132h-0.537v-0.946
			h3.589l3.711,6.086v-4.364c0-0.342-0.045-0.557-0.134-0.644c-0.09-0.088-0.319-0.132-0.689-0.132h-0.593v-0.946h3.968v0.946
			h-0.403c-0.374,0-0.607,0.045-0.698,0.135c-0.092,0.089-0.138,0.303-0.138,0.641V111.355z"/>
		<path class="st5" d="M115.217,103.89h-0.165c-0.671,0-1.159,0.201-1.465,0.602c-0.305,0.4-0.463,1.051-0.476,1.95h-0.958v-3.474
			h7.897v3.474h-0.958c-0.008-0.888-0.165-1.534-0.47-1.941c-0.306-0.406-0.792-0.61-1.459-0.61h-0.183v5.737
			c0,0.338,0.045,0.552,0.137,0.642c0.092,0.089,0.324,0.134,0.699,0.134h0.714v0.952h-4.864v-0.952h0.727
			c0.37,0,0.6-0.044,0.689-0.131c0.089-0.088,0.134-0.303,0.134-0.645V103.89z"/>
		<path class="st5" d="M120.632,111.355v-0.952h0.488c0.37,0,0.6-0.044,0.689-0.131c0.09-0.088,0.135-0.303,0.135-0.645v-4.938
			c0-0.342-0.045-0.557-0.135-0.644c-0.09-0.088-0.319-0.132-0.689-0.132h-0.488v-0.946h8.252v3.339h-0.952
			c-0.024-0.956-0.181-1.594-0.467-1.913c-0.287-0.319-0.868-0.479-1.743-0.479h-2.014v2.576h0.476c0.525,0,0.869-0.091,1.032-0.271
			c0.162-0.182,0.264-0.598,0.305-1.249l0.952-0.006v4.205l-0.952-0.006c-0.037-0.72-0.137-1.185-0.299-1.395
			c-0.163-0.209-0.505-0.314-1.025-0.314h-0.488v2.948h2.197c0.732,0,1.234-0.17,1.508-0.51c0.272-0.34,0.445-1.036,0.519-2.091
			h0.952v3.553H120.632z"/>
		<path class="st5" d="M130.329,111.355v-3.461h0.977c0.135,0.834,0.444,1.473,0.928,1.914c0.484,0.441,1.113,0.662,1.887,0.662
			c0.558,0,0.983-0.094,1.278-0.281c0.295-0.187,0.442-0.457,0.442-0.812c0-0.317-0.112-0.576-0.339-0.775
			c-0.226-0.199-0.587-0.355-1.083-0.47l-1.361-0.317c-0.977-0.228-1.68-0.536-2.108-0.925c-0.43-0.389-0.644-0.908-0.644-1.56
			c0-0.789,0.274-1.422,0.823-1.897c0.55-0.477,1.284-0.715,2.204-0.715c0.455,0,0.882,0.07,1.278,0.211s0.782,0.357,1.156,0.65
			l0.439-0.611h0.751v3.174h-0.952c-0.143-0.761-0.442-1.351-0.9-1.77s-1.032-0.629-1.724-0.629c-0.505,0-0.896,0.095-1.172,0.284
			c-0.277,0.189-0.416,0.452-0.416,0.79c0,0.285,0.098,0.513,0.293,0.684s0.509,0.306,0.94,0.403l1.69,0.391
			c0.896,0.203,1.564,0.521,2.008,0.955c0.444,0.434,0.666,0.985,0.666,1.657c0,0.793-0.291,1.441-0.873,1.943
			c-0.582,0.503-1.337,0.754-2.265,0.754c-0.468,0-0.932-0.085-1.392-0.256s-0.926-0.432-1.397-0.781l-0.274,0.787H130.329z"/>
	</g>
</g>
</svg>