<!-- Generator: Adobe Illustrator 22.0.0, SVG Export Plug-In  -->
<svg version="1.1"
	 xmlns="http://www.w3.org/2000/svg" xmlns:xlink="http://www.w3.org/1999/xlink" xmlns:a="http://ns.adobe.com/AdobeSVGViewerExtensions/3.0/"
	 x="0px" y="0px" width="194.432px" height="133.57px" viewBox="0 0 194.432 133.57"
	 style="overflow:scroll;enable-background:new 0 0 194.432 133.57;" xml:space="preserve">
<style type="text/css">
	.st0{fill:url(#SVGID_1_);}
	.st1{fill:url(#SVGID_2_);}
	.st2{fill:url(#SVGID_3_);}
	.st3{fill:url(#SVGID_4_);}
	.st4{fill:url(#SVGID_5_);}
	.st5{fill:url(#SVGID_6_);}
	.st6{fill:url(#SVGID_7_);}
	.st7{fill:url(#SVGID_8_);}
	.st8{fill:url(#SVGID_9_);}
	.st9{fill:#FFFFFF;}
	.st10{fill:url(#SVGID_10_);}
	.st11{fill:url(#SVGID_11_);}
	.st12{fill:url(#SVGID_12_);}
	.st13{fill:url(#SVGID_13_);}
	.st14{fill:url(#SVGID_14_);}
	.st15{fill:url(#SVGID_15_);}
	.st16{fill:url(#SVGID_16_);}
	.st17{fill:url(#SVGID_17_);}
	.st18{fill:url(#SVGID_18_);}
	.st19{font-family:'ClarendonBT-Roman';}
	.st20{font-size:39.2376px;}
</style>
<defs>
</defs>
<g>
	
		<linearGradient id="SVGID_1_" gradientUnits="userSpaceOnUse" x1="-393.8032" y1="-142.1022" x2="-449.9305" y2="-198.2294" gradientTransform="matrix(-1 0 0 -1 -382.4426 -117.7994)">
		<stop  offset="0" style="stop-color:#E2DDDD"/>
		<stop  offset="1" style="stop-color:#C4BEBD"/>
	</linearGradient>
	<path class="st0" d="M2.843,72.014l16.187,22.348c2.796,3.861,7.312,6.165,12.079,6.165h44.633V26.033H31.106
		c-4.764,0-9.277,2.302-12.073,6.159L2.848,54.51C-0.948,59.743-0.95,66.778,2.843,72.014z"/>
	
		<linearGradient id="SVGID_2_" gradientUnits="userSpaceOnUse" x1="-535.6111" y1="30.8008" x2="-535.6111" y2="3.2115" gradientTransform="matrix(-1 0 0 1 -488.0024 0)">
		<stop  offset="0" style="stop-color:#FFFFFF"/>
		<stop  offset="1" style="stop-color:#070308"/>
	</linearGradient>
	<path class="st1" d="M19.543,31.491c2.818-3.422,7.038-5.458,11.498-5.458h44.633v5.458H19.543z"/>
</g>
<linearGradient id="SVGID_3_" gradientUnits="userSpaceOnUse" x1="60.8011" y1="71.1347" x2="14.344" y2="24.6776">
	<stop  offset="0" style="stop-color:#829C32"/>
	<stop  offset="1" style="stop-color:#A0B940"/>
</linearGradient>
<path class="st2" d="M31.957,93.287h45.198V63.259V33.267H31.954c-2.495,0-4.839,1.196-6.304,3.215L9.545,58.691
	c-1.977,2.725-1.978,6.413-0.003,9.139l16.108,22.238C27.115,92.09,29.46,93.287,31.957,93.287z"/>
<radialGradient id="SVGID_4_" cx="-514.4512" cy="-188.9461" r="62.4233" gradientTransform="matrix(-1 0 0 -1 -382.4426 -117.7994)" gradientUnits="userSpaceOnUse">
	<stop  offset="0" style="stop-color:#070308"/>
	<stop  offset="1" style="stop-color:#FFFFFF"/>
</radialGradient>
<circle class="st3" cx="132.009" cy="71.147" r="62.423"/>
<linearGradient id="SVGID_5_" gradientUnits="userSpaceOnUse" x1="169.7299" y1="110.0351" x2="70.4851" y2="10.7903">
	<stop  offset="0" style="stop-color:#829C32"/>
	<stop  offset="1" style="stop-color:#A0B940"/>
</linearGradient>
<circle class="st4" cx="122.969" cy="63.275" r="63.275"/>
<linearGradient id="SVGID_6_" gradientUnits="userSpaceOnUse" x1="-556.3919" y1="-181.0741" x2="-454.4322" y2="-181.0741" gradientTransform="matrix(-1 0 0 -1 -382.4426 -117.7994)">
	<stop  offset="0" style="stop-color:#E2DDDD"/>
	<stop  offset="1" style="stop-color:#C4BEBD"/>
</linearGradient>
<circle class="st5" cx="122.969" cy="63.275" r="50.98"/>
<radialGradient id="SVGID_7_" cx="159.0873" cy="195.1227" r="55.102" gradientTransform="matrix(1 0 0 1 -34.874 -130.0151)" gradientUnits="userSpaceOnUse">
	<stop  offset="0.7955" style="stop-color:#FFFFFF"/>
	<stop  offset="0.8694" style="stop-color:#FEFEFE"/>
	<stop  offset="0.8984" style="stop-color:#F6F6F6"/>
	<stop  offset="0.9195" style="stop-color:#E5E3E4"/>
	<stop  offset="0.9368" style="stop-color:#CCC8CA"/>
	<stop  offset="0.9517" style="stop-color:#AEA7A9"/>
	<stop  offset="0.965" style="stop-color:#8D8586"/>
	<stop  offset="0.9771" style="stop-color:#6B6465"/>
	<stop  offset="0.9883" style="stop-color:#4B4545"/>
	<stop  offset="0.9984" style="stop-color:#2D2929"/>
	<stop  offset="1" style="stop-color:#272324"/>
</radialGradient>
<circle class="st6" cx="122.969" cy="63.275" r="50.98"/>
<radialGradient id="SVGID_8_" cx="-512.293" cy="-190.232" r="38.2706" gradientTransform="matrix(-1 0 0 -1 -382.4426 -117.7994)" gradientUnits="userSpaceOnUse">
	<stop  offset="0" style="stop-color:#070308"/>
	<stop  offset="1" style="stop-color:#FFFFFF"/>
</radialGradient>
<circle class="st7" cx="129.85" cy="72.433" r="38.271"/>
<linearGradient id="SVGID_9_" gradientUnits="userSpaceOnUse" x1="142.7047" y1="81.1934" x2="97.464" y2="35.9527">
	<stop  offset="0" style="stop-color:#829C32"/>
	<stop  offset="1" style="stop-color:#A0B940"/>
</linearGradient>
<circle class="st8" cx="124.72" cy="63.209" r="30.833"/>
<g>
	<g>
		<path class="st9" d="M101.761,64.774c0-3.742,1.025-6.782,3.075-9.119c2.05-2.338,4.703-3.506,7.96-3.506
			c3.258,0,5.917,1.172,7.98,3.516c2.063,2.344,3.094,5.381,3.094,9.109c0,3.743-1.031,6.779-3.094,9.11
			c-2.063,2.331-4.723,3.497-7.98,3.497c-3.257,0-5.91-1.166-7.96-3.497S101.761,68.517,101.761,64.774z M107.854,64.774
			c0,3.296,0.396,5.71,1.188,7.242c0.792,1.533,2.044,2.3,3.755,2.3c1.712,0,2.97-0.77,3.774-2.309s1.207-3.95,1.207-7.233
			c0-3.282-0.402-5.696-1.207-7.241c-0.805-1.546-2.063-2.318-3.774-2.318c-1.698,0-2.947,0.775-3.745,2.327
			C108.252,59.094,107.854,61.505,107.854,64.774z"/>
		<path class="st9" d="M134.063,76.711v-2.816h1.418c1.303,0,2.117-0.121,2.442-0.364c0.326-0.242,0.489-0.83,0.489-1.763v-1.686
			h-11.917v-2.989l13.066-14.522h3.793v14.14h4.599v3.372h-4.599v1.686c0,0.831,0.173,1.393,0.518,1.687s0.971,0.44,1.878,0.44
			h2.203v2.816H134.063z M138.413,66.71l0.114-8.603l-7.759,8.603H138.413z"/>
	</g>
</g>
</svg>