<!-- Generator: Adobe Illustrator 22.0.0, SVG Export Plug-In  -->
<svg version="1.1"
	 xmlns="http://www.w3.org/2000/svg" xmlns:xlink="http://www.w3.org/1999/xlink" xmlns:a="http://ns.adobe.com/AdobeSVGViewerExtensions/3.0/"
	 x="0px" y="0px" width="206.155px" height="281.913px" viewBox="0 0 206.155 281.913"
	 style="overflow:scroll;enable-background:new 0 0 206.155 281.913;" xml:space="preserve">
<style type="text/css">
	.st0{fill-rule:evenodd;clip-rule:evenodd;fill:#8CB929;}
	.st1{fill:#8CB929;}
	.st2{fill:#666666;}
</style>
<defs>
</defs>
<path class="st0" d="M91.27,166.629l36.89,38.803l15.04-14.192c-3.952-7.969-20.634-28.826-25.863-35.812
	c-7.763-10.338-3.689-38.943-3.425-54.46l17.654,12.747l5.229-11.101c5.351-6.062,7.52-1.867,9.628-7.969
	c-5.594-6.183-34.295-29.83-41.45-34.547c-8.837-5.801-23.512-5.681-31.255,1.004c-8.472,7.347-6.75,19.451-6.689,33.463
	c0.426,113.497-19.945,106.993-62.57,163.962c-7.459,9.957-6.304,23.968,9.182,23.125c9.993-0.562,16.398-11.763,21.586-18.448
	c8.554-10.98,29.187-31.155,34.842-40.93C78.035,208.483,83.284,182.548,91.27,166.629L91.27,166.629z"/>
<path class="st0" d="M64.961,100.968l-0.405-24.952c-7.317,2.911-25.661,27.521-28.032,33.624
	c-2.209,5.661-12.851,39.907-13.053,46.15c-0.284,9.234,5.31,15.417,16.114,13.409c8.999-1.666,9.344-10.097,12.161-19.773
	C56.529,133.026,64.961,118.452,64.961,100.968L64.961,100.968z"/>
<path class="st0" d="M81.582,1.703C50.773,11.76,63.846,60.7,99.094,49.96C128.16,41.088,117.073-9.879,81.582,1.703L81.582,1.703z"
	/>
<path class="st0" d="M155.949,281.913c3.304,0,11.492-0.442,14.492-1.184c6.101-1.485,6-2.73,8.148-6.805
	c-5.493-7.849,0.466-0.863-14.371-6.865c-10.864-4.416-9.121-8.23-12.851-7.307l-3.709,1.024c-0.77,0.261-3.425,1.445-3.79,1.506
	c-5.31,0.883-1.297-1.706-8.472-0.803c-3.243,6.062-3.284,11.623-3.385,19.452L155.949,281.913z"/>
<path class="st0" d="M189.514,127.505l-4.013,12.787c6.466,2.288,8.006,4.376,15.729,4.898c4.074-4.838,3.304-3.794,4.925-12.566
	l-7.013-2.549c6.831,0.161,4.459,1.927,6.385-3.473c-3.02-2.268-4.094-2.991-8.371-0.803
	C191.399,128.73,202.202,129.934,189.514,127.505L189.514,127.505z"/>
<path class="st0" d="M136.571,197.061c-5.736,13.49,0.77,20.576,14.533,14.393C152.665,199.51,150.111,193.468,136.571,197.061
	L136.571,197.061z"/>
<path class="st0" d="M138.173,115.381c19.681,5.38,19.945-18.889,1.52-12.847C136.673,107.793,136.511,108.797,138.173,115.381
	L138.173,115.381z"/>
<g>
	<line class="st1" x1="144.699" y1="216.131" x2="143.99" y2="260.775"/>
	<g>
		<path class="st2" d="M142.199,216.131c-0.236,14.881-0.473,29.763-0.709,44.644c-0.051,3.219,4.949,3.22,5,0
			c0.236-14.881,0.473-29.763,0.709-44.644C147.25,212.912,142.25,212.911,142.199,216.131L142.199,216.131z"/>
	</g>
</g>
<g>
	<line x1="153.962" y1="112.631" x2="183.697" y2="127.505"/>
	<g>
		<path class="st2" d="M152.7,114.789c9.912,4.958,19.823,9.916,29.735,14.875c2.87,1.436,5.405-2.876,2.524-4.317
			c-9.912-4.958-19.823-9.916-29.735-14.875C152.354,109.036,149.819,113.348,152.7,114.789L152.7,114.789z"/>
	</g>
</g>
</svg>