<!-- Generator: Adobe Illustrator 22.0.0, SVG Export Plug-In  -->
<svg version="1.1"
	 xmlns="http://www.w3.org/2000/svg" xmlns:xlink="http://www.w3.org/1999/xlink" xmlns:a="http://ns.adobe.com/AdobeSVGViewerExtensions/3.0/"
	 x="0px" y="0px" width="271.674px" height="99.216px" viewBox="0 0 271.674 99.216"
	 style="overflow:scroll;enable-background:new 0 0 271.674 99.216;" xml:space="preserve">
<style type="text/css">
	.st0{fill-rule:evenodd;clip-rule:evenodd;fill:url(#SVGID_1_);}
	.st1{fill-rule:evenodd;clip-rule:evenodd;fill:#FFFFFF;stroke:#58167D;stroke-miterlimit:10;}
	.st2{fill-rule:evenodd;clip-rule:evenodd;fill:url(#SVGID_2_);}
	.st3{font-family:'Calibri';}
	.st4{font-size:18.5043px;}
</style>
<defs>
</defs>
<linearGradient id="SVGID_1_" gradientUnits="userSpaceOnUse" x1="8.1463" y1="45.882" x2="271.6744" y2="45.882">
	<stop  offset="0" style="stop-color:#9C4189"/>
	<stop  offset="1" style="stop-color:#621A56"/>
</linearGradient>
<rect x="8.146" class="st0" width="263.528" height="91.764"/>
<rect x="0.5" y="15.664" class="st1" width="251.258" height="83.052"/>
<g>
	<path d="M39.235,42.059c0,0.048-0.014,0.09-0.042,0.126c-0.027,0.036-0.076,0.065-0.145,0.086
		c-0.069,0.021-0.157,0.039-0.264,0.054c-0.107,0.015-0.247,0.022-0.418,0.022c-0.159,0-0.295-0.008-0.409-0.022
		c-0.114-0.015-0.203-0.033-0.269-0.054c-0.066-0.021-0.112-0.05-0.14-0.086c-0.028-0.036-0.042-0.078-0.042-0.126V31.876h-0.02
		l-4.577,10.228c-0.02,0.042-0.049,0.079-0.085,0.108c-0.037,0.03-0.09,0.056-0.161,0.077s-0.154,0.036-0.251,0.045
		c-0.097,0.009-0.212,0.014-0.346,0.014c-0.141,0-0.261-0.006-0.361-0.018s-0.184-0.029-0.251-0.05s-0.119-0.046-0.156-0.077
		c-0.037-0.03-0.062-0.063-0.075-0.1l-4.376-10.228h-0.01v10.183c0,0.048-0.014,0.09-0.042,0.126
		c-0.027,0.036-0.076,0.065-0.145,0.086s-0.159,0.039-0.269,0.054c-0.11,0.015-0.252,0.022-0.424,0.022
		c-0.166,0-0.304-0.008-0.414-0.022c-0.11-0.015-0.198-0.033-0.264-0.054s-0.11-0.05-0.134-0.086
		c-0.024-0.036-0.036-0.078-0.036-0.126V31.307c0-0.253,0.075-0.434,0.224-0.542s0.316-0.163,0.5-0.163h1.06
		c0.217,0,0.407,0.018,0.57,0.055c0.163,0.036,0.306,0.093,0.428,0.171c0.122,0.079,0.224,0.178,0.306,0.298
		s0.153,0.262,0.214,0.424l3.713,8.466h0.05l3.864-8.439c0.075-0.181,0.156-0.334,0.245-0.461s0.186-0.227,0.291-0.303
		c0.105-0.075,0.222-0.129,0.352-0.163c0.129-0.033,0.279-0.05,0.449-0.05h1.111c0.102,0,0.199,0.014,0.291,0.041
		c0.092,0.027,0.17,0.069,0.235,0.126s0.117,0.129,0.158,0.217c0.041,0.087,0.061,0.194,0.061,0.321V42.059z"/>
	<path d="M44.344,31.189c0,0.35-0.074,0.587-0.221,0.714c-0.147,0.126-0.418,0.19-0.813,0.19c-0.388,0-0.654-0.062-0.798-0.186
		c-0.144-0.123-0.216-0.357-0.216-0.7c0-0.349,0.074-0.587,0.221-0.714s0.418-0.189,0.813-0.189c0.388,0,0.654,0.062,0.798,0.185
		C44.272,30.613,44.344,30.846,44.344,31.189z M44.153,42.068c0,0.048-0.014,0.089-0.04,0.122c-0.027,0.033-0.07,0.062-0.131,0.086
		c-0.06,0.024-0.144,0.042-0.251,0.054c-0.107,0.012-0.244,0.018-0.411,0.018c-0.161,0-0.295-0.006-0.402-0.018
		s-0.192-0.03-0.256-0.054s-0.107-0.053-0.13-0.086c-0.023-0.033-0.035-0.074-0.035-0.122v-8.131c0-0.042,0.012-0.082,0.035-0.118
		s0.067-0.066,0.13-0.09s0.149-0.042,0.256-0.054s0.241-0.018,0.402-0.018c0.167,0,0.304,0.006,0.411,0.018
		c0.107,0.012,0.191,0.03,0.251,0.054c0.061,0.024,0.104,0.054,0.131,0.09c0.026,0.036,0.04,0.075,0.04,0.118V42.068z"/>
	<path d="M54.923,37.65c0,0.235-0.065,0.402-0.197,0.501c-0.131,0.099-0.28,0.149-0.449,0.149h-5.949c0,0.452,0.05,0.858,0.151,1.22
		c0.101,0.361,0.269,0.672,0.504,0.931c0.235,0.259,0.542,0.458,0.918,0.596c0.376,0.139,0.837,0.208,1.382,0.208
		c0.43,0,0.813-0.032,1.15-0.095c0.336-0.063,0.627-0.134,0.872-0.212c0.246-0.078,0.447-0.149,0.605-0.212s0.277-0.095,0.358-0.095
		c0.047,0,0.089,0.01,0.126,0.031c0.037,0.021,0.066,0.053,0.086,0.095s0.035,0.101,0.045,0.176c0.01,0.075,0.015,0.167,0.015,0.275
		c0,0.078-0.003,0.146-0.01,0.203c-0.006,0.058-0.015,0.108-0.025,0.154c-0.01,0.045-0.027,0.086-0.05,0.122
		s-0.054,0.071-0.09,0.104c-0.037,0.033-0.146,0.087-0.326,0.163c-0.181,0.075-0.415,0.149-0.703,0.221s-0.621,0.137-0.999,0.194
		c-0.378,0.057-0.781,0.086-1.209,0.086c-0.743,0-1.394-0.094-1.952-0.28c-0.559-0.187-1.029-0.464-1.41-0.831
		c-0.381-0.368-0.669-0.828-0.863-1.383c-0.194-0.554-0.291-1.198-0.291-1.934c0-0.698,0.1-1.326,0.301-1.884
		c0.201-0.557,0.49-1.03,0.868-1.418c0.378-0.389,0.835-0.687,1.37-0.895c0.536-0.208,1.134-0.312,1.797-0.312
		c0.709,0,1.313,0.103,1.812,0.307c0.499,0.205,0.909,0.48,1.229,0.827c0.321,0.347,0.557,0.753,0.708,1.22
		c0.15,0.467,0.226,0.965,0.226,1.496V37.65z M53.257,37.207c0.02-0.783-0.174-1.397-0.581-1.843s-1.011-0.668-1.813-0.668
		c-0.411,0-0.771,0.069-1.081,0.208c-0.31,0.138-0.569,0.322-0.778,0.551c-0.208,0.229-0.37,0.496-0.484,0.8
		c-0.115,0.304-0.179,0.622-0.192,0.953H53.257z"/>
	<path d="M65.221,42.068c0,0.048-0.014,0.089-0.04,0.122c-0.027,0.033-0.07,0.062-0.13,0.086C64.99,42.3,64.907,42.318,64.8,42.33
		c-0.107,0.012-0.241,0.018-0.402,0.018c-0.167,0-0.304-0.006-0.411-0.018c-0.107-0.012-0.191-0.03-0.251-0.054
		c-0.061-0.024-0.104-0.053-0.131-0.086c-0.026-0.033-0.04-0.074-0.04-0.122v-4.761c0-0.464-0.04-0.837-0.12-1.121
		c-0.081-0.283-0.198-0.527-0.352-0.732c-0.154-0.205-0.353-0.361-0.597-0.47s-0.527-0.163-0.848-0.163
		c-0.415,0-0.83,0.132-1.245,0.397s-0.85,0.654-1.305,1.166v5.683c0,0.048-0.014,0.089-0.04,0.122
		c-0.027,0.033-0.07,0.062-0.131,0.086c-0.06,0.024-0.144,0.042-0.251,0.054c-0.107,0.012-0.244,0.018-0.411,0.018
		c-0.161,0-0.295-0.006-0.402-0.018s-0.192-0.03-0.256-0.054s-0.107-0.053-0.13-0.086c-0.023-0.033-0.035-0.074-0.035-0.122v-8.131
		c0-0.048,0.01-0.089,0.03-0.122s0.06-0.063,0.12-0.09c0.061-0.027,0.137-0.045,0.231-0.054c0.094-0.009,0.217-0.014,0.372-0.014
		c0.147,0,0.269,0.004,0.366,0.014c0.097,0.009,0.172,0.027,0.226,0.054c0.053,0.027,0.092,0.057,0.115,0.09
		s0.035,0.074,0.035,0.122v1.075c0.508-0.512,1.015-0.887,1.521-1.125s1.016-0.357,1.531-0.357c0.602,0,1.109,0.092,1.521,0.275
		c0.412,0.184,0.745,0.429,0.999,0.736c0.254,0.307,0.437,0.667,0.547,1.08s0.166,0.908,0.166,1.486V42.068z"/>
	<path d="M72.749,41.472c0,0.175-0.013,0.313-0.04,0.416c-0.027,0.103-0.067,0.178-0.121,0.226
		c-0.053,0.048-0.134,0.093-0.241,0.135c-0.107,0.042-0.229,0.077-0.366,0.104c-0.137,0.027-0.283,0.05-0.437,0.068
		c-0.154,0.018-0.308,0.027-0.462,0.027c-0.468,0-0.87-0.056-1.205-0.167s-0.609-0.28-0.823-0.506
		c-0.214-0.226-0.37-0.512-0.467-0.858c-0.097-0.346-0.146-0.754-0.146-1.224v-4.752h-1.265c-0.101,0-0.181-0.048-0.241-0.145
		c-0.06-0.096-0.09-0.253-0.09-0.47c0-0.114,0.008-0.21,0.025-0.289c0.017-0.078,0.038-0.143,0.065-0.194
		c0.027-0.051,0.062-0.087,0.105-0.108c0.043-0.021,0.092-0.032,0.146-0.032h1.255v-1.933c0-0.042,0.012-0.082,0.035-0.118
		s0.067-0.068,0.13-0.095c0.063-0.027,0.149-0.047,0.256-0.059c0.107-0.012,0.241-0.018,0.401-0.018
		c0.167,0,0.305,0.006,0.412,0.018c0.107,0.012,0.191,0.032,0.251,0.059c0.06,0.027,0.104,0.059,0.13,0.095s0.041,0.075,0.041,0.118
		v1.933h2.318c0.053,0,0.101,0.011,0.141,0.032c0.04,0.021,0.075,0.058,0.105,0.108c0.03,0.051,0.052,0.116,0.065,0.194
		c0.013,0.079,0.02,0.175,0.02,0.289c0,0.217-0.03,0.374-0.09,0.47c-0.06,0.097-0.14,0.145-0.241,0.145h-2.318v4.536
		c0,0.56,0.092,0.983,0.276,1.27s0.513,0.429,0.989,0.429c0.154,0,0.291-0.013,0.411-0.041c0.121-0.027,0.228-0.056,0.321-0.086
		c0.094-0.03,0.174-0.059,0.241-0.085c0.067-0.027,0.127-0.041,0.181-0.041c0.033,0,0.065,0.008,0.095,0.023
		c0.03,0.015,0.053,0.043,0.07,0.085c0.017,0.042,0.032,0.1,0.045,0.172S72.749,41.363,72.749,41.472z"/>
	<path d="M80.217,34.469c0,0.133-0.004,0.244-0.01,0.334c-0.007,0.09-0.02,0.161-0.04,0.212s-0.045,0.09-0.075,0.117
		c-0.03,0.027-0.072,0.041-0.125,0.041c-0.054,0-0.119-0.014-0.196-0.041c-0.077-0.027-0.164-0.054-0.261-0.081
		c-0.097-0.027-0.206-0.053-0.326-0.077c-0.12-0.024-0.251-0.036-0.391-0.036c-0.167,0-0.332,0.03-0.492,0.09
		c-0.161,0.06-0.33,0.16-0.507,0.298c-0.177,0.139-0.363,0.322-0.557,0.551c-0.194,0.229-0.408,0.509-0.642,0.84v5.349
		c0,0.048-0.014,0.089-0.04,0.122c-0.027,0.033-0.07,0.062-0.131,0.086c-0.06,0.024-0.144,0.042-0.251,0.054
		c-0.107,0.012-0.244,0.018-0.411,0.018c-0.161,0-0.295-0.006-0.402-0.018s-0.192-0.03-0.256-0.054s-0.107-0.053-0.13-0.086
		c-0.023-0.033-0.035-0.074-0.035-0.122v-8.131c0-0.048,0.01-0.089,0.03-0.122s0.06-0.063,0.12-0.09
		c0.061-0.027,0.137-0.045,0.231-0.054c0.094-0.009,0.217-0.014,0.372-0.014c0.147,0,0.269,0.004,0.366,0.014
		c0.097,0.009,0.172,0.027,0.226,0.054c0.053,0.027,0.092,0.057,0.115,0.09s0.035,0.074,0.035,0.122v1.184
		c0.248-0.326,0.48-0.59,0.698-0.795c0.217-0.205,0.423-0.366,0.617-0.483c0.194-0.117,0.386-0.199,0.577-0.244
		c0.19-0.045,0.383-0.068,0.577-0.068c0.087,0,0.186,0.004,0.296,0.014c0.11,0.009,0.226,0.025,0.346,0.049
		c0.121,0.024,0.229,0.051,0.326,0.082c0.097,0.03,0.166,0.06,0.206,0.09s0.067,0.059,0.08,0.086
		c0.014,0.027,0.025,0.062,0.035,0.104c0.01,0.042,0.017,0.104,0.02,0.185C80.215,34.221,80.217,34.331,80.217,34.469z"/>
	<path d="M88.487,42.077c0,0.072-0.027,0.126-0.08,0.163c-0.054,0.036-0.127,0.063-0.221,0.082s-0.23,0.027-0.411,0.027
		c-0.174,0-0.313-0.009-0.417-0.027c-0.104-0.018-0.179-0.045-0.226-0.082s-0.07-0.09-0.07-0.163v-0.813
		c-0.395,0.379-0.835,0.674-1.32,0.885c-0.485,0.211-0.999,0.316-1.541,0.316c-0.476,0-0.905-0.056-1.29-0.167
		s-0.712-0.272-0.983-0.483c-0.271-0.21-0.482-0.47-0.632-0.777c-0.151-0.307-0.226-0.657-0.226-1.048
		c0-0.458,0.104-0.855,0.311-1.192s0.505-0.618,0.894-0.84c0.388-0.223,0.863-0.39,1.425-0.501s1.194-0.167,1.897-0.167h1.245
		v-0.633c0-0.313-0.037-0.59-0.11-0.831c-0.074-0.241-0.192-0.441-0.356-0.601c-0.164-0.159-0.376-0.28-0.637-0.361
		c-0.261-0.081-0.583-0.122-0.964-0.122c-0.408,0-0.774,0.044-1.099,0.131c-0.324,0.087-0.609,0.184-0.853,0.289
		s-0.448,0.202-0.612,0.289s-0.286,0.131-0.366,0.131c-0.054,0-0.101-0.012-0.141-0.036c-0.04-0.024-0.075-0.06-0.105-0.108
		c-0.03-0.048-0.052-0.11-0.065-0.185c-0.014-0.075-0.02-0.158-0.02-0.249c0-0.15,0.011-0.27,0.035-0.357
		c0.023-0.087,0.08-0.17,0.17-0.249c0.09-0.078,0.246-0.17,0.467-0.275s0.475-0.202,0.763-0.289s0.602-0.16,0.943-0.217
		s0.686-0.086,1.034-0.086c0.649,0,1.201,0.066,1.656,0.199s0.823,0.327,1.104,0.583c0.281,0.256,0.485,0.574,0.612,0.954
		c0.127,0.379,0.191,0.822,0.191,1.328V42.077z M86.841,38.364h-1.416c-0.455,0-0.85,0.035-1.184,0.104
		c-0.335,0.069-0.612,0.172-0.833,0.308c-0.221,0.135-0.383,0.298-0.487,0.488c-0.104,0.189-0.156,0.408-0.156,0.655
		c0,0.422,0.149,0.758,0.447,1.008c0.297,0.25,0.714,0.375,1.25,0.375c0.435,0,0.838-0.1,1.209-0.298
		c0.372-0.199,0.761-0.503,1.169-0.913V38.364z"/>
	<path d="M97.199,39.854c0,0.416-0.085,0.786-0.256,1.111s-0.413,0.6-0.728,0.822c-0.315,0.223-0.689,0.392-1.125,0.506
		s-0.913,0.172-1.435,0.172c-0.321,0-0.627-0.023-0.918-0.068c-0.291-0.045-0.552-0.103-0.783-0.172
		c-0.231-0.069-0.427-0.141-0.587-0.217c-0.161-0.075-0.278-0.143-0.351-0.203c-0.074-0.06-0.127-0.145-0.161-0.253
		c-0.034-0.108-0.05-0.256-0.05-0.443c0-0.114,0.007-0.211,0.02-0.289s0.03-0.142,0.05-0.19c0.02-0.048,0.048-0.083,0.085-0.104
		c0.037-0.021,0.079-0.031,0.125-0.031c0.073,0,0.182,0.041,0.326,0.122c0.144,0.082,0.321,0.17,0.532,0.267
		c0.211,0.097,0.46,0.186,0.748,0.267c0.288,0.082,0.619,0.122,0.994,0.122c0.281,0,0.535-0.027,0.763-0.082
		c0.228-0.054,0.425-0.134,0.592-0.239c0.167-0.105,0.296-0.239,0.386-0.402s0.136-0.355,0.136-0.579
		c0-0.229-0.065-0.421-0.196-0.578s-0.303-0.295-0.517-0.416s-0.455-0.228-0.723-0.321s-0.543-0.191-0.828-0.293
		c-0.284-0.103-0.562-0.218-0.833-0.348c-0.271-0.129-0.514-0.288-0.728-0.474c-0.214-0.187-0.387-0.41-0.517-0.669
		c-0.13-0.259-0.196-0.569-0.196-0.93c0-0.319,0.069-0.625,0.206-0.917c0.137-0.292,0.343-0.548,0.617-0.768
		c0.274-0.22,0.617-0.396,1.029-0.528s0.892-0.199,1.44-0.199c0.241,0,0.481,0.018,0.723,0.054c0.241,0.036,0.458,0.081,0.652,0.135
		c0.194,0.054,0.359,0.113,0.497,0.176c0.137,0.063,0.241,0.119,0.312,0.167c0.07,0.048,0.117,0.09,0.14,0.126
		s0.041,0.077,0.05,0.122c0.01,0.045,0.02,0.101,0.03,0.167c0.01,0.066,0.015,0.147,0.015,0.244c0,0.103-0.005,0.191-0.015,0.267
		c-0.01,0.076-0.027,0.137-0.05,0.186s-0.052,0.083-0.085,0.104c-0.033,0.021-0.07,0.032-0.11,0.032
		c-0.06,0-0.147-0.033-0.261-0.099s-0.261-0.137-0.442-0.212s-0.393-0.146-0.637-0.212s-0.523-0.1-0.838-0.1
		c-0.281,0-0.529,0.029-0.743,0.086c-0.214,0.058-0.39,0.139-0.527,0.244s-0.241,0.23-0.311,0.375s-0.105,0.301-0.105,0.47
		c0,0.235,0.067,0.432,0.201,0.592s0.308,0.3,0.522,0.42c0.214,0.121,0.458,0.229,0.733,0.326c0.274,0.096,0.554,0.196,0.838,0.298
		c0.284,0.103,0.565,0.217,0.843,0.343c0.277,0.126,0.523,0.28,0.738,0.461c0.214,0.181,0.386,0.397,0.517,0.65
		C97.134,39.204,97.199,39.505,97.199,39.854z"/>
	<path d="M111.924,37.65c0,0.235-0.065,0.402-0.197,0.501c-0.131,0.099-0.28,0.149-0.449,0.149h-5.949
		c0,0.452,0.05,0.858,0.151,1.22c0.101,0.361,0.269,0.672,0.504,0.931c0.235,0.259,0.542,0.458,0.918,0.596
		c0.376,0.139,0.837,0.208,1.382,0.208c0.43,0,0.813-0.032,1.15-0.095c0.336-0.063,0.627-0.134,0.872-0.212
		c0.246-0.078,0.447-0.149,0.605-0.212s0.277-0.095,0.358-0.095c0.047,0,0.089,0.01,0.126,0.031
		c0.037,0.021,0.066,0.053,0.086,0.095s0.035,0.101,0.045,0.176c0.01,0.075,0.015,0.167,0.015,0.275c0,0.078-0.003,0.146-0.01,0.203
		c-0.006,0.058-0.015,0.108-0.025,0.154c-0.01,0.045-0.027,0.086-0.05,0.122s-0.054,0.071-0.09,0.104
		c-0.037,0.033-0.146,0.087-0.326,0.163c-0.181,0.075-0.415,0.149-0.703,0.221s-0.621,0.137-0.999,0.194
		c-0.378,0.057-0.781,0.086-1.209,0.086c-0.743,0-1.394-0.094-1.952-0.28c-0.559-0.187-1.029-0.464-1.41-0.831
		c-0.381-0.368-0.669-0.828-0.863-1.383c-0.194-0.554-0.291-1.198-0.291-1.934c0-0.698,0.1-1.326,0.301-1.884
		c0.201-0.557,0.49-1.03,0.868-1.418c0.378-0.389,0.835-0.687,1.37-0.895c0.536-0.208,1.134-0.312,1.797-0.312
		c0.709,0,1.313,0.103,1.812,0.307c0.499,0.205,0.909,0.48,1.229,0.827c0.321,0.347,0.557,0.753,0.708,1.22
		c0.15,0.467,0.226,0.965,0.226,1.496V37.65z M110.258,37.207c0.02-0.783-0.174-1.397-0.581-1.843s-1.011-0.668-1.813-0.668
		c-0.411,0-0.771,0.069-1.081,0.208c-0.31,0.138-0.569,0.322-0.778,0.551c-0.208,0.229-0.37,0.496-0.484,0.8
		c-0.115,0.304-0.179,0.622-0.192,0.953H110.258z"/>
	<path d="M116.099,42.068c0,0.048-0.014,0.089-0.04,0.122c-0.027,0.033-0.07,0.062-0.131,0.086c-0.06,0.024-0.144,0.042-0.251,0.054
		c-0.107,0.012-0.244,0.018-0.411,0.018c-0.161,0-0.295-0.006-0.402-0.018s-0.192-0.03-0.256-0.054s-0.107-0.053-0.13-0.086
		c-0.023-0.033-0.035-0.074-0.035-0.122V29.997c0-0.048,0.012-0.09,0.035-0.126s0.067-0.066,0.13-0.09
		c0.063-0.024,0.149-0.042,0.256-0.054c0.107-0.012,0.241-0.018,0.402-0.018c0.167,0,0.304,0.006,0.411,0.018
		c0.107,0.012,0.191,0.03,0.251,0.054c0.061,0.024,0.104,0.054,0.131,0.09c0.026,0.036,0.04,0.078,0.04,0.126V42.068z"/>
	<path d="M137.207,42.068c0,0.048-0.013,0.089-0.04,0.122c-0.027,0.033-0.07,0.062-0.13,0.086s-0.144,0.042-0.251,0.054
		s-0.241,0.018-0.401,0.018c-0.167,0-0.305-0.006-0.412-0.018s-0.192-0.03-0.256-0.054c-0.064-0.024-0.109-0.053-0.136-0.086
		c-0.027-0.033-0.04-0.074-0.04-0.122v-4.942c0-0.344-0.034-0.657-0.1-0.94c-0.067-0.283-0.174-0.527-0.321-0.732
		c-0.147-0.205-0.335-0.361-0.562-0.47c-0.228-0.108-0.496-0.163-0.803-0.163c-0.381,0-0.765,0.132-1.149,0.397
		s-0.808,0.654-1.27,1.166v5.683c0,0.048-0.014,0.089-0.04,0.122c-0.027,0.033-0.072,0.062-0.136,0.086s-0.149,0.042-0.256,0.054
		s-0.241,0.018-0.401,0.018c-0.154,0-0.286-0.006-0.396-0.018s-0.197-0.03-0.261-0.054c-0.064-0.024-0.107-0.053-0.131-0.086
		c-0.023-0.033-0.035-0.074-0.035-0.122v-4.942c0-0.344-0.037-0.657-0.11-0.94s-0.184-0.527-0.331-0.732
		c-0.147-0.205-0.333-0.361-0.557-0.47s-0.49-0.163-0.798-0.163c-0.381,0-0.767,0.132-1.154,0.397
		c-0.388,0.265-0.81,0.654-1.265,1.166v5.683c0,0.048-0.014,0.089-0.04,0.122c-0.027,0.033-0.07,0.062-0.131,0.086
		c-0.06,0.024-0.144,0.042-0.251,0.054c-0.107,0.012-0.244,0.018-0.411,0.018c-0.161,0-0.295-0.006-0.402-0.018
		s-0.192-0.03-0.256-0.054s-0.107-0.053-0.13-0.086c-0.023-0.033-0.035-0.074-0.035-0.122v-8.131c0-0.048,0.01-0.089,0.03-0.122
		s0.06-0.063,0.12-0.09c0.061-0.027,0.137-0.045,0.231-0.054c0.094-0.009,0.217-0.014,0.372-0.014c0.147,0,0.269,0.004,0.366,0.014
		c0.097,0.009,0.172,0.027,0.226,0.054c0.053,0.027,0.092,0.057,0.115,0.09s0.035,0.074,0.035,0.122v1.075
		c0.508-0.512,1.002-0.887,1.48-1.125s0.962-0.357,1.45-0.357c0.375,0,0.711,0.039,1.009,0.117c0.298,0.079,0.561,0.188,0.788,0.33
		s0.421,0.31,0.582,0.506s0.294,0.414,0.401,0.655c0.301-0.295,0.587-0.545,0.858-0.75s0.532-0.371,0.783-0.497
		s0.495-0.218,0.733-0.275c0.237-0.057,0.477-0.086,0.718-0.086c0.582,0,1.07,0.092,1.465,0.275
		c0.395,0.184,0.714,0.429,0.958,0.736c0.244,0.307,0.418,0.667,0.522,1.08c0.104,0.413,0.155,0.848,0.155,1.305V42.068z"/>
	<path d="M147.967,42.068c0,0.048-0.012,0.089-0.035,0.122c-0.023,0.033-0.065,0.062-0.125,0.086s-0.139,0.042-0.236,0.054
		c-0.097,0.012-0.216,0.018-0.356,0.018c-0.154,0-0.279-0.006-0.376-0.018s-0.174-0.03-0.231-0.054
		c-0.057-0.024-0.095-0.053-0.115-0.086c-0.02-0.033-0.03-0.074-0.03-0.122v-1.075c-0.515,0.512-1.023,0.886-1.525,1.121
		s-1.011,0.353-1.526,0.353c-0.602,0-1.109-0.09-1.521-0.271c-0.412-0.181-0.745-0.426-0.999-0.736
		c-0.254-0.31-0.437-0.671-0.547-1.084c-0.11-0.413-0.166-0.914-0.166-1.504v-4.933c0-0.048,0.012-0.089,0.035-0.122
		s0.069-0.063,0.136-0.09c0.067-0.027,0.154-0.045,0.261-0.054c0.107-0.009,0.241-0.014,0.401-0.014
		c0.161,0,0.294,0.004,0.402,0.014c0.107,0.009,0.192,0.027,0.256,0.054c0.063,0.027,0.108,0.057,0.135,0.09
		s0.041,0.074,0.041,0.122v4.734c0,0.476,0.038,0.857,0.115,1.143c0.077,0.286,0.194,0.53,0.351,0.731
		c0.157,0.202,0.356,0.359,0.598,0.47c0.241,0.111,0.521,0.167,0.843,0.167c0.415,0,0.828-0.132,1.24-0.397s0.848-0.654,1.31-1.166
		v-5.683c0-0.048,0.012-0.089,0.035-0.122s0.069-0.063,0.136-0.09c0.067-0.027,0.152-0.045,0.256-0.054
		c0.104-0.009,0.239-0.014,0.407-0.014c0.161,0,0.294,0.004,0.401,0.014c0.107,0.009,0.19,0.027,0.251,0.054
		c0.06,0.027,0.105,0.057,0.135,0.09c0.03,0.033,0.045,0.074,0.045,0.122V42.068z"/>
	<path d="M158.807,42.068c0,0.048-0.014,0.089-0.04,0.122c-0.027,0.033-0.07,0.062-0.13,0.086c-0.061,0.024-0.144,0.042-0.251,0.054
		c-0.107,0.012-0.241,0.018-0.402,0.018c-0.167,0-0.304-0.006-0.411-0.018c-0.107-0.012-0.191-0.03-0.251-0.054
		c-0.061-0.024-0.104-0.053-0.131-0.086c-0.026-0.033-0.04-0.074-0.04-0.122v-4.761c0-0.464-0.04-0.837-0.12-1.121
		c-0.081-0.283-0.198-0.527-0.352-0.732c-0.154-0.205-0.353-0.361-0.597-0.47s-0.527-0.163-0.848-0.163
		c-0.415,0-0.83,0.132-1.245,0.397s-0.85,0.654-1.305,1.166v5.683c0,0.048-0.014,0.089-0.04,0.122
		c-0.027,0.033-0.07,0.062-0.131,0.086c-0.06,0.024-0.144,0.042-0.251,0.054c-0.107,0.012-0.244,0.018-0.411,0.018
		c-0.161,0-0.295-0.006-0.402-0.018s-0.192-0.03-0.256-0.054s-0.107-0.053-0.13-0.086c-0.023-0.033-0.035-0.074-0.035-0.122v-8.131
		c0-0.048,0.01-0.089,0.03-0.122s0.06-0.063,0.12-0.09c0.061-0.027,0.137-0.045,0.231-0.054c0.094-0.009,0.217-0.014,0.372-0.014
		c0.147,0,0.269,0.004,0.366,0.014c0.097,0.009,0.172,0.027,0.226,0.054c0.053,0.027,0.092,0.057,0.115,0.09
		s0.035,0.074,0.035,0.122v1.075c0.508-0.512,1.015-0.887,1.521-1.125s1.016-0.357,1.531-0.357c0.602,0,1.109,0.092,1.521,0.275
		c0.412,0.184,0.745,0.429,0.999,0.736c0.254,0.307,0.437,0.667,0.547,1.08s0.166,0.908,0.166,1.486V42.068z M158.245,30.421
		c0,0.639-0.174,1.126-0.522,1.464c-0.348,0.337-0.82,0.506-1.415,0.506c-0.248,0-0.469-0.028-0.663-0.085
		c-0.194-0.058-0.372-0.131-0.532-0.222c-0.161-0.09-0.308-0.187-0.441-0.289s-0.266-0.199-0.396-0.289s-0.259-0.164-0.386-0.221
		c-0.127-0.058-0.265-0.086-0.412-0.086c-0.268,0-0.455,0.087-0.562,0.262c-0.107,0.175-0.161,0.407-0.161,0.696
		c0,0.042-0.007,0.08-0.02,0.113c-0.014,0.033-0.042,0.059-0.085,0.077s-0.107,0.03-0.191,0.036s-0.189,0.009-0.316,0.009
		c-0.107,0-0.198-0.004-0.271-0.013c-0.074-0.009-0.132-0.027-0.176-0.054c-0.043-0.027-0.075-0.066-0.095-0.118
		s-0.03-0.116-0.03-0.194c0-0.596,0.167-1.072,0.502-1.428c0.334-0.355,0.813-0.533,1.435-0.533c0.361,0,0.673,0.062,0.934,0.185
		c0.261,0.124,0.497,0.259,0.708,0.407c0.211,0.147,0.408,0.285,0.592,0.411s0.383,0.189,0.597,0.189
		c0.241,0,0.423-0.08,0.547-0.239c0.124-0.16,0.186-0.396,0.186-0.709c0-0.096,0.035-0.161,0.105-0.194
		c0.07-0.033,0.222-0.049,0.457-0.049c0.248,0,0.412,0.022,0.492,0.068C158.205,30.164,158.245,30.265,158.245,30.421z"/>
	<path d="M170.229,37.912c0,0.663-0.097,1.273-0.291,1.83c-0.194,0.557-0.483,1.038-0.868,1.441
		c-0.385,0.404-0.867,0.718-1.445,0.944c-0.579,0.226-1.25,0.339-2.012,0.339c-0.743,0-1.39-0.1-1.942-0.298
		c-0.552-0.199-1.012-0.488-1.38-0.867c-0.368-0.38-0.643-0.84-0.823-1.383c-0.181-0.542-0.271-1.156-0.271-1.843
		c0-0.663,0.095-1.272,0.286-1.83c0.19-0.557,0.479-1.037,0.863-1.441c0.385-0.403,0.865-0.717,1.44-0.939
		c0.576-0.223,1.248-0.334,2.018-0.334c0.743,0,1.39,0.099,1.942,0.298c0.552,0.199,1.012,0.488,1.38,0.867s0.644,0.84,0.828,1.382
		S170.229,37.231,170.229,37.912z M168.513,38.011c0-0.439-0.045-0.855-0.137-1.247c-0.091-0.391-0.241-0.735-0.451-1.03
		s-0.493-0.529-0.851-0.7c-0.358-0.172-0.804-0.258-1.337-0.258c-0.493,0-0.917,0.079-1.271,0.235
		c-0.354,0.156-0.646,0.378-0.876,0.664c-0.23,0.286-0.4,0.625-0.512,1.016c-0.111,0.392-0.167,0.819-0.167,1.283
		c0,0.446,0.045,0.864,0.137,1.256s0.243,0.733,0.456,1.025c0.212,0.292,0.498,0.524,0.855,0.696
		c0.358,0.172,0.803,0.257,1.337,0.257c0.486,0,0.908-0.078,1.266-0.235c0.358-0.156,0.651-0.376,0.881-0.659
		s0.398-0.621,0.506-1.012C168.459,38.912,168.513,38.481,168.513,38.011z"/>
	<path d="M180.447,42.068c0,0.048-0.014,0.089-0.04,0.122c-0.027,0.033-0.07,0.062-0.13,0.086c-0.061,0.024-0.144,0.042-0.251,0.054
		c-0.107,0.012-0.241,0.018-0.402,0.018c-0.167,0-0.304-0.006-0.411-0.018c-0.107-0.012-0.191-0.03-0.251-0.054
		c-0.061-0.024-0.104-0.053-0.131-0.086c-0.026-0.033-0.04-0.074-0.04-0.122v-4.761c0-0.464-0.04-0.837-0.12-1.121
		c-0.081-0.283-0.198-0.527-0.352-0.732c-0.154-0.205-0.353-0.361-0.597-0.47s-0.527-0.163-0.848-0.163
		c-0.415,0-0.83,0.132-1.245,0.397s-0.85,0.654-1.305,1.166v5.683c0,0.048-0.014,0.089-0.04,0.122
		c-0.027,0.033-0.07,0.062-0.131,0.086c-0.06,0.024-0.144,0.042-0.251,0.054c-0.107,0.012-0.244,0.018-0.411,0.018
		c-0.161,0-0.295-0.006-0.402-0.018s-0.192-0.03-0.256-0.054s-0.107-0.053-0.13-0.086c-0.023-0.033-0.035-0.074-0.035-0.122v-8.131
		c0-0.048,0.01-0.089,0.03-0.122s0.06-0.063,0.12-0.09c0.061-0.027,0.137-0.045,0.231-0.054c0.094-0.009,0.217-0.014,0.372-0.014
		c0.147,0,0.269,0.004,0.366,0.014c0.097,0.009,0.172,0.027,0.226,0.054c0.053,0.027,0.092,0.057,0.115,0.09
		s0.035,0.074,0.035,0.122v1.075c0.508-0.512,1.015-0.887,1.521-1.125s1.016-0.357,1.531-0.357c0.602,0,1.109,0.092,1.521,0.275
		c0.412,0.184,0.745,0.429,0.999,0.736c0.254,0.307,0.437,0.667,0.547,1.08s0.166,0.908,0.166,1.486V42.068z"/>
	<path d="M193.786,39.854c0,0.416-0.085,0.786-0.256,1.111s-0.413,0.6-0.728,0.822c-0.315,0.223-0.689,0.392-1.125,0.506
		s-0.913,0.172-1.435,0.172c-0.321,0-0.627-0.023-0.918-0.068c-0.291-0.045-0.552-0.103-0.783-0.172
		c-0.231-0.069-0.427-0.141-0.587-0.217c-0.161-0.075-0.278-0.143-0.351-0.203c-0.074-0.06-0.127-0.145-0.161-0.253
		c-0.034-0.108-0.05-0.256-0.05-0.443c0-0.114,0.007-0.211,0.02-0.289s0.03-0.142,0.05-0.19c0.02-0.048,0.048-0.083,0.085-0.104
		c0.037-0.021,0.079-0.031,0.125-0.031c0.073,0,0.182,0.041,0.326,0.122c0.144,0.082,0.321,0.17,0.532,0.267
		c0.211,0.097,0.46,0.186,0.748,0.267c0.288,0.082,0.619,0.122,0.994,0.122c0.281,0,0.535-0.027,0.763-0.082
		c0.228-0.054,0.425-0.134,0.592-0.239c0.167-0.105,0.296-0.239,0.386-0.402s0.136-0.355,0.136-0.579
		c0-0.229-0.065-0.421-0.196-0.578s-0.303-0.295-0.517-0.416s-0.455-0.228-0.723-0.321s-0.543-0.191-0.828-0.293
		c-0.284-0.103-0.562-0.218-0.833-0.348c-0.271-0.129-0.514-0.288-0.728-0.474c-0.214-0.187-0.387-0.41-0.517-0.669
		c-0.13-0.259-0.196-0.569-0.196-0.93c0-0.319,0.069-0.625,0.206-0.917c0.137-0.292,0.343-0.548,0.617-0.768
		c0.274-0.22,0.617-0.396,1.029-0.528s0.892-0.199,1.44-0.199c0.241,0,0.481,0.018,0.723,0.054c0.241,0.036,0.458,0.081,0.652,0.135
		c0.194,0.054,0.359,0.113,0.497,0.176c0.137,0.063,0.241,0.119,0.312,0.167c0.07,0.048,0.117,0.09,0.14,0.126
		s0.041,0.077,0.05,0.122c0.01,0.045,0.02,0.101,0.03,0.167c0.01,0.066,0.015,0.147,0.015,0.244c0,0.103-0.005,0.191-0.015,0.267
		c-0.01,0.076-0.027,0.137-0.05,0.186s-0.052,0.083-0.085,0.104c-0.033,0.021-0.07,0.032-0.11,0.032
		c-0.06,0-0.147-0.033-0.261-0.099s-0.261-0.137-0.442-0.212s-0.393-0.146-0.637-0.212s-0.523-0.1-0.838-0.1
		c-0.281,0-0.529,0.029-0.743,0.086c-0.214,0.058-0.39,0.139-0.527,0.244s-0.241,0.23-0.311,0.375s-0.105,0.301-0.105,0.47
		c0,0.235,0.067,0.432,0.201,0.592s0.308,0.3,0.522,0.42c0.214,0.121,0.458,0.229,0.733,0.326c0.274,0.096,0.554,0.196,0.838,0.298
		c0.284,0.103,0.565,0.217,0.843,0.343c0.277,0.126,0.523,0.28,0.738,0.461c0.214,0.181,0.386,0.397,0.517,0.65
		C193.721,39.204,193.786,39.505,193.786,39.854z"/>
	<path d="M203.864,37.65c0,0.235-0.065,0.402-0.197,0.501c-0.131,0.099-0.28,0.149-0.449,0.149h-5.949
		c0,0.452,0.05,0.858,0.151,1.22c0.101,0.361,0.269,0.672,0.504,0.931c0.235,0.259,0.542,0.458,0.918,0.596
		c0.376,0.139,0.837,0.208,1.382,0.208c0.43,0,0.813-0.032,1.15-0.095c0.336-0.063,0.627-0.134,0.872-0.212
		c0.246-0.078,0.447-0.149,0.605-0.212s0.277-0.095,0.358-0.095c0.047,0,0.089,0.01,0.126,0.031
		c0.037,0.021,0.066,0.053,0.086,0.095s0.035,0.101,0.045,0.176c0.01,0.075,0.015,0.167,0.015,0.275c0,0.078-0.003,0.146-0.01,0.203
		c-0.006,0.058-0.015,0.108-0.025,0.154c-0.01,0.045-0.027,0.086-0.05,0.122s-0.054,0.071-0.09,0.104
		c-0.037,0.033-0.146,0.087-0.326,0.163c-0.181,0.075-0.415,0.149-0.703,0.221s-0.621,0.137-0.999,0.194
		c-0.378,0.057-0.781,0.086-1.209,0.086c-0.743,0-1.394-0.094-1.952-0.28c-0.559-0.187-1.029-0.464-1.41-0.831
		c-0.381-0.368-0.669-0.828-0.863-1.383c-0.194-0.554-0.291-1.198-0.291-1.934c0-0.698,0.1-1.326,0.301-1.884
		c0.201-0.557,0.49-1.03,0.868-1.418c0.378-0.389,0.835-0.687,1.37-0.895c0.536-0.208,1.134-0.312,1.797-0.312
		c0.709,0,1.313,0.103,1.812,0.307c0.499,0.205,0.909,0.48,1.229,0.827c0.321,0.347,0.557,0.753,0.708,1.22
		c0.15,0.467,0.226,0.965,0.226,1.496V37.65z M202.198,37.207c0.02-0.783-0.174-1.397-0.581-1.843s-1.011-0.668-1.813-0.668
		c-0.411,0-0.771,0.069-1.081,0.208c-0.31,0.138-0.569,0.322-0.778,0.551c-0.208,0.229-0.37,0.496-0.484,0.8
		c-0.115,0.304-0.179,0.622-0.192,0.953H202.198z"/>
	<path d="M213.188,42.077c0,0.072-0.027,0.126-0.08,0.163c-0.054,0.036-0.127,0.063-0.221,0.082s-0.23,0.027-0.411,0.027
		c-0.174,0-0.313-0.009-0.417-0.027c-0.104-0.018-0.179-0.045-0.226-0.082s-0.07-0.09-0.07-0.163v-0.813
		c-0.395,0.379-0.835,0.674-1.32,0.885c-0.485,0.211-0.999,0.316-1.541,0.316c-0.476,0-0.905-0.056-1.29-0.167
		s-0.712-0.272-0.983-0.483c-0.271-0.21-0.482-0.47-0.632-0.777c-0.151-0.307-0.226-0.657-0.226-1.048
		c0-0.458,0.104-0.855,0.311-1.192s0.505-0.618,0.894-0.84c0.388-0.223,0.863-0.39,1.425-0.501s1.194-0.167,1.897-0.167h1.245
		v-0.633c0-0.313-0.037-0.59-0.11-0.831c-0.074-0.241-0.192-0.441-0.356-0.601c-0.164-0.159-0.376-0.28-0.637-0.361
		c-0.261-0.081-0.583-0.122-0.964-0.122c-0.408,0-0.774,0.044-1.099,0.131c-0.324,0.087-0.609,0.184-0.853,0.289
		s-0.448,0.202-0.612,0.289s-0.286,0.131-0.366,0.131c-0.054,0-0.101-0.012-0.141-0.036c-0.04-0.024-0.075-0.06-0.105-0.108
		c-0.03-0.048-0.052-0.11-0.065-0.185c-0.014-0.075-0.02-0.158-0.02-0.249c0-0.15,0.011-0.27,0.035-0.357
		c0.023-0.087,0.08-0.17,0.17-0.249c0.09-0.078,0.246-0.17,0.467-0.275s0.475-0.202,0.763-0.289s0.602-0.16,0.943-0.217
		s0.686-0.086,1.034-0.086c0.649,0,1.201,0.066,1.656,0.199s0.823,0.327,1.104,0.583c0.281,0.256,0.485,0.574,0.612,0.954
		c0.127,0.379,0.191,0.822,0.191,1.328V42.077z M211.542,38.364h-1.416c-0.455,0-0.85,0.035-1.184,0.104
		c-0.335,0.069-0.612,0.172-0.833,0.308c-0.221,0.135-0.383,0.298-0.487,0.488c-0.104,0.189-0.156,0.408-0.156,0.655
		c0,0.422,0.149,0.758,0.447,1.008c0.297,0.25,0.714,0.375,1.25,0.375c0.435,0,0.838-0.1,1.209-0.298
		c0.372-0.199,0.761-0.503,1.169-0.913V38.364z"/>
	<path d="M38.321,64.273c0,0.048-0.013,0.089-0.04,0.122c-0.027,0.033-0.07,0.062-0.13,0.086s-0.144,0.042-0.251,0.054
		s-0.241,0.018-0.401,0.018c-0.167,0-0.305-0.006-0.412-0.018s-0.192-0.03-0.256-0.054c-0.064-0.024-0.109-0.053-0.136-0.086
		c-0.027-0.033-0.04-0.074-0.04-0.122v-4.942c0-0.344-0.034-0.657-0.1-0.94c-0.067-0.283-0.174-0.527-0.321-0.732
		c-0.147-0.205-0.335-0.361-0.562-0.47c-0.228-0.108-0.496-0.163-0.803-0.163c-0.381,0-0.765,0.132-1.149,0.397
		s-0.808,0.654-1.27,1.166v5.683c0,0.048-0.014,0.089-0.04,0.122c-0.027,0.033-0.072,0.062-0.136,0.086s-0.149,0.042-0.256,0.054
		s-0.241,0.018-0.401,0.018c-0.154,0-0.286-0.006-0.396-0.018s-0.197-0.03-0.261-0.054c-0.064-0.024-0.107-0.053-0.131-0.086
		c-0.023-0.033-0.035-0.074-0.035-0.122v-4.942c0-0.344-0.037-0.657-0.11-0.94s-0.184-0.527-0.331-0.732
		c-0.147-0.205-0.333-0.361-0.557-0.47s-0.49-0.163-0.798-0.163c-0.381,0-0.767,0.132-1.154,0.397
		c-0.388,0.265-0.81,0.654-1.265,1.166v5.683c0,0.048-0.014,0.089-0.04,0.122c-0.027,0.033-0.07,0.062-0.131,0.086
		c-0.06,0.024-0.144,0.042-0.251,0.054c-0.107,0.012-0.244,0.018-0.411,0.018c-0.161,0-0.295-0.006-0.402-0.018
		s-0.192-0.03-0.256-0.054s-0.107-0.053-0.13-0.086c-0.023-0.033-0.035-0.074-0.035-0.122v-8.131c0-0.048,0.01-0.089,0.03-0.122
		s0.06-0.063,0.12-0.09c0.061-0.027,0.137-0.045,0.231-0.054c0.094-0.009,0.217-0.014,0.372-0.014c0.147,0,0.269,0.004,0.366,0.014
		c0.097,0.009,0.172,0.027,0.226,0.054c0.053,0.027,0.092,0.057,0.115,0.09s0.035,0.074,0.035,0.122v1.075
		c0.508-0.512,1.002-0.887,1.48-1.125s0.962-0.357,1.45-0.357c0.375,0,0.711,0.039,1.009,0.117c0.298,0.079,0.561,0.188,0.788,0.33
		s0.421,0.31,0.582,0.506s0.294,0.414,0.401,0.655c0.301-0.295,0.587-0.545,0.858-0.75s0.532-0.371,0.783-0.497
		s0.495-0.218,0.733-0.275c0.237-0.057,0.477-0.086,0.718-0.086c0.582,0,1.07,0.092,1.465,0.275
		c0.395,0.184,0.714,0.429,0.958,0.736c0.244,0.307,0.418,0.667,0.522,1.08c0.104,0.413,0.155,0.848,0.155,1.305V64.273z"/>
	<path d="M48.148,64.282c0,0.072-0.027,0.126-0.08,0.163c-0.054,0.036-0.127,0.063-0.221,0.082s-0.23,0.027-0.411,0.027
		c-0.174,0-0.313-0.009-0.417-0.027c-0.104-0.018-0.179-0.045-0.226-0.082s-0.07-0.09-0.07-0.163v-0.813
		c-0.395,0.379-0.835,0.674-1.32,0.885c-0.485,0.211-0.999,0.316-1.541,0.316c-0.476,0-0.905-0.056-1.29-0.167
		s-0.712-0.272-0.983-0.483c-0.271-0.21-0.482-0.47-0.632-0.777c-0.151-0.307-0.226-0.657-0.226-1.048
		c0-0.458,0.104-0.855,0.311-1.192s0.505-0.618,0.894-0.84c0.388-0.223,0.863-0.39,1.425-0.501s1.194-0.167,1.897-0.167h1.245
		v-0.633c0-0.313-0.037-0.59-0.11-0.831c-0.074-0.241-0.192-0.441-0.356-0.601c-0.164-0.159-0.376-0.28-0.637-0.361
		c-0.261-0.081-0.583-0.122-0.964-0.122c-0.408,0-0.774,0.044-1.099,0.131c-0.324,0.087-0.609,0.184-0.853,0.289
		s-0.448,0.202-0.612,0.289s-0.286,0.131-0.366,0.131c-0.054,0-0.101-0.012-0.141-0.036c-0.04-0.024-0.075-0.06-0.105-0.108
		c-0.03-0.048-0.052-0.11-0.065-0.185c-0.014-0.075-0.02-0.158-0.02-0.249c0-0.15,0.011-0.27,0.035-0.357
		c0.023-0.087,0.08-0.17,0.17-0.249c0.09-0.078,0.246-0.17,0.467-0.275s0.475-0.202,0.763-0.289s0.602-0.16,0.943-0.217
		s0.686-0.086,1.034-0.086c0.649,0,1.201,0.066,1.656,0.199s0.823,0.327,1.104,0.583c0.281,0.256,0.485,0.574,0.612,0.954
		c0.127,0.379,0.191,0.822,0.191,1.328V64.282z M46.502,60.569h-1.416c-0.455,0-0.85,0.035-1.184,0.104
		c-0.335,0.069-0.612,0.172-0.833,0.308c-0.221,0.135-0.383,0.298-0.487,0.488c-0.104,0.189-0.156,0.408-0.156,0.655
		c0,0.422,0.149,0.758,0.447,1.008c0.297,0.25,0.714,0.375,1.25,0.375c0.435,0,0.838-0.1,1.209-0.298
		c0.372-0.199,0.761-0.503,1.169-0.913V60.569z M45.508,52.166c0.04-0.066,0.087-0.121,0.141-0.163
		c0.053-0.042,0.119-0.076,0.195-0.1c0.077-0.024,0.172-0.042,0.286-0.054s0.251-0.018,0.412-0.018c0.188,0,0.339,0.011,0.457,0.032
		s0.199,0.051,0.246,0.09s0.067,0.084,0.06,0.135c-0.006,0.051-0.037,0.104-0.09,0.158l-1.816,2.105
		c-0.054,0.06-0.102,0.108-0.146,0.145c-0.044,0.036-0.094,0.064-0.151,0.086c-0.057,0.021-0.13,0.036-0.221,0.045
		c-0.09,0.009-0.203,0.014-0.336,0.014c-0.147,0-0.264-0.009-0.351-0.027s-0.149-0.042-0.186-0.072
		c-0.037-0.03-0.05-0.069-0.041-0.117c0.01-0.048,0.039-0.105,0.085-0.172L45.508,52.166z"/>
	<path d="M56.86,62.06c0,0.416-0.085,0.786-0.256,1.111s-0.413,0.6-0.728,0.822c-0.315,0.223-0.689,0.392-1.125,0.506
		s-0.913,0.172-1.435,0.172c-0.321,0-0.627-0.023-0.918-0.068c-0.291-0.045-0.552-0.103-0.783-0.172
		c-0.231-0.069-0.427-0.141-0.587-0.217c-0.161-0.075-0.278-0.143-0.351-0.203c-0.074-0.06-0.127-0.145-0.161-0.253
		c-0.034-0.108-0.05-0.256-0.05-0.443c0-0.114,0.007-0.211,0.02-0.289s0.03-0.142,0.05-0.19c0.02-0.048,0.048-0.083,0.085-0.104
		c0.037-0.021,0.079-0.031,0.125-0.031c0.073,0,0.182,0.041,0.326,0.122c0.144,0.082,0.321,0.17,0.532,0.267
		c0.211,0.097,0.46,0.186,0.748,0.267c0.288,0.082,0.619,0.122,0.994,0.122c0.281,0,0.535-0.027,0.763-0.082
		c0.228-0.054,0.425-0.134,0.592-0.239c0.167-0.105,0.296-0.239,0.386-0.402s0.136-0.355,0.136-0.579
		c0-0.229-0.065-0.421-0.196-0.578s-0.303-0.295-0.517-0.416s-0.455-0.228-0.723-0.321s-0.543-0.191-0.828-0.293
		c-0.284-0.103-0.562-0.218-0.833-0.348c-0.271-0.129-0.514-0.288-0.728-0.474c-0.214-0.187-0.387-0.41-0.517-0.669
		c-0.13-0.259-0.196-0.569-0.196-0.93c0-0.319,0.069-0.625,0.206-0.917c0.137-0.292,0.343-0.548,0.617-0.768
		c0.274-0.22,0.617-0.396,1.029-0.528s0.892-0.199,1.44-0.199c0.241,0,0.481,0.018,0.723,0.054c0.241,0.036,0.458,0.081,0.652,0.135
		c0.194,0.054,0.359,0.113,0.497,0.176c0.137,0.063,0.241,0.119,0.312,0.167c0.07,0.048,0.117,0.09,0.14,0.126
		s0.041,0.077,0.05,0.122c0.01,0.045,0.02,0.101,0.03,0.167c0.01,0.066,0.015,0.147,0.015,0.244c0,0.103-0.005,0.191-0.015,0.267
		c-0.01,0.076-0.027,0.137-0.05,0.186s-0.052,0.083-0.085,0.104c-0.033,0.021-0.07,0.032-0.11,0.032
		c-0.06,0-0.147-0.033-0.261-0.099s-0.261-0.137-0.442-0.212s-0.393-0.146-0.637-0.212s-0.523-0.1-0.838-0.1
		c-0.281,0-0.529,0.029-0.743,0.086c-0.214,0.058-0.39,0.139-0.527,0.244s-0.241,0.23-0.311,0.375s-0.105,0.301-0.105,0.47
		c0,0.235,0.067,0.432,0.201,0.592s0.308,0.3,0.522,0.42c0.214,0.121,0.458,0.229,0.733,0.326c0.274,0.096,0.554,0.196,0.838,0.298
		c0.284,0.103,0.565,0.217,0.843,0.343c0.277,0.126,0.523,0.28,0.738,0.461c0.214,0.181,0.386,0.397,0.517,0.65
		C56.795,61.409,56.86,61.71,56.86,62.06z"/>
	<path d="M71.424,56.512c0,0.211-0.032,0.363-0.095,0.457s-0.146,0.14-0.246,0.14h-1.294c0.234,0.217,0.398,0.456,0.492,0.718
		c0.094,0.262,0.141,0.535,0.141,0.817c0,0.47-0.084,0.886-0.251,1.247c-0.167,0.361-0.407,0.667-0.718,0.917
		s-0.681,0.441-1.109,0.574c-0.429,0.133-0.904,0.199-1.425,0.199c-0.368,0-0.718-0.043-1.049-0.131
		c-0.331-0.087-0.587-0.197-0.768-0.33c-0.121,0.108-0.219,0.232-0.296,0.371c-0.077,0.139-0.116,0.298-0.116,0.479
		c0,0.211,0.109,0.385,0.326,0.524s0.507,0.214,0.868,0.226l2.359,0.09c0.448,0.012,0.86,0.067,1.234,0.167
		c0.375,0.1,0.699,0.241,0.974,0.425s0.488,0.41,0.643,0.678c0.154,0.268,0.231,0.58,0.231,0.935c0,0.373-0.087,0.729-0.261,1.066
		s-0.44,0.634-0.798,0.89c-0.358,0.256-0.815,0.458-1.37,0.605c-0.556,0.147-1.211,0.221-1.967,0.221
		c-0.729,0-1.35-0.056-1.862-0.167c-0.512-0.112-0.932-0.264-1.26-0.457c-0.328-0.193-0.565-0.423-0.712-0.691
		c-0.147-0.268-0.221-0.559-0.221-0.872c0-0.199,0.027-0.392,0.081-0.578c0.053-0.187,0.135-0.365,0.246-0.533
		c0.11-0.168,0.247-0.33,0.411-0.483s0.353-0.306,0.567-0.456c-0.328-0.151-0.571-0.34-0.728-0.569s-0.236-0.476-0.236-0.741
		c0-0.367,0.084-0.695,0.251-0.985c0.167-0.289,0.375-0.548,0.623-0.777c-0.208-0.223-0.372-0.474-0.492-0.754
		c-0.121-0.28-0.181-0.619-0.181-1.017c0-0.464,0.087-0.879,0.261-1.247c0.174-0.368,0.415-0.678,0.723-0.931
		c0.308-0.253,0.678-0.447,1.109-0.583c0.432-0.135,0.902-0.203,1.411-0.203c0.274,0,0.53,0.014,0.768,0.041
		c0.237,0.027,0.46,0.065,0.667,0.113h2.73c0.114,0,0.199,0.05,0.256,0.149C71.396,56.155,71.424,56.307,71.424,56.512z
		 M69.668,65.095c0-0.349-0.159-0.619-0.477-0.809c-0.318-0.189-0.748-0.291-1.29-0.303l-2.339-0.072
		c-0.214,0.151-0.39,0.294-0.527,0.429c-0.137,0.136-0.246,0.265-0.326,0.389c-0.08,0.124-0.135,0.245-0.166,0.366
		s-0.045,0.244-0.045,0.371c0,0.392,0.221,0.688,0.662,0.89c0.442,0.202,1.057,0.303,1.847,0.303c0.501,0,0.921-0.044,1.259-0.131
		s0.611-0.203,0.818-0.348c0.207-0.145,0.356-0.311,0.446-0.497S69.668,65.3,69.668,65.095z M68.835,58.653
		c0-0.554-0.169-0.986-0.507-1.297c-0.338-0.31-0.818-0.465-1.44-0.465c-0.321,0-0.601,0.048-0.838,0.145
		c-0.237,0.097-0.435,0.229-0.592,0.398c-0.158,0.168-0.274,0.363-0.352,0.583c-0.077,0.22-0.115,0.451-0.115,0.691
		c0,0.536,0.169,0.958,0.507,1.265c0.338,0.308,0.811,0.461,1.42,0.461c0.328,0,0.612-0.046,0.853-0.14
		c0.241-0.093,0.44-0.223,0.597-0.388c0.157-0.166,0.274-0.357,0.351-0.574C68.796,59.114,68.835,58.888,68.835,58.653z"/>
	<path d="M78.832,56.674c0,0.133-0.004,0.244-0.01,0.334c-0.007,0.09-0.02,0.161-0.04,0.212s-0.045,0.09-0.075,0.117
		c-0.03,0.027-0.072,0.041-0.125,0.041c-0.054,0-0.119-0.014-0.196-0.041c-0.077-0.027-0.164-0.054-0.261-0.081
		c-0.097-0.027-0.206-0.053-0.326-0.077c-0.12-0.024-0.251-0.036-0.391-0.036c-0.167,0-0.332,0.03-0.492,0.09
		c-0.161,0.06-0.33,0.16-0.507,0.298c-0.177,0.139-0.363,0.322-0.557,0.551c-0.194,0.229-0.408,0.509-0.642,0.84v5.349
		c0,0.048-0.014,0.089-0.04,0.122c-0.027,0.033-0.07,0.062-0.131,0.086c-0.06,0.024-0.144,0.042-0.251,0.054
		c-0.107,0.012-0.244,0.018-0.411,0.018c-0.161,0-0.295-0.006-0.402-0.018s-0.192-0.03-0.256-0.054s-0.107-0.053-0.13-0.086
		c-0.023-0.033-0.035-0.074-0.035-0.122v-8.131c0-0.048,0.01-0.089,0.03-0.122s0.06-0.063,0.12-0.09
		c0.061-0.027,0.137-0.045,0.231-0.054c0.094-0.009,0.217-0.014,0.372-0.014c0.147,0,0.269,0.004,0.366,0.014
		c0.097,0.009,0.172,0.027,0.226,0.054c0.053,0.027,0.092,0.057,0.115,0.09s0.035,0.074,0.035,0.122v1.184
		c0.248-0.326,0.48-0.59,0.698-0.795c0.217-0.205,0.423-0.366,0.617-0.483c0.194-0.117,0.386-0.199,0.577-0.244
		c0.19-0.045,0.383-0.068,0.577-0.068c0.087,0,0.186,0.004,0.296,0.014c0.11,0.009,0.226,0.025,0.346,0.049
		c0.121,0.024,0.229,0.051,0.326,0.082c0.097,0.03,0.166,0.06,0.206,0.09s0.067,0.059,0.08,0.086
		c0.014,0.027,0.025,0.062,0.035,0.104c0.01,0.042,0.017,0.104,0.02,0.185C78.83,56.426,78.832,56.536,78.832,56.674z"/>
	<path d="M87.102,64.282c0,0.072-0.027,0.126-0.08,0.163c-0.054,0.036-0.127,0.063-0.221,0.082s-0.23,0.027-0.411,0.027
		c-0.174,0-0.313-0.009-0.417-0.027c-0.104-0.018-0.179-0.045-0.226-0.082s-0.07-0.09-0.07-0.163v-0.813
		c-0.395,0.379-0.835,0.674-1.32,0.885c-0.485,0.211-0.999,0.316-1.541,0.316c-0.476,0-0.905-0.056-1.29-0.167
		s-0.712-0.272-0.983-0.483c-0.271-0.21-0.482-0.47-0.632-0.777c-0.151-0.307-0.226-0.657-0.226-1.048
		c0-0.458,0.104-0.855,0.311-1.192s0.505-0.618,0.894-0.84c0.388-0.223,0.863-0.39,1.425-0.501s1.194-0.167,1.897-0.167h1.245
		v-0.633c0-0.313-0.037-0.59-0.11-0.831c-0.074-0.241-0.192-0.441-0.356-0.601c-0.164-0.159-0.376-0.28-0.637-0.361
		c-0.261-0.081-0.583-0.122-0.964-0.122c-0.408,0-0.774,0.044-1.099,0.131c-0.324,0.087-0.609,0.184-0.853,0.289
		s-0.448,0.202-0.612,0.289s-0.286,0.131-0.366,0.131c-0.054,0-0.101-0.012-0.141-0.036c-0.04-0.024-0.075-0.06-0.105-0.108
		c-0.03-0.048-0.052-0.11-0.065-0.185c-0.014-0.075-0.02-0.158-0.02-0.249c0-0.15,0.011-0.27,0.035-0.357
		c0.023-0.087,0.08-0.17,0.17-0.249c0.09-0.078,0.246-0.17,0.467-0.275s0.475-0.202,0.763-0.289s0.602-0.16,0.943-0.217
		s0.686-0.086,1.034-0.086c0.649,0,1.201,0.066,1.656,0.199s0.823,0.327,1.104,0.583c0.281,0.256,0.485,0.574,0.612,0.954
		c0.127,0.379,0.191,0.822,0.191,1.328V64.282z M85.456,60.569h-1.416c-0.455,0-0.85,0.035-1.184,0.104
		c-0.335,0.069-0.612,0.172-0.833,0.308c-0.221,0.135-0.383,0.298-0.487,0.488c-0.104,0.189-0.156,0.408-0.156,0.655
		c0,0.422,0.149,0.758,0.447,1.008c0.297,0.25,0.714,0.375,1.25,0.375c0.435,0,0.838-0.1,1.209-0.298
		c0.372-0.199,0.761-0.503,1.169-0.913V60.569z"/>
	<path d="M97.922,64.273c0,0.048-0.014,0.089-0.04,0.122c-0.027,0.033-0.07,0.062-0.13,0.086c-0.061,0.024-0.144,0.042-0.251,0.054
		c-0.107,0.012-0.241,0.018-0.402,0.018c-0.167,0-0.304-0.006-0.411-0.018c-0.107-0.012-0.191-0.03-0.251-0.054
		c-0.061-0.024-0.104-0.053-0.131-0.086c-0.026-0.033-0.04-0.074-0.04-0.122v-4.761c0-0.464-0.04-0.837-0.12-1.121
		c-0.081-0.283-0.198-0.527-0.352-0.732c-0.154-0.205-0.353-0.361-0.597-0.47s-0.527-0.163-0.848-0.163
		c-0.415,0-0.83,0.132-1.245,0.397s-0.85,0.654-1.305,1.166v5.683c0,0.048-0.014,0.089-0.04,0.122
		c-0.027,0.033-0.07,0.062-0.131,0.086c-0.06,0.024-0.144,0.042-0.251,0.054c-0.107,0.012-0.244,0.018-0.411,0.018
		c-0.161,0-0.295-0.006-0.402-0.018s-0.192-0.03-0.256-0.054s-0.107-0.053-0.13-0.086c-0.023-0.033-0.035-0.074-0.035-0.122v-8.131
		c0-0.048,0.01-0.089,0.03-0.122s0.06-0.063,0.12-0.09c0.061-0.027,0.137-0.045,0.231-0.054c0.094-0.009,0.217-0.014,0.372-0.014
		c0.147,0,0.269,0.004,0.366,0.014c0.097,0.009,0.172,0.027,0.226,0.054c0.053,0.027,0.092,0.057,0.115,0.09
		s0.035,0.074,0.035,0.122v1.075c0.508-0.512,1.015-0.887,1.521-1.125s1.016-0.357,1.531-0.357c0.602,0,1.109,0.092,1.521,0.275
		c0.412,0.184,0.745,0.429,0.999,0.736c0.254,0.307,0.437,0.667,0.547,1.08s0.166,0.908,0.166,1.486V64.273z"/>
	<path d="M108.682,64.273c0,0.048-0.012,0.09-0.035,0.126s-0.064,0.065-0.121,0.086s-0.132,0.038-0.226,0.05
		c-0.094,0.012-0.208,0.018-0.341,0.018c-0.141,0-0.258-0.006-0.352-0.018s-0.17-0.029-0.231-0.05
		c-0.06-0.021-0.104-0.05-0.13-0.086s-0.04-0.078-0.04-0.126v-1.075c-0.475,0.464-0.969,0.826-1.48,1.084s-1.072,0.389-1.681,0.389
		c-0.663,0-1.228-0.116-1.696-0.348s-0.848-0.545-1.139-0.939s-0.504-0.858-0.638-1.392s-0.201-1.095-0.201-1.685
		c0-0.699,0.084-1.33,0.251-1.893c0.167-0.563,0.415-1.043,0.743-1.441c0.328-0.397,0.734-0.703,1.22-0.917
		c0.485-0.214,1.045-0.321,1.681-0.321c0.529,0,1.012,0.104,1.45,0.312c0.438,0.208,0.872,0.514,1.3,0.917v-4.725
		c0-0.042,0.012-0.083,0.035-0.122s0.069-0.069,0.136-0.09s0.152-0.039,0.256-0.054c0.104-0.015,0.236-0.022,0.396-0.022
		c0.167,0,0.304,0.007,0.412,0.022c0.107,0.015,0.19,0.033,0.251,0.054c0.06,0.021,0.105,0.051,0.135,0.09
		c0.03,0.039,0.045,0.08,0.045,0.122V64.273z M107.015,58.554c-0.448-0.5-0.881-0.881-1.3-1.143
		c-0.418-0.262-0.854-0.393-1.31-0.393c-0.421,0-0.78,0.091-1.074,0.271s-0.534,0.418-0.717,0.713
		c-0.184,0.295-0.318,0.63-0.402,1.003c-0.083,0.374-0.125,0.753-0.125,1.139c0,0.41,0.035,0.81,0.105,1.202
		s0.192,0.739,0.367,1.043c0.174,0.304,0.405,0.548,0.692,0.732c0.288,0.184,0.649,0.275,1.084,0.275
		c0.221,0,0.433-0.027,0.637-0.081s0.413-0.145,0.627-0.271c0.214-0.126,0.438-0.291,0.672-0.493
		c0.234-0.202,0.482-0.45,0.743-0.745V58.554z"/>
	<path d="M119.452,59.855c0,0.235-0.065,0.402-0.197,0.501c-0.131,0.099-0.28,0.149-0.449,0.149h-5.949
		c0,0.452,0.05,0.858,0.151,1.22c0.101,0.361,0.269,0.672,0.504,0.931c0.235,0.259,0.542,0.458,0.918,0.596
		c0.376,0.139,0.837,0.208,1.382,0.208c0.43,0,0.813-0.032,1.15-0.095c0.336-0.063,0.627-0.134,0.872-0.212
		c0.246-0.078,0.447-0.149,0.605-0.212s0.277-0.095,0.358-0.095c0.047,0,0.089,0.01,0.126,0.031
		c0.037,0.021,0.066,0.053,0.086,0.095s0.035,0.101,0.045,0.176c0.01,0.075,0.015,0.167,0.015,0.275c0,0.078-0.003,0.146-0.01,0.203
		c-0.006,0.058-0.015,0.108-0.025,0.154c-0.01,0.045-0.027,0.086-0.05,0.122s-0.054,0.071-0.09,0.104
		c-0.037,0.033-0.146,0.087-0.326,0.163c-0.181,0.075-0.415,0.149-0.703,0.221s-0.621,0.137-0.999,0.194
		c-0.378,0.057-0.781,0.086-1.209,0.086c-0.743,0-1.394-0.094-1.952-0.28c-0.559-0.187-1.029-0.464-1.41-0.831
		c-0.381-0.368-0.669-0.828-0.863-1.383c-0.194-0.554-0.291-1.198-0.291-1.934c0-0.698,0.1-1.326,0.301-1.884
		c0.201-0.557,0.49-1.03,0.868-1.418c0.378-0.389,0.835-0.687,1.37-0.895c0.536-0.208,1.134-0.312,1.797-0.312
		c0.709,0,1.313,0.103,1.812,0.307c0.499,0.205,0.909,0.48,1.229,0.827c0.321,0.347,0.557,0.753,0.708,1.22
		c0.15,0.467,0.226,0.965,0.226,1.496V59.855z M117.786,59.412c0.02-0.783-0.174-1.397-0.581-1.843s-1.011-0.668-1.813-0.668
		c-0.411,0-0.771,0.069-1.081,0.208c-0.31,0.138-0.569,0.322-0.778,0.551c-0.208,0.229-0.37,0.496-0.484,0.8
		c-0.115,0.304-0.179,0.622-0.192,0.953H117.786z"/>
	<path d="M124.159,63.207c0,0.187-0.01,0.358-0.03,0.515s-0.054,0.304-0.101,0.442c-0.047,0.139-0.109,0.276-0.186,0.411
		c-0.077,0.136-0.172,0.279-0.286,0.429l-1.375,1.861c-0.034,0.042-0.072,0.078-0.116,0.108s-0.097,0.057-0.161,0.082
		c-0.063,0.024-0.137,0.041-0.221,0.049c-0.083,0.009-0.189,0.014-0.316,0.014c-0.114,0-0.209-0.004-0.286-0.014
		c-0.077-0.009-0.132-0.024-0.166-0.045c-0.034-0.021-0.052-0.05-0.055-0.086c-0.003-0.036,0.008-0.078,0.035-0.126l1.335-2.485
		v-1.156c0-0.163,0.018-0.292,0.055-0.389c0.037-0.096,0.095-0.168,0.175-0.217c0.081-0.048,0.181-0.081,0.301-0.099
		s0.268-0.027,0.441-0.027c0.167,0,0.312,0.009,0.432,0.027c0.121,0.018,0.219,0.051,0.296,0.099
		c0.077,0.048,0.134,0.121,0.17,0.217C124.14,62.915,124.159,63.044,124.159,63.207z"/>
	<path d="M137.418,62.06c0,0.416-0.085,0.786-0.256,1.111s-0.413,0.6-0.728,0.822c-0.315,0.223-0.689,0.392-1.125,0.506
		s-0.913,0.172-1.435,0.172c-0.321,0-0.627-0.023-0.918-0.068c-0.291-0.045-0.552-0.103-0.783-0.172
		c-0.231-0.069-0.427-0.141-0.587-0.217c-0.161-0.075-0.278-0.143-0.351-0.203c-0.074-0.06-0.127-0.145-0.161-0.253
		c-0.034-0.108-0.05-0.256-0.05-0.443c0-0.114,0.007-0.211,0.02-0.289s0.03-0.142,0.05-0.19c0.02-0.048,0.048-0.083,0.085-0.104
		c0.037-0.021,0.079-0.031,0.125-0.031c0.073,0,0.182,0.041,0.326,0.122c0.144,0.082,0.321,0.17,0.532,0.267
		c0.211,0.097,0.46,0.186,0.748,0.267c0.288,0.082,0.619,0.122,0.994,0.122c0.281,0,0.535-0.027,0.763-0.082
		c0.228-0.054,0.425-0.134,0.592-0.239c0.167-0.105,0.296-0.239,0.386-0.402s0.136-0.355,0.136-0.579
		c0-0.229-0.065-0.421-0.196-0.578s-0.303-0.295-0.517-0.416s-0.455-0.228-0.723-0.321s-0.543-0.191-0.828-0.293
		c-0.284-0.103-0.562-0.218-0.833-0.348c-0.271-0.129-0.514-0.288-0.728-0.474c-0.214-0.187-0.387-0.41-0.517-0.669
		c-0.13-0.259-0.196-0.569-0.196-0.93c0-0.319,0.069-0.625,0.206-0.917c0.137-0.292,0.343-0.548,0.617-0.768
		c0.274-0.22,0.617-0.396,1.029-0.528s0.892-0.199,1.44-0.199c0.241,0,0.481,0.018,0.723,0.054c0.241,0.036,0.458,0.081,0.652,0.135
		c0.194,0.054,0.359,0.113,0.497,0.176c0.137,0.063,0.241,0.119,0.312,0.167c0.07,0.048,0.117,0.09,0.14,0.126
		s0.041,0.077,0.05,0.122c0.01,0.045,0.02,0.101,0.03,0.167c0.01,0.066,0.015,0.147,0.015,0.244c0,0.103-0.005,0.191-0.015,0.267
		c-0.01,0.076-0.027,0.137-0.05,0.186s-0.052,0.083-0.085,0.104c-0.033,0.021-0.07,0.032-0.11,0.032
		c-0.06,0-0.147-0.033-0.261-0.099s-0.261-0.137-0.442-0.212s-0.393-0.146-0.637-0.212s-0.523-0.1-0.838-0.1
		c-0.281,0-0.529,0.029-0.743,0.086c-0.214,0.058-0.39,0.139-0.527,0.244s-0.241,0.23-0.311,0.375s-0.105,0.301-0.105,0.47
		c0,0.235,0.067,0.432,0.201,0.592s0.308,0.3,0.522,0.42c0.214,0.121,0.458,0.229,0.733,0.326c0.274,0.096,0.554,0.196,0.838,0.298
		c0.284,0.103,0.565,0.217,0.843,0.343c0.277,0.126,0.523,0.28,0.738,0.461c0.214,0.181,0.386,0.397,0.517,0.65
		C137.353,61.409,137.418,61.71,137.418,62.06z"/>
	<path d="M147.495,59.855c0,0.235-0.065,0.402-0.197,0.501c-0.131,0.099-0.28,0.149-0.449,0.149h-5.949
		c0,0.452,0.05,0.858,0.151,1.22c0.101,0.361,0.269,0.672,0.504,0.931c0.235,0.259,0.542,0.458,0.918,0.596
		c0.376,0.139,0.837,0.208,1.382,0.208c0.43,0,0.813-0.032,1.15-0.095c0.336-0.063,0.627-0.134,0.872-0.212
		c0.246-0.078,0.447-0.149,0.605-0.212s0.277-0.095,0.358-0.095c0.047,0,0.089,0.01,0.126,0.031
		c0.037,0.021,0.066,0.053,0.086,0.095s0.035,0.101,0.045,0.176c0.01,0.075,0.015,0.167,0.015,0.275c0,0.078-0.003,0.146-0.01,0.203
		c-0.006,0.058-0.015,0.108-0.025,0.154c-0.01,0.045-0.027,0.086-0.05,0.122s-0.054,0.071-0.09,0.104
		c-0.037,0.033-0.146,0.087-0.326,0.163c-0.181,0.075-0.415,0.149-0.703,0.221s-0.621,0.137-0.999,0.194
		c-0.378,0.057-0.781,0.086-1.209,0.086c-0.743,0-1.394-0.094-1.952-0.28c-0.559-0.187-1.029-0.464-1.41-0.831
		c-0.381-0.368-0.669-0.828-0.863-1.383c-0.194-0.554-0.291-1.198-0.291-1.934c0-0.698,0.1-1.326,0.301-1.884
		c0.201-0.557,0.49-1.03,0.868-1.418c0.378-0.389,0.835-0.687,1.37-0.895c0.536-0.208,1.134-0.312,1.797-0.312
		c0.709,0,1.313,0.103,1.812,0.307c0.499,0.205,0.909,0.48,1.229,0.827c0.321,0.347,0.557,0.753,0.708,1.22
		c0.15,0.467,0.226,0.965,0.226,1.496V59.855z M145.829,59.412c0.02-0.783-0.174-1.397-0.581-1.843s-1.011-0.668-1.813-0.668
		c-0.411,0-0.771,0.069-1.081,0.208c-0.31,0.138-0.569,0.322-0.778,0.551c-0.208,0.229-0.37,0.496-0.484,0.8
		c-0.115,0.304-0.179,0.622-0.192,0.953H145.829z"/>
	<path d="M159.359,63.677c0,0.175-0.013,0.313-0.04,0.416c-0.027,0.103-0.067,0.178-0.121,0.226
		c-0.053,0.048-0.134,0.093-0.241,0.135c-0.107,0.042-0.229,0.077-0.366,0.104c-0.137,0.027-0.283,0.05-0.437,0.068
		c-0.154,0.018-0.308,0.027-0.462,0.027c-0.468,0-0.87-0.056-1.205-0.167s-0.609-0.28-0.823-0.506
		c-0.214-0.226-0.37-0.512-0.467-0.858c-0.097-0.346-0.146-0.754-0.146-1.224v-4.752h-1.265c-0.101,0-0.181-0.048-0.241-0.145
		c-0.06-0.096-0.09-0.253-0.09-0.47c0-0.114,0.008-0.21,0.025-0.289c0.017-0.078,0.038-0.143,0.065-0.194
		c0.027-0.051,0.062-0.087,0.105-0.108c0.043-0.021,0.092-0.032,0.146-0.032h1.255v-1.933c0-0.042,0.012-0.082,0.035-0.118
		s0.067-0.068,0.13-0.095c0.063-0.027,0.149-0.047,0.256-0.059c0.107-0.012,0.241-0.018,0.401-0.018
		c0.167,0,0.305,0.006,0.412,0.018c0.107,0.012,0.191,0.032,0.251,0.059c0.06,0.027,0.104,0.059,0.13,0.095s0.041,0.075,0.041,0.118
		v1.933h2.318c0.053,0,0.101,0.011,0.141,0.032c0.04,0.021,0.075,0.058,0.105,0.108c0.03,0.051,0.052,0.116,0.065,0.194
		c0.013,0.079,0.02,0.175,0.02,0.289c0,0.217-0.03,0.374-0.09,0.47c-0.06,0.097-0.14,0.145-0.241,0.145h-2.318v4.536
		c0,0.56,0.092,0.983,0.276,1.27s0.513,0.429,0.989,0.429c0.154,0,0.291-0.013,0.411-0.041c0.121-0.027,0.228-0.056,0.321-0.086
		c0.094-0.03,0.174-0.059,0.241-0.085c0.067-0.027,0.127-0.041,0.181-0.041c0.033,0,0.065,0.008,0.095,0.023
		c0.03,0.015,0.053,0.043,0.07,0.085c0.017,0.042,0.032,0.1,0.045,0.172S159.359,63.568,159.359,63.677z"/>
	<path d="M169.747,60.117c0,0.663-0.097,1.273-0.291,1.83c-0.194,0.557-0.483,1.038-0.868,1.441
		c-0.385,0.404-0.867,0.718-1.445,0.944c-0.579,0.226-1.25,0.339-2.012,0.339c-0.743,0-1.39-0.1-1.942-0.298
		c-0.552-0.199-1.012-0.488-1.38-0.867c-0.368-0.38-0.643-0.84-0.823-1.383c-0.181-0.542-0.271-1.156-0.271-1.843
		c0-0.663,0.095-1.272,0.286-1.83c0.19-0.557,0.479-1.037,0.863-1.441c0.385-0.403,0.865-0.717,1.44-0.939
		c0.576-0.223,1.248-0.334,2.018-0.334c0.743,0,1.39,0.099,1.942,0.298c0.552,0.199,1.012,0.488,1.38,0.867s0.644,0.84,0.828,1.382
		S169.747,59.437,169.747,60.117z M168.031,60.216c0-0.439-0.045-0.855-0.137-1.247c-0.091-0.391-0.241-0.735-0.451-1.03
		s-0.493-0.529-0.851-0.7c-0.358-0.172-0.804-0.258-1.337-0.258c-0.493,0-0.917,0.079-1.271,0.235
		c-0.354,0.156-0.646,0.378-0.876,0.664c-0.23,0.286-0.4,0.625-0.512,1.016c-0.111,0.392-0.167,0.819-0.167,1.283
		c0,0.446,0.045,0.864,0.137,1.256s0.243,0.733,0.456,1.025c0.212,0.292,0.498,0.524,0.855,0.696
		c0.358,0.172,0.803,0.257,1.337,0.257c0.486,0,0.908-0.078,1.266-0.235c0.358-0.156,0.651-0.376,0.881-0.659
		s0.398-0.621,0.506-1.012C167.977,61.117,168.031,60.686,168.031,60.216z"/>
	<path d="M185.586,64.273c0,0.048-0.013,0.089-0.04,0.122c-0.027,0.033-0.07,0.062-0.13,0.086s-0.144,0.042-0.251,0.054
		s-0.241,0.018-0.401,0.018c-0.167,0-0.305-0.006-0.412-0.018s-0.192-0.03-0.256-0.054c-0.064-0.024-0.109-0.053-0.136-0.086
		c-0.027-0.033-0.04-0.074-0.04-0.122v-4.942c0-0.344-0.034-0.657-0.1-0.94c-0.067-0.283-0.174-0.527-0.321-0.732
		c-0.147-0.205-0.335-0.361-0.562-0.47c-0.228-0.108-0.496-0.163-0.803-0.163c-0.381,0-0.765,0.132-1.149,0.397
		s-0.808,0.654-1.27,1.166v5.683c0,0.048-0.014,0.089-0.04,0.122c-0.027,0.033-0.072,0.062-0.136,0.086s-0.149,0.042-0.256,0.054
		s-0.241,0.018-0.401,0.018c-0.154,0-0.286-0.006-0.396-0.018s-0.197-0.03-0.261-0.054c-0.064-0.024-0.107-0.053-0.131-0.086
		c-0.023-0.033-0.035-0.074-0.035-0.122v-4.942c0-0.344-0.037-0.657-0.11-0.94s-0.184-0.527-0.331-0.732
		c-0.147-0.205-0.333-0.361-0.557-0.47s-0.49-0.163-0.798-0.163c-0.381,0-0.767,0.132-1.154,0.397
		c-0.388,0.265-0.81,0.654-1.265,1.166v5.683c0,0.048-0.014,0.089-0.04,0.122c-0.027,0.033-0.07,0.062-0.131,0.086
		c-0.06,0.024-0.144,0.042-0.251,0.054c-0.107,0.012-0.244,0.018-0.411,0.018c-0.161,0-0.295-0.006-0.402-0.018
		s-0.192-0.03-0.256-0.054s-0.107-0.053-0.13-0.086c-0.023-0.033-0.035-0.074-0.035-0.122v-8.131c0-0.048,0.01-0.089,0.03-0.122
		s0.06-0.063,0.12-0.09c0.061-0.027,0.137-0.045,0.231-0.054c0.094-0.009,0.217-0.014,0.372-0.014c0.147,0,0.269,0.004,0.366,0.014
		c0.097,0.009,0.172,0.027,0.226,0.054c0.053,0.027,0.092,0.057,0.115,0.09s0.035,0.074,0.035,0.122v1.075
		c0.508-0.512,1.002-0.887,1.48-1.125s0.962-0.357,1.45-0.357c0.375,0,0.711,0.039,1.009,0.117c0.298,0.079,0.561,0.188,0.788,0.33
		s0.421,0.31,0.582,0.506s0.294,0.414,0.401,0.655c0.301-0.295,0.587-0.545,0.858-0.75s0.532-0.371,0.783-0.497
		s0.495-0.218,0.733-0.275c0.237-0.057,0.477-0.086,0.718-0.086c0.582,0,1.07,0.092,1.465,0.275
		c0.395,0.184,0.714,0.429,0.958,0.736c0.244,0.307,0.418,0.667,0.522,1.08c0.104,0.413,0.155,0.848,0.155,1.305V64.273z"/>
	<path d="M195.413,64.282c0,0.072-0.027,0.126-0.08,0.163c-0.054,0.036-0.127,0.063-0.221,0.082s-0.23,0.027-0.411,0.027
		c-0.174,0-0.313-0.009-0.417-0.027c-0.104-0.018-0.179-0.045-0.226-0.082s-0.07-0.09-0.07-0.163v-0.813
		c-0.395,0.379-0.835,0.674-1.32,0.885c-0.485,0.211-0.999,0.316-1.541,0.316c-0.476,0-0.905-0.056-1.29-0.167
		s-0.712-0.272-0.983-0.483c-0.271-0.21-0.482-0.47-0.632-0.777c-0.151-0.307-0.226-0.657-0.226-1.048
		c0-0.458,0.104-0.855,0.311-1.192s0.505-0.618,0.894-0.84c0.388-0.223,0.863-0.39,1.425-0.501s1.194-0.167,1.897-0.167h1.245
		v-0.633c0-0.313-0.037-0.59-0.11-0.831c-0.074-0.241-0.192-0.441-0.356-0.601c-0.164-0.159-0.376-0.28-0.637-0.361
		c-0.261-0.081-0.583-0.122-0.964-0.122c-0.408,0-0.774,0.044-1.099,0.131c-0.324,0.087-0.609,0.184-0.853,0.289
		s-0.448,0.202-0.612,0.289s-0.286,0.131-0.366,0.131c-0.054,0-0.101-0.012-0.141-0.036c-0.04-0.024-0.075-0.06-0.105-0.108
		c-0.03-0.048-0.052-0.11-0.065-0.185c-0.014-0.075-0.02-0.158-0.02-0.249c0-0.15,0.011-0.27,0.035-0.357
		c0.023-0.087,0.08-0.17,0.17-0.249c0.09-0.078,0.246-0.17,0.467-0.275s0.475-0.202,0.763-0.289s0.602-0.16,0.943-0.217
		s0.686-0.086,1.034-0.086c0.649,0,1.201,0.066,1.656,0.199s0.823,0.327,1.104,0.583c0.281,0.256,0.485,0.574,0.612,0.954
		c0.127,0.379,0.191,0.822,0.191,1.328V64.282z M193.767,60.569h-1.416c-0.455,0-0.85,0.035-1.184,0.104
		c-0.335,0.069-0.612,0.172-0.833,0.308c-0.221,0.135-0.383,0.298-0.487,0.488c-0.104,0.189-0.156,0.408-0.156,0.655
		c0,0.422,0.149,0.758,0.447,1.008c0.297,0.25,0.714,0.375,1.25,0.375c0.435,0,0.838-0.1,1.209-0.298
		c0.372-0.199,0.761-0.503,1.169-0.913V60.569z"/>
	<path d="M203.733,56.674c0,0.133-0.004,0.244-0.01,0.334c-0.007,0.09-0.02,0.161-0.04,0.212s-0.045,0.09-0.075,0.117
		c-0.03,0.027-0.072,0.041-0.125,0.041c-0.054,0-0.119-0.014-0.196-0.041c-0.077-0.027-0.164-0.054-0.261-0.081
		c-0.097-0.027-0.206-0.053-0.326-0.077c-0.12-0.024-0.251-0.036-0.391-0.036c-0.167,0-0.332,0.03-0.492,0.09
		c-0.161,0.06-0.33,0.16-0.507,0.298c-0.177,0.139-0.363,0.322-0.557,0.551c-0.194,0.229-0.408,0.509-0.642,0.84v5.349
		c0,0.048-0.014,0.089-0.04,0.122c-0.027,0.033-0.07,0.062-0.131,0.086c-0.06,0.024-0.144,0.042-0.251,0.054
		c-0.107,0.012-0.244,0.018-0.411,0.018c-0.161,0-0.295-0.006-0.402-0.018s-0.192-0.03-0.256-0.054s-0.107-0.053-0.13-0.086
		c-0.023-0.033-0.035-0.074-0.035-0.122v-8.131c0-0.048,0.01-0.089,0.03-0.122s0.06-0.063,0.12-0.09
		c0.061-0.027,0.137-0.045,0.231-0.054c0.094-0.009,0.217-0.014,0.372-0.014c0.147,0,0.269,0.004,0.366,0.014
		c0.097,0.009,0.172,0.027,0.226,0.054c0.053,0.027,0.092,0.057,0.115,0.09s0.035,0.074,0.035,0.122v1.184
		c0.248-0.326,0.48-0.59,0.698-0.795c0.217-0.205,0.423-0.366,0.617-0.483c0.194-0.117,0.386-0.199,0.577-0.244
		c0.19-0.045,0.383-0.068,0.577-0.068c0.087,0,0.186,0.004,0.296,0.014c0.11,0.009,0.226,0.025,0.346,0.049
		c0.121,0.024,0.229,0.051,0.326,0.082c0.097,0.03,0.166,0.06,0.206,0.09s0.067,0.059,0.08,0.086
		c0.014,0.027,0.025,0.062,0.035,0.104c0.01,0.042,0.017,0.104,0.02,0.185C203.732,56.426,203.733,56.536,203.733,56.674z"/>
	<path d="M212.004,64.282c0,0.072-0.027,0.126-0.08,0.163c-0.054,0.036-0.127,0.063-0.221,0.082s-0.23,0.027-0.411,0.027
		c-0.174,0-0.313-0.009-0.417-0.027c-0.104-0.018-0.179-0.045-0.226-0.082s-0.07-0.09-0.07-0.163v-0.813
		c-0.395,0.379-0.835,0.674-1.32,0.885c-0.485,0.211-0.999,0.316-1.541,0.316c-0.476,0-0.905-0.056-1.29-0.167
		s-0.712-0.272-0.983-0.483c-0.271-0.21-0.482-0.47-0.632-0.777c-0.151-0.307-0.226-0.657-0.226-1.048
		c0-0.458,0.104-0.855,0.311-1.192s0.505-0.618,0.894-0.84c0.388-0.223,0.863-0.39,1.425-0.501s1.194-0.167,1.897-0.167h1.245
		v-0.633c0-0.313-0.037-0.59-0.11-0.831c-0.074-0.241-0.192-0.441-0.356-0.601c-0.164-0.159-0.376-0.28-0.637-0.361
		c-0.261-0.081-0.583-0.122-0.964-0.122c-0.408,0-0.774,0.044-1.099,0.131c-0.324,0.087-0.609,0.184-0.853,0.289
		s-0.448,0.202-0.612,0.289s-0.286,0.131-0.366,0.131c-0.054,0-0.101-0.012-0.141-0.036c-0.04-0.024-0.075-0.06-0.105-0.108
		c-0.03-0.048-0.052-0.11-0.065-0.185c-0.014-0.075-0.02-0.158-0.02-0.249c0-0.15,0.011-0.27,0.035-0.357
		c0.023-0.087,0.08-0.17,0.17-0.249c0.09-0.078,0.246-0.17,0.467-0.275s0.475-0.202,0.763-0.289s0.602-0.16,0.943-0.217
		s0.686-0.086,1.034-0.086c0.649,0,1.201,0.066,1.656,0.199s0.823,0.327,1.104,0.583c0.281,0.256,0.485,0.574,0.612,0.954
		c0.127,0.379,0.191,0.822,0.191,1.328V64.282z M210.358,60.569h-1.416c-0.455,0-0.85,0.035-1.184,0.104
		c-0.335,0.069-0.612,0.172-0.833,0.308c-0.221,0.135-0.383,0.298-0.487,0.488c-0.104,0.189-0.156,0.408-0.156,0.655
		c0,0.422,0.149,0.758,0.447,1.008c0.297,0.25,0.714,0.375,1.25,0.375c0.435,0,0.838-0.1,1.209-0.298
		c0.372-0.199,0.761-0.503,1.169-0.913V60.569z M209.364,52.166c0.04-0.066,0.087-0.121,0.141-0.163
		c0.053-0.042,0.119-0.076,0.195-0.1c0.077-0.024,0.172-0.042,0.286-0.054s0.251-0.018,0.412-0.018c0.188,0,0.339,0.011,0.457,0.032
		s0.199,0.051,0.246,0.09s0.067,0.084,0.06,0.135c-0.006,0.051-0.037,0.104-0.09,0.158l-1.816,2.105
		c-0.054,0.06-0.102,0.108-0.146,0.145c-0.044,0.036-0.094,0.064-0.151,0.086c-0.057,0.021-0.13,0.036-0.221,0.045
		c-0.09,0.009-0.203,0.014-0.336,0.014c-0.147,0-0.264-0.009-0.351-0.027s-0.149-0.042-0.186-0.072
		c-0.037-0.03-0.05-0.069-0.041-0.117c0.01-0.048,0.039-0.105,0.085-0.172L209.364,52.166z"/>
	<path d="M222.824,64.273c0,0.048-0.014,0.089-0.04,0.122c-0.027,0.033-0.07,0.062-0.13,0.086c-0.061,0.024-0.144,0.042-0.251,0.054
		c-0.107,0.012-0.241,0.018-0.402,0.018c-0.167,0-0.304-0.006-0.411-0.018c-0.107-0.012-0.191-0.03-0.251-0.054
		c-0.061-0.024-0.104-0.053-0.131-0.086c-0.026-0.033-0.04-0.074-0.04-0.122v-4.761c0-0.464-0.04-0.837-0.12-1.121
		c-0.081-0.283-0.198-0.527-0.352-0.732c-0.154-0.205-0.353-0.361-0.597-0.47s-0.527-0.163-0.848-0.163
		c-0.415,0-0.83,0.132-1.245,0.397s-0.85,0.654-1.305,1.166v5.683c0,0.048-0.014,0.089-0.04,0.122
		c-0.027,0.033-0.07,0.062-0.131,0.086c-0.06,0.024-0.144,0.042-0.251,0.054c-0.107,0.012-0.244,0.018-0.411,0.018
		c-0.161,0-0.295-0.006-0.402-0.018s-0.192-0.03-0.256-0.054s-0.107-0.053-0.13-0.086c-0.023-0.033-0.035-0.074-0.035-0.122v-8.131
		c0-0.048,0.01-0.089,0.03-0.122s0.06-0.063,0.12-0.09c0.061-0.027,0.137-0.045,0.231-0.054c0.094-0.009,0.217-0.014,0.372-0.014
		c0.147,0,0.269,0.004,0.366,0.014c0.097,0.009,0.172,0.027,0.226,0.054c0.053,0.027,0.092,0.057,0.115,0.09
		s0.035,0.074,0.035,0.122v1.075c0.508-0.512,1.015-0.887,1.521-1.125s1.016-0.357,1.531-0.357c0.602,0,1.109,0.092,1.521,0.275
		c0.412,0.184,0.745,0.429,0.999,0.736c0.254,0.307,0.437,0.667,0.547,1.08s0.166,0.908,0.166,1.486V64.273z"/>
	<path d="M38.321,86.478c0,0.048-0.013,0.089-0.04,0.122c-0.027,0.033-0.07,0.062-0.13,0.086s-0.144,0.042-0.251,0.054
		s-0.241,0.018-0.401,0.018c-0.167,0-0.305-0.006-0.412-0.018s-0.192-0.03-0.256-0.054c-0.064-0.024-0.109-0.053-0.136-0.086
		c-0.027-0.033-0.04-0.074-0.04-0.122v-4.942c0-0.344-0.034-0.657-0.1-0.94c-0.067-0.283-0.174-0.527-0.321-0.732
		c-0.147-0.205-0.335-0.361-0.562-0.47c-0.228-0.108-0.496-0.163-0.803-0.163c-0.381,0-0.765,0.132-1.149,0.397
		s-0.808,0.654-1.27,1.166v5.683c0,0.048-0.014,0.089-0.04,0.122c-0.027,0.033-0.072,0.062-0.136,0.086s-0.149,0.042-0.256,0.054
		s-0.241,0.018-0.401,0.018c-0.154,0-0.286-0.006-0.396-0.018s-0.197-0.03-0.261-0.054c-0.064-0.024-0.107-0.053-0.131-0.086
		c-0.023-0.033-0.035-0.074-0.035-0.122v-4.942c0-0.344-0.037-0.657-0.11-0.94s-0.184-0.527-0.331-0.732
		c-0.147-0.205-0.333-0.361-0.557-0.47s-0.49-0.163-0.798-0.163c-0.381,0-0.767,0.132-1.154,0.397
		c-0.388,0.265-0.81,0.654-1.265,1.166v5.683c0,0.048-0.014,0.089-0.04,0.122c-0.027,0.033-0.07,0.062-0.131,0.086
		c-0.06,0.024-0.144,0.042-0.251,0.054c-0.107,0.012-0.244,0.018-0.411,0.018c-0.161,0-0.295-0.006-0.402-0.018
		s-0.192-0.03-0.256-0.054s-0.107-0.053-0.13-0.086c-0.023-0.033-0.035-0.074-0.035-0.122v-8.131c0-0.048,0.01-0.089,0.03-0.122
		s0.06-0.063,0.12-0.09c0.061-0.027,0.137-0.045,0.231-0.054c0.094-0.009,0.217-0.014,0.372-0.014c0.147,0,0.269,0.004,0.366,0.014
		c0.097,0.009,0.172,0.027,0.226,0.054c0.053,0.027,0.092,0.057,0.115,0.09s0.035,0.074,0.035,0.122v1.075
		c0.508-0.512,1.002-0.887,1.48-1.125s0.962-0.357,1.45-0.357c0.375,0,0.711,0.039,1.009,0.117c0.298,0.079,0.561,0.188,0.788,0.33
		s0.421,0.31,0.582,0.506s0.294,0.414,0.401,0.655c0.301-0.295,0.587-0.545,0.858-0.75s0.532-0.371,0.783-0.497
		s0.495-0.218,0.733-0.275c0.237-0.057,0.477-0.086,0.718-0.086c0.582,0,1.07,0.092,1.465,0.275
		c0.395,0.184,0.714,0.429,0.958,0.736c0.244,0.307,0.418,0.667,0.522,1.08c0.104,0.413,0.155,0.848,0.155,1.305V86.478z"/>
	<path d="M49.051,82.06c0,0.235-0.065,0.402-0.197,0.501c-0.131,0.099-0.28,0.149-0.449,0.149h-5.949c0,0.452,0.05,0.858,0.151,1.22
		c0.101,0.361,0.269,0.672,0.504,0.931c0.235,0.259,0.542,0.458,0.918,0.596c0.376,0.139,0.837,0.208,1.382,0.208
		c0.43,0,0.813-0.032,1.15-0.095c0.336-0.063,0.627-0.134,0.872-0.212c0.246-0.078,0.447-0.149,0.605-0.212s0.277-0.095,0.358-0.095
		c0.047,0,0.089,0.01,0.126,0.031c0.037,0.021,0.066,0.053,0.086,0.095s0.035,0.101,0.045,0.176c0.01,0.075,0.015,0.167,0.015,0.275
		c0,0.078-0.003,0.146-0.01,0.203c-0.006,0.058-0.015,0.108-0.025,0.154c-0.01,0.045-0.027,0.086-0.05,0.122
		s-0.054,0.071-0.09,0.104c-0.037,0.033-0.146,0.087-0.326,0.163c-0.181,0.075-0.415,0.149-0.703,0.221s-0.621,0.137-0.999,0.194
		c-0.378,0.057-0.781,0.086-1.209,0.086c-0.743,0-1.394-0.094-1.952-0.28c-0.559-0.187-1.029-0.464-1.41-0.831
		c-0.381-0.368-0.669-0.828-0.863-1.383c-0.194-0.554-0.291-1.198-0.291-1.934c0-0.698,0.1-1.326,0.301-1.884
		c0.201-0.557,0.49-1.03,0.868-1.418c0.378-0.389,0.835-0.687,1.37-0.895c0.536-0.208,1.134-0.312,1.797-0.312
		c0.709,0,1.313,0.103,1.812,0.307c0.499,0.205,0.909,0.48,1.229,0.827c0.321,0.347,0.557,0.753,0.708,1.22
		c0.15,0.467,0.226,0.965,0.226,1.496V82.06z M47.385,81.617c0.02-0.783-0.174-1.397-0.581-1.843s-1.011-0.668-1.813-0.668
		c-0.411,0-0.771,0.069-1.081,0.208c-0.31,0.138-0.569,0.322-0.778,0.551c-0.208,0.229-0.37,0.496-0.484,0.8
		c-0.115,0.304-0.179,0.622-0.192,0.953H47.385z"/>
	<path d="M59.309,86.478c0,0.048-0.012,0.09-0.035,0.126s-0.064,0.065-0.121,0.086s-0.132,0.038-0.226,0.05
		c-0.094,0.012-0.208,0.018-0.341,0.018c-0.141,0-0.258-0.006-0.352-0.018s-0.17-0.029-0.231-0.05
		c-0.06-0.021-0.104-0.05-0.13-0.086s-0.04-0.078-0.04-0.126v-1.075c-0.475,0.464-0.969,0.826-1.48,1.084s-1.072,0.389-1.681,0.389
		c-0.663,0-1.228-0.116-1.696-0.348s-0.848-0.545-1.139-0.939s-0.504-0.858-0.638-1.392s-0.201-1.095-0.201-1.685
		c0-0.699,0.084-1.33,0.251-1.893c0.167-0.563,0.415-1.043,0.743-1.441c0.328-0.397,0.734-0.703,1.22-0.917
		c0.485-0.214,1.045-0.321,1.681-0.321c0.529,0,1.012,0.104,1.45,0.312c0.438,0.208,0.872,0.514,1.3,0.917v-4.725
		c0-0.042,0.012-0.083,0.035-0.122s0.069-0.069,0.136-0.09s0.152-0.039,0.256-0.054c0.104-0.015,0.236-0.022,0.396-0.022
		c0.167,0,0.304,0.007,0.412,0.022c0.107,0.015,0.19,0.033,0.251,0.054c0.06,0.021,0.105,0.051,0.135,0.09
		c0.03,0.039,0.045,0.08,0.045,0.122V86.478z M57.643,80.759c-0.448-0.5-0.881-0.881-1.3-1.143c-0.418-0.262-0.854-0.393-1.31-0.393
		c-0.421,0-0.78,0.091-1.074,0.271s-0.534,0.418-0.717,0.713c-0.184,0.295-0.318,0.63-0.402,1.003
		c-0.083,0.374-0.125,0.753-0.125,1.139c0,0.41,0.035,0.81,0.105,1.202s0.192,0.739,0.367,1.043
		c0.174,0.304,0.405,0.548,0.692,0.732c0.288,0.184,0.649,0.275,1.084,0.275c0.221,0,0.433-0.027,0.637-0.081
		s0.413-0.145,0.627-0.271c0.214-0.126,0.438-0.291,0.672-0.493c0.234-0.202,0.482-0.45,0.743-0.745V80.759z"/>
	<path d="M64.217,75.6c0,0.35-0.074,0.587-0.221,0.714c-0.147,0.126-0.418,0.19-0.813,0.19c-0.388,0-0.654-0.062-0.798-0.186
		c-0.144-0.123-0.216-0.357-0.216-0.7c0-0.349,0.074-0.587,0.221-0.714s0.418-0.189,0.813-0.189c0.388,0,0.654,0.062,0.798,0.185
		C64.146,75.023,64.217,75.256,64.217,75.6z M64.027,86.478c0,0.048-0.014,0.089-0.04,0.122c-0.027,0.033-0.07,0.062-0.131,0.086
		c-0.06,0.024-0.144,0.042-0.251,0.054c-0.107,0.012-0.244,0.018-0.411,0.018c-0.161,0-0.295-0.006-0.402-0.018
		s-0.192-0.03-0.256-0.054s-0.107-0.053-0.13-0.086c-0.023-0.033-0.035-0.074-0.035-0.122v-8.131c0-0.042,0.012-0.082,0.035-0.118
		s0.067-0.066,0.13-0.09s0.149-0.042,0.256-0.054s0.241-0.018,0.402-0.018c0.167,0,0.304,0.006,0.411,0.018
		c0.107,0.012,0.191,0.03,0.251,0.054c0.061,0.024,0.104,0.054,0.131,0.09c0.026,0.036,0.04,0.075,0.04,0.118V86.478z"/>
	<path d="M74.827,86.478c0,0.048-0.012,0.09-0.035,0.126s-0.064,0.065-0.121,0.086s-0.132,0.038-0.226,0.05
		c-0.094,0.012-0.208,0.018-0.341,0.018c-0.141,0-0.258-0.006-0.352-0.018s-0.17-0.029-0.231-0.05
		c-0.06-0.021-0.104-0.05-0.13-0.086s-0.04-0.078-0.04-0.126v-1.075c-0.475,0.464-0.969,0.826-1.48,1.084s-1.072,0.389-1.681,0.389
		c-0.663,0-1.228-0.116-1.696-0.348s-0.848-0.545-1.139-0.939s-0.504-0.858-0.638-1.392s-0.201-1.095-0.201-1.685
		c0-0.699,0.084-1.33,0.251-1.893c0.167-0.563,0.415-1.043,0.743-1.441c0.328-0.397,0.734-0.703,1.22-0.917
		c0.485-0.214,1.045-0.321,1.681-0.321c0.529,0,1.012,0.104,1.45,0.312c0.438,0.208,0.872,0.514,1.3,0.917v-4.725
		c0-0.042,0.012-0.083,0.035-0.122s0.069-0.069,0.136-0.09s0.152-0.039,0.256-0.054c0.104-0.015,0.236-0.022,0.396-0.022
		c0.167,0,0.304,0.007,0.412,0.022c0.107,0.015,0.19,0.033,0.251,0.054c0.06,0.021,0.105,0.051,0.135,0.09
		c0.03,0.039,0.045,0.08,0.045,0.122V86.478z M73.16,80.759c-0.448-0.5-0.881-0.881-1.3-1.143c-0.418-0.262-0.854-0.393-1.31-0.393
		c-0.421,0-0.78,0.091-1.074,0.271s-0.534,0.418-0.717,0.713c-0.184,0.295-0.318,0.63-0.402,1.003
		c-0.083,0.374-0.125,0.753-0.125,1.139c0,0.41,0.035,0.81,0.105,1.202s0.192,0.739,0.367,1.043
		c0.174,0.304,0.405,0.548,0.692,0.732c0.288,0.184,0.649,0.275,1.084,0.275c0.221,0,0.433-0.027,0.637-0.081
		s0.413-0.145,0.627-0.271c0.214-0.126,0.438-0.291,0.672-0.493c0.234-0.202,0.482-0.45,0.743-0.745V80.759z"/>
	<path d="M84.693,86.487c0,0.072-0.027,0.126-0.08,0.163c-0.054,0.036-0.127,0.063-0.221,0.082s-0.23,0.027-0.411,0.027
		c-0.174,0-0.313-0.009-0.417-0.027c-0.104-0.018-0.179-0.045-0.226-0.082s-0.07-0.09-0.07-0.163v-0.813
		c-0.395,0.379-0.835,0.674-1.32,0.885c-0.485,0.211-0.999,0.316-1.541,0.316c-0.476,0-0.905-0.056-1.29-0.167
		s-0.712-0.272-0.983-0.483c-0.271-0.21-0.482-0.47-0.632-0.777c-0.151-0.307-0.226-0.657-0.226-1.048
		c0-0.458,0.104-0.855,0.311-1.192s0.505-0.618,0.894-0.84c0.388-0.223,0.863-0.39,1.425-0.501s1.194-0.167,1.897-0.167h1.245
		v-0.633c0-0.313-0.037-0.59-0.11-0.831c-0.074-0.241-0.192-0.441-0.356-0.601c-0.164-0.159-0.376-0.28-0.637-0.361
		c-0.261-0.081-0.583-0.122-0.964-0.122c-0.408,0-0.774,0.044-1.099,0.131c-0.324,0.087-0.609,0.184-0.853,0.289
		s-0.448,0.202-0.612,0.289s-0.286,0.131-0.366,0.131c-0.054,0-0.101-0.012-0.141-0.036c-0.04-0.024-0.075-0.06-0.105-0.108
		c-0.03-0.048-0.052-0.11-0.065-0.185c-0.014-0.075-0.02-0.158-0.02-0.249c0-0.15,0.011-0.27,0.035-0.357
		c0.023-0.087,0.08-0.17,0.17-0.249c0.09-0.078,0.246-0.17,0.467-0.275s0.475-0.202,0.763-0.289s0.602-0.16,0.943-0.217
		s0.686-0.086,1.034-0.086c0.649,0,1.201,0.066,1.656,0.199s0.823,0.327,1.104,0.583c0.281,0.256,0.485,0.574,0.612,0.954
		c0.127,0.379,0.191,0.822,0.191,1.328V86.487z M83.047,82.774h-1.416c-0.455,0-0.85,0.035-1.184,0.104
		c-0.335,0.069-0.612,0.172-0.833,0.308c-0.221,0.135-0.383,0.298-0.487,0.488c-0.104,0.189-0.156,0.408-0.156,0.655
		c0,0.422,0.149,0.758,0.447,1.008c0.297,0.25,0.714,0.375,1.25,0.375c0.435,0,0.838-0.1,1.209-0.298
		c0.372-0.199,0.761-0.503,1.169-0.913V82.774z"/>
	<path d="M93.405,84.265c0,0.416-0.085,0.786-0.256,1.111s-0.413,0.6-0.728,0.822c-0.315,0.223-0.689,0.392-1.125,0.506
		s-0.913,0.172-1.435,0.172c-0.321,0-0.627-0.023-0.918-0.068c-0.291-0.045-0.552-0.103-0.783-0.172
		c-0.231-0.069-0.427-0.141-0.587-0.217c-0.161-0.075-0.278-0.143-0.351-0.203c-0.074-0.06-0.127-0.145-0.161-0.253
		c-0.034-0.108-0.05-0.256-0.05-0.443c0-0.114,0.007-0.211,0.02-0.289s0.03-0.142,0.05-0.19c0.02-0.048,0.048-0.083,0.085-0.104
		c0.037-0.021,0.079-0.031,0.125-0.031c0.073,0,0.182,0.041,0.326,0.122c0.144,0.082,0.321,0.17,0.532,0.267
		c0.211,0.097,0.46,0.186,0.748,0.267c0.288,0.082,0.619,0.122,0.994,0.122c0.281,0,0.535-0.027,0.763-0.082
		c0.228-0.054,0.425-0.134,0.592-0.239c0.167-0.105,0.296-0.239,0.386-0.402s0.136-0.355,0.136-0.579
		c0-0.229-0.065-0.421-0.196-0.578s-0.303-0.295-0.517-0.416s-0.455-0.228-0.723-0.321s-0.543-0.191-0.828-0.293
		c-0.284-0.103-0.562-0.218-0.833-0.348c-0.271-0.129-0.514-0.288-0.728-0.474c-0.214-0.187-0.387-0.41-0.517-0.669
		c-0.13-0.259-0.196-0.569-0.196-0.93c0-0.319,0.069-0.625,0.206-0.917c0.137-0.292,0.343-0.548,0.617-0.768
		c0.274-0.22,0.617-0.396,1.029-0.528s0.892-0.199,1.44-0.199c0.241,0,0.481,0.018,0.723,0.054c0.241,0.036,0.458,0.081,0.652,0.135
		c0.194,0.054,0.359,0.113,0.497,0.176c0.137,0.063,0.241,0.119,0.312,0.167c0.07,0.048,0.117,0.09,0.14,0.126
		s0.041,0.077,0.05,0.122c0.01,0.045,0.02,0.101,0.03,0.167c0.01,0.066,0.015,0.147,0.015,0.244c0,0.103-0.005,0.191-0.015,0.267
		c-0.01,0.076-0.027,0.137-0.05,0.186s-0.052,0.083-0.085,0.104c-0.033,0.021-0.07,0.032-0.11,0.032
		c-0.06,0-0.147-0.033-0.261-0.099s-0.261-0.137-0.442-0.212s-0.393-0.146-0.637-0.212s-0.523-0.1-0.838-0.1
		c-0.281,0-0.529,0.029-0.743,0.086c-0.214,0.058-0.39,0.139-0.527,0.244s-0.241,0.23-0.311,0.375s-0.105,0.301-0.105,0.47
		c0,0.235,0.067,0.432,0.201,0.592s0.308,0.3,0.522,0.42c0.214,0.121,0.458,0.229,0.733,0.326c0.274,0.096,0.554,0.196,0.838,0.298
		c0.284,0.103,0.565,0.217,0.843,0.343c0.277,0.126,0.523,0.28,0.738,0.461c0.214,0.181,0.386,0.397,0.517,0.65
		C93.34,83.614,93.405,83.916,93.405,84.265z"/>
	<path d="M113.82,86.478c0,0.048-0.013,0.089-0.04,0.122c-0.027,0.033-0.07,0.062-0.13,0.086s-0.144,0.042-0.251,0.054
		s-0.241,0.018-0.401,0.018c-0.167,0-0.305-0.006-0.412-0.018s-0.192-0.03-0.256-0.054c-0.064-0.024-0.109-0.053-0.136-0.086
		c-0.027-0.033-0.04-0.074-0.04-0.122v-4.942c0-0.344-0.034-0.657-0.1-0.94c-0.067-0.283-0.174-0.527-0.321-0.732
		c-0.147-0.205-0.335-0.361-0.562-0.47c-0.228-0.108-0.496-0.163-0.803-0.163c-0.381,0-0.765,0.132-1.149,0.397
		s-0.808,0.654-1.27,1.166v5.683c0,0.048-0.014,0.089-0.04,0.122c-0.027,0.033-0.072,0.062-0.136,0.086s-0.149,0.042-0.256,0.054
		s-0.241,0.018-0.401,0.018c-0.154,0-0.286-0.006-0.396-0.018s-0.197-0.03-0.261-0.054c-0.064-0.024-0.107-0.053-0.131-0.086
		c-0.023-0.033-0.035-0.074-0.035-0.122v-4.942c0-0.344-0.037-0.657-0.11-0.94s-0.184-0.527-0.331-0.732
		c-0.147-0.205-0.333-0.361-0.557-0.47s-0.49-0.163-0.798-0.163c-0.381,0-0.767,0.132-1.154,0.397
		c-0.388,0.265-0.81,0.654-1.265,1.166v5.683c0,0.048-0.014,0.089-0.04,0.122c-0.027,0.033-0.07,0.062-0.131,0.086
		c-0.06,0.024-0.144,0.042-0.251,0.054c-0.107,0.012-0.244,0.018-0.411,0.018c-0.161,0-0.295-0.006-0.402-0.018
		s-0.192-0.03-0.256-0.054s-0.107-0.053-0.13-0.086c-0.023-0.033-0.035-0.074-0.035-0.122v-8.131c0-0.048,0.01-0.089,0.03-0.122
		s0.06-0.063,0.12-0.09c0.061-0.027,0.137-0.045,0.231-0.054c0.094-0.009,0.217-0.014,0.372-0.014c0.147,0,0.269,0.004,0.366,0.014
		c0.097,0.009,0.172,0.027,0.226,0.054c0.053,0.027,0.092,0.057,0.115,0.09s0.035,0.074,0.035,0.122v1.075
		c0.508-0.512,1.002-0.887,1.48-1.125s0.962-0.357,1.45-0.357c0.375,0,0.711,0.039,1.009,0.117c0.298,0.079,0.561,0.188,0.788,0.33
		s0.421,0.31,0.582,0.506s0.294,0.414,0.401,0.655c0.301-0.295,0.587-0.545,0.858-0.75s0.532-0.371,0.783-0.497
		s0.495-0.218,0.733-0.275c0.237-0.057,0.477-0.086,0.718-0.086c0.582,0,1.07,0.092,1.465,0.275
		c0.395,0.184,0.714,0.429,0.958,0.736c0.244,0.307,0.418,0.667,0.522,1.08c0.104,0.413,0.155,0.848,0.155,1.305V86.478z"/>
	<path d="M123.647,86.487c0,0.072-0.027,0.126-0.08,0.163c-0.054,0.036-0.127,0.063-0.221,0.082s-0.23,0.027-0.411,0.027
		c-0.174,0-0.313-0.009-0.417-0.027c-0.104-0.018-0.179-0.045-0.226-0.082s-0.07-0.09-0.07-0.163v-0.813
		c-0.395,0.379-0.835,0.674-1.32,0.885c-0.485,0.211-0.999,0.316-1.541,0.316c-0.476,0-0.905-0.056-1.29-0.167
		s-0.712-0.272-0.983-0.483c-0.271-0.21-0.482-0.47-0.632-0.777c-0.151-0.307-0.226-0.657-0.226-1.048
		c0-0.458,0.104-0.855,0.311-1.192s0.505-0.618,0.894-0.84c0.388-0.223,0.863-0.39,1.425-0.501s1.194-0.167,1.897-0.167h1.245
		v-0.633c0-0.313-0.037-0.59-0.11-0.831c-0.074-0.241-0.192-0.441-0.356-0.601c-0.164-0.159-0.376-0.28-0.637-0.361
		c-0.261-0.081-0.583-0.122-0.964-0.122c-0.408,0-0.774,0.044-1.099,0.131c-0.324,0.087-0.609,0.184-0.853,0.289
		s-0.448,0.202-0.612,0.289s-0.286,0.131-0.366,0.131c-0.054,0-0.101-0.012-0.141-0.036c-0.04-0.024-0.075-0.06-0.105-0.108
		c-0.03-0.048-0.052-0.11-0.065-0.185c-0.014-0.075-0.02-0.158-0.02-0.249c0-0.15,0.011-0.27,0.035-0.357
		c0.023-0.087,0.08-0.17,0.17-0.249c0.09-0.078,0.246-0.17,0.467-0.275s0.475-0.202,0.763-0.289s0.602-0.16,0.943-0.217
		s0.686-0.086,1.034-0.086c0.649,0,1.201,0.066,1.656,0.199s0.823,0.327,1.104,0.583c0.281,0.256,0.485,0.574,0.612,0.954
		c0.127,0.379,0.191,0.822,0.191,1.328V86.487z M122.001,82.774h-1.416c-0.455,0-0.85,0.035-1.184,0.104
		c-0.335,0.069-0.612,0.172-0.833,0.308c-0.221,0.135-0.383,0.298-0.487,0.488c-0.104,0.189-0.156,0.408-0.156,0.655
		c0,0.422,0.149,0.758,0.447,1.008c0.297,0.25,0.714,0.375,1.25,0.375c0.435,0,0.838-0.1,1.209-0.298
		c0.372-0.199,0.761-0.503,1.169-0.913V82.774z M121.007,74.371c0.04-0.066,0.087-0.121,0.141-0.163
		c0.053-0.042,0.119-0.076,0.195-0.1c0.077-0.024,0.172-0.042,0.286-0.054s0.251-0.018,0.412-0.018c0.188,0,0.339,0.011,0.457,0.032
		s0.199,0.051,0.246,0.09s0.067,0.084,0.06,0.135c-0.006,0.051-0.037,0.104-0.09,0.158l-1.816,2.105
		c-0.054,0.06-0.102,0.108-0.146,0.145c-0.044,0.036-0.094,0.064-0.151,0.086c-0.057,0.021-0.13,0.036-0.221,0.045
		c-0.09,0.009-0.203,0.014-0.336,0.014c-0.147,0-0.264-0.009-0.351-0.027s-0.149-0.042-0.186-0.072
		c-0.037-0.03-0.05-0.069-0.041-0.117c0.01-0.048,0.039-0.105,0.085-0.172L121.007,74.371z"/>
	<path d="M132.359,84.265c0,0.416-0.085,0.786-0.256,1.111s-0.413,0.6-0.728,0.822c-0.315,0.223-0.689,0.392-1.125,0.506
		s-0.913,0.172-1.435,0.172c-0.321,0-0.627-0.023-0.918-0.068c-0.291-0.045-0.552-0.103-0.783-0.172
		c-0.231-0.069-0.427-0.141-0.587-0.217c-0.161-0.075-0.278-0.143-0.351-0.203c-0.074-0.06-0.127-0.145-0.161-0.253
		c-0.034-0.108-0.05-0.256-0.05-0.443c0-0.114,0.007-0.211,0.02-0.289s0.03-0.142,0.05-0.19c0.02-0.048,0.048-0.083,0.085-0.104
		c0.037-0.021,0.079-0.031,0.125-0.031c0.073,0,0.182,0.041,0.326,0.122c0.144,0.082,0.321,0.17,0.532,0.267
		c0.211,0.097,0.46,0.186,0.748,0.267c0.288,0.082,0.619,0.122,0.994,0.122c0.281,0,0.535-0.027,0.763-0.082
		c0.228-0.054,0.425-0.134,0.592-0.239c0.167-0.105,0.296-0.239,0.386-0.402s0.136-0.355,0.136-0.579
		c0-0.229-0.065-0.421-0.196-0.578s-0.303-0.295-0.517-0.416s-0.455-0.228-0.723-0.321s-0.543-0.191-0.828-0.293
		c-0.284-0.103-0.562-0.218-0.833-0.348c-0.271-0.129-0.514-0.288-0.728-0.474c-0.214-0.187-0.387-0.41-0.517-0.669
		c-0.13-0.259-0.196-0.569-0.196-0.93c0-0.319,0.069-0.625,0.206-0.917c0.137-0.292,0.343-0.548,0.617-0.768
		c0.274-0.22,0.617-0.396,1.029-0.528s0.892-0.199,1.44-0.199c0.241,0,0.481,0.018,0.723,0.054c0.241,0.036,0.458,0.081,0.652,0.135
		c0.194,0.054,0.359,0.113,0.497,0.176c0.137,0.063,0.241,0.119,0.312,0.167c0.07,0.048,0.117,0.09,0.14,0.126
		s0.041,0.077,0.05,0.122c0.01,0.045,0.02,0.101,0.03,0.167c0.01,0.066,0.015,0.147,0.015,0.244c0,0.103-0.005,0.191-0.015,0.267
		c-0.01,0.076-0.027,0.137-0.05,0.186s-0.052,0.083-0.085,0.104c-0.033,0.021-0.07,0.032-0.11,0.032
		c-0.06,0-0.147-0.033-0.261-0.099s-0.261-0.137-0.442-0.212s-0.393-0.146-0.637-0.212s-0.523-0.1-0.838-0.1
		c-0.281,0-0.529,0.029-0.743,0.086c-0.214,0.058-0.39,0.139-0.527,0.244s-0.241,0.23-0.311,0.375s-0.105,0.301-0.105,0.47
		c0,0.235,0.067,0.432,0.201,0.592s0.308,0.3,0.522,0.42c0.214,0.121,0.458,0.229,0.733,0.326c0.274,0.096,0.554,0.196,0.838,0.298
		c0.284,0.103,0.565,0.217,0.843,0.343c0.277,0.126,0.523,0.28,0.738,0.461c0.214,0.181,0.386,0.397,0.517,0.65
		C132.294,83.614,132.359,83.916,132.359,84.265z"/>
	<path d="M145.046,84.265c0,0.416-0.085,0.786-0.256,1.111s-0.413,0.6-0.728,0.822c-0.315,0.223-0.689,0.392-1.125,0.506
		s-0.913,0.172-1.435,0.172c-0.321,0-0.627-0.023-0.918-0.068c-0.291-0.045-0.552-0.103-0.783-0.172
		c-0.231-0.069-0.427-0.141-0.587-0.217c-0.161-0.075-0.278-0.143-0.351-0.203c-0.074-0.06-0.127-0.145-0.161-0.253
		c-0.034-0.108-0.05-0.256-0.05-0.443c0-0.114,0.007-0.211,0.02-0.289s0.03-0.142,0.05-0.19c0.02-0.048,0.048-0.083,0.085-0.104
		c0.037-0.021,0.079-0.031,0.125-0.031c0.073,0,0.182,0.041,0.326,0.122c0.144,0.082,0.321,0.17,0.532,0.267
		c0.211,0.097,0.46,0.186,0.748,0.267c0.288,0.082,0.619,0.122,0.994,0.122c0.281,0,0.535-0.027,0.763-0.082
		c0.228-0.054,0.425-0.134,0.592-0.239c0.167-0.105,0.296-0.239,0.386-0.402s0.136-0.355,0.136-0.579
		c0-0.229-0.065-0.421-0.196-0.578s-0.303-0.295-0.517-0.416s-0.455-0.228-0.723-0.321s-0.543-0.191-0.828-0.293
		c-0.284-0.103-0.562-0.218-0.833-0.348c-0.271-0.129-0.514-0.288-0.728-0.474c-0.214-0.187-0.387-0.41-0.517-0.669
		c-0.13-0.259-0.196-0.569-0.196-0.93c0-0.319,0.069-0.625,0.206-0.917c0.137-0.292,0.343-0.548,0.617-0.768
		c0.274-0.22,0.617-0.396,1.029-0.528s0.892-0.199,1.44-0.199c0.241,0,0.481,0.018,0.723,0.054c0.241,0.036,0.458,0.081,0.652,0.135
		c0.194,0.054,0.359,0.113,0.497,0.176c0.137,0.063,0.241,0.119,0.312,0.167c0.07,0.048,0.117,0.09,0.14,0.126
		s0.041,0.077,0.05,0.122c0.01,0.045,0.02,0.101,0.03,0.167c0.01,0.066,0.015,0.147,0.015,0.244c0,0.103-0.005,0.191-0.015,0.267
		c-0.01,0.076-0.027,0.137-0.05,0.186s-0.052,0.083-0.085,0.104c-0.033,0.021-0.07,0.032-0.11,0.032
		c-0.06,0-0.147-0.033-0.261-0.099s-0.261-0.137-0.442-0.212s-0.393-0.146-0.637-0.212s-0.523-0.1-0.838-0.1
		c-0.281,0-0.529,0.029-0.743,0.086c-0.214,0.058-0.39,0.139-0.527,0.244s-0.241,0.23-0.311,0.375s-0.105,0.301-0.105,0.47
		c0,0.235,0.067,0.432,0.201,0.592s0.308,0.3,0.522,0.42c0.214,0.121,0.458,0.229,0.733,0.326c0.274,0.096,0.554,0.196,0.838,0.298
		c0.284,0.103,0.565,0.217,0.843,0.343c0.277,0.126,0.523,0.28,0.738,0.461c0.214,0.181,0.386,0.397,0.517,0.65
		C144.981,83.614,145.046,83.916,145.046,84.265z"/>
	<path d="M155.124,82.06c0,0.235-0.065,0.402-0.197,0.501c-0.131,0.099-0.28,0.149-0.449,0.149h-5.949
		c0,0.452,0.05,0.858,0.151,1.22c0.101,0.361,0.269,0.672,0.504,0.931c0.235,0.259,0.542,0.458,0.918,0.596
		c0.376,0.139,0.837,0.208,1.382,0.208c0.43,0,0.813-0.032,1.15-0.095c0.336-0.063,0.627-0.134,0.872-0.212
		c0.246-0.078,0.447-0.149,0.605-0.212s0.277-0.095,0.358-0.095c0.047,0,0.089,0.01,0.126,0.031
		c0.037,0.021,0.066,0.053,0.086,0.095s0.035,0.101,0.045,0.176c0.01,0.075,0.015,0.167,0.015,0.275c0,0.078-0.003,0.146-0.01,0.203
		c-0.006,0.058-0.015,0.108-0.025,0.154c-0.01,0.045-0.027,0.086-0.05,0.122s-0.054,0.071-0.09,0.104
		c-0.037,0.033-0.146,0.087-0.326,0.163c-0.181,0.075-0.415,0.149-0.703,0.221s-0.621,0.137-0.999,0.194
		c-0.378,0.057-0.781,0.086-1.209,0.086c-0.743,0-1.394-0.094-1.952-0.28c-0.559-0.187-1.029-0.464-1.41-0.831
		c-0.381-0.368-0.669-0.828-0.863-1.383c-0.194-0.554-0.291-1.198-0.291-1.934c0-0.698,0.1-1.326,0.301-1.884
		c0.201-0.557,0.49-1.03,0.868-1.418c0.378-0.389,0.835-0.687,1.37-0.895c0.536-0.208,1.134-0.312,1.797-0.312
		c0.709,0,1.313,0.103,1.812,0.307c0.499,0.205,0.909,0.48,1.229,0.827c0.321,0.347,0.557,0.753,0.708,1.22
		c0.15,0.467,0.226,0.965,0.226,1.496V82.06z M153.458,81.617c0.02-0.783-0.174-1.397-0.581-1.843s-1.011-0.668-1.813-0.668
		c-0.411,0-0.771,0.069-1.081,0.208c-0.31,0.138-0.569,0.322-0.778,0.551c-0.208,0.229-0.37,0.496-0.484,0.8
		c-0.115,0.304-0.179,0.622-0.192,0.953H153.458z"/>
	<path d="M165.953,82.286c0,0.711-0.085,1.35-0.256,1.916c-0.17,0.566-0.421,1.047-0.752,1.441c-0.332,0.395-0.741,0.699-1.23,0.913
		c-0.488,0.213-1.047,0.321-1.676,0.321c-0.268,0-0.516-0.024-0.743-0.072c-0.228-0.048-0.45-0.124-0.667-0.226
		c-0.217-0.103-0.433-0.232-0.647-0.389c-0.214-0.156-0.442-0.34-0.683-0.551v4.066c0,0.048-0.014,0.09-0.04,0.126
		c-0.027,0.036-0.07,0.066-0.131,0.091c-0.06,0.024-0.144,0.042-0.251,0.054c-0.107,0.012-0.244,0.018-0.411,0.018
		c-0.161,0-0.295-0.006-0.402-0.018c-0.107-0.012-0.192-0.03-0.256-0.054c-0.063-0.024-0.107-0.055-0.13-0.091
		s-0.035-0.078-0.035-0.126V78.347c0-0.054,0.01-0.098,0.03-0.131c0.02-0.033,0.06-0.062,0.12-0.086
		c0.061-0.024,0.137-0.041,0.231-0.049c0.094-0.009,0.208-0.014,0.341-0.014c0.141,0,0.256,0.004,0.346,0.014
		c0.09,0.009,0.166,0.025,0.226,0.049c0.06,0.024,0.102,0.053,0.125,0.086c0.023,0.033,0.035,0.077,0.035,0.131v1.093
		c0.274-0.253,0.539-0.473,0.793-0.66c0.254-0.187,0.51-0.342,0.768-0.465s0.522-0.217,0.793-0.28
		c0.271-0.063,0.557-0.095,0.858-0.095c0.656,0,1.214,0.114,1.676,0.343c0.462,0.229,0.838,0.542,1.129,0.939
		c0.291,0.398,0.503,0.86,0.637,1.387S165.953,81.696,165.953,82.286z M164.237,82.457c0-0.416-0.035-0.818-0.106-1.206
		c-0.071-0.389-0.192-0.733-0.363-1.035c-0.172-0.301-0.402-0.542-0.692-0.723s-0.65-0.271-1.081-0.271
		c-0.215,0-0.428,0.029-0.636,0.086c-0.209,0.058-0.421,0.148-0.636,0.271c-0.215,0.124-0.441,0.286-0.677,0.488
		c-0.235,0.202-0.485,0.45-0.747,0.745v3.235c0.458,0.5,0.892,0.882,1.303,1.147s0.841,0.397,1.292,0.397
		c0.417,0,0.776-0.09,1.076-0.271c0.299-0.181,0.542-0.421,0.727-0.723s0.321-0.639,0.409-1.012
		C164.193,83.213,164.237,82.837,164.237,82.457z"/>
	<path d="M175.248,86.487c0,0.072-0.027,0.126-0.08,0.163c-0.054,0.036-0.127,0.063-0.221,0.082s-0.23,0.027-0.411,0.027
		c-0.174,0-0.313-0.009-0.417-0.027c-0.104-0.018-0.179-0.045-0.226-0.082s-0.07-0.09-0.07-0.163v-0.813
		c-0.395,0.379-0.835,0.674-1.32,0.885c-0.485,0.211-0.999,0.316-1.541,0.316c-0.476,0-0.905-0.056-1.29-0.167
		s-0.712-0.272-0.983-0.483c-0.271-0.21-0.482-0.47-0.632-0.777c-0.151-0.307-0.226-0.657-0.226-1.048
		c0-0.458,0.104-0.855,0.311-1.192s0.505-0.618,0.894-0.84c0.388-0.223,0.863-0.39,1.425-0.501s1.194-0.167,1.897-0.167h1.245
		v-0.633c0-0.313-0.037-0.59-0.11-0.831c-0.074-0.241-0.192-0.441-0.356-0.601c-0.164-0.159-0.376-0.28-0.637-0.361
		c-0.261-0.081-0.583-0.122-0.964-0.122c-0.408,0-0.774,0.044-1.099,0.131c-0.324,0.087-0.609,0.184-0.853,0.289
		s-0.448,0.202-0.612,0.289s-0.286,0.131-0.366,0.131c-0.054,0-0.101-0.012-0.141-0.036c-0.04-0.024-0.075-0.06-0.105-0.108
		c-0.03-0.048-0.052-0.11-0.065-0.185c-0.014-0.075-0.02-0.158-0.02-0.249c0-0.15,0.011-0.27,0.035-0.357
		c0.023-0.087,0.08-0.17,0.17-0.249c0.09-0.078,0.246-0.17,0.467-0.275s0.475-0.202,0.763-0.289s0.602-0.16,0.943-0.217
		s0.686-0.086,1.034-0.086c0.649,0,1.201,0.066,1.656,0.199s0.823,0.327,1.104,0.583c0.281,0.256,0.485,0.574,0.612,0.954
		c0.127,0.379,0.191,0.822,0.191,1.328V86.487z M173.602,82.774h-1.416c-0.455,0-0.85,0.035-1.184,0.104
		c-0.335,0.069-0.612,0.172-0.833,0.308c-0.221,0.135-0.383,0.298-0.487,0.488c-0.104,0.189-0.156,0.408-0.156,0.655
		c0,0.422,0.149,0.758,0.447,1.008c0.297,0.25,0.714,0.375,1.25,0.375c0.435,0,0.838-0.1,1.209-0.298
		c0.372-0.199,0.761-0.503,1.169-0.913V82.774z"/>
	<path d="M183.569,78.879c0,0.133-0.004,0.244-0.01,0.334c-0.007,0.09-0.02,0.161-0.04,0.212s-0.045,0.09-0.075,0.117
		c-0.03,0.027-0.072,0.041-0.125,0.041c-0.054,0-0.119-0.014-0.196-0.041c-0.077-0.027-0.164-0.054-0.261-0.081
		c-0.097-0.027-0.206-0.053-0.326-0.077c-0.12-0.024-0.251-0.036-0.391-0.036c-0.167,0-0.332,0.03-0.492,0.09
		c-0.161,0.06-0.33,0.16-0.507,0.298c-0.177,0.139-0.363,0.322-0.557,0.551c-0.194,0.229-0.408,0.509-0.642,0.84v5.349
		c0,0.048-0.014,0.089-0.04,0.122c-0.027,0.033-0.07,0.062-0.131,0.086c-0.06,0.024-0.144,0.042-0.251,0.054
		c-0.107,0.012-0.244,0.018-0.411,0.018c-0.161,0-0.295-0.006-0.402-0.018s-0.192-0.03-0.256-0.054s-0.107-0.053-0.13-0.086
		c-0.023-0.033-0.035-0.074-0.035-0.122v-8.131c0-0.048,0.01-0.089,0.03-0.122s0.06-0.063,0.12-0.09
		c0.061-0.027,0.137-0.045,0.231-0.054c0.094-0.009,0.217-0.014,0.372-0.014c0.147,0,0.269,0.004,0.366,0.014
		c0.097,0.009,0.172,0.027,0.226,0.054c0.053,0.027,0.092,0.057,0.115,0.09s0.035,0.074,0.035,0.122v1.184
		c0.248-0.326,0.48-0.59,0.698-0.795c0.217-0.205,0.423-0.366,0.617-0.483c0.194-0.117,0.386-0.199,0.577-0.244
		c0.19-0.045,0.383-0.068,0.577-0.068c0.087,0,0.186,0.004,0.296,0.014c0.11,0.009,0.226,0.025,0.346,0.049
		c0.121,0.024,0.229,0.051,0.326,0.082c0.097,0.03,0.166,0.06,0.206,0.09s0.067,0.059,0.08,0.086
		c0.014,0.027,0.025,0.062,0.035,0.104c0.01,0.042,0.017,0.104,0.02,0.185C183.567,78.631,183.569,78.741,183.569,78.879z"/>
	<path d="M191.839,86.487c0,0.072-0.027,0.126-0.08,0.163c-0.054,0.036-0.127,0.063-0.221,0.082s-0.23,0.027-0.411,0.027
		c-0.174,0-0.313-0.009-0.417-0.027c-0.104-0.018-0.179-0.045-0.226-0.082s-0.07-0.09-0.07-0.163v-0.813
		c-0.395,0.379-0.835,0.674-1.32,0.885c-0.485,0.211-0.999,0.316-1.541,0.316c-0.476,0-0.905-0.056-1.29-0.167
		s-0.712-0.272-0.983-0.483c-0.271-0.21-0.482-0.47-0.632-0.777c-0.151-0.307-0.226-0.657-0.226-1.048
		c0-0.458,0.104-0.855,0.311-1.192s0.505-0.618,0.894-0.84c0.388-0.223,0.863-0.39,1.425-0.501s1.194-0.167,1.897-0.167h1.245
		v-0.633c0-0.313-0.037-0.59-0.11-0.831c-0.074-0.241-0.192-0.441-0.356-0.601c-0.164-0.159-0.376-0.28-0.637-0.361
		c-0.261-0.081-0.583-0.122-0.964-0.122c-0.408,0-0.774,0.044-1.099,0.131c-0.324,0.087-0.609,0.184-0.853,0.289
		s-0.448,0.202-0.612,0.289s-0.286,0.131-0.366,0.131c-0.054,0-0.101-0.012-0.141-0.036c-0.04-0.024-0.075-0.06-0.105-0.108
		c-0.03-0.048-0.052-0.11-0.065-0.185c-0.014-0.075-0.02-0.158-0.02-0.249c0-0.15,0.011-0.27,0.035-0.357
		c0.023-0.087,0.08-0.17,0.17-0.249c0.09-0.078,0.246-0.17,0.467-0.275s0.475-0.202,0.763-0.289s0.602-0.16,0.943-0.217
		s0.686-0.086,1.034-0.086c0.649,0,1.201,0.066,1.656,0.199s0.823,0.327,1.104,0.583c0.281,0.256,0.485,0.574,0.612,0.954
		c0.127,0.379,0.191,0.822,0.191,1.328V86.487z M190.193,82.774h-1.416c-0.455,0-0.85,0.035-1.184,0.104
		c-0.335,0.069-0.612,0.172-0.833,0.308c-0.221,0.135-0.383,0.298-0.487,0.488c-0.104,0.189-0.156,0.408-0.156,0.655
		c0,0.422,0.149,0.758,0.447,1.008c0.297,0.25,0.714,0.375,1.25,0.375c0.435,0,0.838-0.1,1.209-0.298
		c0.372-0.199,0.761-0.503,1.169-0.913V82.774z"/>
	<path d="M202.619,86.478c0,0.048-0.012,0.09-0.035,0.126s-0.064,0.065-0.121,0.086s-0.132,0.038-0.226,0.05
		c-0.094,0.012-0.208,0.018-0.341,0.018c-0.141,0-0.258-0.006-0.352-0.018s-0.17-0.029-0.231-0.05
		c-0.06-0.021-0.104-0.05-0.13-0.086s-0.04-0.078-0.04-0.126v-1.075c-0.475,0.464-0.969,0.826-1.48,1.084s-1.072,0.389-1.681,0.389
		c-0.663,0-1.228-0.116-1.696-0.348s-0.848-0.545-1.139-0.939s-0.504-0.858-0.638-1.392s-0.201-1.095-0.201-1.685
		c0-0.699,0.084-1.33,0.251-1.893c0.167-0.563,0.415-1.043,0.743-1.441c0.328-0.397,0.734-0.703,1.22-0.917
		c0.485-0.214,1.045-0.321,1.681-0.321c0.529,0,1.012,0.104,1.45,0.312c0.438,0.208,0.872,0.514,1.3,0.917v-4.725
		c0-0.042,0.012-0.083,0.035-0.122s0.069-0.069,0.136-0.09s0.152-0.039,0.256-0.054c0.104-0.015,0.236-0.022,0.396-0.022
		c0.167,0,0.304,0.007,0.412,0.022c0.107,0.015,0.19,0.033,0.251,0.054c0.06,0.021,0.105,0.051,0.135,0.09
		c0.03,0.039,0.045,0.08,0.045,0.122V86.478z M200.953,80.759c-0.448-0.5-0.881-0.881-1.3-1.143
		c-0.418-0.262-0.854-0.393-1.31-0.393c-0.421,0-0.78,0.091-1.074,0.271s-0.534,0.418-0.717,0.713
		c-0.184,0.295-0.318,0.63-0.402,1.003c-0.083,0.374-0.125,0.753-0.125,1.139c0,0.41,0.035,0.81,0.105,1.202
		s0.192,0.739,0.367,1.043c0.174,0.304,0.405,0.548,0.692,0.732c0.288,0.184,0.649,0.275,1.084,0.275
		c0.221,0,0.433-0.027,0.637-0.081s0.413-0.145,0.627-0.271c0.214-0.126,0.438-0.291,0.672-0.493
		c0.234-0.202,0.482-0.45,0.743-0.745V80.759z"/>
	<path d="M212.485,86.487c0,0.072-0.027,0.126-0.08,0.163c-0.054,0.036-0.127,0.063-0.221,0.082s-0.23,0.027-0.411,0.027
		c-0.174,0-0.313-0.009-0.417-0.027c-0.104-0.018-0.179-0.045-0.226-0.082s-0.07-0.09-0.07-0.163v-0.813
		c-0.395,0.379-0.835,0.674-1.32,0.885c-0.485,0.211-0.999,0.316-1.541,0.316c-0.476,0-0.905-0.056-1.29-0.167
		s-0.712-0.272-0.983-0.483c-0.271-0.21-0.482-0.47-0.632-0.777c-0.151-0.307-0.226-0.657-0.226-1.048
		c0-0.458,0.104-0.855,0.311-1.192s0.505-0.618,0.894-0.84c0.388-0.223,0.863-0.39,1.425-0.501s1.194-0.167,1.897-0.167h1.245
		v-0.633c0-0.313-0.037-0.59-0.11-0.831c-0.074-0.241-0.192-0.441-0.356-0.601c-0.164-0.159-0.376-0.28-0.637-0.361
		c-0.261-0.081-0.583-0.122-0.964-0.122c-0.408,0-0.774,0.044-1.099,0.131c-0.324,0.087-0.609,0.184-0.853,0.289
		s-0.448,0.202-0.612,0.289s-0.286,0.131-0.366,0.131c-0.054,0-0.101-0.012-0.141-0.036c-0.04-0.024-0.075-0.06-0.105-0.108
		c-0.03-0.048-0.052-0.11-0.065-0.185c-0.014-0.075-0.02-0.158-0.02-0.249c0-0.15,0.011-0.27,0.035-0.357
		c0.023-0.087,0.08-0.17,0.17-0.249c0.09-0.078,0.246-0.17,0.467-0.275s0.475-0.202,0.763-0.289s0.602-0.16,0.943-0.217
		s0.686-0.086,1.034-0.086c0.649,0,1.201,0.066,1.656,0.199s0.823,0.327,1.104,0.583c0.281,0.256,0.485,0.574,0.612,0.954
		c0.127,0.379,0.191,0.822,0.191,1.328V86.487z M210.839,82.774h-1.416c-0.455,0-0.85,0.035-1.184,0.104
		c-0.335,0.069-0.612,0.172-0.833,0.308c-0.221,0.135-0.383,0.298-0.487,0.488c-0.104,0.189-0.156,0.408-0.156,0.655
		c0,0.422,0.149,0.758,0.447,1.008c0.297,0.25,0.714,0.375,1.25,0.375c0.435,0,0.838-0.1,1.209-0.298
		c0.372-0.199,0.761-0.503,1.169-0.913V82.774z"/>
	<path d="M221.198,84.265c0,0.416-0.085,0.786-0.256,1.111s-0.413,0.6-0.728,0.822c-0.315,0.223-0.689,0.392-1.125,0.506
		s-0.913,0.172-1.435,0.172c-0.321,0-0.627-0.023-0.918-0.068c-0.291-0.045-0.552-0.103-0.783-0.172
		c-0.231-0.069-0.427-0.141-0.587-0.217c-0.161-0.075-0.278-0.143-0.351-0.203c-0.074-0.06-0.127-0.145-0.161-0.253
		c-0.034-0.108-0.05-0.256-0.05-0.443c0-0.114,0.007-0.211,0.02-0.289s0.03-0.142,0.05-0.19c0.02-0.048,0.048-0.083,0.085-0.104
		c0.037-0.021,0.079-0.031,0.125-0.031c0.073,0,0.182,0.041,0.326,0.122c0.144,0.082,0.321,0.17,0.532,0.267
		c0.211,0.097,0.46,0.186,0.748,0.267c0.288,0.082,0.619,0.122,0.994,0.122c0.281,0,0.535-0.027,0.763-0.082
		c0.228-0.054,0.425-0.134,0.592-0.239c0.167-0.105,0.296-0.239,0.386-0.402s0.136-0.355,0.136-0.579
		c0-0.229-0.065-0.421-0.196-0.578s-0.303-0.295-0.517-0.416s-0.455-0.228-0.723-0.321s-0.543-0.191-0.828-0.293
		c-0.284-0.103-0.562-0.218-0.833-0.348c-0.271-0.129-0.514-0.288-0.728-0.474c-0.214-0.187-0.387-0.41-0.517-0.669
		c-0.13-0.259-0.196-0.569-0.196-0.93c0-0.319,0.069-0.625,0.206-0.917c0.137-0.292,0.343-0.548,0.617-0.768
		c0.274-0.22,0.617-0.396,1.029-0.528s0.892-0.199,1.44-0.199c0.241,0,0.481,0.018,0.723,0.054c0.241,0.036,0.458,0.081,0.652,0.135
		c0.194,0.054,0.359,0.113,0.497,0.176c0.137,0.063,0.241,0.119,0.312,0.167c0.07,0.048,0.117,0.09,0.14,0.126
		s0.041,0.077,0.05,0.122c0.01,0.045,0.02,0.101,0.03,0.167c0.01,0.066,0.015,0.147,0.015,0.244c0,0.103-0.005,0.191-0.015,0.267
		c-0.01,0.076-0.027,0.137-0.05,0.186s-0.052,0.083-0.085,0.104c-0.033,0.021-0.07,0.032-0.11,0.032
		c-0.06,0-0.147-0.033-0.261-0.099s-0.261-0.137-0.442-0.212s-0.393-0.146-0.637-0.212s-0.523-0.1-0.838-0.1
		c-0.281,0-0.529,0.029-0.743,0.086c-0.214,0.058-0.39,0.139-0.527,0.244s-0.241,0.23-0.311,0.375s-0.105,0.301-0.105,0.47
		c0,0.235,0.067,0.432,0.201,0.592s0.308,0.3,0.522,0.42c0.214,0.121,0.458,0.229,0.733,0.326c0.274,0.096,0.554,0.196,0.838,0.298
		c0.284,0.103,0.565,0.217,0.843,0.343c0.277,0.126,0.523,0.28,0.738,0.461c0.214,0.181,0.386,0.397,0.517,0.65
		C221.133,83.614,221.198,83.916,221.198,84.265z"/>
	<path d="M225.705,85.719c0,0.428-0.079,0.712-0.236,0.854c-0.157,0.141-0.443,0.212-0.858,0.212c-0.401,0-0.679-0.069-0.833-0.208
		c-0.154-0.139-0.231-0.416-0.231-0.831c0-0.428,0.079-0.712,0.236-0.854s0.443-0.212,0.858-0.212c0.401,0,0.679,0.069,0.833,0.208
		C225.628,85.027,225.705,85.304,225.705,85.719z"/>
</g>
</svg>