<!-- Generator: Adobe Illustrator 22.0.0, SVG Export Plug-In  -->
<svg version="1.1"
	 xmlns="http://www.w3.org/2000/svg" xmlns:xlink="http://www.w3.org/1999/xlink" xmlns:a="http://ns.adobe.com/AdobeSVGViewerExtensions/3.0/"
	 x="0px" y="0px" width="158.433px" height="457.427px" viewBox="0 0 158.433 457.427"
	 style="overflow:scroll;enable-background:new 0 0 158.433 457.427;" xml:space="preserve">
<style type="text/css">
	.st0{fill:#C4BEBD;}
	.st1{fill:url(#SVGID_1_);}
	.st2{fill:url(#SVGID_2_);}
	.st3{fill:url(#SVGID_3_);}
	.st4{fill:url(#SVGID_4_);}
	.st5{fill:url(#SVGID_5_);}
	.st6{fill:url(#SVGID_6_);}
	.st7{fill:url(#SVGID_7_);}
	.st8{fill:#B43532;}
	.st9{fill:url(#SVGID_8_);}
	.st10{fill:#829C32;}
	.st11{fill:url(#SVGID_9_);}
	.st12{fill:url(#SVGID_10_);}
	.st13{fill:url(#SVGID_11_);}
	.st14{fill:url(#SVGID_12_);}
	.st15{fill:url(#SVGID_13_);}
	.st16{fill:url(#SVGID_14_);}
	.st17{fill:url(#SVGID_15_);}
	.st18{fill:url(#SVGID_16_);}
</style>
<defs>
</defs>
<g>
	<polygon class="st0" points="142.065,444.141 12.853,332.642 12.853,330.647 13.651,329.938 140.129,228.659 11.654,117.796 
		142.125,13.32 144.782,16.638 18.303,117.918 146.778,228.781 18.261,331.692 144.841,440.922 	"/>
	<radialGradient id="SVGID_1_" cx="143.4537" cy="14.9792" r="14.9792" gradientUnits="userSpaceOnUse">
		<stop  offset="0" style="stop-color:#E2DDDD"/>
		<stop  offset="0.559" style="stop-color:#E0DBDB"/>
		<stop  offset="0.7604" style="stop-color:#DAD5D5"/>
		<stop  offset="0.9034" style="stop-color:#CFCACA"/>
		<stop  offset="1" style="stop-color:#C4BEBD"/>
	</radialGradient>
	<circle class="st1" cx="143.454" cy="14.979" r="14.979"/>
	<linearGradient id="SVGID_2_" gradientUnits="userSpaceOnUse" x1="136.3894" y1="14.9792" x2="150.5178" y2="14.9792">
		<stop  offset="0" style="stop-color:#75B8DB"/>
		<stop  offset="1" style="stop-color:#396389"/>
	</linearGradient>
	<path class="st2" d="M150.518,14.979c0-3.901-3.163-7.064-7.064-7.064c-3.901,0-7.064,3.163-7.064,7.064s3.163,7.064,7.064,7.064
		C147.355,22.043,150.518,18.881,150.518,14.979z"/>
	<radialGradient id="SVGID_3_" cx="14.9792" cy="117.8568" r="15.3592" gradientUnits="userSpaceOnUse">
		<stop  offset="0" style="stop-color:#E2DDDD"/>
		<stop  offset="0.559" style="stop-color:#E0DBDB"/>
		<stop  offset="0.7604" style="stop-color:#DAD5D5"/>
		<stop  offset="0.9034" style="stop-color:#CFCACA"/>
		<stop  offset="1" style="stop-color:#C4BEBD"/>
	</radialGradient>
	<circle class="st3" cx="14.979" cy="117.857" r="14.979"/>
	<linearGradient id="SVGID_4_" gradientUnits="userSpaceOnUse" x1="7.9151" y1="117.8569" x2="22.0435" y2="117.8569">
		<stop  offset="0" style="stop-color:#DC9831"/>
		<stop  offset="1" style="stop-color:#E5C239"/>
	</linearGradient>
	<path class="st4" d="M22.043,117.857c0-3.901-3.163-7.064-7.064-7.064s-7.064,3.163-7.064,7.064s3.163,7.064,7.064,7.064
		S22.043,121.758,22.043,117.857z"/>
	<radialGradient id="SVGID_5_" cx="143.4537" cy="228.7197" r="14.9792" gradientUnits="userSpaceOnUse">
		<stop  offset="0" style="stop-color:#E2DDDD"/>
		<stop  offset="0.559" style="stop-color:#E0DBDB"/>
		<stop  offset="0.7604" style="stop-color:#DAD5D5"/>
		<stop  offset="0.9034" style="stop-color:#CFCACA"/>
		<stop  offset="1" style="stop-color:#C4BEBD"/>
	</radialGradient>
	<circle class="st5" cx="143.454" cy="228.72" r="14.979"/>
	<linearGradient id="SVGID_6_" gradientUnits="userSpaceOnUse" x1="136.3894" y1="228.7196" x2="150.5178" y2="228.7196">
		<stop  offset="0" style="stop-color:#9C4189"/>
		<stop  offset="1" style="stop-color:#621A56"/>
	</linearGradient>
	<path class="st6" d="M150.518,228.72c0-3.901-3.163-7.064-7.064-7.064c-3.901,0-7.064,3.163-7.064,7.064
		c0,3.901,3.163,7.064,7.064,7.064C147.355,235.784,150.518,232.621,150.518,228.72z"/>
	<radialGradient id="SVGID_7_" cx="143.4537" cy="442.4477" r="14.9792" gradientUnits="userSpaceOnUse">
		<stop  offset="0" style="stop-color:#E2DDDD"/>
		<stop  offset="0.559" style="stop-color:#E0DBDB"/>
		<stop  offset="0.7604" style="stop-color:#DAD5D5"/>
		<stop  offset="0.9034" style="stop-color:#CFCACA"/>
		<stop  offset="1" style="stop-color:#C4BEBD"/>
	</radialGradient>
	<circle class="st7" cx="143.454" cy="442.448" r="14.979"/>
	<path class="st8" d="M150.518,442.448c0-3.901-3.163-7.064-7.064-7.064c-3.901,0-7.064,3.163-7.064,7.064s3.163,7.064,7.064,7.064
		C147.355,449.512,150.518,446.349,150.518,442.448z"/>
	<radialGradient id="SVGID_8_" cx="14.9792" cy="331.5973" r="14.9792" gradientUnits="userSpaceOnUse">
		<stop  offset="0" style="stop-color:#E2DDDD"/>
		<stop  offset="0.559" style="stop-color:#E0DBDB"/>
		<stop  offset="0.7604" style="stop-color:#DAD5D5"/>
		<stop  offset="0.9034" style="stop-color:#CFCACA"/>
		<stop  offset="1" style="stop-color:#C4BEBD"/>
	</radialGradient>
	<circle class="st9" cx="14.979" cy="331.597" r="14.979"/>
	<path class="st10" d="M22.043,331.597c0-3.901-3.163-7.064-7.064-7.064s-7.064,3.163-7.064,7.064c0,3.901,3.163,7.064,7.064,7.064
		S22.043,335.499,22.043,331.597z"/>
</g>
</svg>