<!-- Generator: Adobe Illustrator 22.0.0, SVG Export Plug-In  -->
<svg version="1.1"
	 xmlns="http://www.w3.org/2000/svg" xmlns:xlink="http://www.w3.org/1999/xlink" xmlns:a="http://ns.adobe.com/AdobeSVGViewerExtensions/3.0/"
	 x="0px" y="0px" width="259.871px" height="259.871px" viewBox="0 0 259.871 259.871"
	 style="overflow:scroll;enable-background:new 0 0 259.871 259.871;" xml:space="preserve">
<style type="text/css">
	.st0{fill:#8CB929;}
	.st1{fill:url(#SVGID_1_);}
	.st2{fill:url(#SVGID_2_);}
	.st3{fill:url(#SVGID_3_);}
	.st4{fill:#BBD687;}
	.st5{fill:#4D4D4D;}
	.st6{fill:url(#SVGID_4_);}
	.st7{fill:url(#SVGID_5_);}
	.st8{fill:url(#SVGID_6_);}
	.st9{font-family:'ClarendonBT-Roman';}
	.st10{font-size:22.9496px;}
	.st11{letter-spacing:-1;}
</style>
<defs>
</defs>
<circle class="st0" cx="129.936" cy="129.936" r="129.936"/>
<linearGradient id="SVGID_1_" gradientUnits="userSpaceOnUse" x1="25.2477" y1="129.9356" x2="234.6236" y2="129.9356">
	<stop  offset="0" style="stop-color:#E1DBDB"/>
	<stop  offset="1" style="stop-color:#C2BCBC"/>
</linearGradient>
<circle class="st1" cx="129.936" cy="129.936" r="104.688"/>
<radialGradient id="SVGID_2_" cx="132.4898" cy="133.6996" r="113.1529" gradientUnits="userSpaceOnUse">
	<stop  offset="0.7955" style="stop-color:#FFFFFF"/>
	<stop  offset="0.8687" style="stop-color:#FDFDFD"/>
	<stop  offset="0.8974" style="stop-color:#F6F6F6"/>
	<stop  offset="0.9183" style="stop-color:#EAEAEA"/>
	<stop  offset="0.9354" style="stop-color:#D9D9D9"/>
	<stop  offset="0.9502" style="stop-color:#C3C2C2"/>
	<stop  offset="0.9633" style="stop-color:#A7A6A7"/>
	<stop  offset="0.9753" style="stop-color:#878586"/>
	<stop  offset="0.9864" style="stop-color:#615F5F"/>
	<stop  offset="0.9963" style="stop-color:#373535"/>
	<stop  offset="1" style="stop-color:#262324"/>
</radialGradient>
<circle class="st2" cx="129.936" cy="129.936" r="104.688"/>
<radialGradient id="SVGID_3_" cx="140.5794" cy="143.2544" r="78.5892" gradientUnits="userSpaceOnUse">
	<stop  offset="0" style="stop-color:#040006"/>
	<stop  offset="1" style="stop-color:#FFFFFF"/>
</radialGradient>
<circle class="st3" cx="140.579" cy="143.254" r="78.589"/>
<circle class="st4" cx="130.561" cy="132.091" r="85.362"/>
<g>
	<g>
		<path class="st5" d="M60.066,116.709c0,0.62,0.084,1.012,0.252,1.176c0.168,0.165,0.596,0.247,1.283,0.247h1.076v1.748h-8.258
			v-1.748h0.896c0.68,0,1.102-0.08,1.266-0.241c0.164-0.16,0.247-0.555,0.247-1.182v-9.065c0-0.628-0.083-1.021-0.247-1.183
			c-0.165-0.16-0.586-0.241-1.266-0.241h-0.896v-1.736h9.2c1.928,0,3.358,0.302,4.292,0.907c0.934,0.605,1.401,1.535,1.401,2.79
			c0,1.106-0.372,1.989-1.115,2.65s-1.84,1.078-3.289,1.25c1.099,0.164,1.866,0.476,2.303,0.936
			c0.437,0.459,0.693,1.257,0.768,2.393l0.101,1.378c0.038,0.538,0.104,0.889,0.202,1.054c0.097,0.164,0.258,0.246,0.482,0.246
			c0.448,0,0.688-0.841,0.717-2.521c0-0.029,0-0.052,0-0.067h1.457c0.015,0.098,0.024,0.2,0.028,0.309
			c0.003,0.108,0.005,0.264,0.005,0.465c0,1.412-0.256,2.443-0.768,3.093c-0.512,0.65-1.32,0.975-2.426,0.975
			c-0.912,0-1.625-0.25-2.141-0.75c-0.515-0.501-0.788-1.195-0.818-2.085l-0.067-1.804c-0.045-1.203-0.312-2.019-0.801-2.448
			s-1.417-0.645-2.785-0.645h-1.098V116.709z M60.066,110.86h2.712c1.091,0,1.89-0.186,2.398-0.555
			c0.508-0.37,0.762-0.958,0.762-1.765c0-0.83-0.243-1.424-0.729-1.782c-0.486-0.358-1.322-0.538-2.51-0.538h-2.633V110.86z"/>
		<path class="st5" d="M72.158,119.88v-1.748h0.896c0.68,0,1.102-0.08,1.266-0.241c0.164-0.16,0.247-0.555,0.247-1.182v-9.065
			c0-0.628-0.083-1.021-0.247-1.183c-0.165-0.16-0.586-0.241-1.266-0.241h-0.896v-1.736h15.15v6.129H85.56
			c-0.044-1.755-0.331-2.926-0.857-3.513c-0.527-0.586-1.593-0.88-3.199-0.88h-3.698v4.729h0.874c0.964,0,1.595-0.167,1.894-0.499
			s0.485-1.097,0.56-2.292l1.748-0.011v7.721l-1.748-0.011c-0.067-1.322-0.25-2.176-0.549-2.561
			c-0.299-0.385-0.927-0.577-1.883-0.577h-0.896v5.412h4.034c1.345,0,2.267-0.312,2.768-0.936c0.5-0.624,0.818-1.903,0.952-3.838
			h1.748v6.521H72.158z"/>
		<path class="st5" d="M102.111,113.918h1.972c-0.149,2.048-0.779,3.629-1.888,4.746s-2.609,1.675-4.499,1.675
			c-1.128,0-2.148-0.175-3.06-0.526c-0.911-0.351-1.726-0.889-2.443-1.613c-0.792-0.784-1.391-1.69-1.798-2.718
			s-0.611-2.131-0.611-3.312c0-1.188,0.198-2.276,0.594-3.267c0.396-0.989,0.993-1.884,1.793-2.684
			c0.724-0.725,1.535-1.271,2.432-1.642s1.86-0.555,2.891-0.555c0.821,0,1.597,0.129,2.325,0.387
			c0.728,0.258,1.443,0.655,2.146,1.193l0.459-1.378h1.659v6.309h-1.771c-0.179-1.472-0.652-2.611-1.417-3.418
			c-0.766-0.807-1.754-1.21-2.964-1.21c-1.412,0-2.52,0.564-3.323,1.692s-1.205,2.689-1.205,4.684c0,1.897,0.399,3.363,1.199,4.398
			c0.799,1.035,1.923,1.552,3.373,1.552c1.128,0,2.043-0.367,2.746-1.104C101.423,116.394,101.887,115.323,102.111,113.918z"/>
		<path class="st5" d="M106.033,112.17c0-2.435,0.779-4.398,2.336-5.889s3.606-2.235,6.146-2.235c2.547,0,4.596,0.745,6.146,2.235
			s2.325,3.454,2.325,5.889c0,2.443-0.777,4.412-2.331,5.906c-1.554,1.494-3.601,2.241-6.141,2.241s-4.589-0.749-6.146-2.247
			S106.033,114.606,106.033,112.17z M109.652,112.17c0,1.987,0.43,3.536,1.289,4.646s2.051,1.664,3.575,1.664
			s2.714-0.553,3.569-1.659c0.855-1.105,1.283-2.655,1.283-4.65c0-1.986-0.426-3.531-1.277-4.633
			c-0.852-1.103-2.043-1.653-3.575-1.653c-1.524,0-2.716,0.551-3.575,1.653C110.082,108.639,109.652,110.184,109.652,112.17z"/>
		<path class="st5" d="M129.991,116.709c0,0.62,0.084,1.012,0.252,1.176c0.168,0.165,0.596,0.247,1.283,0.247h1.076v1.748h-8.258
			v-1.748h0.896c0.68,0,1.102-0.08,1.266-0.241c0.164-0.16,0.247-0.555,0.247-1.182v-9.065c0-0.628-0.083-1.021-0.247-1.183
			c-0.165-0.16-0.586-0.241-1.266-0.241h-0.896v-1.736h9.2c1.928,0,3.358,0.302,4.292,0.907c0.934,0.605,1.401,1.535,1.401,2.79
			c0,1.106-0.372,1.989-1.115,2.65s-1.84,1.078-3.289,1.25c1.099,0.164,1.866,0.476,2.303,0.936
			c0.437,0.459,0.693,1.257,0.768,2.393l0.101,1.378c0.038,0.538,0.104,0.889,0.202,1.054c0.097,0.164,0.258,0.246,0.482,0.246
			c0.448,0,0.688-0.841,0.717-2.521c0-0.029,0-0.052,0-0.067h1.457c0.015,0.098,0.024,0.2,0.028,0.309
			c0.003,0.108,0.005,0.264,0.005,0.465c0,1.412-0.256,2.443-0.768,3.093c-0.512,0.65-1.32,0.975-2.426,0.975
			c-0.912,0-1.625-0.25-2.141-0.75c-0.515-0.501-0.788-1.195-0.818-2.085l-0.067-1.804c-0.045-1.203-0.312-2.019-0.801-2.448
			s-1.417-0.645-2.785-0.645h-1.098V116.709z M129.991,110.86h2.712c1.091,0,1.89-0.186,2.398-0.555
			c0.508-0.37,0.762-0.958,0.762-1.765c0-0.83-0.243-1.424-0.729-1.782c-0.486-0.358-1.322-0.538-2.51-0.538h-2.633V110.86z"/>
		<path class="st5" d="M147.73,116.709c0,0.62,0.084,1.012,0.252,1.176c0.168,0.165,0.596,0.247,1.283,0.247h1.076v1.748h-8.258
			v-1.748h0.896c0.68,0,1.102-0.08,1.266-0.241c0.164-0.16,0.247-0.555,0.247-1.182v-9.065c0-0.628-0.083-1.021-0.247-1.183
			c-0.165-0.16-0.586-0.241-1.266-0.241h-0.896v-1.736h9.2c1.928,0,3.358,0.302,4.292,0.907c0.934,0.605,1.401,1.535,1.401,2.79
			c0,1.106-0.372,1.989-1.115,2.65s-1.84,1.078-3.289,1.25c1.099,0.164,1.866,0.476,2.303,0.936
			c0.437,0.459,0.693,1.257,0.768,2.393l0.101,1.378c0.038,0.538,0.104,0.889,0.202,1.054c0.097,0.164,0.258,0.246,0.482,0.246
			c0.448,0,0.688-0.841,0.717-2.521c0-0.029,0-0.052,0-0.067h1.457c0.015,0.098,0.024,0.2,0.028,0.309
			c0.003,0.108,0.005,0.264,0.005,0.465c0,1.412-0.256,2.443-0.768,3.093c-0.512,0.65-1.32,0.975-2.426,0.975
			c-0.912,0-1.625-0.25-2.141-0.75c-0.515-0.501-0.788-1.195-0.818-2.085l-0.067-1.804c-0.045-1.203-0.312-2.019-0.801-2.448
			s-1.417-0.645-2.785-0.645h-1.098V116.709z M147.73,110.86h2.712c1.091,0,1.89-0.186,2.398-0.555
			c0.508-0.37,0.762-0.958,0.762-1.765c0-0.83-0.243-1.424-0.729-1.782c-0.486-0.358-1.322-0.538-2.51-0.538h-2.633V110.86z"/>
		<path class="st5" d="M159.866,119.88v-1.748h0.986c0.68,0,1.102-0.08,1.266-0.241c0.165-0.16,0.247-0.555,0.247-1.182v-9.065
			c0-0.628-0.082-1.021-0.247-1.183c-0.164-0.16-0.586-0.241-1.266-0.241h-0.986v-1.736h8.315v1.736h-0.986
			c-0.687,0-1.113,0.081-1.277,0.241c-0.164,0.161-0.247,0.555-0.247,1.183v9.065c0,0.627,0.083,1.021,0.247,1.182
			c0.165,0.161,0.59,0.241,1.277,0.241h0.986v1.748H159.866z"/>
		<path class="st5" d="M169.279,119.88v-1.748h0.896c0.68,0,1.102-0.08,1.266-0.241c0.164-0.16,0.247-0.555,0.247-1.182v-9.065
			c0-0.628-0.083-1.021-0.247-1.183c-0.165-0.16-0.586-0.241-1.266-0.241h-0.896v-1.736h8.74c2.689,0,4.724,0.649,6.102,1.949
			c1.378,1.3,2.068,3.213,2.068,5.737c0,2.525-0.691,4.441-2.073,5.749c-1.382,1.308-3.414,1.961-6.096,1.961H169.279z
			 M174.926,118.132h2.017c1.203,0,2.103-0.094,2.701-0.28s1.113-0.504,1.546-0.952s0.775-1.091,1.025-1.928
			c0.25-0.837,0.375-1.771,0.375-2.802c0-1.03-0.125-1.961-0.375-2.79c-0.25-0.829-0.592-1.468-1.025-1.916
			s-0.949-0.768-1.546-0.958s-1.498-0.286-2.701-0.286h-2.017V118.132z"/>
		<path class="st5" d="M188.194,112.17c0-2.435,0.779-4.398,2.336-5.889s3.606-2.235,6.146-2.235c2.547,0,4.596,0.745,6.146,2.235
			s2.325,3.454,2.325,5.889c0,2.443-0.777,4.412-2.331,5.906c-1.554,1.494-3.601,2.241-6.141,2.241s-4.589-0.749-6.146-2.247
			S188.194,114.606,188.194,112.17z M191.814,112.17c0,1.987,0.43,3.536,1.289,4.646s2.051,1.664,3.575,1.664
			s2.714-0.553,3.569-1.659c0.855-1.105,1.283-2.655,1.283-4.65c0-1.986-0.426-3.531-1.277-4.633
			c-0.852-1.103-2.043-1.653-3.575-1.653c-1.524,0-2.716,0.551-3.575,1.653C192.244,108.639,191.814,110.184,191.814,112.17z"/>
		<path class="st5" d="M104.532,147.419v-1.748h0.896c0.68,0,1.102-0.08,1.266-0.241c0.164-0.16,0.247-0.555,0.247-1.182v-9.065
			c0-0.628-0.083-1.021-0.247-1.183c-0.165-0.16-0.586-0.241-1.266-0.241h-0.896v-1.736h8.74c2.689,0,4.724,0.649,6.102,1.949
			c1.378,1.3,2.068,3.213,2.068,5.737c0,2.525-0.691,4.441-2.073,5.749c-1.382,1.308-3.414,1.961-6.096,1.961H104.532z
			 M110.179,145.671h2.017c1.203,0,2.103-0.094,2.701-0.28s1.113-0.504,1.546-0.952s0.775-1.091,1.025-1.928
			c0.25-0.837,0.375-1.771,0.375-2.802c0-1.03-0.125-1.961-0.375-2.79c-0.25-0.829-0.592-1.468-1.025-1.916
			s-0.949-0.768-1.546-0.958s-1.498-0.286-2.701-0.286h-2.017V145.671z"/>
		<path class="st5" d="M123.145,147.419v-1.748h0.896c0.68,0,1.102-0.08,1.266-0.241c0.164-0.16,0.247-0.555,0.247-1.182v-9.065
			c0-0.628-0.083-1.021-0.247-1.183c-0.165-0.16-0.586-0.241-1.266-0.241h-0.896v-1.736h15.15v6.129h-1.748
			c-0.044-1.755-0.331-2.926-0.857-3.513c-0.527-0.586-1.593-0.88-3.199-0.88h-3.698v4.729h0.874c0.964,0,1.595-0.167,1.894-0.499
			s0.485-1.097,0.56-2.292l1.748-0.011v7.721l-1.748-0.011c-0.067-1.322-0.25-2.176-0.549-2.561
			c-0.299-0.385-0.927-0.577-1.883-0.577h-0.896v5.412h4.034c1.345,0,2.267-0.312,2.768-0.936c0.5-0.624,0.818-1.903,0.952-3.838
			h1.748v6.521H123.145z"/>
		<path class="st5" d="M140.469,132.023h8.258v1.736h-1.076c-0.687,0-1.115,0.082-1.283,0.247c-0.168,0.164-0.252,0.557-0.252,1.177
			v10.488h2.869c1.023,0,1.789-0.088,2.297-0.264c0.508-0.175,0.874-0.469,1.098-0.879c0.217-0.396,0.377-0.878,0.482-1.446
			c0.104-0.567,0.157-1.247,0.157-2.039v-0.28h1.771v6.656h-14.321v-1.748h0.896c0.68,0,1.102-0.08,1.266-0.241
			c0.164-0.16,0.247-0.555,0.247-1.182v-9.065c0-0.628-0.083-1.021-0.247-1.183c-0.165-0.16-0.586-0.241-1.266-0.241h-0.896V132.023
			z"/>
		<path class="st5" d="M73.429,171.788c0,0.62,0.084,1.012,0.252,1.176c0.168,0.165,0.596,0.247,1.283,0.247h1.076v1.748h-8.258
			v-1.748h0.896c0.68,0,1.102-0.08,1.266-0.241c0.164-0.16,0.247-0.555,0.247-1.182v-9.065c0-0.628-0.083-1.021-0.247-1.183
			c-0.165-0.16-0.586-0.241-1.266-0.241h-0.896v-1.736h8.102c2.077,0,3.644,0.354,4.701,1.064c1.057,0.71,1.585,1.763,1.585,3.16
			c0,0.762-0.144,1.427-0.432,1.994c-0.288,0.568-0.723,1.05-1.305,1.445c-0.418,0.276-1.001,0.475-1.748,0.595
			c-0.747,0.119-1.79,0.179-3.126,0.179h-2.129V171.788z M73.429,166.264h1.535c1.412,0,2.404-0.189,2.975-0.566
			c0.572-0.377,0.857-1.014,0.857-1.91c0-0.919-0.274-1.563-0.824-1.934c-0.549-0.369-1.612-0.555-3.188-0.555h-1.356V166.264z"/>
		<path class="st5" d="M80.982,174.959v-1.748h0.482c0.583,0,1.018-0.103,1.306-0.309c0.288-0.205,0.536-0.6,0.745-1.182
			l4.292-12.158h3.227l4.595,12.158c0.261,0.71,0.502,1.136,0.723,1.277c0.22,0.142,0.6,0.213,1.137,0.213h0.459v1.748h-7.967
			v-1.748h1.244c0.5,0,0.839-0.043,1.014-0.129c0.176-0.086,0.264-0.241,0.264-0.465c0-0.082-0.013-0.176-0.04-0.28
			c-0.026-0.104-0.08-0.262-0.162-0.471l-0.661-1.815h-5.077l-0.661,1.938c-0.015,0.053-0.041,0.131-0.078,0.235
			c-0.075,0.217-0.112,0.37-0.112,0.46c0,0.201,0.073,0.34,0.219,0.414c0.146,0.075,0.487,0.112,1.025,0.112h1.188v1.748H80.982z
			 M91.011,168.235l-1.995-5.322l-1.815,5.322H91.011z"/>
		<path class="st5" d="M110.991,168.997h1.972c-0.149,2.048-0.779,3.629-1.888,4.746s-2.609,1.675-4.499,1.675
			c-1.128,0-2.148-0.175-3.06-0.526c-0.911-0.351-1.726-0.889-2.443-1.613c-0.792-0.784-1.391-1.69-1.798-2.718
			s-0.611-2.131-0.611-3.312c0-1.188,0.198-2.276,0.594-3.267c0.396-0.989,0.993-1.884,1.793-2.684
			c0.724-0.725,1.535-1.271,2.432-1.642s1.86-0.555,2.891-0.555c0.821,0,1.597,0.129,2.325,0.387
			c0.728,0.258,1.443,0.655,2.146,1.193l0.459-1.378h1.659v6.309h-1.771c-0.179-1.472-0.652-2.611-1.417-3.418
			c-0.766-0.807-1.754-1.21-2.964-1.21c-1.412,0-2.52,0.564-3.323,1.692s-1.205,2.689-1.205,4.684c0,1.897,0.399,3.363,1.199,4.398
			c0.799,1.035,1.923,1.552,3.373,1.552c1.128,0,2.043-0.367,2.746-1.104C110.304,171.473,110.767,170.402,110.991,168.997z"/>
		<path class="st5" d="M114.655,174.959v-1.748h0.986c0.68,0,1.102-0.08,1.266-0.241c0.165-0.16,0.247-0.555,0.247-1.182v-9.065
			c0-0.628-0.082-1.021-0.247-1.183c-0.164-0.16-0.586-0.241-1.266-0.241h-0.986v-1.736h8.315v1.736h-0.986
			c-0.687,0-1.113,0.081-1.277,0.241c-0.164,0.161-0.247,0.555-0.247,1.183v9.065c0,0.627,0.083,1.021,0.247,1.182
			c0.165,0.161,0.59,0.241,1.277,0.241h0.986v1.748H114.655z"/>
		<path class="st5" d="M124.069,174.959v-1.748h0.896c0.68,0,1.102-0.08,1.266-0.241c0.164-0.16,0.247-0.555,0.247-1.182v-9.065
			c0-0.628-0.083-1.021-0.247-1.183c-0.165-0.16-0.586-0.241-1.266-0.241h-0.896v-1.736h15.15v6.129h-1.748
			c-0.044-1.755-0.331-2.926-0.857-3.513c-0.527-0.586-1.593-0.88-3.199-0.88h-3.698v4.729h0.874c0.964,0,1.595-0.167,1.894-0.499
			s0.485-1.097,0.56-2.292l1.748-0.011v7.721l-1.748-0.011c-0.067-1.322-0.25-2.176-0.549-2.561
			c-0.299-0.385-0.927-0.577-1.883-0.577h-0.896v5.412h4.034c1.345,0,2.267-0.312,2.768-0.936c0.5-0.624,0.818-1.903,0.952-3.838
			h1.748v6.521H124.069z"/>
		<path class="st5" d="M157.047,174.959h-3.245l-7.658-12.551v9.38c0,0.627,0.082,1.021,0.247,1.182
			c0.165,0.161,0.586,0.241,1.266,0.241h1.054v1.748h-7.564v-1.748h1.076c0.68,0,1.102-0.08,1.266-0.241
			c0.165-0.16,0.247-0.555,0.247-1.182v-9.065c0-0.628-0.082-1.021-0.247-1.183c-0.165-0.16-0.586-0.241-1.266-0.241h-0.986v-1.736
			h6.589l6.813,11.172v-8.012c0-0.628-0.082-1.021-0.247-1.183c-0.165-0.16-0.586-0.241-1.266-0.241h-1.087v-1.736h7.284v1.736
			h-0.74c-0.687,0-1.115,0.082-1.283,0.247c-0.168,0.164-0.252,0.557-0.252,1.177V174.959z"/>
		<path class="st5" d="M165.877,161.254h-0.302c-1.233,0-2.129,0.368-2.689,1.104c-0.561,0.735-0.852,1.929-0.874,3.58h-1.759
			v-6.376h14.5v6.376h-1.759c-0.015-1.629-0.302-2.816-0.863-3.563c-0.56-0.747-1.453-1.121-2.678-1.121h-0.336v10.534
			c0,0.62,0.084,1.012,0.252,1.176c0.168,0.165,0.596,0.247,1.283,0.247h1.311v1.748h-8.931v-1.748h1.333
			c0.68,0,1.102-0.08,1.266-0.241c0.165-0.16,0.247-0.555,0.247-1.182V161.254z"/>
		<path class="st5" d="M175.817,174.959v-1.748h0.896c0.68,0,1.102-0.08,1.266-0.241c0.164-0.16,0.247-0.555,0.247-1.182v-9.065
			c0-0.628-0.083-1.021-0.247-1.183c-0.165-0.16-0.586-0.241-1.266-0.241h-0.896v-1.736h15.15v6.129h-1.748
			c-0.044-1.755-0.331-2.926-0.857-3.513c-0.527-0.586-1.593-0.88-3.199-0.88h-3.698v4.729h0.874c0.964,0,1.595-0.167,1.894-0.499
			s0.485-1.097,0.56-2.292l1.748-0.011v7.721l-1.748-0.011c-0.067-1.322-0.25-2.176-0.549-2.561
			c-0.299-0.385-0.927-0.577-1.883-0.577h-0.896v5.412h4.034c1.345,0,2.267-0.312,2.768-0.936c0.5-0.624,0.818-1.903,0.952-3.838
			h1.748v6.521H175.817z"/>
	</g>
</g>
</svg>