<!-- Generator: Adobe Illustrator 22.0.0, SVG Export Plug-In  -->
<svg version="1.1"
	 xmlns="http://www.w3.org/2000/svg" xmlns:xlink="http://www.w3.org/1999/xlink" xmlns:a="http://ns.adobe.com/AdobeSVGViewerExtensions/3.0/"
	 x="0px" y="0px" width="248.753px" height="102.356px" viewBox="0 0 248.753 102.356"
	 style="overflow:scroll;enable-background:new 0 0 248.753 102.356;" xml:space="preserve">
<style type="text/css">
	.st0{fill-rule:evenodd;clip-rule:evenodd;fill:url(#SVGID_1_);}
	.st1{fill-rule:evenodd;clip-rule:evenodd;fill:#FFFFFF;stroke:#A01127;stroke-miterlimit:10;}
	.st2{fill-rule:evenodd;clip-rule:evenodd;fill:url(#SVGID_2_);}
	.st3{font-family:'Calibri';}
	.st4{font-size:20px;}
	.st5{letter-spacing:-1;}
</style>
<defs>
</defs>
<linearGradient id="SVGID_1_" gradientUnits="userSpaceOnUse" x1="7.5" y1="47.3413" x2="248.7527" y2="47.3413">
	<stop  offset="0" style="stop-color:#BD4B49"/>
	<stop  offset="1" style="stop-color:#B43532"/>
</linearGradient>
<rect x="7.5" class="st0" width="241.253" height="94.683"/>
<rect x="0.5" y="16.162" class="st1" width="230.02" height="85.694"/>
<g>
	<path d="M24.616,41.559c0,0.117-0.006,0.22-0.02,0.308s-0.036,0.161-0.068,0.22s-0.07,0.101-0.112,0.127s-0.089,0.039-0.142,0.039
		H18.21c-0.15,0-0.292-0.05-0.425-0.151s-0.2-0.278-0.2-0.532v-11.27c0-0.254,0.067-0.431,0.2-0.532s0.275-0.151,0.425-0.151h5.996
		c0.052,0,0.099,0.013,0.142,0.039s0.077,0.068,0.103,0.127s0.047,0.132,0.063,0.22s0.024,0.197,0.024,0.327
		c0,0.117-0.008,0.22-0.024,0.308s-0.038,0.16-0.063,0.215s-0.06,0.096-0.103,0.122s-0.089,0.039-0.142,0.039h-4.941v3.965h4.238
		c0.052,0,0.099,0.015,0.142,0.044s0.078,0.07,0.107,0.122s0.05,0.124,0.063,0.215s0.02,0.199,0.02,0.322
		c0,0.117-0.006,0.218-0.02,0.303s-0.034,0.153-0.063,0.205s-0.065,0.089-0.107,0.112s-0.089,0.034-0.142,0.034h-4.238v4.521h5.01
		c0.052,0,0.099,0.013,0.142,0.039s0.08,0.067,0.112,0.122s0.055,0.127,0.068,0.215S24.616,41.428,24.616,41.559z"/>
	<path d="M36.902,41.559c0,0.13-0.022,0.241-0.065,0.332c-0.044,0.091-0.101,0.166-0.172,0.225s-0.15,0.101-0.237,0.127
		c-0.088,0.026-0.175,0.039-0.263,0.039h-0.556c-0.175,0-0.328-0.018-0.459-0.054s-0.256-0.101-0.374-0.195
		s-0.236-0.223-0.354-0.386s-0.243-0.371-0.375-0.625l-3.855-7.188c-0.202-0.371-0.405-0.76-0.609-1.167
		c-0.205-0.407-0.396-0.802-0.572-1.187h-0.02c0.013,0.469,0.023,0.947,0.029,1.436s0.01,0.973,0.01,1.455v7.627
		c0,0.045-0.014,0.089-0.041,0.132c-0.028,0.042-0.074,0.075-0.139,0.098c-0.065,0.023-0.151,0.042-0.258,0.059
		s-0.242,0.024-0.407,0.024c-0.165,0-0.3-0.008-0.407-0.024s-0.191-0.036-0.252-0.059c-0.062-0.023-0.106-0.055-0.134-0.098
		c-0.027-0.042-0.041-0.086-0.041-0.132v-11.66c0-0.26,0.074-0.446,0.222-0.557s0.309-0.166,0.484-0.166h0.827
		c0.195,0,0.357,0.016,0.489,0.049c0.131,0.033,0.249,0.086,0.353,0.161s0.205,0.179,0.303,0.313
		c0.097,0.133,0.199,0.301,0.307,0.503l2.963,5.547c0.183,0.338,0.358,0.669,0.529,0.991c0.169,0.322,0.333,0.64,0.491,0.952
		c0.157,0.313,0.313,0.62,0.467,0.923c0.154,0.303,0.307,0.607,0.458,0.913h0.01c-0.013-0.514-0.021-1.05-0.024-1.606
		s-0.005-1.092-0.005-1.606v-6.855c0-0.045,0.014-0.088,0.041-0.127c0.028-0.039,0.074-0.073,0.139-0.103s0.151-0.05,0.258-0.063
		s0.246-0.02,0.417-0.02c0.151,0,0.281,0.006,0.391,0.02s0.196,0.034,0.258,0.063s0.106,0.063,0.134,0.103
		c0.027,0.039,0.041,0.082,0.041,0.127V41.559z"/>
	<path d="M47.048,38.707c0,0.592-0.109,1.12-0.327,1.582s-0.521,0.854-0.908,1.177s-0.843,0.565-1.367,0.728
		s-1.089,0.244-1.694,0.244c-0.423,0-0.815-0.036-1.177-0.107s-0.684-0.16-0.967-0.264s-0.521-0.211-0.713-0.322
		s-0.326-0.205-0.4-0.283s-0.13-0.177-0.166-0.298s-0.054-0.282-0.054-0.483c0-0.143,0.006-0.262,0.02-0.356
		s0.033-0.171,0.059-0.229s0.059-0.099,0.098-0.122s0.084-0.034,0.137-0.034c0.091,0,0.22,0.055,0.386,0.166s0.379,0.231,0.64,0.361
		s0.575,0.252,0.942,0.366s0.792,0.171,1.274,0.171c0.365,0,0.698-0.049,1.001-0.146s0.563-0.236,0.781-0.415
		s0.386-0.399,0.503-0.659s0.176-0.557,0.176-0.889c0-0.358-0.082-0.664-0.244-0.918s-0.377-0.477-0.645-0.669
		s-0.571-0.368-0.913-0.527s-0.692-0.322-1.05-0.488s-0.707-0.35-1.045-0.552s-0.641-0.439-0.908-0.713s-0.483-0.594-0.649-0.962
		s-0.249-0.809-0.249-1.323c0-0.527,0.096-0.998,0.288-1.411s0.459-0.76,0.801-1.04s0.749-0.493,1.221-0.64s0.981-0.22,1.528-0.22
		c0.28,0,0.562,0.024,0.845,0.073s0.55,0.114,0.801,0.195s0.474,0.172,0.669,0.273s0.324,0.182,0.386,0.244s0.103,0.111,0.122,0.146
		s0.036,0.082,0.049,0.137s0.023,0.122,0.029,0.2s0.01,0.179,0.01,0.303c0,0.117-0.005,0.221-0.015,0.313s-0.024,0.167-0.044,0.229
		s-0.047,0.107-0.083,0.137s-0.077,0.044-0.122,0.044c-0.072,0-0.184-0.045-0.337-0.137s-0.34-0.194-0.562-0.308
		s-0.483-0.218-0.786-0.313s-0.643-0.142-1.021-0.142c-0.352,0-0.658,0.047-0.918,0.142s-0.475,0.22-0.645,0.376
		s-0.296,0.342-0.381,0.557c-0.084,0.215-0.127,0.443-0.127,0.684c0,0.352,0.082,0.654,0.244,0.908s0.379,0.479,0.649,0.674
		s0.578,0.375,0.923,0.537s0.697,0.327,1.055,0.493s0.709,0.348,1.055,0.547s0.653,0.433,0.923,0.703s0.488,0.589,0.654,0.957
		S47.048,38.206,47.048,38.707z"/>
	<path d="M58.767,41.656c0.052,0.143,0.08,0.259,0.083,0.347s-0.021,0.155-0.073,0.2s-0.138,0.075-0.259,0.088
		s-0.282,0.02-0.483,0.02s-0.363-0.005-0.483-0.015s-0.211-0.026-0.273-0.049s-0.107-0.054-0.137-0.093s-0.057-0.088-0.083-0.146
		l-1.084-3.076H50.72l-1.035,3.037c-0.02,0.059-0.045,0.109-0.078,0.151s-0.08,0.078-0.142,0.107s-0.15,0.05-0.264,0.063
		s-0.262,0.02-0.444,0.02c-0.189,0-0.343-0.008-0.464-0.024s-0.205-0.047-0.254-0.093s-0.072-0.112-0.068-0.2
		s0.031-0.204,0.083-0.347l4.238-11.738c0.026-0.072,0.06-0.13,0.103-0.176s0.104-0.082,0.186-0.107s0.186-0.044,0.313-0.054
		s0.288-0.015,0.483-0.015c0.208,0,0.381,0.005,0.518,0.015s0.248,0.028,0.332,0.054s0.15,0.063,0.195,0.112
		s0.082,0.109,0.107,0.181L58.767,41.656z M53.327,31.295h-0.01l-2.178,6.299h4.395L53.327,31.295z"/>
	<path d="M74.616,41.998c0,0.052-0.014,0.098-0.04,0.137c-0.027,0.039-0.074,0.07-0.141,0.093c-0.067,0.023-0.152,0.042-0.256,0.059
		s-0.24,0.024-0.407,0.024c-0.154,0-0.287-0.008-0.397-0.024c-0.111-0.016-0.198-0.036-0.262-0.059
		c-0.063-0.023-0.109-0.054-0.136-0.093s-0.04-0.084-0.04-0.137V30.992h-0.02l-4.453,11.055c-0.02,0.045-0.047,0.084-0.083,0.117
		s-0.088,0.06-0.156,0.083s-0.15,0.039-0.244,0.049s-0.207,0.015-0.337,0.015c-0.137,0-0.254-0.006-0.352-0.02
		s-0.179-0.031-0.244-0.054s-0.116-0.05-0.151-0.083s-0.06-0.068-0.073-0.107l-4.258-11.055h-0.01v11.006
		c0,0.052-0.014,0.098-0.04,0.137c-0.027,0.039-0.074,0.07-0.141,0.093c-0.067,0.023-0.154,0.042-0.262,0.059
		c-0.107,0.016-0.245,0.024-0.412,0.024c-0.161,0-0.295-0.008-0.402-0.024s-0.193-0.036-0.256-0.059
		c-0.064-0.023-0.107-0.054-0.131-0.093s-0.035-0.084-0.035-0.137V30.377c0-0.273,0.073-0.469,0.218-0.586
		c0.145-0.117,0.307-0.176,0.486-0.176h1.031c0.211,0,0.396,0.02,0.555,0.059s0.297,0.101,0.417,0.186s0.218,0.192,0.297,0.322
		c0.08,0.13,0.149,0.283,0.208,0.459l3.613,9.15h0.049l3.76-9.121c0.073-0.195,0.152-0.361,0.238-0.498
		c0.086-0.137,0.18-0.246,0.283-0.327s0.216-0.14,0.342-0.176c0.125-0.036,0.271-0.054,0.437-0.054h1.082
		c0.099,0,0.193,0.015,0.283,0.044c0.089,0.029,0.165,0.075,0.228,0.137s0.114,0.14,0.154,0.234s0.06,0.21,0.06,0.347V41.998z"/>
	<path d="M86.306,38.629c0,0.397-0.05,0.763-0.151,1.099s-0.243,0.636-0.425,0.903s-0.402,0.501-0.659,0.703
		s-0.547,0.371-0.869,0.508s-0.667,0.239-1.035,0.308s-0.79,0.103-1.265,0.103h-3.301c-0.15,0-0.292-0.05-0.425-0.151
		s-0.2-0.278-0.2-0.532v-11.27c0-0.254,0.067-0.431,0.2-0.532s0.275-0.151,0.425-0.151h2.871c0.755,0,1.374,0.072,1.855,0.215
		s0.884,0.352,1.206,0.625s0.565,0.609,0.728,1.006s0.244,0.846,0.244,1.348c0,0.299-0.036,0.586-0.107,0.859
		s-0.177,0.526-0.317,0.757s-0.316,0.438-0.527,0.62s-0.454,0.332-0.728,0.449c0.345,0.065,0.667,0.184,0.967,0.356
		s0.562,0.392,0.786,0.659s0.402,0.58,0.532,0.938S86.306,38.199,86.306,38.629z M83.777,32.975c0-0.306-0.042-0.583-0.126-0.83
		c-0.084-0.248-0.218-0.458-0.4-0.63c-0.182-0.172-0.419-0.304-0.711-0.396c-0.292-0.091-0.679-0.137-1.159-0.137h-1.734v4.092h1.91
		c0.435,0,0.786-0.057,1.052-0.171c0.266-0.114,0.487-0.267,0.662-0.459c0.176-0.192,0.304-0.417,0.385-0.674
		C83.736,33.513,83.777,33.248,83.777,32.975z M84.538,38.727c0-0.377-0.06-0.709-0.18-0.996c-0.121-0.287-0.296-0.527-0.526-0.723
		c-0.231-0.195-0.52-0.343-0.868-0.444s-0.785-0.151-1.311-0.151h-2.008v4.453h2.437c0.383,0,0.718-0.045,1.004-0.137
		c0.286-0.091,0.538-0.226,0.755-0.405c0.217-0.179,0.388-0.402,0.512-0.669C84.476,39.387,84.538,39.078,84.538,38.727z"/>
	<path d="M95.407,41.52c0,0.13-0.006,0.239-0.02,0.327s-0.034,0.163-0.063,0.225s-0.065,0.107-0.107,0.137s-0.093,0.044-0.151,0.044
		H89.48c-0.15,0-0.292-0.05-0.425-0.151s-0.2-0.278-0.2-0.532V29.869c0-0.052,0.013-0.098,0.039-0.137s0.072-0.07,0.137-0.093
		s0.153-0.042,0.264-0.059s0.244-0.024,0.4-0.024c0.163,0,0.298,0.008,0.405,0.024s0.194,0.036,0.259,0.059s0.111,0.054,0.137,0.093
		s0.039,0.084,0.039,0.137v10.928h4.531c0.059,0,0.109,0.015,0.151,0.044s0.078,0.072,0.107,0.127s0.05,0.128,0.063,0.22
		S95.407,41.389,95.407,41.52z"/>
	<path d="M106.726,41.656c0.052,0.143,0.08,0.259,0.083,0.347s-0.021,0.155-0.073,0.2s-0.138,0.075-0.259,0.088
		s-0.282,0.02-0.483,0.02s-0.363-0.005-0.483-0.015s-0.211-0.026-0.273-0.049s-0.107-0.054-0.137-0.093s-0.057-0.088-0.083-0.146
		l-1.084-3.076h-5.254l-1.035,3.037c-0.02,0.059-0.045,0.109-0.078,0.151s-0.08,0.078-0.142,0.107s-0.15,0.05-0.264,0.063
		s-0.262,0.02-0.444,0.02c-0.189,0-0.343-0.008-0.464-0.024s-0.205-0.047-0.254-0.093s-0.072-0.112-0.068-0.2
		s0.031-0.204,0.083-0.347l4.238-11.738c0.026-0.072,0.06-0.13,0.103-0.176s0.104-0.082,0.186-0.107s0.186-0.044,0.313-0.054
		s0.288-0.015,0.483-0.015c0.208,0,0.381,0.005,0.518,0.015s0.248,0.028,0.332,0.054s0.15,0.063,0.195,0.112
		s0.082,0.109,0.107,0.181L106.726,41.656z M101.286,31.295h-0.01l-2.178,6.299h4.395L101.286,31.295z"/>
	<path d="M112.107,39.068c0,0.501-0.045,0.96-0.137,1.377s-0.248,0.771-0.469,1.064s-0.513,0.519-0.874,0.679
		s-0.809,0.239-1.343,0.239c-0.182,0-0.363-0.015-0.542-0.044s-0.343-0.068-0.493-0.117s-0.28-0.101-0.391-0.156
		s-0.184-0.103-0.22-0.142s-0.065-0.078-0.088-0.117s-0.042-0.086-0.059-0.142s-0.028-0.124-0.034-0.205s-0.01-0.181-0.01-0.298
		c0-0.143,0.005-0.262,0.015-0.356s0.028-0.169,0.054-0.225s0.057-0.094,0.093-0.117s0.08-0.034,0.132-0.034s0.119,0.024,0.2,0.073
		s0.179,0.103,0.293,0.161s0.246,0.112,0.396,0.161s0.326,0.073,0.527,0.073c0.221,0,0.41-0.028,0.566-0.083
		s0.287-0.158,0.391-0.308s0.182-0.356,0.234-0.62s0.078-0.607,0.078-1.03v-9.043c0-0.045,0.013-0.088,0.039-0.127
		s0.072-0.072,0.137-0.098s0.151-0.045,0.259-0.059s0.243-0.02,0.405-0.02c0.156,0,0.29,0.006,0.4,0.02s0.197,0.033,0.259,0.059
		s0.107,0.059,0.137,0.098s0.044,0.082,0.044,0.127V39.068z"/>
	<path d="M122.468,41.559c0,0.117-0.006,0.22-0.02,0.308s-0.036,0.161-0.068,0.22s-0.07,0.101-0.112,0.127s-0.089,0.039-0.142,0.039
		h-6.064c-0.15,0-0.292-0.05-0.425-0.151s-0.2-0.278-0.2-0.532v-11.27c0-0.254,0.067-0.431,0.2-0.532s0.275-0.151,0.425-0.151h5.996
		c0.052,0,0.099,0.013,0.142,0.039s0.077,0.068,0.103,0.127s0.047,0.132,0.063,0.22s0.024,0.197,0.024,0.327
		c0,0.117-0.008,0.22-0.024,0.308s-0.038,0.16-0.063,0.215s-0.06,0.096-0.103,0.122s-0.089,0.039-0.142,0.039h-4.941v3.965h4.238
		c0.052,0,0.099,0.015,0.142,0.044s0.078,0.07,0.107,0.122s0.05,0.124,0.063,0.215s0.02,0.199,0.02,0.322
		c0,0.117-0.006,0.218-0.02,0.303s-0.034,0.153-0.063,0.205s-0.065,0.089-0.107,0.112s-0.089,0.034-0.142,0.034h-4.238v4.521h5.01
		c0.052,0,0.099,0.013,0.142,0.039s0.08,0.067,0.112,0.122s0.055,0.127,0.068,0.215S122.468,41.428,122.468,41.559z"/>
	<path d="M139.441,35.748c0,1.094-0.14,2.049-0.42,2.866s-0.688,1.494-1.226,2.031s-1.196,0.939-1.978,1.206s-1.712,0.4-2.793,0.4
		h-2.676c-0.15,0-0.292-0.05-0.425-0.151s-0.2-0.278-0.2-0.532v-11.27c0-0.254,0.067-0.431,0.2-0.532s0.275-0.151,0.425-0.151h2.861
		c1.094,0,2.018,0.142,2.773,0.425s1.388,0.69,1.899,1.221s0.898,1.173,1.162,1.929S139.441,34.797,139.441,35.748z M137.673,35.816
		c0-0.684-0.084-1.32-0.254-1.909s-0.435-1.099-0.796-1.528c-0.361-0.43-0.819-0.765-1.372-1.006s-1.266-0.361-2.139-0.361h-1.709
		v9.834h1.729c0.807,0,1.488-0.101,2.041-0.303s1.016-0.511,1.387-0.928s0.649-0.939,0.835-1.567S137.673,36.676,137.673,35.816z"/>
	<path d="M149.06,41.559c0,0.117-0.006,0.22-0.02,0.308s-0.036,0.161-0.068,0.22s-0.07,0.101-0.112,0.127s-0.089,0.039-0.142,0.039
		h-6.064c-0.15,0-0.292-0.05-0.425-0.151s-0.2-0.278-0.2-0.532v-11.27c0-0.254,0.067-0.431,0.2-0.532s0.275-0.151,0.425-0.151h5.996
		c0.052,0,0.099,0.013,0.142,0.039s0.077,0.068,0.103,0.127s0.047,0.132,0.063,0.22s0.024,0.197,0.024,0.327
		c0,0.117-0.008,0.22-0.024,0.308s-0.038,0.16-0.063,0.215s-0.06,0.096-0.103,0.122s-0.089,0.039-0.142,0.039h-4.941v3.965h4.238
		c0.052,0,0.099,0.015,0.142,0.044s0.078,0.07,0.107,0.122s0.05,0.124,0.063,0.215s0.02,0.199,0.02,0.322
		c0,0.117-0.006,0.218-0.02,0.303s-0.034,0.153-0.063,0.205s-0.065,0.089-0.107,0.112s-0.089,0.034-0.142,0.034h-4.238v4.521h5.01
		c0.052,0,0.099,0.013,0.142,0.039s0.08,0.067,0.112,0.122s0.055,0.127,0.068,0.215S149.06,41.428,149.06,41.559z"/>
	<path d="M164.079,33.316c0,0.631-0.104,1.201-0.313,1.709s-0.506,0.941-0.894,1.299s-0.863,0.635-1.426,0.83
		s-1.235,0.293-2.017,0.293h-1.436v4.551c0,0.052-0.015,0.098-0.044,0.137s-0.075,0.07-0.137,0.093s-0.146,0.042-0.254,0.059
		s-0.243,0.024-0.405,0.024s-0.298-0.008-0.405-0.024s-0.194-0.036-0.259-0.059s-0.111-0.054-0.137-0.093s-0.039-0.084-0.039-0.137
		v-11.66c0-0.26,0.068-0.446,0.205-0.557s0.29-0.166,0.459-0.166h2.705c0.273,0,0.536,0.011,0.786,0.034s0.547,0.072,0.889,0.146
		s0.69,0.215,1.045,0.42s0.656,0.458,0.903,0.757s0.438,0.646,0.571,1.04C164.012,32.407,164.079,32.841,164.079,33.316z
		 M162.312,33.453c0-0.514-0.096-0.944-0.288-1.289c-0.192-0.345-0.43-0.602-0.713-0.771s-0.576-0.277-0.879-0.322
		s-0.597-0.068-0.884-0.068h-1.553v5.068h1.514c0.508,0,0.929-0.065,1.265-0.195s0.617-0.311,0.845-0.542s0.4-0.508,0.518-0.83
		S162.312,33.831,162.312,33.453z"/>
	<path d="M174.636,41.656c0.052,0.143,0.08,0.259,0.083,0.347s-0.021,0.155-0.073,0.2s-0.138,0.075-0.259,0.088
		s-0.282,0.02-0.483,0.02s-0.363-0.005-0.483-0.015s-0.211-0.026-0.273-0.049s-0.107-0.054-0.137-0.093s-0.057-0.088-0.083-0.146
		l-1.084-3.076h-5.254l-1.035,3.037c-0.02,0.059-0.045,0.109-0.078,0.151s-0.08,0.078-0.142,0.107s-0.15,0.05-0.264,0.063
		s-0.262,0.02-0.444,0.02c-0.189,0-0.343-0.008-0.464-0.024s-0.205-0.047-0.254-0.093s-0.072-0.112-0.068-0.2
		s0.031-0.204,0.083-0.347l4.238-11.738c0.026-0.072,0.06-0.13,0.103-0.176s0.104-0.082,0.186-0.107s0.186-0.044,0.313-0.054
		s0.288-0.015,0.483-0.015c0.208,0,0.381,0.005,0.518,0.015s0.248,0.028,0.332,0.054s0.15,0.063,0.195,0.112
		s0.082,0.109,0.107,0.181L174.636,41.656z M169.197,31.295h-0.01l-2.178,6.299h4.395L169.197,31.295z"/>
	<path d="M185.173,41.998c0,0.052-0.01,0.098-0.029,0.137s-0.062,0.072-0.127,0.098s-0.156,0.045-0.273,0.059
		s-0.273,0.02-0.469,0.02c-0.169,0-0.308-0.006-0.415-0.02s-0.194-0.034-0.259-0.063s-0.116-0.07-0.151-0.122
		s-0.067-0.117-0.093-0.195l-1.162-2.979c-0.137-0.338-0.278-0.649-0.425-0.933s-0.321-0.527-0.522-0.732s-0.439-0.365-0.713-0.479
		s-0.602-0.171-0.986-0.171h-1.123v5.381c0,0.052-0.015,0.098-0.044,0.137s-0.075,0.07-0.137,0.093s-0.146,0.042-0.254,0.059
		s-0.243,0.024-0.405,0.024s-0.298-0.008-0.405-0.024s-0.194-0.036-0.259-0.059s-0.111-0.054-0.137-0.093s-0.039-0.084-0.039-0.137
		V30.299c0-0.254,0.067-0.431,0.2-0.532s0.275-0.151,0.425-0.151h2.686c0.319,0,0.584,0.008,0.796,0.024s0.402,0.034,0.571,0.054
		c0.488,0.084,0.919,0.218,1.294,0.4s0.688,0.414,0.942,0.693s0.444,0.601,0.571,0.962c0.127,0.361,0.19,0.76,0.19,1.196
		c0,0.423-0.057,0.802-0.171,1.138s-0.278,0.631-0.493,0.889s-0.472,0.48-0.771,0.669s-0.635,0.348-1.006,0.479
		c0.208,0.091,0.397,0.207,0.566,0.347s0.327,0.308,0.474,0.503s0.285,0.42,0.415,0.674s0.26,0.541,0.391,0.859l1.133,2.783
		c0.091,0.234,0.15,0.399,0.176,0.493S185.173,41.946,185.173,41.998z M182.644,33.121c0-0.495-0.111-0.913-0.332-1.255
		c-0.221-0.342-0.592-0.587-1.113-0.737c-0.163-0.045-0.347-0.078-0.552-0.098s-0.474-0.029-0.806-0.029h-1.416v4.258h1.641
		c0.443,0,0.825-0.054,1.147-0.161s0.591-0.257,0.806-0.449s0.373-0.418,0.474-0.679S182.644,33.427,182.644,33.121z"/>
	<path d="M195.329,30.338c0,0.124-0.006,0.231-0.02,0.322s-0.034,0.165-0.063,0.22s-0.065,0.096-0.107,0.122
		s-0.089,0.039-0.142,0.039h-3.555v10.957c0,0.052-0.013,0.098-0.039,0.137s-0.072,0.07-0.137,0.093s-0.151,0.042-0.259,0.059
		s-0.243,0.024-0.405,0.024c-0.156,0-0.29-0.008-0.4-0.024s-0.199-0.036-0.264-0.059s-0.111-0.054-0.137-0.093
		s-0.039-0.084-0.039-0.137V31.041h-3.555c-0.052,0-0.099-0.013-0.142-0.039s-0.077-0.067-0.103-0.122s-0.047-0.128-0.063-0.22
		s-0.024-0.199-0.024-0.322s0.008-0.233,0.024-0.327s0.038-0.171,0.063-0.229s0.06-0.101,0.103-0.127s0.089-0.039,0.142-0.039h8.789
		c0.052,0,0.099,0.013,0.142,0.039s0.078,0.068,0.107,0.127s0.05,0.135,0.063,0.229S195.329,30.214,195.329,30.338z"/>
	<path d="M204.187,41.559c0,0.117-0.006,0.22-0.02,0.308s-0.036,0.161-0.068,0.22s-0.07,0.101-0.112,0.127s-0.089,0.039-0.142,0.039
		h-6.064c-0.15,0-0.292-0.05-0.425-0.151s-0.2-0.278-0.2-0.532v-11.27c0-0.254,0.067-0.431,0.2-0.532s0.275-0.151,0.425-0.151h5.996
		c0.052,0,0.099,0.013,0.142,0.039s0.077,0.068,0.103,0.127s0.047,0.132,0.063,0.22s0.024,0.197,0.024,0.327
		c0,0.117-0.008,0.22-0.024,0.308s-0.038,0.16-0.063,0.215s-0.06,0.096-0.103,0.122s-0.089,0.039-0.142,0.039h-4.941v3.965h4.238
		c0.052,0,0.099,0.015,0.142,0.044s0.078,0.07,0.107,0.122s0.05,0.124,0.063,0.215s0.02,0.199,0.02,0.322
		c0,0.117-0.006,0.218-0.02,0.303s-0.034,0.153-0.063,0.205s-0.065,0.089-0.107,0.112s-0.089,0.034-0.142,0.034h-4.238v4.521h5.01
		c0.052,0,0.099,0.013,0.142,0.039s0.08,0.067,0.112,0.122s0.055,0.127,0.068,0.215S204.187,41.428,204.187,41.559z"/>
	<path d="M209.118,34.44c0,0.208-0.015,0.384-0.044,0.527s-0.084,0.259-0.166,0.347s-0.187,0.15-0.317,0.186
		s-0.296,0.054-0.498,0.054c-0.208,0-0.377-0.018-0.508-0.054s-0.234-0.098-0.313-0.186s-0.132-0.204-0.161-0.347
		s-0.044-0.319-0.044-0.527c0-0.221,0.015-0.405,0.044-0.552s0.083-0.264,0.161-0.352s0.182-0.15,0.313-0.186
		s0.299-0.054,0.508-0.054c0.202,0,0.368,0.018,0.498,0.054s0.236,0.098,0.317,0.186s0.137,0.205,0.166,0.352
		S209.118,34.218,209.118,34.44z M209.118,41.217c0,0.215-0.015,0.394-0.044,0.537s-0.084,0.259-0.166,0.347
		s-0.187,0.15-0.317,0.186s-0.296,0.054-0.498,0.054c-0.208,0-0.377-0.018-0.508-0.054s-0.234-0.098-0.313-0.186
		s-0.132-0.204-0.161-0.347s-0.044-0.322-0.044-0.537s0.015-0.396,0.044-0.542s0.083-0.262,0.161-0.347s0.182-0.146,0.313-0.186
		s0.299-0.059,0.508-0.059c0.202,0,0.368,0.02,0.498,0.059s0.236,0.101,0.317,0.186s0.137,0.2,0.166,0.347
		S209.118,41.002,209.118,41.217z"/>
	<path d="M76.228,57.317c0,0.631-0.104,1.201-0.313,1.709s-0.506,0.94-0.894,1.299c-0.387,0.357-0.863,0.635-1.426,0.83
		s-1.235,0.293-2.017,0.293h-1.436v4.551c0,0.052-0.015,0.098-0.044,0.137s-0.075,0.069-0.137,0.093
		c-0.062,0.022-0.146,0.042-0.254,0.059c-0.107,0.016-0.243,0.024-0.405,0.024s-0.298-0.009-0.405-0.024
		c-0.107-0.017-0.194-0.036-0.259-0.059c-0.065-0.023-0.111-0.054-0.137-0.093s-0.039-0.085-0.039-0.137V54.338
		c0-0.26,0.068-0.446,0.205-0.557s0.29-0.166,0.459-0.166h2.705c0.273,0,0.536,0.011,0.786,0.034s0.547,0.072,0.889,0.146
		s0.69,0.215,1.045,0.42s0.656,0.458,0.903,0.757s0.438,0.646,0.571,1.041C76.161,56.407,76.228,56.841,76.228,57.317z
		 M74.46,57.454c0-0.515-0.096-0.944-0.288-1.289c-0.192-0.346-0.43-0.603-0.713-0.772s-0.576-0.277-0.879-0.322
		s-0.597-0.068-0.884-0.068h-1.553v5.069h1.514c0.508,0,0.929-0.065,1.265-0.195c0.335-0.131,0.617-0.312,0.845-0.542
		c0.228-0.231,0.4-0.508,0.518-0.83S74.46,57.831,74.46,57.454z"/>
	<path d="M80.476,65.999c0,0.052-0.013,0.098-0.039,0.137s-0.072,0.069-0.137,0.093c-0.065,0.022-0.151,0.042-0.259,0.059
		c-0.107,0.016-0.243,0.024-0.405,0.024c-0.156,0-0.29-0.009-0.4-0.024c-0.111-0.017-0.199-0.036-0.264-0.059
		c-0.065-0.023-0.111-0.054-0.137-0.093s-0.039-0.085-0.039-0.137V53.869c0-0.052,0.015-0.098,0.044-0.137s0.078-0.07,0.146-0.093
		s0.156-0.042,0.264-0.059s0.236-0.024,0.386-0.024c0.163,0,0.298,0.008,0.405,0.024s0.194,0.036,0.259,0.059
		s0.111,0.054,0.137,0.093s0.039,0.084,0.039,0.137V65.999z"/>
	<path d="M90.866,65.559c0,0.117-0.006,0.22-0.02,0.308s-0.036,0.161-0.068,0.22s-0.07,0.101-0.112,0.127
		c-0.042,0.025-0.089,0.039-0.142,0.039H84.46c-0.15,0-0.292-0.051-0.425-0.151c-0.133-0.102-0.2-0.278-0.2-0.532v-11.27
		c0-0.254,0.067-0.431,0.2-0.532s0.275-0.151,0.425-0.151h5.996c0.052,0,0.099,0.013,0.142,0.039s0.077,0.068,0.103,0.127
		s0.047,0.132,0.063,0.22s0.024,0.197,0.024,0.327c0,0.117-0.008,0.22-0.024,0.308s-0.038,0.16-0.063,0.215s-0.06,0.096-0.103,0.122
		s-0.089,0.039-0.142,0.039h-4.941v3.965h4.238c0.052,0,0.099,0.015,0.142,0.044s0.078,0.069,0.107,0.122
		c0.029,0.052,0.05,0.123,0.063,0.215c0.013,0.091,0.02,0.198,0.02,0.322c0,0.117-0.006,0.218-0.02,0.303
		c-0.013,0.084-0.034,0.152-0.063,0.205c-0.029,0.052-0.065,0.089-0.107,0.112c-0.042,0.022-0.089,0.034-0.142,0.034h-4.238v4.521
		h5.01c0.052,0,0.099,0.013,0.142,0.039c0.042,0.025,0.08,0.066,0.112,0.122c0.033,0.055,0.055,0.127,0.068,0.215
		S90.866,65.428,90.866,65.559z"/>
	<path d="M97.107,61.321c0,0.254-0.029,0.43-0.088,0.527s-0.143,0.146-0.254,0.146h-4.082c-0.117,0-0.205-0.051-0.264-0.151
		c-0.059-0.102-0.088-0.275-0.088-0.522c0-0.248,0.029-0.42,0.088-0.518s0.146-0.146,0.264-0.146h4.082
		c0.052,0,0.099,0.01,0.142,0.029s0.078,0.057,0.107,0.112c0.029,0.055,0.052,0.125,0.068,0.21
		C97.098,61.092,97.107,61.197,97.107,61.321z"/>
	<path d="M107.224,57.317c0,0.631-0.104,1.201-0.313,1.709s-0.506,0.94-0.894,1.299c-0.387,0.357-0.863,0.635-1.426,0.83
		s-1.235,0.293-2.017,0.293h-1.436v4.551c0,0.052-0.015,0.098-0.044,0.137s-0.075,0.069-0.137,0.093
		c-0.062,0.022-0.146,0.042-0.254,0.059c-0.107,0.016-0.243,0.024-0.405,0.024s-0.298-0.009-0.405-0.024
		c-0.107-0.017-0.194-0.036-0.259-0.059c-0.065-0.023-0.111-0.054-0.137-0.093s-0.039-0.085-0.039-0.137V54.338
		c0-0.26,0.068-0.446,0.205-0.557s0.29-0.166,0.459-0.166h2.705c0.273,0,0.536,0.011,0.786,0.034s0.547,0.072,0.889,0.146
		s0.69,0.215,1.045,0.42s0.656,0.458,0.903,0.757s0.438,0.646,0.571,1.041C107.157,56.407,107.224,56.841,107.224,57.317z
		 M105.456,57.454c0-0.515-0.096-0.944-0.288-1.289c-0.192-0.346-0.43-0.603-0.713-0.772s-0.576-0.277-0.879-0.322
		s-0.597-0.068-0.884-0.068h-1.553v5.069h1.514c0.508,0,0.929-0.065,1.265-0.195c0.335-0.131,0.617-0.312,0.845-0.542
		c0.228-0.231,0.4-0.508,0.518-0.83S105.456,57.831,105.456,57.454z"/>
	<path d="M111.472,65.999c0,0.052-0.013,0.098-0.039,0.137s-0.072,0.069-0.137,0.093c-0.065,0.022-0.151,0.042-0.259,0.059
		c-0.107,0.016-0.243,0.024-0.405,0.024c-0.156,0-0.29-0.009-0.4-0.024c-0.111-0.017-0.199-0.036-0.264-0.059
		c-0.065-0.023-0.111-0.054-0.137-0.093s-0.039-0.085-0.039-0.137V53.869c0-0.052,0.015-0.098,0.044-0.137s0.078-0.07,0.146-0.093
		s0.156-0.042,0.264-0.059s0.236-0.024,0.386-0.024c0.163,0,0.298,0.008,0.405,0.024s0.194,0.036,0.259,0.059
		s0.111,0.054,0.137,0.093s0.039,0.084,0.039,0.137V65.999z"/>
	<path d="M121.863,65.559c0,0.117-0.006,0.22-0.02,0.308s-0.036,0.161-0.068,0.22s-0.07,0.101-0.112,0.127
		c-0.042,0.025-0.089,0.039-0.142,0.039h-6.064c-0.15,0-0.292-0.051-0.425-0.151c-0.133-0.102-0.2-0.278-0.2-0.532v-11.27
		c0-0.254,0.067-0.431,0.2-0.532s0.275-0.151,0.425-0.151h5.996c0.052,0,0.099,0.013,0.142,0.039s0.077,0.068,0.103,0.127
		s0.047,0.132,0.063,0.22s0.024,0.197,0.024,0.327c0,0.117-0.008,0.22-0.024,0.308s-0.038,0.16-0.063,0.215s-0.06,0.096-0.103,0.122
		s-0.089,0.039-0.142,0.039h-4.941v3.965h4.238c0.052,0,0.099,0.015,0.142,0.044s0.078,0.069,0.107,0.122
		c0.029,0.052,0.05,0.123,0.063,0.215c0.013,0.091,0.02,0.198,0.02,0.322c0,0.117-0.006,0.218-0.02,0.303
		c-0.013,0.084-0.034,0.152-0.063,0.205c-0.029,0.052-0.065,0.089-0.107,0.112c-0.042,0.022-0.089,0.034-0.142,0.034h-4.238v4.521
		h5.01c0.052,0,0.099,0.013,0.142,0.039c0.042,0.025,0.08,0.066,0.112,0.122c0.033,0.055,0.055,0.127,0.068,0.215
		S121.863,65.428,121.863,65.559z"/>
	<path d="M133.025,65.999c0,0.052-0.01,0.098-0.029,0.137s-0.062,0.071-0.127,0.098c-0.065,0.025-0.156,0.045-0.273,0.059
		c-0.117,0.013-0.273,0.02-0.469,0.02c-0.169,0-0.308-0.007-0.415-0.02c-0.107-0.014-0.194-0.034-0.259-0.063
		s-0.116-0.07-0.151-0.122c-0.036-0.053-0.067-0.117-0.093-0.195l-1.162-2.979c-0.137-0.339-0.278-0.649-0.425-0.933
		s-0.321-0.527-0.522-0.732s-0.439-0.365-0.713-0.479c-0.273-0.114-0.602-0.171-0.986-0.171h-1.123v5.381
		c0,0.052-0.015,0.098-0.044,0.137s-0.075,0.069-0.137,0.093c-0.062,0.022-0.146,0.042-0.254,0.059
		c-0.107,0.016-0.243,0.024-0.405,0.024s-0.298-0.009-0.405-0.024c-0.107-0.017-0.194-0.036-0.259-0.059
		c-0.065-0.023-0.111-0.054-0.137-0.093s-0.039-0.085-0.039-0.137v-11.7c0-0.254,0.067-0.431,0.2-0.532s0.275-0.151,0.425-0.151
		h2.686c0.319,0,0.584,0.008,0.796,0.024s0.402,0.034,0.571,0.054c0.488,0.084,0.919,0.218,1.294,0.4s0.688,0.414,0.942,0.693
		s0.444,0.601,0.571,0.962c0.127,0.361,0.19,0.76,0.19,1.196c0,0.423-0.057,0.802-0.171,1.138c-0.114,0.335-0.278,0.631-0.493,0.889
		c-0.215,0.257-0.472,0.479-0.771,0.669c-0.299,0.188-0.635,0.348-1.006,0.479c0.208,0.091,0.397,0.206,0.566,0.347
		c0.169,0.14,0.327,0.308,0.474,0.503s0.285,0.42,0.415,0.674s0.26,0.54,0.391,0.859l1.133,2.783
		c0.091,0.234,0.15,0.398,0.176,0.493C133.011,65.873,133.025,65.946,133.025,65.999z M130.495,57.122
		c0-0.495-0.111-0.913-0.332-1.255c-0.221-0.342-0.592-0.588-1.113-0.738c-0.163-0.045-0.347-0.078-0.552-0.098
		s-0.474-0.029-0.806-0.029h-1.416v4.258h1.641c0.443,0,0.825-0.054,1.147-0.161s0.591-0.258,0.806-0.449
		c0.215-0.192,0.373-0.419,0.474-0.679C130.445,57.711,130.495,57.427,130.495,57.122z"/>
	<path d="M145.007,65.559c0,0.13-0.022,0.24-0.065,0.332c-0.044,0.091-0.101,0.166-0.172,0.225s-0.15,0.101-0.237,0.127
		c-0.088,0.025-0.175,0.039-0.263,0.039h-0.556c-0.175,0-0.328-0.019-0.459-0.054c-0.131-0.036-0.256-0.102-0.374-0.195
		c-0.118-0.095-0.236-0.224-0.354-0.386c-0.118-0.163-0.243-0.371-0.375-0.625l-3.855-7.188c-0.202-0.371-0.405-0.761-0.609-1.167
		c-0.205-0.407-0.396-0.803-0.572-1.187h-0.02c0.013,0.469,0.023,0.948,0.029,1.436s0.01,0.973,0.01,1.455v7.627
		c0,0.045-0.014,0.089-0.041,0.132c-0.028,0.042-0.074,0.074-0.139,0.098c-0.065,0.022-0.151,0.042-0.258,0.059
		c-0.106,0.016-0.242,0.024-0.407,0.024c-0.165,0-0.3-0.009-0.407-0.024c-0.106-0.017-0.191-0.036-0.252-0.059
		c-0.062-0.023-0.106-0.056-0.134-0.098c-0.027-0.043-0.041-0.087-0.041-0.132V54.338c0-0.26,0.074-0.446,0.222-0.557
		s0.309-0.166,0.484-0.166h0.827c0.195,0,0.357,0.016,0.489,0.049c0.131,0.033,0.249,0.086,0.353,0.161s0.205,0.179,0.303,0.313
		c0.097,0.133,0.199,0.301,0.307,0.503l2.963,5.547c0.183,0.338,0.358,0.669,0.529,0.991c0.169,0.322,0.333,0.64,0.491,0.952
		c0.157,0.313,0.313,0.62,0.467,0.923c0.154,0.303,0.307,0.606,0.458,0.913h0.01c-0.013-0.515-0.021-1.05-0.024-1.606
		s-0.005-1.093-0.005-1.606v-6.856c0-0.045,0.014-0.088,0.041-0.127c0.028-0.039,0.074-0.073,0.139-0.103s0.151-0.05,0.258-0.063
		s0.246-0.02,0.417-0.02c0.151,0,0.281,0.006,0.391,0.02s0.196,0.034,0.258,0.063s0.106,0.063,0.134,0.103
		c0.027,0.039,0.041,0.082,0.041,0.127V65.559z"/>
	<path d="M157.829,65.657c0.052,0.143,0.08,0.259,0.083,0.347s-0.021,0.154-0.073,0.2c-0.052,0.045-0.138,0.074-0.259,0.088
		c-0.121,0.013-0.282,0.02-0.483,0.02s-0.363-0.005-0.483-0.015s-0.211-0.026-0.273-0.049c-0.062-0.023-0.107-0.054-0.137-0.093
		s-0.057-0.088-0.083-0.146l-1.084-3.076h-5.254l-1.035,3.037c-0.02,0.059-0.045,0.108-0.078,0.151
		c-0.033,0.042-0.08,0.078-0.142,0.107s-0.15,0.05-0.264,0.063c-0.114,0.013-0.262,0.02-0.444,0.02
		c-0.189,0-0.343-0.009-0.464-0.024c-0.121-0.017-0.205-0.048-0.254-0.093c-0.049-0.046-0.072-0.112-0.068-0.2
		s0.031-0.204,0.083-0.347l4.238-11.739c0.026-0.072,0.06-0.13,0.103-0.176s0.104-0.082,0.186-0.107s0.186-0.044,0.313-0.054
		s0.288-0.015,0.483-0.015c0.208,0,0.381,0.005,0.518,0.015s0.248,0.028,0.332,0.054s0.15,0.063,0.195,0.112
		s0.082,0.109,0.107,0.181L157.829,65.657z M152.39,55.295h-0.01l-2.178,6.299h4.395L152.39,55.295z"/>
	<path d="M163.562,61.321c0,0.254-0.029,0.43-0.088,0.527s-0.143,0.146-0.254,0.146h-4.082c-0.117,0-0.205-0.051-0.264-0.151
		c-0.059-0.102-0.088-0.275-0.088-0.522c0-0.248,0.029-0.42,0.088-0.518s0.146-0.146,0.264-0.146h4.082
		c0.052,0,0.099,0.01,0.142,0.029s0.078,0.057,0.107,0.112c0.029,0.055,0.052,0.125,0.068,0.21
		C163.553,61.092,163.562,61.197,163.562,61.321z"/>
	<path d="M59.558,86.708c0,0.592-0.109,1.119-0.327,1.582c-0.218,0.462-0.521,0.854-0.908,1.177s-0.843,0.564-1.367,0.728
		c-0.524,0.162-1.089,0.244-1.694,0.244c-0.423,0-0.815-0.036-1.177-0.107c-0.361-0.072-0.684-0.16-0.967-0.264
		c-0.283-0.104-0.521-0.212-0.713-0.322c-0.192-0.111-0.326-0.205-0.4-0.283s-0.13-0.178-0.166-0.298
		c-0.036-0.121-0.054-0.282-0.054-0.483c0-0.144,0.006-0.263,0.02-0.356c0.013-0.095,0.033-0.171,0.059-0.229s0.059-0.1,0.098-0.122
		c0.039-0.023,0.084-0.034,0.137-0.034c0.091,0,0.22,0.055,0.386,0.166c0.166,0.11,0.379,0.23,0.64,0.361
		c0.26,0.13,0.575,0.252,0.942,0.366c0.368,0.113,0.792,0.171,1.274,0.171c0.365,0,0.698-0.049,1.001-0.146s0.563-0.236,0.781-0.415
		c0.218-0.18,0.386-0.399,0.503-0.659c0.117-0.261,0.176-0.557,0.176-0.889c0-0.358-0.082-0.664-0.244-0.918
		s-0.377-0.478-0.645-0.669c-0.267-0.192-0.571-0.368-0.913-0.527c-0.342-0.16-0.692-0.322-1.05-0.488s-0.707-0.351-1.045-0.552
		c-0.338-0.202-0.641-0.439-0.908-0.713s-0.483-0.595-0.649-0.962c-0.166-0.368-0.249-0.81-0.249-1.323
		c0-0.527,0.096-0.998,0.288-1.411c0.192-0.414,0.459-0.761,0.801-1.04c0.342-0.28,0.749-0.493,1.221-0.64s0.981-0.22,1.528-0.22
		c0.28,0,0.562,0.024,0.845,0.073s0.55,0.113,0.801,0.195c0.25,0.081,0.474,0.172,0.669,0.273c0.195,0.101,0.324,0.182,0.386,0.244
		c0.062,0.062,0.103,0.11,0.122,0.146c0.02,0.035,0.036,0.081,0.049,0.137c0.013,0.055,0.023,0.122,0.029,0.2s0.01,0.179,0.01,0.303
		c0,0.117-0.005,0.221-0.015,0.313c-0.01,0.091-0.024,0.167-0.044,0.229c-0.02,0.062-0.047,0.107-0.083,0.137
		s-0.077,0.044-0.122,0.044c-0.072,0-0.184-0.046-0.337-0.137c-0.153-0.092-0.34-0.194-0.562-0.308
		c-0.221-0.114-0.483-0.219-0.786-0.313c-0.303-0.095-0.643-0.142-1.021-0.142c-0.352,0-0.658,0.047-0.918,0.142
		c-0.26,0.094-0.475,0.22-0.645,0.376s-0.296,0.342-0.381,0.557s-0.127,0.442-0.127,0.684c0,0.352,0.082,0.654,0.244,0.908
		s0.379,0.479,0.649,0.674s0.578,0.374,0.923,0.537c0.345,0.162,0.697,0.327,1.055,0.493s0.709,0.348,1.055,0.547
		c0.345,0.198,0.653,0.433,0.923,0.703c0.27,0.27,0.488,0.589,0.654,0.957C59.475,85.771,59.558,86.206,59.558,86.708z"/>
	<path d="M72.546,83.788c0,1.021-0.121,1.943-0.361,2.764s-0.601,1.519-1.079,2.095s-1.079,1.019-1.802,1.328
		c-0.723,0.309-1.566,0.464-2.529,0.464c-0.951,0-1.772-0.142-2.466-0.425s-1.266-0.695-1.719-1.235
		c-0.453-0.541-0.79-1.211-1.011-2.012s-0.332-1.723-0.332-2.764c0-0.996,0.121-1.901,0.361-2.715
		c0.241-0.814,0.602-1.506,1.084-2.075c0.482-0.57,1.084-1.01,1.807-1.318c0.723-0.31,1.566-0.464,2.529-0.464
		c0.931,0,1.742,0.14,2.432,0.42c0.69,0.279,1.265,0.688,1.724,1.226s0.801,1.201,1.025,1.992S72.546,82.765,72.546,83.788z
		 M70.769,83.905c0-0.717-0.063-1.382-0.19-1.997c-0.126-0.615-0.338-1.149-0.634-1.602c-0.296-0.453-0.691-0.806-1.185-1.06
		s-1.105-0.381-1.833-0.381c-0.729,0-1.339,0.137-1.833,0.41c-0.495,0.273-0.896,0.638-1.205,1.094
		c-0.309,0.455-0.53,0.987-0.664,1.597c-0.133,0.608-0.2,1.248-0.2,1.919c0,0.742,0.062,1.426,0.185,2.051s0.332,1.163,0.625,1.616
		c0.292,0.452,0.684,0.804,1.175,1.055c0.491,0.25,1.107,0.376,1.848,0.376c0.735,0,1.353-0.137,1.853-0.41
		c0.501-0.273,0.904-0.644,1.209-1.108c0.306-0.466,0.523-1.005,0.653-1.616C70.704,85.236,70.769,84.588,70.769,83.905z"/>
	<path d="M83.64,88.465c0,0.104-0.003,0.195-0.01,0.273s-0.018,0.146-0.034,0.205s-0.038,0.11-0.063,0.156
		c-0.026,0.045-0.072,0.101-0.137,0.166c-0.065,0.064-0.202,0.164-0.41,0.298c-0.208,0.133-0.467,0.264-0.776,0.391
		s-0.664,0.234-1.064,0.322s-0.838,0.132-1.313,0.132c-0.82,0-1.561-0.137-2.222-0.41s-1.224-0.678-1.689-1.211
		c-0.465-0.534-0.824-1.193-1.074-1.978c-0.25-0.785-0.376-1.688-0.376-2.71c0-1.049,0.135-1.982,0.405-2.803
		s0.649-1.516,1.138-2.085c0.488-0.57,1.073-1.005,1.753-1.304c0.68-0.3,1.434-0.449,2.261-0.449c0.365,0,0.719,0.034,1.064,0.103
		s0.664,0.154,0.957,0.259c0.293,0.104,0.553,0.225,0.781,0.361s0.386,0.249,0.474,0.337s0.145,0.154,0.171,0.2
		c0.026,0.045,0.047,0.099,0.063,0.161c0.016,0.062,0.029,0.135,0.039,0.22c0.01,0.084,0.015,0.186,0.015,0.303
		c0,0.13-0.006,0.24-0.02,0.332c-0.013,0.091-0.033,0.167-0.059,0.229c-0.026,0.062-0.057,0.107-0.093,0.137
		s-0.08,0.044-0.132,0.044c-0.092,0-0.219-0.063-0.383-0.19c-0.164-0.127-0.375-0.268-0.633-0.42
		c-0.258-0.153-0.573-0.293-0.942-0.42s-0.813-0.19-1.33-0.19c-0.563,0-1.075,0.112-1.537,0.337s-0.856,0.555-1.183,0.991
		c-0.327,0.436-0.581,0.968-0.761,1.597c-0.18,0.628-0.27,1.346-0.27,2.153c0,0.801,0.087,1.509,0.26,2.124s0.422,1.129,0.746,1.543
		c0.324,0.413,0.722,0.726,1.193,0.938c0.471,0.211,1.004,0.317,1.6,0.317c0.504,0,0.944-0.063,1.32-0.186
		c0.376-0.124,0.697-0.263,0.962-0.415c0.265-0.153,0.482-0.292,0.653-0.415c0.17-0.124,0.304-0.186,0.402-0.186
		c0.046,0,0.085,0.01,0.118,0.029c0.033,0.02,0.059,0.057,0.079,0.112c0.02,0.055,0.035,0.132,0.044,0.229
		S83.64,88.315,83.64,88.465z"/>
	<path d="M94.109,89.979c0,0.052-0.011,0.099-0.034,0.142c-0.023,0.042-0.067,0.076-0.132,0.103
		c-0.065,0.025-0.153,0.047-0.264,0.063c-0.111,0.016-0.254,0.024-0.43,0.024c-0.228,0-0.414-0.01-0.557-0.029
		s-0.25-0.056-0.322-0.107c-0.072-0.053-0.13-0.111-0.176-0.176l-4.648-6.318v6.318c0,0.045-0.013,0.089-0.039,0.132
		c-0.026,0.042-0.072,0.074-0.137,0.098c-0.065,0.022-0.151,0.042-0.259,0.059c-0.107,0.016-0.243,0.024-0.405,0.024
		c-0.156,0-0.29-0.009-0.4-0.024c-0.111-0.017-0.199-0.036-0.264-0.059c-0.065-0.023-0.111-0.056-0.137-0.098
		c-0.026-0.043-0.039-0.087-0.039-0.132V77.87c0-0.053,0.013-0.098,0.039-0.137s0.072-0.07,0.137-0.093
		c0.065-0.023,0.153-0.043,0.264-0.059c0.111-0.017,0.244-0.024,0.4-0.024c0.163,0,0.298,0.008,0.405,0.024
		c0.107,0.016,0.194,0.035,0.259,0.059c0.065,0.022,0.111,0.054,0.137,0.093s0.039,0.084,0.039,0.137v5.615l4.473-5.615
		c0.039-0.059,0.084-0.107,0.137-0.146s0.116-0.07,0.19-0.093c0.075-0.023,0.166-0.041,0.273-0.054
		c0.107-0.014,0.246-0.02,0.415-0.02s0.306,0.008,0.41,0.024c0.104,0.016,0.187,0.037,0.249,0.063
		c0.062,0.025,0.104,0.059,0.127,0.098s0.034,0.081,0.034,0.127c0,0.084-0.021,0.169-0.063,0.254
		c-0.042,0.084-0.122,0.201-0.239,0.352l-4.189,5.01l4.512,5.996c0.111,0.169,0.177,0.284,0.2,0.347
		C94.097,89.889,94.109,89.94,94.109,89.979z"/>
	<path d="M103.288,89.559c0,0.117-0.006,0.22-0.02,0.308s-0.036,0.161-0.068,0.22s-0.07,0.101-0.112,0.127
		c-0.042,0.025-0.089,0.039-0.142,0.039h-6.064c-0.15,0-0.292-0.051-0.425-0.151c-0.133-0.102-0.2-0.278-0.2-0.532v-11.27
		c0-0.254,0.067-0.432,0.2-0.532c0.133-0.102,0.275-0.151,0.425-0.151h5.996c0.052,0,0.099,0.013,0.142,0.039
		c0.042,0.025,0.077,0.068,0.103,0.127s0.047,0.132,0.063,0.22s0.024,0.196,0.024,0.327c0,0.117-0.008,0.22-0.024,0.308
		s-0.038,0.159-0.063,0.215c-0.026,0.055-0.06,0.096-0.103,0.122c-0.042,0.025-0.089,0.039-0.142,0.039h-4.941v3.965h4.238
		c0.052,0,0.099,0.015,0.142,0.044s0.078,0.069,0.107,0.122c0.029,0.052,0.05,0.123,0.063,0.215c0.013,0.091,0.02,0.198,0.02,0.322
		c0,0.117-0.006,0.218-0.02,0.303c-0.013,0.084-0.034,0.152-0.063,0.205c-0.029,0.052-0.065,0.089-0.107,0.112
		c-0.042,0.022-0.089,0.034-0.142,0.034h-4.238v4.521h5.01c0.052,0,0.099,0.013,0.142,0.039c0.042,0.025,0.08,0.066,0.112,0.122
		c0.033,0.055,0.055,0.127,0.068,0.215S103.288,89.428,103.288,89.559z"/>
	<path d="M113.943,78.338c0,0.123-0.006,0.23-0.02,0.322c-0.013,0.091-0.034,0.164-0.063,0.22c-0.029,0.055-0.065,0.096-0.107,0.122
		c-0.042,0.025-0.089,0.039-0.142,0.039h-3.555v10.957c0,0.052-0.013,0.098-0.039,0.137s-0.072,0.069-0.137,0.093
		c-0.065,0.022-0.151,0.042-0.259,0.059c-0.107,0.016-0.243,0.024-0.405,0.024c-0.156,0-0.29-0.009-0.4-0.024
		c-0.111-0.017-0.199-0.036-0.264-0.059c-0.065-0.023-0.111-0.054-0.137-0.093s-0.039-0.085-0.039-0.137V79.042h-3.555
		c-0.052,0-0.099-0.014-0.142-0.039c-0.042-0.026-0.077-0.067-0.103-0.122c-0.026-0.056-0.047-0.129-0.063-0.22
		c-0.016-0.092-0.024-0.199-0.024-0.322c0-0.124,0.008-0.233,0.024-0.327c0.016-0.095,0.038-0.171,0.063-0.229
		s0.06-0.102,0.103-0.127c0.042-0.026,0.089-0.039,0.142-0.039h8.789c0.052,0,0.099,0.013,0.142,0.039
		c0.042,0.025,0.078,0.068,0.107,0.127s0.05,0.135,0.063,0.229C113.936,78.105,113.943,78.214,113.943,78.338z"/>
	<path d="M117.976,85.321c0,0.254-0.029,0.43-0.088,0.527s-0.143,0.146-0.254,0.146h-4.082c-0.117,0-0.205-0.051-0.264-0.151
		c-0.059-0.102-0.088-0.275-0.088-0.522c0-0.248,0.029-0.42,0.088-0.518s0.146-0.146,0.264-0.146h4.082
		c0.052,0,0.099,0.01,0.142,0.029s0.078,0.057,0.107,0.112c0.029,0.055,0.052,0.125,0.068,0.21
		C117.968,85.092,117.976,85.197,117.976,85.321z"/>
	<path d="M127.361,89.559c0,0.117-0.006,0.22-0.02,0.308s-0.036,0.161-0.068,0.22s-0.07,0.101-0.112,0.127
		c-0.042,0.025-0.089,0.039-0.142,0.039h-6.064c-0.15,0-0.292-0.051-0.425-0.151c-0.133-0.102-0.2-0.278-0.2-0.532v-11.27
		c0-0.254,0.067-0.432,0.2-0.532c0.133-0.102,0.275-0.151,0.425-0.151h5.996c0.052,0,0.099,0.013,0.142,0.039
		c0.042,0.025,0.077,0.068,0.103,0.127s0.047,0.132,0.063,0.22s0.024,0.196,0.024,0.327c0,0.117-0.008,0.22-0.024,0.308
		s-0.038,0.159-0.063,0.215c-0.026,0.055-0.06,0.096-0.103,0.122c-0.042,0.025-0.089,0.039-0.142,0.039h-4.941v3.965h4.238
		c0.052,0,0.099,0.015,0.142,0.044s0.078,0.069,0.107,0.122c0.029,0.052,0.05,0.123,0.063,0.215c0.013,0.091,0.02,0.198,0.02,0.322
		c0,0.117-0.006,0.218-0.02,0.303c-0.013,0.084-0.034,0.152-0.063,0.205c-0.029,0.052-0.065,0.089-0.107,0.112
		c-0.042,0.022-0.089,0.034-0.142,0.034h-4.238v4.521h5.01c0.052,0,0.099,0.013,0.142,0.039c0.042,0.025,0.08,0.066,0.112,0.122
		c0.033,0.055,0.055,0.127,0.068,0.215S127.361,89.428,127.361,89.559z"/>
	<path d="M139.646,89.559c0,0.13-0.022,0.24-0.065,0.332c-0.044,0.091-0.101,0.166-0.172,0.225s-0.15,0.101-0.237,0.127
		c-0.088,0.025-0.175,0.039-0.263,0.039h-0.556c-0.175,0-0.328-0.019-0.459-0.054c-0.131-0.036-0.256-0.102-0.374-0.195
		c-0.118-0.095-0.236-0.224-0.354-0.386c-0.118-0.163-0.243-0.371-0.375-0.625l-3.855-7.188c-0.202-0.371-0.405-0.761-0.609-1.167
		c-0.205-0.407-0.396-0.803-0.572-1.187h-0.02c0.013,0.469,0.023,0.947,0.029,1.436s0.01,0.973,0.01,1.455v7.627
		c0,0.045-0.014,0.089-0.041,0.132c-0.028,0.042-0.074,0.074-0.139,0.098c-0.065,0.022-0.151,0.042-0.258,0.059
		c-0.106,0.016-0.242,0.024-0.407,0.024c-0.165,0-0.3-0.009-0.407-0.024c-0.106-0.017-0.191-0.036-0.252-0.059
		c-0.062-0.023-0.106-0.056-0.134-0.098c-0.027-0.043-0.041-0.087-0.041-0.132v-11.66c0-0.261,0.074-0.446,0.222-0.557
		c0.148-0.111,0.309-0.166,0.484-0.166h0.827c0.195,0,0.357,0.016,0.489,0.049c0.131,0.032,0.249,0.086,0.353,0.161
		c0.104,0.074,0.205,0.179,0.303,0.313c0.097,0.133,0.199,0.301,0.307,0.503l2.963,5.547c0.183,0.338,0.358,0.669,0.529,0.991
		c0.169,0.322,0.333,0.64,0.491,0.952c0.157,0.313,0.313,0.62,0.467,0.923c0.154,0.303,0.307,0.606,0.458,0.913h0.01
		c-0.013-0.515-0.021-1.05-0.024-1.606s-0.005-1.093-0.005-1.606v-6.855c0-0.046,0.014-0.088,0.041-0.127
		c0.028-0.039,0.074-0.073,0.139-0.103s0.151-0.051,0.258-0.063c0.106-0.014,0.246-0.02,0.417-0.02c0.151,0,0.281,0.006,0.391,0.02
		c0.11,0.013,0.196,0.034,0.258,0.063s0.106,0.063,0.134,0.103c0.027,0.039,0.041,0.081,0.041,0.127V89.559z"/>
	<path d="M151.443,88.465c0,0.104-0.003,0.195-0.01,0.273s-0.018,0.146-0.034,0.205s-0.038,0.11-0.063,0.156
		c-0.026,0.045-0.072,0.101-0.137,0.166c-0.065,0.064-0.202,0.164-0.41,0.298c-0.208,0.133-0.467,0.264-0.776,0.391
		s-0.664,0.234-1.064,0.322s-0.838,0.132-1.313,0.132c-0.82,0-1.561-0.137-2.222-0.41s-1.224-0.678-1.689-1.211
		c-0.465-0.534-0.824-1.193-1.074-1.978c-0.25-0.785-0.376-1.688-0.376-2.71c0-1.049,0.135-1.982,0.405-2.803
		s0.649-1.516,1.138-2.085c0.488-0.57,1.073-1.005,1.753-1.304c0.68-0.3,1.434-0.449,2.261-0.449c0.365,0,0.719,0.034,1.064,0.103
		s0.664,0.154,0.957,0.259c0.293,0.104,0.553,0.225,0.781,0.361s0.386,0.249,0.474,0.337s0.145,0.154,0.171,0.2
		c0.026,0.045,0.047,0.099,0.063,0.161c0.016,0.062,0.029,0.135,0.039,0.22c0.01,0.084,0.015,0.186,0.015,0.303
		c0,0.13-0.006,0.24-0.02,0.332c-0.013,0.091-0.033,0.167-0.059,0.229c-0.026,0.062-0.057,0.107-0.093,0.137
		s-0.08,0.044-0.132,0.044c-0.092,0-0.219-0.063-0.383-0.19c-0.164-0.127-0.375-0.268-0.633-0.42
		c-0.258-0.153-0.573-0.293-0.942-0.42s-0.813-0.19-1.33-0.19c-0.563,0-1.075,0.112-1.537,0.337s-0.856,0.555-1.183,0.991
		c-0.327,0.436-0.581,0.968-0.761,1.597c-0.18,0.628-0.27,1.346-0.27,2.153c0,0.801,0.087,1.509,0.26,2.124s0.422,1.129,0.746,1.543
		c0.324,0.413,0.722,0.726,1.193,0.938c0.471,0.211,1.004,0.317,1.6,0.317c0.504,0,0.944-0.063,1.32-0.186
		c0.376-0.124,0.697-0.263,0.962-0.415c0.265-0.153,0.482-0.292,0.653-0.415c0.17-0.124,0.304-0.186,0.402-0.186
		c0.046,0,0.085,0.01,0.118,0.029c0.033,0.02,0.059,0.057,0.079,0.112c0.02,0.055,0.035,0.132,0.044,0.229
		S151.443,88.315,151.443,88.465z"/>
	<path d="M163.132,89.657c0.052,0.143,0.08,0.259,0.083,0.347s-0.021,0.154-0.073,0.2c-0.052,0.045-0.138,0.074-0.259,0.088
		c-0.121,0.013-0.282,0.02-0.483,0.02s-0.363-0.005-0.483-0.015s-0.211-0.026-0.273-0.049c-0.062-0.023-0.107-0.054-0.137-0.093
		s-0.057-0.088-0.083-0.146l-1.084-3.076h-5.254l-1.035,3.037c-0.02,0.059-0.045,0.108-0.078,0.151
		c-0.033,0.042-0.08,0.078-0.142,0.107s-0.15,0.05-0.264,0.063c-0.114,0.013-0.262,0.02-0.444,0.02
		c-0.189,0-0.343-0.009-0.464-0.024c-0.121-0.017-0.205-0.048-0.254-0.093c-0.049-0.046-0.072-0.112-0.068-0.2
		s0.031-0.204,0.083-0.347l4.238-11.738c0.026-0.072,0.06-0.131,0.103-0.176c0.042-0.046,0.104-0.082,0.186-0.107
		c0.082-0.026,0.186-0.044,0.313-0.054s0.288-0.015,0.483-0.015c0.208,0,0.381,0.005,0.518,0.015s0.248,0.027,0.332,0.054
		c0.084,0.025,0.15,0.063,0.195,0.112s0.082,0.108,0.107,0.181L163.132,89.657z M157.693,79.295h-0.01l-2.178,6.299h4.395
		L157.693,79.295z"/>
	<path d="M168.513,87.069c0,0.501-0.045,0.96-0.137,1.377c-0.091,0.416-0.248,0.771-0.469,1.064s-0.513,0.519-0.874,0.679
		c-0.361,0.159-0.809,0.239-1.343,0.239c-0.182,0-0.363-0.015-0.542-0.044s-0.343-0.068-0.493-0.117s-0.28-0.102-0.391-0.156
		c-0.111-0.056-0.184-0.103-0.22-0.142s-0.065-0.078-0.088-0.117s-0.042-0.087-0.059-0.142c-0.016-0.056-0.028-0.124-0.034-0.205
		c-0.006-0.082-0.01-0.181-0.01-0.298c0-0.144,0.005-0.263,0.015-0.356c0.01-0.095,0.028-0.17,0.054-0.225
		c0.026-0.056,0.057-0.095,0.093-0.117c0.036-0.023,0.08-0.034,0.132-0.034s0.119,0.024,0.2,0.073s0.179,0.103,0.293,0.161
		s0.246,0.112,0.396,0.161s0.326,0.073,0.527,0.073c0.221,0,0.41-0.028,0.566-0.083c0.156-0.056,0.287-0.158,0.391-0.308
		c0.104-0.15,0.182-0.356,0.234-0.62s0.078-0.607,0.078-1.03V77.86c0-0.046,0.013-0.088,0.039-0.127s0.072-0.072,0.137-0.098
		c0.065-0.026,0.151-0.046,0.259-0.059c0.107-0.014,0.243-0.02,0.405-0.02c0.156,0,0.29,0.006,0.4,0.02
		c0.111,0.013,0.197,0.032,0.259,0.059c0.062,0.025,0.107,0.059,0.137,0.098s0.044,0.081,0.044,0.127V87.069z"/>
	<path d="M178.874,89.559c0,0.117-0.006,0.22-0.02,0.308s-0.036,0.161-0.068,0.22s-0.07,0.101-0.112,0.127
		c-0.042,0.025-0.089,0.039-0.142,0.039h-6.064c-0.15,0-0.292-0.051-0.425-0.151c-0.133-0.102-0.2-0.278-0.2-0.532v-11.27
		c0-0.254,0.067-0.432,0.2-0.532c0.133-0.102,0.275-0.151,0.425-0.151h5.996c0.052,0,0.099,0.013,0.142,0.039
		c0.042,0.025,0.077,0.068,0.103,0.127s0.047,0.132,0.063,0.22s0.024,0.196,0.024,0.327c0,0.117-0.008,0.22-0.024,0.308
		s-0.038,0.159-0.063,0.215c-0.026,0.055-0.06,0.096-0.103,0.122c-0.042,0.025-0.089,0.039-0.142,0.039h-4.941v3.965h4.238
		c0.052,0,0.099,0.015,0.142,0.044s0.078,0.069,0.107,0.122c0.029,0.052,0.05,0.123,0.063,0.215c0.013,0.091,0.02,0.198,0.02,0.322
		c0,0.117-0.006,0.218-0.02,0.303c-0.013,0.084-0.034,0.152-0.063,0.205c-0.029,0.052-0.065,0.089-0.107,0.112
		c-0.042,0.022-0.089,0.034-0.142,0.034h-4.238v4.521h5.01c0.052,0,0.099,0.013,0.142,0.039c0.042,0.025,0.08,0.066,0.112,0.122
		c0.033,0.055,0.055,0.127,0.068,0.215S178.874,89.428,178.874,89.559z"/>
</g>
</svg>