<!-- Generator: Adobe Illustrator 22.0.0, SVG Export Plug-In  -->
<svg version="1.1"
	 xmlns="http://www.w3.org/2000/svg" xmlns:xlink="http://www.w3.org/1999/xlink" xmlns:a="http://ns.adobe.com/AdobeSVGViewerExtensions/3.0/"
	 x="0px" y="0px" width="132.025px" height="300.192px" viewBox="0 0 132.025 300.192"
	 style="overflow:scroll;enable-background:new 0 0 132.025 300.192;" xml:space="preserve">
<style type="text/css">
	.st0{fill:url(#SVGID_1_);}
	.st1{fill:#FFFFFF;}
	.st2{fill:#434444;}
	.st3{fill:url(#SVGID_2_);}
	.st4{fill:url(#SVGID_3_);}
	.st5{fill:url(#SVGID_4_);}
	.st6{fill:url(#SVGID_5_);}
	.st7{fill:#767676;}
	.st8{fill:url(#SVGID_6_);}
	.st9{font-family:'ClarendonBT-Roman';}
	.st10{font-size:12.5829px;}
	.st11{fill:url(#SVGID_7_);}
	.st12{fill:url(#SVGID_8_);}
	.st13{fill:url(#SVGID_9_);}
	.st14{fill:url(#SVGID_10_);}
	.st15{font-size:9.7484px;}
	.st16{font-size:8.7359px;}
</style>
<defs>
</defs>
<g>
	<linearGradient id="SVGID_1_" gradientUnits="userSpaceOnUse" x1="66.0161" y1="8.713" x2="66.0161" y2="-0.7653">
		<stop  offset="0" style="stop-color:#202CB9"/>
		<stop  offset="1" style="stop-color:#67B5FB"/>
	</linearGradient>
	<path class="st0" d="M118.186,17.085v-0.471C118.186,7.438,110.748,0,101.572,0H30.46c-9.175,0-16.613,7.438-16.613,16.613v0.471
		H118.186z"/>
	<path class="st1" d="M0,161.974V30.384C0,18.775,9.417,9.369,21.026,9.369h89.983c11.609,0,21.015,9.406,21.015,21.015v131.59H0z"
		/>
	<g>
		<path class="st2" d="M30.509,33.486v-3.483h0.872c0.12,0.839,0.396,1.481,0.829,1.926c0.432,0.445,0.993,0.667,1.684,0.667
			c0.498,0,0.879-0.094,1.143-0.282s0.395-0.461,0.395-0.817c0-0.319-0.101-0.58-0.303-0.78c-0.201-0.201-0.523-0.358-0.967-0.473
			l-1.216-0.319c-0.872-0.229-1.5-0.54-1.884-0.931c-0.383-0.391-0.574-0.915-0.574-1.57c0-0.795,0.244-1.432,0.735-1.911
			c0.491-0.479,1.146-0.719,1.968-0.719c0.407,0,0.788,0.071,1.143,0.212c0.354,0.142,0.698,0.359,1.033,0.654l0.393-0.614h0.67
			v3.195h-0.851c-0.127-0.766-0.396-1.36-0.804-1.782c-0.409-0.422-0.922-0.633-1.54-0.633c-0.45,0-0.8,0.095-1.047,0.286
			s-0.37,0.456-0.37,0.796c0,0.287,0.087,0.516,0.262,0.688c0.174,0.172,0.453,0.307,0.839,0.405l1.511,0.394
			c0.799,0.205,1.396,0.525,1.793,0.961s0.594,0.992,0.594,1.668c0,0.799-0.26,1.451-0.779,1.957s-1.193,0.759-2.022,0.759
			c-0.418,0-0.832-0.086-1.243-0.258c-0.41-0.172-0.826-0.434-1.248-0.786l-0.245,0.792H30.509z"/>
		<path class="st2" d="M37.464,33.486v-0.958h0.437c0.331,0,0.536-0.044,0.616-0.132c0.08-0.088,0.119-0.304,0.119-0.648v-4.971
			c0-0.344-0.039-0.56-0.119-0.648s-0.285-0.132-0.616-0.132h-0.437v-0.952h7.37v3.361h-0.851c-0.021-0.962-0.16-1.604-0.416-1.926
			c-0.257-0.321-0.775-0.482-1.557-0.482h-1.799v2.593h0.425c0.469,0,0.776-0.091,0.921-0.273c0.146-0.183,0.236-0.601,0.273-1.257
			l0.85-0.006v4.233l-0.85-0.006c-0.033-0.725-0.122-1.193-0.268-1.404s-0.451-0.316-0.916-0.316h-0.436v2.967h1.962
			c0.654,0,1.103-0.171,1.347-0.513c0.243-0.342,0.398-1.043,0.463-2.104h0.851v3.576H37.464z"/>
		<path class="st2" d="M52.035,30.218h0.96c-0.073,1.122-0.379,1.99-0.919,2.602s-1.269,0.918-2.188,0.918
			c-0.549,0-1.045-0.096-1.488-0.289c-0.443-0.193-0.84-0.488-1.188-0.885c-0.386-0.43-0.677-0.927-0.874-1.49
			c-0.199-0.563-0.298-1.168-0.298-1.815c0-0.651,0.097-1.248,0.289-1.791c0.192-0.542,0.483-1.033,0.872-1.472
			c0.353-0.397,0.747-0.697,1.184-0.9c0.436-0.203,0.904-0.304,1.406-0.304c0.399,0,0.776,0.071,1.131,0.212
			c0.354,0.142,0.702,0.359,1.043,0.654l0.225-0.755h0.807v3.459h-0.861c-0.088-0.807-0.317-1.432-0.689-1.874
			c-0.373-0.442-0.854-0.664-1.442-0.664c-0.687,0-1.226,0.31-1.616,0.928c-0.391,0.619-0.586,1.475-0.586,2.568
			c0,1.041,0.194,1.844,0.584,2.412c0.389,0.567,0.936,0.851,1.641,0.851c0.549,0,0.993-0.202,1.335-0.605
			S51.927,30.988,52.035,30.218z"/>
		<path class="st2" d="M56.543,31.747c0,0.34,0.041,0.555,0.123,0.645c0.081,0.09,0.29,0.135,0.624,0.135h0.523v0.958h-4.018v-0.958
			h0.436c0.331,0,0.537-0.044,0.616-0.132c0.08-0.088,0.12-0.304,0.12-0.648v-4.971c0-0.344-0.04-0.56-0.12-0.648
			c-0.079-0.088-0.285-0.132-0.616-0.132h-0.436v-0.952h4.475c0.938,0,1.635,0.166,2.088,0.498c0.455,0.332,0.682,0.842,0.682,1.53
			c0,0.606-0.181,1.091-0.542,1.453c-0.362,0.363-0.896,0.591-1.601,0.685c0.535,0.09,0.908,0.261,1.121,0.513
			s0.337,0.689,0.373,1.312l0.049,0.756c0.019,0.295,0.051,0.487,0.098,0.578c0.048,0.09,0.126,0.135,0.235,0.135
			c0.218,0,0.334-0.461,0.349-1.382c0-0.017,0-0.029,0-0.037h0.709c0.007,0.053,0.012,0.11,0.014,0.169
			c0.002,0.06,0.002,0.145,0.002,0.255c0,0.774-0.124,1.339-0.373,1.696s-0.643,0.535-1.18,0.535c-0.443,0-0.791-0.137-1.041-0.412
			c-0.252-0.274-0.385-0.655-0.398-1.143l-0.033-0.989c-0.021-0.66-0.151-1.107-0.389-1.343c-0.238-0.235-0.69-0.353-1.355-0.353
			h-0.534V31.747z M56.543,28.54h1.319c0.531,0,0.92-0.102,1.166-0.304c0.248-0.203,0.371-0.525,0.371-0.968
			c0-0.455-0.118-0.78-0.354-0.977c-0.236-0.196-0.645-0.295-1.222-0.295h-1.281V28.54z"/>
		<path class="st2" d="M62.425,33.486v-0.958h0.437c0.331,0,0.536-0.044,0.616-0.132c0.08-0.088,0.119-0.304,0.119-0.648v-4.971
			c0-0.344-0.039-0.56-0.119-0.648s-0.285-0.132-0.616-0.132h-0.437v-0.952h7.37v3.361h-0.851c-0.021-0.962-0.16-1.604-0.416-1.926
			c-0.257-0.321-0.775-0.482-1.557-0.482h-1.799v2.593h0.425c0.469,0,0.776-0.091,0.921-0.273c0.146-0.183,0.236-0.601,0.273-1.257
			l0.85-0.006v4.233l-0.85-0.006c-0.033-0.725-0.122-1.193-0.268-1.404s-0.451-0.316-0.916-0.316h-0.436v2.967h1.962
			c0.654,0,1.103-0.171,1.347-0.513c0.243-0.342,0.398-1.043,0.463-2.104h0.851v3.576H62.425z"/>
		<path class="st2" d="M73.589,25.972h-0.146c-0.6,0-1.037,0.202-1.309,0.605c-0.273,0.403-0.414,1.058-0.426,1.963h-0.855v-3.496
			h7.054v3.496H77.05c-0.007-0.893-0.146-1.544-0.42-1.954c-0.271-0.409-0.706-0.614-1.303-0.614h-0.163v5.775
			c0,0.34,0.041,0.555,0.123,0.645c0.081,0.09,0.29,0.135,0.624,0.135h0.638v0.958h-4.345v-0.958h0.648
			c0.331,0,0.537-0.044,0.616-0.132c0.08-0.088,0.12-0.304,0.12-0.648V25.972z"/>
		<path class="st2" d="M77.4,33.486v-0.958h0.234c0.283,0,0.495-0.056,0.635-0.169c0.141-0.113,0.262-0.329,0.363-0.648l2.088-6.667
			h1.569l2.235,6.667c0.127,0.389,0.244,0.623,0.352,0.7s0.291,0.117,0.553,0.117h0.224v0.958h-3.876v-0.958h0.605
			c0.244,0,0.408-0.023,0.493-0.071c0.085-0.047,0.128-0.132,0.128-0.255c0-0.045-0.006-0.096-0.019-0.153
			c-0.013-0.058-0.039-0.144-0.079-0.258l-0.322-0.995h-2.469l-0.322,1.063c-0.007,0.028-0.02,0.071-0.037,0.129
			c-0.037,0.119-0.055,0.203-0.055,0.252c0,0.11,0.035,0.186,0.105,0.227c0.071,0.041,0.238,0.062,0.5,0.062h0.577v0.958H77.4z
			 M82.278,29.8l-0.971-2.918L80.425,29.8H82.278z"/>
		<path class="st2" d="M88.601,31.747c0,0.34,0.041,0.555,0.123,0.645c0.082,0.09,0.29,0.135,0.625,0.135h0.523v0.958h-4.018v-0.958
			h0.436c0.33,0,0.536-0.044,0.615-0.132c0.08-0.088,0.121-0.304,0.121-0.648v-4.971c0-0.344-0.041-0.56-0.121-0.648
			c-0.079-0.088-0.285-0.132-0.615-0.132h-0.436v-0.952h4.475c0.938,0,1.634,0.166,2.088,0.498c0.454,0.332,0.682,0.842,0.682,1.53
			c0,0.606-0.182,1.091-0.543,1.453c-0.361,0.363-0.895,0.591-1.6,0.685c0.534,0.09,0.908,0.261,1.12,0.513
			c0.213,0.252,0.337,0.689,0.374,1.312l0.049,0.756c0.018,0.295,0.051,0.487,0.098,0.578s0.125,0.135,0.234,0.135
			c0.219,0,0.334-0.461,0.35-1.382c0-0.017,0-0.029,0-0.037h0.708c0.008,0.053,0.012,0.11,0.014,0.169
			c0.002,0.06,0.003,0.145,0.003,0.255c0,0.774-0.125,1.339-0.373,1.696c-0.25,0.356-0.643,0.535-1.181,0.535
			c-0.443,0-0.79-0.137-1.041-0.412s-0.384-0.655-0.397-1.143l-0.033-0.989c-0.021-0.66-0.152-1.107-0.39-1.343
			c-0.238-0.235-0.69-0.353-1.354-0.353h-0.535V31.747z M88.601,28.54h1.32c0.53,0,0.919-0.102,1.166-0.304s0.371-0.525,0.371-0.968
			c0-0.455-0.119-0.78-0.354-0.977c-0.236-0.196-0.644-0.295-1.222-0.295h-1.281V28.54z"/>
		<path class="st2" d="M94.505,33.486v-0.958h0.479c0.33,0,0.536-0.044,0.616-0.132c0.079-0.088,0.119-0.304,0.119-0.648v-4.971
			c0-0.344-0.04-0.56-0.119-0.648c-0.08-0.088-0.286-0.132-0.616-0.132h-0.479v-0.952h4.044v0.952h-0.479
			c-0.334,0-0.541,0.044-0.621,0.132s-0.12,0.304-0.12,0.648v4.971c0,0.344,0.04,0.56,0.12,0.648
			c0.08,0.088,0.287,0.132,0.621,0.132h0.479v0.958H94.505z"/>
		<path class="st2" d="M98.67,33.486v-0.958h0.234c0.283,0,0.495-0.056,0.635-0.169c0.141-0.113,0.261-0.329,0.363-0.648
			l2.088-6.667h1.569l2.235,6.667c0.127,0.389,0.244,0.623,0.352,0.7s0.291,0.117,0.553,0.117h0.224v0.958h-3.876v-0.958h0.605
			c0.243,0,0.408-0.023,0.493-0.071c0.086-0.047,0.128-0.132,0.128-0.255c0-0.045-0.006-0.096-0.019-0.153
			c-0.013-0.058-0.039-0.144-0.079-0.258l-0.321-0.995h-2.47l-0.321,1.063c-0.008,0.028-0.021,0.071-0.038,0.129
			c-0.037,0.119-0.055,0.203-0.055,0.252c0,0.11,0.035,0.186,0.106,0.227c0.07,0.041,0.236,0.062,0.498,0.062h0.578v0.958H98.67z
			 M103.549,29.8l-0.971-2.918l-0.883,2.918H103.549z"/>
		<path class="st2" d="M26.857,46.847c0,0.34,0.041,0.555,0.123,0.645c0.081,0.09,0.289,0.135,0.623,0.135h0.649v0.958h-4.355
			v-0.958h0.648c0.331,0,0.536-0.044,0.616-0.132c0.08-0.088,0.119-0.304,0.119-0.648v-1.794l-1.853-3.084
			c-0.196-0.328-0.374-0.555-0.534-0.682s-0.342-0.191-0.545-0.191h-0.371v-0.952h3.963v0.952h-0.545
			c-0.171,0-0.295,0.022-0.373,0.065s-0.117,0.109-0.117,0.2c0,0.057,0.012,0.12,0.037,0.187c0.025,0.068,0.064,0.145,0.115,0.23
			l1.265,1.979l1.335-2.052c0.055-0.086,0.094-0.157,0.115-0.212s0.032-0.111,0.032-0.169c0-0.074-0.034-0.13-0.104-0.169
			s-0.169-0.059-0.3-0.059h-0.66v-0.952h3.473v0.952h-0.256c-0.196,0-0.355,0.038-0.477,0.114c-0.122,0.076-0.252,0.225-0.391,0.446
			l-2.234,3.397V46.847z"/>
		<path class="st2" d="M33.9,48.586v-0.958h0.436c0.331,0,0.537-0.044,0.616-0.132c0.08-0.088,0.12-0.304,0.12-0.648v-4.971
			c0-0.344-0.04-0.56-0.12-0.648c-0.079-0.088-0.285-0.132-0.616-0.132H33.9v-0.952h4.252c1.309,0,2.297,0.356,2.968,1.069
			c0.671,0.712,1.006,1.761,1.006,3.146s-0.336,2.435-1.009,3.152c-0.672,0.717-1.66,1.075-2.965,1.075H33.9z M36.647,47.627h0.981
			c0.585,0,1.023-0.051,1.313-0.154c0.291-0.102,0.542-0.276,0.753-0.522s0.377-0.598,0.498-1.057
			c0.122-0.459,0.183-0.971,0.183-1.536s-0.061-1.075-0.183-1.53c-0.121-0.455-0.287-0.805-0.498-1.051s-0.462-0.421-0.753-0.525
			c-0.29-0.104-0.729-0.157-1.313-0.157h-0.981V47.627z"/>
		<path class="st2" d="M42.976,48.586v-0.958h0.479c0.331,0,0.536-0.044,0.616-0.132c0.08-0.088,0.119-0.304,0.119-0.648v-4.971
			c0-0.344-0.039-0.56-0.119-0.648s-0.285-0.132-0.616-0.132h-0.479v-0.952h4.045v0.952h-0.48c-0.334,0-0.541,0.044-0.621,0.132
			s-0.12,0.304-0.12,0.648v4.971c0,0.344,0.04,0.56,0.12,0.648c0.08,0.088,0.287,0.132,0.621,0.132h0.48v0.958H42.976z"/>
		<path class="st2" d="M47.788,48.586v-3.483h0.873c0.119,0.839,0.396,1.481,0.828,1.926c0.433,0.445,0.994,0.667,1.685,0.667
			c0.497,0,0.878-0.094,1.142-0.282s0.396-0.461,0.396-0.817c0-0.319-0.101-0.58-0.303-0.78s-0.524-0.358-0.968-0.473l-1.215-0.319
			c-0.873-0.229-1.5-0.54-1.884-0.931s-0.575-0.915-0.575-1.57c0-0.795,0.245-1.432,0.736-1.911c0.49-0.479,1.146-0.719,1.967-0.719
			c0.408,0,0.789,0.071,1.143,0.212c0.354,0.142,0.699,0.359,1.033,0.654l0.393-0.614h0.67v3.195h-0.85
			c-0.127-0.766-0.396-1.36-0.805-1.782c-0.408-0.422-0.922-0.633-1.539-0.633c-0.451,0-0.801,0.095-1.047,0.286
			c-0.248,0.19-0.371,0.456-0.371,0.796c0,0.287,0.088,0.516,0.262,0.688s0.454,0.307,0.84,0.405l1.51,0.394
			c0.799,0.205,1.396,0.525,1.793,0.961s0.594,0.992,0.594,1.668c0,0.799-0.26,1.451-0.779,1.957s-1.193,0.759-2.021,0.759
			c-0.418,0-0.832-0.086-1.243-0.258c-0.411-0.172-0.827-0.434-1.249-0.786l-0.244,0.792H47.788z"/>
		<path class="st2" d="M54.745,48.586v-0.958h0.436c0.33,0,0.536-0.044,0.615-0.132c0.08-0.088,0.121-0.304,0.121-0.648v-4.971
			c0-0.344-0.041-0.56-0.121-0.648c-0.079-0.088-0.285-0.132-0.615-0.132h-0.436v-0.952h7.369v3.361h-0.85
			c-0.022-0.962-0.162-1.604-0.418-1.926c-0.256-0.321-0.774-0.482-1.557-0.482h-1.799v2.593h0.426c0.469,0,0.775-0.091,0.922-0.273
			c0.145-0.183,0.236-0.601,0.271-1.257l0.852-0.006v4.233L59.11,46.38c-0.032-0.725-0.121-1.193-0.267-1.404
			s-0.45-0.316-0.916-0.316h-0.437v2.967h1.963c0.654,0,1.104-0.171,1.347-0.513c0.243-0.342,0.397-1.043,0.464-2.104h0.85v3.576
			H54.745z"/>
		<path class="st2" d="M70.787,48.586h-1.579l-3.725-6.881v5.143c0,0.344,0.039,0.56,0.119,0.648
			c0.08,0.088,0.285,0.132,0.616,0.132h0.513v0.958h-3.68v-0.958h0.523c0.33,0,0.536-0.044,0.615-0.132
			c0.08-0.088,0.121-0.304,0.121-0.648v-4.971c0-0.344-0.041-0.56-0.121-0.648c-0.079-0.088-0.285-0.132-0.615-0.132h-0.48v-0.952
			h3.206l3.313,6.125v-4.393c0-0.344-0.039-0.56-0.119-0.648s-0.285-0.132-0.616-0.132h-0.528v-0.952h3.543v0.952h-0.359
			c-0.335,0-0.543,0.045-0.625,0.135c-0.082,0.09-0.122,0.305-0.122,0.645V48.586z M66.175,39.019h-0.457
			c0.098-0.549,0.25-0.956,0.455-1.223c0.205-0.266,0.475-0.399,0.809-0.399c0.08,0,0.154,0.005,0.221,0.015
			c0.068,0.01,0.135,0.026,0.199,0.046l0.66,0.19c0.018,0.004,0.038,0.008,0.061,0.013c0.09,0.024,0.152,0.037,0.185,0.037
			c0.138,0,0.247-0.044,0.327-0.132c0.08-0.088,0.146-0.232,0.201-0.433h0.447c-0.094,0.532-0.247,0.938-0.457,1.216
			c-0.211,0.278-0.473,0.418-0.785,0.418c-0.055,0-0.112-0.005-0.172-0.016c-0.061-0.01-0.129-0.025-0.205-0.046l-0.637-0.203
			c-0.088-0.024-0.154-0.041-0.199-0.049c-0.046-0.008-0.083-0.012-0.112-0.012c-0.146,0-0.263,0.048-0.352,0.144
			C66.275,38.683,66.212,38.827,66.175,39.019z"/>
		<path class="st2" d="M71.932,48.586v-0.958h0.234c0.284,0,0.495-0.056,0.636-0.169c0.139-0.113,0.26-0.329,0.361-0.648
			l2.088-6.667h1.57l2.235,6.667c0.127,0.389,0.244,0.623,0.352,0.7c0.106,0.078,0.292,0.117,0.554,0.117h0.223v0.958H76.31v-0.958
			h0.604c0.243,0,0.407-0.023,0.493-0.071c0.086-0.047,0.129-0.132,0.129-0.255c0-0.045-0.007-0.096-0.02-0.153
			c-0.013-0.058-0.039-0.144-0.079-0.258l-0.321-0.995h-2.47l-0.321,1.063c-0.008,0.028-0.021,0.071-0.039,0.129
			c-0.035,0.119-0.055,0.203-0.055,0.252c0,0.11,0.036,0.186,0.107,0.227c0.07,0.041,0.236,0.062,0.498,0.062h0.578v0.958H71.932z
			 M76.811,44.899l-0.97-2.918l-0.884,2.918H76.811z"/>
		<path class="st2" d="M80.387,48.586v-0.958h0.437c0.33,0,0.535-0.044,0.615-0.132c0.08-0.088,0.12-0.304,0.12-0.648v-4.971
			c0-0.344-0.04-0.56-0.12-0.648s-0.285-0.132-0.615-0.132h-0.437v-0.952h4.252c1.308,0,2.298,0.356,2.968,1.069
			c0.67,0.712,1.006,1.761,1.006,3.146s-0.336,2.435-1.008,3.152c-0.673,0.717-1.662,1.075-2.966,1.075H80.387z M83.134,47.627
			h0.981c0.585,0,1.022-0.051,1.313-0.154c0.291-0.102,0.541-0.276,0.752-0.522s0.377-0.598,0.499-1.057
			c0.122-0.459,0.183-0.971,0.183-1.536s-0.061-1.075-0.183-1.53s-0.288-0.805-0.499-1.051s-0.461-0.421-0.752-0.525
			s-0.729-0.157-1.313-0.157h-0.981V47.627z"/>
		<path class="st2" d="M89.588,44.359c0-1.335,0.379-2.412,1.137-3.229c0.758-0.817,1.755-1.226,2.989-1.226
			c1.24,0,2.236,0.409,2.99,1.226c0.754,0.817,1.132,1.893,1.132,3.229c0,1.339-0.378,2.419-1.134,3.238
			c-0.757,0.819-1.752,1.229-2.988,1.229c-1.234,0-2.231-0.411-2.989-1.232S89.588,45.694,89.588,44.359z M91.349,44.359
			c0,1.089,0.209,1.938,0.627,2.547c0.418,0.608,0.998,0.912,1.738,0.912c0.742,0,1.32-0.303,1.736-0.909
			c0.417-0.606,0.625-1.456,0.625-2.55c0-1.089-0.208-1.937-0.622-2.541s-0.994-0.906-1.739-0.906c-0.74,0-1.32,0.302-1.738,0.906
			S91.349,43.269,91.349,44.359z"/>
		<path class="st2" d="M101.243,46.847c0,0.34,0.041,0.555,0.122,0.645c0.082,0.09,0.29,0.135,0.624,0.135h0.523v0.958h-4.018
			v-0.958h0.437c0.33,0,0.536-0.044,0.616-0.132c0.079-0.088,0.119-0.304,0.119-0.648v-4.971c0-0.344-0.04-0.56-0.119-0.648
			c-0.08-0.088-0.286-0.132-0.616-0.132h-0.437v-0.952h4.476c0.938,0,1.634,0.166,2.088,0.498c0.454,0.332,0.682,0.842,0.682,1.53
			c0,0.606-0.181,1.091-0.543,1.453c-0.361,0.363-0.895,0.591-1.6,0.685c0.534,0.09,0.907,0.261,1.12,0.513s0.337,0.689,0.374,1.312
			l0.049,0.756c0.018,0.295,0.051,0.487,0.098,0.578c0.048,0.09,0.126,0.135,0.234,0.135c0.219,0,0.335-0.461,0.35-1.382
			c0-0.017,0-0.029,0-0.037h0.708c0.008,0.053,0.012,0.11,0.014,0.169c0.002,0.06,0.003,0.145,0.003,0.255
			c0,0.774-0.125,1.339-0.373,1.696c-0.249,0.356-0.643,0.535-1.181,0.535c-0.443,0-0.79-0.137-1.041-0.412
			s-0.384-0.655-0.398-1.143l-0.032-0.989c-0.021-0.66-0.151-1.107-0.39-1.343c-0.238-0.235-0.689-0.353-1.354-0.353h-0.534V46.847z
			 M101.243,43.64h1.318c0.531,0,0.92-0.102,1.167-0.304s0.371-0.525,0.371-0.968c0-0.455-0.118-0.78-0.354-0.977
			c-0.236-0.196-0.644-0.295-1.222-0.295h-1.28V43.64z"/>
		<path class="st2" d="M106.71,48.586v-0.958h0.234c0.283,0,0.495-0.056,0.635-0.169c0.141-0.113,0.261-0.329,0.363-0.648
			l2.088-6.667h1.569l2.235,6.667c0.127,0.389,0.244,0.623,0.352,0.7s0.291,0.117,0.553,0.117h0.224v0.958h-3.876v-0.958h0.605
			c0.243,0,0.408-0.023,0.493-0.071c0.086-0.047,0.128-0.132,0.128-0.255c0-0.045-0.006-0.096-0.019-0.153
			c-0.013-0.058-0.039-0.144-0.079-0.258l-0.321-0.995h-2.47l-0.321,1.063c-0.008,0.028-0.021,0.071-0.038,0.129
			c-0.037,0.119-0.055,0.203-0.055,0.252c0,0.11,0.035,0.186,0.106,0.227c0.07,0.041,0.236,0.062,0.498,0.062h0.578v0.958H106.71z
			 M111.589,44.899l-0.971-2.918l-0.883,2.918H111.589z"/>
		<path class="st2" d="M19.56,63.685v-0.958h0.437c0.331,0,0.536-0.044,0.616-0.132c0.08-0.088,0.119-0.304,0.119-0.648v-4.971
			c0-0.344-0.039-0.56-0.119-0.648s-0.285-0.132-0.616-0.132H19.56v-0.952h4.252c1.309,0,2.298,0.356,2.969,1.069
			c0.67,0.712,1.006,1.761,1.006,3.146s-0.336,2.435-1.009,3.152s-1.661,1.075-2.966,1.075H19.56z M22.308,62.726h0.98
			c0.586,0,1.023-0.051,1.314-0.154c0.291-0.102,0.541-0.276,0.752-0.522s0.377-0.598,0.498-1.057
			c0.123-0.459,0.184-0.971,0.184-1.536s-0.061-1.075-0.184-1.53c-0.121-0.455-0.287-0.805-0.498-1.051s-0.461-0.421-0.752-0.525
			s-0.729-0.157-1.314-0.157h-0.98V62.726z"/>
		<path class="st2" d="M28.614,63.685v-0.958h0.436c0.331,0,0.537-0.044,0.616-0.132c0.08-0.088,0.12-0.304,0.12-0.648v-4.971
			c0-0.344-0.04-0.56-0.12-0.648c-0.079-0.088-0.285-0.132-0.616-0.132h-0.436v-0.952h7.369v3.361h-0.85
			c-0.021-0.962-0.161-1.604-0.417-1.926c-0.257-0.321-0.774-0.482-1.557-0.482h-1.799v2.593h0.425c0.469,0,0.776-0.091,0.922-0.273
			c0.145-0.183,0.236-0.601,0.272-1.257l0.851-0.006v4.233l-0.851-0.006c-0.032-0.725-0.122-1.193-0.267-1.404
			c-0.146-0.211-0.451-0.316-0.916-0.316h-0.437v2.967h1.962c0.654,0,1.104-0.171,1.348-0.513c0.242-0.342,0.397-1.043,0.463-2.104
			h0.85v3.576H28.614z"/>
		<path class="st2" d="M43.273,61.946c0,0.34,0.041,0.555,0.123,0.645c0.081,0.09,0.289,0.135,0.623,0.135h0.523v0.958h-4.018
			v-0.958h0.437c0.331,0,0.536-0.044,0.616-0.132c0.08-0.088,0.119-0.304,0.119-0.648v-4.971c0-0.344-0.039-0.56-0.119-0.648
			s-0.285-0.132-0.616-0.132h-0.437v-0.952h3.941c1.01,0,1.772,0.195,2.287,0.583c0.514,0.39,0.771,0.967,0.771,1.733
			c0,0.417-0.07,0.782-0.211,1.094c-0.139,0.311-0.352,0.575-0.635,0.792c-0.203,0.151-0.486,0.26-0.85,0.326
			s-0.871,0.098-1.521,0.098h-1.035V61.946z M43.273,58.917h0.746c0.688,0,1.17-0.104,1.447-0.311
			c0.278-0.207,0.418-0.556,0.418-1.047c0-0.504-0.135-0.857-0.401-1.06c-0.267-0.203-0.784-0.304-1.551-0.304h-0.659V58.917z"/>
		<path class="st2" d="M47.759,63.685v-0.958h0.234c0.283,0,0.494-0.056,0.635-0.169c0.14-0.113,0.261-0.329,0.362-0.648
			l2.088-6.667h1.569l2.236,6.667c0.127,0.389,0.244,0.623,0.352,0.7c0.106,0.078,0.291,0.117,0.553,0.117h0.223v0.958h-3.875
			v-0.958h0.605c0.243,0,0.407-0.023,0.492-0.071c0.086-0.047,0.129-0.132,0.129-0.255c0-0.045-0.006-0.096-0.02-0.153
			c-0.012-0.058-0.039-0.144-0.078-0.258l-0.322-0.995h-2.469l-0.322,1.063c-0.008,0.028-0.02,0.071-0.038,0.129
			c-0.036,0.119-0.055,0.203-0.055,0.252c0,0.11,0.036,0.186,0.106,0.227s0.237,0.062,0.499,0.062h0.577v0.958H47.759z
			 M50.773,54.309l1.521-1.813c0.178-0.217,0.332-0.37,0.461-0.458c0.129-0.088,0.256-0.132,0.384-0.132
			c0.171,0,0.314,0.064,0.431,0.193s0.174,0.286,0.174,0.47c0,0.147-0.044,0.279-0.133,0.396c-0.09,0.117-0.235,0.232-0.439,0.347
			L51.4,54.309H50.773z M52.638,59.998l-0.971-2.918l-0.883,2.918H52.638z"/>
		<path class="st2" d="M62.776,63.734l-0.398-0.701c-0.342,0.307-0.697,0.535-1.068,0.682c-0.37,0.147-0.773,0.221-1.209,0.221
			c-0.514,0-0.99-0.103-1.432-0.307c-0.441-0.205-0.835-0.506-1.18-0.903c-0.371-0.422-0.652-0.909-0.843-1.462
			c-0.19-0.553-0.286-1.155-0.286-1.806s0.1-1.256,0.297-1.815c0.198-0.559,0.486-1.05,0.864-1.472
			c0.353-0.389,0.747-0.683,1.186-0.882c0.438-0.198,0.913-0.298,1.426-0.298c0.429,0,0.819,0.076,1.172,0.228
			s0.683,0.385,0.992,0.7l0.315-0.725h0.791v3.293h-0.861c-0.146-0.778-0.416-1.383-0.813-1.815s-0.872-0.648-1.428-0.648
			c-0.665,0-1.195,0.31-1.59,0.928c-0.394,0.619-0.591,1.454-0.591,2.507c0,1.069,0.197,1.896,0.591,2.482
			c0.395,0.586,0.95,0.879,1.666,0.879c0.516,0,0.922-0.136,1.219-0.409c0.296-0.272,0.443-0.644,0.443-1.115v-0.479
			c0-0.295-0.039-0.484-0.119-0.568s-0.322-0.126-0.725-0.126h-0.475v-0.952h3.969v0.952h-0.486c-0.258,0-0.424,0.047-0.498,0.141
			s-0.111,0.312-0.111,0.651v2.82H62.776z"/>
		<path class="st2" d="M65.044,63.685v-0.958h0.48c0.33,0,0.535-0.044,0.615-0.132c0.08-0.088,0.12-0.304,0.12-0.648v-4.971
			c0-0.344-0.04-0.56-0.12-0.648s-0.285-0.132-0.615-0.132h-0.48v-0.952h4.045v0.952h-0.479c-0.335,0-0.542,0.044-0.622,0.132
			s-0.119,0.304-0.119,0.648v4.971c0,0.344,0.039,0.56,0.119,0.648c0.08,0.088,0.287,0.132,0.622,0.132h0.479v0.958H65.044z"/>
		<path class="st2" d="M77.238,63.685h-1.579l-3.725-6.881v5.143c0,0.344,0.039,0.56,0.119,0.648
			c0.08,0.088,0.285,0.132,0.616,0.132h0.513v0.958h-3.68v-0.958h0.523c0.33,0,0.536-0.044,0.615-0.132
			c0.08-0.088,0.121-0.304,0.121-0.648v-4.971c0-0.344-0.041-0.56-0.121-0.648c-0.079-0.088-0.285-0.132-0.615-0.132h-0.48v-0.952
			h3.206l3.313,6.125v-4.393c0-0.344-0.039-0.56-0.119-0.648s-0.285-0.132-0.616-0.132h-0.528v-0.952h3.543v0.952h-0.359
			c-0.335,0-0.543,0.045-0.625,0.135c-0.082,0.09-0.122,0.305-0.122,0.645V63.685z"/>
		<path class="st2" d="M78.383,63.685v-0.958h0.234c0.284,0,0.495-0.056,0.636-0.169c0.139-0.113,0.26-0.329,0.361-0.648
			l2.088-6.667h1.57l2.235,6.667c0.127,0.389,0.244,0.623,0.352,0.7c0.106,0.078,0.292,0.117,0.554,0.117h0.223v0.958h-3.875v-0.958
			h0.604c0.243,0,0.407-0.023,0.493-0.071c0.086-0.047,0.129-0.132,0.129-0.255c0-0.045-0.007-0.096-0.02-0.153
			c-0.013-0.058-0.039-0.144-0.079-0.258l-0.321-0.995h-2.47l-0.321,1.063c-0.008,0.028-0.021,0.071-0.039,0.129
			c-0.035,0.119-0.055,0.203-0.055,0.252c0,0.11,0.036,0.186,0.107,0.227c0.07,0.041,0.236,0.062,0.498,0.062h0.578v0.958H78.383z
			 M83.262,59.998l-0.97-2.918l-0.884,2.918H83.262z"/>
		<path class="st2" d="M92.802,63.685l-1.586-6.353c-0.121-0.483-0.24-0.793-0.36-0.931s-0.291-0.206-0.513-0.206h-0.18v-0.952
			h3.194v0.952h-0.354c-0.16,0-0.275,0.032-0.349,0.095c-0.073,0.064-0.108,0.163-0.108,0.298c0,0.053,0.002,0.1,0.008,0.141
			c0.005,0.041,0.014,0.082,0.024,0.123l1.172,4.768l1.341-4.35c-0.064-0.385-0.164-0.66-0.295-0.826s-0.316-0.249-0.555-0.249
			h-0.279v-0.952h3.281v0.952h-0.414c-0.191,0-0.328,0.026-0.406,0.077s-0.117,0.14-0.117,0.267c0,0.058,0.018,0.152,0.051,0.283
			c0.006,0.029,0.012,0.051,0.016,0.067l1.264,4.608l1.113-4.294c0.033-0.119,0.059-0.232,0.076-0.341s0.027-0.204,0.027-0.286
			c0-0.131-0.051-0.228-0.152-0.289s-0.26-0.092-0.475-0.092H97.86v-0.952h3.068v0.952h-0.244c-0.189,0-0.344,0.067-0.461,0.2
			c-0.119,0.133-0.219,0.354-0.303,0.661l-1.707,6.629h-1.471l-1.172-4.516l-1.354,4.516H92.802z"/>
		<path class="st2" d="M101.261,63.685v-0.958h0.437c0.33,0,0.536-0.044,0.616-0.132c0.079-0.088,0.119-0.304,0.119-0.648v-4.971
			c0-0.344-0.04-0.56-0.119-0.648c-0.08-0.088-0.286-0.132-0.616-0.132h-0.437v-0.952h7.37v3.361h-0.851
			c-0.021-0.962-0.16-1.604-0.417-1.926c-0.256-0.321-0.774-0.482-1.556-0.482h-1.799v2.593h0.425c0.469,0,0.776-0.091,0.921-0.273
			c0.146-0.183,0.236-0.601,0.273-1.257l0.85-0.006v4.233l-0.85-0.006c-0.033-0.725-0.122-1.193-0.268-1.404
			s-0.45-0.316-0.916-0.316h-0.436v2.967h1.962c0.654,0,1.104-0.171,1.347-0.513c0.243-0.342,0.397-1.043,0.463-2.104h0.851v3.576
			H101.261z"/>
		<path class="st2" d="M109.689,63.685v-0.958h0.437c0.33,0,0.536-0.044,0.616-0.132c0.079-0.088,0.119-0.304,0.119-0.648v-4.971
			c0-0.344-0.04-0.56-0.119-0.648c-0.08-0.088-0.286-0.132-0.616-0.132h-0.437v-0.952h4.323c0.938,0,1.634,0.172,2.088,0.516
			s0.681,0.873,0.681,1.585c0,0.492-0.122,0.888-0.367,1.189c-0.245,0.301-0.626,0.525-1.143,0.673
			c0.607,0.139,1.061,0.389,1.36,0.75s0.449,0.84,0.449,1.438c0,0.823-0.248,1.411-0.746,1.763s-1.343,0.528-2.535,0.528H109.689z
			 M112.437,58.825h1.073c0.607,0,1.041-0.102,1.303-0.304s0.393-0.538,0.393-1.004c0-0.467-0.12-0.802-0.359-1.005
			c-0.24-0.203-0.646-0.304-1.216-0.304h-1.193V58.825z M112.437,62.739h1.237c0.64,0,1.096-0.115,1.368-0.344
			c0.272-0.229,0.408-0.608,0.408-1.137s-0.141-0.904-0.422-1.127c-0.282-0.223-0.766-0.335-1.453-0.335h-1.139V62.739z"/>
	</g>
	<g>
		<linearGradient id="SVGID_2_" gradientUnits="userSpaceOnUse" x1="103.899" y1="213.4965" x2="21.6311" y2="131.2286">
			<stop  offset="0" style="stop-color:#67B5FB"/>
			<stop  offset="1" style="stop-color:#202CB9"/>
		</linearGradient>
		<path class="st3" d="M66.014,227.951c36.457,0,66.011-29.554,66.011-66.011H0.003C0.003,198.397,29.557,227.951,66.014,227.951z"
			/>
		<radialGradient id="SVGID_3_" cx="79.5067" cy="178.6427" r="47.8102" gradientUnits="userSpaceOnUse">
			<stop  offset="0" style="stop-color:#000000"/>
			<stop  offset="0.1832" style="stop-color:#333333"/>
			<stop  offset="0.5888" style="stop-color:#A0A0A0"/>
			<stop  offset="0.8695" style="stop-color:#E4E4E4"/>
			<stop  offset="1" style="stop-color:#FFFFFF"/>
		</radialGradient>
		<circle class="st4" cx="79.507" cy="178.643" r="47.81"/>
		<circle class="st1" cx="66.014" cy="161.94" r="48.901"/>
		
			<radialGradient id="SVGID_4_" cx="-941.1266" cy="164.3549" r="38.9231" gradientTransform="matrix(-1 0 0 -1 -867.7991 332.4173)" gradientUnits="userSpaceOnUse">
			<stop  offset="0" style="stop-color:#000000"/>
			<stop  offset="0.1832" style="stop-color:#333333"/>
			<stop  offset="0.5888" style="stop-color:#A0A0A0"/>
			<stop  offset="0.8695" style="stop-color:#E4E4E4"/>
			<stop  offset="1" style="stop-color:#FFFFFF"/>
		</radialGradient>
		<circle class="st5" cx="73.328" cy="168.062" r="38.923"/>
		<linearGradient id="SVGID_5_" gradientUnits="userSpaceOnUse" x1="88.7551" y1="184.6812" x2="33.2069" y2="129.133">
			<stop  offset="0" style="stop-color:#67B5FB"/>
			<stop  offset="1" style="stop-color:#202CB9"/>
		</linearGradient>
		<circle class="st6" cx="66.014" cy="161.94" r="35.043"/>
		<g>
			<g>
				<path class="st1" d="M37.13,160.01v0.895c0,0.267,0.035,0.434,0.105,0.502c0.07,0.068,0.252,0.102,0.543,0.102h0.266v0.743
					h-3.31v-0.743h0.385c0.292,0,0.474-0.034,0.544-0.102c0.07-0.068,0.105-0.236,0.105-0.502v-3.851
					c0-0.267-0.035-0.434-0.105-0.502c-0.07-0.068-0.252-0.102-0.544-0.102h-0.385v-0.738h3.356v0.738h-0.313
					c-0.291,0-0.473,0.034-0.543,0.102c-0.07,0.068-0.105,0.236-0.105,0.502v1.842l2.227-2.065c0.058-0.061,0.1-0.11,0.125-0.148
					s0.039-0.073,0.039-0.104c0-0.044-0.031-0.077-0.094-0.098s-0.162-0.031-0.297-0.031h-0.438v-0.738h3.334v0.738H41.8
					c-0.26,0-0.516,0.064-0.768,0.193c-0.252,0.128-0.555,0.354-0.911,0.678l-0.962,0.875l2.006,2.818
					c0.145,0.2,0.275,0.333,0.395,0.397c0.118,0.065,0.303,0.098,0.553,0.098h0.336v0.743h-3.674v-0.743h0.529
					c0.173,0,0.285-0.013,0.336-0.038c0.052-0.025,0.078-0.071,0.078-0.138c0-0.042-0.01-0.086-0.029-0.133
					c-0.02-0.048-0.059-0.113-0.115-0.195l-1.361-1.933L37.13,160.01z"/>
				<path class="st1" d="M41.804,162.251v-0.743h0.207c0.25,0,0.438-0.043,0.561-0.131c0.123-0.087,0.23-0.254,0.32-0.502
					l1.842-5.165h1.385l1.973,5.165c0.111,0.301,0.215,0.482,0.311,0.542c0.094,0.061,0.257,0.09,0.488,0.09h0.196v0.743h-3.419
					v-0.743H46.2c0.215,0,0.359-0.018,0.436-0.055c0.075-0.036,0.113-0.102,0.113-0.197c0-0.035-0.006-0.075-0.018-0.119
					c-0.011-0.044-0.034-0.111-0.069-0.2l-0.284-0.771H44.2l-0.284,0.824c-0.007,0.022-0.019,0.055-0.034,0.1
					c-0.031,0.092-0.048,0.157-0.048,0.195c0,0.086,0.031,0.145,0.094,0.176s0.21,0.047,0.44,0.047h0.51v0.743H41.804z
					 M46.109,159.395l-0.855-2.261l-0.779,2.261H46.109z"/>
				<path class="st1" d="M51.327,156.43h-0.129c-0.529,0-0.914,0.156-1.154,0.469c-0.241,0.313-0.366,0.819-0.376,1.521h-0.755
					v-2.708h6.224v2.708h-0.755c-0.007-0.692-0.13-1.196-0.371-1.514c-0.24-0.317-0.623-0.476-1.148-0.476h-0.145v4.474
					c0,0.264,0.035,0.43,0.107,0.5s0.256,0.104,0.551,0.104h0.563v0.743h-3.832v-0.743h0.572c0.291,0,0.473-0.034,0.543-0.102
					c0.07-0.068,0.105-0.236,0.105-0.502V156.43z"/>
				<path class="st1" d="M55.594,162.251v-0.743h0.385c0.292,0,0.474-0.034,0.544-0.102c0.07-0.068,0.105-0.236,0.105-0.502v-3.851
					c0-0.267-0.035-0.434-0.105-0.502c-0.07-0.068-0.252-0.102-0.544-0.102h-0.385v-0.738h3.544v0.738h-0.461
					c-0.295,0-0.479,0.035-0.551,0.104s-0.108,0.236-0.108,0.5v1.447h2.856v-1.447c0-0.267-0.035-0.434-0.105-0.502
					c-0.07-0.068-0.252-0.102-0.543-0.102h-0.467v-0.738h3.549v0.738h-0.385c-0.295,0-0.479,0.035-0.55,0.104
					c-0.072,0.07-0.108,0.236-0.108,0.5v3.851c0,0.264,0.036,0.43,0.108,0.5c0.071,0.07,0.255,0.104,0.55,0.104h0.385v0.743h-3.549
					v-0.743h0.467c0.291,0,0.473-0.034,0.543-0.102c0.07-0.068,0.105-0.236,0.105-0.502v-1.618h-2.856v1.618
					c0,0.264,0.036,0.43,0.108,0.5s0.256,0.104,0.551,0.104h0.461v0.743H55.594z"/>
				<path class="st1" d="M63.761,162.251v-0.743h0.385c0.291,0,0.473-0.034,0.543-0.102c0.07-0.068,0.105-0.236,0.105-0.502v-3.851
					c0-0.267-0.035-0.434-0.105-0.502c-0.07-0.068-0.252-0.102-0.543-0.102h-0.385v-0.738h6.502v2.604h-0.75
					c-0.02-0.746-0.143-1.243-0.368-1.492s-0.684-0.374-1.373-0.374h-1.587v2.009h0.375c0.414,0,0.685-0.071,0.813-0.212
					c0.129-0.141,0.209-0.466,0.24-0.974l0.75-0.005v3.28l-0.75-0.005c-0.028-0.562-0.107-0.924-0.235-1.087
					s-0.397-0.245-0.808-0.245h-0.385v2.299h1.73c0.578,0,0.974-0.132,1.188-0.397c0.215-0.265,0.351-0.808,0.409-1.63h0.75v2.771
					H63.761z"/>
				<path class="st1" d="M73.62,160.904c0,0.264,0.035,0.43,0.107,0.5s0.256,0.104,0.551,0.104h0.462v0.743h-3.544v-0.743h0.385
					c0.291,0,0.473-0.034,0.543-0.102c0.07-0.068,0.105-0.236,0.105-0.502v-3.851c0-0.267-0.035-0.434-0.105-0.502
					c-0.07-0.068-0.252-0.102-0.543-0.102h-0.385v-0.738h3.948c0.827,0,1.441,0.128,1.842,0.385
					c0.401,0.257,0.602,0.652,0.602,1.186c0,0.47-0.159,0.845-0.479,1.125s-0.79,0.458-1.411,0.531
					c0.471,0.07,0.801,0.202,0.988,0.397s0.297,0.534,0.329,1.016l0.043,0.585c0.017,0.229,0.045,0.378,0.087,0.448
					c0.041,0.07,0.11,0.104,0.207,0.104c0.191,0,0.295-0.357,0.307-1.071c0-0.013,0-0.022,0-0.029h0.626
					c0.007,0.042,0.011,0.085,0.013,0.131c0.001,0.046,0.002,0.112,0.002,0.198c0,0.6-0.109,1.038-0.33,1.314
					c-0.219,0.276-0.566,0.414-1.041,0.414c-0.391,0-0.697-0.106-0.918-0.319c-0.222-0.213-0.339-0.508-0.352-0.886l-0.029-0.766
					c-0.02-0.511-0.134-0.857-0.344-1.04s-0.608-0.274-1.195-0.274H73.62V160.904z M73.62,158.42h1.164
					c0.468,0,0.811-0.079,1.029-0.236c0.218-0.157,0.326-0.407,0.326-0.75c0-0.353-0.104-0.604-0.313-0.757
					c-0.208-0.152-0.567-0.229-1.077-0.229h-1.13V158.42z"/>
				<path class="st1" d="M78.829,162.251v-0.743h0.423c0.292,0,0.474-0.034,0.544-0.102c0.07-0.068,0.105-0.236,0.105-0.502v-3.851
					c0-0.267-0.035-0.434-0.105-0.502c-0.07-0.068-0.252-0.102-0.544-0.102h-0.423v-0.738h3.568v0.738h-0.424
					c-0.295,0-0.477,0.034-0.548,0.102c-0.07,0.068-0.105,0.236-0.105,0.502v3.851c0,0.267,0.035,0.434,0.105,0.502
					c0.071,0.068,0.253,0.102,0.548,0.102h0.424v0.743H78.829z"/>
				<path class="st1" d="M89.589,162.251h-1.394l-3.287-5.331v3.984c0,0.267,0.036,0.434,0.106,0.502
					c0.07,0.068,0.252,0.102,0.543,0.102h0.452v0.743h-3.247v-0.743h0.463c0.291,0,0.473-0.034,0.543-0.102
					c0.07-0.068,0.105-0.236,0.105-0.502v-3.851c0-0.267-0.035-0.434-0.105-0.502c-0.07-0.068-0.252-0.102-0.543-0.102h-0.424
					v-0.738h2.828l2.924,4.746v-3.403c0-0.267-0.035-0.434-0.105-0.502c-0.07-0.068-0.252-0.102-0.543-0.102h-0.467v-0.738h3.126
					v0.738h-0.317c-0.295,0-0.479,0.035-0.551,0.104s-0.107,0.236-0.107,0.5V162.251z"/>
				<path class="st1" d="M90.964,162.251v-0.743h0.385c0.291,0,0.473-0.034,0.543-0.102c0.07-0.068,0.105-0.236,0.105-0.502v-3.851
					c0-0.267-0.035-0.434-0.105-0.502c-0.07-0.068-0.252-0.102-0.543-0.102h-0.385v-0.738h6.502v2.604h-0.75
					c-0.02-0.746-0.142-1.243-0.368-1.492c-0.226-0.249-0.684-0.374-1.373-0.374h-1.587v2.009h0.375
					c0.413,0,0.685-0.071,0.813-0.212s0.209-0.466,0.24-0.974l0.751-0.005v3.28l-0.751-0.005c-0.028-0.562-0.107-0.924-0.235-1.087
					s-0.397-0.245-0.808-0.245h-0.385v2.299h1.731c0.577,0,0.973-0.132,1.188-0.397c0.215-0.265,0.352-0.808,0.409-1.63h0.75v2.771
					H90.964z"/>
				<path class="st1" d="M34.944,172.735v-0.665h0.345c0.261,0,0.424-0.031,0.487-0.092c0.063-0.062,0.095-0.212,0.095-0.45v-3.451
					c0-0.239-0.032-0.389-0.095-0.45c-0.063-0.061-0.227-0.092-0.487-0.092h-0.345v-0.661h3.176v0.661h-0.413
					c-0.265,0-0.429,0.031-0.493,0.094s-0.098,0.212-0.098,0.448v1.297h2.561v-1.297c0-0.239-0.031-0.389-0.095-0.45
					s-0.226-0.092-0.487-0.092h-0.418v-0.661h3.181v0.661h-0.345c-0.264,0-0.429,0.031-0.493,0.094
					c-0.065,0.063-0.097,0.212-0.097,0.448v3.451c0,0.236,0.031,0.385,0.097,0.448c0.064,0.063,0.229,0.094,0.493,0.094h0.345v0.665
					h-3.181v-0.665h0.418c0.262,0,0.424-0.031,0.487-0.092c0.063-0.062,0.095-0.212,0.095-0.45v-1.45h-2.561v1.45
					c0,0.236,0.033,0.385,0.098,0.448c0.064,0.063,0.229,0.094,0.493,0.094h0.413v0.665H34.944z"/>
				<path class="st1" d="M42.28,172.735v-0.665h0.379c0.262,0,0.424-0.031,0.486-0.092c0.064-0.062,0.096-0.212,0.096-0.45v-3.451
					c0-0.239-0.031-0.389-0.096-0.45c-0.063-0.061-0.225-0.092-0.486-0.092H42.28v-0.661h3.197v0.661h-0.379
					c-0.264,0-0.428,0.031-0.491,0.092s-0.095,0.211-0.095,0.45v3.451c0,0.238,0.031,0.389,0.095,0.45
					c0.063,0.061,0.228,0.092,0.491,0.092h0.379v0.665H42.28z"/>
				<path class="st1" d="M51.921,172.735h-1.248l-2.945-4.777v3.57c0,0.238,0.031,0.389,0.096,0.45
					c0.063,0.061,0.225,0.092,0.486,0.092h0.405v0.665h-2.909v-0.665h0.414c0.261,0,0.424-0.031,0.486-0.092
					c0.063-0.062,0.096-0.212,0.096-0.45v-3.451c0-0.239-0.032-0.389-0.096-0.45c-0.063-0.061-0.226-0.092-0.486-0.092h-0.38v-0.661
					h2.534l2.621,4.252v-3.05c0-0.239-0.031-0.389-0.096-0.45c-0.063-0.061-0.225-0.092-0.486-0.092h-0.418v-0.661h2.801v0.661
					h-0.283c-0.266,0-0.43,0.031-0.494,0.094s-0.098,0.212-0.098,0.448V172.735z"/>
				<path class="st1" d="M53.271,169.8c0-0.927,0.3-1.674,0.898-2.242c0.6-0.567,1.387-0.851,2.364-0.851
					c0.979,0,1.769,0.284,2.364,0.851s0.895,1.314,0.895,2.242c0,0.93-0.299,1.679-0.896,2.248
					c-0.598,0.568-1.385,0.853-2.362,0.853s-1.765-0.285-2.364-0.854C53.57,171.476,53.271,170.727,53.271,169.8z M54.663,169.8
					c0,0.756,0.165,1.346,0.495,1.768c0.331,0.423,0.789,0.634,1.375,0.634c0.587,0,1.044-0.21,1.373-0.631s0.493-1.012,0.493-1.771
					c0-0.756-0.164-1.344-0.491-1.764c-0.327-0.419-0.786-0.629-1.375-0.629c-0.586,0-1.044,0.209-1.375,0.629
					C54.828,168.456,54.663,169.044,54.663,169.8z"/>
				<path class="st1" d="M60.499,172.735v-2.419h0.689c0.095,0.583,0.313,1.029,0.654,1.338c0.343,0.309,0.787,0.463,1.332,0.463
					c0.395,0,0.695-0.065,0.903-0.196s0.313-0.32,0.313-0.567c0-0.222-0.079-0.402-0.239-0.542c-0.159-0.14-0.414-0.249-0.765-0.328
					l-0.962-0.222c-0.689-0.159-1.186-0.375-1.488-0.646c-0.304-0.271-0.455-0.635-0.455-1.09c0-0.552,0.193-0.994,0.582-1.327
					c0.388-0.333,0.906-0.499,1.556-0.499c0.321,0,0.623,0.049,0.903,0.147c0.279,0.098,0.553,0.25,0.816,0.454l0.311-0.426h0.53
					v2.218h-0.673c-0.1-0.532-0.313-0.944-0.635-1.237c-0.324-0.293-0.73-0.439-1.219-0.439c-0.355,0-0.632,0.066-0.827,0.199
					c-0.195,0.132-0.293,0.316-0.293,0.552c0,0.199,0.069,0.358,0.207,0.478c0.138,0.12,0.358,0.213,0.663,0.282l1.194,0.273
					c0.632,0.142,1.104,0.364,1.418,0.668c0.313,0.303,0.47,0.688,0.47,1.157c0,0.555-0.205,1.008-0.616,1.359
					c-0.411,0.351-0.944,0.526-1.599,0.526c-0.331,0-0.658-0.06-0.982-0.179c-0.325-0.12-0.654-0.302-0.988-0.546l-0.193,0.55
					H60.499z"/>
				<path class="st1" d="M68.162,167.518h-0.116c-0.475,0-0.818,0.14-1.035,0.42c-0.215,0.28-0.327,0.735-0.336,1.363h-0.676v-2.427
					h5.576v2.427H70.9c-0.006-0.62-0.117-1.072-0.332-1.356c-0.216-0.285-0.559-0.427-1.03-0.427h-0.13v4.01
					c0,0.236,0.033,0.385,0.098,0.448c0.064,0.063,0.229,0.094,0.493,0.094h0.505v0.665h-3.436v-0.665h0.513
					c0.262,0,0.424-0.031,0.487-0.092c0.063-0.062,0.095-0.212,0.095-0.45V167.518z"/>
				<path class="st1" d="M74.157,171.528c0,0.236,0.032,0.385,0.097,0.448c0.065,0.063,0.229,0.094,0.493,0.094h0.414v0.665h-3.176
					v-0.665h0.344c0.262,0,0.424-0.031,0.487-0.092c0.063-0.062,0.095-0.212,0.095-0.45v-3.451c0-0.239-0.031-0.389-0.095-0.45
					s-0.226-0.092-0.487-0.092h-0.344v-0.661h3.538c0.741,0,1.292,0.115,1.651,0.346c0.358,0.23,0.538,0.584,0.538,1.062
					c0,0.421-0.144,0.757-0.429,1.009c-0.286,0.251-0.707,0.41-1.266,0.476c0.423,0.063,0.719,0.182,0.887,0.356
					s0.266,0.479,0.295,0.91l0.039,0.524c0.014,0.205,0.039,0.339,0.077,0.401c0.037,0.063,0.099,0.094,0.185,0.094
					c0.174,0,0.266-0.319,0.276-0.96c0-0.011,0-0.02,0-0.025h0.561c0.006,0.037,0.009,0.076,0.011,0.117s0.002,0.101,0.002,0.178
					c0,0.537-0.098,0.93-0.295,1.177s-0.508,0.371-0.934,0.371c-0.35,0-0.625-0.096-0.822-0.286
					c-0.199-0.19-0.304-0.454-0.315-0.793l-0.026-0.687c-0.017-0.458-0.119-0.769-0.308-0.933c-0.188-0.163-0.545-0.245-1.071-0.245
					h-0.422V171.528z M74.157,169.301H75.2c0.42,0,0.727-0.07,0.922-0.211c0.195-0.141,0.293-0.365,0.293-0.672
					c0-0.315-0.093-0.542-0.279-0.678c-0.188-0.136-0.509-0.205-0.966-0.205h-1.013V169.301z"/>
				<path class="st1" d="M78.925,169.8c0-0.927,0.299-1.674,0.898-2.242s1.387-0.851,2.363-0.851c0.98,0,1.769,0.284,2.365,0.851
					c0.596,0.567,0.895,1.314,0.895,2.242c0,0.93-0.3,1.679-0.897,2.248c-0.598,0.568-1.385,0.853-2.362,0.853
					c-0.977,0-1.764-0.285-2.363-0.854C79.224,171.476,78.925,170.727,78.925,169.8z M80.317,169.8c0,0.756,0.165,1.346,0.495,1.768
					c0.331,0.423,0.789,0.634,1.375,0.634c0.587,0,1.045-0.21,1.373-0.631c0.329-0.421,0.494-1.012,0.494-1.771
					c0-0.756-0.164-1.344-0.492-1.764c-0.327-0.419-0.785-0.629-1.375-0.629c-0.586,0-1.044,0.209-1.375,0.629
					C80.482,168.456,80.317,169.044,80.317,169.8z"/>
				<path class="st1" d="M86.135,172.735v-0.708l3.538-4.492h-1.004c-0.445,0-0.762,0.034-0.95,0.103
					c-0.188,0.068-0.337,0.186-0.446,0.354c-0.089,0.145-0.156,0.324-0.2,0.537c-0.044,0.213-0.068,0.479-0.071,0.798H86.32v-2.453
					h4.818v0.75l-3.504,4.445h0.944c0.462,0,0.811-0.037,1.045-0.111s0.401-0.196,0.502-0.367c0.092-0.162,0.164-0.364,0.218-0.607
					s0.093-0.545,0.118-0.906h0.677v2.657H86.135z"/>
				<path class="st1" d="M91.458,172.735v-0.665h0.186c0.225,0,0.391-0.039,0.502-0.118c0.11-0.078,0.206-0.228,0.287-0.449
					l1.65-4.628h1.241l1.767,4.628c0.101,0.27,0.193,0.432,0.278,0.486c0.085,0.054,0.23,0.081,0.438,0.081h0.177v0.665h-3.064
					v-0.665h0.479c0.192,0,0.322-0.017,0.39-0.05c0.067-0.032,0.102-0.092,0.102-0.177c0-0.031-0.005-0.066-0.015-0.106
					c-0.011-0.04-0.031-0.1-0.063-0.18l-0.255-0.69h-1.952l-0.254,0.737c-0.006,0.021-0.016,0.05-0.031,0.09
					c-0.028,0.083-0.043,0.141-0.043,0.175c0,0.077,0.028,0.13,0.084,0.158c0.057,0.028,0.188,0.043,0.395,0.043h0.457v0.665H91.458
					z M95.316,170.175l-0.768-2.026l-0.697,2.026H95.316z"/>
			</g>
		</g>
	</g>
	<g>
		<path class="st7" d="M95.352,246.603H88.09c-0.558,0-1.01,0.452-1.01,1.01c0,0.558,0.452,1.01,1.01,1.01h7.262
			c1.689,0,3.063,1.374,3.063,3.062v24.59H34.758v-24.59c0-1.689,1.373-3.062,3.062-3.062h6.475c0.558,0,1.01-0.452,1.01-1.01
			c0-0.558-0.452-1.01-1.01-1.01h-6.475c-2.802,0-5.082,2.28-5.082,5.082v31.146c0,2.802,2.279,5.082,5.082,5.082h18.957v7.189
			h-5.64c-1.404,0-2.545,1.142-2.545,2.545c0,1.403,1.141,2.545,2.545,2.545h30.9c1.404,0,2.545-1.142,2.545-2.545
			c0-1.403-1.141-2.545-2.545-2.545h-5.641v-7.189h18.957c2.802,0,5.083-2.28,5.083-5.082v-31.146
			C100.435,248.883,98.154,246.603,95.352,246.603z M82.561,297.647c0,0.289-0.236,0.525-0.525,0.525h-30.9
			c-0.289,0-0.525-0.235-0.525-0.525c0-0.29,0.236-0.525,0.525-0.525h6.65h17.599h6.651
			C82.325,297.122,82.561,297.357,82.561,297.647z M58.796,295.102v-7.143h15.579v7.143H58.796z M95.352,285.893H37.819
			c-1.689,0-3.062-1.374-3.062-3.062v-4.536h63.657v4.536C98.414,284.52,97.04,285.893,95.352,285.893z"/>
		<g>
			<path class="st7" d="M66.586,270.45c9.182,0,16.652-7.47,16.652-16.651s-7.47-16.651-16.652-16.651
				c-9.181,0-16.651,7.47-16.651,16.651S57.405,270.45,66.586,270.45z M66.586,239.168c8.067,0,14.632,6.564,14.632,14.631
				s-6.564,14.631-14.632,14.631c-8.067,0-14.631-6.564-14.631-14.631S58.518,239.168,66.586,239.168z"/>
			<path class="st7" d="M61.058,261.027c0.443,0.146,0.956,0.267,1.537,0.364c0.886,0.148,1.801,0.221,2.746,0.221v2.006
				c0,0.451,0.366,0.817,0.817,0.817c0.451,0,0.817-0.366,0.817-0.817v-2.12c1.717-0.216,3.011-0.773,3.884-1.673
				c0.742-0.765,1.077-1.86,1.003-2.924c-0.042-0.595-0.194-1.111-0.457-1.548c-0.313-0.519-0.798-0.979-1.456-1.38
				c-0.658-0.4-1.649-0.812-2.974-1.234v-5.493c1.02,0.073,2.028,0.271,3.023,0.594c0.458,0.149,0.953-0.061,1.13-0.509
				c0.186-0.469-0.046-1.016-0.526-1.172c-1.174-0.381-2.382-0.588-3.627-0.622v-1.462c0-0.451-0.366-0.817-0.817-0.817
				c-0.451,0-0.817,0.366-0.817,0.817v1.487c-1.449,0.156-2.607,0.607-3.471,1.353c-0.852,0.736-1.273,1.882-1.2,3.006
				c0.064,0.991,0.409,1.812,1.033,2.463c0.696,0.726,1.91,1.363,3.639,1.912v5.568c-0.751,0-1.584-0.099-2.499-0.297
				c-0.437-0.094-0.849-0.202-1.237-0.323c-0.591-0.184-1.186,0.274-1.186,0.893C60.418,260.543,60.674,260.901,61.058,261.027z
				 M66.974,254.816c1.08,0.371,1.807,0.745,2.183,1.12c0.376,0.376,0.563,0.867,0.563,1.475c0,1.299-0.915,2.076-2.746,2.329
				V254.816z M63.367,251.095c-0.38-0.388-0.57-0.903-0.57-1.544c0-0.583,0.215-1.07,0.646-1.462
				c0.43-0.393,1.063-0.656,1.898-0.791v4.898C64.405,251.85,63.747,251.483,63.367,251.095z"/>
		</g>
		<path class="st7" d="M66.586,279.855c-1.014,0-1.837,0.822-1.837,1.837c0,1.014,0.822,1.837,1.837,1.837
			c1.014,0,1.837-0.822,1.837-1.837C68.423,280.678,67.6,279.855,66.586,279.855z"/>
	</g>
</g>
</svg>