<!-- Generator: Adobe Illustrator 22.0.0, SVG Export Plug-In  -->
<svg version="1.1"
	 xmlns="http://www.w3.org/2000/svg" xmlns:xlink="http://www.w3.org/1999/xlink" xmlns:a="http://ns.adobe.com/AdobeSVGViewerExtensions/3.0/"
	 x="0px" y="0px" width="188.387px" height="136.386px" viewBox="0 0 188.387 136.386"
	 style="overflow:scroll;enable-background:new 0 0 188.387 136.386;" xml:space="preserve">
<style type="text/css">
	.st0{fill:url(#SVGID_1_);}
	.st1{fill:url(#SVGID_2_);}
	.st2{fill:url(#SVGID_3_);}
	.st3{fill:url(#SVGID_4_);}
	.st4{fill:url(#SVGID_5_);}
	.st5{fill:url(#SVGID_6_);}
	.st6{fill:url(#SVGID_7_);}
	.st7{fill:url(#SVGID_8_);}
	.st8{fill:#FFFFFF;}
	.st9{fill:url(#SVGID_9_);}
	.st10{fill:url(#SVGID_10_);}
	.st11{fill:url(#SVGID_11_);}
	.st12{fill:url(#SVGID_12_);}
	.st13{fill:url(#SVGID_13_);}
	.st14{fill:url(#SVGID_14_);}
	.st15{fill:url(#SVGID_15_);}
	.st16{fill:url(#SVGID_16_);}
	.st17{font-family:'ClarendonBT-Roman';}
	.st18{font-size:39.2376px;}
</style>
<defs>
</defs>
<linearGradient id="SVGID_1_" gradientUnits="userSpaceOnUse" x1="177.3799" y1="102.6001" x2="121.2525" y2="46.4728">
	<stop  offset="0" style="stop-color:#C4BEBD"/>
	<stop  offset="1" style="stop-color:#E2DDDD"/>
</linearGradient>
<path class="st0" d="M185.544,54.535l-16.187-22.347c-2.796-3.861-7.312-6.165-12.079-6.165h-44.633v74.494h44.636
	c4.764,0,9.277-2.302,12.073-6.158l16.185-22.318C189.334,66.806,189.337,59.771,185.544,54.535z"/>
<linearGradient id="SVGID_2_" gradientUnits="userSpaceOnUse" x1="173.8624" y1="100.6911" x2="102.0076" y2="28.8363">
	<stop  offset="0" style="stop-color:#9C4189"/>
	<stop  offset="1" style="stop-color:#621A56"/>
</linearGradient>
<path class="st1" d="M157.43,33.262h-45.198V63.29v29.993h45.201c2.495,0,4.839-1.196,6.304-3.215l16.106-22.209
	c1.977-2.726,1.977-6.413,0.003-9.139l-16.108-22.238C162.272,34.459,159.927,33.262,157.43,33.262z"/>
<radialGradient id="SVGID_3_" cx="73.3262" cy="73.963" r="62.4233" gradientUnits="userSpaceOnUse">
	<stop  offset="0" style="stop-color:#070308"/>
	<stop  offset="1" style="stop-color:#FFFFFF"/>
</radialGradient>
<circle class="st2" cx="73.326" cy="73.963" r="62.423"/>
<linearGradient id="SVGID_4_" gradientUnits="userSpaceOnUse" x1="122.7927" y1="122.7927" x2="20.467" y2="20.467">
	<stop  offset="0" style="stop-color:#621A56"/>
	<stop  offset="1" style="stop-color:#9C4189"/>
</linearGradient>
<circle class="st3" cx="63.275" cy="63.275" r="63.275"/>
<linearGradient id="SVGID_5_" gradientUnits="userSpaceOnUse" x1="12.2948" y1="63.2747" x2="114.2545" y2="63.2747">
	<stop  offset="0" style="stop-color:#E2DDDD"/>
	<stop  offset="1" style="stop-color:#C4BEBD"/>
</linearGradient>
<circle class="st4" cx="63.275" cy="63.275" r="50.98"/>
<radialGradient id="SVGID_6_" cx="64.5185" cy="65.1076" r="55.102" gradientUnits="userSpaceOnUse">
	<stop  offset="0.7955" style="stop-color:#FFFFFF"/>
	<stop  offset="0.8694" style="stop-color:#FEFEFE"/>
	<stop  offset="0.8984" style="stop-color:#F6F6F6"/>
	<stop  offset="0.9195" style="stop-color:#E5E3E4"/>
	<stop  offset="0.9368" style="stop-color:#CCC8CA"/>
	<stop  offset="0.9517" style="stop-color:#AEA7A9"/>
	<stop  offset="0.965" style="stop-color:#8D8586"/>
	<stop  offset="0.9771" style="stop-color:#6B6465"/>
	<stop  offset="0.9883" style="stop-color:#4B4545"/>
	<stop  offset="0.9984" style="stop-color:#2D2929"/>
	<stop  offset="1" style="stop-color:#272324"/>
</radialGradient>
<circle class="st5" cx="63.275" cy="63.275" r="50.98"/>
<radialGradient id="SVGID_7_" cx="68.4579" cy="69.7605" r="38.2706" gradientUnits="userSpaceOnUse">
	<stop  offset="0" style="stop-color:#070308"/>
	<stop  offset="1" style="stop-color:#FFFFFF"/>
</radialGradient>
<circle class="st6" cx="68.458" cy="69.76" r="38.271"/>
<linearGradient id="SVGID_8_" gradientUnits="userSpaceOnUse" x1="94.9742" y1="94.9742" x2="46.1191" y2="46.1191">
	<stop  offset="0" style="stop-color:#621A56"/>
	<stop  offset="1" style="stop-color:#9C4189"/>
</linearGradient>
<circle class="st7" cx="63.275" cy="63.275" r="30.833"/>
<g>
	<g>
		<path class="st8" d="M40.757,63.599c0-3.742,1.025-6.782,3.075-9.119c2.05-2.338,4.703-3.506,7.96-3.506
			c3.258,0,5.917,1.172,7.98,3.516c2.063,2.344,3.094,5.381,3.094,9.109c0,3.743-1.031,6.779-3.094,9.11
			c-2.063,2.331-4.723,3.497-7.98,3.497c-3.257,0-5.91-1.166-7.96-3.497S40.757,67.343,40.757,63.599z M46.85,63.599
			c0,3.296,0.396,5.71,1.188,7.242c0.792,1.533,2.044,2.3,3.755,2.3c1.712,0,2.97-0.77,3.774-2.309s1.207-3.95,1.207-7.233
			c0-3.282-0.402-5.696-1.207-7.241c-0.805-1.546-2.063-2.318-3.774-2.318c-1.698,0-2.947,0.775-3.745,2.327
			C47.249,57.92,46.85,60.33,46.85,63.599z"/>
		<path class="st8" d="M69.324,71.608c0.677,0.639,1.446,1.114,2.309,1.428c0.861,0.313,1.836,0.469,2.921,0.469
			c1.75,0,3.136-0.421,4.158-1.264c1.021-0.844,1.532-1.98,1.532-3.411c0-1.545-0.476-2.697-1.427-3.458
			c-0.952-0.76-2.398-1.14-4.34-1.14H73.73v-2.854h0.383c1.979,0,3.436-0.313,4.368-0.939c0.933-0.625,1.399-1.596,1.399-2.912
			c0-1.213-0.435-2.19-1.304-2.931c-0.868-0.741-2.03-1.111-3.486-1.111c-0.843,0-1.622,0.118-2.338,0.354
			c-0.715,0.236-1.398,0.604-2.05,1.102c0.754,0.076,1.341,0.342,1.763,0.795s0.632,1.051,0.632,1.791
			c0,0.805-0.287,1.47-0.861,1.993c-0.575,0.523-1.322,0.785-2.242,0.785c-0.933,0-1.702-0.3-2.309-0.9s-0.91-1.373-0.91-2.318
			c0-1.711,0.895-3.158,2.683-4.34c1.788-1.181,4.062-1.771,6.82-1.771c2.784,0,5.022,0.562,6.716,1.686
			c1.691,1.124,2.538,2.587,2.538,4.388c0,1.507-0.482,2.721-1.446,3.64c-0.965,0.92-2.443,1.578-4.436,1.974
			c2.133,0.371,3.758,1.086,4.876,2.146c1.117,1.061,1.677,2.414,1.677,4.063c0,2.222-0.978,4.001-2.932,5.335
			c-1.954,1.335-4.586,2.003-7.894,2.003c-2.771,0-5.042-0.63-6.811-1.888c-1.77-1.258-2.654-2.838-2.654-4.741
			c0-1.137,0.336-2.057,1.006-2.76c0.671-0.702,1.543-1.054,2.615-1.054c0.907,0,1.642,0.275,2.204,0.824
			c0.562,0.55,0.843,1.271,0.843,2.165c0,0.855-0.271,1.546-0.814,2.069s-1.262,0.785-2.155,0.785H69.324z"/>
	</g>
</g>
</svg>