<!-- Generator: Adobe Illustrator 22.0.0, SVG Export Plug-In  -->
<svg version="1.1"
	 xmlns="http://www.w3.org/2000/svg" xmlns:xlink="http://www.w3.org/1999/xlink" xmlns:a="http://ns.adobe.com/AdobeSVGViewerExtensions/3.0/"
	 x="0px" y="0px" width="188.387px" height="136.386px" viewBox="0 0 188.387 136.386"
	 style="overflow:scroll;enable-background:new 0 0 188.387 136.386;" xml:space="preserve">
<style type="text/css">
	.st0{fill:url(#SVGID_1_);}
	.st1{fill:url(#SVGID_2_);}
	.st2{fill:url(#SVGID_3_);}
	.st3{fill:url(#SVGID_4_);}
	.st4{fill:url(#SVGID_5_);}
	.st5{fill:url(#SVGID_6_);}
	.st6{fill:url(#SVGID_7_);}
	.st7{fill:url(#SVGID_8_);}
	.st8{fill:url(#SVGID_9_);}
	.st9{fill:#FFFFFF;}
	.st10{fill:url(#SVGID_10_);}
	.st11{fill:url(#SVGID_11_);}
	.st12{fill:url(#SVGID_12_);}
	.st13{fill:url(#SVGID_13_);}
	.st14{fill:url(#SVGID_14_);}
	.st15{fill:url(#SVGID_15_);}
	.st16{fill:url(#SVGID_16_);}
	.st17{fill:url(#SVGID_17_);}
	.st18{fill:url(#SVGID_18_);}
	.st19{font-family:'ClarendonBT-Roman';}
	.st20{font-size:39.2376px;}
</style>
<defs>
</defs>
<g>
	<g>
		<linearGradient id="SVGID_1_" gradientUnits="userSpaceOnUse" x1="177.3799" y1="102.6002" x2="121.2526" y2="46.4729">
			<stop  offset="0" style="stop-color:#C4BEBD"/>
			<stop  offset="1" style="stop-color:#E2DDDD"/>
		</linearGradient>
		<path class="st0" d="M185.544,54.535l-16.187-22.347c-2.796-3.861-7.312-6.165-12.079-6.165h-44.633v74.494h44.636
			c4.764,0,9.277-2.302,12.073-6.158l16.185-22.318C189.334,66.806,189.337,59.771,185.544,54.535z"/>
		<linearGradient id="SVGID_2_" gradientUnits="userSpaceOnUse" x1="140.7105" y1="30.7906" x2="140.7105" y2="3.2021">
			<stop  offset="0" style="stop-color:#FFFFFF"/>
			<stop  offset="1" style="stop-color:#070308"/>
		</linearGradient>
		<path class="st1" d="M168.776,31.48c-2.818-3.422-7.038-5.458-11.498-5.458h-44.633v5.458H168.776z"/>
	</g>
	<linearGradient id="SVGID_3_" gradientUnits="userSpaceOnUse" x1="167.5617" y1="94.3905" x2="101.3309" y2="28.1598">
		<stop  offset="0" style="stop-color:#DC9831"/>
		<stop  offset="1" style="stop-color:#E5C239"/>
	</linearGradient>
	<path class="st2" d="M157.43,33.262h-45.198V63.29v29.993h45.201c2.495,0,4.839-1.196,6.304-3.215l16.106-22.209
		c1.977-2.725,1.977-6.413,0.003-9.139l-16.108-22.238C162.272,34.459,159.927,33.262,157.43,33.262z"/>
	<radialGradient id="SVGID_4_" cx="73.3262" cy="73.963" r="62.4233" gradientUnits="userSpaceOnUse">
		<stop  offset="0" style="stop-color:#070308"/>
		<stop  offset="1" style="stop-color:#FFFFFF"/>
	</radialGradient>
	<circle class="st3" cx="73.326" cy="73.963" r="62.423"/>
	<linearGradient id="SVGID_5_" gradientUnits="userSpaceOnUse" x1="149.9433" y1="149.9433" x2="30.4223" y2="30.4224">
		<stop  offset="0" style="stop-color:#DC9831"/>
		<stop  offset="1" style="stop-color:#E5C239"/>
	</linearGradient>
	<circle class="st4" cx="63.275" cy="63.275" r="63.275"/>
	<linearGradient id="SVGID_6_" gradientUnits="userSpaceOnUse" x1="12.2948" y1="63.2747" x2="114.2545" y2="63.2747">
		<stop  offset="0" style="stop-color:#E2DDDD"/>
		<stop  offset="1" style="stop-color:#C4BEBD"/>
	</linearGradient>
	<circle class="st5" cx="63.275" cy="63.275" r="50.98"/>
	<radialGradient id="SVGID_7_" cx="64.5185" cy="65.1076" r="55.102" gradientUnits="userSpaceOnUse">
		<stop  offset="0.7955" style="stop-color:#FFFFFF"/>
		<stop  offset="0.8694" style="stop-color:#FEFEFE"/>
		<stop  offset="0.8984" style="stop-color:#F6F6F6"/>
		<stop  offset="0.9195" style="stop-color:#E5E3E4"/>
		<stop  offset="0.9368" style="stop-color:#CCC8CA"/>
		<stop  offset="0.9517" style="stop-color:#AEA7A9"/>
		<stop  offset="0.965" style="stop-color:#8D8586"/>
		<stop  offset="0.9771" style="stop-color:#6B6465"/>
		<stop  offset="0.9883" style="stop-color:#4B4545"/>
		<stop  offset="0.9984" style="stop-color:#2D2929"/>
		<stop  offset="1" style="stop-color:#272324"/>
	</radialGradient>
	<circle class="st6" cx="63.275" cy="63.275" r="50.98"/>
	<radialGradient id="SVGID_8_" cx="68.4579" cy="69.7605" r="38.2706" gradientUnits="userSpaceOnUse">
		<stop  offset="0" style="stop-color:#070308"/>
		<stop  offset="1" style="stop-color:#FFFFFF"/>
	</radialGradient>
	<circle class="st7" cx="68.458" cy="69.761" r="38.271"/>
	<linearGradient id="SVGID_9_" gradientUnits="userSpaceOnUse" x1="32.4412" y1="63.2747" x2="94.1081" y2="63.2747">
		<stop  offset="0" style="stop-color:#DC9831"/>
		<stop  offset="1" style="stop-color:#E5C239"/>
	</linearGradient>
	<circle class="st8" cx="63.275" cy="63.275" r="30.833"/>
	<g>
		<g>
			<path class="st9" d="M41.189,63.34c0-3.742,1.025-6.782,3.075-9.119c2.05-2.338,4.703-3.506,7.96-3.506
				c3.257,0,5.917,1.172,7.979,3.516c2.063,2.344,3.094,5.381,3.094,9.109c0,3.743-1.032,6.779-3.094,9.11
				c-2.063,2.331-4.723,3.497-7.979,3.497c-3.257,0-5.911-1.166-7.96-3.497C42.214,70.119,41.189,67.083,41.189,63.34z
				 M47.282,63.34c0,3.296,0.396,5.71,1.188,7.242c0.792,1.533,2.043,2.3,3.755,2.3c1.711,0,2.97-0.77,3.774-2.309
				s1.207-3.95,1.207-7.233c0-3.282-0.402-5.696-1.207-7.241c-0.805-1.546-2.063-2.318-3.774-2.318
				c-1.699,0-2.948,0.775-3.746,2.327C47.681,57.66,47.282,60.071,47.282,63.34z"/>
			<path class="st9" d="M74.238,75.43c0-0.179-0.007-0.45-0.02-0.814S74.2,73.987,74.2,73.821c0-1.826,0.112-3.392,0.335-4.694
				c0.223-1.303,0.584-2.458,1.083-3.468c0.805-1.698,2.631-4.093,5.479-7.185c1.06-1.149,1.858-2.037,2.395-2.663
				c-0.6,0.281-1.194,0.489-1.782,0.623s-1.156,0.201-1.705,0.201c-0.779,0-1.798-0.131-3.056-0.393
				c-1.258-0.262-2.124-0.393-2.596-0.393c-1.354,0-2.328,0.469-2.922,1.408c-0.594,0.938-0.891,2.513-0.891,4.723v0.229h-2.702
				V51.309h2.874v2.778c0.741-1.061,1.523-1.823,2.347-2.29c0.824-0.466,1.804-0.699,2.941-0.699c1.085,0,2.474,0.323,4.167,0.968
				c1.692,0.645,2.813,0.968,3.362,0.968c0.537,0,0.99-0.135,1.36-0.402c0.37-0.269,0.664-0.684,0.881-1.246h2.51
				c-0.115,1.699-1.252,4.113-3.41,7.242c-1.009,1.469-1.756,2.612-2.242,3.43c-1.061,1.801-1.836,3.618-2.328,5.451
				s-0.737,3.86-0.737,6.083c0,0.498,0.003,0.871,0.009,1.12s0.016,0.489,0.029,0.719H74.238z"/>
		</g>
	</g>
</g>
</svg>