<!-- Generator: Adobe Illustrator 22.0.0, SVG Export Plug-In  -->
<svg version="1.1"
	 xmlns="http://www.w3.org/2000/svg" xmlns:xlink="http://www.w3.org/1999/xlink" xmlns:a="http://ns.adobe.com/AdobeSVGViewerExtensions/3.0/"
	 x="0px" y="0px" width="132.027px" height="304.045px" viewBox="0 0 132.027 304.045"
	 style="overflow:scroll;enable-background:new 0 0 132.027 304.045;" xml:space="preserve">
<style type="text/css">
	.st0{fill:url(#SVGID_1_);}
	.st1{fill:#FFFFFF;}
	.st2{fill:#434444;}
	.st3{fill:url(#SVGID_2_);}
	.st4{fill:url(#SVGID_3_);}
	.st5{fill:url(#SVGID_4_);}
	.st6{fill:url(#SVGID_5_);}
	.st7{fill:url(#SVGID_6_);}
	.st8{fill:#767676;}
	.st9{fill:url(#SVGID_7_);}
	.st10{font-family:'ClarendonBT-Roman';}
	.st11{font-size:10.6792px;}
	.st12{fill:url(#SVGID_8_);}
	.st13{fill:url(#SVGID_9_);}
	.st14{fill:url(#SVGID_10_);}
	.st15{fill:url(#SVGID_11_);}
	.st16{fill:url(#SVGID_12_);}
	.st17{font-size:12.3696px;}
</style>
<defs>
</defs>
<g>
	<linearGradient id="SVGID_1_" gradientUnits="userSpaceOnUse" x1="66.011" y1="311.7347" x2="66.011" y2="286.0276">
		<stop  offset="0" style="stop-color:#EFC33A"/>
		<stop  offset="1" style="stop-color:#DA1D1D"/>
	</linearGradient>
	<path class="st0" d="M13.841,286.961v0.471c0,9.175,7.438,16.613,16.613,16.613h71.113c9.175,0,16.613-7.438,16.613-16.613v-0.471
		H13.841z"/>
	<path class="st1" d="M132.027,142.072v131.59c0,11.609-9.417,21.015-21.026,21.015H21.019c-11.609,0-21.015-9.406-21.015-21.015
		v-131.59H132.027z"/>
	<g>
		<path class="st2" d="M12.079,234.662h3.839v0.809h-0.5c-0.319,0-0.519,0.038-0.597,0.115c-0.078,0.076-0.117,0.259-0.117,0.547
			v4.881h1.334c0.476,0,0.832-0.041,1.068-0.122c0.235-0.082,0.406-0.219,0.51-0.41c0.102-0.184,0.176-0.408,0.225-0.672
			c0.049-0.265,0.072-0.581,0.072-0.949v-0.131h0.823v3.098h-6.657v-0.813h0.416c0.316,0,0.513-0.037,0.59-0.112
			c0.076-0.074,0.113-0.258,0.113-0.55v-4.219c0-0.292-0.037-0.476-0.113-0.55c-0.077-0.075-0.273-0.112-0.59-0.112h-0.416V234.662z
			"/>
		<path class="st2" d="M19.502,241.827v-0.813h0.458c0.316,0,0.513-0.037,0.59-0.112c0.076-0.074,0.113-0.258,0.113-0.55v-4.219
			c0-0.292-0.037-0.476-0.113-0.55c-0.077-0.075-0.273-0.112-0.59-0.112h-0.458v-0.809h3.865v0.809h-0.458
			c-0.32,0-0.518,0.037-0.594,0.112c-0.076,0.074-0.115,0.258-0.115,0.55v4.219c0,0.292,0.039,0.476,0.115,0.55
			c0.076,0.075,0.273,0.112,0.594,0.112h0.458v0.813H19.502z M20.325,233.87l1.453-1.538c0.17-0.185,0.316-0.314,0.44-0.389
			c0.123-0.075,0.245-0.112,0.367-0.112c0.163,0,0.3,0.055,0.411,0.164s0.167,0.242,0.167,0.399c0,0.125-0.042,0.237-0.128,0.336
			c-0.085,0.1-0.225,0.197-0.419,0.295l-1.692,0.845H20.325z"/>
		<path class="st2" d="M23.878,241.827v-0.813h0.417c0.315,0,0.513-0.037,0.589-0.112c0.076-0.074,0.114-0.258,0.114-0.55v-4.219
			c0-0.292-0.038-0.476-0.114-0.55c-0.076-0.075-0.273-0.112-0.589-0.112h-0.417v-0.809h4.063c1.251,0,2.196,0.303,2.837,0.907
			c0.641,0.605,0.961,1.495,0.961,2.67c0,1.176-0.321,2.067-0.964,2.676s-1.587,0.912-2.834,0.912H23.878z M26.503,241.014h0.938
			c0.56,0,0.978-0.043,1.255-0.13c0.278-0.087,0.518-0.235,0.719-0.443c0.202-0.209,0.361-0.508,0.478-0.897
			c0.116-0.389,0.175-0.823,0.175-1.304c0-0.479-0.059-0.912-0.175-1.298s-0.275-0.684-0.478-0.892
			c-0.201-0.209-0.44-0.357-0.719-0.446c-0.277-0.089-0.695-0.133-1.255-0.133h-0.938V241.014z"/>
		<path class="st2" d="M32.53,241.827v-0.813h0.418c0.315,0,0.512-0.037,0.588-0.112c0.076-0.074,0.115-0.258,0.115-0.55v-4.219
			c0-0.292-0.039-0.476-0.115-0.55c-0.076-0.075-0.272-0.112-0.588-0.112H32.53v-0.809h7.044v2.853H38.76
			c-0.02-0.816-0.152-1.361-0.398-1.635c-0.244-0.272-0.74-0.409-1.486-0.409h-1.72v2.2h0.407c0.447,0,0.74-0.077,0.88-0.231
			c0.139-0.155,0.226-0.511,0.261-1.066l0.813-0.006v3.593l-0.813-0.005c-0.031-0.615-0.117-1.013-0.256-1.191
			s-0.431-0.269-0.875-0.269h-0.417v2.519h1.876c0.625,0,1.054-0.146,1.286-0.436c0.233-0.29,0.38-0.886,0.442-1.786h0.813v3.035
			H32.53z"/>
		<path class="st2" d="M43.21,240.351c0,0.288,0.039,0.471,0.117,0.548c0.078,0.076,0.277,0.114,0.596,0.114h0.5v0.813h-3.839
			v-0.813h0.417c0.316,0,0.512-0.037,0.589-0.112c0.076-0.074,0.114-0.258,0.114-0.55v-4.219c0-0.292-0.038-0.476-0.114-0.55
			c-0.077-0.075-0.272-0.112-0.589-0.112h-0.417v-0.809h4.276c0.896,0,1.562,0.142,1.996,0.423c0.434,0.281,0.65,0.714,0.65,1.298
			c0,0.515-0.172,0.926-0.518,1.233s-0.855,0.502-1.529,0.582c0.511,0.076,0.867,0.222,1.07,0.435
			c0.203,0.214,0.322,0.585,0.357,1.114l0.047,0.641c0.018,0.251,0.049,0.414,0.094,0.49c0.045,0.077,0.119,0.115,0.224,0.115
			c0.208,0,0.319-0.392,0.333-1.174c0-0.014,0-0.024,0-0.031h0.678c0.007,0.046,0.012,0.093,0.014,0.144
			c0.001,0.051,0.002,0.123,0.002,0.217c0,0.656-0.119,1.137-0.357,1.438c-0.237,0.303-0.613,0.454-1.127,0.454
			c-0.424,0-0.756-0.116-0.995-0.35c-0.239-0.232-0.366-0.556-0.38-0.97l-0.031-0.84c-0.021-0.56-0.146-0.939-0.373-1.139
			c-0.228-0.2-0.658-0.3-1.295-0.3h-0.51V240.351z M43.21,237.63h1.26c0.508,0,0.879-0.086,1.115-0.259
			c0.236-0.172,0.354-0.445,0.354-0.821c0-0.386-0.112-0.662-0.339-0.829c-0.226-0.167-0.614-0.25-1.166-0.25H43.21V237.63z"/>
		<path class="st2" d="M52.159,241.827v-0.813h0.417c0.315,0,0.513-0.037,0.589-0.112c0.076-0.074,0.114-0.258,0.114-0.55v-4.219
			c0-0.292-0.038-0.476-0.114-0.55c-0.076-0.075-0.273-0.112-0.589-0.112h-0.417v-0.809h4.063c1.251,0,2.196,0.303,2.837,0.907
			c0.641,0.605,0.961,1.495,0.961,2.67c0,1.176-0.321,2.067-0.964,2.676s-1.587,0.912-2.834,0.912H52.159z M54.784,241.014h0.938
			c0.56,0,0.978-0.043,1.255-0.13c0.278-0.087,0.518-0.235,0.719-0.443c0.202-0.209,0.361-0.508,0.478-0.897
			c0.116-0.389,0.175-0.823,0.175-1.304c0-0.479-0.059-0.912-0.175-1.298s-0.275-0.684-0.478-0.892
			c-0.201-0.209-0.44-0.357-0.719-0.446c-0.277-0.089-0.695-0.133-1.255-0.133h-0.938V241.014z"/>
		<path class="st2" d="M60.811,241.827v-0.813h0.418c0.315,0,0.512-0.037,0.588-0.112c0.076-0.074,0.115-0.258,0.115-0.55v-4.219
			c0-0.292-0.039-0.476-0.115-0.55c-0.076-0.075-0.272-0.112-0.588-0.112h-0.418v-0.809h7.044v2.853h-0.813
			c-0.02-0.816-0.152-1.361-0.398-1.635c-0.244-0.272-0.74-0.409-1.486-0.409h-1.72v2.2h0.407c0.447,0,0.74-0.077,0.88-0.231
			c0.139-0.155,0.226-0.511,0.261-1.066l0.813-0.006v3.593l-0.813-0.005c-0.031-0.615-0.117-1.013-0.256-1.191
			s-0.431-0.269-0.875-0.269h-0.417v2.519h1.876c0.625,0,1.054-0.146,1.286-0.436c0.233-0.29,0.38-0.886,0.442-1.786h0.813v3.035
			H60.811z"/>
		<path class="st2" d="M68.866,234.662h3.839v0.809h-0.5c-0.319,0-0.519,0.038-0.597,0.115c-0.078,0.076-0.117,0.259-0.117,0.547
			v4.881h1.334c0.476,0,0.832-0.041,1.068-0.122c0.235-0.082,0.406-0.219,0.51-0.41c0.102-0.184,0.176-0.408,0.225-0.672
			c0.049-0.265,0.072-0.581,0.072-0.949v-0.131h0.823v3.098h-6.657v-0.813h0.416c0.316,0,0.513-0.037,0.59-0.112
			c0.076-0.074,0.113-0.258,0.113-0.55v-4.219c0-0.292-0.037-0.476-0.113-0.55c-0.077-0.075-0.273-0.112-0.59-0.112h-0.416V234.662z
			"/>
		<path class="st2" d="M85.87,241.869l-0.381-0.595c-0.326,0.261-0.667,0.454-1.021,0.579c-0.354,0.125-0.739,0.188-1.156,0.188
			c-0.49,0-0.945-0.087-1.367-0.261s-0.798-0.43-1.128-0.767c-0.354-0.358-0.622-0.771-0.805-1.241
			c-0.183-0.469-0.274-0.98-0.274-1.533s0.096-1.066,0.285-1.54c0.189-0.475,0.464-0.892,0.825-1.249
			c0.337-0.33,0.714-0.58,1.133-0.749c0.419-0.168,0.872-0.253,1.362-0.253c0.41,0,0.783,0.064,1.12,0.193s0.653,0.327,0.948,0.595
			l0.303-0.615h0.755v2.795h-0.823c-0.139-0.661-0.398-1.175-0.776-1.541c-0.378-0.367-0.833-0.55-1.364-0.55
			c-0.637,0-1.143,0.262-1.52,0.787c-0.377,0.524-0.564,1.234-0.564,2.127c0,0.907,0.188,1.61,0.564,2.107s0.908,0.745,1.592,0.745
			c0.493,0,0.881-0.115,1.164-0.347s0.425-0.547,0.425-0.946v-0.407c0-0.25-0.038-0.411-0.114-0.482
			c-0.076-0.07-0.308-0.106-0.693-0.106h-0.453v-0.809h3.793v0.809h-0.464c-0.247,0-0.405,0.04-0.477,0.12s-0.106,0.264-0.106,0.553
			v2.394H85.87z"/>
		<path class="st2" d="M90.64,240.351c0,0.288,0.04,0.471,0.118,0.548c0.078,0.076,0.276,0.114,0.596,0.114h0.5v0.813h-3.84v-0.813
			h0.418c0.315,0,0.512-0.037,0.588-0.112c0.076-0.074,0.115-0.258,0.115-0.55v-4.219c0-0.292-0.039-0.476-0.115-0.55
			c-0.076-0.075-0.272-0.112-0.588-0.112h-0.418v-0.809h4.277c0.896,0,1.561,0.142,1.996,0.423c0.434,0.281,0.65,0.714,0.65,1.298
			c0,0.515-0.173,0.926-0.518,1.233c-0.346,0.308-0.855,0.502-1.529,0.582c0.51,0.076,0.867,0.222,1.07,0.435
			c0.203,0.214,0.322,0.585,0.357,1.114l0.047,0.641c0.017,0.251,0.048,0.414,0.094,0.49c0.045,0.077,0.119,0.115,0.223,0.115
			c0.209,0,0.32-0.392,0.334-1.174c0-0.014,0-0.024,0-0.031h0.678c0.006,0.046,0.011,0.093,0.013,0.144
			c0.001,0.051,0.003,0.123,0.003,0.217c0,0.656-0.119,1.137-0.357,1.438c-0.238,0.303-0.613,0.454-1.127,0.454
			c-0.424,0-0.756-0.116-0.996-0.35c-0.239-0.232-0.366-0.556-0.38-0.97l-0.031-0.84c-0.021-0.56-0.146-0.939-0.372-1.139
			c-0.229-0.2-0.659-0.3-1.295-0.3H90.64V240.351z M90.64,237.63h1.261c0.508,0,0.879-0.086,1.115-0.259
			c0.236-0.172,0.354-0.445,0.354-0.821c0-0.386-0.112-0.662-0.338-0.829c-0.227-0.167-0.615-0.25-1.167-0.25H90.64V237.63z"/>
		<path class="st2" d="M97.288,236.133c0-0.292-0.038-0.476-0.115-0.55c-0.076-0.075-0.271-0.112-0.588-0.112h-0.344v-0.809h3.725
			v0.809h-0.459c-0.322,0-0.523,0.038-0.602,0.115c-0.078,0.076-0.117,0.259-0.117,0.547v3.432c0,0.5,0.118,0.861,0.354,1.084
			c0.235,0.223,0.616,0.334,1.142,0.334c0.496,0,0.871-0.119,1.125-0.357c0.253-0.238,0.38-0.592,0.38-1.061v-3.432
			c0-0.292-0.038-0.476-0.114-0.55c-0.076-0.075-0.273-0.112-0.589-0.112h-0.417v-0.809h3.277v0.809h-0.334
			c-0.316,0-0.512,0.037-0.589,0.112c-0.076,0.074-0.114,0.258-0.114,0.55v3.432c0,0.807-0.242,1.421-0.725,1.843
			c-0.482,0.423-1.184,0.634-2.104,0.634c-0.914,0-1.607-0.21-2.082-0.631c-0.474-0.421-0.711-1.036-0.711-1.846V236.133z"/>
		<path class="st2" d="M107.04,240.351c0,0.288,0.039,0.471,0.117,0.548c0.078,0.076,0.277,0.114,0.597,0.114h0.5v0.813h-3.839
			v-0.813h0.416c0.316,0,0.513-0.037,0.59-0.112c0.076-0.074,0.113-0.258,0.113-0.55v-4.219c0-0.292-0.037-0.476-0.113-0.55
			c-0.077-0.075-0.273-0.112-0.59-0.112h-0.416v-0.809h3.766c0.966,0,1.694,0.166,2.186,0.496c0.492,0.33,0.737,0.82,0.737,1.47
			c0,0.355-0.067,0.664-0.2,0.929c-0.135,0.264-0.336,0.488-0.607,0.673c-0.194,0.128-0.465,0.221-0.813,0.276
			s-0.832,0.083-1.453,0.083h-0.99V240.351z M107.04,237.78h0.714c0.656,0,1.118-0.087,1.384-0.263s0.398-0.472,0.398-0.89
			c0-0.427-0.129-0.727-0.383-0.899c-0.256-0.172-0.75-0.258-1.482-0.258h-0.631V237.78z"/>
		<path class="st2" d="M111.864,238.239c0-1.133,0.361-2.046,1.086-2.74c0.725-0.693,1.676-1.04,2.857-1.04
			c1.184,0,2.137,0.347,2.857,1.04c0.721,0.694,1.08,1.607,1.08,2.74c0,1.137-0.36,2.053-1.083,2.748
			c-0.722,0.695-1.674,1.043-2.854,1.043c-1.182,0-2.133-0.349-2.857-1.045C112.225,240.288,111.864,239.373,111.864,238.239z
			 M113.546,238.239c0,0.925,0.2,1.646,0.6,2.162c0.399,0.516,0.953,0.774,1.662,0.774s1.262-0.258,1.659-0.772
			c0.397-0.514,0.597-1.235,0.597-2.164c0-0.925-0.198-1.643-0.594-2.156c-0.396-0.513-0.95-0.769-1.662-0.769
			c-0.709,0-1.263,0.256-1.662,0.769C113.746,236.597,113.546,237.314,113.546,238.239z"/>
		<path class="st2" d="M14.59,253.167c0,0.288,0.039,0.471,0.117,0.548c0.078,0.076,0.276,0.114,0.597,0.114h0.619v0.813H11.76
			v-0.813h0.62c0.315,0,0.513-0.037,0.589-0.112c0.076-0.074,0.114-0.258,0.114-0.55v-1.522l-1.771-2.618
			c-0.188-0.277-0.358-0.471-0.512-0.578c-0.152-0.108-0.326-0.162-0.521-0.162H9.926v-0.809h3.787v0.809h-0.521
			c-0.163,0-0.282,0.019-0.356,0.055c-0.075,0.036-0.112,0.093-0.112,0.17c0,0.049,0.013,0.102,0.036,0.158
			c0.024,0.058,0.061,0.123,0.109,0.196l1.209,1.679l1.276-1.741c0.052-0.073,0.089-0.134,0.109-0.181s0.031-0.095,0.031-0.143
			c0-0.063-0.033-0.11-0.099-0.144c-0.066-0.033-0.162-0.05-0.287-0.05h-0.631v-0.809h3.318v0.809h-0.244
			c-0.188,0-0.34,0.032-0.455,0.097c-0.117,0.064-0.241,0.19-0.373,0.378l-2.136,2.884V253.167z"/>
		<path class="st2" d="M21.319,254.642v-0.813h0.418c0.315,0,0.512-0.037,0.588-0.112c0.076-0.074,0.115-0.258,0.115-0.55v-4.219
			c0-0.292-0.039-0.476-0.115-0.55c-0.076-0.075-0.272-0.112-0.588-0.112h-0.418v-0.809h7.044v2.853H27.55
			c-0.02-0.816-0.152-1.361-0.398-1.635c-0.244-0.272-0.74-0.409-1.486-0.409h-1.72v2.2h0.407c0.447,0,0.74-0.077,0.88-0.231
			c0.139-0.155,0.226-0.511,0.261-1.066l0.813-0.006v3.593l-0.813-0.005c-0.031-0.615-0.117-1.013-0.256-1.191
			s-0.431-0.269-0.875-0.269h-0.417v2.519h1.876c0.625,0,1.054-0.146,1.286-0.436c0.233-0.29,0.38-0.886,0.442-1.786h0.813v3.035
			H21.319z"/>
		<path class="st2" d="M36.651,254.642h-1.509l-3.56-5.84v4.364c0,0.292,0.037,0.476,0.114,0.55
			c0.076,0.075,0.272,0.112,0.589,0.112h0.489v0.813h-3.517v-0.813h0.5c0.316,0,0.513-0.037,0.589-0.112
			c0.077-0.074,0.114-0.258,0.114-0.55v-4.219c0-0.292-0.037-0.476-0.114-0.55c-0.076-0.075-0.272-0.112-0.589-0.112h-0.458v-0.809
			h3.063l3.167,5.199v-3.729c0-0.292-0.038-0.476-0.114-0.55c-0.076-0.075-0.273-0.112-0.589-0.112h-0.505v-0.809h3.385v0.809
			h-0.344c-0.318,0-0.518,0.038-0.596,0.115c-0.078,0.076-0.117,0.259-0.117,0.547V254.642z"/>
		<path class="st2" d="M44.012,251.868h0.916c-0.069,0.953-0.361,1.689-0.877,2.209s-1.213,0.779-2.092,0.779
			c-0.524,0-0.998-0.082-1.422-0.245s-0.803-0.414-1.137-0.751c-0.367-0.365-0.646-0.786-0.836-1.265
			c-0.189-0.478-0.283-0.991-0.283-1.541c0-0.553,0.092-1.059,0.275-1.52c0.185-0.461,0.463-0.877,0.834-1.249
			c0.337-0.337,0.714-0.592,1.131-0.764c0.416-0.172,0.864-0.259,1.344-0.259c0.382,0,0.742,0.061,1.08,0.181
			c0.34,0.119,0.672,0.305,0.998,0.555l0.214-0.641h0.771v2.936h-0.822c-0.084-0.685-0.303-1.215-0.659-1.591
			c-0.356-0.375-0.815-0.563-1.378-0.563c-0.656,0-1.172,0.262-1.545,0.787c-0.373,0.524-0.561,1.251-0.561,2.18
			c0,0.883,0.187,1.565,0.559,2.047c0.371,0.481,0.894,0.722,1.567,0.722c0.524,0,0.95-0.171,1.276-0.514
			C43.692,253.02,43.908,252.522,44.012,251.868z"/>
		<path class="st2" d="M45.111,254.642v-0.813h0.224c0.271,0,0.473-0.048,0.607-0.144c0.133-0.096,0.249-0.278,0.346-0.55
			l1.996-5.658h1.5l2.136,5.658c0.122,0.33,0.233,0.528,0.336,0.595c0.103,0.065,0.278,0.099,0.528,0.099h0.214v0.813h-3.704v-0.813
			h0.578c0.232,0,0.391-0.02,0.472-0.06s0.122-0.112,0.122-0.217c0-0.038-0.006-0.082-0.018-0.13
			c-0.012-0.049-0.037-0.122-0.076-0.22l-0.307-0.845h-2.359l-0.309,0.902c-0.006,0.024-0.019,0.061-0.035,0.109
			c-0.035,0.101-0.053,0.172-0.053,0.214c0,0.094,0.033,0.158,0.102,0.193c0.068,0.034,0.227,0.052,0.477,0.052h0.553v0.813H45.111z
			 M49.773,251.514l-0.927-2.477l-0.844,2.477H49.773z"/>
		<path class="st2" d="M55.816,253.167c0,0.288,0.04,0.471,0.118,0.548c0.078,0.076,0.276,0.114,0.596,0.114h0.5v0.813h-3.84v-0.813
			h0.418c0.315,0,0.512-0.037,0.588-0.112c0.076-0.074,0.115-0.258,0.115-0.55v-4.219c0-0.292-0.039-0.476-0.115-0.55
			c-0.076-0.075-0.272-0.112-0.588-0.112H53.19v-0.809h4.277c0.896,0,1.561,0.142,1.996,0.423c0.434,0.281,0.65,0.714,0.65,1.298
			c0,0.515-0.173,0.926-0.518,1.233c-0.346,0.308-0.855,0.502-1.529,0.582c0.51,0.076,0.867,0.222,1.07,0.435
			c0.203,0.214,0.322,0.585,0.357,1.114l0.047,0.641c0.017,0.251,0.048,0.414,0.094,0.49c0.045,0.077,0.119,0.115,0.223,0.115
			c0.209,0,0.32-0.392,0.334-1.174c0-0.014,0-0.024,0-0.031h0.678c0.006,0.046,0.011,0.093,0.013,0.144
			c0.001,0.051,0.003,0.123,0.003,0.217c0,0.656-0.119,1.137-0.357,1.438c-0.238,0.303-0.613,0.454-1.127,0.454
			c-0.424,0-0.756-0.116-0.996-0.35c-0.239-0.232-0.366-0.556-0.38-0.97l-0.031-0.84c-0.021-0.56-0.146-0.939-0.372-1.139
			c-0.229-0.2-0.659-0.3-1.295-0.3h-0.511V253.167z M55.816,250.445h1.261c0.508,0,0.879-0.086,1.115-0.259
			c0.236-0.172,0.354-0.445,0.354-0.821c0-0.386-0.112-0.662-0.338-0.829c-0.227-0.167-0.615-0.25-1.167-0.25h-1.225V250.445z"/>
		<path class="st2" d="M67.71,254.684l-0.381-0.595c-0.326,0.261-0.667,0.454-1.021,0.579c-0.354,0.125-0.739,0.188-1.156,0.188
			c-0.49,0-0.945-0.087-1.367-0.261c-0.422-0.174-0.798-0.43-1.128-0.767c-0.354-0.358-0.622-0.771-0.805-1.241
			c-0.183-0.469-0.274-0.98-0.274-1.533s0.096-1.066,0.285-1.54c0.189-0.475,0.464-0.892,0.825-1.249
			c0.337-0.33,0.714-0.58,1.133-0.749c0.419-0.168,0.872-0.253,1.362-0.253c0.41,0,0.783,0.064,1.12,0.193s0.653,0.327,0.948,0.595
			l0.303-0.615h0.755v2.795h-0.823c-0.139-0.661-0.398-1.175-0.776-1.541c-0.378-0.367-0.833-0.55-1.364-0.55
			c-0.637,0-1.143,0.262-1.52,0.787c-0.377,0.524-0.564,1.234-0.564,2.127c0,0.907,0.188,1.61,0.564,2.107
			c0.377,0.497,0.908,0.745,1.592,0.745c0.493,0,0.881-0.115,1.164-0.347s0.425-0.547,0.425-0.946v-0.407
			c0-0.25-0.038-0.411-0.114-0.482c-0.076-0.07-0.308-0.106-0.693-0.106h-0.453v-0.809h3.793v0.809h-0.464
			c-0.247,0-0.405,0.04-0.477,0.12s-0.106,0.264-0.106,0.553v2.394H67.71z"/>
		<path class="st2" d="M69.46,254.642v-0.813h0.224c0.271,0,0.474-0.048,0.606-0.144c0.135-0.096,0.25-0.278,0.348-0.55l1.994-5.658
			h1.5l2.137,5.658c0.121,0.33,0.233,0.528,0.336,0.595c0.103,0.065,0.279,0.099,0.529,0.099h0.213v0.813h-3.703v-0.813h0.578
			c0.232,0,0.389-0.02,0.471-0.06s0.123-0.112,0.123-0.217c0-0.038-0.006-0.082-0.019-0.13c-0.013-0.049-0.038-0.122-0.075-0.22
			l-0.308-0.845h-2.36l-0.307,0.902c-0.008,0.024-0.02,0.061-0.037,0.109c-0.035,0.101-0.052,0.172-0.052,0.214
			c0,0.094,0.034,0.158,0.102,0.193c0.067,0.034,0.227,0.052,0.477,0.052h0.552v0.813H69.46z M74.122,251.514l-0.928-2.477
			l-0.844,2.477H74.122z"/>
		<path class="st2" d="M77.539,254.642v-0.813h0.417c0.316,0,0.512-0.037,0.589-0.112c0.076-0.074,0.114-0.258,0.114-0.55v-4.219
			c0-0.292-0.038-0.476-0.114-0.55c-0.077-0.075-0.272-0.112-0.589-0.112h-0.417v-0.809h4.063c1.25,0,2.195,0.303,2.836,0.907
			c0.641,0.605,0.962,1.495,0.962,2.67c0,1.176-0.321,2.067-0.964,2.676s-1.588,0.912-2.834,0.912H77.539z M80.165,253.829h0.938
			c0.559,0,0.978-0.043,1.256-0.13c0.277-0.087,0.518-0.235,0.719-0.443c0.201-0.209,0.359-0.508,0.477-0.897
			c0.116-0.389,0.174-0.823,0.174-1.304c0-0.479-0.058-0.912-0.174-1.298c-0.117-0.386-0.275-0.684-0.477-0.892
			c-0.201-0.209-0.441-0.357-0.719-0.446c-0.278-0.089-0.697-0.133-1.256-0.133h-0.938V253.829z"/>
		<path class="st2" d="M86.333,251.055c0-1.133,0.361-2.046,1.086-2.74c0.725-0.693,1.676-1.04,2.857-1.04
			c1.184,0,2.137,0.347,2.857,1.04c0.721,0.694,1.08,1.607,1.08,2.74c0,1.137-0.36,2.053-1.083,2.748
			c-0.722,0.695-1.674,1.043-2.854,1.043c-1.182,0-2.133-0.349-2.857-1.045C86.694,253.103,86.333,252.188,86.333,251.055z
			 M88.014,251.055c0,0.925,0.2,1.646,0.6,2.162c0.399,0.516,0.953,0.774,1.662,0.774s1.262-0.258,1.659-0.772
			c0.397-0.514,0.597-1.235,0.597-2.164c0-0.925-0.198-1.643-0.594-2.156c-0.396-0.513-0.95-0.769-1.662-0.769
			c-0.709,0-1.263,0.256-1.662,0.769C88.215,249.412,88.014,250.13,88.014,251.055z"/>
		<path class="st2" d="M98.173,254.642v-0.813h0.418c0.315,0,0.512-0.037,0.588-0.112c0.076-0.074,0.115-0.258,0.115-0.55v-4.219
			c0-0.292-0.039-0.476-0.115-0.55c-0.076-0.075-0.272-0.112-0.588-0.112h-0.418v-0.809h4.064c1.25,0,2.195,0.303,2.836,0.907
			c0.641,0.605,0.961,1.495,0.961,2.67c0,1.176-0.32,2.067-0.963,2.676s-1.588,0.912-2.834,0.912H98.173z M100.799,253.829h0.938
			c0.559,0,0.977-0.043,1.255-0.13s0.518-0.235,0.719-0.443c0.202-0.209,0.36-0.508,0.478-0.897
			c0.115-0.389,0.174-0.823,0.174-1.304c0-0.479-0.059-0.912-0.174-1.298c-0.117-0.386-0.275-0.684-0.478-0.892
			c-0.201-0.209-0.44-0.357-0.719-0.446s-0.696-0.133-1.255-0.133h-0.938V253.829z"/>
		<path class="st2" d="M106.826,254.642v-0.813h0.417c0.316,0,0.512-0.037,0.589-0.112c0.076-0.074,0.114-0.258,0.114-0.55v-4.219
			c0-0.292-0.038-0.476-0.114-0.55c-0.077-0.075-0.272-0.112-0.589-0.112h-0.417v-0.809h7.044v2.853h-0.813
			c-0.021-0.816-0.153-1.361-0.398-1.635c-0.245-0.272-0.741-0.409-1.487-0.409h-1.719v2.2h0.406c0.447,0,0.741-0.077,0.881-0.231
			c0.139-0.155,0.225-0.511,0.26-1.066l0.813-0.006v3.593l-0.813-0.005c-0.031-0.615-0.116-1.013-0.256-1.191
			c-0.139-0.179-0.43-0.269-0.875-0.269h-0.416v2.519h1.875c0.625,0,1.055-0.146,1.287-0.436s0.38-0.886,0.442-1.786h0.813v3.035
			H106.826z"/>
		<path class="st2" d="M114.88,247.477h3.84v0.809h-0.5c-0.32,0-0.519,0.038-0.597,0.115c-0.078,0.076-0.118,0.259-0.118,0.547
			v4.881h1.334c0.477,0,0.832-0.041,1.068-0.122c0.236-0.082,0.406-0.219,0.51-0.41c0.102-0.184,0.176-0.408,0.225-0.672
			c0.049-0.265,0.072-0.581,0.072-0.949v-0.131h0.824v3.098h-6.658v-0.813h0.417c0.315,0,0.513-0.037,0.589-0.112
			c0.076-0.074,0.114-0.258,0.114-0.55v-4.219c0-0.292-0.038-0.476-0.114-0.55c-0.076-0.075-0.273-0.112-0.589-0.112h-0.417V247.477
			z"/>
		<path class="st2" d="M12.274,267.457v-0.813h0.416c0.316,0,0.513-0.037,0.59-0.112c0.076-0.074,0.113-0.258,0.113-0.55v-4.219
			c0-0.292-0.037-0.476-0.113-0.55c-0.077-0.075-0.273-0.112-0.59-0.112h-0.416v-0.809h4.063c1.251,0,2.196,0.303,2.837,0.907
			c0.641,0.605,0.962,1.495,0.962,2.67c0,1.176-0.322,2.067-0.965,2.676s-1.587,0.912-2.834,0.912H12.274z M14.899,266.643h0.938
			c0.56,0,0.979-0.043,1.256-0.13s0.518-0.235,0.719-0.443c0.201-0.209,0.36-0.508,0.477-0.897c0.117-0.389,0.175-0.823,0.175-1.304
			c0-0.479-0.058-0.912-0.175-1.298c-0.116-0.386-0.275-0.684-0.477-0.892c-0.201-0.209-0.441-0.357-0.719-0.446
			s-0.696-0.133-1.256-0.133h-0.938V266.643z"/>
		<path class="st2" d="M20.948,267.457v-0.813h0.458c0.315,0,0.513-0.037,0.589-0.112c0.076-0.074,0.114-0.258,0.114-0.55v-4.219
			c0-0.292-0.038-0.476-0.114-0.55c-0.076-0.075-0.273-0.112-0.589-0.112h-0.458v-0.809h3.865v0.809h-0.459
			c-0.319,0-0.518,0.037-0.594,0.112c-0.076,0.074-0.114,0.258-0.114,0.55v4.219c0,0.292,0.038,0.476,0.114,0.55
			c0.076,0.075,0.274,0.112,0.594,0.112h0.459v0.813H20.948z"/>
		<path class="st2" d="M25.548,267.457V264.5h0.833c0.114,0.713,0.378,1.258,0.792,1.635c0.413,0.378,0.949,0.566,1.609,0.566
			c0.477,0,0.84-0.08,1.092-0.24s0.377-0.391,0.377-0.693c0-0.271-0.096-0.492-0.289-0.662c-0.192-0.171-0.5-0.305-0.924-0.401
			l-1.162-0.271c-0.834-0.194-1.434-0.458-1.8-0.79s-0.55-0.776-0.55-1.332c0-0.675,0.234-1.215,0.703-1.622
			c0.469-0.406,1.096-0.61,1.881-0.61c0.389,0,0.753,0.061,1.092,0.181c0.338,0.119,0.668,0.305,0.986,0.555l0.375-0.521h0.641
			v2.712h-0.813c-0.121-0.65-0.377-1.154-0.768-1.512c-0.391-0.358-0.881-0.537-1.472-0.537c-0.431,0-0.765,0.08-1.001,0.242
			c-0.236,0.161-0.354,0.387-0.354,0.675c0,0.244,0.083,0.438,0.25,0.584c0.166,0.146,0.434,0.261,0.803,0.345l1.442,0.333
			c0.765,0.175,1.335,0.446,1.714,0.816s0.568,0.842,0.568,1.416c0,0.678-0.249,1.231-0.746,1.66
			c-0.496,0.43-1.141,0.645-1.932,0.645c-0.4,0-0.796-0.073-1.188-0.219c-0.393-0.146-0.791-0.369-1.193-0.668l-0.234,0.673H25.548z
			"/>
		<path class="st2" d="M32.194,267.457v-0.813h0.417c0.315,0,0.513-0.037,0.589-0.112c0.076-0.074,0.114-0.258,0.114-0.55v-4.219
			c0-0.292-0.038-0.476-0.114-0.55c-0.076-0.075-0.273-0.112-0.589-0.112h-0.417v-0.809h7.043v2.853h-0.813
			c-0.021-0.816-0.153-1.361-0.398-1.635c-0.244-0.272-0.74-0.409-1.487-0.409h-1.72v2.2h0.407c0.448,0,0.741-0.077,0.88-0.231
			c0.139-0.155,0.227-0.511,0.261-1.066l0.813-0.006v3.593l-0.813-0.005c-0.031-0.615-0.116-1.013-0.255-1.191
			s-0.432-0.269-0.875-0.269h-0.418v2.519h1.876c0.625,0,1.054-0.146,1.286-0.436c0.233-0.29,0.381-0.886,0.443-1.786h0.813v3.035
			H32.194z"/>
		<path class="st2" d="M47.526,267.457h-1.51l-3.56-5.84v4.364c0,0.292,0.038,0.476,0.114,0.55c0.076,0.075,0.273,0.112,0.589,0.112
			h0.489v0.813h-3.516v-0.813h0.5c0.316,0,0.512-0.037,0.588-0.112c0.077-0.074,0.115-0.258,0.115-0.55v-4.219
			c0-0.292-0.038-0.476-0.115-0.55c-0.076-0.075-0.271-0.112-0.588-0.112h-0.459v-0.809h3.063l3.167,5.199v-3.729
			c0-0.292-0.037-0.476-0.114-0.55c-0.076-0.075-0.272-0.112-0.589-0.112h-0.505v-0.809h3.386v0.809h-0.344
			c-0.319,0-0.518,0.038-0.596,0.115c-0.078,0.076-0.117,0.259-0.117,0.547V267.457z M43.118,259.338H42.68
			c0.094-0.466,0.239-0.812,0.436-1.037c0.195-0.227,0.453-0.339,0.773-0.339c0.076,0,0.146,0.004,0.211,0.013
			s0.127,0.021,0.189,0.039l0.631,0.162c0.018,0.003,0.037,0.007,0.058,0.01c0.087,0.021,0.146,0.031,0.177,0.031
			c0.133,0,0.236-0.037,0.313-0.112c0.076-0.074,0.141-0.197,0.193-0.367h0.427c-0.091,0.452-0.236,0.796-0.438,1.032
			c-0.202,0.236-0.452,0.354-0.75,0.354c-0.052,0-0.106-0.004-0.164-0.013s-0.122-0.021-0.196-0.039L43.93,258.9
			c-0.082-0.021-0.146-0.035-0.189-0.042s-0.079-0.011-0.107-0.011c-0.139,0-0.25,0.041-0.336,0.123
			C43.214,259.052,43.153,259.175,43.118,259.338z"/>
		<path class="st2" d="M49.156,263.869c0-1.133,0.362-2.046,1.087-2.74c0.724-0.693,1.676-1.04,2.857-1.04
			c1.184,0,2.137,0.347,2.857,1.04c0.72,0.694,1.08,1.607,1.08,2.74c0,1.137-0.361,2.053-1.084,2.748
			c-0.722,0.695-1.674,1.043-2.854,1.043c-1.182,0-2.134-0.349-2.857-1.045C49.518,265.918,49.156,265.003,49.156,263.869z
			 M50.839,263.869c0,0.925,0.199,1.646,0.6,2.162c0.398,0.516,0.953,0.774,1.662,0.774c0.708,0,1.261-0.258,1.658-0.772
			c0.398-0.514,0.597-1.235,0.597-2.164c0-0.925-0.198-1.643-0.594-2.156c-0.396-0.513-0.95-0.769-1.661-0.769
			c-0.709,0-1.264,0.256-1.662,0.769C51.038,262.226,50.839,262.944,50.839,263.869z"/>
		<path class="st2" d="M67.207,267.457v-0.813h0.479c0.315,0,0.512-0.037,0.588-0.112c0.076-0.074,0.115-0.258,0.115-0.55v-4.631
			l-2.307,6.106h-0.706l-2.171-6.226v4.75c0,0.292,0.038,0.476,0.115,0.55c0.076,0.075,0.271,0.112,0.588,0.112h0.428v0.813h-3.34
			v-0.813h0.386c0.315,0,0.513-0.037,0.589-0.112c0.076-0.074,0.114-0.258,0.114-0.55v-4.219c0-0.292-0.038-0.476-0.114-0.55
			c-0.076-0.075-0.273-0.112-0.589-0.112h-0.386v-0.809h3.329l1.595,4.646l1.775-4.646h3.193v0.809h-0.406
			c-0.319,0-0.518,0.038-0.596,0.115c-0.078,0.076-0.117,0.259-0.117,0.547v4.219c0,0.288,0.039,0.471,0.117,0.548
			c0.078,0.076,0.276,0.114,0.596,0.114h0.406v0.813H67.207z"/>
		<path class="st2" d="M71.53,263.869c0-1.133,0.362-2.046,1.086-2.74c0.725-0.693,1.677-1.04,2.857-1.04
			c1.185,0,2.137,0.347,2.857,1.04c0.721,0.694,1.081,1.607,1.081,2.74c0,1.137-0.36,2.053-1.083,2.748s-1.674,1.043-2.855,1.043
			c-1.181,0-2.133-0.349-2.857-1.045C71.892,265.918,71.53,265.003,71.53,263.869z M73.213,263.869c0,0.925,0.2,1.646,0.599,2.162
			c0.4,0.516,0.954,0.774,1.662,0.774c0.709,0,1.262-0.258,1.66-0.772c0.396-0.514,0.596-1.235,0.596-2.164
			c0-0.925-0.197-1.643-0.594-2.156c-0.396-0.513-0.949-0.769-1.662-0.769c-0.708,0-1.262,0.256-1.662,0.769
			C73.413,262.226,73.213,262.944,73.213,263.869z"/>
		<path class="st2" d="M80.042,267.457v-0.813h0.418c0.315,0,0.512-0.037,0.588-0.112c0.076-0.074,0.115-0.258,0.115-0.55v-4.219
			c0-0.292-0.039-0.476-0.115-0.55c-0.076-0.075-0.272-0.112-0.588-0.112h-0.418v-0.809h4.064c1.25,0,2.195,0.303,2.836,0.907
			c0.641,0.605,0.961,1.495,0.961,2.67c0,1.176-0.32,2.067-0.963,2.676s-1.588,0.912-2.834,0.912H80.042z M82.668,266.643h0.938
			c0.559,0,0.977-0.043,1.255-0.13s0.518-0.235,0.719-0.443c0.202-0.209,0.36-0.508,0.478-0.897
			c0.115-0.389,0.174-0.823,0.174-1.304c0-0.479-0.059-0.912-0.174-1.298c-0.117-0.386-0.275-0.684-0.478-0.892
			c-0.201-0.209-0.44-0.357-0.719-0.446s-0.696-0.133-1.255-0.133h-0.938V266.643z"/>
		<path class="st2" d="M89.721,261.763c0-0.292-0.038-0.476-0.115-0.55c-0.076-0.075-0.271-0.112-0.588-0.112h-0.344v-0.809h3.725
			v0.809H91.94c-0.322,0-0.523,0.038-0.602,0.115c-0.078,0.076-0.117,0.259-0.117,0.547v3.432c0,0.5,0.118,0.861,0.354,1.084
			c0.235,0.223,0.616,0.334,1.142,0.334c0.496,0,0.871-0.119,1.125-0.357c0.253-0.238,0.38-0.592,0.38-1.061v-3.432
			c0-0.292-0.038-0.476-0.114-0.55c-0.076-0.075-0.273-0.112-0.589-0.112h-0.417v-0.809h3.277v0.809h-0.334
			c-0.316,0-0.512,0.037-0.589,0.112c-0.076,0.074-0.114,0.258-0.114,0.55v3.432c0,0.807-0.242,1.421-0.725,1.843
			c-0.482,0.423-1.184,0.634-2.104,0.634c-0.914,0-1.607-0.21-2.082-0.631c-0.474-0.421-0.711-1.036-0.711-1.846V261.763z"/>
		<path class="st2" d="M96.847,260.292h3.839v0.809h-0.5c-0.318,0-0.518,0.038-0.596,0.115c-0.078,0.076-0.117,0.259-0.117,0.547
			v4.881h1.334c0.475,0,0.831-0.041,1.067-0.122c0.235-0.082,0.406-0.219,0.511-0.41c0.101-0.184,0.175-0.408,0.224-0.672
			c0.049-0.265,0.073-0.581,0.073-0.949v-0.131h0.822v3.098h-6.657v-0.813h0.417c0.316,0,0.512-0.037,0.589-0.112
			c0.076-0.074,0.114-0.258,0.114-0.55v-4.219c0-0.292-0.038-0.476-0.114-0.55c-0.077-0.075-0.272-0.112-0.589-0.112h-0.417V260.292
			z"/>
		<path class="st2" d="M103.854,267.457v-0.813h0.225c0.271,0,0.473-0.048,0.606-0.144s0.249-0.278,0.347-0.55l1.995-5.658h1.5
			l2.136,5.658c0.122,0.33,0.234,0.528,0.336,0.595c0.104,0.065,0.279,0.099,0.529,0.099h0.213v0.813h-3.703v-0.813h0.578
			c0.232,0,0.39-0.02,0.471-0.06c0.082-0.04,0.123-0.112,0.123-0.217c0-0.038-0.006-0.082-0.018-0.13
			c-0.013-0.049-0.038-0.122-0.076-0.22l-0.307-0.845h-2.36l-0.308,0.902c-0.007,0.024-0.02,0.061-0.036,0.109
			c-0.035,0.101-0.052,0.172-0.052,0.214c0,0.094,0.033,0.158,0.102,0.193c0.067,0.034,0.227,0.052,0.477,0.052h0.552v0.813H103.854
			z M108.516,264.328l-0.927-2.477l-0.844,2.477H108.516z"/>
		<path class="st2" d="M114.559,265.981c0,0.288,0.039,0.471,0.117,0.548c0.078,0.076,0.277,0.114,0.597,0.114h0.5v0.813h-3.839
			v-0.813h0.416c0.316,0,0.513-0.037,0.59-0.112c0.076-0.074,0.113-0.258,0.113-0.55v-4.219c0-0.292-0.037-0.476-0.113-0.55
			c-0.077-0.075-0.273-0.112-0.59-0.112h-0.416v-0.809h4.276c0.896,0,1.562,0.142,1.995,0.423c0.435,0.281,0.651,0.714,0.651,1.298
			c0,0.515-0.173,0.926-0.519,1.233s-0.855,0.502-1.529,0.582c0.512,0.076,0.868,0.222,1.071,0.435
			c0.203,0.214,0.321,0.585,0.356,1.114l0.047,0.641c0.018,0.251,0.049,0.414,0.094,0.49c0.045,0.077,0.12,0.115,0.225,0.115
			c0.208,0,0.319-0.392,0.333-1.174c0-0.014,0-0.024,0-0.031h0.677c0.008,0.046,0.012,0.093,0.014,0.144s0.002,0.123,0.002,0.217
			c0,0.656-0.119,1.137-0.356,1.438c-0.237,0.303-0.614,0.454-1.128,0.454c-0.424,0-0.755-0.116-0.994-0.35
			c-0.24-0.232-0.367-0.556-0.381-0.97l-0.031-0.84c-0.021-0.56-0.145-0.939-0.373-1.139c-0.227-0.2-0.658-0.3-1.294-0.3h-0.511
			V265.981z M114.559,263.26h1.261c0.507,0,0.879-0.086,1.114-0.259c0.236-0.172,0.355-0.445,0.355-0.821
			c0-0.386-0.113-0.662-0.34-0.829c-0.225-0.167-0.613-0.25-1.166-0.25h-1.225V263.26z"/>
		<path class="st2" d="M37.708,278.797c0,0.288,0.04,0.471,0.118,0.548c0.078,0.076,0.276,0.114,0.597,0.114h0.5v0.813h-3.84v-0.813
			H35.5c0.315,0,0.513-0.037,0.589-0.112c0.076-0.074,0.114-0.258,0.114-0.55v-4.219c0-0.292-0.038-0.476-0.114-0.55
			c-0.076-0.075-0.273-0.112-0.589-0.112h-0.417v-0.809h3.767c0.966,0,1.694,0.166,2.185,0.496c0.492,0.33,0.738,0.82,0.738,1.47
			c0,0.355-0.067,0.664-0.201,0.929c-0.134,0.264-0.336,0.488-0.607,0.673c-0.193,0.128-0.465,0.221-0.813,0.276
			c-0.347,0.056-0.831,0.083-1.453,0.083h-0.99V278.797z M37.708,276.225h0.715c0.656,0,1.117-0.087,1.383-0.263
			s0.398-0.472,0.398-0.89c0-0.427-0.128-0.727-0.383-0.899c-0.256-0.172-0.75-0.258-1.482-0.258h-0.631V276.225z"/>
		<path class="st2" d="M45.016,278.797c0,0.288,0.04,0.471,0.118,0.548c0.078,0.076,0.276,0.114,0.597,0.114h0.5v0.813h-3.84v-0.813
			h0.417c0.315,0,0.513-0.037,0.589-0.112c0.076-0.074,0.114-0.258,0.114-0.55v-4.219c0-0.292-0.038-0.476-0.114-0.55
			c-0.076-0.075-0.273-0.112-0.589-0.112h-0.417v-0.809h4.277c0.896,0,1.561,0.142,1.995,0.423s0.651,0.714,0.651,1.298
			c0,0.515-0.174,0.926-0.519,1.233c-0.346,0.308-0.855,0.502-1.529,0.582c0.511,0.076,0.868,0.222,1.071,0.435
			c0.203,0.214,0.321,0.585,0.356,1.114l0.047,0.641c0.017,0.251,0.048,0.414,0.094,0.49c0.045,0.077,0.12,0.115,0.224,0.115
			c0.209,0,0.32-0.392,0.334-1.174c0-0.014,0-0.024,0-0.031h0.677c0.007,0.046,0.011,0.093,0.013,0.144s0.003,0.123,0.003,0.217
			c0,0.656-0.119,1.137-0.356,1.438c-0.238,0.303-0.614,0.454-1.128,0.454c-0.424,0-0.755-0.116-0.995-0.35
			c-0.24-0.232-0.367-0.556-0.381-0.97l-0.031-0.84c-0.021-0.56-0.145-0.939-0.372-1.139c-0.228-0.2-0.659-0.3-1.294-0.3h-0.512
			V278.797z M45.016,276.075h1.262c0.507,0,0.879-0.086,1.114-0.259c0.236-0.172,0.354-0.445,0.354-0.821
			c0-0.386-0.113-0.662-0.339-0.829s-0.614-0.25-1.167-0.25h-1.225V276.075z"/>
		<path class="st2" d="M50.659,280.272v-0.813h0.459c0.315,0,0.512-0.037,0.588-0.112c0.076-0.074,0.115-0.258,0.115-0.55v-4.219
			c0-0.292-0.039-0.476-0.115-0.55c-0.076-0.075-0.272-0.112-0.588-0.112h-0.459v-0.809h3.865v0.809h-0.459
			c-0.318,0-0.517,0.037-0.594,0.112c-0.076,0.074-0.113,0.258-0.113,0.55v4.219c0,0.292,0.037,0.476,0.113,0.55
			c0.077,0.075,0.275,0.112,0.594,0.112h0.459v0.813H50.659z"/>
		<path class="st2" d="M62.312,280.272h-1.509l-3.561-5.84v4.364c0,0.292,0.039,0.476,0.115,0.55
			c0.076,0.075,0.272,0.112,0.588,0.112h0.49v0.813h-3.516v-0.813h0.5c0.315,0,0.512-0.037,0.588-0.112
			c0.076-0.074,0.115-0.258,0.115-0.55v-4.219c0-0.292-0.039-0.476-0.115-0.55c-0.076-0.075-0.272-0.112-0.588-0.112h-0.459v-0.809
			h3.063l3.168,5.199v-3.729c0-0.292-0.038-0.476-0.115-0.55c-0.076-0.075-0.271-0.112-0.588-0.112h-0.506v-0.809h3.387v0.809
			h-0.344c-0.32,0-0.519,0.038-0.597,0.115c-0.078,0.076-0.117,0.259-0.117,0.547V280.272z"/>
		<path class="st2" d="M69.673,277.498h0.918c-0.07,0.953-0.363,1.689-0.879,2.209s-1.213,0.779-2.091,0.779
			c-0.524,0-0.999-0.082-1.423-0.245s-0.802-0.414-1.135-0.751c-0.369-0.365-0.646-0.786-0.836-1.265
			c-0.189-0.478-0.285-0.991-0.285-1.541c0-0.553,0.093-1.059,0.277-1.52c0.184-0.461,0.461-0.877,0.833-1.249
			c0.337-0.337,0.714-0.592,1.13-0.764c0.418-0.172,0.865-0.259,1.345-0.259c0.382,0,0.742,0.061,1.081,0.181
			c0.338,0.119,0.671,0.305,0.997,0.555l0.214-0.641h0.771v2.936h-0.824c-0.083-0.685-0.303-1.215-0.658-1.591
			c-0.356-0.375-0.815-0.563-1.378-0.563c-0.657,0-1.171,0.262-1.545,0.787c-0.373,0.524-0.56,1.251-0.56,2.18
			c0,0.883,0.186,1.565,0.557,2.047c0.372,0.481,0.895,0.722,1.568,0.722c0.524,0,0.95-0.171,1.276-0.514
			C69.354,278.65,69.569,278.152,69.673,277.498z"/>
		<path class="st2" d="M71.376,280.272v-0.813h0.459c0.316,0,0.512-0.037,0.589-0.112c0.076-0.074,0.114-0.258,0.114-0.55v-4.219
			c0-0.292-0.038-0.476-0.114-0.55c-0.077-0.075-0.272-0.112-0.589-0.112h-0.459v-0.809h3.865v0.809h-0.458
			c-0.319,0-0.517,0.037-0.594,0.112c-0.076,0.074-0.114,0.258-0.114,0.55v4.219c0,0.292,0.038,0.476,0.114,0.55
			c0.077,0.075,0.274,0.112,0.594,0.112h0.458v0.813H71.376z"/>
		<path class="st2" d="M78.378,278.797c0,0.288,0.039,0.471,0.117,0.548c0.078,0.076,0.277,0.114,0.597,0.114h0.5v0.813h-3.839
			v-0.813h0.416c0.316,0,0.513-0.037,0.59-0.112c0.076-0.074,0.113-0.258,0.113-0.55v-4.219c0-0.292-0.037-0.476-0.113-0.55
			c-0.077-0.075-0.273-0.112-0.59-0.112h-0.416v-0.809h3.766c0.966,0,1.694,0.166,2.186,0.496c0.492,0.33,0.737,0.82,0.737,1.47
			c0,0.355-0.067,0.664-0.2,0.929c-0.135,0.264-0.336,0.488-0.607,0.673c-0.194,0.128-0.465,0.221-0.813,0.276
			s-0.832,0.083-1.453,0.083h-0.99V278.797z M78.378,276.225h0.714c0.656,0,1.118-0.087,1.384-0.263s0.398-0.472,0.398-0.89
			c0-0.427-0.129-0.727-0.383-0.899c-0.256-0.172-0.75-0.258-1.482-0.258h-0.631V276.225z"/>
		<path class="st2" d="M81.889,280.272v-0.813h0.223c0.271,0,0.474-0.048,0.607-0.144s0.25-0.278,0.347-0.55l1.995-5.658h1.5
			l2.137,5.658c0.121,0.33,0.232,0.528,0.336,0.595c0.102,0.065,0.278,0.099,0.528,0.099h0.214v0.813h-3.704v-0.813h0.578
			c0.232,0,0.39-0.02,0.472-0.06c0.081-0.04,0.122-0.112,0.122-0.217c0-0.038-0.006-0.082-0.019-0.13
			c-0.012-0.049-0.037-0.122-0.075-0.22l-0.308-0.845h-2.359l-0.308,0.902c-0.007,0.024-0.019,0.061-0.036,0.109
			c-0.035,0.101-0.053,0.172-0.053,0.214c0,0.094,0.034,0.158,0.102,0.193c0.068,0.034,0.227,0.052,0.477,0.052h0.553v0.813H81.889z
			 M86.551,277.143l-0.928-2.477l-0.844,2.477H86.551z"/>
		<path class="st2" d="M89.968,273.107h3.839v0.809h-0.5c-0.318,0-0.518,0.038-0.596,0.115c-0.078,0.076-0.117,0.259-0.117,0.547
			v4.881h1.334c0.475,0,0.831-0.041,1.067-0.122c0.235-0.082,0.406-0.219,0.511-0.41c0.101-0.184,0.175-0.408,0.224-0.672
			c0.049-0.265,0.073-0.581,0.073-0.949v-0.131h0.822v3.098h-6.657v-0.813h0.417c0.316,0,0.512-0.037,0.589-0.112
			c0.076-0.074,0.114-0.258,0.114-0.55v-4.219c0-0.292-0.038-0.476-0.114-0.55c-0.077-0.075-0.272-0.112-0.589-0.112h-0.417V273.107
			z"/>
	</g>
	<linearGradient id="SVGID_2_" gradientUnits="userSpaceOnUse" x1="113.6294" y1="189.6857" x2="29.8345" y2="105.8907">
		<stop  offset="0" style="stop-color:#DA1D1D"/>
		<stop  offset="1" style="stop-color:#EFC33A"/>
	</linearGradient>
	<line class="st3" x1="0" y1="142.067" x2="132.022" y2="142.067"/>
	<g>
		<linearGradient id="SVGID_3_" gradientUnits="userSpaceOnUse" x1="123.4915" y1="185.8764" x2="22.3421" y2="84.727">
			<stop  offset="0" style="stop-color:#DA1D1D"/>
			<stop  offset="1" style="stop-color:#EFC33A"/>
		</linearGradient>
		<path class="st4" d="M66.011,76.056C29.554,76.056,0,105.61,0,142.067h132.022C132.022,105.61,102.468,76.056,66.011,76.056z"/>
		<radialGradient id="SVGID_4_" cx="79.7799" cy="158.7701" r="47.8101" gradientUnits="userSpaceOnUse">
			<stop  offset="0" style="stop-color:#000000"/>
			<stop  offset="0.1832" style="stop-color:#333333"/>
			<stop  offset="0.5888" style="stop-color:#A0A0A0"/>
			<stop  offset="0.8695" style="stop-color:#E4E4E4"/>
			<stop  offset="1" style="stop-color:#FFFFFF"/>
		</radialGradient>
		<circle class="st5" cx="79.78" cy="158.77" r="47.81"/>
		<circle class="st1" cx="66.011" cy="142.067" r="48.901"/>
		<radialGradient id="SVGID_5_" cx="71.5021" cy="148.7496" r="38.9231" gradientUnits="userSpaceOnUse">
			<stop  offset="0" style="stop-color:#000000"/>
			<stop  offset="0.1832" style="stop-color:#333333"/>
			<stop  offset="0.5888" style="stop-color:#A0A0A0"/>
			<stop  offset="0.8695" style="stop-color:#E4E4E4"/>
			<stop  offset="1" style="stop-color:#FFFFFF"/>
		</radialGradient>
		<circle class="st6" cx="71.502" cy="148.75" r="38.923"/>
		<linearGradient id="SVGID_6_" gradientUnits="userSpaceOnUse" x1="30.9674" y1="142.0672" x2="101.0544" y2="142.0672">
			<stop  offset="0" style="stop-color:#DA1D1D"/>
			<stop  offset="1" style="stop-color:#EFC33A"/>
		</linearGradient>
		<circle class="st7" cx="66.011" cy="142.067" r="35.044"/>
		<g>
			<g>
				<path class="st1" d="M38.731,141.657v-0.942h0.483c0.366,0,0.594-0.043,0.683-0.13c0.088-0.086,0.133-0.299,0.133-0.637v-4.886
					c0-0.338-0.045-0.55-0.133-0.637c-0.089-0.086-0.316-0.13-0.683-0.13h-0.483v-0.936h8.166v3.304h-0.942
					c-0.024-0.946-0.179-1.577-0.462-1.894c-0.283-0.316-0.858-0.474-1.725-0.474h-1.992v2.549h0.471
					c0.52,0,0.859-0.089,1.021-0.269s0.262-0.591,0.302-1.235l0.942-0.006v4.162l-0.942-0.006c-0.036-0.712-0.135-1.172-0.296-1.38
					s-0.499-0.311-1.015-0.311h-0.482v2.917h2.174c0.725,0,1.222-0.168,1.492-0.504c0.27-0.336,0.44-1.025,0.513-2.068h0.942v3.515
					H38.731z"/>
				<path class="st1" d="M48.329,141.657v-3.425h0.966c0.134,0.826,0.438,1.457,0.919,1.894c0.479,0.437,1.101,0.655,1.865,0.655
					c0.552,0,0.974-0.092,1.266-0.278c0.292-0.185,0.438-0.453,0.438-0.803c0-0.314-0.111-0.57-0.335-0.767
					s-0.581-0.352-1.071-0.465l-1.348-0.314c-0.967-0.226-1.662-0.531-2.086-0.915c-0.426-0.385-0.638-0.899-0.638-1.543
					c0-0.781,0.271-1.407,0.815-1.878c0.543-0.471,1.27-0.707,2.18-0.707c0.451,0,0.873,0.069,1.266,0.208
					c0.393,0.139,0.774,0.353,1.145,0.643l0.436-0.604h0.742v3.141h-0.941c-0.142-0.753-0.438-1.336-0.892-1.751
					c-0.452-0.415-1.021-0.622-1.706-0.622c-0.5,0-0.886,0.094-1.16,0.281c-0.273,0.188-0.41,0.448-0.41,0.782
					c0,0.282,0.097,0.507,0.29,0.677c0.193,0.169,0.503,0.302,0.931,0.398l1.672,0.387c0.887,0.201,1.549,0.516,1.988,0.945
					c0.438,0.429,0.658,0.976,0.658,1.64c0,0.785-0.289,1.426-0.864,1.924c-0.575,0.497-1.323,0.746-2.241,0.746
					c-0.463,0-0.922-0.084-1.377-0.253c-0.455-0.169-0.916-0.427-1.383-0.773l-0.271,0.779H48.329z"/>
				<path class="st1" d="M59.067,134.27h-0.162c-0.665,0-1.148,0.198-1.45,0.595c-0.302,0.397-0.459,1.04-0.472,1.93h-0.947v-3.437
					h7.815v3.437h-0.948c-0.008-0.877-0.163-1.518-0.465-1.92c-0.303-0.403-0.783-0.604-1.443-0.604h-0.182v5.677
					c0,0.334,0.045,0.546,0.136,0.634c0.091,0.089,0.321,0.133,0.691,0.133h0.707v0.942h-4.813v-0.942h0.719
					c0.365,0,0.594-0.043,0.682-0.13c0.089-0.086,0.133-0.299,0.133-0.637V134.27z"/>
				<path class="st1" d="M64.449,141.657v-0.942h0.531c0.366,0,0.595-0.043,0.683-0.13c0.088-0.086,0.133-0.299,0.133-0.637v-4.886
					c0-0.338-0.045-0.55-0.133-0.637c-0.088-0.086-0.316-0.13-0.683-0.13h-0.531v-0.936h4.481v0.936h-0.531
					c-0.371,0-0.6,0.043-0.689,0.13c-0.088,0.087-0.133,0.299-0.133,0.637v4.886c0,0.338,0.045,0.551,0.133,0.637
					c0.09,0.087,0.318,0.13,0.689,0.13h0.531v0.942H64.449z"/>
				<path class="st1" d="M72.729,141.657l-2.325-6.565c-0.108-0.306-0.232-0.515-0.371-0.628c-0.14-0.113-0.333-0.169-0.583-0.169
					h-0.362v-0.936h4.343v0.936H72.79c-0.233,0-0.401,0.029-0.504,0.088c-0.104,0.058-0.154,0.15-0.154,0.275
					c0,0.072,0.014,0.161,0.039,0.266c0.026,0.104,0.063,0.226,0.111,0.362l1.535,4.307l1.643-4.403
					c0.04-0.097,0.071-0.194,0.094-0.293c0.021-0.099,0.033-0.182,0.033-0.25c0-0.133-0.052-0.225-0.154-0.275
					s-0.311-0.076-0.625-0.076h-0.55v-0.936h3.95v0.936H77.96c-0.293,0-0.514,0.052-0.658,0.154s-0.279,0.325-0.404,0.667
					l-2.452,6.541H72.729z"/>
				<path class="st1" d="M78.341,141.657v-0.942h0.483c0.366,0,0.594-0.043,0.683-0.13c0.088-0.086,0.133-0.299,0.133-0.637v-4.886
					c0-0.338-0.045-0.55-0.133-0.637c-0.089-0.086-0.316-0.13-0.683-0.13h-0.483v-0.936h8.166v3.304h-0.942
					c-0.024-0.946-0.179-1.577-0.462-1.894c-0.283-0.316-0.858-0.474-1.725-0.474h-1.992v2.549h0.471
					c0.52,0,0.859-0.089,1.021-0.269s0.262-0.591,0.302-1.235l0.942-0.006v4.162l-0.942-0.006c-0.036-0.712-0.135-1.172-0.296-1.38
					s-0.499-0.311-1.015-0.311h-0.482v2.917h2.174c0.725,0,1.222-0.168,1.492-0.504c0.27-0.336,0.44-1.025,0.513-2.068h0.942v3.515
					H78.341z"/>
				<path class="st1" d="M96.116,141.657h-1.749l-4.128-6.765v5.055c0,0.338,0.045,0.551,0.133,0.637
					c0.088,0.087,0.316,0.13,0.683,0.13h0.567v0.942h-4.076v-0.942h0.58c0.365,0,0.594-0.043,0.682-0.13
					c0.089-0.086,0.133-0.299,0.133-0.637v-4.886c0-0.338-0.044-0.55-0.133-0.637c-0.088-0.086-0.316-0.13-0.682-0.13h-0.532v-0.936
					h3.552l3.672,6.022v-4.319c0-0.338-0.045-0.55-0.133-0.637c-0.088-0.086-0.316-0.13-0.683-0.13h-0.586v-0.936h3.927v0.936
					h-0.399c-0.37,0-0.601,0.044-0.691,0.133c-0.091,0.088-0.136,0.3-0.136,0.634V141.657z"/>
				<path class="st1" d="M43.895,149.113h-0.162c-0.665,0-1.148,0.198-1.45,0.595s-0.459,1.04-0.472,1.93h-0.947v-3.437h7.815v3.437
					h-0.948c-0.008-0.878-0.163-1.518-0.465-1.921c-0.303-0.402-0.783-0.604-1.443-0.604h-0.182v5.678
					c0,0.334,0.045,0.545,0.136,0.634s0.321,0.133,0.691,0.133h0.707v0.942h-4.813v-0.942h0.719c0.365,0,0.594-0.043,0.682-0.13
					c0.089-0.086,0.133-0.299,0.133-0.637V149.113z"/>
				<path class="st1" d="M49.416,152.345c0-1.313,0.42-2.371,1.259-3.174c0.84-0.804,1.944-1.205,3.313-1.205
					c1.373,0,2.478,0.401,3.313,1.205c0.835,0.803,1.253,1.861,1.253,3.174c0,1.316-0.419,2.378-1.257,3.183
					c-0.838,0.806-1.94,1.208-3.31,1.208s-2.474-0.403-3.313-1.211C49.836,154.718,49.416,153.657,49.416,152.345z M51.367,152.345
					c0,1.071,0.231,1.905,0.694,2.503c0.463,0.599,1.105,0.897,1.927,0.897s1.462-0.298,1.924-0.894
					c0.461-0.597,0.691-1.432,0.691-2.507c0-1.071-0.229-1.903-0.688-2.498c-0.459-0.594-1.102-0.891-1.927-0.891
					c-0.821,0-1.464,0.297-1.927,0.891C51.598,150.441,51.367,151.273,51.367,152.345z"/>
				<path class="st1" d="M62.329,154.791c0,0.334,0.045,0.545,0.137,0.634c0.09,0.089,0.32,0.133,0.691,0.133h0.58v0.942h-4.452
					v-0.942h0.483c0.366,0,0.594-0.043,0.683-0.13c0.089-0.086,0.133-0.299,0.133-0.637v-4.887c0-0.338-0.044-0.55-0.133-0.638
					c-0.089-0.086-0.316-0.129-0.683-0.129h-0.483v-0.936h4.959c1.038,0,1.81,0.163,2.313,0.489
					c0.503,0.326,0.755,0.827,0.755,1.504c0,0.596-0.2,1.072-0.601,1.429c-0.401,0.356-0.992,0.581-1.773,0.673
					c0.592,0.089,1.006,0.257,1.241,0.505c0.235,0.247,0.374,0.678,0.414,1.289l0.054,0.743c0.021,0.29,0.057,0.479,0.109,0.567
					c0.053,0.089,0.139,0.133,0.26,0.133c0.241,0,0.37-0.452,0.387-1.358c0-0.017,0-0.028,0-0.036h0.785
					c0.008,0.052,0.013,0.107,0.015,0.166s0.003,0.142,0.003,0.25c0,0.762-0.138,1.317-0.414,1.667
					c-0.275,0.351-0.711,0.526-1.307,0.526c-0.492,0-0.877-0.136-1.154-0.405s-0.425-0.644-0.441-1.123l-0.035-0.973
					c-0.024-0.648-0.168-1.088-0.432-1.319c-0.265-0.231-0.765-0.348-1.502-0.348h-0.592V154.791z M62.329,151.638h1.462
					c0.588,0,1.019-0.1,1.292-0.299c0.274-0.199,0.411-0.517,0.411-0.951c0-0.447-0.131-0.767-0.393-0.961
					c-0.262-0.193-0.712-0.29-1.353-0.29h-1.42V151.638z"/>
				<path class="st1" d="M71.89,154.791c0,0.334,0.045,0.545,0.136,0.634c0.09,0.089,0.32,0.133,0.691,0.133h0.58v0.942h-4.451
					v-0.942h0.482c0.367,0,0.594-0.043,0.684-0.13c0.088-0.086,0.133-0.299,0.133-0.637v-4.887c0-0.338-0.045-0.55-0.133-0.638
					c-0.09-0.086-0.316-0.129-0.684-0.129h-0.482v-0.936h4.959c1.038,0,1.809,0.163,2.313,0.489s0.756,0.827,0.756,1.504
					c0,0.596-0.201,1.072-0.602,1.429s-0.992,0.581-1.773,0.673c0.593,0.089,1.006,0.257,1.242,0.505
					c0.235,0.247,0.373,0.678,0.414,1.289l0.054,0.743c0.021,0.29,0.056,0.479,0.108,0.567c0.053,0.089,0.139,0.133,0.26,0.133
					c0.242,0,0.371-0.452,0.387-1.358c0-0.017,0-0.028,0-0.036h0.785c0.008,0.052,0.014,0.107,0.016,0.166s0.002,0.142,0.002,0.25
					c0,0.762-0.137,1.317-0.413,1.667c-0.276,0.351-0.712,0.526-1.308,0.526c-0.491,0-0.876-0.136-1.154-0.405
					c-0.277-0.27-0.424-0.644-0.44-1.123l-0.036-0.973c-0.023-0.648-0.168-1.088-0.432-1.319s-0.764-0.348-1.501-0.348H71.89
					V154.791z M71.89,151.638h1.462c0.588,0,1.018-0.1,1.292-0.299s0.411-0.517,0.411-0.951c0-0.447-0.131-0.767-0.393-0.961
					c-0.262-0.193-0.713-0.29-1.354-0.29H71.89V151.638z"/>
				<path class="st1" d="M78.407,156.5v-0.942h0.483c0.366,0,0.594-0.043,0.683-0.13c0.088-0.086,0.133-0.299,0.133-0.637v-4.887
					c0-0.338-0.045-0.55-0.133-0.638c-0.089-0.086-0.316-0.129-0.683-0.129h-0.483v-0.936h8.166v3.304h-0.942
					c-0.024-0.946-0.179-1.577-0.462-1.894c-0.283-0.315-0.858-0.474-1.725-0.474h-1.992v2.549h0.471c0.52,0,0.859-0.09,1.021-0.27
					c0.161-0.179,0.262-0.591,0.302-1.234l0.942-0.006v4.161l-0.942-0.006c-0.036-0.713-0.135-1.173-0.296-1.381
					c-0.161-0.207-0.499-0.311-1.015-0.311h-0.482v2.917h2.174c0.725,0,1.222-0.168,1.492-0.504c0.27-0.336,0.44-1.026,0.513-2.069
					h0.942v3.516H78.407z"/>
				<path class="st1" d="M88.005,156.5v-3.425h0.967c0.133,0.826,0.438,1.457,0.918,1.894c0.479,0.438,1.102,0.655,1.866,0.655
					c0.552,0,0.974-0.093,1.265-0.277c0.293-0.186,0.438-0.453,0.438-0.804c0-0.313-0.112-0.569-0.335-0.767
					c-0.224-0.197-0.581-0.353-1.072-0.466l-1.348-0.313c-0.966-0.226-1.661-0.53-2.086-0.915s-0.637-0.899-0.637-1.543
					c0-0.781,0.271-1.408,0.814-1.879c0.544-0.471,1.271-0.707,2.181-0.707c0.451,0,0.873,0.069,1.266,0.208
					c0.393,0.139,0.774,0.353,1.145,0.643l0.435-0.604h0.743v3.141h-0.942c-0.141-0.753-0.438-1.337-0.891-1.751
					c-0.453-0.415-1.021-0.623-1.707-0.623c-0.499,0-0.885,0.094-1.159,0.281c-0.274,0.188-0.411,0.448-0.411,0.782
					c0,0.282,0.098,0.508,0.291,0.677s0.502,0.302,0.93,0.398l1.673,0.387c0.886,0.201,1.548,0.517,1.987,0.945
					c0.438,0.429,0.658,0.976,0.658,1.64c0,0.785-0.288,1.427-0.863,1.924c-0.576,0.497-1.323,0.746-2.241,0.746
					c-0.463,0-0.923-0.085-1.377-0.254c-0.455-0.169-0.916-0.427-1.384-0.773l-0.271,0.779H88.005z"/>
			</g>
		</g>
	</g>
	<g>
		<g>
			<g>
				<g>
					<path class="st8" d="M62.172,13.573c-11.351,0.706-20.409,9.802-21.07,21.158c-0.471,8.103,3.464,15.874,10.27,20.28
						c1.763,1.141,2.945,3.028,3.301,5.18h-0.938c-0.599,0-1.084,0.485-1.084,1.084s0.486,1.084,1.084,1.084h2.137h15.474h2.143
						c0.599,0,1.084-0.486,1.084-1.084s-0.486-1.084-1.084-1.084h-0.956c0.335-2.134,1.511-4.013,3.286-5.158
						c6.476-4.176,10.342-11.263,10.342-18.956c0-6.198-2.592-12.189-7.111-16.435C74.469,15.336,68.481,13.184,62.172,13.573z
						 M59.215,38.178h-3.112c-1.716,0-3.112-1.396-3.112-3.112c0-1.716,1.396-3.112,3.112-3.112c1.716,0,3.112,1.396,3.112,3.112
						V38.178z M61.384,40.346h4.456v19.844h-4.456V40.346z M74.644,53.21c-2.393,1.543-3.955,4.101-4.308,6.98h-2.328V40.346h3.112
						c2.912,0,5.281-2.369,5.281-5.281c0-2.911-2.369-5.28-5.281-5.28c-2.912,0-5.28,2.369-5.28,5.28v3.112h-4.456v-3.112
						c0-2.911-2.369-5.28-5.28-5.28c-2.912,0-5.281,2.369-5.281,5.28c0,2.912,2.369,5.281,5.281,5.281h3.112v19.844h-2.343
						c-0.377-2.896-1.945-5.461-4.322-7c-6.152-3.983-9.709-11.008-9.283-18.334c0.587-10.094,8.951-18.493,19.04-19.12
						c5.695-0.358,11.118,1.593,15.259,5.485c4.144,3.895,6.427,9.17,6.427,14.855C83.992,43.03,80.497,49.435,74.644,53.21z
						 M68.009,38.178v-3.112c0-1.716,1.396-3.112,3.112-3.112c1.716,0,3.112,1.396,3.112,3.112c0,1.716-1.396,3.112-3.112,3.112
						H68.009z"/>
				</g>
			</g>
			<g>
				<path class="st8" d="M52.46,22.511c-2.124,1.702-3.861,3.893-5.026,6.336c-0.257,0.541-0.028,1.188,0.513,1.445
					c0.15,0.071,0.309,0.105,0.466,0.105c0.405,0,0.794-0.228,0.979-0.618c1.024-2.15,2.555-4.078,4.425-5.577
					c0.467-0.374,0.542-1.057,0.168-1.524C53.61,22.211,52.927,22.137,52.46,22.511z"/>
			</g>
			<g>
				<path class="st8" d="M62.47,18.618c-1.93,0.12-3.817,0.555-5.61,1.293c-0.554,0.228-0.817,0.862-0.59,1.416
					c0.173,0.418,0.577,0.672,1.003,0.672c0.137,0,0.277-0.026,0.412-0.082c1.572-0.647,3.227-1.029,4.919-1.134
					c0.598-0.037,1.052-0.552,1.015-1.149C63.583,19.036,63.063,18.583,62.47,18.618z"/>
			</g>
			<g>
				<path class="st8" d="M73.489,63.69H53.735c-0.599,0-1.084,0.485-1.084,1.084c0,0.599,0.486,1.084,1.084,1.084h4.832v2.221
					h10.091v-2.221h4.832c0.599,0,1.084-0.485,1.084-1.084C74.573,64.176,74.088,63.69,73.489,63.69z"/>
			</g>
			<g>
				<path class="st8" d="M63.612,4.932c0.678,0,1.233-0.555,1.233-1.233V1.233C64.845,0.555,64.29,0,63.612,0
					c-0.678,0-1.233,0.555-1.233,1.233v2.466C62.379,4.377,62.934,4.932,63.612,4.932z"/>
			</g>
			<g>
				<path class="st8" d="M45.94,8.76c0.339,0.587,1.097,0.79,1.684,0.451c0.587-0.339,0.79-1.097,0.451-1.684l-1.233-2.136
					c-0.339-0.587-1.097-0.791-1.684-0.451c-0.587,0.339-0.79,1.097-0.451,1.684L45.94,8.76z"/>
			</g>
			<g>
				<path class="st8" d="M35.466,19.227l-2.136-1.233c-0.587-0.339-1.345-0.136-1.684,0.451c-0.339,0.587-0.136,1.345,0.451,1.684
					l2.136,1.233c0.587,0.339,1.345,0.136,1.684-0.451C36.257,20.324,36.053,19.566,35.466,19.227z"/>
			</g>
			<g>
				<path class="st8" d="M30.396,35.664H27.93c-0.678,0-1.233,0.555-1.233,1.233c0,0.678,0.555,1.233,1.233,1.233h2.466
					c0.678,0,1.233-0.555,1.233-1.233C31.629,36.218,31.074,35.664,30.396,35.664z"/>
			</g>
			<g>
				<path class="st8" d="M34.224,52.433l-2.136,1.233c-0.587,0.339-0.79,1.097-0.451,1.684s1.097,0.79,1.684,0.451l2.136-1.233
					c0.587-0.339,0.79-1.097,0.451-1.684C35.569,52.297,34.811,52.094,34.224,52.433z"/>
			</g>
			<g>
				<path class="st8" d="M95.108,53.683l-2.136-1.233c-0.587-0.339-1.345-0.136-1.684,0.451c-0.339,0.587-0.136,1.345,0.451,1.684
					l2.136,1.233c0.587,0.339,1.345,0.136,1.684-0.451S95.696,54.022,95.108,53.683z"/>
			</g>
			<g>
				<path class="st8" d="M99.275,35.682h-2.466c-0.678,0-1.233,0.555-1.233,1.233c0,0.678,0.555,1.233,1.233,1.233h2.466
					c0.678,0,1.233-0.555,1.233-1.233C100.509,36.237,99.954,35.682,99.275,35.682z"/>
			</g>
			<g>
				<path class="st8" d="M92.982,21.378l2.136-1.233c0.587-0.339,0.79-1.097,0.451-1.684c-0.339-0.587-1.097-0.79-1.684-0.451
					l-2.136,1.233c-0.587,0.339-0.79,1.097-0.451,1.684C91.636,21.514,92.394,21.718,92.982,21.378z"/>
			</g>
			<g>
				<path class="st8" d="M79.598,9.221c0.587,0.339,1.345,0.136,1.684-0.451l1.233-2.136c0.339-0.587,0.136-1.345-0.451-1.684
					C81.476,4.61,80.718,4.813,80.379,5.4l-1.233,2.136C78.807,8.124,79.01,8.882,79.598,9.221z"/>
			</g>
		</g>
	</g>
</g>
</svg>