<!-- Generator: Adobe Illustrator 22.0.0, SVG Export Plug-In  -->
<svg version="1.1"
	 xmlns="http://www.w3.org/2000/svg" xmlns:xlink="http://www.w3.org/1999/xlink" xmlns:a="http://ns.adobe.com/AdobeSVGViewerExtensions/3.0/"
	 x="0px" y="0px" width="132.024px" height="297.958px" viewBox="0 0 132.024 297.958"
	 style="overflow:scroll;enable-background:new 0 0 132.024 297.958;" xml:space="preserve">
<style type="text/css">
	.st0{fill:url(#SVGID_1_);}
	.st1{fill:#FFFFFF;}
	.st2{fill:#434444;}
	.st3{fill:url(#SVGID_2_);}
	.st4{fill:url(#SVGID_3_);}
	.st5{fill:url(#SVGID_4_);}
	.st6{fill:url(#SVGID_5_);}
	.st7{fill:#767676;}
	.st8{fill:url(#SVGID_6_);}
	.st9{font-family:'ClarendonBT-Roman';}
	.st10{font-size:13.7105px;}
	.st11{fill:url(#SVGID_7_);}
	.st12{fill:url(#SVGID_8_);}
	.st13{fill:url(#SVGID_9_);}
	.st14{fill:url(#SVGID_10_);}
	.st15{font-size:12.3696px;}
</style>
<defs>
</defs>
<g>
	<linearGradient id="SVGID_1_" gradientUnits="userSpaceOnUse" x1="66.0078" y1="298.291" x2="66.0078" y2="288.8128">
		<stop  offset="0" style="stop-color:#8CF8A2"/>
		<stop  offset="1" style="stop-color:#79D6FA"/>
	</linearGradient>
	<path class="st0" d="M13.838,280.874v0.471c0,9.175,7.438,16.613,16.613,16.613h71.113c9.175,0,16.613-7.438,16.613-16.613v-0.471
		H13.838z"/>
	<path class="st1" d="M132.024,135.984v131.59c0,11.609-9.417,21.015-21.026,21.015H21.015C9.406,288.59,0,279.184,0,267.574
		v-131.59H132.024z"/>
	<g>
		<path class="st2" d="M22.799,245.635v-1.044h0.288c0.348,0,0.608-0.062,0.78-0.185c0.171-0.123,0.319-0.358,0.444-0.706
			l2.564-7.264h1.928l2.745,7.264c0.156,0.424,0.3,0.679,0.432,0.763c0.132,0.085,0.358,0.128,0.68,0.128h0.274v1.044h-4.76v-1.044
			h0.743c0.299,0,0.501-0.026,0.605-0.077c0.105-0.052,0.157-0.145,0.157-0.278c0-0.049-0.008-0.104-0.023-0.167
			s-0.048-0.156-0.097-0.281l-0.395-1.085h-3.033l-0.395,1.158c-0.01,0.031-0.025,0.078-0.047,0.141
			c-0.045,0.13-0.067,0.222-0.067,0.274c0,0.121,0.044,0.203,0.131,0.248s0.291,0.067,0.612,0.067h0.71v1.044H22.799z
			 M28.791,241.619l-1.192-3.18l-1.084,3.18H28.791z"/>
		<path class="st2" d="M33.47,245.635v-3.796h1.071c0.147,0.915,0.486,1.614,1.018,2.099s1.221,0.727,2.068,0.727
			c0.611,0,1.079-0.103,1.402-0.308c0.324-0.206,0.485-0.502,0.485-0.891c0-0.349-0.124-0.632-0.371-0.851
			c-0.248-0.219-0.644-0.391-1.188-0.516l-1.493-0.348c-1.071-0.25-1.842-0.588-2.313-1.015c-0.471-0.426-0.706-0.996-0.706-1.71
			c0-0.866,0.301-1.56,0.903-2.082s1.408-0.783,2.417-0.783c0.5,0,0.967,0.077,1.402,0.23c0.436,0.154,0.857,0.392,1.269,0.713
			l0.482-0.669h0.823v3.481h-1.045c-0.156-0.835-0.485-1.482-0.987-1.941c-0.502-0.46-1.133-0.689-1.891-0.689
			c-0.554,0-0.982,0.104-1.286,0.311c-0.303,0.208-0.455,0.497-0.455,0.867c0,0.313,0.107,0.563,0.321,0.75
			c0.215,0.188,0.559,0.335,1.031,0.441l1.854,0.429c0.981,0.224,1.716,0.572,2.202,1.048s0.729,1.081,0.729,1.817
			c0,0.87-0.318,1.581-0.957,2.132c-0.638,0.552-1.466,0.827-2.483,0.827c-0.514,0-1.022-0.094-1.526-0.281
			c-0.505-0.188-1.016-0.473-1.533-0.856l-0.301,0.863H33.47z"/>
		<path class="st2" d="M42.013,245.635v-1.044h0.536c0.405,0,0.658-0.048,0.756-0.145c0.099-0.096,0.147-0.331,0.147-0.706v-5.416
			c0-0.375-0.049-0.61-0.147-0.706c-0.098-0.096-0.351-0.145-0.756-0.145h-0.536v-1.037h9.051v3.662H50.02
			c-0.026-1.049-0.197-1.749-0.512-2.099c-0.315-0.351-0.952-0.526-1.912-0.526h-2.209v2.825h0.522c0.575,0,0.953-0.099,1.131-0.298
			c0.179-0.198,0.291-0.654,0.335-1.369l1.045-0.006v4.612l-1.045-0.007c-0.04-0.79-0.149-1.3-0.328-1.529
			c-0.179-0.23-0.553-0.345-1.124-0.345h-0.536v3.233h2.41c0.804,0,1.354-0.187,1.653-0.56c0.299-0.372,0.489-1.137,0.569-2.293
			h1.044v3.896H42.013z"/>
		<path class="st2" d="M52.65,245.635v-3.796h1.071c0.147,0.915,0.486,1.614,1.018,2.099s1.221,0.727,2.068,0.727
			c0.611,0,1.079-0.103,1.402-0.308c0.324-0.206,0.485-0.502,0.485-0.891c0-0.349-0.124-0.632-0.371-0.851
			c-0.248-0.219-0.644-0.391-1.188-0.516l-1.493-0.348c-1.071-0.25-1.842-0.588-2.313-1.015c-0.471-0.426-0.706-0.996-0.706-1.71
			c0-0.866,0.301-1.56,0.903-2.082s1.408-0.783,2.417-0.783c0.5,0,0.967,0.077,1.402,0.23c0.436,0.154,0.857,0.392,1.269,0.713
			l0.482-0.669h0.823v3.481h-1.045c-0.156-0.835-0.485-1.482-0.987-1.941c-0.502-0.46-1.133-0.689-1.891-0.689
			c-0.554,0-0.982,0.104-1.286,0.311c-0.303,0.208-0.455,0.497-0.455,0.867c0,0.313,0.107,0.563,0.321,0.75
			c0.215,0.188,0.559,0.335,1.031,0.441l1.854,0.429c0.981,0.224,1.716,0.572,2.202,1.048s0.729,1.081,0.729,1.817
			c0,0.87-0.318,1.581-0.957,2.132c-0.638,0.552-1.466,0.827-2.483,0.827c-0.514,0-1.022-0.094-1.526-0.281
			c-0.505-0.188-1.016-0.473-1.533-0.856l-0.301,0.863H52.65z"/>
		<path class="st2" d="M61.627,241.03c0-1.455,0.466-2.628,1.396-3.519c0.93-0.891,2.154-1.335,3.672-1.335
			c1.521,0,2.745,0.444,3.672,1.335c0.926,0.891,1.389,2.063,1.389,3.519c0,1.459-0.464,2.635-1.393,3.527
			c-0.928,0.893-2.151,1.339-3.668,1.339c-1.518,0-2.742-0.447-3.672-1.342C62.093,243.66,61.627,242.485,61.627,241.03z
			 M63.79,241.03c0,1.187,0.256,2.111,0.77,2.774c0.513,0.663,1.225,0.994,2.136,0.994c0.91,0,1.621-0.33,2.132-0.99
			c0.511-0.661,0.767-1.587,0.767-2.778c0-1.188-0.254-2.11-0.763-2.769s-1.221-0.987-2.136-0.987c-0.911,0-1.623,0.329-2.136,0.987
			C64.046,238.92,63.79,239.842,63.79,241.03z"/>
		<path class="st2" d="M75.94,243.741c0,0.37,0.051,0.604,0.15,0.703c0.101,0.098,0.356,0.147,0.767,0.147h0.644v1.044h-4.935
			v-1.044h0.536c0.405,0,0.658-0.048,0.756-0.145c0.099-0.096,0.147-0.331,0.147-0.706v-5.416c0-0.375-0.049-0.61-0.147-0.706
			c-0.098-0.096-0.351-0.145-0.756-0.145h-0.536v-1.037h5.496c1.151,0,2.007,0.181,2.564,0.542s0.837,0.917,0.837,1.667
			c0,0.661-0.223,1.188-0.666,1.583c-0.444,0.396-1.1,0.645-1.965,0.747c0.656,0.098,1.114,0.284,1.375,0.559
			c0.262,0.274,0.414,0.751,0.459,1.43l0.061,0.823c0.022,0.321,0.063,0.531,0.12,0.629c0.058,0.099,0.154,0.147,0.288,0.147
			c0.268,0,0.41-0.502,0.429-1.506c0-0.018,0-0.031,0-0.04h0.87c0.009,0.058,0.015,0.119,0.017,0.184s0.003,0.157,0.003,0.278
			c0,0.843-0.152,1.459-0.458,1.848c-0.306,0.388-0.789,0.582-1.449,0.582c-0.545,0-0.971-0.149-1.279-0.448
			c-0.308-0.299-0.471-0.714-0.488-1.245l-0.04-1.078c-0.027-0.719-0.187-1.206-0.479-1.463c-0.293-0.257-0.848-0.385-1.664-0.385
			H75.94V243.741z M75.94,240.247h1.62c0.651,0,1.129-0.111,1.433-0.332s0.455-0.572,0.455-1.055c0-0.495-0.145-0.85-0.435-1.063
			c-0.29-0.215-0.79-0.322-1.5-0.322H75.94V240.247z"/>
		<path class="st2" d="M87.441,245.635v-1.044h0.536c0.405,0,0.658-0.048,0.756-0.145c0.099-0.096,0.147-0.331,0.147-0.706v-5.416
			c0-0.375-0.049-0.61-0.147-0.706c-0.098-0.096-0.351-0.145-0.756-0.145h-0.536v-1.037h5.222c1.607,0,2.822,0.389,3.646,1.165
			s1.235,1.919,1.235,3.428c0,1.508-0.413,2.653-1.238,3.434c-0.826,0.781-2.04,1.172-3.643,1.172H87.441z M90.815,244.591h1.205
			c0.719,0,1.257-0.057,1.613-0.168c0.357-0.111,0.665-0.301,0.924-0.568c0.259-0.269,0.463-0.652,0.613-1.152
			c0.149-0.499,0.224-1.058,0.224-1.673c0-0.616-0.074-1.172-0.224-1.667c-0.15-0.496-0.354-0.877-0.613-1.146
			c-0.259-0.268-0.566-0.458-0.924-0.572c-0.356-0.113-0.895-0.171-1.613-0.171h-1.205V244.591z"/>
		<path class="st2" d="M98.562,245.635v-1.044h0.536c0.405,0,0.658-0.048,0.756-0.145c0.099-0.096,0.147-0.331,0.147-0.706v-5.416
			c0-0.375-0.049-0.61-0.147-0.706c-0.098-0.096-0.351-0.145-0.756-0.145h-0.536v-1.037h9.051v3.662h-1.044
			c-0.026-1.049-0.197-1.749-0.512-2.099c-0.315-0.351-0.952-0.526-1.912-0.526h-2.209v2.825h0.522c0.575,0,0.953-0.099,1.131-0.298
			c0.179-0.198,0.291-0.654,0.335-1.369l1.045-0.006v4.612l-1.045-0.007c-0.04-0.79-0.149-1.3-0.328-1.529
			c-0.179-0.23-0.553-0.345-1.124-0.345h-0.536v3.233h2.41c0.804,0,1.354-0.187,1.653-0.56c0.299-0.372,0.489-1.137,0.569-2.293
			h1.044v3.896H98.562z"/>
		<path class="st2" d="M30.926,260.193c0,0.37,0.051,0.604,0.15,0.703c0.101,0.098,0.356,0.147,0.767,0.147h0.644v1.044h-4.935
			v-1.044h0.536c0.405,0,0.658-0.048,0.756-0.145c0.099-0.096,0.147-0.331,0.147-0.706v-5.416c0-0.375-0.049-0.61-0.147-0.706
			c-0.098-0.096-0.351-0.145-0.756-0.145h-0.536v-1.037h4.841c1.24,0,2.177,0.212,2.808,0.636c0.632,0.424,0.947,1.054,0.947,1.888
			c0,0.455-0.086,0.853-0.258,1.192c-0.172,0.339-0.432,0.627-0.779,0.863c-0.25,0.165-0.599,0.283-1.045,0.354
			s-1.068,0.107-1.867,0.107h-1.272V260.193z M30.926,256.892h0.917c0.844,0,1.437-0.112,1.777-0.338
			c0.342-0.226,0.513-0.605,0.513-1.142c0-0.549-0.164-0.934-0.492-1.154s-0.963-0.332-1.904-0.332h-0.811V256.892z"/>
		<path class="st2" d="M40.318,260.193c0,0.37,0.051,0.604,0.15,0.703c0.101,0.098,0.356,0.147,0.767,0.147h0.644v1.044h-4.935
			v-1.044h0.536c0.405,0,0.658-0.048,0.756-0.145c0.099-0.096,0.147-0.331,0.147-0.706v-5.416c0-0.375-0.049-0.61-0.147-0.706
			c-0.098-0.096-0.351-0.145-0.756-0.145h-0.536v-1.037h5.496c1.151,0,2.007,0.181,2.564,0.542s0.837,0.917,0.837,1.667
			c0,0.661-0.223,1.188-0.666,1.583c-0.444,0.396-1.1,0.645-1.965,0.747c0.656,0.098,1.114,0.284,1.375,0.559
			c0.262,0.274,0.414,0.751,0.459,1.43l0.061,0.823c0.022,0.321,0.063,0.531,0.12,0.629c0.058,0.099,0.154,0.147,0.288,0.147
			c0.268,0,0.41-0.502,0.429-1.506c0-0.018,0-0.031,0-0.04h0.87c0.009,0.058,0.015,0.119,0.017,0.184s0.003,0.157,0.003,0.278
			c0,0.843-0.152,1.459-0.458,1.848c-0.306,0.388-0.789,0.582-1.449,0.582c-0.545,0-0.971-0.149-1.279-0.448
			c-0.308-0.299-0.471-0.714-0.488-1.245l-0.04-1.078c-0.027-0.719-0.187-1.206-0.479-1.463c-0.293-0.257-0.848-0.385-1.664-0.385
			h-0.656V260.193z M40.318,256.699h1.62c0.651,0,1.129-0.111,1.433-0.332s0.455-0.572,0.455-1.055c0-0.495-0.145-0.85-0.435-1.063
			c-0.29-0.215-0.79-0.322-1.5-0.322h-1.573V256.699z"/>
		<path class="st2" d="M47.723,257.482c0-1.455,0.466-2.628,1.396-3.519c0.93-0.891,2.154-1.335,3.672-1.335
			c1.521,0,2.745,0.444,3.672,1.335c0.926,0.891,1.389,2.063,1.389,3.519c0,1.459-0.464,2.635-1.393,3.527
			c-0.928,0.893-2.151,1.339-3.668,1.339c-1.518,0-2.742-0.447-3.672-1.342C48.188,260.112,47.723,258.937,47.723,257.482z
			 M49.886,257.482c0,1.187,0.256,2.111,0.77,2.774c0.513,0.663,1.225,0.994,2.136,0.994c0.91,0,1.621-0.33,2.132-0.99
			c0.511-0.661,0.767-1.587,0.767-2.778c0-1.188-0.254-2.11-0.763-2.769s-1.221-0.987-2.136-0.987c-0.911,0-1.623,0.329-2.136,0.987
			C50.142,255.372,49.886,256.294,49.886,257.482z"/>
		<path class="st2" d="M64.098,260.193c0,0.37,0.051,0.604,0.151,0.703c0.101,0.098,0.355,0.147,0.767,0.147h0.796v1.044h-5.349
			v-1.044h0.797c0.406,0,0.658-0.048,0.756-0.145c0.099-0.096,0.147-0.331,0.147-0.706v-1.955l-2.276-3.36
			c-0.24-0.357-0.459-0.604-0.655-0.743s-0.42-0.208-0.67-0.208h-0.455v-1.037h4.867v1.037h-0.67c-0.21,0-0.362,0.023-0.458,0.07
			c-0.097,0.047-0.145,0.12-0.145,0.218c0,0.063,0.016,0.131,0.047,0.204c0.031,0.074,0.078,0.157,0.141,0.251l1.554,2.156
			l1.64-2.236c0.067-0.094,0.114-0.171,0.141-0.23c0.027-0.061,0.04-0.122,0.04-0.185c0-0.08-0.042-0.142-0.127-0.184
			c-0.085-0.043-0.208-0.064-0.368-0.064h-0.811v-1.037h4.265v1.037h-0.314c-0.241,0-0.437,0.042-0.586,0.124
			c-0.149,0.083-0.309,0.245-0.479,0.485l-2.745,3.702V260.193z"/>
		<path class="st2" d="M68.469,262.087v-1.044h0.536c0.405,0,0.658-0.048,0.756-0.145c0.099-0.096,0.147-0.331,0.147-0.706v-5.416
			c0-0.375-0.049-0.61-0.147-0.706c-0.098-0.096-0.351-0.145-0.756-0.145h-0.536v-1.037h9.051v3.662h-1.044
			c-0.026-1.049-0.197-1.749-0.512-2.099c-0.315-0.351-0.952-0.526-1.912-0.526h-2.209v2.825h0.522c0.575,0,0.953-0.099,1.131-0.298
			c0.179-0.198,0.291-0.654,0.335-1.369l1.045-0.006v4.612l-1.045-0.007c-0.04-0.79-0.149-1.3-0.328-1.529
			c-0.179-0.23-0.553-0.345-1.124-0.345h-0.536v3.233h2.41c0.804,0,1.354-0.187,1.653-0.56c0.299-0.372,0.489-1.137,0.569-2.293
			h1.044v3.896H68.469z"/>
		<path class="st2" d="M86.363,258.526h1.179c-0.09,1.223-0.466,2.168-1.129,2.835c-0.662,0.667-1.559,1.001-2.688,1.001
			c-0.674,0-1.283-0.104-1.827-0.314c-0.545-0.21-1.031-0.531-1.46-0.964c-0.473-0.469-0.831-1.01-1.074-1.624
			c-0.243-0.613-0.365-1.272-0.365-1.978c0-0.71,0.118-1.36,0.355-1.952c0.236-0.591,0.593-1.125,1.07-1.604
			c0.434-0.433,0.918-0.76,1.453-0.98s1.111-0.331,1.728-0.331c0.49,0,0.954,0.077,1.389,0.23c0.436,0.154,0.862,0.392,1.282,0.713
			l0.274-0.823h0.991v3.77h-1.059c-0.106-0.88-0.389-1.561-0.847-2.042c-0.457-0.482-1.048-0.723-1.771-0.723
			c-0.844,0-1.505,0.337-1.985,1.011c-0.479,0.674-0.719,1.606-0.719,2.798c0,1.134,0.238,2.01,0.716,2.628s1.149,0.927,2.015,0.927
			c0.674,0,1.221-0.22,1.641-0.659S86.229,259.365,86.363,258.526z"/>
		<path class="st2" d="M91.887,253.9h-0.182c-0.736,0-1.271,0.22-1.606,0.659s-0.509,1.153-0.522,2.14h-1.051v-3.81h8.663v3.81
			h-1.051c-0.01-0.974-0.181-1.683-0.516-2.129s-0.868-0.67-1.601-0.67h-0.2v6.293c0,0.37,0.05,0.604,0.15,0.703
			c0.101,0.098,0.355,0.147,0.767,0.147h0.783v1.044h-5.336v-1.044h0.797c0.406,0,0.658-0.048,0.757-0.145
			c0.098-0.096,0.147-0.331,0.147-0.706V253.9z"/>
		<path class="st2" d="M98.005,257.482c0-1.455,0.466-2.628,1.396-3.519c0.93-0.891,2.154-1.335,3.672-1.335
			c1.521,0,2.745,0.444,3.672,1.335c0.926,0.891,1.389,2.063,1.389,3.519c0,1.459-0.464,2.635-1.393,3.527
			c-0.928,0.893-2.151,1.339-3.668,1.339c-1.518,0-2.742-0.447-3.672-1.342C98.471,260.112,98.005,258.937,98.005,257.482z
			 M100.168,257.482c0,1.187,0.256,2.111,0.77,2.774c0.513,0.663,1.225,0.994,2.136,0.994c0.91,0,1.621-0.33,2.132-0.99
			c0.511-0.661,0.767-1.587,0.767-2.778c0-1.188-0.254-2.11-0.763-2.769s-1.221-0.987-2.136-0.987c-0.911,0-1.623,0.329-2.136,0.987
			C100.424,255.372,100.168,256.294,100.168,257.482z"/>
	</g>
	<g>
		<linearGradient id="SVGID_2_" gradientUnits="userSpaceOnUse" x1="107.2808" y1="163.5786" x2="41.6916" y2="97.9894">
			<stop  offset="0" style="stop-color:#8CF8A2"/>
			<stop  offset="1" style="stop-color:#79D6FA"/>
		</linearGradient>
		<path class="st3" d="M66.011,69.969C29.554,69.969,0,99.523,0,135.98h132.022C132.022,99.523,102.468,69.969,66.011,69.969z"/>
		<radialGradient id="SVGID_3_" cx="83.7721" cy="152.6829" r="47.8101" gradientUnits="userSpaceOnUse">
			<stop  offset="0" style="stop-color:#000000"/>
			<stop  offset="0.1832" style="stop-color:#333333"/>
			<stop  offset="0.5888" style="stop-color:#A0A0A0"/>
			<stop  offset="0.8695" style="stop-color:#E4E4E4"/>
			<stop  offset="1" style="stop-color:#FFFFFF"/>
		</radialGradient>
		<circle class="st4" cx="83.772" cy="152.683" r="47.81"/>
		<circle class="st1" cx="66.011" cy="135.98" r="48.901"/>
		<radialGradient id="SVGID_4_" cx="71.502" cy="142.6624" r="38.9231" gradientUnits="userSpaceOnUse">
			<stop  offset="0" style="stop-color:#000000"/>
			<stop  offset="0.1832" style="stop-color:#333333"/>
			<stop  offset="0.5888" style="stop-color:#A0A0A0"/>
			<stop  offset="0.8695" style="stop-color:#E4E4E4"/>
			<stop  offset="1" style="stop-color:#FFFFFF"/>
		</radialGradient>
		<circle class="st5" cx="71.502" cy="142.662" r="38.923"/>
		<linearGradient id="SVGID_5_" gradientUnits="userSpaceOnUse" x1="87.51" y1="157.4791" x2="46.8989" y2="116.868">
			<stop  offset="0" style="stop-color:#8CF8A2"/>
			<stop  offset="1" style="stop-color:#79D6FA"/>
		</linearGradient>
		<circle class="st6" cx="66.011" cy="135.98" r="35.044"/>
		<g>
			<g>
				<path class="st1" d="M43.503,134.097c0,0.334,0.045,0.546,0.136,0.634c0.091,0.089,0.321,0.133,0.691,0.133h0.58v0.942h-4.451
					v-0.942h0.482c0.367,0,0.595-0.043,0.683-0.13c0.089-0.086,0.133-0.299,0.133-0.637v-4.886c0-0.338-0.044-0.55-0.133-0.637
					c-0.088-0.086-0.315-0.13-0.683-0.13h-0.482v-0.936h4.366c1.12,0,1.964,0.191,2.534,0.574c0.569,0.383,0.854,0.951,0.854,1.704
					c0,0.411-0.077,0.769-0.232,1.075c-0.155,0.306-0.39,0.566-0.704,0.779c-0.226,0.149-0.539,0.256-0.942,0.32
					c-0.402,0.064-0.964,0.096-1.685,0.096h-1.147V134.097z M43.503,131.12h0.827c0.761,0,1.296-0.102,1.604-0.305
					c0.309-0.204,0.462-0.547,0.462-1.03c0-0.496-0.147-0.843-0.443-1.042s-0.869-0.299-1.719-0.299h-0.73V131.12z"/>
				<path class="st1" d="M48.956,135.807v-0.942h0.532c0.366,0,0.594-0.043,0.683-0.13c0.088-0.086,0.133-0.299,0.133-0.637v-4.886
					c0-0.338-0.045-0.55-0.133-0.637c-0.089-0.086-0.316-0.13-0.683-0.13h-0.532v-0.936h4.482v0.936h-0.532
					c-0.37,0-0.6,0.043-0.688,0.13c-0.089,0.087-0.133,0.299-0.133,0.637v4.886c0,0.338,0.044,0.551,0.133,0.637
					c0.089,0.087,0.318,0.13,0.688,0.13h0.532v0.942H48.956z"/>
				<path class="st1" d="M54.03,135.807v-0.942h0.482c0.367,0,0.595-0.043,0.683-0.13c0.089-0.086,0.133-0.299,0.133-0.637v-4.886
					c0-0.338-0.044-0.55-0.133-0.637c-0.088-0.086-0.315-0.13-0.683-0.13H54.03v-0.936h8.166v3.304h-0.942
					c-0.024-0.946-0.179-1.577-0.462-1.894c-0.284-0.316-0.859-0.474-1.725-0.474h-1.993v2.549h0.471c0.52,0,0.86-0.089,1.021-0.269
					c0.161-0.179,0.262-0.591,0.303-1.235l0.942-0.006v4.162l-0.942-0.006c-0.036-0.712-0.135-1.172-0.296-1.38
					s-0.5-0.311-1.015-0.311h-0.483v2.917h2.174c0.726,0,1.223-0.168,1.492-0.504c0.27-0.336,0.44-1.025,0.514-2.068h0.942v3.515
					H54.03z"/>
				<path class="st1" d="M66.412,134.097c0,0.334,0.045,0.546,0.136,0.634c0.091,0.089,0.321,0.133,0.691,0.133h0.58v0.942h-4.451
					v-0.942h0.482c0.367,0,0.595-0.043,0.683-0.13c0.089-0.086,0.133-0.299,0.133-0.637v-4.886c0-0.338-0.044-0.55-0.133-0.637
					c-0.088-0.086-0.315-0.13-0.683-0.13h-0.482v-0.936h4.958c1.039,0,1.811,0.163,2.313,0.489c0.504,0.326,0.755,0.828,0.755,1.504
					c0,0.596-0.2,1.072-0.601,1.429c-0.4,0.356-0.991,0.581-1.772,0.673c0.592,0.088,1.005,0.256,1.241,0.504
					c0.235,0.248,0.373,0.677,0.413,1.29l0.055,0.743c0.021,0.29,0.057,0.479,0.108,0.568c0.053,0.088,0.14,0.133,0.26,0.133
					c0.242,0,0.371-0.453,0.387-1.359c0-0.016,0-0.028,0-0.037h0.785c0.008,0.053,0.013,0.108,0.016,0.167
					c0.002,0.058,0.003,0.142,0.003,0.25c0,0.761-0.139,1.317-0.414,1.667c-0.276,0.35-0.712,0.525-1.308,0.525
					c-0.491,0-0.876-0.135-1.153-0.405c-0.278-0.27-0.425-0.644-0.441-1.123l-0.036-0.973c-0.024-0.648-0.168-1.088-0.432-1.32
					c-0.264-0.231-0.765-0.347-1.501-0.347h-0.592V134.097z M66.412,130.944h1.462c0.587,0,1.019-0.1,1.292-0.299
					s0.411-0.516,0.411-0.951c0-0.447-0.131-0.767-0.393-0.96s-0.713-0.29-1.354-0.29h-1.419V130.944z"/>
				<path class="st1" d="M75.973,134.097c0,0.334,0.045,0.546,0.136,0.634c0.091,0.089,0.321,0.133,0.691,0.133h0.58v0.942h-4.451
					v-0.942h0.482c0.367,0,0.595-0.043,0.683-0.13c0.089-0.086,0.133-0.299,0.133-0.637v-4.886c0-0.338-0.044-0.55-0.133-0.637
					c-0.088-0.086-0.315-0.13-0.683-0.13h-0.482v-0.936h4.958c1.039,0,1.811,0.163,2.313,0.489c0.504,0.326,0.755,0.828,0.755,1.504
					c0,0.596-0.2,1.072-0.601,1.429c-0.4,0.356-0.991,0.581-1.772,0.673c0.592,0.088,1.005,0.256,1.241,0.504
					c0.235,0.248,0.373,0.677,0.413,1.29l0.055,0.743c0.021,0.29,0.057,0.479,0.108,0.568c0.053,0.088,0.14,0.133,0.26,0.133
					c0.242,0,0.371-0.453,0.387-1.359c0-0.016,0-0.028,0-0.037h0.785c0.008,0.053,0.013,0.108,0.016,0.167
					c0.002,0.058,0.003,0.142,0.003,0.25c0,0.761-0.139,1.317-0.414,1.667c-0.276,0.35-0.712,0.525-1.308,0.525
					c-0.491,0-0.876-0.135-1.153-0.405c-0.278-0.27-0.425-0.644-0.441-1.123l-0.036-0.973c-0.024-0.648-0.168-1.088-0.432-1.32
					c-0.264-0.231-0.765-0.347-1.501-0.347h-0.592V134.097z M75.973,130.944h1.462c0.587,0,1.019-0.1,1.292-0.299
					s0.411-0.516,0.411-0.951c0-0.447-0.131-0.767-0.393-0.96s-0.713-0.29-1.354-0.29h-1.419V130.944z"/>
				<path class="st1" d="M82.49,135.807v-0.942h0.482c0.367,0,0.595-0.043,0.683-0.13c0.089-0.086,0.133-0.299,0.133-0.637v-4.886
					c0-0.338-0.044-0.55-0.133-0.637c-0.088-0.086-0.315-0.13-0.683-0.13H82.49v-0.936h8.166v3.304h-0.942
					c-0.024-0.946-0.179-1.577-0.462-1.894c-0.284-0.316-0.859-0.474-1.725-0.474h-1.993v2.549h0.471c0.52,0,0.86-0.089,1.021-0.269
					c0.161-0.179,0.262-0.591,0.303-1.235l0.942-0.006v4.162l-0.942-0.006c-0.036-0.712-0.135-1.172-0.296-1.38
					s-0.5-0.311-1.015-0.311h-0.483v2.917h2.174c0.726,0,1.223-0.168,1.492-0.504c0.27-0.336,0.44-1.025,0.514-2.068h0.942v3.515
					H82.49z"/>
				<path class="st1" d="M40.345,148.941c0,0.334,0.045,0.545,0.136,0.634s0.321,0.133,0.691,0.133h0.58v0.942h-4.451v-0.942h0.482
					c0.367,0,0.595-0.043,0.683-0.13c0.089-0.086,0.133-0.299,0.133-0.637v-4.887c0-0.338-0.044-0.551-0.133-0.637
					c-0.088-0.087-0.315-0.131-0.683-0.131h-0.482v-0.936h4.366c1.12,0,1.964,0.191,2.534,0.574
					c0.569,0.383,0.854,0.951,0.854,1.704c0,0.41-0.077,0.769-0.232,1.075c-0.155,0.306-0.39,0.565-0.704,0.778
					c-0.226,0.149-0.539,0.256-0.942,0.32c-0.402,0.064-0.964,0.097-1.685,0.097h-1.147V148.941z M40.345,145.963h0.827
					c0.761,0,1.296-0.102,1.604-0.306c0.309-0.203,0.462-0.546,0.462-1.029c0-0.495-0.147-0.843-0.443-1.042s-0.869-0.3-1.719-0.3
					h-0.73V145.963z"/>
				<path class="st1" d="M44.416,150.65v-0.942h0.26c0.313,0,0.548-0.055,0.703-0.166c0.155-0.11,0.289-0.323,0.401-0.637
					l2.313-6.554h1.739l2.477,6.554c0.141,0.382,0.271,0.611,0.39,0.688c0.119,0.076,0.323,0.114,0.613,0.114h0.247v0.942h-4.294
					v-0.942h0.671c0.27,0,0.451-0.023,0.546-0.069s0.143-0.13,0.143-0.251c0-0.044-0.008-0.094-0.021-0.15
					c-0.015-0.057-0.043-0.142-0.088-0.254l-0.356-0.979h-2.735l-0.356,1.045c-0.009,0.028-0.022,0.07-0.043,0.127
					c-0.04,0.117-0.06,0.199-0.06,0.247c0,0.109,0.039,0.184,0.117,0.224c0.079,0.041,0.263,0.061,0.553,0.061h0.641v0.942H44.416z
					 M49.821,147.026l-1.075-2.869l-0.979,2.869H49.821z"/>
				<path class="st1" d="M53.783,150.65v-0.942h0.482c0.367,0,0.595-0.043,0.683-0.13c0.089-0.086,0.133-0.299,0.133-0.637v-4.887
					c0-0.338-0.044-0.551-0.133-0.637c-0.088-0.087-0.315-0.131-0.683-0.131h-0.482v-0.936h4.711c1.449,0,2.546,0.351,3.288,1.051
					c0.743,0.701,1.115,1.731,1.115,3.093s-0.373,2.394-1.118,3.099c-0.745,0.704-1.84,1.057-3.285,1.057H53.783z M56.827,149.708
					h1.087c0.648,0,1.134-0.05,1.456-0.15c0.321-0.101,0.6-0.272,0.833-0.514c0.233-0.242,0.418-0.588,0.553-1.039
					s0.202-0.954,0.202-1.51s-0.067-1.057-0.202-1.504s-0.319-0.791-0.553-1.033c-0.233-0.241-0.512-0.413-0.833-0.517
					c-0.322-0.102-0.808-0.154-1.456-0.154h-1.087V149.708z"/>
				<path class="st1" d="M63.839,150.65v-0.942h0.532c0.366,0,0.594-0.043,0.683-0.13c0.088-0.086,0.133-0.299,0.133-0.637v-4.887
					c0-0.338-0.045-0.551-0.133-0.637c-0.089-0.087-0.316-0.131-0.683-0.131h-0.532v-0.936h4.482v0.936h-0.532
					c-0.37,0-0.6,0.044-0.688,0.131c-0.089,0.086-0.133,0.299-0.133,0.637v4.887c0,0.338,0.044,0.551,0.133,0.637
					c0.089,0.087,0.318,0.13,0.688,0.13h0.532v0.942H63.839z"/>
				<path class="st1" d="M68.913,142.351h4.451v0.936h-0.58c-0.37,0-0.601,0.045-0.691,0.134s-0.136,0.3-0.136,0.634v5.653h1.546
					c0.552,0,0.965-0.047,1.238-0.142s0.471-0.253,0.592-0.475c0.117-0.213,0.203-0.473,0.26-0.779
					c0.057-0.306,0.085-0.672,0.085-1.099v-0.151h0.954v3.588h-7.719v-0.942h0.482c0.367,0,0.595-0.043,0.683-0.13
					c0.089-0.086,0.133-0.299,0.133-0.637v-4.887c0-0.338-0.044-0.551-0.133-0.637c-0.088-0.087-0.315-0.131-0.683-0.131h-0.482
					V142.351z"/>
				<path class="st1" d="M77.496,142.351h4.451v0.936h-0.58c-0.37,0-0.601,0.045-0.691,0.134s-0.136,0.3-0.136,0.634v5.653h1.546
					c0.552,0,0.965-0.047,1.238-0.142s0.471-0.253,0.592-0.475c0.117-0.213,0.203-0.473,0.26-0.779
					c0.057-0.306,0.085-0.672,0.085-1.099v-0.151h0.954v3.588h-7.719v-0.942h0.482c0.367,0,0.595-0.043,0.683-0.13
					c0.089-0.086,0.133-0.299,0.133-0.637v-4.887c0-0.338-0.044-0.551-0.133-0.637c-0.088-0.087-0.315-0.131-0.683-0.131h-0.482
					V142.351z"/>
				<path class="st1" d="M85.619,150.65v-0.942h0.26c0.313,0,0.548-0.055,0.703-0.166c0.155-0.11,0.289-0.323,0.401-0.637
					l2.313-6.554h1.739l2.477,6.554c0.141,0.382,0.271,0.611,0.39,0.688c0.119,0.076,0.323,0.114,0.613,0.114h0.247v0.942h-4.294
					v-0.942h0.671c0.27,0,0.451-0.023,0.546-0.069s0.143-0.13,0.143-0.251c0-0.044-0.008-0.094-0.021-0.15
					c-0.015-0.057-0.043-0.142-0.088-0.254l-0.356-0.979h-2.735l-0.356,1.045c-0.009,0.028-0.022,0.07-0.043,0.127
					c-0.04,0.117-0.06,0.199-0.06,0.247c0,0.109,0.039,0.184,0.117,0.224c0.079,0.041,0.263,0.061,0.553,0.061h0.641v0.942H85.619z
					 M91.024,147.026l-1.075-2.869l-0.979,2.869H91.024z"/>
			</g>
		</g>
	</g>
	<g>
		<path class="st7" d="M93.241,12.197H42.953c-3.203,0-5.809,2.606-5.809,5.809v27.886c0,3.204,2.606,5.809,5.809,5.809h50.288
			c3.203,0,5.809-2.606,5.809-5.809V18.006C99.05,14.803,96.444,12.197,93.241,12.197z M39.263,44.078V28.541h10.523v1.666
			c0,0.689,0.558,1.247,1.247,1.247h2.858c0.689,0,1.247-0.558,1.247-1.247v-1.666h25.92v1.666c0,0.689,0.558,1.247,1.247,1.247
			h2.858c0.689,0,1.247-0.558,1.247-1.247v-1.666h10.523v15.537H39.263z M42.953,14.315h50.288c2.035,0,3.69,1.656,3.69,3.691v8.416
			H86.408v-1.811c0-0.689-0.558-1.247-1.247-1.247h-2.858c-0.688,0-1.247,0.558-1.247,1.247v1.811h-25.92v-1.811
			c0-0.689-0.558-1.247-1.247-1.247h-2.858c-0.689,0-1.247,0.558-1.247,1.247v1.811H39.263v-8.416
			C39.263,15.971,40.918,14.315,42.953,14.315z M93.241,49.583H42.953c-1.931,0-3.502-1.496-3.66-3.387h57.607
			C96.743,48.087,95.172,49.583,93.241,49.583z"/>
		<path class="st7" d="M51.872,9.884c0.585,0,1.059-0.474,1.059-1.059V5.12c0-1.655,1.347-3.002,3.002-3.002h24.327
			c1.655,0,3.002,1.347,3.002,3.002v3.839c0,0.585,0.474,1.059,1.059,1.059s1.059-0.474,1.059-1.059V5.12
			c0-2.823-2.297-5.12-5.12-5.12H55.934c-2.823,0-5.12,2.298-5.12,5.12v3.704C50.813,9.41,51.287,9.884,51.872,9.884z"/>
	</g>
</g>
</svg>