<!-- Generator: Adobe Illustrator 22.0.0, SVG Export Plug-In  -->
<svg version="1.1"
	 xmlns="http://www.w3.org/2000/svg" xmlns:xlink="http://www.w3.org/1999/xlink" xmlns:a="http://ns.adobe.com/AdobeSVGViewerExtensions/3.0/"
	 x="0px" y="0px" width="49.149px" height="66.442px" viewBox="0 0 49.149 66.442"
	 style="overflow:scroll;enable-background:new 0 0 49.149 66.442;" xml:space="preserve">
<style type="text/css">
	.st0{fill:url(#SVGID_1_);}
	.st1{fill:url(#SVGID_2_);}
</style>
<defs>
</defs>
<linearGradient id="SVGID_1_" gradientUnits="userSpaceOnUse" x1="0" y1="33.2209" x2="49.1487" y2="33.2209">
	<stop  offset="0" style="stop-color:#D7DF23"/>
	<stop  offset="0.159" style="stop-color:#A7D450"/>
	<stop  offset="0.3764" style="stop-color:#6CC788"/>
	<stop  offset="0.5766" style="stop-color:#3DBCB5"/>
	<stop  offset="0.7529" style="stop-color:#1CB4D5"/>
	<stop  offset="0.8988" style="stop-color:#07B0E8"/>
	<stop  offset="0.9961" style="stop-color:#00AEEF"/>
</linearGradient>
<path class="st0" d="M24.574,0C11.024,0,0,11.023,0,24.574c0,8.19,4.146,15.869,10.922,20.409v5.075c0,1.507,1.222,2.731,2.73,2.731
	v4.551c0,4.4,2.869,9.102,10.922,9.102s10.922-4.702,10.922-9.102v-4.551c1.508,0,2.73-1.223,2.73-2.731v-5.075
	c6.776-4.54,10.922-12.22,10.922-20.409C49.149,11.023,38.125,0,24.574,0z M34.128,41.108c-0.843,0.487-1.362,1.388-1.362,2.362
	v3.076c-0.292-0.076-0.594-0.129-0.91-0.129h-5.461V28.215h5.461c1.005,0,1.82-0.814,1.82-1.82c0-1.006-0.815-1.82-1.82-1.82H17.293
	c-1.005,0-1.82,0.814-1.82,1.82c0,1.006,0.815,1.82,1.82,1.82h5.461v18.203h-5.461c-0.316,0-0.618,0.053-0.91,0.129v-3.076
	c0-0.974-0.519-1.875-1.363-2.362c-5.897-3.415-9.559-9.751-9.559-16.534c0-10.54,8.575-19.114,19.114-19.114
	c10.539,0,19.114,8.574,19.114,19.114C43.688,31.358,40.025,37.693,34.128,41.108z"/>
</svg>