<!-- Generator: Adobe Illustrator 22.0.0, SVG Export Plug-In  -->
<svg version="1.1"
	 xmlns="http://www.w3.org/2000/svg" xmlns:xlink="http://www.w3.org/1999/xlink" xmlns:a="http://ns.adobe.com/AdobeSVGViewerExtensions/3.0/"
	 x="0px" y="0px" width="90.07px" height="714.407px" viewBox="0 0 90.07 714.407"
	 style="overflow:scroll;enable-background:new 0 0 90.07 714.407;" xml:space="preserve">
<style type="text/css">
	.st0{fill:url(#SVGID_1_);}
	.st1{fill:#BF0811;}
	.st2{fill:url(#SVGID_2_);}
	.st3{fill:url(#SVGID_3_);}
	.st4{fill:url(#SVGID_4_);}
	.st5{fill:url(#SVGID_5_);}
	.st6{fill:url(#SVGID_6_);}
	.st7{fill:url(#SVGID_7_);}
	.st8{fill:url(#SVGID_8_);}
</style>
<defs>
</defs>
<g>
	<linearGradient id="SVGID_1_" gradientUnits="userSpaceOnUse" x1="83.244" y1="178.7624" x2="83.244" y2="178.7624">
		<stop  offset="0" style="stop-color:#BD4B49"/>
		<stop  offset="1" style="stop-color:#B43532"/>
	</linearGradient>
	<line class="st0" x1="83.244" y1="6.826" x2="83.244" y2="350.698"/>
	<g>
		<path class="st1" d="M82.619,6.826c0,11.351,0,22.702,0,34.053c0,27.436,0,54.871,0,82.307c0,33.044,0,66.089,0,99.133
			c0,28.595,0,57.19,0,85.785c0,9.489,0,18.978,0,28.468c0,2.935,0,5.871,0,8.806c0,1.309-0.425,3.47,0,4.724
			c0.054,0.159,0,0.422,0,0.597c0,0.804,1.25,0.806,1.25,0c0-11.351,0-22.702,0-34.053c0-27.436,0-54.871,0-82.307
			c0-33.044,0-66.089,0-99.133c0-28.595,0-57.19,0-85.785c0-9.489,0-18.978,0-28.468c0-2.935,0-5.871,0-8.806
			c0-1.309,0.425-3.47,0-4.724c-0.054-0.159,0-0.422,0-0.597C83.869,6.022,82.619,6.021,82.619,6.826L82.619,6.826z"/>
	</g>
</g>
<g>
	
		<linearGradient id="SVGID_2_" gradientUnits="userSpaceOnUse" x1="0.9675" y1="469.6222" x2="2.4875" y2="469.6222" gradientTransform="matrix(1 0.0033 0.0033 1.5077 -1.1493 -178.753)">
		<stop  offset="0" style="stop-color:#BD4B49"/>
		<stop  offset="1" style="stop-color:#B43532"/>
	</linearGradient>
	<line class="st2" x1="3.257" y1="707.547" x2="0.965" y2="351.069"/>
	<g>
		<path class="st1" d="M3.882,707.547c-0.076-11.83-0.152-23.659-0.228-35.489c-0.183-28.404-0.365-56.808-0.548-85.213
			c-0.22-34.191-0.44-68.383-0.659-102.574c-0.191-29.723-0.382-59.446-0.573-89.169c-0.063-9.842-0.127-19.683-0.19-29.525
			c-0.02-3.034-0.039-6.067-0.059-9.101c-0.009-1.345,0.399-3.496-0.031-4.786c-0.056-0.168-0.003-0.44-0.004-0.621
			c-0.005-0.804-1.255-0.806-1.25,0c0.076,11.83,0.152,23.659,0.228,35.489c0.183,28.404,0.365,56.808,0.548,85.213
			c0.22,34.191,0.44,68.383,0.659,102.574c0.191,29.723,0.382,59.446,0.573,89.169c0.063,9.842,0.127,19.683,0.19,29.525
			c0.02,3.034,0.039,6.067,0.059,9.101c0.009,1.345-0.399,3.496,0.031,4.786c0.056,0.168,0.003,0.44,0.004,0.621
			C2.637,708.351,3.887,708.352,3.882,707.547L3.882,707.547z"/>
	</g>
</g>
<g>
	<line class="st1" x1="83.244" y1="350.698" x2="0.604" y2="350.698"/>
	<g>
		<path class="st1" d="M83.244,350.073c-27.547,0-55.093,0-82.64,0c-0.804,0-0.806,1.25,0,1.25c27.547,0,55.093,0,82.64,0
			C84.048,351.323,84.05,350.073,83.244,350.073L83.244,350.073z"/>
	</g>
</g>
<g>
	<line class="st1" x1="79.647" y1="707.579" x2="3.257" y2="707.549"/>
	<g>
		<path class="st1" d="M79.647,706.954c-25.463-0.01-50.927-0.02-76.39-0.03c-0.804,0-0.806,1.25,0,1.25
			c25.463,0.01,50.927,0.02,76.39,0.03C80.451,708.205,80.453,706.955,79.647,706.954L79.647,706.954z"/>
	</g>
</g>
<linearGradient id="SVGID_3_" gradientUnits="userSpaceOnUse" x1="76.4175" y1="6.8265" x2="90.0704" y2="6.8265">
	<stop  offset="0" style="stop-color:#BD4B49"/>
	<stop  offset="1" style="stop-color:#B43532"/>
</linearGradient>
<circle class="st3" cx="83.244" cy="6.826" r="6.826"/>
<linearGradient id="SVGID_4_" gradientUnits="userSpaceOnUse" x1="76.4175" y1="707.5806" x2="90.0704" y2="707.5806">
	<stop  offset="0" style="stop-color:#BD4B49"/>
	<stop  offset="1" style="stop-color:#B43532"/>
</linearGradient>
<circle class="st4" cx="83.244" cy="707.581" r="6.826"/>
</svg>