<!-- Generator: Adobe Illustrator 22.0.0, SVG Export Plug-In  -->
<svg version="1.1"
	 xmlns="http://www.w3.org/2000/svg" xmlns:xlink="http://www.w3.org/1999/xlink" xmlns:a="http://ns.adobe.com/AdobeSVGViewerExtensions/3.0/"
	 x="0px" y="0px" width="158.433px" height="444.107px" viewBox="0 0 158.433 444.107"
	 style="overflow:scroll;enable-background:new 0 0 158.433 444.107;" xml:space="preserve">
<style type="text/css">
	.st0{fill:url(#SVGID_1_);}
	.st1{fill:#C4BEBD;}
	.st2{fill:url(#SVGID_2_);}
	.st3{fill:url(#SVGID_3_);}
	.st4{fill:url(#SVGID_4_);}
	.st5{fill:url(#SVGID_5_);}
	.st6{fill:url(#SVGID_6_);}
	.st7{fill:url(#SVGID_7_);}
	.st8{fill:url(#SVGID_8_);}
	.st9{fill:url(#SVGID_9_);}
	.st10{fill:url(#SVGID_10_);}
	.st11{fill:url(#SVGID_11_);}
	.st12{fill:url(#SVGID_12_);}
	.st13{fill:url(#SVGID_13_);}
	.st14{fill:url(#SVGID_14_);}
	.st15{fill:url(#SVGID_15_);}
	.st16{fill:url(#SVGID_16_);}
	.st17{fill:url(#SVGID_17_);}
	.st18{fill:url(#SVGID_18_);}
</style>
<defs>
</defs>
<g>
	<linearGradient id="SVGID_1_" gradientUnits="userSpaceOnUse" x1="136.3894" y1="215.4" x2="150.5178" y2="215.4">
		<stop  offset="0" style="stop-color:#75B8DB"/>
		<stop  offset="1" style="stop-color:#396389"/>
	</linearGradient>
	<path class="st0" d="M150.518,215.4c0-3.901-3.163-7.064-7.064-7.064c-3.901,0-7.064,3.163-7.064,7.064
		c0,3.901,3.163,7.064,7.064,7.064C147.355,222.464,150.518,219.302,150.518,215.4z"/>
	<polygon class="st1" points="142.065,430.821 12.853,319.322 12.853,317.328 13.651,316.618 140.129,215.34 11.654,104.477 
		142.125,0 144.782,3.319 18.303,104.598 146.778,215.461 18.261,318.373 144.841,427.602 	"/>
	<radialGradient id="SVGID_2_" cx="14.9792" cy="104.5372" r="15.3592" gradientUnits="userSpaceOnUse">
		<stop  offset="0" style="stop-color:#E2DDDD"/>
		<stop  offset="0.559" style="stop-color:#E0DBDB"/>
		<stop  offset="0.7604" style="stop-color:#DAD5D5"/>
		<stop  offset="0.9034" style="stop-color:#CFCACA"/>
		<stop  offset="1" style="stop-color:#C4BEBD"/>
	</radialGradient>
	<circle class="st2" cx="14.979" cy="104.537" r="14.979"/>
	<linearGradient id="SVGID_3_" gradientUnits="userSpaceOnUse" x1="7.9151" y1="104.5373" x2="22.0435" y2="104.5373">
		<stop  offset="0" style="stop-color:#396389"/>
		<stop  offset="1" style="stop-color:#75B8DB"/>
	</linearGradient>
	<path class="st3" d="M22.043,104.537c0-3.901-3.163-7.064-7.064-7.064s-7.064,3.163-7.064,7.064s3.163,7.064,7.064,7.064
		S22.043,108.439,22.043,104.537z"/>
	<radialGradient id="SVGID_4_" cx="143.4537" cy="215.4001" r="14.9792" gradientUnits="userSpaceOnUse">
		<stop  offset="0" style="stop-color:#E2DDDD"/>
		<stop  offset="0.559" style="stop-color:#E0DBDB"/>
		<stop  offset="0.7604" style="stop-color:#DAD5D5"/>
		<stop  offset="0.9034" style="stop-color:#CFCACA"/>
		<stop  offset="1" style="stop-color:#C4BEBD"/>
	</radialGradient>
	<circle class="st4" cx="143.454" cy="215.4" r="14.979"/>
	<radialGradient id="SVGID_5_" cx="143.4537" cy="429.1281" r="14.9792" gradientUnits="userSpaceOnUse">
		<stop  offset="0" style="stop-color:#E2DDDD"/>
		<stop  offset="0.559" style="stop-color:#E0DBDB"/>
		<stop  offset="0.7604" style="stop-color:#DAD5D5"/>
		<stop  offset="0.9034" style="stop-color:#CFCACA"/>
		<stop  offset="1" style="stop-color:#C4BEBD"/>
	</radialGradient>
	<circle class="st5" cx="143.454" cy="429.128" r="14.979"/>
	<linearGradient id="SVGID_6_" gradientUnits="userSpaceOnUse" x1="136.3894" y1="429.128" x2="150.5178" y2="429.128">
		<stop  offset="0" style="stop-color:#829C32"/>
		<stop  offset="1" style="stop-color:#A0B940"/>
	</linearGradient>
	<path class="st6" d="M150.518,429.128c0-3.901-3.163-7.064-7.064-7.064c-3.901,0-7.064,3.163-7.064,7.064s3.163,7.064,7.064,7.064
		C147.355,436.192,150.518,433.03,150.518,429.128z"/>
	<radialGradient id="SVGID_7_" cx="14.9792" cy="318.2777" r="14.9792" gradientUnits="userSpaceOnUse">
		<stop  offset="0" style="stop-color:#E2DDDD"/>
		<stop  offset="0.559" style="stop-color:#E0DBDB"/>
		<stop  offset="0.7604" style="stop-color:#DAD5D5"/>
		<stop  offset="0.9034" style="stop-color:#CFCACA"/>
		<stop  offset="1" style="stop-color:#C4BEBD"/>
	</radialGradient>
	<circle class="st7" cx="14.979" cy="318.278" r="14.979"/>
	<linearGradient id="SVGID_8_" gradientUnits="userSpaceOnUse" x1="7.9151" y1="318.2777" x2="22.0435" y2="318.2777">
		<stop  offset="0" style="stop-color:#9C4189"/>
		<stop  offset="1" style="stop-color:#621A56"/>
	</linearGradient>
	<path class="st8" d="M22.043,318.278c0-3.901-3.163-7.064-7.064-7.064s-7.064,3.163-7.064,7.064c0,3.901,3.163,7.064,7.064,7.064
		S22.043,322.179,22.043,318.278z"/>
	<linearGradient id="SVGID_9_" gradientUnits="userSpaceOnUse" x1="136.3895" y1="215.4001" x2="150.5179" y2="215.4001">
		<stop  offset="0" style="stop-color:#DC9831"/>
		<stop  offset="1" style="stop-color:#E5C239"/>
	</linearGradient>
	<path class="st9" d="M150.518,215.4c0-3.901-3.163-7.064-7.064-7.064c-3.901,0-7.064,3.163-7.064,7.064
		c0,3.901,3.163,7.064,7.064,7.064C147.355,222.464,150.518,219.301,150.518,215.4z"/>
</g>
</svg>