<!-- Generator: Adobe Illustrator 22.0.0, SVG Export Plug-In  -->
<svg version="1.1"
	 xmlns="http://www.w3.org/2000/svg" xmlns:xlink="http://www.w3.org/1999/xlink" xmlns:a="http://ns.adobe.com/AdobeSVGViewerExtensions/3.0/"
	 x="0px" y="0px" width="188.387px" height="136.386px" viewBox="0 0 188.387 136.386"
	 style="overflow:scroll;enable-background:new 0 0 188.387 136.386;" xml:space="preserve">
<style type="text/css">
	.st0{fill:url(#SVGID_1_);}
	.st1{fill:url(#SVGID_2_);}
	.st2{fill:url(#SVGID_3_);}
	.st3{fill:url(#SVGID_4_);}
	.st4{fill:url(#SVGID_5_);}
	.st5{fill:url(#SVGID_6_);}
	.st6{fill:url(#SVGID_7_);}
	.st7{fill:url(#SVGID_8_);}
	.st8{fill:url(#SVGID_9_);}
	.st9{fill:#FFFFFF;}
	.st10{fill:url(#SVGID_10_);}
	.st11{fill:url(#SVGID_11_);}
	.st12{fill:url(#SVGID_12_);}
	.st13{fill:url(#SVGID_13_);}
	.st14{fill:url(#SVGID_14_);}
	.st15{fill:url(#SVGID_15_);}
	.st16{fill:url(#SVGID_16_);}
	.st17{fill:url(#SVGID_17_);}
	.st18{fill:url(#SVGID_18_);}
	.st19{font-family:'ClarendonBT-Roman';}
	.st20{font-size:39.2376px;}
</style>
<defs>
</defs>
<g>
	<linearGradient id="SVGID_1_" gradientUnits="userSpaceOnUse" x1="177.3799" y1="102.6002" x2="121.2526" y2="46.4729">
		<stop  offset="0" style="stop-color:#C4BEBD"/>
		<stop  offset="1" style="stop-color:#E2DDDD"/>
	</linearGradient>
	<path class="st0" d="M185.544,54.535l-16.187-22.347c-2.796-3.861-7.312-6.165-12.079-6.165h-44.633v74.494h44.636
		c4.764,0,9.277-2.302,12.073-6.158l16.185-22.318C189.334,66.806,189.337,59.771,185.544,54.535z"/>
	<linearGradient id="SVGID_2_" gradientUnits="userSpaceOnUse" x1="140.7105" y1="30.7906" x2="140.7105" y2="3.2021">
		<stop  offset="0" style="stop-color:#FFFFFF"/>
		<stop  offset="1" style="stop-color:#070308"/>
	</linearGradient>
	<path class="st1" d="M168.776,31.48c-2.818-3.422-7.038-5.458-11.498-5.458h-44.633v5.458H168.776z"/>
</g>
<linearGradient id="SVGID_3_" gradientUnits="userSpaceOnUse" x1="167.5617" y1="94.3905" x2="101.3309" y2="28.1598">
	<stop  offset="0" style="stop-color:#75B8DB"/>
	<stop  offset="1" style="stop-color:#396389"/>
</linearGradient>
<path class="st2" d="M157.43,33.262h-45.198V63.29v29.993h45.201c2.495,0,4.839-1.196,6.304-3.215l16.106-22.209
	c1.977-2.725,1.977-6.413,0.003-9.139l-16.108-22.238C162.272,34.459,159.927,33.262,157.43,33.262z"/>
<radialGradient id="SVGID_4_" cx="73.3262" cy="73.963" r="62.4233" gradientUnits="userSpaceOnUse">
	<stop  offset="0" style="stop-color:#070308"/>
	<stop  offset="1" style="stop-color:#FFFFFF"/>
</radialGradient>
<circle class="st3" cx="73.326" cy="73.963" r="62.423"/>
<linearGradient id="SVGID_5_" gradientUnits="userSpaceOnUse" x1="149.9433" y1="149.9433" x2="30.4223" y2="30.4224">
	<stop  offset="0" style="stop-color:#396389"/>
	<stop  offset="1" style="stop-color:#75B8DB"/>
</linearGradient>
<circle class="st4" cx="63.275" cy="63.275" r="63.275"/>
<linearGradient id="SVGID_6_" gradientUnits="userSpaceOnUse" x1="12.2948" y1="63.2747" x2="114.2545" y2="63.2747">
	<stop  offset="0" style="stop-color:#E2DDDD"/>
	<stop  offset="1" style="stop-color:#C4BEBD"/>
</linearGradient>
<circle class="st5" cx="63.275" cy="63.275" r="50.98"/>
<radialGradient id="SVGID_7_" cx="64.5185" cy="65.1076" r="55.102" gradientUnits="userSpaceOnUse">
	<stop  offset="0.7955" style="stop-color:#FFFFFF"/>
	<stop  offset="0.8694" style="stop-color:#FEFEFE"/>
	<stop  offset="0.8984" style="stop-color:#F6F6F6"/>
	<stop  offset="0.9195" style="stop-color:#E5E3E4"/>
	<stop  offset="0.9368" style="stop-color:#CCC8CA"/>
	<stop  offset="0.9517" style="stop-color:#AEA7A9"/>
	<stop  offset="0.965" style="stop-color:#8D8586"/>
	<stop  offset="0.9771" style="stop-color:#6B6465"/>
	<stop  offset="0.9883" style="stop-color:#4B4545"/>
	<stop  offset="0.9984" style="stop-color:#2D2929"/>
	<stop  offset="1" style="stop-color:#272324"/>
</radialGradient>
<circle class="st6" cx="63.275" cy="63.275" r="50.98"/>
<radialGradient id="SVGID_8_" cx="68.4579" cy="69.7605" r="38.2706" gradientUnits="userSpaceOnUse">
	<stop  offset="0" style="stop-color:#070308"/>
	<stop  offset="1" style="stop-color:#FFFFFF"/>
</radialGradient>
<circle class="st7" cx="68.458" cy="69.761" r="38.271"/>
<linearGradient id="SVGID_9_" gradientUnits="userSpaceOnUse" x1="117.8715" y1="117.8716" x2="53.0234" y2="53.0234">
	<stop  offset="0" style="stop-color:#396389"/>
	<stop  offset="1" style="stop-color:#75B8DB"/>
</linearGradient>
<circle class="st8" cx="63.275" cy="63.275" r="30.833"/>
<g>
	<g>
		<path class="st9" d="M41.189,63.34c0-3.742,1.024-6.782,3.075-9.119c2.05-2.338,4.703-3.506,7.96-3.506s5.917,1.172,7.979,3.516
			s3.095,5.381,3.095,9.109c0,3.743-1.032,6.779-3.095,9.11s-4.723,3.497-7.979,3.497s-5.91-1.166-7.96-3.497
			C42.213,70.119,41.189,67.083,41.189,63.34z M47.282,63.34c0,3.296,0.396,5.71,1.188,7.242c0.792,1.533,2.043,2.3,3.755,2.3
			s2.97-0.77,3.774-2.309s1.207-3.95,1.207-7.233c0-3.282-0.402-5.696-1.207-7.241c-0.805-1.546-2.063-2.318-3.774-2.318
			c-1.698,0-2.947,0.775-3.745,2.327C47.68,57.66,47.282,60.07,47.282,63.34z"/>
		<path class="st9" d="M70.043,75.276V72.46h1.763c1.341,0,2.187-0.144,2.538-0.431c0.352-0.288,0.527-0.917,0.527-1.888V57.573
			h-4.828v-2.777c1.89-0.077,3.358-0.399,4.406-0.968c1.047-0.568,1.852-1.466,2.414-2.692h3.181v19.083
			c0,0.971,0.146,1.587,0.44,1.849s1.06,0.393,2.299,0.393h2.012v2.816H70.043z"/>
	</g>
</g>
</svg>