<!-- Generator: Adobe Illustrator 22.0.0, SVG Export Plug-In  -->
<svg version="1.1"
	 xmlns="http://www.w3.org/2000/svg" xmlns:xlink="http://www.w3.org/1999/xlink" xmlns:a="http://ns.adobe.com/AdobeSVGViewerExtensions/3.0/"
	 x="0px" y="0px" width="46.235px" height="46.36px" viewBox="0 0 46.235 46.36"
	 style="overflow:scroll;enable-background:new 0 0 46.235 46.36;" xml:space="preserve">
<style type="text/css">
	.st0{fill:url(#SVGID_1_);}
	.st1{fill:url(#SVGID_2_);}
</style>
<defs>
</defs>
<linearGradient id="SVGID_1_" gradientUnits="userSpaceOnUse" x1="0" y1="23.1799" x2="46.2347" y2="23.1799">
	<stop  offset="0" style="stop-color:#5518BB"/>
	<stop  offset="1" style="stop-color:#8C109F"/>
</linearGradient>
<path class="st0" d="M23.118,0C10.35,0,0,10.378,0,23.179C0,35.981,10.35,46.36,23.118,46.36c12.766,0,23.117-10.378,23.117-23.181
	C46.235,10.378,35.884,0,23.118,0z M23.118,40.565c-9.561,0-17.338-7.798-17.338-17.386c0-9.585,7.777-17.385,17.338-17.385
	c9.56,0,17.338,7.799,17.338,17.385C40.455,32.768,32.678,40.565,23.118,40.565z M37.566,23.179c0,1.602-1.293,2.898-2.889,2.898
	H23.118c-1.596,0-2.89-1.296-2.89-2.898V11.59c0-1.602,1.293-2.898,2.89-2.898c1.596,0,2.889,1.296,2.889,2.898v8.693h8.669
	C36.273,20.283,37.566,21.578,37.566,23.179z"/>
</svg>