<!-- Generator: Adobe Illustrator 22.0.0, SVG Export Plug-In  -->
<svg version="1.1"
	 xmlns="http://www.w3.org/2000/svg" xmlns:xlink="http://www.w3.org/1999/xlink" xmlns:a="http://ns.adobe.com/AdobeSVGViewerExtensions/3.0/"
	 x="0px" y="0px" width="315.25px" height="115.255px" viewBox="0 0 315.25 115.255"
	 style="overflow:scroll;enable-background:new 0 0 315.25 115.255;" xml:space="preserve">
<style type="text/css">
	.st0{clip-path:url(#SVGID_4_);fill:none;stroke:#A3BD31;stroke-width:0;stroke-linecap:square;stroke-miterlimit:10;}
	.st1{clip-path:url(#SVGID_4_);fill-rule:evenodd;clip-rule:evenodd;fill:#D3D3D4;stroke:#A3BD31;stroke-miterlimit:10;}
	.st2{clip-path:url(#SVGID_5_);}
	.st3{font-family:'MyriadPro-Regular';}
	.st4{font-size:15.4736px;}
	.st5{font-size:17.1898px;}
	.st6{font-family:'Calibri-Bold';}
	.st7{clip-path:url(#SVGID_8_);fill:none;stroke:#A3BD31;stroke-width:0;stroke-linecap:square;stroke-miterlimit:10;}
	.st8{clip-path:url(#SVGID_8_);fill-rule:evenodd;clip-rule:evenodd;fill:#D3D3D4;stroke:#A3BD31;stroke-miterlimit:10;}
	.st9{clip-path:url(#SVGID_11_);}
</style>
<defs>
</defs>
<g>
	<path d="M18.934,39.779h-4.549v3.76h5.07v1.13h-6.581V34.24h6.321v1.13h-4.81v3.296h4.549V39.779z"/>
	<path d="M21.368,33.683h1.528v10.985h-1.528V33.683z"/>
	<path d="M29.149,39.206c0-0.773-0.018-1.408-0.069-2.026h1.337l0.069,1.206h0.052c0.469-0.711,1.25-1.377,2.64-1.377
		c1.146,0,2.014,0.619,2.379,1.501h0.035c0.26-0.418,0.59-0.742,0.938-0.975c0.503-0.341,1.059-0.526,1.858-0.526
		c1.111,0,2.761,0.65,2.761,3.25v4.409h-1.494v-4.239c0-1.439-0.59-2.306-1.823-2.306c-0.868,0-1.545,0.572-1.806,1.238
		c-0.069,0.186-0.122,0.433-0.122,0.681v4.626h-1.493v-4.487c0-1.191-0.591-2.058-1.754-2.058c-0.955,0-1.65,0.681-1.893,1.361
		c-0.086,0.201-0.122,0.434-0.122,0.666v4.518h-1.493V39.206z"/>
	<path d="M50.668,42.626c0,0.773,0.017,1.454,0.069,2.042h-1.354l-0.087-1.223h-0.035c-0.399,0.604-1.285,1.393-2.778,1.393
		c-1.319,0-2.9-0.649-2.9-3.28V37.18h1.528v4.146c0,1.423,0.486,2.383,1.875,2.383c1.024,0,1.736-0.635,2.014-1.238
		c0.087-0.201,0.139-0.448,0.139-0.696V37.18h1.528V42.626z"/>
	<path d="M53.206,39.206c0-0.773-0.018-1.408-0.069-2.026h1.354l0.087,1.237h0.035c0.417-0.712,1.389-1.408,2.778-1.408
		c1.163,0,2.969,0.619,2.969,3.188v4.472h-1.528v-4.316c0-1.207-0.503-2.213-1.945-2.213c-1.007,0-1.789,0.635-2.049,1.393
		c-0.069,0.17-0.104,0.402-0.104,0.634v4.503h-1.528V39.206z M54.63,35.896c-0.035-1.006,0.434-1.609,1.181-1.609
		c0.382,0,0.677,0.139,1.077,0.34c0.278,0.14,0.521,0.264,0.729,0.264c0.278,0,0.452-0.14,0.486-0.666h0.816
		c0.018,1.037-0.382,1.563-1.198,1.563c-0.364,0-0.694-0.14-1.059-0.31c-0.347-0.186-0.538-0.278-0.747-0.278
		c-0.278,0-0.417,0.263-0.452,0.696H54.63z"/>
	<path d="M70.452,40.862c0,2.77-2.153,3.977-4.185,3.977c-2.275,0-4.029-1.485-4.029-3.853c0-2.506,1.841-3.977,4.167-3.977
		C68.82,37.009,70.452,38.573,70.452,40.862z M63.784,40.94c0,1.64,1.06,2.878,2.553,2.878c1.458,0,2.553-1.223,2.553-2.909
		c0-1.269-0.712-2.878-2.518-2.878C64.566,38.031,63.784,39.516,63.784,40.94z"/>
	<path d="M72.383,39.206c0-0.773-0.017-1.408-0.069-2.026h1.354l0.086,1.237h0.035c0.417-0.712,1.389-1.408,2.778-1.408
		c1.163,0,2.969,0.619,2.969,3.188v4.472h-1.528v-4.316c0-1.207-0.503-2.213-1.945-2.213c-1.007,0-1.789,0.635-2.049,1.393
		c-0.069,0.17-0.104,0.402-0.104,0.634v4.503h-1.528V39.206z"/>
	<path d="M90.359,44.668l-0.122-0.943h-0.052c-0.469,0.588-1.372,1.113-2.57,1.113c-1.702,0-2.57-1.067-2.57-2.15
		c0-1.811,1.806-2.801,5.053-2.785v-0.154c0-0.619-0.191-1.733-1.91-1.733c-0.782,0-1.598,0.217-2.188,0.558l-0.348-0.897
		c0.695-0.402,1.702-0.666,2.761-0.666c2.57,0,3.195,1.563,3.195,3.063v2.801c0,0.65,0.035,1.284,0.139,1.795H90.359z
		 M90.133,40.847c-1.667-0.031-3.56,0.231-3.56,1.687c0,0.882,0.66,1.299,1.441,1.299c1.094,0,1.789-0.618,2.032-1.253
		c0.052-0.139,0.086-0.294,0.086-0.434V40.847z"/>
	<path d="M101.11,42.626c0,0.773,0.017,1.454,0.069,2.042h-1.354l-0.087-1.223h-0.035c-0.399,0.604-1.285,1.393-2.778,1.393
		c-1.319,0-2.9-0.649-2.9-3.28V37.18h1.528v4.146c0,1.423,0.486,2.383,1.875,2.383c1.024,0,1.736-0.635,2.014-1.238
		c0.087-0.201,0.139-0.448,0.139-0.696V37.18h1.528V42.626z"/>
	<path d="M103.648,39.206c0-0.773-0.017-1.408-0.069-2.026h1.337l0.069,1.206h0.052c0.469-0.711,1.25-1.377,2.64-1.377
		c1.146,0,2.014,0.619,2.379,1.501h0.035c0.26-0.418,0.59-0.742,0.938-0.975c0.503-0.341,1.059-0.526,1.858-0.526
		c1.111,0,2.761,0.65,2.761,3.25v4.409h-1.494v-4.239c0-1.439-0.59-2.306-1.823-2.306c-0.868,0-1.545,0.572-1.806,1.238
		c-0.069,0.186-0.122,0.433-0.122,0.681v4.626h-1.494v-4.487c0-1.191-0.59-2.058-1.753-2.058c-0.955,0-1.65,0.681-1.893,1.361
		c-0.086,0.201-0.122,0.434-0.122,0.666v4.518h-1.493V39.206z"/>
	<path d="M118.986,41.171c0.035,1.842,1.354,2.6,2.882,2.6c1.094,0,1.754-0.17,2.327-0.387l0.261,0.975
		c-0.539,0.217-1.458,0.464-2.796,0.464c-2.587,0-4.133-1.516-4.133-3.774c0-2.26,1.494-4.039,3.942-4.039
		c2.744,0,3.473,2.151,3.473,3.528c0,0.278-0.035,0.495-0.052,0.634H118.986z M123.466,40.197c0.017-0.866-0.399-2.213-2.119-2.213
		c-1.545,0-2.223,1.27-2.344,2.213H123.466z"/>
	<path d="M126.837,39.206c0-0.773-0.018-1.408-0.069-2.026h1.354l0.087,1.237h0.035c0.417-0.712,1.389-1.408,2.778-1.408
		c1.163,0,2.969,0.619,2.969,3.188v4.472h-1.528v-4.316c0-1.207-0.503-2.213-1.945-2.213c-1.007,0-1.789,0.635-2.049,1.393
		c-0.069,0.17-0.104,0.402-0.104,0.634v4.503h-1.528V39.206z"/>
	<path d="M138.249,35.029v2.151h2.188v1.036h-2.188v4.038c0,0.929,0.295,1.455,1.146,1.455c0.399,0,0.694-0.047,0.886-0.093
		l0.069,1.021c-0.295,0.108-0.764,0.186-1.354,0.186c-0.712,0-1.285-0.201-1.65-0.572c-0.434-0.402-0.59-1.067-0.59-1.949v-4.085
		h-1.302V37.18h1.302v-1.795L138.249,35.029z"/>
	<path d="M146.811,44.668l-0.122-0.943h-0.052c-0.469,0.588-1.372,1.113-2.57,1.113c-1.702,0-2.57-1.067-2.57-2.15
		c0-1.811,1.806-2.801,5.053-2.785v-0.154c0-0.619-0.191-1.733-1.91-1.733c-0.781,0-1.597,0.217-2.188,0.558l-0.348-0.897
		c0.695-0.402,1.702-0.666,2.761-0.666c2.57,0,3.195,1.563,3.195,3.063v2.801c0,0.65,0.035,1.284,0.139,1.795H146.811z
		 M146.585,40.847c-1.667-0.031-3.56,0.231-3.56,1.687c0,0.882,0.66,1.299,1.441,1.299c1.094,0,1.789-0.618,2.032-1.253
		c0.052-0.139,0.087-0.294,0.087-0.434V40.847z"/>
	<path d="M20.427,59.43c0,2.77-2.153,3.977-4.185,3.977c-2.275,0-4.029-1.485-4.029-3.853c0-2.506,1.841-3.977,4.167-3.977
		C18.795,55.578,20.427,57.141,20.427,59.43z M13.759,59.508c0,1.64,1.06,2.878,2.553,2.878c1.458,0,2.553-1.223,2.553-2.909
		c0-1.269-0.712-2.878-2.518-2.878C14.541,56.599,13.759,58.084,13.759,59.508z"/>
	<path d="M33.298,52.251v9.052c0,0.665,0.018,1.423,0.069,1.934h-1.372l-0.069-1.3h-0.035c-0.469,0.836-1.494,1.47-2.865,1.47
		c-2.032,0-3.595-1.531-3.595-3.806c-0.017-2.491,1.719-4.023,3.768-4.023c1.285,0,2.153,0.542,2.536,1.146h0.035v-4.472H33.298z
		 M31.77,58.796c0-0.17-0.018-0.402-0.07-0.572c-0.226-0.867-1.059-1.578-2.205-1.578c-1.58,0-2.518,1.237-2.518,2.893
		c0,1.517,0.833,2.77,2.483,2.77c1.024,0,1.962-0.604,2.24-1.624c0.052-0.186,0.07-0.371,0.07-0.588V58.796z"/>
	<path d="M37.539,53.644c0.018,0.464-0.365,0.835-0.972,0.835c-0.539,0-0.92-0.371-0.92-0.835c0-0.479,0.399-0.852,0.955-0.852
		C37.174,52.792,37.539,53.164,37.539,53.644z M35.837,63.237v-7.488h1.528v7.488H35.837z"/>
	<path d="M39.693,61.844c0.452,0.263,1.25,0.542,2.015,0.542c1.111,0,1.632-0.495,1.632-1.114c0-0.65-0.434-1.006-1.563-1.377
		c-1.511-0.479-2.223-1.223-2.223-2.12c0-1.207,1.094-2.197,2.9-2.197c0.851,0,1.597,0.217,2.066,0.465l-0.382,0.99
		c-0.33-0.186-0.938-0.434-1.719-0.434c-0.903,0-1.407,0.464-1.407,1.021c0,0.618,0.503,0.897,1.598,1.269
		c1.458,0.495,2.205,1.145,2.205,2.259c0,1.315-1.146,2.243-3.143,2.243c-0.92,0-1.771-0.201-2.361-0.51L39.693,61.844z"/>
	<path d="M46.78,57.775c0-0.773-0.018-1.408-0.069-2.026h1.337l0.069,1.206h0.052c0.469-0.711,1.25-1.377,2.64-1.377
		c1.146,0,2.014,0.619,2.379,1.501h0.035c0.26-0.418,0.59-0.742,0.938-0.975c0.503-0.341,1.059-0.526,1.858-0.526
		c1.111,0,2.761,0.65,2.761,3.25v4.409h-1.494v-4.239c0-1.439-0.59-2.306-1.823-2.306c-0.868,0-1.545,0.572-1.806,1.238
		c-0.069,0.186-0.122,0.433-0.122,0.681v4.626h-1.493v-4.487c0-1.191-0.591-2.058-1.754-2.058c-0.955,0-1.65,0.681-1.893,1.361
		c-0.086,0.201-0.122,0.434-0.122,0.666v4.518H46.78V57.775z"/>
	<path d="M62.968,53.644c0.018,0.464-0.365,0.835-0.972,0.835c-0.539,0-0.92-0.371-0.92-0.835c0-0.479,0.399-0.852,0.955-0.852
		C62.603,52.792,62.968,53.164,62.968,53.644z M61.266,63.237v-7.488h1.528v7.488H61.266z"/>
	<path d="M65.331,57.775c0-0.773-0.018-1.408-0.069-2.026h1.354l0.087,1.237h0.035c0.417-0.712,1.389-1.408,2.778-1.408
		c1.163,0,2.969,0.619,2.969,3.188v4.472h-1.528V58.92c0-1.207-0.503-2.213-1.945-2.213c-1.007,0-1.789,0.635-2.049,1.393
		c-0.069,0.17-0.104,0.402-0.104,0.634v4.503h-1.528V57.775z"/>
	<path d="M82.004,61.195c0,0.773,0.017,1.454,0.069,2.042h-1.354l-0.087-1.223h-0.035c-0.399,0.604-1.285,1.393-2.778,1.393
		c-1.319,0-2.9-0.649-2.9-3.28v-4.378h1.528v4.146c0,1.423,0.486,2.383,1.875,2.383c1.024,0,1.736-0.635,2.014-1.238
		c0.087-0.201,0.139-0.448,0.139-0.696v-4.595h1.528V61.195z"/>
	<path d="M85.098,55.748l1.841,4.425c0.191,0.495,0.399,1.083,0.538,1.531h0.035c0.156-0.448,0.33-1.021,0.539-1.563l1.667-4.394
		h1.615l-2.292,5.338c-1.094,2.568-1.841,3.884-2.883,4.688c-0.747,0.588-1.493,0.82-1.875,0.882l-0.382-1.145
		c0.382-0.108,0.886-0.325,1.337-0.665c0.417-0.294,0.938-0.82,1.285-1.517c0.069-0.14,0.122-0.247,0.122-0.325
		c0-0.077-0.035-0.186-0.104-0.355l-3.108-6.9H85.098z"/>
	<path d="M93.4,59.74c0.035,1.842,1.354,2.6,2.882,2.6c1.094,0,1.754-0.17,2.327-0.387l0.261,0.975
		c-0.539,0.217-1.458,0.464-2.796,0.464c-2.587,0-4.133-1.516-4.133-3.774c0-2.26,1.494-4.039,3.942-4.039
		c2.744,0,3.473,2.151,3.473,3.528c0,0.278-0.035,0.495-0.052,0.634H93.4z M97.88,58.765c0.017-0.866-0.399-2.213-2.119-2.213
		c-1.545,0-2.223,1.27-2.344,2.213H97.88z"/>
	<path d="M104.726,61.844c0.452,0.263,1.25,0.542,2.015,0.542c1.111,0,1.632-0.495,1.632-1.114c0-0.65-0.434-1.006-1.563-1.377
		c-1.511-0.479-2.223-1.223-2.223-2.12c0-1.207,1.094-2.197,2.9-2.197c0.851,0,1.598,0.217,2.066,0.465l-0.382,0.99
		c-0.33-0.186-0.938-0.434-1.719-0.434c-0.903,0-1.407,0.464-1.407,1.021c0,0.618,0.503,0.897,1.598,1.269
		c1.458,0.495,2.205,1.145,2.205,2.259c0,1.315-1.146,2.243-3.143,2.243c-0.92,0-1.771-0.201-2.361-0.51L104.726,61.844z"/>
	<path d="M118.845,61.195c0,0.773,0.017,1.454,0.069,2.042h-1.354l-0.087-1.223h-0.035c-0.399,0.604-1.285,1.393-2.778,1.393
		c-1.319,0-2.9-0.649-2.9-3.28v-4.378h1.528v4.146c0,1.423,0.486,2.383,1.875,2.383c1.024,0,1.736-0.635,2.014-1.238
		c0.087-0.201,0.139-0.448,0.139-0.696v-4.595h1.528V61.195z"/>
	<path d="M14.663,72.165v2.151h2.188v1.036h-2.188v4.038c0,0.929,0.295,1.455,1.146,1.455c0.399,0,0.694-0.047,0.885-0.093
		l0.07,1.021c-0.295,0.108-0.764,0.186-1.354,0.186c-0.712,0-1.285-0.201-1.65-0.572c-0.434-0.402-0.59-1.067-0.59-1.949v-4.085
		h-1.302v-1.036h1.302v-1.795L14.663,72.165z"/>
	<path d="M23.225,81.805l-0.122-0.943h-0.052c-0.469,0.588-1.372,1.113-2.57,1.113c-1.702,0-2.57-1.067-2.57-2.15
		c0-1.811,1.806-2.801,5.053-2.785v-0.154c0-0.619-0.191-1.733-1.91-1.733c-0.781,0-1.597,0.217-2.188,0.558l-0.348-0.897
		c0.695-0.402,1.702-0.666,2.761-0.666c2.57,0,3.195,1.563,3.195,3.063v2.801c0,0.65,0.035,1.284,0.139,1.795H23.225z
		 M22.999,77.984c-1.667-0.031-3.56,0.231-3.56,1.687c0,0.882,0.66,1.299,1.441,1.299c1.094,0,1.789-0.618,2.032-1.253
		c0.052-0.139,0.087-0.294,0.087-0.434V77.984z"/>
	<path d="M26.943,76.343c0-0.773-0.017-1.408-0.069-2.026h1.337l0.069,1.206h0.052c0.469-0.711,1.25-1.377,2.64-1.377
		c1.146,0,2.014,0.619,2.379,1.501h0.035c0.26-0.418,0.59-0.742,0.938-0.975c0.503-0.341,1.059-0.526,1.858-0.526
		c1.111,0,2.761,0.65,2.761,3.25v4.409h-1.494v-4.239c0-1.439-0.59-2.306-1.823-2.306c-0.868,0-1.545,0.572-1.806,1.238
		c-0.069,0.186-0.122,0.433-0.122,0.681v4.626h-1.494v-4.487c0-1.191-0.59-2.058-1.753-2.058c-0.955,0-1.65,0.681-1.893,1.361
		c-0.086,0.201-0.122,0.434-0.122,0.666v4.518h-1.493V76.343z"/>
	<path d="M46.084,81.805l-0.122-0.943H45.91c-0.469,0.588-1.372,1.113-2.57,1.113c-1.702,0-2.57-1.067-2.57-2.15
		c0-1.811,1.806-2.801,5.053-2.785v-0.154c0-0.619-0.191-1.733-1.91-1.733c-0.782,0-1.598,0.217-2.188,0.558l-0.348-0.897
		c0.695-0.402,1.702-0.666,2.761-0.666c2.57,0,3.195,1.563,3.195,3.063v2.801c0,0.65,0.035,1.284,0.139,1.795H46.084z
		 M45.858,77.984c-1.667-0.031-3.56,0.231-3.56,1.687c0,0.882,0.66,1.299,1.441,1.299c1.094,0,1.789-0.618,2.032-1.253
		c0.052-0.139,0.086-0.294,0.086-0.434V77.984z"/>
	<path d="M49.802,76.343c0-0.773-0.018-1.408-0.069-2.026h1.354l0.087,1.237h0.035c0.417-0.712,1.389-1.408,2.778-1.408
		c1.163,0,2.969,0.619,2.969,3.188v4.472h-1.528v-4.316c0-1.207-0.503-2.213-1.945-2.213c-1.007,0-1.789,0.635-2.049,1.393
		c-0.069,0.17-0.104,0.402-0.104,0.634v4.503h-1.528V76.343z M51.226,73.033c-0.035-1.006,0.434-1.609,1.181-1.609
		c0.382,0,0.677,0.139,1.077,0.34c0.278,0.14,0.521,0.264,0.729,0.264c0.278,0,0.452-0.14,0.486-0.666h0.816
		c0.018,1.037-0.382,1.563-1.198,1.563c-0.364,0-0.694-0.14-1.059-0.31c-0.347-0.186-0.538-0.278-0.747-0.278
		c-0.278,0-0.417,0.263-0.452,0.696H51.226z"/>
	<path d="M67.048,77.998c0,2.77-2.153,3.977-4.185,3.977c-2.275,0-4.029-1.485-4.029-3.853c0-2.506,1.841-3.977,4.167-3.977
		C65.416,74.146,67.048,75.709,67.048,77.998z M60.38,78.077c0,1.64,1.06,2.878,2.553,2.878c1.458,0,2.553-1.223,2.553-2.909
		c0-1.269-0.712-2.878-2.518-2.878C61.162,75.167,60.38,76.653,60.38,78.077z"/>
	<path d="M68.197,81c0-0.572,0.434-0.975,1.042-0.975s1.024,0.402,1.024,0.975c0,0.558-0.399,0.975-1.042,0.975
		C68.614,81.975,68.197,81.558,68.197,81z"/>
</g>
<g>
	<path d="M192.457,28.328h-4.605v4.18h5.133v1.255h-6.662V22.171h6.398v1.256h-4.869v3.663h4.605V28.328z"/>
	<path d="M194.916,21.552h1.547v12.21h-1.547V21.552z"/>
	<path d="M209.66,30.581c0,0.542-0.106,1.023-0.317,1.443c-0.212,0.42-0.506,0.772-0.884,1.058c-0.377,0.285-0.83,0.502-1.356,0.65
		s-1.101,0.223-1.725,0.223c-0.378,0-0.732-0.027-1.064-0.08c-0.332-0.053-0.625-0.119-0.879-0.197
		c-0.255-0.078-0.465-0.159-0.631-0.243s-0.274-0.148-0.326-0.193c-0.051-0.045-0.09-0.095-0.116-0.151
		c-0.026-0.056-0.049-0.121-0.069-0.197c-0.02-0.075-0.034-0.17-0.043-0.285c-0.008-0.114-0.013-0.253-0.013-0.415
		c0-0.269,0.023-0.455,0.069-0.559c0.045-0.104,0.114-0.155,0.206-0.155c0.057,0,0.156,0.038,0.296,0.113
		c0.14,0.076,0.319,0.157,0.536,0.243c0.217,0.087,0.472,0.168,0.764,0.244c0.292,0.075,0.624,0.113,0.996,0.113
		c0.314,0,0.592-0.036,0.833-0.109c0.24-0.072,0.445-0.175,0.614-0.307c0.168-0.131,0.294-0.291,0.377-0.479
		s0.125-0.396,0.125-0.625c0-0.252-0.05-0.479-0.15-0.68s-0.249-0.374-0.446-0.517c-0.197-0.143-0.446-0.253-0.747-0.331
		s-0.653-0.118-1.06-0.118h-0.961c-0.074,0-0.137-0.009-0.188-0.029c-0.052-0.02-0.095-0.06-0.129-0.121s-0.059-0.147-0.073-0.256
		c-0.015-0.109-0.021-0.251-0.021-0.424c0-0.163,0.007-0.296,0.021-0.399c0.014-0.104,0.037-0.183,0.068-0.239
		c0.031-0.056,0.072-0.095,0.12-0.117c0.049-0.022,0.107-0.033,0.176-0.033h0.97c0.332,0,0.626-0.038,0.884-0.113
		c0.257-0.076,0.473-0.184,0.648-0.323c0.174-0.14,0.308-0.31,0.399-0.508c0.091-0.199,0.137-0.419,0.137-0.659
		c0-0.185-0.031-0.359-0.094-0.524s-0.156-0.308-0.279-0.428c-0.123-0.121-0.282-0.216-0.477-0.286
		c-0.194-0.069-0.423-0.104-0.687-0.104c-0.297,0-0.578,0.043-0.841,0.13s-0.5,0.182-0.708,0.285c-0.209,0.104-0.386,0.2-0.532,0.29
		s-0.253,0.134-0.322,0.134c-0.046,0-0.086-0.01-0.12-0.029s-0.063-0.057-0.086-0.113c-0.023-0.056-0.04-0.137-0.051-0.243
		c-0.012-0.106-0.017-0.243-0.017-0.411c0-0.14,0.002-0.256,0.008-0.349c0.006-0.092,0.017-0.169,0.035-0.23
		c0.017-0.062,0.039-0.115,0.064-0.16c0.026-0.044,0.067-0.093,0.125-0.146c0.057-0.053,0.174-0.133,0.352-0.239
		c0.177-0.106,0.4-0.21,0.669-0.311c0.269-0.101,0.579-0.186,0.931-0.256c0.352-0.07,0.733-0.104,1.146-0.104
		c0.538,0,1.014,0.062,1.429,0.185c0.415,0.123,0.764,0.301,1.047,0.532c0.283,0.232,0.498,0.518,0.644,0.856
		s0.219,0.721,0.219,1.146c0,0.33-0.043,0.638-0.129,0.924c-0.085,0.285-0.211,0.54-0.377,0.764s-0.374,0.414-0.622,0.57
		c-0.249,0.157-0.537,0.274-0.863,0.353v0.025c0.389,0.045,0.738,0.142,1.047,0.29c0.309,0.147,0.57,0.334,0.785,0.558
		c0.214,0.224,0.379,0.478,0.493,0.76C209.602,29.953,209.66,30.256,209.66,30.581z"/>
	<path d="M215.796,24.303c0,0.313-0.059,0.604-0.176,0.872c-0.118,0.269-0.283,0.504-0.498,0.705
		c-0.214,0.202-0.469,0.36-0.764,0.475c-0.295,0.115-0.619,0.172-0.974,0.172c-0.354,0-0.675-0.053-0.961-0.159
		c-0.286-0.106-0.532-0.253-0.738-0.44s-0.363-0.413-0.472-0.676c-0.109-0.263-0.163-0.552-0.163-0.864
		c0-0.313,0.06-0.604,0.18-0.873s0.286-0.503,0.498-0.701c0.211-0.198,0.465-0.356,0.76-0.475c0.294-0.117,0.616-0.176,0.965-0.176
		c0.354,0,0.676,0.053,0.965,0.159s0.535,0.253,0.738,0.44c0.203,0.188,0.36,0.413,0.472,0.676
		C215.74,23.702,215.796,23.99,215.796,24.303z M214.32,24.353c0-0.134-0.023-0.262-0.069-0.382s-0.108-0.223-0.188-0.307
		c-0.081-0.084-0.178-0.147-0.292-0.192s-0.237-0.067-0.369-0.067c-0.12,0-0.236,0.023-0.347,0.071
		c-0.112,0.048-0.206,0.113-0.283,0.197c-0.078,0.084-0.139,0.184-0.185,0.298c-0.046,0.115-0.069,0.236-0.069,0.365
		c0,0.134,0.023,0.262,0.069,0.382c0.045,0.12,0.108,0.223,0.188,0.307s0.177,0.149,0.292,0.197
		c0.114,0.047,0.237,0.071,0.369,0.071c0.12,0,0.236-0.024,0.347-0.071c0.112-0.048,0.208-0.115,0.288-0.202
		c0.08-0.086,0.142-0.187,0.185-0.302C214.298,24.604,214.32,24.482,214.32,24.353z"/>
	<path d="M228.557,29.515c0,0.258-0.059,0.447-0.176,0.57c-0.118,0.124-0.279,0.186-0.485,0.186h-4.66
		c0,0.318,0.039,0.608,0.116,0.868c0.077,0.261,0.2,0.481,0.369,0.663c0.168,0.182,0.386,0.32,0.652,0.416
		c0.266,0.095,0.585,0.143,0.957,0.143c0.378,0,0.709-0.026,0.996-0.08c0.286-0.053,0.534-0.112,0.743-0.176
		c0.208-0.064,0.382-0.123,0.519-0.177c0.137-0.053,0.249-0.08,0.334-0.08c0.052,0,0.095,0.01,0.129,0.029
		c0.034,0.021,0.063,0.055,0.086,0.105c0.022,0.05,0.039,0.122,0.047,0.214c0.009,0.093,0.013,0.209,0.013,0.349
		c0,0.123-0.003,0.228-0.009,0.314s-0.014,0.161-0.026,0.223c-0.011,0.062-0.028,0.113-0.051,0.155s-0.053,0.082-0.09,0.121
		c-0.037,0.04-0.139,0.093-0.304,0.16c-0.166,0.067-0.378,0.133-0.635,0.197s-0.552,0.12-0.884,0.168
		c-0.332,0.047-0.687,0.071-1.064,0.071c-0.681,0-1.277-0.084-1.789-0.252c-0.512-0.168-0.94-0.423-1.283-0.764
		c-0.343-0.342-0.599-0.772-0.768-1.293s-0.253-1.13-0.253-1.83c0-0.665,0.088-1.266,0.266-1.8s0.435-0.987,0.772-1.36
		c0.337-0.372,0.748-0.655,1.231-0.852c0.483-0.195,1.028-0.294,1.635-0.294c0.641,0,1.188,0.093,1.643,0.277
		c0.455,0.185,0.828,0.44,1.12,0.768s0.506,0.715,0.644,1.163c0.137,0.447,0.206,0.935,0.206,1.46V29.515z M226.463,28.911
		c0.018-0.593-0.104-1.059-0.365-1.397c-0.26-0.339-0.662-0.508-1.206-0.508c-0.274,0-0.514,0.051-0.716,0.151
		c-0.204,0.101-0.372,0.236-0.506,0.407c-0.135,0.171-0.238,0.372-0.309,0.604c-0.072,0.231-0.113,0.479-0.125,0.742H226.463z"/>
	<path d="M237.645,33.477c0,0.056-0.017,0.104-0.051,0.146c-0.035,0.042-0.092,0.077-0.172,0.105
		c-0.08,0.027-0.19,0.049-0.331,0.063s-0.313,0.021-0.519,0.021c-0.212,0-0.388-0.008-0.528-0.021s-0.25-0.035-0.33-0.063
		c-0.081-0.028-0.138-0.063-0.172-0.105s-0.051-0.091-0.051-0.146v-4.272c0-0.363-0.027-0.649-0.082-0.856
		c-0.055-0.207-0.133-0.385-0.236-0.532c-0.103-0.148-0.236-0.264-0.399-0.345s-0.354-0.121-0.571-0.121
		c-0.274,0-0.552,0.098-0.833,0.293c-0.28,0.196-0.572,0.481-0.875,0.856v4.978c0,0.056-0.018,0.104-0.052,0.146
		s-0.093,0.077-0.176,0.105c-0.083,0.027-0.193,0.049-0.331,0.063s-0.312,0.021-0.523,0.021c-0.212,0-0.386-0.008-0.523-0.021
		s-0.248-0.035-0.331-0.063c-0.083-0.028-0.142-0.063-0.176-0.105s-0.051-0.091-0.051-0.146V25.99c0-0.056,0.014-0.104,0.042-0.146
		c0.029-0.042,0.08-0.077,0.155-0.105c0.074-0.027,0.17-0.049,0.288-0.063c0.117-0.014,0.264-0.021,0.442-0.021
		c0.183,0,0.334,0.008,0.455,0.021s0.213,0.035,0.279,0.063c0.066,0.028,0.113,0.063,0.142,0.105
		c0.029,0.042,0.043,0.091,0.043,0.146v0.864c0.423-0.447,0.854-0.783,1.292-1.007c0.438-0.224,0.894-0.336,1.369-0.336
		c0.521,0,0.959,0.084,1.317,0.252c0.357,0.168,0.646,0.396,0.867,0.685s0.379,0.625,0.476,1.011
		c0.097,0.387,0.146,0.851,0.146,1.394V33.477z"/>
	<path d="M245.558,32.285c0,0.146-0.004,0.268-0.013,0.365c-0.009,0.098-0.02,0.181-0.035,0.248
		c-0.014,0.066-0.031,0.121-0.051,0.163s-0.064,0.096-0.133,0.16c-0.069,0.064-0.186,0.143-0.352,0.234
		c-0.166,0.093-0.355,0.175-0.566,0.248c-0.212,0.072-0.442,0.131-0.691,0.176s-0.505,0.067-0.768,0.067
		c-0.589,0-1.111-0.09-1.566-0.269c-0.455-0.179-0.837-0.443-1.146-0.793s-0.542-0.776-0.699-1.28
		c-0.158-0.504-0.236-1.08-0.236-1.729c0-0.75,0.096-1.397,0.288-1.943c0.192-0.546,0.459-0.997,0.803-1.355
		s0.749-0.624,1.218-0.798c0.469-0.173,0.984-0.26,1.545-0.26c0.229,0,0.453,0.02,0.674,0.059c0.22,0.039,0.426,0.093,0.618,0.159
		c0.192,0.067,0.363,0.143,0.515,0.227c0.151,0.084,0.259,0.157,0.322,0.219s0.107,0.113,0.133,0.155s0.046,0.097,0.06,0.163
		c0.014,0.067,0.026,0.15,0.034,0.248c0.009,0.098,0.013,0.217,0.013,0.356c0,0.325-0.029,0.553-0.086,0.685
		c-0.057,0.131-0.132,0.197-0.223,0.197c-0.097,0-0.2-0.039-0.309-0.118c-0.108-0.078-0.237-0.165-0.386-0.26
		c-0.148-0.095-0.326-0.182-0.532-0.26c-0.206-0.079-0.452-0.118-0.738-0.118c-0.561,0-0.99,0.212-1.287,0.634
		c-0.297,0.423-0.446,1.042-0.446,1.859c0,0.402,0.037,0.758,0.111,1.065c0.075,0.309,0.185,0.565,0.331,0.772
		s0.329,0.362,0.549,0.466s0.476,0.155,0.768,0.155c0.297,0,0.554-0.043,0.768-0.13s0.402-0.184,0.562-0.29
		c0.16-0.105,0.295-0.202,0.403-0.289c0.109-0.087,0.2-0.13,0.275-0.13c0.051,0,0.094,0.014,0.128,0.042
		c0.035,0.027,0.062,0.079,0.082,0.155c0.02,0.075,0.036,0.172,0.047,0.289C245.552,31.95,245.558,32.1,245.558,32.285z"/>
	<path d="M253.539,33.502c0,0.078-0.029,0.14-0.086,0.185s-0.147,0.076-0.27,0.096s-0.305,0.03-0.545,0.03
		c-0.258,0-0.445-0.011-0.563-0.03s-0.2-0.051-0.249-0.096c-0.049-0.045-0.073-0.106-0.073-0.185v-0.597
		c-0.314,0.33-0.673,0.588-1.077,0.772s-0.851,0.277-1.343,0.277c-0.406,0-0.78-0.052-1.12-0.155s-0.635-0.258-0.884-0.462
		s-0.442-0.457-0.579-0.76c-0.138-0.302-0.206-0.654-0.206-1.058c0-0.437,0.087-0.815,0.262-1.137
		c0.174-0.322,0.435-0.588,0.781-0.798s0.777-0.365,1.292-0.466c0.515-0.101,1.113-0.151,1.794-0.151h0.747v-0.453
		c0-0.234-0.024-0.44-0.073-0.617c-0.048-0.176-0.128-0.322-0.24-0.44c-0.111-0.117-0.26-0.204-0.446-0.26
		c-0.186-0.056-0.416-0.084-0.69-0.084c-0.361,0-0.683,0.039-0.966,0.117s-0.533,0.165-0.751,0.261
		c-0.217,0.095-0.399,0.182-0.545,0.26c-0.146,0.078-0.265,0.117-0.356,0.117c-0.063,0-0.119-0.02-0.167-0.059
		c-0.048-0.039-0.089-0.095-0.12-0.168c-0.031-0.072-0.056-0.162-0.073-0.269c-0.017-0.105-0.026-0.224-0.026-0.353
		c0-0.173,0.014-0.311,0.043-0.411c0.028-0.101,0.083-0.191,0.163-0.272s0.22-0.171,0.42-0.269s0.435-0.189,0.704-0.273
		s0.563-0.152,0.88-0.205c0.317-0.054,0.645-0.08,0.982-0.08c0.601,0,1.114,0.058,1.541,0.172c0.426,0.115,0.777,0.291,1.051,0.529
		c0.275,0.238,0.475,0.544,0.601,0.919c0.126,0.375,0.189,0.82,0.189,1.335V33.502z M251.419,30.295h-0.824
		c-0.349,0-0.647,0.025-0.893,0.076c-0.246,0.05-0.446,0.126-0.601,0.227c-0.154,0.101-0.267,0.222-0.339,0.365
		c-0.071,0.143-0.107,0.306-0.107,0.49c0,0.313,0.101,0.56,0.304,0.739c0.203,0.179,0.485,0.269,0.846,0.269
		c0.303,0,0.582-0.076,0.836-0.227c0.255-0.151,0.514-0.372,0.777-0.663V30.295z"/>
	<path d="M258.019,33.729c0,0.587-0.052,1.063-0.155,1.427c-0.103,0.363-0.259,0.67-0.468,0.919s-0.471,0.437-0.785,0.563
		s-0.684,0.188-1.107,0.188c-0.235,0-0.435-0.016-0.601-0.046c-0.166-0.031-0.286-0.063-0.361-0.097
		c-0.074-0.033-0.125-0.075-0.154-0.126c-0.028-0.05-0.048-0.107-0.06-0.172c-0.011-0.064-0.02-0.138-0.026-0.219
		c-0.005-0.081-0.008-0.186-0.008-0.314c0-0.156,0.004-0.287,0.013-0.391s0.024-0.186,0.047-0.247s0.048-0.106,0.077-0.135
		c0.029-0.027,0.066-0.042,0.111-0.042c0.029,0,0.087,0.008,0.176,0.021c0.088,0.014,0.185,0.021,0.287,0.021
		c0.149,0,0.278-0.022,0.386-0.066c0.109-0.045,0.198-0.116,0.266-0.215c0.069-0.098,0.12-0.224,0.155-0.377
		c0.034-0.154,0.051-0.399,0.051-0.734v-7.681c0-0.056,0.017-0.104,0.052-0.146c0.034-0.042,0.091-0.078,0.171-0.109
		c0.08-0.03,0.189-0.055,0.326-0.071s0.312-0.025,0.523-0.025c0.211,0,0.386,0.009,0.523,0.025s0.248,0.041,0.331,0.071
		c0.083,0.031,0.142,0.067,0.176,0.109s0.052,0.091,0.052,0.146V33.729z M258.182,23.454c0,0.426-0.087,0.72-0.262,0.882
		c-0.174,0.162-0.505,0.243-0.991,0.243c-0.48,0-0.807-0.078-0.978-0.234c-0.172-0.157-0.257-0.439-0.257-0.849
		c0-0.425,0.088-0.72,0.266-0.885s0.506-0.248,0.987-0.248c0.486,0,0.813,0.08,0.982,0.239
		C258.097,22.762,258.182,23.046,258.182,23.454z"/>
	<path d="M267.253,29.515c0,0.258-0.059,0.447-0.176,0.57c-0.118,0.124-0.279,0.186-0.485,0.186h-4.66
		c0,0.318,0.039,0.608,0.116,0.868c0.077,0.261,0.2,0.481,0.369,0.663c0.168,0.182,0.386,0.32,0.652,0.416
		c0.266,0.095,0.585,0.143,0.957,0.143c0.378,0,0.709-0.026,0.996-0.08c0.286-0.053,0.534-0.112,0.743-0.176
		c0.208-0.064,0.382-0.123,0.519-0.177c0.137-0.053,0.249-0.08,0.334-0.08c0.052,0,0.095,0.01,0.129,0.029
		c0.034,0.021,0.063,0.055,0.086,0.105c0.022,0.05,0.039,0.122,0.047,0.214c0.009,0.093,0.013,0.209,0.013,0.349
		c0,0.123-0.003,0.228-0.009,0.314s-0.014,0.161-0.026,0.223c-0.011,0.062-0.028,0.113-0.051,0.155s-0.053,0.082-0.09,0.121
		c-0.037,0.04-0.139,0.093-0.304,0.16c-0.166,0.067-0.378,0.133-0.635,0.197s-0.552,0.12-0.884,0.168
		c-0.332,0.047-0.687,0.071-1.064,0.071c-0.681,0-1.277-0.084-1.789-0.252c-0.512-0.168-0.94-0.423-1.283-0.764
		c-0.343-0.342-0.599-0.772-0.768-1.293s-0.253-1.13-0.253-1.83c0-0.665,0.088-1.266,0.266-1.8s0.435-0.987,0.772-1.36
		c0.337-0.372,0.748-0.655,1.231-0.852c0.483-0.195,1.028-0.294,1.635-0.294c0.641,0,1.188,0.093,1.643,0.277
		c0.455,0.185,0.828,0.44,1.12,0.768s0.506,0.715,0.644,1.163c0.137,0.447,0.206,0.935,0.206,1.46V29.515z M265.159,28.911
		c0.018-0.593-0.104-1.059-0.365-1.397c-0.26-0.339-0.662-0.508-1.206-0.508c-0.274,0-0.514,0.051-0.716,0.151
		c-0.204,0.101-0.372,0.236-0.506,0.407c-0.135,0.171-0.238,0.372-0.309,0.604c-0.072,0.231-0.113,0.479-0.125,0.742H265.159z"/>
	<path d="M198.245,54.105c0,0.056-0.017,0.104-0.051,0.146s-0.092,0.077-0.171,0.105c-0.081,0.027-0.189,0.049-0.326,0.063
		c-0.138,0.014-0.312,0.021-0.523,0.021c-0.218,0-0.395-0.008-0.532-0.021s-0.248-0.035-0.331-0.063
		c-0.083-0.028-0.14-0.063-0.171-0.105c-0.032-0.042-0.047-0.091-0.047-0.146v-4.44c0-0.252-0.024-0.481-0.073-0.688
		c-0.049-0.207-0.124-0.385-0.223-0.532c-0.101-0.148-0.226-0.264-0.378-0.345c-0.151-0.081-0.333-0.121-0.545-0.121
		c-0.257,0-0.518,0.098-0.781,0.293c-0.263,0.196-0.549,0.481-0.858,0.856v4.978c0,0.056-0.017,0.104-0.051,0.146
		s-0.093,0.077-0.176,0.105c-0.083,0.027-0.193,0.049-0.331,0.063s-0.309,0.021-0.515,0.021c-0.211,0-0.386-0.008-0.523-0.021
		s-0.248-0.035-0.33-0.063c-0.083-0.028-0.142-0.063-0.176-0.105c-0.034-0.042-0.051-0.091-0.051-0.146v-4.44
		c0-0.252-0.024-0.481-0.073-0.688c-0.048-0.207-0.122-0.385-0.219-0.532c-0.097-0.148-0.223-0.264-0.377-0.345
		c-0.155-0.081-0.335-0.121-0.541-0.121c-0.263,0-0.527,0.098-0.79,0.293c-0.263,0.196-0.546,0.481-0.85,0.856v4.978
		c0,0.056-0.018,0.104-0.052,0.146s-0.093,0.077-0.176,0.105c-0.083,0.027-0.193,0.049-0.331,0.063s-0.312,0.021-0.523,0.021
		c-0.212,0-0.386-0.008-0.523-0.021s-0.248-0.035-0.331-0.063c-0.083-0.028-0.142-0.063-0.176-0.105s-0.051-0.091-0.051-0.146
		v-7.487c0-0.056,0.014-0.104,0.042-0.146c0.029-0.042,0.08-0.077,0.155-0.105c0.074-0.027,0.17-0.049,0.288-0.063
		c0.117-0.014,0.264-0.021,0.442-0.021c0.183,0,0.334,0.008,0.455,0.021s0.213,0.035,0.279,0.063
		c0.066,0.028,0.113,0.063,0.142,0.105c0.029,0.042,0.043,0.091,0.043,0.146v0.864c0.423-0.447,0.846-0.783,1.266-1.007
		s0.859-0.336,1.317-0.336c0.314,0,0.598,0.032,0.85,0.097c0.251,0.064,0.476,0.157,0.673,0.277c0.198,0.12,0.368,0.264,0.511,0.432
		s0.263,0.355,0.36,0.563c0.229-0.24,0.454-0.447,0.674-0.621c0.22-0.173,0.438-0.314,0.652-0.424
		c0.214-0.109,0.429-0.19,0.644-0.243c0.214-0.054,0.433-0.08,0.656-0.08c0.509,0,0.938,0.084,1.288,0.252
		c0.349,0.168,0.631,0.396,0.845,0.685s0.368,0.625,0.459,1.011c0.092,0.387,0.137,0.795,0.137,1.226V54.105z"/>
	<path d="M208.106,50.286c0,0.638-0.086,1.22-0.257,1.746c-0.172,0.525-0.432,0.979-0.781,1.359
		c-0.349,0.381-0.787,0.675-1.313,0.882s-1.141,0.311-1.845,0.311c-0.681,0-1.273-0.093-1.776-0.277s-0.921-0.453-1.253-0.806
		c-0.332-0.353-0.578-0.786-0.738-1.301c-0.161-0.515-0.241-1.103-0.241-1.763c0-0.638,0.087-1.222,0.262-1.75
		c0.174-0.529,0.436-0.982,0.785-1.36c0.349-0.377,0.785-0.67,1.309-0.877s1.137-0.311,1.841-0.311c0.687,0,1.282,0.091,1.785,0.273
		c0.503,0.182,0.919,0.448,1.249,0.801s0.574,0.786,0.734,1.302C208.026,49.03,208.106,49.62,208.106,50.286z M205.883,50.37
		c0-0.369-0.03-0.709-0.09-1.02s-0.162-0.581-0.305-0.811s-0.333-0.408-0.571-0.537c-0.237-0.128-0.536-0.192-0.896-0.192
		c-0.321,0-0.601,0.057-0.841,0.172c-0.24,0.114-0.438,0.282-0.592,0.503c-0.155,0.222-0.271,0.487-0.348,0.798
		s-0.116,0.664-0.116,1.062c0,0.369,0.031,0.71,0.094,1.021s0.165,0.58,0.305,0.81s0.331,0.407,0.571,0.533s0.538,0.188,0.892,0.188
		c0.326,0,0.609-0.058,0.85-0.172c0.241-0.114,0.438-0.281,0.592-0.499c0.155-0.219,0.269-0.483,0.343-0.794
		S205.883,50.767,205.883,50.37z"/>
	<path d="M217.074,54.105c0,0.062-0.015,0.113-0.043,0.155c-0.029,0.042-0.077,0.077-0.146,0.104
		c-0.069,0.028-0.162,0.048-0.279,0.059c-0.118,0.012-0.262,0.018-0.434,0.018c-0.183,0-0.332-0.006-0.446-0.018
		c-0.114-0.011-0.208-0.03-0.279-0.059c-0.072-0.027-0.123-0.063-0.154-0.104c-0.032-0.042-0.047-0.094-0.047-0.155v-0.831
		c-0.395,0.414-0.808,0.735-1.24,0.965s-0.911,0.345-1.438,0.345c-0.583,0-1.077-0.111-1.48-0.332
		c-0.404-0.221-0.732-0.519-0.987-0.894c-0.254-0.375-0.439-0.813-0.553-1.313c-0.115-0.501-0.172-1.028-0.172-1.582
		c0-0.666,0.073-1.265,0.219-1.797c0.146-0.531,0.359-0.984,0.64-1.359s0.629-0.663,1.047-0.864
		c0.417-0.202,0.898-0.303,1.442-0.303c0.429,0,0.818,0.086,1.167,0.256c0.349,0.171,0.695,0.422,1.039,0.752v-4.055
		c0-0.056,0.016-0.106,0.047-0.15c0.032-0.045,0.089-0.083,0.172-0.113c0.083-0.031,0.193-0.055,0.331-0.072
		c0.137-0.017,0.312-0.024,0.523-0.024c0.211,0,0.386,0.008,0.523,0.024c0.137,0.018,0.246,0.041,0.326,0.072
		c0.08,0.03,0.137,0.068,0.171,0.113c0.034,0.044,0.052,0.095,0.052,0.15V54.105z M214.929,49.102
		c-0.309-0.38-0.605-0.671-0.888-0.873c-0.283-0.201-0.58-0.302-0.888-0.302c-0.281,0-0.522,0.068-0.726,0.206
		c-0.203,0.137-0.366,0.32-0.489,0.549c-0.124,0.229-0.215,0.486-0.275,0.769s-0.09,0.572-0.09,0.868
		c0,0.313,0.025,0.619,0.077,0.915c0.051,0.297,0.136,0.562,0.253,0.794c0.117,0.231,0.273,0.418,0.468,0.558s0.44,0.21,0.738,0.21
		c0.148,0,0.293-0.021,0.433-0.063c0.14-0.042,0.283-0.111,0.429-0.206s0.296-0.22,0.451-0.374c0.154-0.153,0.323-0.342,0.506-0.566
		V49.102z"/>
	<path d="M221.571,44.082c0,0.426-0.089,0.72-0.266,0.882c-0.178,0.162-0.506,0.243-0.987,0.243c-0.487,0-0.814-0.078-0.983-0.234
		c-0.169-0.157-0.253-0.439-0.253-0.849c0-0.425,0.087-0.72,0.262-0.885c0.174-0.165,0.505-0.248,0.991-0.248
		c0.48,0,0.807,0.08,0.978,0.239C221.485,43.39,221.571,43.674,221.571,44.082z M221.408,54.105c0,0.056-0.018,0.104-0.052,0.146
		s-0.093,0.077-0.176,0.105c-0.083,0.027-0.193,0.049-0.331,0.063s-0.312,0.021-0.523,0.021c-0.212,0-0.386-0.008-0.523-0.021
		s-0.248-0.035-0.331-0.063c-0.083-0.028-0.142-0.063-0.176-0.105s-0.051-0.091-0.051-0.146v-7.471c0-0.056,0.017-0.104,0.051-0.146
		s0.093-0.078,0.176-0.109c0.083-0.03,0.193-0.055,0.331-0.071s0.312-0.025,0.523-0.025c0.211,0,0.386,0.009,0.523,0.025
		s0.248,0.041,0.331,0.071c0.083,0.031,0.142,0.067,0.176,0.109s0.052,0.091,0.052,0.146V54.105z"/>
	<path d="M231.131,54.105c0,0.056-0.017,0.104-0.051,0.146s-0.092,0.077-0.172,0.105c-0.08,0.027-0.19,0.049-0.33,0.063
		c-0.141,0.014-0.313,0.021-0.52,0.021c-0.211,0-0.388-0.008-0.528-0.021s-0.25-0.035-0.33-0.063
		c-0.08-0.028-0.137-0.063-0.172-0.105c-0.034-0.042-0.051-0.091-0.051-0.146v-6.061h-2.841v6.061c0,0.056-0.017,0.104-0.051,0.146
		s-0.092,0.077-0.172,0.105c-0.08,0.027-0.19,0.049-0.33,0.063c-0.141,0.014-0.316,0.021-0.528,0.021
		c-0.206,0-0.379-0.008-0.52-0.021s-0.251-0.035-0.334-0.063c-0.083-0.028-0.14-0.063-0.172-0.105
		c-0.031-0.042-0.047-0.091-0.047-0.146v-6.061h-0.961c-0.108,0-0.19-0.065-0.245-0.197c-0.054-0.131-0.082-0.351-0.082-0.658
		c0-0.163,0.007-0.3,0.021-0.412c0.014-0.111,0.035-0.199,0.06-0.264c0.026-0.064,0.06-0.11,0.103-0.139s0.093-0.042,0.15-0.042
		h0.953v-0.663c0-0.509,0.053-0.954,0.159-1.335c0.106-0.38,0.267-0.697,0.485-0.952c0.217-0.255,0.492-0.445,0.824-0.571
		c0.332-0.126,0.724-0.188,1.176-0.188c0.126,0,0.253,0.006,0.382,0.017c0.129,0.012,0.25,0.028,0.365,0.051s0.215,0.047,0.3,0.075
		c0.086,0.028,0.145,0.058,0.176,0.088c0.031,0.031,0.057,0.066,0.077,0.105s0.037,0.089,0.051,0.15
		c0.014,0.063,0.024,0.142,0.03,0.239c0.005,0.099,0.008,0.22,0.008,0.365c0,0.269-0.016,0.458-0.047,0.566
		c-0.032,0.109-0.093,0.164-0.185,0.164c-0.035,0-0.073-0.006-0.116-0.017c-0.043-0.012-0.095-0.025-0.155-0.042
		s-0.13-0.032-0.21-0.046c-0.081-0.015-0.181-0.021-0.301-0.021c-0.303,0-0.523,0.101-0.661,0.303
		c-0.137,0.201-0.206,0.534-0.206,0.998v0.714h4.343c0.217,0,0.38,0.046,0.489,0.139c0.109,0.092,0.163,0.239,0.163,0.44V54.105z
		 M231.294,44.1c0,0.207-0.019,0.382-0.056,0.524s-0.102,0.257-0.193,0.344c-0.092,0.087-0.216,0.148-0.374,0.185
		c-0.157,0.037-0.354,0.055-0.588,0.055s-0.432-0.018-0.592-0.055c-0.16-0.036-0.287-0.098-0.382-0.185
		c-0.094-0.087-0.16-0.201-0.197-0.344s-0.056-0.317-0.056-0.524c0-0.202,0.019-0.372,0.056-0.513
		c0.037-0.14,0.103-0.254,0.197-0.344c0.095-0.09,0.222-0.154,0.382-0.193s0.358-0.059,0.592-0.059s0.431,0.02,0.588,0.059
		s0.282,0.104,0.374,0.193c0.091,0.09,0.156,0.204,0.193,0.344C231.275,43.728,231.294,43.898,231.294,44.1z"/>
	<path d="M239.095,52.913c0,0.146-0.004,0.268-0.013,0.365c-0.009,0.098-0.02,0.181-0.035,0.248
		c-0.014,0.066-0.031,0.121-0.051,0.163s-0.064,0.096-0.133,0.16c-0.069,0.064-0.186,0.143-0.352,0.234
		c-0.166,0.093-0.355,0.175-0.566,0.248c-0.212,0.072-0.442,0.131-0.691,0.176s-0.505,0.067-0.768,0.067
		c-0.589,0-1.111-0.09-1.566-0.269c-0.455-0.179-0.837-0.443-1.146-0.793s-0.542-0.776-0.699-1.28
		c-0.158-0.504-0.236-1.08-0.236-1.729c0-0.75,0.096-1.397,0.288-1.943c0.192-0.546,0.459-0.997,0.803-1.355
		s0.749-0.624,1.218-0.798c0.469-0.173,0.984-0.26,1.545-0.26c0.229,0,0.453,0.02,0.674,0.059c0.22,0.039,0.426,0.093,0.618,0.159
		c0.192,0.067,0.363,0.143,0.515,0.227c0.151,0.084,0.259,0.157,0.322,0.219s0.107,0.113,0.133,0.155s0.046,0.097,0.06,0.163
		c0.014,0.067,0.026,0.15,0.034,0.248c0.009,0.098,0.013,0.217,0.013,0.356c0,0.325-0.029,0.553-0.086,0.685
		c-0.057,0.131-0.132,0.197-0.223,0.197c-0.097,0-0.2-0.039-0.309-0.118c-0.108-0.078-0.237-0.165-0.386-0.26
		c-0.148-0.095-0.326-0.182-0.532-0.26c-0.206-0.079-0.452-0.118-0.738-0.118c-0.561,0-0.99,0.212-1.287,0.634
		c-0.297,0.423-0.446,1.042-0.446,1.859c0,0.402,0.037,0.758,0.111,1.065c0.075,0.309,0.185,0.565,0.331,0.772
		s0.329,0.362,0.549,0.466s0.476,0.155,0.768,0.155c0.297,0,0.554-0.043,0.768-0.13s0.402-0.184,0.562-0.29
		c0.16-0.105,0.295-0.202,0.403-0.289c0.109-0.087,0.2-0.13,0.275-0.13c0.051,0,0.094,0.014,0.128,0.042
		c0.035,0.027,0.062,0.079,0.082,0.155c0.02,0.075,0.036,0.172,0.047,0.289C239.089,52.578,239.095,52.728,239.095,52.913z"/>
	<path d="M247.076,54.13c0,0.078-0.029,0.14-0.086,0.185s-0.147,0.076-0.27,0.096s-0.305,0.03-0.545,0.03
		c-0.258,0-0.445-0.011-0.563-0.03s-0.2-0.051-0.249-0.096c-0.049-0.045-0.073-0.106-0.073-0.185v-0.597
		c-0.314,0.33-0.673,0.588-1.077,0.772s-0.851,0.277-1.343,0.277c-0.406,0-0.78-0.052-1.12-0.155s-0.635-0.258-0.884-0.462
		s-0.442-0.457-0.579-0.76c-0.138-0.302-0.206-0.654-0.206-1.058c0-0.437,0.087-0.815,0.262-1.137
		c0.174-0.322,0.435-0.588,0.781-0.798s0.777-0.365,1.292-0.466c0.515-0.101,1.113-0.151,1.794-0.151h0.747v-0.453
		c0-0.234-0.024-0.44-0.073-0.617c-0.048-0.176-0.128-0.322-0.24-0.44c-0.111-0.117-0.26-0.204-0.446-0.26
		c-0.186-0.056-0.416-0.084-0.69-0.084c-0.361,0-0.683,0.039-0.966,0.117s-0.533,0.165-0.751,0.261
		c-0.217,0.095-0.399,0.182-0.545,0.26c-0.146,0.078-0.265,0.117-0.356,0.117c-0.063,0-0.119-0.02-0.167-0.059
		c-0.048-0.039-0.089-0.095-0.12-0.168c-0.031-0.072-0.056-0.162-0.073-0.269c-0.017-0.105-0.026-0.224-0.026-0.353
		c0-0.173,0.014-0.311,0.043-0.411c0.028-0.101,0.083-0.191,0.163-0.272s0.22-0.171,0.42-0.269s0.435-0.189,0.704-0.273
		s0.563-0.152,0.88-0.205c0.317-0.054,0.645-0.08,0.982-0.08c0.601,0,1.114,0.058,1.541,0.172c0.426,0.115,0.777,0.291,1.051,0.529
		c0.275,0.238,0.475,0.544,0.601,0.919c0.126,0.375,0.189,0.82,0.189,1.335V54.13z M244.956,50.923h-0.824
		c-0.349,0-0.647,0.025-0.893,0.076c-0.246,0.05-0.446,0.126-0.601,0.227c-0.154,0.101-0.267,0.222-0.339,0.365
		c-0.071,0.143-0.107,0.306-0.107,0.49c0,0.313,0.101,0.56,0.304,0.739c0.203,0.179,0.485,0.269,0.846,0.269
		c0.303,0,0.582-0.076,0.836-0.227c0.255-0.151,0.514-0.372,0.777-0.663V50.923z"/>
	<path d="M256.491,54.105c0,0.062-0.015,0.113-0.043,0.155c-0.029,0.042-0.077,0.077-0.146,0.104
		c-0.069,0.028-0.162,0.048-0.279,0.059c-0.118,0.012-0.262,0.018-0.434,0.018c-0.183,0-0.332-0.006-0.446-0.018
		c-0.114-0.011-0.208-0.03-0.279-0.059c-0.072-0.027-0.123-0.063-0.154-0.104c-0.032-0.042-0.047-0.094-0.047-0.155v-0.831
		c-0.395,0.414-0.808,0.735-1.24,0.965s-0.911,0.345-1.438,0.345c-0.583,0-1.077-0.111-1.48-0.332
		c-0.404-0.221-0.732-0.519-0.987-0.894c-0.254-0.375-0.439-0.813-0.553-1.313c-0.115-0.501-0.172-1.028-0.172-1.582
		c0-0.666,0.073-1.265,0.219-1.797c0.146-0.531,0.359-0.984,0.64-1.359s0.629-0.663,1.047-0.864
		c0.417-0.202,0.898-0.303,1.442-0.303c0.429,0,0.818,0.086,1.167,0.256c0.349,0.171,0.695,0.422,1.039,0.752v-4.055
		c0-0.056,0.016-0.106,0.047-0.15c0.032-0.045,0.089-0.083,0.172-0.113c0.083-0.031,0.193-0.055,0.331-0.072
		c0.137-0.017,0.312-0.024,0.523-0.024c0.211,0,0.386,0.008,0.523,0.024c0.137,0.018,0.246,0.041,0.326,0.072
		c0.08,0.03,0.137,0.068,0.171,0.113c0.034,0.044,0.052,0.095,0.052,0.15V54.105z M254.345,49.102
		c-0.309-0.38-0.605-0.671-0.888-0.873c-0.283-0.201-0.58-0.302-0.888-0.302c-0.281,0-0.522,0.068-0.726,0.206
		c-0.203,0.137-0.366,0.32-0.489,0.549c-0.124,0.229-0.215,0.486-0.275,0.769s-0.09,0.572-0.09,0.868
		c0,0.313,0.025,0.619,0.077,0.915c0.051,0.297,0.136,0.562,0.253,0.794c0.117,0.231,0.273,0.418,0.468,0.558s0.44,0.21,0.738,0.21
		c0.148,0,0.293-0.021,0.433-0.063c0.14-0.042,0.283-0.111,0.429-0.206s0.296-0.22,0.451-0.374c0.154-0.153,0.323-0.342,0.506-0.566
		V49.102z"/>
	<path d="M266.403,50.286c0,0.638-0.086,1.22-0.257,1.746c-0.172,0.525-0.432,0.979-0.781,1.359
		c-0.349,0.381-0.787,0.675-1.313,0.882s-1.141,0.311-1.845,0.311c-0.681,0-1.273-0.093-1.776-0.277s-0.921-0.453-1.253-0.806
		c-0.332-0.353-0.578-0.786-0.738-1.301c-0.161-0.515-0.241-1.103-0.241-1.763c0-0.638,0.087-1.222,0.262-1.75
		c0.174-0.529,0.436-0.982,0.785-1.36c0.349-0.377,0.785-0.67,1.309-0.877s1.137-0.311,1.841-0.311c0.687,0,1.282,0.091,1.785,0.273
		c0.503,0.182,0.919,0.448,1.249,0.801s0.574,0.786,0.734,1.302C266.323,49.03,266.403,49.62,266.403,50.286z M264.18,50.37
		c0-0.369-0.03-0.709-0.09-1.02s-0.162-0.581-0.305-0.811s-0.333-0.408-0.571-0.537c-0.237-0.128-0.536-0.192-0.896-0.192
		c-0.321,0-0.601,0.057-0.841,0.172c-0.24,0.114-0.438,0.282-0.592,0.503c-0.155,0.222-0.271,0.487-0.348,0.798
		s-0.116,0.664-0.116,1.062c0,0.369,0.031,0.71,0.094,1.021s0.165,0.58,0.305,0.81s0.331,0.407,0.571,0.533s0.538,0.188,0.892,0.188
		c0.326,0,0.609-0.058,0.85-0.172c0.241-0.114,0.438-0.281,0.592-0.499c0.155-0.219,0.269-0.483,0.343-0.794
		S264.18,50.767,264.18,50.37z"/>
	<path d="M193.6,66.695c-0.035,0.602-0.07,1.272-0.07,2.287v4.832c0,1.909-0.387,3.078-1.213,3.801
		c-0.826,0.757-2.021,0.997-3.094,0.997c-1.02,0-2.145-0.24-2.83-0.688l0.387-1.152c0.563,0.344,1.441,0.653,2.496,0.653
		c1.582,0,2.742-0.808,2.742-2.906V73.59h-0.035c-0.475,0.774-1.389,1.394-2.707,1.394c-2.109,0-3.621-1.754-3.621-4.059
		c0-2.82,1.881-4.42,3.832-4.42c1.477,0,2.285,0.757,2.654,1.445h0.035l0.07-1.256H193.6z M192,69.979
		c0-0.258-0.018-0.481-0.088-0.688c-0.281-0.877-1.037-1.6-2.162-1.6c-1.477,0-2.531,1.222-2.531,3.147
		c0,1.634,0.844,2.992,2.514,2.992c0.949,0,1.811-0.585,2.145-1.548c0.088-0.258,0.123-0.55,0.123-0.809V69.979z"/>
	<path d="M196.956,71.131c0.035,2.047,1.371,2.89,2.918,2.89c1.107,0,1.775-0.189,2.355-0.431l0.264,1.084
		c-0.545,0.24-1.477,0.516-2.83,0.516c-2.619,0-4.184-1.686-4.184-4.196s1.512-4.488,3.99-4.488c2.777,0,3.516,2.391,3.516,3.921
		c0,0.31-0.035,0.551-0.053,0.705H196.956z M201.491,70.048c0.018-0.963-0.404-2.459-2.145-2.459c-1.564,0-2.25,1.41-2.373,2.459
		H201.491z"/>
	<path d="M204.899,68.948c0-0.86-0.018-1.565-0.07-2.253h1.371l0.088,1.376h0.035c0.422-0.791,1.406-1.565,2.813-1.565
		c1.178,0,3.006,0.688,3.006,3.543v4.97h-1.547V70.22c0-1.342-0.51-2.459-1.969-2.459c-1.02,0-1.811,0.705-2.074,1.548
		c-0.07,0.188-0.105,0.447-0.105,0.705v5.004h-1.547V68.948z"/>
	<path d="M215.515,71.131c0.035,2.047,1.371,2.89,2.918,2.89c1.107,0,1.775-0.189,2.355-0.431l0.264,1.084
		c-0.545,0.24-1.477,0.516-2.83,0.516c-2.619,0-4.184-1.686-4.184-4.196s1.512-4.488,3.99-4.488c2.777,0,3.516,2.391,3.516,3.921
		c0,0.31-0.035,0.551-0.053,0.705H215.515z M220.05,70.048c0.018-0.963-0.404-2.459-2.145-2.459c-1.564,0-2.25,1.41-2.373,2.459
		H220.05z"/>
	<path d="M223.459,69.291c0-0.98-0.018-1.823-0.07-2.597h1.354l0.053,1.634h0.07c0.387-1.118,1.318-1.823,2.355-1.823
		c0.176,0,0.299,0.018,0.439,0.052v1.428c-0.158-0.034-0.316-0.052-0.527-0.052c-1.09,0-1.863,0.809-2.074,1.943
		c-0.035,0.206-0.07,0.447-0.07,0.705v4.437h-1.529V69.291z"/>
	<path d="M233.83,75.018l-0.123-1.049h-0.053c-0.475,0.653-1.389,1.238-2.602,1.238c-1.723,0-2.602-1.187-2.602-2.391
		c0-2.012,1.828-3.112,5.115-3.096v-0.172c0-0.688-0.193-1.926-1.934-1.926c-0.791,0-1.617,0.241-2.215,0.619l-0.352-0.997
		c0.703-0.447,1.723-0.74,2.795-0.74c2.602,0,3.234,1.737,3.234,3.405v3.112c0,0.723,0.035,1.428,0.141,1.995H233.83z
		 M233.601,70.77c-1.688-0.034-3.604,0.259-3.604,1.875c0,0.98,0.668,1.444,1.459,1.444c1.107,0,1.811-0.688,2.057-1.393
		c0.053-0.155,0.088-0.327,0.088-0.481V70.77z"/>
	<path d="M237.59,62.808h1.547v12.21h-1.547V62.808z"/>
	<path d="M241.738,68.948c0-0.86-0.018-1.565-0.07-2.253h1.354l0.07,1.342h0.053c0.475-0.791,1.266-1.531,2.672-1.531
		c1.16,0,2.039,0.688,2.408,1.668h0.035c0.264-0.464,0.598-0.825,0.949-1.083c0.51-0.378,1.072-0.585,1.881-0.585
		c1.125,0,2.795,0.723,2.795,3.611v4.901h-1.512v-4.712c0-1.6-0.598-2.563-1.846-2.563c-0.879,0-1.564,0.637-1.828,1.376
		c-0.07,0.206-0.123,0.481-0.123,0.757v5.142h-1.512v-4.987c0-1.324-0.598-2.287-1.775-2.287c-0.967,0-1.67,0.757-1.916,1.514
		c-0.088,0.224-0.123,0.481-0.123,0.739v5.021h-1.512V68.948z"/>
	<path d="M257.257,71.131c0.035,2.047,1.371,2.89,2.918,2.89c1.107,0,1.775-0.189,2.355-0.431l0.264,1.084
		c-0.545,0.24-1.477,0.516-2.83,0.516c-2.619,0-4.184-1.686-4.184-4.196s1.512-4.488,3.99-4.488c2.777,0,3.516,2.391,3.516,3.921
		c0,0.31-0.035,0.551-0.053,0.705H257.257z M261.792,70.048c0.018-0.963-0.404-2.459-2.145-2.459c-1.564,0-2.25,1.41-2.373,2.459
		H261.792z"/>
	<path d="M265.201,68.948c0-0.86-0.018-1.565-0.07-2.253h1.371l0.088,1.376h0.035c0.422-0.791,1.406-1.565,2.813-1.565
		c1.178,0,3.006,0.688,3.006,3.543v4.97h-1.547V70.22c0-1.342-0.51-2.459-1.969-2.459c-1.02,0-1.811,0.705-2.074,1.548
		c-0.07,0.188-0.105,0.447-0.105,0.705v5.004h-1.547V68.948z"/>
	<path d="M276.748,64.304v2.391h2.215v1.152h-2.215v4.488c0,1.031,0.299,1.616,1.16,1.616c0.404,0,0.703-0.052,0.896-0.103
		l0.07,1.135c-0.299,0.12-0.773,0.206-1.371,0.206c-0.721,0-1.301-0.224-1.67-0.636c-0.439-0.447-0.598-1.188-0.598-2.167v-4.54
		h-1.318v-1.152h1.318V64.7L276.748,64.304z"/>
	<path d="M281.458,71.131c0.035,2.047,1.371,2.89,2.918,2.89c1.107,0,1.775-0.189,2.355-0.431l0.264,1.084
		c-0.545,0.24-1.477,0.516-2.83,0.516c-2.619,0-4.184-1.686-4.184-4.196s1.512-4.488,3.99-4.488c2.777,0,3.516,2.391,3.516,3.921
		c0,0.31-0.035,0.551-0.053,0.705H281.458z M285.994,70.048c0.018-0.963-0.404-2.459-2.145-2.459c-1.564,0-2.25,1.41-2.373,2.459
		H285.994z"/>
	<path d="M187.131,91.758c0.035,2.047,1.371,2.89,2.918,2.89c1.107,0,1.775-0.189,2.355-0.431l0.264,1.084
		c-0.545,0.24-1.477,0.516-2.83,0.516c-2.619,0-4.184-1.686-4.184-4.196s1.512-4.488,3.99-4.488c2.777,0,3.516,2.391,3.516,3.921
		c0,0.31-0.035,0.551-0.053,0.705H187.131z M191.666,90.675c0.018-0.963-0.404-2.459-2.145-2.459c-1.564,0-2.25,1.41-2.373,2.459
		H191.666z"/>
	<path d="M194.864,94.097c0.457,0.293,1.266,0.602,2.039,0.602c1.125,0,1.652-0.55,1.652-1.237c0-0.723-0.439-1.118-1.582-1.531
		c-1.529-0.533-2.25-1.358-2.25-2.355c0-1.342,1.107-2.442,2.936-2.442c0.861,0,1.617,0.241,2.092,0.517l-0.387,1.101
		c-0.334-0.207-0.949-0.481-1.74-0.481c-0.914,0-1.424,0.516-1.424,1.135c0,0.688,0.51,0.997,1.617,1.41
		c1.477,0.55,2.232,1.272,2.232,2.511c0,1.462-1.16,2.493-3.182,2.493c-0.932,0-1.793-0.224-2.391-0.567L194.864,94.097z"/>
	<path d="M206.622,91.758c0.035,2.047,1.371,2.89,2.918,2.89c1.107,0,1.775-0.189,2.355-0.431l0.264,1.084
		c-0.545,0.24-1.477,0.516-2.83,0.516c-2.619,0-4.184-1.686-4.184-4.196s1.512-4.488,3.99-4.488c2.777,0,3.516,2.391,3.516,3.921
		c0,0.31-0.035,0.551-0.053,0.705H206.622z M211.157,90.675c0.018-0.963-0.404-2.459-2.145-2.459c-1.564,0-2.25,1.41-2.373,2.459
		H211.157z"/>
	<path d="M214.566,83.435h1.547v12.21h-1.547V83.435z"/>
	<path d="M229.787,83.435v10.061c0,0.739,0.018,1.582,0.07,2.149h-1.389l-0.07-1.444h-0.035c-0.475,0.929-1.512,1.634-2.9,1.634
		c-2.057,0-3.639-1.703-3.639-4.23c-0.018-2.769,1.74-4.472,3.814-4.472c1.301,0,2.18,0.603,2.566,1.272h0.035v-4.97H229.787z
		 M228.24,90.709c0-0.189-0.018-0.447-0.07-0.636c-0.229-0.964-1.072-1.755-2.232-1.755c-1.6,0-2.549,1.376-2.549,3.216
		c0,1.686,0.844,3.078,2.514,3.078c1.037,0,1.986-0.67,2.268-1.806c0.053-0.206,0.07-0.412,0.07-0.653V90.709z"/>
	<path d="M233.213,91.758c0.035,2.047,1.371,2.89,2.918,2.89c1.107,0,1.775-0.189,2.355-0.431l0.264,1.084
		c-0.545,0.24-1.477,0.516-2.83,0.516c-2.619,0-4.184-1.686-4.184-4.196s1.512-4.488,3.99-4.488c2.777,0,3.516,2.391,3.516,3.921
		c0,0.31-0.035,0.551-0.053,0.705H233.213z M237.748,90.675c0.018-0.963-0.404-2.459-2.145-2.459c-1.564,0-2.25,1.41-2.373,2.459
		H237.748z"/>
	<path d="M241.315,95.645v-7.171h-1.195v-1.152h1.195v-0.447c0-2.201,1.318-3.628,3.709-3.628c0.791,0,1.723,0.24,2.162,0.55
		l-0.439,1.152c-0.369-0.258-1.037-0.481-1.793-0.481c-1.635,0-2.109,1.118-2.109,2.441v0.413h4.939v8.323h-1.529v-7.171h-3.41
		v7.171H241.315z"/>
	<path d="M250.35,89.575c0-0.86-0.018-1.565-0.07-2.253h1.371l0.088,1.376h0.035c0.422-0.791,1.406-1.565,2.813-1.565
		c1.178,0,3.006,0.688,3.006,3.543v4.97h-1.547v-4.798c0-1.342-0.51-2.459-1.969-2.459c-1.02,0-1.811,0.705-2.074,1.548
		c-0.07,0.188-0.105,0.447-0.105,0.705v5.004h-1.547V89.575z"/>
	<path d="M261.827,84.983c0.018,0.516-0.369,0.929-0.984,0.929c-0.545,0-0.932-0.413-0.932-0.929c0-0.533,0.404-0.945,0.967-0.945
		C261.457,84.038,261.827,84.45,261.827,84.983z M260.104,95.645v-8.323h1.547v8.323H260.104z"/>
	<path d="M266.08,84.931v2.391h2.215v1.152h-2.215v4.488c0,1.031,0.299,1.616,1.16,1.616c0.404,0,0.703-0.052,0.896-0.103
		l0.07,1.135c-0.299,0.12-0.773,0.206-1.371,0.206c-0.721,0-1.301-0.224-1.67-0.636c-0.439-0.447-0.598-1.188-0.598-2.167v-4.54
		h-1.318v-1.152h1.318v-1.995L266.08,84.931z"/>
	<path d="M271.756,84.983c0.018,0.516-0.369,0.929-0.984,0.929c-0.545,0-0.932-0.413-0.932-0.929c0-0.533,0.404-0.945,0.967-0.945
		C271.387,84.038,271.756,84.45,271.756,84.983z M270.034,95.645v-8.323h1.547v8.323H270.034z"/>
	<path d="M274.744,87.322l1.67,4.678c0.281,0.757,0.51,1.444,0.686,2.132h0.053c0.193-0.688,0.439-1.375,0.721-2.132l1.652-4.678
		h1.617l-3.34,8.323h-1.477l-3.234-8.323H274.744z"/>
	<path d="M290.123,91.414c0,3.078-2.18,4.42-4.236,4.42c-2.303,0-4.078-1.651-4.078-4.282c0-2.786,1.863-4.42,4.219-4.42
		C288.471,87.132,290.123,88.87,290.123,91.414z M283.373,91.5c0,1.823,1.072,3.198,2.584,3.198c1.477,0,2.584-1.358,2.584-3.232
		c0-1.41-0.721-3.198-2.549-3.198S283.373,89.918,283.373,91.5z"/>
	<path d="M291.283,94.75c0-0.636,0.439-1.083,1.055-1.083s1.037,0.447,1.037,1.083c0,0.619-0.404,1.084-1.055,1.084
		C291.705,95.834,291.283,95.37,291.283,94.75z"/>
</g>
<g>
	<g>
		<defs>
			<polygon id="SVGID_3_" points="0.5,0.5 314.75,0.5 314.75,114.755 0.5,114.755 0.5,0.5 			"/>
		</defs>
		<clipPath id="SVGID_4_">
			<use xlink:href="#SVGID_3_"  style="overflow:visible;"/>
		</clipPath>
		<line class="st0" x1="0.5" y1="0.5" x2="314.422" y2="0.5"/>
		<polyline class="st1" points="0.5,0.5 0.5,1.153 314.422,1.153 314.422,0.5 0.5,0.5 		"/>
		<line class="st0" x1="0.5" y1="114.102" x2="314.422" y2="114.102"/>
		<polyline class="st1" points="0.5,114.102 0.5,114.755 314.422,114.755 314.422,114.102 0.5,114.102 		"/>
		<line class="st0" x1="0.5" y1="0.5" x2="0.5" y2="114.755"/>
		<polyline class="st1" points="0.5,0.5 0.5,114.755 0.828,114.755 0.828,0.5 0.5,0.5 		"/>
		<line class="st0" x1="157.133" y1="0.5" x2="157.133" y2="114.755"/>
		<polyline class="st1" points="157.133,0.5 157.133,114.755 157.461,114.755 157.461,0.5 157.133,0.5 		"/>
		<line class="st0" x1="314.422" y1="0.5" x2="314.422" y2="114.755"/>
		<polyline class="st1" points="314.422,0.5 314.422,114.755 314.75,114.755 314.75,0.5 314.422,0.5 		"/>
		
			<use xlink:href="#SVGID_3_"  style="overflow:visible;fill-rule:evenodd;clip-rule:evenodd;fill:none;stroke:#A3BD31;stroke-miterlimit:10;"/>
	</g>
	<g>
		<defs>
			<polygon id="SVGID_2_" points="0.828,1.153 314.75,1.153 314.75,114.755 0.828,114.755 0.828,1.153 			"/>
		</defs>
		<defs>
			<polygon id="SVGID_1_" points="0.828,1.153 314.75,1.153 314.75,114.755 0.828,114.755 0.828,1.153 			"/>
		</defs>
		<clipPath id="SVGID_5_">
			<use xlink:href="#SVGID_2_"  style="overflow:visible;"/>
		</clipPath>
		<clipPath id="SVGID_6_" class="st2">
			<use xlink:href="#SVGID_1_"  style="overflow:visible;"/>
		</clipPath>
		
			<use xlink:href="#SVGID_2_"  style="overflow:visible;fill-rule:evenodd;clip-rule:evenodd;fill:none;stroke:#A3BD31;stroke-miterlimit:10;"/>
		
			<use xlink:href="#SVGID_1_"  style="overflow:visible;fill-rule:evenodd;clip-rule:evenodd;fill:none;stroke:#A3BD31;stroke-miterlimit:10;"/>
	</g>
</g>
</svg>