<!-- Generator: Adobe Illustrator 22.0.0, SVG Export Plug-In  -->
<svg version="1.1"
	 xmlns="http://www.w3.org/2000/svg" xmlns:xlink="http://www.w3.org/1999/xlink" xmlns:a="http://ns.adobe.com/AdobeSVGViewerExtensions/3.0/"
	 x="0px" y="0px" width="188.387px" height="136.386px" viewBox="0 0 188.387 136.386"
	 style="overflow:scroll;enable-background:new 0 0 188.387 136.386;" xml:space="preserve">
<style type="text/css">
	.st0{fill:url(#SVGID_1_);}
	.st1{fill:url(#SVGID_2_);}
	.st2{fill:url(#SVGID_3_);}
	.st3{fill:url(#SVGID_4_);}
	.st4{fill:url(#SVGID_5_);}
	.st5{fill:url(#SVGID_6_);}
	.st6{fill:url(#SVGID_7_);}
	.st7{fill:url(#SVGID_8_);}
	.st8{fill:url(#SVGID_9_);}
	.st9{fill:#FFFFFF;}
	.st10{fill:url(#SVGID_10_);}
	.st11{fill:url(#SVGID_11_);}
	.st12{fill:url(#SVGID_12_);}
	.st13{fill:url(#SVGID_13_);}
	.st14{fill:url(#SVGID_14_);}
	.st15{fill:url(#SVGID_15_);}
	.st16{fill:url(#SVGID_16_);}
	.st17{fill:url(#SVGID_17_);}
	.st18{fill:url(#SVGID_18_);}
	.st19{font-family:'ClarendonBT-Roman';}
	.st20{font-size:39.2376px;}
</style>
<defs>
</defs>
<g>
	<linearGradient id="SVGID_1_" gradientUnits="userSpaceOnUse" x1="177.3799" y1="102.6002" x2="121.2526" y2="46.4729">
		<stop  offset="0" style="stop-color:#C4BEBD"/>
		<stop  offset="1" style="stop-color:#E2DDDD"/>
	</linearGradient>
	<path class="st0" d="M185.544,54.536l-16.187-22.348c-2.796-3.861-7.312-6.165-12.079-6.165h-44.633v74.494h44.636
		c4.764,0,9.277-2.302,12.073-6.158l16.185-22.318C189.334,66.806,189.337,59.771,185.544,54.536z"/>
	<linearGradient id="SVGID_2_" gradientUnits="userSpaceOnUse" x1="140.7105" y1="30.7906" x2="140.7105" y2="3.2021">
		<stop  offset="0" style="stop-color:#FFFFFF"/>
		<stop  offset="1" style="stop-color:#070308"/>
	</linearGradient>
	<path class="st1" d="M168.776,31.48c-2.818-3.422-7.038-5.458-11.498-5.458h-44.633v5.458H168.776z"/>
</g>
<linearGradient id="SVGID_3_" gradientUnits="userSpaceOnUse" x1="112.2318" y1="63.2726" x2="181.3252" y2="63.2726">
	<stop  offset="0" style="stop-color:#BD4B49"/>
	<stop  offset="1" style="stop-color:#B43532"/>
</linearGradient>
<path class="st2" d="M157.43,33.262h-45.198V63.29v29.993h45.201c2.495,0,4.839-1.196,6.304-3.215l16.106-22.209
	c1.977-2.725,1.977-6.413,0.003-9.139l-16.108-22.238C162.272,34.459,159.927,33.262,157.43,33.262z"/>
<radialGradient id="SVGID_4_" cx="73.3262" cy="73.963" r="62.4233" gradientUnits="userSpaceOnUse">
	<stop  offset="0" style="stop-color:#070308"/>
	<stop  offset="1" style="stop-color:#FFFFFF"/>
</radialGradient>
<circle class="st3" cx="73.326" cy="73.963" r="62.423"/>
<linearGradient id="SVGID_5_" gradientUnits="userSpaceOnUse" x1="0" y1="63.2747" x2="126.5492" y2="63.2747">
	<stop  offset="0" style="stop-color:#BD4B49"/>
	<stop  offset="1" style="stop-color:#B43532"/>
</linearGradient>
<circle class="st4" cx="63.275" cy="63.275" r="63.275"/>
<linearGradient id="SVGID_6_" gradientUnits="userSpaceOnUse" x1="12.2948" y1="63.2747" x2="114.2545" y2="63.2747">
	<stop  offset="0" style="stop-color:#E2DDDD"/>
	<stop  offset="1" style="stop-color:#C4BEBD"/>
</linearGradient>
<circle class="st5" cx="63.275" cy="63.275" r="50.98"/>
<radialGradient id="SVGID_7_" cx="64.5185" cy="65.1076" r="55.102" gradientUnits="userSpaceOnUse">
	<stop  offset="0.7955" style="stop-color:#FFFFFF"/>
	<stop  offset="0.8694" style="stop-color:#FEFEFE"/>
	<stop  offset="0.8984" style="stop-color:#F6F6F6"/>
	<stop  offset="0.9195" style="stop-color:#E5E3E4"/>
	<stop  offset="0.9368" style="stop-color:#CCC8CA"/>
	<stop  offset="0.9517" style="stop-color:#AEA7A9"/>
	<stop  offset="0.965" style="stop-color:#8D8586"/>
	<stop  offset="0.9771" style="stop-color:#6B6465"/>
	<stop  offset="0.9883" style="stop-color:#4B4545"/>
	<stop  offset="0.9984" style="stop-color:#2D2929"/>
	<stop  offset="1" style="stop-color:#272324"/>
</radialGradient>
<circle class="st6" cx="63.275" cy="63.275" r="50.98"/>
<radialGradient id="SVGID_8_" cx="68.4579" cy="69.7605" r="38.2706" gradientUnits="userSpaceOnUse">
	<stop  offset="0" style="stop-color:#070308"/>
	<stop  offset="1" style="stop-color:#FFFFFF"/>
</radialGradient>
<circle class="st7" cx="68.458" cy="69.761" r="38.271"/>
<linearGradient id="SVGID_9_" gradientUnits="userSpaceOnUse" x1="32.4412" y1="63.2747" x2="94.1081" y2="63.2747">
	<stop  offset="0" style="stop-color:#BD4B49"/>
	<stop  offset="1" style="stop-color:#B43532"/>
</linearGradient>
<circle class="st8" cx="63.275" cy="63.275" r="30.833"/>
<g>
	<g>
		<path class="st9" d="M40.324,63.655c0-3.742,1.025-6.782,3.075-9.119c2.05-2.338,4.703-3.506,7.96-3.506
			c3.258,0,5.917,1.172,7.98,3.516c2.063,2.344,3.094,5.381,3.094,9.109c0,3.743-1.031,6.779-3.094,9.11
			c-2.063,2.331-4.723,3.497-7.98,3.497c-3.257,0-5.91-1.166-7.96-3.497S40.324,67.398,40.324,63.655z M46.417,63.655
			c0,3.296,0.396,5.71,1.188,7.242c0.792,1.533,2.044,2.3,3.755,2.3c1.712,0,2.97-0.77,3.774-2.309s1.207-3.95,1.207-7.233
			c0-3.282-0.402-5.696-1.207-7.241c-0.805-1.546-2.063-2.318-3.774-2.318c-1.698,0-2.947,0.775-3.745,2.327
			C46.815,57.975,46.417,60.385,46.417,63.655z"/>
		<path class="st9" d="M69.024,71.894c0.702,0.562,1.469,0.98,2.299,1.255s1.725,0.411,2.683,0.411c1.864,0,3.317-0.523,4.358-1.57
			c1.041-1.048,1.562-2.517,1.562-4.407c0-1.941-0.501-3.451-1.504-4.531c-1.003-1.079-2.398-1.618-4.187-1.618
			c-0.983,0-1.881,0.204-2.691,0.613c-0.812,0.408-1.574,1.041-2.29,1.896l-2.663-0.115l1.207-12.722
			c1.29,0.422,2.608,0.738,3.957,0.948c1.347,0.211,2.762,0.316,4.243,0.316c1.533,0,3.005-0.103,4.416-0.307
			s2.762-0.511,4.053-0.92c-0.524,1.903-1.597,3.314-3.219,4.234s-3.832,1.38-6.629,1.38c-0.512,0-1.103-0.029-1.772-0.087
			c-0.671-0.057-1.517-0.156-2.539-0.297l-0.307,3.603c1.022-0.473,2.034-0.827,3.037-1.063s2.002-0.354,2.998-0.354
			c2.811,0,5.122,0.802,6.936,2.404c1.813,1.604,2.721,3.631,2.721,6.083c0,2.849-0.916,5.097-2.749,6.744s-4.346,2.472-7.539,2.472
			c-2.938,0-5.32-0.617-7.146-1.85s-2.739-2.813-2.739-4.741c0-1.009,0.338-1.852,1.015-2.529c0.678-0.677,1.521-1.016,2.529-1.016
			c0.958,0,1.74,0.263,2.347,0.786s0.91,1.207,0.91,2.05c0,0.907-0.297,1.622-0.891,2.146
			C70.835,71.632,70.033,71.894,69.024,71.894z"/>
	</g>
</g>
</svg>