<!-- Generator: Adobe Illustrator 22.0.0, SVG Export Plug-In  -->
<svg version="1.1"
	 xmlns="http://www.w3.org/2000/svg" xmlns:xlink="http://www.w3.org/1999/xlink" xmlns:a="http://ns.adobe.com/AdobeSVGViewerExtensions/3.0/"
	 x="0px" y="0px" width="188.387px" height="136.386px" viewBox="0 0 188.387 136.386"
	 style="overflow:scroll;enable-background:new 0 0 188.387 136.386;" xml:space="preserve">
<style type="text/css">
	.st0{fill:url(#SVGID_1_);}
	.st1{fill:url(#SVGID_2_);}
	.st2{fill:url(#SVGID_3_);}
	.st3{fill:url(#SVGID_4_);}
	.st4{fill:url(#SVGID_5_);}
	.st5{fill:url(#SVGID_6_);}
	.st6{fill:url(#SVGID_7_);}
	.st7{fill:url(#SVGID_8_);}
	.st8{fill:#FFFFFF;}
	.st9{fill:url(#SVGID_9_);}
	.st10{fill:url(#SVGID_10_);}
	.st11{fill:url(#SVGID_11_);}
	.st12{fill:url(#SVGID_12_);}
	.st13{fill:url(#SVGID_13_);}
	.st14{fill:url(#SVGID_14_);}
	.st15{fill:url(#SVGID_15_);}
	.st16{fill:url(#SVGID_16_);}
	.st17{font-family:'ClarendonBT-Roman';}
	.st18{font-size:39.2376px;}
</style>
<defs>
</defs>
<g>
	<linearGradient id="SVGID_1_" gradientUnits="userSpaceOnUse" x1="177.3799" y1="102.6001" x2="121.2525" y2="46.4728">
		<stop  offset="0" style="stop-color:#C4BEBD"/>
		<stop  offset="1" style="stop-color:#E2DDDD"/>
	</linearGradient>
	<path class="st0" d="M185.544,54.535l-16.187-22.347c-2.796-3.861-7.312-6.165-12.079-6.165h-44.633v74.494h44.636
		c4.764,0,9.277-2.302,12.073-6.158l16.185-22.318C189.334,66.806,189.337,59.771,185.544,54.535z"/>
	<linearGradient id="SVGID_2_" gradientUnits="userSpaceOnUse" x1="173.8624" y1="100.6911" x2="102.0076" y2="28.8363">
		<stop  offset="0" style="stop-color:#829C32"/>
		<stop  offset="1" style="stop-color:#A0B940"/>
	</linearGradient>
	<path class="st1" d="M157.43,33.262h-45.198V63.29v29.993h45.201c2.495,0,4.839-1.196,6.304-3.215l16.106-22.209
		c1.977-2.726,1.977-6.413,0.003-9.139l-16.108-22.238C162.272,34.459,159.927,33.262,157.43,33.262z"/>
	<radialGradient id="SVGID_3_" cx="73.3262" cy="73.963" r="62.4233" gradientUnits="userSpaceOnUse">
		<stop  offset="0" style="stop-color:#070308"/>
		<stop  offset="1" style="stop-color:#FFFFFF"/>
	</radialGradient>
	<circle class="st2" cx="73.326" cy="73.963" r="62.423"/>
	<linearGradient id="SVGID_4_" gradientUnits="userSpaceOnUse" x1="122.7927" y1="122.7927" x2="20.467" y2="20.467">
		<stop  offset="0" style="stop-color:#829C32"/>
		<stop  offset="1" style="stop-color:#A0B940"/>
	</linearGradient>
	<circle class="st3" cx="63.275" cy="63.275" r="63.275"/>
	<linearGradient id="SVGID_5_" gradientUnits="userSpaceOnUse" x1="12.2948" y1="63.2747" x2="114.2545" y2="63.2747">
		<stop  offset="0" style="stop-color:#E2DDDD"/>
		<stop  offset="1" style="stop-color:#C4BEBD"/>
	</linearGradient>
	<circle class="st4" cx="63.275" cy="63.275" r="50.98"/>
	<radialGradient id="SVGID_6_" cx="64.5185" cy="65.1076" r="55.102" gradientUnits="userSpaceOnUse">
		<stop  offset="0.7955" style="stop-color:#FFFFFF"/>
		<stop  offset="0.8694" style="stop-color:#FEFEFE"/>
		<stop  offset="0.8984" style="stop-color:#F6F6F6"/>
		<stop  offset="0.9195" style="stop-color:#E5E3E4"/>
		<stop  offset="0.9368" style="stop-color:#CCC8CA"/>
		<stop  offset="0.9517" style="stop-color:#AEA7A9"/>
		<stop  offset="0.965" style="stop-color:#8D8586"/>
		<stop  offset="0.9771" style="stop-color:#6B6465"/>
		<stop  offset="0.9883" style="stop-color:#4B4545"/>
		<stop  offset="0.9984" style="stop-color:#2D2929"/>
		<stop  offset="1" style="stop-color:#272324"/>
	</radialGradient>
	<circle class="st5" cx="63.275" cy="63.275" r="50.98"/>
	<radialGradient id="SVGID_7_" cx="68.4579" cy="69.7605" r="38.2706" gradientUnits="userSpaceOnUse">
		<stop  offset="0" style="stop-color:#070308"/>
		<stop  offset="1" style="stop-color:#FFFFFF"/>
	</radialGradient>
	<circle class="st6" cx="68.458" cy="69.76" r="38.271"/>
	<linearGradient id="SVGID_8_" gradientUnits="userSpaceOnUse" x1="32.4412" y1="63.2747" x2="94.1081" y2="63.2747">
		<stop  offset="0" style="stop-color:#829C32"/>
		<stop  offset="1" style="stop-color:#A0B940"/>
	</linearGradient>
	<circle class="st7" cx="63.275" cy="63.275" r="30.833"/>
	<g>
		<g>
			<path class="st8" d="M40.757,63.599c0-3.742,1.025-6.782,3.075-9.119c2.05-2.338,4.703-3.506,7.96-3.506
				c3.258,0,5.917,1.172,7.98,3.516c2.063,2.344,3.094,5.381,3.094,9.109c0,3.743-1.031,6.779-3.094,9.11
				c-2.063,2.331-4.723,3.497-7.98,3.497c-3.257,0-5.91-1.166-7.96-3.497S40.757,67.343,40.757,63.599z M46.85,63.599
				c0,3.296,0.396,5.71,1.188,7.242c0.792,1.533,2.044,2.3,3.755,2.3c1.712,0,2.97-0.77,3.774-2.309s1.207-3.95,1.207-7.233
				c0-3.282-0.402-5.696-1.207-7.241c-0.805-1.546-2.063-2.318-3.774-2.318c-1.698,0-2.947,0.775-3.745,2.327
				C47.249,57.92,46.85,60.33,46.85,63.599z"/>
			<path class="st8" d="M71.603,72.988c0.485,0.307,0.971,0.533,1.456,0.68c0.485,0.147,1.009,0.221,1.571,0.221
				c1.941,0,3.382-0.744,4.32-2.232c0.938-1.487,1.421-3.79,1.446-6.906c-0.983,0.753-1.986,1.315-3.008,1.686
				c-1.021,0.371-2.114,0.556-3.276,0.556c-2.389,0-4.378-0.731-5.968-2.193c-1.59-1.463-2.386-3.273-2.386-5.432
				c0-2.529,0.913-4.561,2.74-6.093c1.826-1.533,4.26-2.299,7.3-2.299c3.358,0,5.958,1.069,7.798,3.209
				c1.839,2.14,2.759,5.15,2.759,9.033c0,4.062-1.022,7.255-3.065,9.58c-2.044,2.324-4.854,3.486-8.431,3.486
				c-2.222,0-4.052-0.485-5.488-1.456c-1.438-0.971-2.156-2.171-2.156-3.602c0-0.895,0.307-1.622,0.92-2.185
				c0.613-0.562,1.405-0.843,2.376-0.843c0.843,0,1.529,0.239,2.06,0.719c0.53,0.479,0.795,1.089,0.795,1.829
				c0,0.537-0.144,0.99-0.431,1.36C72.647,72.477,72.204,72.77,71.603,72.988z M80.09,58.906c0-1.622-0.367-2.864-1.102-3.727
				s-1.785-1.293-3.151-1.293c-1.354,0-2.392,0.412-3.113,1.235c-0.722,0.824-1.083,2.016-1.083,3.573
				c0,1.597,0.384,2.813,1.15,3.649c0.766,0.837,1.877,1.255,3.333,1.255c1.214,0,2.178-0.421,2.894-1.264
				C79.733,61.492,80.09,60.349,80.09,58.906z"/>
		</g>
	</g>
</g>
</svg>