<!-- Generator: Adobe Illustrator 22.0.0, SVG Export Plug-In  -->
<svg version="1.1"
	 xmlns="http://www.w3.org/2000/svg" xmlns:xlink="http://www.w3.org/1999/xlink" xmlns:a="http://ns.adobe.com/AdobeSVGViewerExtensions/3.0/"
	 x="0px" y="0px" width="132.024px" height="296.613px" viewBox="0 0 132.024 296.613"
	 style="overflow:scroll;enable-background:new 0 0 132.024 296.613;" xml:space="preserve">
<style type="text/css">
	.st0{fill:url(#SVGID_1_);}
	.st1{fill:#FFFFFF;}
	.st2{fill:#434444;}
	.st3{fill:url(#SVGID_2_);}
	.st4{fill:url(#SVGID_3_);}
	.st5{fill:url(#SVGID_4_);}
	.st6{fill:url(#SVGID_5_);}
	.st7{fill:#767676;}
	.st8{fill:url(#SVGID_6_);}
	.st9{font-family:'ClarendonBT-Roman';}
	.st10{font-size:12.4086px;}
	.st11{fill:url(#SVGID_7_);}
	.st12{fill:url(#SVGID_8_);}
	.st13{fill:url(#SVGID_9_);}
	.st14{fill:url(#SVGID_10_);}
	.st15{font-size:12.3696px;}
</style>
<defs>
</defs>
<g>
	<linearGradient id="SVGID_1_" gradientUnits="userSpaceOnUse" x1="66.0078" y1="304.3021" x2="66.0078" y2="278.5949">
		<stop  offset="0" style="stop-color:#8C109F"/>
		<stop  offset="1" style="stop-color:#5518BB"/>
	</linearGradient>
	<path class="st0" d="M13.838,279.528v0.471c0,9.175,7.438,16.613,16.613,16.613h71.113c9.175,0,16.613-7.438,16.613-16.613v-0.471
		H13.838z"/>
	<path class="st1" d="M132.024,134.639v131.59c0,11.609-9.417,21.015-21.026,21.015H21.015C9.406,287.244,0,277.838,0,266.229
		v-131.59H132.024z"/>
	<g>
		<path class="st2" d="M7.739,231.656v-0.945h0.486c0.369,0,0.598-0.043,0.688-0.13s0.134-0.3,0.134-0.64v-4.901
			c0-0.34-0.044-0.553-0.134-0.64s-0.318-0.13-0.688-0.13H7.739v-0.939h8.227v3.314h-0.949c-0.023-0.949-0.18-1.582-0.465-1.899
			c-0.286-0.317-0.865-0.476-1.738-0.476h-2.008v2.557h0.475c0.523,0,0.866-0.09,1.029-0.27c0.162-0.18,0.264-0.593,0.304-1.239
			l0.949-0.006v4.175l-0.949-0.006c-0.036-0.715-0.136-1.177-0.298-1.385s-0.504-0.313-1.023-0.313h-0.486v2.927h2.191
			c0.73,0,1.23-0.169,1.503-0.506c0.271-0.337,0.444-1.029,0.517-2.075h0.949v3.526H7.739z"/>
		<path class="st2" d="M25.648,231.656h-1.763l-4.158-6.786v5.071c0,0.34,0.045,0.553,0.133,0.64c0.09,0.087,0.319,0.13,0.688,0.13
			h0.571v0.945h-4.107v-0.945h0.584c0.369,0,0.6-0.043,0.688-0.13c0.09-0.087,0.135-0.3,0.135-0.64v-4.901
			c0-0.34-0.045-0.553-0.135-0.64c-0.088-0.087-0.318-0.13-0.688-0.13h-0.535v-0.939h3.578l3.7,6.041v-4.332
			c0-0.34-0.044-0.553-0.134-0.64s-0.318-0.13-0.688-0.13h-0.59v-0.939h3.955v0.939h-0.401c-0.374,0-0.606,0.044-0.696,0.133
			c-0.092,0.089-0.138,0.302-0.138,0.637V231.656z"/>
		<path class="st2" d="M34.247,228.432h1.072c-0.082,1.107-0.424,1.963-1.026,2.566s-1.417,0.905-2.443,0.905
			c-0.612,0-1.166-0.095-1.661-0.284c-0.495-0.19-0.938-0.48-1.326-0.873c-0.431-0.424-0.756-0.913-0.977-1.469
			c-0.222-0.556-0.332-1.152-0.332-1.791c0-0.642,0.107-1.23,0.322-1.766s0.539-1.019,0.974-1.451
			c0.394-0.392,0.833-0.688,1.321-0.888c0.486-0.2,1.01-0.3,1.569-0.3c0.446,0,0.867,0.069,1.263,0.209s0.784,0.354,1.166,0.646
			l0.249-0.745h0.901v3.411h-0.963c-0.097-0.796-0.354-1.412-0.77-1.849c-0.416-0.436-0.952-0.654-1.609-0.654
			c-0.767,0-1.368,0.306-1.805,0.915c-0.436,0.61-0.654,1.454-0.654,2.532c0,1.026,0.217,1.819,0.652,2.379
			c0.434,0.56,1.044,0.839,1.831,0.839c0.612,0,1.109-0.199,1.491-0.597C33.874,229.77,34.126,229.192,34.247,228.432z"/>
		<path class="st2" d="M35.532,231.656v-0.945h0.261c0.317,0,0.554-0.056,0.709-0.166c0.156-0.111,0.292-0.324,0.405-0.64
			l2.33-6.574h1.753l2.495,6.574c0.143,0.384,0.273,0.614,0.393,0.69c0.119,0.077,0.326,0.115,0.617,0.115h0.25v0.945h-4.326v-0.945
			h0.675c0.272,0,0.456-0.023,0.551-0.069c0.095-0.047,0.144-0.131,0.144-0.252c0-0.044-0.008-0.095-0.021-0.151
			c-0.015-0.057-0.044-0.142-0.088-0.254l-0.359-0.981h-2.758l-0.358,1.048c-0.009,0.028-0.022,0.07-0.042,0.127
			c-0.041,0.117-0.062,0.2-0.062,0.249c0,0.108,0.04,0.184,0.118,0.224c0.08,0.04,0.266,0.061,0.558,0.061h0.646v0.945H35.532z
			 M40.977,228.02l-1.082-2.878l-0.986,2.878H40.977z"/>
		<path class="st2" d="M48.038,229.941c0,0.336,0.045,0.548,0.137,0.637s0.323,0.133,0.697,0.133h0.584v0.945h-4.485v-0.945h0.487
			c0.369,0,0.598-0.043,0.688-0.13c0.089-0.087,0.133-0.3,0.133-0.64v-4.901c0-0.34-0.044-0.553-0.133-0.64
			c-0.09-0.087-0.318-0.13-0.688-0.13h-0.487v-0.939h4.996c1.047,0,1.823,0.164,2.331,0.491c0.507,0.327,0.761,0.83,0.761,1.509
			c0,0.598-0.202,1.075-0.606,1.433c-0.402,0.357-0.998,0.583-1.785,0.676c0.596,0.089,1.014,0.257,1.25,0.506
			c0.238,0.248,0.377,0.68,0.417,1.293l0.056,0.746c0.02,0.29,0.057,0.48,0.109,0.569s0.14,0.133,0.262,0.133
			c0.242,0,0.373-0.454,0.389-1.363c0-0.016,0-0.028,0-0.036h0.791c0.008,0.053,0.014,0.108,0.016,0.167s0.003,0.143,0.003,0.251
			c0,0.764-0.14,1.321-0.417,1.673c-0.277,0.351-0.717,0.526-1.317,0.526c-0.495,0-0.882-0.135-1.162-0.405
			s-0.429-0.646-0.444-1.127l-0.037-0.976c-0.023-0.65-0.169-1.092-0.435-1.324s-0.771-0.349-1.513-0.349h-0.596V229.941z
			 M48.038,226.779h1.473c0.592,0,1.025-0.101,1.303-0.301c0.275-0.199,0.413-0.518,0.413-0.954c0-0.448-0.132-0.77-0.396-0.963
			c-0.264-0.194-0.719-0.291-1.363-0.291h-1.43V226.779z"/>
		<path class="st2" d="M61.93,231.705l-0.443-0.691c-0.382,0.304-0.779,0.527-1.193,0.673s-0.864,0.218-1.352,0.218
			c-0.571,0-1.104-0.101-1.597-0.303s-0.933-0.499-1.317-0.891c-0.414-0.416-0.728-0.896-0.94-1.442
			c-0.214-0.545-0.319-1.139-0.319-1.781c0-0.642,0.11-1.238,0.332-1.79c0.221-0.552,0.542-1.035,0.964-1.451
			c0.394-0.384,0.835-0.674,1.323-0.869c0.489-0.196,1.02-0.294,1.592-0.294c0.479,0,0.915,0.074,1.309,0.224
			c0.393,0.15,0.763,0.38,1.107,0.691l0.354-0.715h0.882v3.247h-0.962c-0.162-0.768-0.465-1.364-0.906-1.79
			c-0.442-0.427-0.974-0.64-1.595-0.64c-0.742,0-1.333,0.306-1.774,0.915c-0.439,0.61-0.66,1.434-0.66,2.472
			c0,1.055,0.221,1.871,0.66,2.448c0.441,0.578,1.061,0.866,1.859,0.866c0.576,0,1.029-0.134,1.36-0.402s0.496-0.636,0.496-1.1
			v-0.473c0-0.291-0.044-0.478-0.134-0.561s-0.359-0.125-0.81-0.125h-0.529v-0.938h4.431v0.938h-0.542
			c-0.288,0-0.474,0.047-0.557,0.14s-0.125,0.308-0.125,0.643v2.781H61.93z"/>
		<path class="st2" d="M63.975,231.656v-0.945h0.262c0.316,0,0.553-0.056,0.709-0.166c0.156-0.111,0.291-0.324,0.404-0.64
			l2.332-6.574h1.752l2.495,6.574c0.142,0.384,0.272,0.614,0.393,0.69c0.12,0.077,0.325,0.115,0.618,0.115h0.249v0.945h-4.327
			v-0.945h0.676c0.271,0,0.455-0.023,0.551-0.069c0.096-0.047,0.143-0.131,0.143-0.252c0-0.044-0.007-0.095-0.021-0.151
			c-0.014-0.057-0.043-0.142-0.088-0.254l-0.359-0.981h-2.756l-0.359,1.048c-0.008,0.028-0.022,0.07-0.043,0.127
			c-0.04,0.117-0.061,0.2-0.061,0.249c0,0.108,0.039,0.184,0.119,0.224c0.078,0.04,0.264,0.061,0.557,0.061h0.645v0.945H63.975z
			 M69.423,228.02l-1.084-2.878l-0.985,2.878H69.423z"/>
		<path class="st2" d="M73.415,231.656v-0.945h0.486c0.369,0,0.599-0.043,0.688-0.13c0.09-0.087,0.135-0.3,0.135-0.64v-4.901
			c0-0.34-0.045-0.553-0.135-0.64c-0.089-0.087-0.318-0.13-0.688-0.13h-0.486v-0.939h4.746c1.461,0,2.566,0.352,3.314,1.055
			s1.123,1.736,1.123,3.102c0,1.366-0.376,2.401-1.127,3.108c-0.75,0.707-1.854,1.061-3.311,1.061H73.415z M76.481,230.711h1.096
			c0.653,0,1.143-0.051,1.467-0.151s0.604-0.272,0.84-0.515c0.235-0.243,0.421-0.59,0.557-1.042
			c0.137-0.453,0.204-0.958,0.204-1.516c0-0.557-0.067-1.06-0.204-1.508c-0.136-0.449-0.321-0.794-0.557-1.036
			c-0.235-0.243-0.516-0.415-0.84-0.519c-0.324-0.103-0.813-0.154-1.467-0.154h-1.096V230.711z"/>
		<path class="st2" d="M82.841,231.656v-0.945h0.262c0.316,0,0.553-0.056,0.709-0.166c0.156-0.111,0.291-0.324,0.404-0.64
			l2.332-6.574H88.3l2.495,6.574c0.142,0.384,0.272,0.614,0.393,0.69c0.12,0.077,0.325,0.115,0.618,0.115h0.249v0.945h-4.327v-0.945
			h0.676c0.271,0,0.455-0.023,0.551-0.069c0.096-0.047,0.143-0.131,0.143-0.252c0-0.044-0.007-0.095-0.021-0.151
			c-0.014-0.057-0.043-0.142-0.088-0.254l-0.359-0.981h-2.756l-0.359,1.048c-0.008,0.028-0.022,0.07-0.043,0.127
			c-0.04,0.117-0.061,0.2-0.061,0.249c0,0.108,0.039,0.184,0.119,0.224c0.078,0.04,0.264,0.061,0.557,0.061h0.645v0.945H82.841z
			 M88.288,228.02l-1.084-2.878l-0.985,2.878H88.288z"/>
		<path class="st2" d="M96.169,231.656v-0.945h0.486c0.369,0,0.599-0.043,0.688-0.13c0.09-0.087,0.135-0.3,0.135-0.64v-4.901
			c0-0.34-0.045-0.553-0.135-0.64c-0.089-0.087-0.318-0.13-0.688-0.13h-0.486v-0.939h4.746c1.461,0,2.566,0.352,3.314,1.055
			s1.123,1.736,1.123,3.102c0,1.366-0.376,2.401-1.127,3.108c-0.75,0.707-1.854,1.061-3.311,1.061H96.169z M99.235,230.711h1.096
			c0.653,0,1.143-0.051,1.467-0.151s0.604-0.272,0.84-0.515c0.235-0.243,0.421-0.59,0.557-1.042
			c0.137-0.453,0.204-0.958,0.204-1.516c0-0.557-0.067-1.06-0.204-1.508c-0.136-0.449-0.321-0.794-0.557-1.036
			c-0.235-0.243-0.516-0.415-0.84-0.519c-0.324-0.103-0.813-0.154-1.467-0.154h-1.096V230.711z"/>
		<path class="st2" d="M106.277,231.656v-0.945h0.487c0.369,0,0.598-0.043,0.688-0.13c0.089-0.087,0.133-0.3,0.133-0.64v-4.901
			c0-0.34-0.044-0.553-0.133-0.64c-0.09-0.087-0.318-0.13-0.688-0.13h-0.487v-0.939h8.228v3.314h-0.949
			c-0.024-0.949-0.18-1.582-0.465-1.899c-0.287-0.317-0.865-0.476-1.738-0.476h-2.008v2.557h0.475c0.523,0,0.865-0.09,1.028-0.27
			c0.162-0.18,0.264-0.593,0.304-1.239l0.949-0.006v4.175l-0.949-0.006c-0.036-0.715-0.136-1.177-0.298-1.385
			s-0.503-0.313-1.022-0.313h-0.486v2.927h2.19c0.73,0,1.231-0.169,1.503-0.506s0.444-1.029,0.518-2.075h0.949v3.526H106.277z"/>
		<path class="st2" d="M115.685,223.331h4.485v0.939h-0.584c-0.374,0-0.605,0.044-0.697,0.133s-0.137,0.302-0.137,0.637v5.671h1.558
			c0.556,0,0.972-0.047,1.247-0.143c0.276-0.095,0.475-0.253,0.597-0.476c0.118-0.214,0.205-0.475,0.262-0.781
			c0.058-0.307,0.085-0.675,0.085-1.103v-0.151h0.962v3.599h-7.777v-0.945h0.487c0.369,0,0.598-0.043,0.688-0.13
			c0.089-0.087,0.133-0.3,0.133-0.64v-4.901c0-0.34-0.044-0.553-0.133-0.64c-0.09-0.087-0.318-0.13-0.688-0.13h-0.487V223.331z"/>
		<path class="st2" d="M16.082,246.547v-0.945h0.56c0.369,0,0.599-0.043,0.688-0.13c0.09-0.087,0.135-0.3,0.135-0.64v-5.38
			l-2.695,7.095h-0.824l-2.536-7.234v5.52c0,0.34,0.045,0.553,0.134,0.64c0.09,0.087,0.318,0.13,0.688,0.13h0.5v0.945H8.828v-0.945
			h0.45c0.369,0,0.599-0.043,0.688-0.13c0.09-0.087,0.135-0.3,0.135-0.64v-4.901c0-0.34-0.045-0.553-0.135-0.64
			c-0.089-0.087-0.318-0.13-0.688-0.13h-0.45v-0.939h3.889l1.862,5.398l2.075-5.398h3.73v0.939H19.91
			c-0.374,0-0.606,0.044-0.696,0.133c-0.092,0.089-0.138,0.302-0.138,0.637v4.901c0,0.336,0.046,0.548,0.138,0.637
			c0.09,0.089,0.322,0.133,0.696,0.133h0.475v0.945H16.082z"/>
		<path class="st2" d="M21.133,242.378c0-1.316,0.423-2.378,1.269-3.184s1.959-1.209,3.338-1.209c1.384,0,2.496,0.403,3.338,1.209
			s1.264,1.867,1.264,3.184c0,1.321-0.422,2.386-1.266,3.193s-1.956,1.212-3.336,1.212c-1.379,0-2.492-0.405-3.338-1.215
			S21.133,243.695,21.133,242.378z M23.098,242.378c0,1.075,0.233,1.912,0.699,2.512c0.467,0.6,1.114,0.899,1.941,0.899
			c0.828,0,1.475-0.299,1.939-0.896c0.464-0.598,0.696-1.436,0.696-2.515c0-1.074-0.231-1.909-0.694-2.505
			c-0.462-0.596-1.109-0.894-1.941-0.894c-0.827,0-1.475,0.298-1.941,0.894C23.332,240.469,23.098,241.304,23.098,242.378z"/>
		<path class="st2" d="M31.077,246.547v-0.945h0.486c0.369,0,0.599-0.043,0.688-0.13c0.09-0.087,0.135-0.3,0.135-0.64v-4.901
			c0-0.34-0.045-0.553-0.135-0.64c-0.089-0.087-0.318-0.13-0.688-0.13h-0.486v-0.939h4.746c1.461,0,2.566,0.352,3.314,1.055
			s1.123,1.736,1.123,3.102c0,1.366-0.376,2.401-1.127,3.108c-0.75,0.707-1.854,1.061-3.311,1.061H31.077z M34.143,245.601h1.096
			c0.653,0,1.143-0.051,1.467-0.151s0.604-0.272,0.84-0.515c0.235-0.243,0.421-0.59,0.557-1.042
			c0.137-0.453,0.204-0.958,0.204-1.516c0-0.557-0.067-1.06-0.204-1.508c-0.136-0.449-0.321-0.794-0.557-1.036
			c-0.235-0.243-0.516-0.415-0.84-0.519c-0.324-0.103-0.813-0.154-1.467-0.154h-1.096V245.601z"/>
		<path class="st2" d="M41.185,246.547v-0.945h0.487c0.369,0,0.598-0.043,0.688-0.13c0.089-0.087,0.133-0.3,0.133-0.64v-4.901
			c0-0.34-0.044-0.553-0.133-0.64c-0.09-0.087-0.318-0.13-0.688-0.13h-0.487v-0.939h8.228v3.314h-0.949
			c-0.024-0.949-0.18-1.582-0.465-1.899c-0.287-0.317-0.865-0.476-1.738-0.476h-2.008v2.557h0.475c0.523,0,0.865-0.09,1.028-0.27
			c0.162-0.18,0.264-0.593,0.304-1.239l0.949-0.006v4.175l-0.949-0.006c-0.036-0.715-0.136-1.177-0.298-1.385
			s-0.503-0.313-1.022-0.313h-0.486v2.927h2.19c0.73,0,1.231-0.169,1.503-0.506s0.444-1.029,0.518-2.075h0.949v3.526H41.185z"/>
		<path class="st2" d="M50.594,238.221h4.485v0.939h-0.584c-0.374,0-0.605,0.044-0.697,0.133s-0.137,0.302-0.137,0.637v5.671h1.558
			c0.556,0,0.972-0.047,1.247-0.143c0.276-0.095,0.475-0.253,0.597-0.476c0.118-0.214,0.205-0.475,0.262-0.781
			c0.058-0.307,0.085-0.675,0.085-1.103v-0.151h0.962v3.599h-7.777v-0.945h0.487c0.369,0,0.598-0.043,0.688-0.13
			c0.089-0.087,0.133-0.3,0.133-0.64v-4.901c0-0.34-0.044-0.553-0.133-0.64c-0.09-0.087-0.318-0.13-0.688-0.13h-0.487V238.221z"/>
		<path class="st2" d="M58.778,246.547v-0.945h0.262c0.316,0,0.553-0.056,0.709-0.166c0.156-0.111,0.291-0.324,0.404-0.64
			l2.332-6.574h1.752l2.495,6.574c0.142,0.384,0.272,0.614,0.393,0.69c0.12,0.077,0.325,0.115,0.618,0.115h0.249v0.945h-4.327
			v-0.945h0.676c0.271,0,0.455-0.023,0.551-0.069c0.096-0.047,0.143-0.131,0.143-0.252c0-0.044-0.007-0.095-0.021-0.151
			c-0.014-0.057-0.043-0.142-0.088-0.254l-0.359-0.981h-2.756l-0.359,1.048c-0.008,0.028-0.022,0.07-0.043,0.127
			c-0.04,0.117-0.061,0.2-0.061,0.249c0,0.108,0.039,0.184,0.119,0.224c0.078,0.04,0.264,0.061,0.557,0.061h0.645v0.945H58.778z
			 M64.225,242.911l-1.084-2.878l-0.985,2.878H64.225z"/>
		<path class="st2" d="M68.218,246.547v-0.945h0.486c0.369,0,0.599-0.043,0.688-0.13c0.09-0.087,0.135-0.3,0.135-0.64v-4.901
			c0-0.34-0.045-0.553-0.135-0.64c-0.089-0.087-0.318-0.13-0.688-0.13h-0.486v-0.939h4.746c1.461,0,2.566,0.352,3.314,1.055
			s1.123,1.736,1.123,3.102c0,1.366-0.376,2.401-1.127,3.108c-0.75,0.707-1.854,1.061-3.311,1.061H68.218z M71.284,245.601h1.096
			c0.653,0,1.143-0.051,1.467-0.151s0.604-0.272,0.84-0.515c0.235-0.243,0.421-0.59,0.557-1.042
			c0.137-0.453,0.204-0.958,0.204-1.516c0-0.557-0.067-1.06-0.204-1.508c-0.136-0.449-0.321-0.794-0.557-1.036
			c-0.235-0.243-0.516-0.415-0.84-0.519c-0.324-0.103-0.813-0.154-1.467-0.154h-1.096V245.601z"/>
		<path class="st2" d="M78.49,242.378c0-1.316,0.423-2.378,1.269-3.184s1.959-1.209,3.338-1.209c1.384,0,2.496,0.403,3.338,1.209
			s1.264,1.867,1.264,3.184c0,1.321-0.422,2.386-1.266,3.193s-1.956,1.212-3.336,1.212c-1.379,0-2.492-0.405-3.338-1.215
			S78.49,243.695,78.49,242.378z M80.456,242.378c0,1.075,0.233,1.912,0.699,2.512c0.467,0.6,1.114,0.899,1.941,0.899
			c0.828,0,1.475-0.299,1.939-0.896c0.464-0.598,0.696-1.436,0.696-2.515c0-1.074-0.231-1.909-0.694-2.505
			c-0.462-0.596-1.109-0.894-1.941-0.894c-0.827,0-1.475,0.298-1.941,0.894C80.689,240.469,80.456,241.304,80.456,242.378z"/>
		<path class="st2" d="M93.704,245.304c0.215,0.202,0.459,0.353,0.733,0.451c0.274,0.1,0.583,0.148,0.928,0.148
			c0.556,0,0.996-0.133,1.321-0.399c0.324-0.267,0.486-0.626,0.486-1.079c0-0.488-0.151-0.853-0.453-1.093
			c-0.303-0.24-0.762-0.361-1.379-0.361h-0.236v-0.902h0.121c0.629,0,1.092-0.099,1.387-0.297c0.297-0.198,0.445-0.505,0.445-0.921
			c0-0.384-0.139-0.692-0.414-0.927s-0.645-0.352-1.107-0.352c-0.268,0-0.516,0.037-0.742,0.112
			c-0.229,0.074-0.445,0.19-0.652,0.348c0.24,0.024,0.427,0.108,0.561,0.252s0.201,0.332,0.201,0.566
			c0,0.255-0.092,0.465-0.274,0.63c-0.183,0.166-0.42,0.249-0.712,0.249c-0.296,0-0.541-0.096-0.733-0.285s-0.289-0.435-0.289-0.733
			c0-0.541,0.284-0.998,0.853-1.372c0.567-0.374,1.289-0.561,2.166-0.561c0.885,0,1.596,0.178,2.133,0.533s0.807,0.818,0.807,1.388
			c0,0.477-0.153,0.86-0.459,1.151c-0.307,0.29-0.776,0.499-1.409,0.624c0.677,0.117,1.193,0.343,1.549,0.679
			c0.354,0.335,0.532,0.763,0.532,1.284c0,0.703-0.311,1.266-0.932,1.688c-0.62,0.422-1.456,0.633-2.507,0.633
			c-0.88,0-1.602-0.199-2.163-0.597c-0.563-0.397-0.844-0.897-0.844-1.5c0-0.359,0.107-0.649,0.32-0.872
			c0.213-0.222,0.49-0.333,0.83-0.333c0.289,0,0.521,0.087,0.7,0.261c0.179,0.173,0.269,0.401,0.269,0.685
			c0,0.271-0.087,0.488-0.26,0.654c-0.172,0.165-0.4,0.248-0.684,0.248H93.704z"/>
		<path class="st2" d="M100.112,246.547v-0.945h0.486c0.369,0,0.599-0.043,0.688-0.13c0.09-0.087,0.135-0.3,0.135-0.64v-4.901
			c0-0.34-0.045-0.553-0.135-0.64c-0.089-0.087-0.318-0.13-0.688-0.13h-0.486v-0.939h4.746c1.461,0,2.566,0.352,3.314,1.055
			s1.123,1.736,1.123,3.102c0,1.366-0.376,2.401-1.127,3.108c-0.75,0.707-1.854,1.061-3.311,1.061H100.112z M103.179,245.601h1.096
			c0.653,0,1.143-0.051,1.467-0.151s0.604-0.272,0.84-0.515c0.235-0.243,0.421-0.59,0.557-1.042
			c0.137-0.453,0.204-0.958,0.204-1.516c0-0.557-0.067-1.06-0.204-1.508c-0.136-0.449-0.321-0.794-0.557-1.036
			c-0.235-0.243-0.516-0.415-0.84-0.519c-0.324-0.103-0.813-0.154-1.467-0.154h-1.096V245.601z"/>
		<path class="st2" d="M119.27,244.832c0,0.336,0.045,0.548,0.137,0.637c0.091,0.089,0.323,0.133,0.696,0.133h0.724v0.945h-4.861
			v-0.945h0.724c0.369,0,0.599-0.043,0.688-0.13c0.088-0.087,0.133-0.3,0.133-0.64v-1.769l-2.068-3.042
			c-0.219-0.323-0.418-0.547-0.597-0.673c-0.179-0.125-0.382-0.188-0.608-0.188h-0.414v-0.939h4.424v0.939h-0.607
			c-0.191,0-0.33,0.021-0.418,0.063c-0.087,0.043-0.131,0.108-0.131,0.197c0,0.057,0.015,0.118,0.043,0.185s0.07,0.143,0.128,0.228
			l1.411,1.95l1.492-2.023c0.061-0.085,0.104-0.154,0.127-0.209c0.024-0.055,0.037-0.11,0.037-0.167
			c0-0.072-0.039-0.128-0.115-0.166c-0.078-0.038-0.189-0.058-0.336-0.058h-0.736v-0.939h3.877v0.939h-0.286
			c-0.219,0-0.396,0.037-0.532,0.112c-0.137,0.074-0.281,0.221-0.436,0.439l-2.494,3.351V244.832z"/>
		<path class="st2" d="M17.881,261.436v-0.945h0.487c0.369,0,0.598-0.043,0.688-0.13c0.089-0.087,0.133-0.3,0.133-0.64v-4.901
			c0-0.34-0.044-0.553-0.133-0.64c-0.09-0.087-0.318-0.13-0.688-0.13h-0.487v-0.939h4.825c1.047,0,1.824,0.17,2.332,0.509
			c0.506,0.34,0.76,0.86,0.76,1.563c0,0.484-0.137,0.876-0.41,1.173c-0.274,0.297-0.699,0.518-1.275,0.663
			c0.678,0.138,1.184,0.384,1.519,0.739s0.502,0.828,0.502,1.418c0,0.812-0.278,1.392-0.833,1.738
			c-0.557,0.348-1.5,0.521-2.83,0.521H17.881z M20.948,256.643h1.199c0.677,0,1.162-0.1,1.453-0.3
			c0.293-0.199,0.439-0.53,0.439-0.99c0-0.461-0.135-0.791-0.402-0.991c-0.268-0.199-0.721-0.3-1.357-0.3h-1.332V256.643z
			 M20.948,260.504h1.381c0.715,0,1.224-0.113,1.527-0.34c0.305-0.227,0.457-0.6,0.457-1.121c0-0.521-0.158-0.892-0.472-1.111
			c-0.314-0.221-0.854-0.33-1.622-0.33h-1.271V260.504z"/>
		<path class="st2" d="M27.374,257.267c0-1.316,0.423-2.378,1.27-3.184c0.846-0.806,1.958-1.209,3.338-1.209
			c1.383,0,2.496,0.403,3.338,1.209s1.262,1.867,1.262,3.184c0,1.321-0.422,2.386-1.266,3.193s-1.955,1.212-3.334,1.212
			c-1.38,0-2.492-0.405-3.338-1.215C27.797,259.648,27.374,258.585,27.374,257.267z M29.34,257.267c0,1.075,0.233,1.912,0.7,2.512
			s1.113,0.899,1.941,0.899c0.827,0,1.473-0.299,1.938-0.896s0.697-1.436,0.697-2.515c0-1.074-0.231-1.909-0.693-2.505
			c-0.463-0.596-1.11-0.894-1.941-0.894c-0.828,0-1.475,0.298-1.941,0.894S29.34,256.193,29.34,257.267z"/>
		<path class="st2" d="M44.177,258.213h1.071c-0.081,1.107-0.423,1.963-1.026,2.566c-0.602,0.604-1.416,0.905-2.443,0.905
			c-0.611,0-1.166-0.095-1.66-0.284c-0.496-0.19-0.938-0.48-1.327-0.873c-0.431-0.424-0.756-0.913-0.977-1.469
			c-0.222-0.556-0.332-1.152-0.332-1.791c0-0.642,0.107-1.23,0.323-1.766c0.215-0.535,0.539-1.019,0.973-1.451
			c0.395-0.392,0.834-0.688,1.321-0.888s1.01-0.3,1.569-0.3c0.447,0,0.867,0.069,1.264,0.209c0.395,0.14,0.783,0.354,1.165,0.646
			l0.249-0.745h0.901v3.411h-0.962c-0.098-0.796-0.354-1.412-0.77-1.849c-0.416-0.436-0.953-0.654-1.609-0.654
			c-0.768,0-1.369,0.306-1.805,0.915c-0.437,0.61-0.654,1.454-0.654,2.532c0,1.026,0.217,1.819,0.651,2.379s1.044,0.839,1.831,0.839
			c0.613,0,1.109-0.199,1.492-0.597C43.804,259.551,44.055,258.972,44.177,258.213z"/>
		<path class="st2" d="M46.142,261.436v-0.945h0.487c0.369,0,0.598-0.043,0.688-0.13c0.089-0.087,0.133-0.3,0.133-0.64v-4.901
			c0-0.34-0.044-0.553-0.133-0.64c-0.09-0.087-0.318-0.13-0.688-0.13h-0.487v-0.939h8.228v3.314h-0.949
			c-0.024-0.949-0.18-1.582-0.465-1.899c-0.287-0.317-0.865-0.476-1.738-0.476H49.21v2.557h0.475c0.523,0,0.865-0.09,1.028-0.27
			c0.162-0.18,0.264-0.593,0.304-1.239l0.949-0.006v4.175l-0.949-0.006c-0.036-0.715-0.136-1.177-0.298-1.385
			s-0.503-0.313-1.022-0.313H49.21v2.927h2.19c0.73,0,1.231-0.169,1.503-0.506s0.444-1.029,0.518-2.075h0.949v3.526H46.142z"/>
		<path class="st2" d="M58.605,254.026h-0.164c-0.669,0-1.156,0.199-1.46,0.597c-0.305,0.398-0.463,1.043-0.475,1.937h-0.956v-3.448
			h7.874v3.448H62.47c-0.008-0.881-0.164-1.523-0.469-1.927c-0.304-0.404-0.789-0.606-1.454-0.606h-0.183v5.695
			c0,0.336,0.046,0.548,0.137,0.637c0.092,0.089,0.324,0.133,0.697,0.133h0.712v0.945h-4.851v-0.945h0.725
			c0.369,0,0.598-0.043,0.688-0.13s0.134-0.3,0.134-0.64V254.026z"/>
		<path class="st2" d="M64.168,257.267c0-1.316,0.423-2.378,1.269-3.184s1.959-1.209,3.338-1.209c1.384,0,2.496,0.403,3.338,1.209
			s1.264,1.867,1.264,3.184c0,1.321-0.422,2.386-1.266,3.193s-1.956,1.212-3.336,1.212c-1.379,0-2.492-0.405-3.338-1.215
			S64.168,258.585,64.168,257.267z M66.134,257.267c0,1.075,0.233,1.912,0.699,2.512c0.467,0.6,1.114,0.899,1.941,0.899
			c0.828,0,1.475-0.299,1.939-0.896c0.464-0.598,0.696-1.436,0.696-2.515c0-1.074-0.231-1.909-0.694-2.505
			c-0.462-0.596-1.109-0.894-1.941-0.894c-0.827,0-1.475,0.298-1.941,0.894C66.367,255.358,66.134,256.193,66.134,257.267z"/>
		<path class="st2" d="M74.374,261.436v-3.436h0.973c0.135,0.828,0.442,1.461,0.926,1.899c0.482,0.438,1.109,0.657,1.88,0.657
			c0.556,0,0.981-0.093,1.275-0.278s0.44-0.454,0.44-0.806c0-0.315-0.111-0.571-0.338-0.77c-0.225-0.198-0.584-0.354-1.08-0.467
			l-1.356-0.315c-0.974-0.226-1.675-0.531-2.103-0.917s-0.643-0.902-0.643-1.549c0-0.783,0.274-1.411,0.822-1.884
			c0.547-0.473,1.279-0.709,2.197-0.709c0.453,0,0.879,0.069,1.274,0.209s0.78,0.354,1.153,0.646l0.438-0.606h0.749v3.151h-0.949
			c-0.142-0.756-0.441-1.342-0.897-1.758c-0.457-0.416-1.029-0.624-1.72-0.624c-0.503,0-0.893,0.094-1.169,0.282
			c-0.275,0.188-0.413,0.449-0.413,0.784c0,0.283,0.097,0.509,0.292,0.679s0.508,0.303,0.938,0.4l1.686,0.388
			c0.893,0.201,1.561,0.518,2.002,0.948c0.442,0.43,0.664,0.979,0.664,1.645c0,0.788-0.291,1.431-0.871,1.93
			s-1.332,0.748-2.258,0.748c-0.467,0-0.929-0.084-1.387-0.254c-0.459-0.17-0.924-0.429-1.395-0.775l-0.273,0.781H74.374z"/>
		<path class="st2" d="M86.028,261.436v-0.945h0.486c0.369,0,0.598-0.043,0.688-0.13s0.134-0.3,0.134-0.64v-4.901
			c0-0.34-0.044-0.553-0.134-0.64s-0.318-0.13-0.688-0.13h-0.486v-0.939h4.746c1.461,0,2.565,0.352,3.314,1.055
			c0.748,0.703,1.122,1.736,1.122,3.102c0,1.366-0.376,2.401-1.126,3.108s-1.854,1.061-3.311,1.061H86.028z M89.095,260.491h1.096
			c0.652,0,1.143-0.051,1.467-0.151s0.604-0.272,0.84-0.515c0.234-0.243,0.42-0.59,0.557-1.042c0.136-0.453,0.203-0.958,0.203-1.516
			c0-0.557-0.067-1.06-0.203-1.508c-0.137-0.449-0.322-0.794-0.557-1.036c-0.236-0.243-0.516-0.415-0.84-0.519
			c-0.324-0.103-0.814-0.154-1.467-0.154h-1.096V260.491z"/>
		<path class="st2" d="M96.136,261.436v-0.945h0.486c0.369,0,0.599-0.043,0.688-0.13c0.09-0.087,0.135-0.3,0.135-0.64v-4.901
			c0-0.34-0.045-0.553-0.135-0.64c-0.089-0.087-0.318-0.13-0.688-0.13h-0.486v-0.939h8.228v3.314h-0.949
			c-0.024-0.949-0.18-1.582-0.466-1.899c-0.285-0.317-0.865-0.476-1.737-0.476h-2.009v2.557h0.475c0.523,0,0.867-0.09,1.029-0.27
			s0.264-0.593,0.305-1.239l0.949-0.006v4.175l-0.949-0.006c-0.037-0.715-0.137-1.177-0.299-1.385s-0.503-0.313-1.022-0.313h-0.487
			v2.927h2.191c0.73,0,1.231-0.169,1.504-0.506c0.271-0.337,0.443-1.029,0.517-2.075h0.949v3.526H96.136z"/>
		<path class="st2" d="M105.544,253.111h4.485v0.939h-0.584c-0.374,0-0.605,0.044-0.696,0.133c-0.092,0.089-0.138,0.302-0.138,0.637
			v5.671h1.558c0.557,0,0.973-0.047,1.248-0.143c0.275-0.095,0.475-0.253,0.596-0.476c0.118-0.214,0.205-0.475,0.262-0.781
			c0.058-0.307,0.086-0.675,0.086-1.103v-0.151h0.961v3.599h-7.777v-0.945h0.487c0.369,0,0.599-0.043,0.688-0.13
			s0.134-0.3,0.134-0.64v-4.901c0-0.34-0.045-0.553-0.134-0.64s-0.318-0.13-0.688-0.13h-0.487V253.111z"/>
		<path class="st2" d="M29.565,274.612c0,0.336,0.045,0.548,0.137,0.637s0.323,0.133,0.697,0.133h0.584v0.945h-4.485v-0.945h0.487
			c0.369,0,0.598-0.043,0.688-0.13c0.089-0.087,0.133-0.3,0.133-0.64v-4.901c0-0.34-0.044-0.553-0.133-0.64
			c-0.09-0.087-0.318-0.13-0.688-0.13h-0.487v-0.939h4.399c1.129,0,1.979,0.192,2.553,0.576s0.861,0.953,0.861,1.708
			c0,0.412-0.078,0.771-0.234,1.079c-0.156,0.307-0.393,0.567-0.709,0.781c-0.227,0.149-0.543,0.257-0.949,0.321
			c-0.405,0.064-0.971,0.097-1.697,0.097h-1.156V274.612z M29.565,271.625h0.834c0.766,0,1.305-0.102,1.615-0.306
			s0.465-0.548,0.465-1.033c0-0.496-0.148-0.845-0.447-1.045c-0.297-0.2-0.875-0.3-1.73-0.3h-0.736V271.625z"/>
		<path class="st2" d="M38.102,274.612c0,0.336,0.047,0.548,0.138,0.637s0.323,0.133,0.696,0.133h0.584v0.945h-4.484v-0.945h0.486
			c0.369,0,0.599-0.043,0.688-0.13c0.09-0.087,0.135-0.3,0.135-0.64v-4.901c0-0.34-0.045-0.553-0.135-0.64
			c-0.089-0.087-0.318-0.13-0.688-0.13h-0.486v-0.939h4.996c1.047,0,1.824,0.164,2.331,0.491s0.761,0.83,0.761,1.509
			c0,0.598-0.202,1.075-0.605,1.433c-0.404,0.357-1,0.583-1.787,0.676c0.598,0.089,1.014,0.257,1.252,0.506
			c0.236,0.248,0.375,0.68,0.416,1.293l0.055,0.746c0.021,0.29,0.057,0.48,0.109,0.569s0.141,0.133,0.262,0.133
			c0.244,0,0.373-0.454,0.391-1.363c0-0.016,0-0.028,0-0.036h0.791c0.008,0.053,0.013,0.108,0.015,0.167s0.003,0.143,0.003,0.251
			c0,0.764-0.139,1.321-0.417,1.673c-0.278,0.351-0.717,0.526-1.317,0.526c-0.495,0-0.883-0.135-1.162-0.405
			c-0.28-0.271-0.428-0.646-0.444-1.127l-0.036-0.976c-0.025-0.65-0.17-1.092-0.436-1.324s-0.77-0.349-1.512-0.349h-0.598V274.612z
			 M38.102,271.45h1.473c0.593,0,1.027-0.101,1.303-0.301c0.276-0.199,0.414-0.518,0.414-0.954c0-0.448-0.132-0.77-0.396-0.963
			c-0.264-0.194-0.718-0.291-1.363-0.291h-1.431V271.45z"/>
		<path class="st2" d="M44.834,272.158c0-1.316,0.423-2.378,1.269-3.184s1.959-1.209,3.338-1.209c1.384,0,2.496,0.403,3.338,1.209
			s1.264,1.867,1.264,3.184c0,1.321-0.422,2.386-1.266,3.193s-1.956,1.212-3.336,1.212c-1.379,0-2.492-0.405-3.338-1.215
			S44.834,273.475,44.834,272.158z M46.8,272.158c0,1.075,0.233,1.912,0.699,2.512c0.467,0.6,1.114,0.899,1.941,0.899
			c0.828,0,1.475-0.299,1.939-0.896c0.464-0.598,0.696-1.436,0.696-2.515c0-1.074-0.231-1.909-0.694-2.505
			c-0.462-0.596-1.109-0.894-1.941-0.894c-0.827,0-1.475,0.298-1.941,0.894C47.033,270.249,46.8,271.084,46.8,272.158z"/>
		<path class="st2" d="M57.833,268.917h-0.164c-0.67,0-1.156,0.199-1.461,0.597c-0.305,0.398-0.463,1.043-0.475,1.937h-0.955v-3.448
			h7.874v3.448h-0.955c-0.009-0.881-0.165-1.523-0.469-1.927c-0.304-0.404-0.789-0.606-1.454-0.606h-0.184v5.695
			c0,0.336,0.047,0.548,0.138,0.637s0.323,0.133,0.696,0.133h0.713v0.945h-4.851v-0.945h0.724c0.369,0,0.599-0.043,0.688-0.13
			c0.09-0.087,0.135-0.3,0.135-0.64V268.917z"/>
		<path class="st2" d="M63.395,272.158c0-1.316,0.422-2.378,1.269-3.184c0.846-0.806,1.958-1.209,3.338-1.209
			c1.384,0,2.496,0.403,3.338,1.209s1.263,1.867,1.263,3.184c0,1.321-0.422,2.386-1.266,3.193s-1.955,1.212-3.335,1.212
			s-2.492-0.405-3.338-1.215C63.817,274.539,63.395,273.475,63.395,272.158z M65.36,272.158c0,1.075,0.234,1.912,0.7,2.512
			c0.467,0.6,1.114,0.899,1.941,0.899s1.474-0.299,1.938-0.896s0.697-1.436,0.697-2.515c0-1.074-0.232-1.909-0.694-2.505
			s-1.11-0.894-1.941-0.894c-0.827,0-1.475,0.298-1.941,0.894C65.595,270.249,65.36,271.084,65.36,272.158z"/>
		<path class="st2" d="M76.393,268.917h-0.164c-0.67,0-1.156,0.199-1.461,0.597c-0.304,0.398-0.463,1.043-0.475,1.937h-0.955v-3.448
			h7.875v3.448h-0.955c-0.009-0.881-0.165-1.523-0.469-1.927c-0.305-0.404-0.789-0.606-1.455-0.606h-0.183v5.695
			c0,0.336,0.046,0.548,0.138,0.637c0.091,0.089,0.322,0.133,0.696,0.133h0.712v0.945h-4.85v-0.945h0.724
			c0.369,0,0.599-0.043,0.688-0.13s0.134-0.3,0.134-0.64V268.917z"/>
		<path class="st2" d="M81.816,276.327v-0.945h0.535c0.369,0,0.599-0.043,0.688-0.13c0.088-0.087,0.133-0.3,0.133-0.64v-4.901
			c0-0.34-0.045-0.553-0.133-0.64c-0.09-0.087-0.319-0.13-0.688-0.13h-0.535v-0.939h4.515v0.939h-0.535
			c-0.373,0-0.604,0.043-0.693,0.13s-0.134,0.3-0.134,0.64v4.901c0,0.34,0.044,0.553,0.134,0.64s0.32,0.13,0.693,0.13h0.535v0.945
			H81.816z"/>
		<path class="st2" d="M89.995,274.612c0,0.336,0.046,0.548,0.137,0.637c0.092,0.089,0.324,0.133,0.697,0.133h0.584v0.945h-4.484
			v-0.945h0.486c0.369,0,0.598-0.043,0.688-0.13s0.134-0.3,0.134-0.64v-4.901c0-0.34-0.044-0.553-0.134-0.64s-0.318-0.13-0.688-0.13
			h-0.486v-0.939h4.399c1.128,0,1.979,0.192,2.553,0.576s0.861,0.953,0.861,1.708c0,0.412-0.078,0.771-0.234,1.079
			c-0.156,0.307-0.393,0.567-0.709,0.781c-0.228,0.149-0.544,0.257-0.949,0.321s-0.972,0.097-1.698,0.097h-1.156V274.612z
			 M89.995,271.625h0.834c0.767,0,1.305-0.102,1.615-0.306s0.466-0.548,0.466-1.033c0-0.496-0.149-0.845-0.447-1.045
			s-0.876-0.3-1.731-0.3h-0.736V271.625z"/>
		<path class="st2" d="M95.63,272.158c0-1.316,0.424-2.378,1.27-3.184s1.959-1.209,3.338-1.209c1.383,0,2.496,0.403,3.338,1.209
			s1.263,1.867,1.263,3.184c0,1.321-0.422,2.386-1.266,3.193s-1.956,1.212-3.335,1.212s-2.492-0.405-3.338-1.215
			S95.63,273.475,95.63,272.158z M97.596,272.158c0,1.075,0.232,1.912,0.699,2.512s1.113,0.899,1.941,0.899s1.474-0.299,1.938-0.896
			c0.464-0.598,0.696-1.436,0.696-2.515c0-1.074-0.23-1.909-0.693-2.505s-1.109-0.894-1.941-0.894c-0.828,0-1.475,0.298-1.941,0.894
			S97.596,271.084,97.596,272.158z"/>
	</g>
	<g>
		<g>
			<linearGradient id="SVGID_2_" gradientUnits="userSpaceOnUse" x1="129.9604" y1="184.9127" x2="39.1211" y2="94.0734">
				<stop  offset="0" style="stop-color:#5518BB"/>
				<stop  offset="1" style="stop-color:#8C109F"/>
			</linearGradient>
			<path class="st3" d="M66.011,68.624C29.554,68.624,0,98.178,0,134.634h132.022C132.022,98.178,102.468,68.624,66.011,68.624z"/>
		</g>
		<radialGradient id="SVGID_3_" cx="82.6473" cy="151.3374" r="47.8102" gradientUnits="userSpaceOnUse">
			<stop  offset="0" style="stop-color:#000000"/>
			<stop  offset="0.1832" style="stop-color:#333333"/>
			<stop  offset="0.5888" style="stop-color:#A0A0A0"/>
			<stop  offset="0.8695" style="stop-color:#E4E4E4"/>
			<stop  offset="1" style="stop-color:#FFFFFF"/>
		</radialGradient>
		<circle class="st4" cx="82.647" cy="151.337" r="47.81"/>
		<circle class="st1" cx="66.011" cy="134.634" r="48.901"/>
		<radialGradient id="SVGID_4_" cx="71.502" cy="141.317" r="38.9231" gradientUnits="userSpaceOnUse">
			<stop  offset="0" style="stop-color:#000000"/>
			<stop  offset="0.1832" style="stop-color:#333333"/>
			<stop  offset="0.5888" style="stop-color:#A0A0A0"/>
			<stop  offset="0.8695" style="stop-color:#E4E4E4"/>
			<stop  offset="1" style="stop-color:#FFFFFF"/>
		</radialGradient>
		<circle class="st5" cx="71.502" cy="141.317" r="38.923"/>
		<linearGradient id="SVGID_5_" gradientUnits="userSpaceOnUse" x1="93.5915" y1="162.2152" x2="25.4618" y2="94.0854">
			<stop  offset="0" style="stop-color:#5518BB"/>
			<stop  offset="1" style="stop-color:#8C109F"/>
		</linearGradient>
		<circle class="st6" cx="66.011" cy="134.634" r="35.044"/>
		<g>
			<g>
				<path class="st1" d="M37.228,134.461v-0.942h0.26c0.313,0,0.549-0.055,0.704-0.166c0.154-0.111,0.289-0.323,0.401-0.637
					l2.313-6.553h1.739l2.476,6.553c0.142,0.383,0.271,0.612,0.391,0.688c0.118,0.077,0.322,0.115,0.613,0.115h0.247v0.942h-4.294
					v-0.942h0.67c0.27,0,0.452-0.023,0.547-0.069c0.094-0.046,0.142-0.13,0.142-0.25c0-0.044-0.007-0.095-0.021-0.151
					c-0.015-0.057-0.044-0.141-0.088-0.254l-0.356-0.979h-2.736l-0.356,1.045c-0.008,0.028-0.021,0.07-0.042,0.127
					c-0.04,0.117-0.061,0.199-0.061,0.248c0,0.109,0.04,0.183,0.118,0.224c0.078,0.04,0.263,0.06,0.553,0.06h0.64v0.942H37.228z
					 M42.634,130.837l-1.074-2.869l-0.979,2.869H42.634z"/>
				<path class="st1" d="M55.034,134.461h-1.749l-4.128-6.765v5.055c0,0.338,0.045,0.551,0.133,0.637
					c0.088,0.087,0.316,0.13,0.683,0.13h0.567v0.942h-4.076v-0.942h0.58c0.365,0,0.594-0.043,0.682-0.13
					c0.089-0.086,0.133-0.299,0.133-0.637v-4.886c0-0.338-0.044-0.55-0.133-0.637c-0.088-0.086-0.316-0.13-0.682-0.13h-0.532v-0.936
					h3.552l3.672,6.022v-4.319c0-0.338-0.045-0.55-0.133-0.637c-0.088-0.086-0.316-0.13-0.683-0.13h-0.586v-0.936h3.927v0.936
					h-0.399c-0.37,0-0.601,0.044-0.691,0.133c-0.091,0.088-0.136,0.3-0.136,0.634V134.461z"/>
				<path class="st1" d="M56.761,134.461v-0.942h0.484c0.365,0,0.594-0.043,0.682-0.13c0.089-0.086,0.133-0.299,0.133-0.637v-4.886
					c0-0.338-0.044-0.55-0.133-0.637c-0.088-0.086-0.316-0.13-0.682-0.13h-0.484v-0.936h4.712c1.449,0,2.546,0.351,3.288,1.051
					c0.743,0.7,1.115,1.731,1.115,3.092s-0.373,2.394-1.117,3.098c-0.746,0.705-1.841,1.057-3.286,1.057H56.761z M59.805,133.519
					h1.087c0.648,0,1.134-0.05,1.456-0.151s0.6-0.272,0.833-0.513c0.233-0.242,0.418-0.588,0.553-1.039
					c0.135-0.451,0.202-0.954,0.202-1.51s-0.067-1.057-0.202-1.504c-0.135-0.447-0.319-0.792-0.553-1.033
					c-0.233-0.242-0.511-0.414-0.833-0.517s-0.808-0.154-1.456-0.154h-1.087V133.519z"/>
				<path class="st1" d="M69.838,132.752c0,0.334,0.045,0.546,0.136,0.634c0.09,0.089,0.32,0.133,0.691,0.133h0.58v0.942h-4.451
					v-0.942h0.482c0.367,0,0.594-0.043,0.684-0.13c0.088-0.086,0.133-0.299,0.133-0.637v-4.886c0-0.338-0.045-0.55-0.133-0.637
					c-0.09-0.086-0.316-0.13-0.684-0.13h-0.482v-0.936h4.959c1.038,0,1.809,0.163,2.313,0.489s0.756,0.828,0.756,1.504
					c0,0.596-0.201,1.072-0.602,1.429c-0.4,0.356-0.992,0.581-1.773,0.673c0.593,0.088,1.006,0.256,1.242,0.504
					c0.235,0.248,0.373,0.677,0.414,1.29l0.054,0.743c0.021,0.29,0.056,0.479,0.108,0.568c0.053,0.088,0.139,0.133,0.26,0.133
					c0.242,0,0.371-0.453,0.387-1.359c0-0.016,0-0.028,0-0.037h0.785c0.008,0.053,0.014,0.108,0.016,0.167
					c0.002,0.058,0.002,0.142,0.002,0.25c0,0.761-0.137,1.317-0.413,1.667s-0.712,0.525-1.308,0.525
					c-0.491,0-0.876-0.135-1.154-0.405c-0.277-0.27-0.424-0.644-0.44-1.123l-0.036-0.973c-0.023-0.648-0.168-1.088-0.432-1.32
					c-0.264-0.231-0.764-0.347-1.501-0.347h-0.592V132.752z M69.838,129.599H71.3c0.588,0,1.018-0.1,1.292-0.299
					s0.411-0.516,0.411-0.951c0-0.447-0.131-0.767-0.393-0.96s-0.713-0.29-1.354-0.29h-1.419V129.599z"/>
				<path class="st1" d="M76.354,134.461v-0.942h0.483c0.366,0,0.594-0.043,0.683-0.13c0.088-0.086,0.133-0.299,0.133-0.637v-4.886
					c0-0.338-0.045-0.55-0.133-0.637c-0.089-0.086-0.316-0.13-0.683-0.13h-0.483v-0.936h8.166v3.304h-0.942
					c-0.024-0.946-0.179-1.577-0.462-1.894c-0.283-0.316-0.858-0.474-1.725-0.474h-1.992v2.549h0.471
					c0.52,0,0.859-0.089,1.021-0.269s0.262-0.591,0.302-1.235l0.942-0.006v4.162l-0.942-0.006c-0.036-0.712-0.135-1.172-0.296-1.38
					s-0.499-0.311-1.015-0.311h-0.482v2.917h2.174c0.725,0,1.222-0.168,1.492-0.504c0.27-0.336,0.44-1.025,0.513-2.068h0.942v3.515
					H76.354z"/>
				<path class="st1" d="M85.233,134.461v-0.942h0.26c0.313,0,0.549-0.055,0.703-0.166c0.155-0.111,0.289-0.323,0.402-0.637
					l2.313-6.553h1.74l2.476,6.553c0.142,0.383,0.271,0.612,0.39,0.688c0.119,0.077,0.323,0.115,0.613,0.115h0.248v0.942h-4.295
					v-0.942h0.67c0.27,0,0.453-0.023,0.547-0.069c0.095-0.046,0.143-0.13,0.143-0.25c0-0.044-0.008-0.095-0.021-0.151
					c-0.014-0.057-0.043-0.141-0.088-0.254l-0.355-0.979h-2.736l-0.356,1.045c-0.009,0.028-0.022,0.07-0.042,0.127
					c-0.041,0.117-0.061,0.199-0.061,0.248c0,0.109,0.039,0.183,0.117,0.224c0.078,0.04,0.264,0.06,0.553,0.06h0.641v0.942H85.233z
					 M90.638,130.837l-1.075-2.869l-0.979,2.869H90.638z"/>
				<path class="st1" d="M43.854,141.006h4.451v0.936h-0.58c-0.371,0-0.602,0.045-0.691,0.134c-0.091,0.089-0.136,0.3-0.136,0.634
					v5.653h1.546c0.552,0,0.965-0.047,1.238-0.142s0.471-0.253,0.592-0.475c0.117-0.213,0.203-0.473,0.26-0.779
					c0.057-0.306,0.084-0.672,0.084-1.099v-0.151h0.955v3.588h-7.719v-0.942h0.482c0.367,0,0.594-0.043,0.684-0.13
					c0.088-0.086,0.133-0.299,0.133-0.637v-4.887c0-0.338-0.045-0.551-0.133-0.637c-0.09-0.087-0.316-0.131-0.684-0.131h-0.482
					V141.006z"/>
				<path class="st1" d="M52.599,145.149c0-1.313,0.42-2.371,1.259-3.174c0.84-0.804,1.944-1.205,3.313-1.205
					c1.373,0,2.478,0.401,3.313,1.205c0.835,0.803,1.253,1.861,1.253,3.174c0,1.316-0.419,2.378-1.257,3.183
					c-0.838,0.806-1.94,1.208-3.31,1.208s-2.474-0.403-3.313-1.211C53.019,147.522,52.599,146.462,52.599,145.149z M54.551,145.149
					c0,1.071,0.231,1.905,0.694,2.503c0.463,0.599,1.105,0.897,1.927,0.897s1.462-0.298,1.924-0.894
					c0.461-0.597,0.691-1.432,0.691-2.507c0-1.071-0.229-1.903-0.688-2.498c-0.459-0.593-1.102-0.891-1.927-0.891
					c-0.821,0-1.464,0.298-1.927,0.891C54.782,143.246,54.551,144.078,54.551,145.149z M55.886,140.088l1.686-1.782
					c0.196-0.213,0.367-0.363,0.51-0.45c0.143-0.086,0.285-0.129,0.426-0.129c0.189,0,0.348,0.063,0.477,0.19
					s0.193,0.281,0.193,0.462c0,0.145-0.049,0.275-0.147,0.39s-0.261,0.229-0.486,0.341l-1.963,0.979H55.886z"/>
				<path class="st1" d="M65.513,147.596c0,0.334,0.045,0.545,0.137,0.634c0.09,0.089,0.32,0.133,0.691,0.133h0.58v0.942h-4.452
					v-0.942h0.483c0.366,0,0.594-0.043,0.683-0.13c0.089-0.086,0.133-0.299,0.133-0.637v-4.887c0-0.338-0.044-0.551-0.133-0.637
					c-0.089-0.087-0.316-0.131-0.683-0.131h-0.483v-0.936h4.367c1.119,0,1.964,0.191,2.534,0.574
					c0.568,0.383,0.854,0.951,0.854,1.704c0,0.41-0.077,0.769-0.232,1.075c-0.154,0.306-0.389,0.565-0.703,0.778
					c-0.226,0.149-0.54,0.256-0.942,0.32c-0.403,0.064-0.964,0.097-1.685,0.097h-1.148V147.596z M65.513,144.618h0.828
					c0.761,0,1.295-0.102,1.604-0.306c0.308-0.203,0.462-0.546,0.462-1.029c0-0.495-0.147-0.843-0.444-1.042
					c-0.296-0.199-0.869-0.3-1.719-0.3h-0.73V144.618z"/>
				<path class="st1" d="M70.942,149.304v-0.942h0.484c0.365,0,0.594-0.043,0.682-0.13c0.089-0.086,0.133-0.299,0.133-0.637v-4.887
					c0-0.338-0.044-0.551-0.133-0.637c-0.088-0.087-0.316-0.131-0.682-0.131h-0.484v-0.936h8.166v3.304h-0.941
					c-0.024-0.946-0.179-1.577-0.463-1.894c-0.283-0.316-0.857-0.475-1.724-0.475h-1.993v2.55h0.471c0.52,0,0.859-0.09,1.021-0.27
					c0.16-0.179,0.262-0.591,0.301-1.234l0.943-0.006v4.161l-0.943-0.006c-0.035-0.713-0.135-1.173-0.295-1.381
					c-0.162-0.207-0.5-0.311-1.016-0.311h-0.482v2.917h2.174c0.725,0,1.223-0.168,1.492-0.504s0.441-1.026,0.514-2.069h0.941v3.516
					H70.942z"/>
				<path class="st1" d="M80.516,149.304v-1.003l4.958-6.36h-1.407c-0.624,0-1.068,0.049-1.332,0.146s-0.472,0.264-0.625,0.502
					c-0.125,0.205-0.219,0.459-0.281,0.761s-0.096,0.679-0.1,1.129h-0.953v-3.473h6.752v1.063l-4.91,6.294h1.322
					c0.648,0,1.137-0.052,1.465-0.157c0.328-0.104,0.563-0.277,0.703-0.52c0.129-0.229,0.23-0.516,0.306-0.86
					c0.074-0.344,0.13-0.771,0.166-1.283h0.948v3.763H80.516z"/>
			</g>
		</g>
	</g>
	<g>
		<path class="st7" d="M86.516,0H49.955c-3.828,0-6.943,3.115-6.943,6.943v20.442l-4.944-3.636c-0.033-0.024-0.072-0.03-0.107-0.05
			c-0.062-0.036-0.124-0.067-0.194-0.09c-0.07-0.023-0.138-0.035-0.21-0.042c-0.04-0.005-0.074-0.023-0.115-0.023
			c-0.027,0-0.05,0.014-0.077,0.016c-0.073,0.005-0.141,0.022-0.211,0.043c-0.065,0.019-0.126,0.036-0.185,0.066
			c-0.058,0.029-0.108,0.068-0.161,0.108c-0.059,0.045-0.113,0.09-0.161,0.146c-0.017,0.02-0.042,0.031-0.058,0.052
			c-0.024,0.033-0.03,0.072-0.05,0.107c-0.036,0.062-0.067,0.124-0.09,0.194c-0.023,0.07-0.035,0.138-0.043,0.21
			c-0.005,0.04-0.023,0.074-0.023,0.115v27.556c0,0.584,0.473,1.057,1.057,1.057h48.387c0.584,0,1.057-0.473,1.057-1.057V24.601
			c0-0.041-0.019-0.076-0.023-0.116c-0.008-0.072-0.019-0.14-0.042-0.209c-0.023-0.07-0.054-0.132-0.091-0.195
			c-0.02-0.034-0.025-0.073-0.049-0.106c-0.016-0.022-0.04-0.032-0.057-0.052c-0.048-0.056-0.102-0.101-0.161-0.146
			c-0.053-0.041-0.103-0.079-0.162-0.109c-0.058-0.029-0.118-0.047-0.182-0.065c-0.072-0.021-0.141-0.038-0.216-0.044
			c-0.026-0.002-0.048-0.015-0.075-0.015c-0.04,0-0.073,0.018-0.112,0.023c-0.074,0.008-0.144,0.02-0.216,0.044
			c-0.069,0.023-0.129,0.053-0.191,0.089c-0.035,0.02-0.075,0.026-0.108,0.05l-3.514,2.585v-6.74h10.715
			c0.584,0,1.057-0.473,1.057-1.057V6.943C93.46,3.115,90.345,0,86.516,0z M38.499,51.1V26.691l13.516,9.94l-8.928,8.929
			c-0.413,0.413-0.413,1.082,0,1.495c0.206,0.206,0.477,0.31,0.747,0.31c0.271,0,0.541-0.103,0.747-0.31l9.156-9.157l7.271,5.347
			c0.187,0.137,0.407,0.205,0.627,0.205c0.22,0,0.44-0.069,0.627-0.205l7.078-5.206l9.36,9.36c0.207,0.207,0.477,0.31,0.747,0.31
			c0.271,0,0.541-0.103,0.748-0.31c0.413-0.413,0.413-1.082,0-1.495l-9.132-9.132l13.708-10.081V51.1H38.499z M61.636,41.081
			L45.116,28.932c0.001-0.018,0.01-0.033,0.01-0.051V6.943c0-2.663,2.166-4.829,4.829-4.829h31.583
			c-1.214,1.251-1.965,2.953-1.965,4.829V18.18v0.357v9.352L61.636,41.081z M91.345,17.479h-9.657V6.943
			c0-2.663,2.166-4.829,4.829-4.829c2.663,0,4.829,2.166,4.829,4.829V17.479z"/>
		<g>
			<path class="st7" d="M71.346,11.237H52.619c-0.584,0-1.057,0.473-1.057,1.057c0,0.584,0.473,1.057,1.057,1.057h18.727
				c0.584,0,1.057-0.473,1.057-1.057C72.403,11.71,71.931,11.237,71.346,11.237z"/>
			<path class="st7" d="M71.346,18.549H52.619c-0.584,0-1.057,0.473-1.057,1.057c0,0.584,0.473,1.057,1.057,1.057h18.727
				c0.584,0,1.057-0.473,1.057-1.057C72.403,19.023,71.931,18.549,71.346,18.549z"/>
			<path class="st7" d="M67.423,26.041H56.364c-0.584,0-1.057,0.473-1.057,1.057s0.473,1.057,1.057,1.057h11.059
				c0.584,0,1.057-0.473,1.057-1.057S68.007,26.041,67.423,26.041z"/>
		</g>
	</g>
</g>
</svg>