<!-- Generator: Adobe Illustrator 22.0.0, SVG Export Plug-In  -->
<svg version="1.1"
	 xmlns="http://www.w3.org/2000/svg" xmlns:xlink="http://www.w3.org/1999/xlink" xmlns:a="http://ns.adobe.com/AdobeSVGViewerExtensions/3.0/"
	 x="0px" y="0px" width="195.432px" height="133.57px" viewBox="0 0 195.432 133.57"
	 style="overflow:scroll;enable-background:new 0 0 195.432 133.57;" xml:space="preserve">
<style type="text/css">
	.st0{fill:url(#SVGID_1_);}
	.st1{fill:url(#SVGID_2_);}
	.st2{fill:url(#SVGID_3_);}
	.st3{fill:url(#SVGID_4_);}
	.st4{fill:url(#SVGID_5_);}
	.st5{fill:url(#SVGID_6_);}
	.st6{fill:url(#SVGID_7_);}
	.st7{fill:url(#SVGID_8_);}
	.st8{fill:url(#SVGID_9_);}
	.st9{fill:#FFFFFF;}
	.st10{fill:url(#SVGID_10_);}
	.st11{fill:url(#SVGID_11_);}
	.st12{fill:url(#SVGID_12_);}
	.st13{fill:url(#SVGID_13_);}
	.st14{fill:url(#SVGID_14_);}
	.st15{fill:url(#SVGID_15_);}
	.st16{fill:url(#SVGID_16_);}
	.st17{fill:url(#SVGID_17_);}
	.st18{fill:url(#SVGID_18_);}
	.st19{font-family:'ClarendonBT-Roman';}
	.st20{font-size:39.2376px;}
</style>
<defs>
</defs>
<g>
	<g>
		
			<linearGradient id="SVGID_1_" gradientUnits="userSpaceOnUse" x1="-392.6359" y1="-582.2079" x2="-448.7632" y2="-638.3351" gradientTransform="matrix(-1 0 0 -1 -381.2753 -557.9051)">
			<stop  offset="0" style="stop-color:#E2DDDD"/>
			<stop  offset="1" style="stop-color:#C4BEBD"/>
		</linearGradient>
		<path class="st0" d="M2.843,72.014l16.187,22.347c2.796,3.861,7.312,6.165,12.079,6.165h44.633V26.033H31.106
			c-4.764,0-9.277,2.302-12.073,6.158L2.848,54.51C-0.948,59.744-0.95,66.778,2.843,72.014z"/>
		
			<linearGradient id="SVGID_2_" gradientUnits="userSpaceOnUse" x1="-534.4439" y1="30.8292" x2="-534.4439" y2="3.2406" gradientTransform="matrix(-1 0 0 1 -486.8351 0)">
			<stop  offset="0" style="stop-color:#FFFFFF"/>
			<stop  offset="1" style="stop-color:#070308"/>
		</linearGradient>
		<path class="st1" d="M19.543,31.519c2.818-3.422,7.038-5.458,11.498-5.458h44.633v5.458H19.543z"/>
	</g>
	<linearGradient id="SVGID_3_" gradientUnits="userSpaceOnUse" x1="9.0616" y1="63.2768" x2="78.155" y2="63.2768">
		<stop  offset="0" style="stop-color:#75B8DB"/>
		<stop  offset="1" style="stop-color:#396389"/>
	</linearGradient>
	<path class="st2" d="M32.957,93.287h45.198V63.26V33.267H32.954c-2.495,0-4.839,1.196-6.304,3.215L10.545,58.691
		c-1.977,2.726-1.978,6.413-0.003,9.139l16.108,22.238C28.115,92.09,30.46,93.287,32.957,93.287z"/>
	
		<radialGradient id="SVGID_4_" cx="-514.284" cy="-629.0518" r="62.4233" gradientTransform="matrix(-1 0 0 -1 -381.2753 -557.9051)" gradientUnits="userSpaceOnUse">
		<stop  offset="0" style="stop-color:#070308"/>
		<stop  offset="1" style="stop-color:#FFFFFF"/>
	</radialGradient>
	<circle class="st3" cx="133.009" cy="71.147" r="62.423"/>
	<linearGradient id="SVGID_5_" gradientUnits="userSpaceOnUse" x1="60.6948" y1="63.2747" x2="187.2442" y2="63.2747">
		<stop  offset="0" style="stop-color:#396389"/>
		<stop  offset="1" style="stop-color:#75B8DB"/>
	</linearGradient>
	<circle class="st4" cx="123.969" cy="63.275" r="63.275"/>
	
		<linearGradient id="SVGID_6_" gradientUnits="userSpaceOnUse" x1="-556.2247" y1="-621.1797" x2="-454.265" y2="-621.1797" gradientTransform="matrix(-1 0 0 -1 -381.2753 -557.9051)">
		<stop  offset="0" style="stop-color:#E2DDDD"/>
		<stop  offset="1" style="stop-color:#C4BEBD"/>
	</linearGradient>
	<circle class="st5" cx="123.969" cy="63.275" r="50.98"/>
	
		<radialGradient id="SVGID_7_" cx="160.0873" cy="195.1227" r="55.102" gradientTransform="matrix(1 0 0 1 -34.874 -130.0151)" gradientUnits="userSpaceOnUse">
		<stop  offset="0.7955" style="stop-color:#FFFFFF"/>
		<stop  offset="0.8694" style="stop-color:#FEFEFE"/>
		<stop  offset="0.8984" style="stop-color:#F6F6F6"/>
		<stop  offset="0.9195" style="stop-color:#E5E3E4"/>
		<stop  offset="0.9368" style="stop-color:#CCC8CA"/>
		<stop  offset="0.9517" style="stop-color:#AEA7A9"/>
		<stop  offset="0.965" style="stop-color:#8D8586"/>
		<stop  offset="0.9771" style="stop-color:#6B6465"/>
		<stop  offset="0.9883" style="stop-color:#4B4545"/>
		<stop  offset="0.9984" style="stop-color:#2D2929"/>
		<stop  offset="1" style="stop-color:#272324"/>
	</radialGradient>
	<circle class="st6" cx="123.969" cy="63.275" r="50.98"/>
	
		<radialGradient id="SVGID_8_" cx="-512.1257" cy="-630.3376" r="38.2706" gradientTransform="matrix(-1 0 0 -1 -381.2753 -557.9051)" gradientUnits="userSpaceOnUse">
		<stop  offset="0" style="stop-color:#070308"/>
		<stop  offset="1" style="stop-color:#FFFFFF"/>
	</radialGradient>
	<circle class="st7" cx="130.85" cy="72.433" r="38.271"/>
	<linearGradient id="SVGID_9_" gradientUnits="userSpaceOnUse" x1="94.8868" y1="62.6776" x2="156.5536" y2="62.6776">
		<stop  offset="0" style="stop-color:#396389"/>
		<stop  offset="1" style="stop-color:#75B8DB"/>
	</linearGradient>
	<circle class="st8" cx="125.72" cy="62.678" r="30.833"/>
	<g>
		<g>
			<path class="st9" d="M103.193,63.514c0-3.742,1.025-6.782,3.075-9.119c2.05-2.338,4.703-3.506,7.961-3.506
				c3.257,0,5.916,1.172,7.979,3.516c2.063,2.344,3.094,5.381,3.094,9.109c0,3.743-1.031,6.779-3.094,9.11
				c-2.063,2.331-4.723,3.497-7.979,3.497c-3.258,0-5.911-1.166-7.961-3.497S103.193,67.257,103.193,63.514z M109.285,63.514
				c0,3.296,0.396,5.71,1.188,7.242c0.792,1.533,2.044,2.3,3.756,2.3c1.711,0,2.97-0.77,3.774-2.309s1.207-3.95,1.207-7.233
				c0-3.282-0.402-5.696-1.207-7.241c-0.805-1.546-2.063-2.318-3.774-2.318c-1.699,0-2.948,0.775-3.746,2.327
				C109.685,57.835,109.285,60.245,109.285,63.514z"/>
			<path class="st9" d="M143.695,54.261c-0.498-0.332-0.996-0.578-1.494-0.738c-0.498-0.159-0.996-0.239-1.494-0.239
				c-1.98,0-3.455,0.716-4.426,2.146c-0.971,1.431-1.521,3.705-1.647,6.821c0.958-0.69,1.932-1.207,2.921-1.552
				c0.99-0.346,2.028-0.518,3.114-0.518c2.465,0,4.495,0.744,6.092,2.231c1.597,1.488,2.396,3.376,2.396,5.662
				c0,2.427-0.917,4.387-2.75,5.882c-1.833,1.494-4.256,2.241-7.271,2.241c-3.347,0-5.933-1.047-7.76-3.142
				c-1.826-2.095-2.739-5.064-2.739-8.909c0-4.087,1.019-7.318,3.056-9.694s4.825-3.563,8.363-3.563c2.324,0,4.23,0.495,5.719,1.484
				c1.487,0.99,2.232,2.22,2.232,3.688c0,0.894-0.301,1.628-0.901,2.203c-0.6,0.575-1.373,0.862-2.317,0.862
				c-0.869,0-1.575-0.239-2.117-0.719c-0.543-0.479-0.814-1.102-0.814-1.868c0-0.562,0.153-1.031,0.46-1.408
				C142.622,54.756,143.082,54.465,143.695,54.261z M134.786,68.42c0,1.571,0.37,2.775,1.11,3.611
				c0.741,0.837,1.795,1.255,3.162,1.255c1.303,0,2.321-0.415,3.056-1.245s1.102-1.979,1.102-3.449c0-1.66-0.361-2.915-1.083-3.765
				c-0.722-0.849-1.798-1.273-3.228-1.273c-1.303,0-2.315,0.425-3.037,1.273C135.147,65.676,134.786,66.875,134.786,68.42z"/>
		</g>
	</g>
</g>
</svg>