<!-- Generator: Adobe Illustrator 22.0.0, SVG Export Plug-In  -->
<svg version="1.1"
	 xmlns="http://www.w3.org/2000/svg" xmlns:xlink="http://www.w3.org/1999/xlink" xmlns:a="http://ns.adobe.com/AdobeSVGViewerExtensions/3.0/"
	 x="0px" y="0px" width="132.024px" height="292.62px" viewBox="0 0 132.024 292.62"
	 style="overflow:scroll;enable-background:new 0 0 132.024 292.62;" xml:space="preserve">
<style type="text/css">
	.st0{fill:url(#SVGID_1_);}
	.st1{fill:#FFFFFF;}
	.st2{fill:#767676;}
	.st3{fill:#434444;}
	.st4{fill:url(#SVGID_2_);}
	.st5{fill:url(#SVGID_3_);}
	.st6{fill:url(#SVGID_4_);}
	.st7{fill:url(#SVGID_5_);}
	.st8{fill:url(#SVGID_6_);}
	.st9{font-family:'ClarendonBT-Roman';}
	.st10{font-size:11.5127px;}
	.st11{fill:url(#SVGID_7_);}
	.st12{fill:url(#SVGID_8_);}
	.st13{fill:url(#SVGID_9_);}
	.st14{fill:url(#SVGID_10_);}
	.st15{font-size:10.1919px;}
</style>
<defs>
</defs>
<g>
	<linearGradient id="SVGID_1_" gradientUnits="userSpaceOnUse" x1="66.0162" y1="9.9873" x2="66.0162" y2="1.6872">
		<stop  offset="0" style="stop-color:#DA1D1D"/>
		<stop  offset="1" style="stop-color:#D018A2"/>
	</linearGradient>
	<path class="st0" d="M118.186,17.085v-0.471C118.186,7.438,110.748,0,101.572,0H30.46c-9.175,0-16.613,7.438-16.613,16.613v0.471
		H118.186z"/>
	<path class="st1" d="M0,161.974V30.384C0,18.775,9.417,9.369,21.026,9.369h89.983c11.609,0,21.015,9.406,21.015,21.015v131.59H0z"
		/>
	<g>
		<path class="st2" d="M48.034,274.317c-0.001,0-0.002,0-0.003,0c-0.612,0.002-1.107,0.5-1.105,1.111l0.045,14.828l-6.866-3.273
			l-0.038-11.939c-0.002-0.611-0.498-1.105-1.108-1.105c-0.001,0-0.002,0-0.003,0c-0.612,0.002-1.107,0.5-1.105,1.111l0.038,12.096
			c0.002,0.753,0.443,1.448,1.12,1.769l7.365,3.511c0.271,0.13,0.561,0.194,0.848,0.194c0.366,0,0.73-0.103,1.052-0.307
			c0.575-0.364,0.916-0.987,0.914-1.667l-0.047-15.224C49.139,274.811,48.644,274.317,48.034,274.317z"/>
		<path class="st2" d="M87.926,263.004c1.483-4.23-0.75-8.878-4.98-10.364l-0.034-10.973c-0.008-2.244-1.835-4.064-4.077-4.064
			c-0.004,0-0.009,0-0.013,0c-1.088,0.003-2.111,0.43-2.879,1.202c-0.684,0.689-1.073,1.582-1.152,2.538
			c-3.828,4.313-19.386,6.783-25.228,7.386l-10.545,0.032c-1.743,0.005-3.38,0.689-4.609,1.925
			c-1.229,1.237-1.902,2.878-1.897,4.621l0.002,0.501l-2.6,0.012l0.043,9.002l2.585-0.012l0.001,0.459
			c0.011,3.592,2.937,6.507,6.528,6.507c0.006,0,0.013,0,0.02,0l10.366-0.031c0.02,0.004,0.042-0.003,0.062,0
			c0.024,0.004,0.044,0.017,0.068,0.02c5.791,0.556,21.361,2.918,25.288,7.196l0,0.087c0.003,1.09,0.431,2.111,1.203,2.879
			c0.769,0.764,1.789,1.185,2.873,1.185c0.004,0,0.009,0,0.013,0c1.09-0.003,2.112-0.431,2.88-1.203
			c0.767-0.773,1.188-1.797,1.185-2.886l-0.034-11.07C85.293,267.134,87.106,265.34,87.926,263.004z M39.082,269.561
			c-0.004,0-0.009,0-0.013,0c-2.372,0-4.305-1.925-4.312-4.298l-0.03-9.962c-0.003-1.151,0.442-2.235,1.253-3.052
			c0.811-0.817,1.892-1.268,3.044-1.271l9.498-0.029l0.023,7.347l0.034,11.236L39.082,269.561z M50.795,269.665l-0.029-9.341
			l-0.029-9.497c3.904-0.463,17.9-2.377,24.028-6.576l0.098,31.842C68.709,271.932,54.703,270.104,50.795,269.665z M80.27,280.346
			c-0.351,0.353-0.818,0.547-1.315,0.55c-0.002,0-0.004,0-0.007,0c-1.022,0-1.857-0.831-1.86-1.855l-0.115-37.356
			c-0.002-0.498,0.19-0.965,0.541-1.318c0.349-0.353,0.817-0.548,1.314-0.549c0.002,0,0.004,0,0.006,0
			c1.024,0,1.858,0.831,1.861,1.855l0.115,37.356C80.813,279.526,80.62,279.994,80.27,280.346z M82.987,265.553l-0.026-10.501
			c2.584,1.328,3.863,4.4,2.875,7.218C85.329,263.71,84.307,264.871,82.987,265.553z"/>
		<path class="st2" d="M89.223,271.6c-0.307-0.528-0.987-0.708-1.515-0.398c-0.529,0.308-0.707,0.987-0.398,1.515l3.285,5.626
			c0.206,0.353,0.577,0.55,0.958,0.55c0.189,0,0.382-0.049,0.557-0.152c0.529-0.308,0.707-0.987,0.398-1.515L89.223,271.6z"/>
		<path class="st2" d="M99.396,269.358l-5.657-3.231c-0.532-0.305-1.209-0.12-1.512,0.412c-0.304,0.531-0.119,1.209,0.412,1.512
			l5.657,3.231c0.173,0.099,0.362,0.146,0.549,0.146c0.385,0,0.759-0.2,0.963-0.558C100.113,270.339,99.928,269.661,99.396,269.358z
			"/>
		<path class="st2" d="M101.433,259.1c-0.002,0-0.003,0-0.005,0l-6.515,0.03c-0.611,0.003-1.106,0.501-1.103,1.113
			c0.003,0.61,0.499,1.102,1.108,1.102c0.002,0,0.003,0,0.005,0l6.515-0.03c0.611-0.003,1.106-0.501,1.103-1.113
			C102.537,259.592,102.042,259.1,101.433,259.1z"/>
		<path class="st2" d="M92.032,253.999c0.205,0.353,0.577,0.55,0.958,0.55c0.189,0,0.382-0.049,0.557-0.151l5.626-3.285
			c0.529-0.308,0.707-0.987,0.398-1.515c-0.308-0.528-0.986-0.708-1.515-0.398l-5.626,3.285
			C91.901,252.793,91.724,253.471,92.032,253.999z"/>
		<path class="st2" d="M87.37,249.48c0.173,0.099,0.363,0.146,0.549,0.146c0.385,0,0.759-0.2,0.963-0.558l3.231-5.657
			c0.304-0.531,0.119-1.209-0.412-1.512c-0.532-0.306-1.209-0.119-1.512,0.412l-3.231,5.657
			C86.653,248.5,86.839,249.177,87.37,249.48z"/>
	</g>
	<g>
		<path class="st3" d="M12.506,25.801v-0.877h0.447c0.338,0,0.548-0.04,0.63-0.121c0.081-0.08,0.122-0.278,0.122-0.593v-4.548
			c0-0.315-0.041-0.512-0.122-0.593c-0.082-0.081-0.292-0.121-0.63-0.121h-0.447v-0.871h7.543v3.075h-0.871
			c-0.021-0.881-0.164-1.468-0.426-1.762c-0.263-0.294-0.793-0.441-1.594-0.441h-1.84v2.372h0.435c0.479,0,0.794-0.083,0.942-0.25
			c0.148-0.167,0.242-0.55,0.279-1.149l0.87-0.006v3.873l-0.87-0.005c-0.033-0.664-0.125-1.091-0.273-1.285
			c-0.148-0.193-0.461-0.29-0.938-0.29h-0.445v2.715h2.008c0.67,0,1.129-0.156,1.378-0.469s0.407-0.955,0.474-1.925h0.871v3.271
			H12.506z"/>
		<path class="st3" d="M28.924,25.801h-1.615l-3.813-6.296v4.705c0,0.315,0.041,0.513,0.123,0.593
			c0.082,0.081,0.291,0.121,0.63,0.121h0.524v0.877h-3.766v-0.877h0.535c0.339,0,0.549-0.04,0.631-0.121
			c0.082-0.08,0.123-0.278,0.123-0.593v-4.548c0-0.315-0.041-0.512-0.123-0.593s-0.292-0.121-0.631-0.121h-0.49v-0.871h3.28
			l3.392,5.604v-4.02c0-0.315-0.041-0.512-0.123-0.593s-0.291-0.121-0.63-0.121H26.43v-0.871h3.627v0.871h-0.369
			c-0.342,0-0.555,0.042-0.639,0.124c-0.083,0.083-0.125,0.279-0.125,0.59V25.801z"/>
		<path class="st3" d="M36.806,22.81h0.98c-0.074,1.027-0.387,1.821-0.939,2.381s-1.299,0.84-2.24,0.84
			c-0.561,0-1.068-0.088-1.522-0.264s-0.858-0.446-1.216-0.81c-0.395-0.394-0.693-0.848-0.896-1.363
			c-0.202-0.515-0.304-1.069-0.304-1.661c0-0.596,0.098-1.142,0.295-1.639s0.495-0.945,0.893-1.346
			c0.361-0.363,0.765-0.638,1.211-0.824s0.926-0.278,1.439-0.278c0.408,0,0.795,0.064,1.157,0.194s0.719,0.329,1.068,0.599
			l0.229-0.691h0.824v3.165h-0.881c-0.09-0.738-0.324-1.31-0.705-1.714c-0.382-0.405-0.873-0.607-1.477-0.607
			c-0.702,0-1.254,0.283-1.653,0.849s-0.6,1.349-0.6,2.35c0,0.952,0.198,1.688,0.597,2.207s0.957,0.779,1.68,0.779
			c0.561,0,1.017-0.185,1.366-0.554S36.694,23.515,36.806,22.81z"/>
		<path class="st3" d="M37.983,25.801v-0.877h0.239c0.291,0,0.508-0.051,0.65-0.155c0.143-0.103,0.267-0.301,0.371-0.593
			l2.137-6.099h1.606l2.287,6.099c0.13,0.356,0.25,0.57,0.36,0.641c0.109,0.071,0.298,0.107,0.565,0.107h0.229v0.877h-3.967v-0.877
			h0.619c0.249,0,0.418-0.021,0.505-0.064c0.087-0.043,0.131-0.121,0.131-0.233c0-0.042-0.007-0.088-0.02-0.141
			c-0.013-0.052-0.04-0.131-0.081-0.236l-0.328-0.911h-2.527l-0.33,0.973c-0.007,0.026-0.02,0.066-0.039,0.118
			c-0.037,0.109-0.055,0.186-0.055,0.23c0,0.101,0.035,0.17,0.108,0.208c0.072,0.038,0.243,0.056,0.511,0.056h0.591v0.877H37.983z
			 M42.976,22.428l-0.994-2.67l-0.903,2.67H42.976z"/>
		<path class="st3" d="M49.447,24.21c0,0.311,0.041,0.508,0.125,0.59s0.297,0.124,0.639,0.124h0.535v0.877h-4.111v-0.877h0.447
			c0.338,0,0.548-0.04,0.63-0.121c0.081-0.08,0.122-0.278,0.122-0.593v-4.548c0-0.315-0.041-0.512-0.122-0.593
			c-0.082-0.081-0.292-0.121-0.63-0.121h-0.447v-0.871h4.58c0.96,0,1.672,0.151,2.137,0.455s0.697,0.77,0.697,1.4
			c0,0.555-0.186,0.998-0.555,1.329c-0.37,0.332-0.916,0.541-1.637,0.627c0.546,0.083,0.928,0.239,1.146,0.469
			s0.345,0.631,0.382,1.2l0.051,0.691c0.019,0.27,0.052,0.446,0.1,0.529c0.049,0.083,0.129,0.124,0.24,0.124
			c0.224,0,0.342-0.421,0.357-1.265c0-0.015,0-0.026,0-0.034h0.725c0.008,0.048,0.013,0.1,0.015,0.154
			c0.001,0.054,0.003,0.132,0.003,0.233c0,0.708-0.128,1.226-0.383,1.551c-0.254,0.326-0.657,0.489-1.207,0.489
			c-0.454,0-0.809-0.125-1.066-0.376c-0.256-0.251-0.393-0.6-0.406-1.046l-0.033-0.905c-0.023-0.604-0.156-1.013-0.399-1.229
			c-0.243-0.215-0.706-0.323-1.386-0.323h-0.547V24.21z M49.447,21.275h1.35c0.543,0,0.941-0.093,1.193-0.278
			c0.254-0.186,0.38-0.48,0.38-0.885c0-0.416-0.121-0.714-0.362-0.894c-0.242-0.18-0.658-0.27-1.25-0.27h-1.311V21.275z"/>
		<path class="st3" d="M62.182,25.846l-0.407-0.641c-0.35,0.281-0.714,0.489-1.094,0.624c-0.379,0.135-0.791,0.202-1.238,0.202
			c-0.523,0-1.012-0.094-1.464-0.281c-0.452-0.187-0.854-0.462-1.208-0.826c-0.379-0.386-0.666-0.832-0.861-1.338
			s-0.293-1.057-0.293-1.653c0-0.596,0.102-1.149,0.304-1.661c0.202-0.511,0.497-0.96,0.884-1.346
			c0.361-0.356,0.766-0.625,1.214-0.807s0.935-0.272,1.458-0.272c0.439,0,0.84,0.069,1.2,0.208c0.36,0.139,0.698,0.353,1.015,0.641
			l0.324-0.664h0.809v3.013h-0.881c-0.149-0.712-0.426-1.266-0.832-1.661c-0.404-0.395-0.893-0.593-1.461-0.593
			c-0.681,0-1.223,0.283-1.627,0.849c-0.402,0.566-0.604,1.331-0.604,2.293c0,0.978,0.202,1.735,0.604,2.271
			c0.404,0.536,0.973,0.804,1.705,0.804c0.527,0,0.943-0.125,1.246-0.374c0.304-0.249,0.455-0.589,0.455-1.02v-0.438
			c0-0.27-0.041-0.443-0.123-0.52c-0.082-0.077-0.328-0.115-0.742-0.115H60.08v-0.872h4.061v0.872h-0.496
			c-0.264,0-0.435,0.043-0.511,0.129c-0.076,0.086-0.114,0.285-0.114,0.596v2.58H62.182z"/>
		<path class="st3" d="M64.056,25.801v-0.877h0.24c0.29,0,0.507-0.051,0.65-0.155c0.143-0.103,0.266-0.301,0.371-0.593l2.136-6.099
			h1.606l2.287,6.099c0.131,0.356,0.25,0.57,0.36,0.641c0.109,0.071,0.298,0.107,0.565,0.107h0.229v0.877h-3.966v-0.877h0.619
			c0.248,0,0.417-0.021,0.504-0.064c0.088-0.043,0.131-0.121,0.131-0.233c0-0.042-0.006-0.088-0.02-0.141
			c-0.012-0.052-0.039-0.131-0.08-0.236l-0.329-0.911h-2.527l-0.329,0.973c-0.008,0.026-0.021,0.066-0.039,0.118
			c-0.037,0.109-0.056,0.186-0.056,0.23c0,0.101,0.036,0.17,0.108,0.208s0.243,0.056,0.511,0.056h0.591v0.877H64.056z M69.05,22.428
			l-0.993-2.67l-0.904,2.67H69.05z"/>
		<path class="st3" d="M72.709,25.801v-0.877h0.447c0.338,0,0.548-0.04,0.63-0.121c0.081-0.08,0.122-0.278,0.122-0.593v-4.548
			c0-0.315-0.041-0.512-0.122-0.593c-0.082-0.081-0.292-0.121-0.63-0.121h-0.447v-0.871h4.352c1.339,0,2.352,0.326,3.037,0.978
			c0.687,0.652,1.029,1.611,1.029,2.878c0,1.267-0.344,2.228-1.031,2.884c-0.688,0.656-1.699,0.984-3.035,0.984H72.709z
			 M75.521,24.924h1.004c0.599,0,1.047-0.047,1.344-0.141c0.298-0.094,0.555-0.253,0.77-0.478c0.217-0.225,0.387-0.547,0.512-0.967
			c0.124-0.419,0.187-0.888,0.187-1.405s-0.063-0.983-0.187-1.399c-0.125-0.416-0.295-0.737-0.512-0.961
			c-0.215-0.225-0.472-0.385-0.77-0.48c-0.297-0.096-0.745-0.144-1.344-0.144h-1.004V24.924z"/>
		<path class="st3" d="M81.35,25.801v-0.877h0.239c0.291,0,0.508-0.051,0.65-0.155c0.143-0.103,0.267-0.301,0.371-0.593l2.137-6.099
			h1.606l2.287,6.099c0.13,0.356,0.25,0.57,0.36,0.641c0.109,0.071,0.298,0.107,0.565,0.107h0.229v0.877H85.83v-0.877h0.619
			c0.249,0,0.418-0.021,0.505-0.064c0.087-0.043,0.131-0.121,0.131-0.233c0-0.042-0.007-0.088-0.02-0.141
			c-0.013-0.052-0.04-0.131-0.081-0.236l-0.328-0.911h-2.527l-0.33,0.973c-0.007,0.026-0.02,0.066-0.039,0.118
			c-0.037,0.109-0.055,0.186-0.055,0.23c0,0.101,0.035,0.17,0.108,0.208c0.072,0.038,0.243,0.056,0.511,0.056h0.591v0.877H81.35z
			 M86.344,22.428l-0.994-2.67l-0.903,2.67H86.344z"/>
		<path class="st3" d="M93.567,25.801v-0.877h0.446c0.338,0,0.549-0.04,0.631-0.121c0.081-0.08,0.122-0.278,0.122-0.593v-4.548
			c0-0.315-0.041-0.512-0.122-0.593c-0.082-0.081-0.293-0.121-0.631-0.121h-0.446v-0.871h4.351c1.34,0,2.352,0.326,3.038,0.978
			c0.687,0.652,1.029,1.611,1.029,2.878c0,1.267-0.345,2.228-1.032,2.884s-1.699,0.984-3.035,0.984H93.567z M96.379,24.924h1.004
			c0.6,0,1.047-0.047,1.345-0.141s0.554-0.253,0.77-0.478c0.216-0.225,0.386-0.547,0.511-0.967c0.125-0.419,0.188-0.888,0.188-1.405
			s-0.063-0.983-0.188-1.399s-0.295-0.737-0.511-0.961c-0.216-0.225-0.472-0.385-0.77-0.48c-0.298-0.096-0.745-0.144-1.345-0.144
			h-1.004V24.924z"/>
		<path class="st3" d="M102.833,25.801v-0.877h0.446c0.338,0,0.549-0.04,0.631-0.121c0.081-0.08,0.122-0.278,0.122-0.593v-4.548
			c0-0.315-0.041-0.512-0.122-0.593c-0.082-0.081-0.293-0.121-0.631-0.121h-0.446v-0.871h7.542v3.075h-0.87
			c-0.022-0.881-0.165-1.468-0.427-1.762c-0.262-0.294-0.793-0.441-1.593-0.441h-1.841v2.372h0.436c0.479,0,0.793-0.083,0.942-0.25
			c0.148-0.167,0.241-0.55,0.278-1.149l0.871-0.006v3.873l-0.871-0.005c-0.033-0.664-0.124-1.091-0.273-1.285
			c-0.148-0.193-0.461-0.29-0.937-0.29h-0.446v2.715h2.008c0.67,0,1.129-0.156,1.379-0.469c0.248-0.313,0.406-0.955,0.474-1.925
			h0.87v3.271H102.833z"/>
		<path class="st3" d="M111.457,18.077h4.111v0.871h-0.535c-0.342,0-0.555,0.042-0.639,0.124c-0.084,0.083-0.125,0.279-0.125,0.59
			v5.262h1.428c0.51,0,0.891-0.044,1.144-0.132c0.253-0.088,0.435-0.235,0.546-0.441c0.108-0.199,0.188-0.44,0.24-0.725
			c0.053-0.285,0.078-0.626,0.078-1.023v-0.141h0.882v3.339h-7.13v-0.877h0.447c0.338,0,0.548-0.04,0.63-0.121
			c0.081-0.08,0.122-0.278,0.122-0.593v-4.548c0-0.315-0.041-0.512-0.122-0.593c-0.082-0.081-0.292-0.121-0.63-0.121h-0.447V18.077z
			"/>
		<path class="st3" d="M25.166,39.616v-0.877h0.447c0.338,0,0.548-0.04,0.63-0.121c0.081-0.08,0.122-0.278,0.122-0.593v-4.548
			c0-0.315-0.041-0.512-0.122-0.593c-0.082-0.081-0.292-0.121-0.63-0.121h-0.447v-0.871h4.352c1.339,0,2.352,0.326,3.037,0.978
			c0.687,0.652,1.029,1.611,1.029,2.878c0,1.267-0.344,2.228-1.031,2.884c-0.688,0.656-1.699,0.984-3.035,0.984H25.166z
			 M27.978,38.739h1.004c0.599,0,1.047-0.047,1.344-0.141c0.298-0.094,0.555-0.253,0.77-0.478c0.217-0.225,0.387-0.547,0.512-0.967
			c0.124-0.419,0.187-0.888,0.187-1.405s-0.063-0.983-0.187-1.399c-0.125-0.416-0.295-0.737-0.512-0.961
			c-0.215-0.225-0.472-0.385-0.77-0.48c-0.297-0.096-0.745-0.144-1.344-0.144h-1.004V38.739z"/>
		<path class="st3" d="M34.455,39.616v-0.877h0.49c0.338,0,0.549-0.04,0.631-0.121c0.081-0.08,0.122-0.278,0.122-0.593v-4.548
			c0-0.315-0.041-0.512-0.122-0.593c-0.082-0.081-0.293-0.121-0.631-0.121h-0.49v-0.871h4.139v0.871h-0.491
			c-0.342,0-0.554,0.041-0.636,0.121s-0.123,0.278-0.123,0.593v4.548c0,0.315,0.041,0.513,0.123,0.593
			c0.082,0.081,0.294,0.121,0.636,0.121h0.491v0.877H34.455z"/>
		<path class="st3" d="M39.381,39.616v-3.188h0.893c0.123,0.769,0.404,1.356,0.848,1.763c0.442,0.406,1.018,0.61,1.724,0.61
			c0.509,0,0.899-0.086,1.169-0.259s0.404-0.421,0.404-0.748c0-0.292-0.104-0.53-0.31-0.714s-0.536-0.328-0.99-0.433l-1.244-0.292
			c-0.893-0.21-1.535-0.494-1.927-0.852c-0.393-0.357-0.589-0.836-0.589-1.436c0-0.727,0.251-1.31,0.753-1.748
			s1.174-0.658,2.014-0.658c0.416,0,0.807,0.064,1.169,0.194s0.715,0.329,1.058,0.599l0.4-0.562h0.687v2.923h-0.87
			c-0.13-0.701-0.404-1.244-0.822-1.63c-0.419-0.386-0.944-0.579-1.576-0.579c-0.461,0-0.818,0.087-1.071,0.261
			s-0.38,0.417-0.38,0.728c0,0.262,0.09,0.472,0.269,0.629c0.179,0.158,0.465,0.281,0.858,0.371l1.546,0.36
			c0.817,0.188,1.43,0.48,1.835,0.88c0.405,0.399,0.608,0.908,0.608,1.526c0,0.731-0.267,1.328-0.798,1.791s-1.222,0.694-2.07,0.694
			c-0.428,0-0.852-0.079-1.271-0.236c-0.42-0.157-0.846-0.397-1.277-0.719l-0.251,0.725H39.381z"/>
		<path class="st3" d="M46.498,39.616v-0.877h0.447c0.338,0,0.548-0.04,0.63-0.121c0.081-0.08,0.122-0.278,0.122-0.593v-4.548
			c0-0.315-0.041-0.512-0.122-0.593c-0.082-0.081-0.292-0.121-0.63-0.121h-0.447v-0.871h7.543v3.075H53.17
			c-0.021-0.881-0.164-1.468-0.426-1.762c-0.263-0.294-0.793-0.441-1.594-0.441h-1.84v2.372h0.435c0.479,0,0.794-0.083,0.942-0.25
			c0.148-0.167,0.242-0.55,0.279-1.149l0.87-0.006v3.873l-0.87-0.005c-0.033-0.664-0.125-1.091-0.273-1.285
			c-0.148-0.193-0.461-0.29-0.938-0.29H49.31v2.715h2.008c0.67,0,1.129-0.156,1.378-0.469s0.407-0.955,0.474-1.925h0.871v3.271
			H46.498z"/>
		<path class="st3" d="M62.916,39.616h-1.615l-3.813-6.296v4.705c0,0.315,0.041,0.513,0.123,0.593
			c0.082,0.081,0.291,0.121,0.63,0.121h0.524v0.877H55v-0.877h0.535c0.339,0,0.549-0.04,0.631-0.121
			c0.082-0.08,0.123-0.278,0.123-0.593v-4.548c0-0.315-0.041-0.512-0.123-0.593s-0.292-0.121-0.631-0.121h-0.49v-0.871h3.28
			l3.392,5.604v-4.02c0-0.315-0.041-0.512-0.123-0.593s-0.291-0.121-0.63-0.121h-0.542v-0.871h3.627v0.871H63.68
			c-0.342,0-0.555,0.042-0.639,0.124c-0.083,0.083-0.125,0.279-0.125,0.59V39.616z M58.197,30.864h-0.469
			c0.1-0.502,0.256-0.875,0.465-1.119c0.211-0.244,0.486-0.366,0.829-0.366c0.081,0,0.157,0.005,0.226,0.014
			s0.137,0.023,0.204,0.042l0.675,0.174c0.019,0.004,0.039,0.008,0.062,0.011c0.093,0.022,0.156,0.034,0.189,0.034
			c0.142,0,0.253-0.04,0.335-0.121s0.15-0.213,0.206-0.396h0.458c-0.098,0.487-0.254,0.858-0.469,1.113
			c-0.216,0.255-0.484,0.382-0.804,0.382c-0.056,0-0.114-0.005-0.176-0.014s-0.131-0.023-0.209-0.042l-0.653-0.186
			c-0.089-0.022-0.156-0.038-0.203-0.045c-0.047-0.008-0.084-0.011-0.114-0.011c-0.149,0-0.269,0.044-0.36,0.132
			C58.298,30.556,58.234,30.687,58.197,30.864z"/>
		<path class="st3" d="M64.662,35.748c0-1.222,0.388-2.206,1.163-2.954c0.776-0.748,1.796-1.121,3.06-1.121
			c1.269,0,2.289,0.374,3.061,1.121c0.771,0.748,1.157,1.732,1.157,2.954c0,1.226-0.387,2.213-1.16,2.962
			c-0.774,0.75-1.793,1.125-3.058,1.125c-1.264,0-2.283-0.375-3.06-1.127C65.05,37.957,64.662,36.97,64.662,35.748z M66.465,35.748
			c0,0.997,0.213,1.774,0.641,2.33c0.428,0.557,1.021,0.835,1.779,0.835c0.76,0,1.352-0.277,1.777-0.832s0.639-1.332,0.639-2.333
			c0-0.997-0.212-1.771-0.637-2.324c-0.424-0.553-1.017-0.829-1.779-0.829c-0.758,0-1.352,0.276-1.779,0.829
			S66.465,34.752,66.465,35.748z"/>
		<path class="st3" d="M77.342,39.616v-0.877h0.446c0.339,0,0.548-0.04,0.63-0.121c0.082-0.08,0.123-0.278,0.123-0.593v-4.548
			c0-0.315-0.041-0.512-0.123-0.593s-0.291-0.121-0.63-0.121h-0.446v-0.871h4.352c1.338,0,2.352,0.326,3.037,0.978
			c0.686,0.652,1.029,1.611,1.029,2.878c0,1.267-0.344,2.228-1.032,2.884s-1.699,0.984-3.034,0.984H77.342z M80.153,38.739h1.004
			c0.599,0,1.047-0.047,1.345-0.141c0.297-0.094,0.555-0.253,0.77-0.478c0.216-0.225,0.387-0.547,0.511-0.967
			c0.124-0.419,0.187-0.888,0.187-1.405s-0.063-0.983-0.187-1.399s-0.295-0.737-0.511-0.961c-0.215-0.225-0.473-0.385-0.77-0.48
			c-0.298-0.096-0.746-0.144-1.345-0.144h-1.004V38.739z"/>
		<path class="st3" d="M86.607,39.616v-0.877h0.447c0.338,0,0.548-0.04,0.63-0.121c0.081-0.08,0.122-0.278,0.122-0.593v-4.548
			c0-0.315-0.041-0.512-0.122-0.593c-0.082-0.081-0.292-0.121-0.63-0.121h-0.447v-0.871h7.543v3.075h-0.871
			c-0.021-0.881-0.164-1.468-0.426-1.762c-0.263-0.294-0.793-0.441-1.594-0.441h-1.84v2.372h0.435c0.479,0,0.794-0.083,0.942-0.25
			c0.148-0.167,0.242-0.55,0.279-1.149l0.87-0.006v3.873l-0.87-0.005c-0.033-0.664-0.125-1.091-0.273-1.285
			c-0.148-0.193-0.461-0.29-0.938-0.29H89.42v2.715h2.008c0.67,0,1.129-0.156,1.378-0.469s0.407-0.955,0.474-1.925h0.871v3.271
			H86.607z"/>
		<path class="st3" d="M95.232,31.892h4.111v0.871h-0.536c-0.343,0-0.556,0.042-0.639,0.124c-0.083,0.083-0.126,0.279-0.126,0.59
			v5.262h1.429c0.509,0,0.891-0.044,1.144-0.132c0.253-0.088,0.436-0.235,0.547-0.441c0.107-0.199,0.188-0.44,0.24-0.725
			c0.051-0.285,0.078-0.626,0.078-1.023v-0.141h0.881v3.339h-7.129v-0.877h0.445c0.339,0,0.549-0.04,0.631-0.121
			c0.082-0.08,0.123-0.278,0.123-0.593v-4.548c0-0.315-0.041-0.512-0.123-0.593s-0.292-0.121-0.631-0.121h-0.445V31.892z"/>
		<path class="st3" d="M44.803,53.431v-0.877h0.514c0.338,0,0.549-0.04,0.63-0.121c0.082-0.08,0.123-0.278,0.123-0.593v-4.992
			l-2.47,6.583h-0.756l-2.325-6.712v5.121c0,0.315,0.041,0.513,0.122,0.593c0.082,0.081,0.293,0.121,0.631,0.121h0.457v0.877h-3.575
			v-0.877h0.413c0.338,0,0.549-0.04,0.63-0.121c0.082-0.08,0.123-0.278,0.123-0.593v-4.548c0-0.315-0.041-0.512-0.123-0.593
			c-0.081-0.081-0.292-0.121-0.63-0.121h-0.413v-0.871h3.564l1.708,5.008l1.901-5.008h3.42v0.871h-0.436
			c-0.342,0-0.555,0.042-0.639,0.124c-0.083,0.083-0.126,0.279-0.126,0.59v4.548c0,0.311,0.043,0.508,0.126,0.59
			c0.084,0.083,0.297,0.124,0.639,0.124h0.436v0.877H44.803z"/>
		<path class="st3" d="M49.432,49.563c0-1.222,0.388-2.206,1.163-2.954c0.775-0.748,1.795-1.121,3.061-1.121
			c1.268,0,2.287,0.374,3.059,1.121c0.772,0.748,1.158,1.732,1.158,2.954c0,1.226-0.387,2.213-1.16,2.962
			c-0.773,0.75-1.793,1.125-3.057,1.125c-1.266,0-2.285-0.375-3.061-1.127S49.432,50.785,49.432,49.563z M51.234,49.563
			c0,0.997,0.215,1.774,0.642,2.33c0.428,0.557,1.021,0.835,1.78,0.835c0.758,0,1.351-0.277,1.776-0.832s0.639-1.332,0.639-2.333
			c0-0.997-0.212-1.771-0.636-2.324s-1.018-0.829-1.779-0.829c-0.76,0-1.353,0.276-1.78,0.829
			C51.449,47.792,51.234,48.567,51.234,49.563z M52.467,44.853l1.557-1.659c0.183-0.198,0.34-0.338,0.472-0.418
			s0.263-0.121,0.394-0.121c0.175,0,0.322,0.059,0.44,0.177c0.119,0.118,0.179,0.261,0.179,0.43c0,0.135-0.045,0.255-0.137,0.362
			s-0.24,0.213-0.449,0.318l-1.813,0.911H52.467z"/>
		<path class="st3" d="M58.549,53.431v-0.877h0.445c0.339,0,0.549-0.04,0.631-0.121c0.082-0.08,0.123-0.278,0.123-0.593v-4.548
			c0-0.315-0.041-0.512-0.123-0.593s-0.292-0.121-0.631-0.121h-0.445v-0.871h4.351c1.339,0,2.352,0.326,3.038,0.978
			c0.686,0.652,1.029,1.611,1.029,2.878c0,1.267-0.345,2.228-1.033,2.884c-0.688,0.656-1.699,0.984-3.034,0.984H58.549z
			 M61.359,52.554h1.004c0.6,0,1.047-0.047,1.346-0.141c0.297-0.094,0.554-0.253,0.77-0.478c0.215-0.225,0.386-0.547,0.51-0.967
			c0.125-0.419,0.188-0.888,0.188-1.405s-0.063-0.983-0.188-1.399c-0.124-0.416-0.295-0.737-0.51-0.961
			c-0.216-0.225-0.473-0.385-0.77-0.48c-0.299-0.096-0.746-0.144-1.346-0.144h-1.004V52.554z"/>
		<path class="st3" d="M68.913,47.292c0-0.315-0.041-0.512-0.123-0.593c-0.081-0.081-0.292-0.121-0.63-0.121h-0.369v-0.871h3.989
			v0.871h-0.491c-0.346,0-0.561,0.042-0.645,0.124c-0.083,0.083-0.125,0.279-0.125,0.59v3.699c0,0.54,0.127,0.93,0.379,1.169
			c0.253,0.24,0.66,0.36,1.223,0.36c0.531,0,0.933-0.128,1.204-0.385c0.271-0.256,0.407-0.638,0.407-1.144v-3.699
			c0-0.315-0.041-0.512-0.123-0.593c-0.081-0.081-0.291-0.121-0.63-0.121h-0.446v-0.871h3.509v0.871h-0.356
			c-0.339,0-0.549,0.041-0.631,0.121s-0.123,0.278-0.123,0.593v3.699c0,0.87-0.258,1.532-0.775,1.987
			c-0.517,0.456-1.268,0.683-2.254,0.683c-0.978,0-1.721-0.227-2.229-0.68s-0.761-1.117-0.761-1.99V47.292z"/>
		<path class="st3" d="M76.545,45.707h4.111v0.871H80.12c-0.343,0-0.556,0.042-0.639,0.124c-0.083,0.083-0.126,0.279-0.126,0.59
			v5.262h1.429c0.509,0,0.891-0.044,1.144-0.132c0.253-0.088,0.436-0.235,0.547-0.441c0.107-0.199,0.188-0.44,0.24-0.725
			c0.051-0.285,0.078-0.626,0.078-1.023v-0.141h0.881v3.339h-7.129v-0.877h0.445c0.339,0,0.549-0.04,0.631-0.121
			c0.082-0.08,0.123-0.278,0.123-0.593v-4.548c0-0.315-0.041-0.512-0.123-0.593s-0.292-0.121-0.631-0.121h-0.445V45.707z"/>
		<path class="st3" d="M84.621,49.563c0-1.222,0.389-2.206,1.164-2.954c0.775-0.748,1.795-1.121,3.06-1.121
			c1.269,0,2.288,0.374,3.06,1.121c0.771,0.748,1.158,1.732,1.158,2.954c0,1.226-0.387,2.213-1.16,2.962
			c-0.774,0.75-1.793,1.125-3.058,1.125s-2.284-0.375-3.06-1.127S84.621,50.785,84.621,49.563z M86.424,49.563
			c0,0.997,0.214,1.774,0.641,2.33c0.428,0.557,1.021,0.835,1.78,0.835s1.351-0.277,1.776-0.832s0.639-1.332,0.639-2.333
			c0-0.997-0.211-1.771-0.636-2.324c-0.424-0.553-1.017-0.829-1.779-0.829c-0.759,0-1.353,0.276-1.78,0.829
			C86.638,47.792,86.424,48.567,86.424,49.563z"/>
		<path class="st3" d="M25.041,67.246v-3.188h0.893c0.123,0.769,0.405,1.356,0.848,1.763c0.443,0.406,1.018,0.61,1.725,0.61
			c0.509,0,0.898-0.086,1.168-0.259s0.404-0.421,0.404-0.748c0-0.292-0.104-0.53-0.309-0.714c-0.207-0.184-0.537-0.328-0.99-0.433
			l-1.244-0.292c-0.893-0.21-1.535-0.494-1.928-0.852c-0.393-0.357-0.588-0.836-0.588-1.436c0-0.727,0.25-1.31,0.752-1.748
			s1.174-0.658,2.014-0.658c0.417,0,0.807,0.064,1.17,0.194c0.361,0.129,0.715,0.329,1.057,0.599l0.401-0.562h0.687v2.923h-0.871
			c-0.129-0.701-0.404-1.244-0.822-1.63c-0.418-0.386-0.943-0.579-1.576-0.579c-0.461,0-0.818,0.087-1.07,0.261
			c-0.254,0.174-0.38,0.417-0.38,0.728c0,0.262,0.089,0.472,0.269,0.629c0.178,0.158,0.465,0.281,0.858,0.371l1.546,0.36
			c0.817,0.188,1.43,0.48,1.834,0.88c0.406,0.399,0.609,0.908,0.609,1.526c0,0.731-0.267,1.328-0.799,1.791
			c-0.531,0.463-1.221,0.694-2.069,0.694c-0.428,0-0.852-0.079-1.272-0.236c-0.42-0.157-0.846-0.397-1.277-0.719l-0.25,0.725H25.041
			z"/>
		<path class="st3" d="M32.159,67.246V66.37h0.446c0.338,0,0.549-0.04,0.631-0.121c0.081-0.08,0.122-0.278,0.122-0.593v-4.548
			c0-0.315-0.041-0.512-0.122-0.593c-0.082-0.081-0.293-0.121-0.631-0.121h-0.446v-0.871h7.542v3.075h-0.87
			c-0.022-0.881-0.165-1.468-0.427-1.762c-0.262-0.294-0.793-0.441-1.593-0.441h-1.841v2.372h0.436c0.479,0,0.793-0.083,0.942-0.25
			c0.148-0.167,0.241-0.55,0.278-1.149l0.871-0.006v3.873l-0.871-0.005c-0.033-0.664-0.124-1.091-0.273-1.285
			c-0.148-0.193-0.461-0.29-0.937-0.29h-0.446v2.715h2.008c0.67,0,1.129-0.156,1.379-0.469c0.248-0.313,0.406-0.955,0.474-1.925
			h0.87v3.271H32.159z"/>
		<path class="st3" d="M47.07,64.256h0.982c-0.074,1.027-0.389,1.821-0.94,2.381s-1.299,0.84-2.239,0.84
			c-0.563,0-1.07-0.088-1.523-0.264s-0.859-0.446-1.216-0.81c-0.395-0.394-0.692-0.848-0.896-1.363
			c-0.203-0.515-0.305-1.069-0.305-1.661c0-0.596,0.1-1.142,0.297-1.639s0.494-0.945,0.893-1.346c0.36-0.363,0.764-0.638,1.21-0.824
			s0.927-0.278,1.439-0.278c0.409,0,0.795,0.064,1.157,0.194c0.363,0.129,0.719,0.329,1.068,0.599l0.229-0.691h0.826v3.165h-0.882
			c-0.089-0.738-0.324-1.31-0.706-1.714c-0.381-0.405-0.873-0.607-1.475-0.607c-0.703,0-1.255,0.283-1.654,0.849
			c-0.4,0.566-0.6,1.349-0.6,2.35c0,0.952,0.199,1.687,0.597,2.207s0.958,0.779,1.679,0.779c0.563,0,1.018-0.185,1.367-0.554
			S46.959,64.96,47.07,64.256z"/>
		<path class="st3" d="M49.972,61.108c0-0.315-0.041-0.512-0.123-0.593c-0.081-0.081-0.292-0.121-0.63-0.121h-0.369v-0.871h3.989
			v0.871h-0.491c-0.346,0-0.561,0.042-0.645,0.124c-0.083,0.083-0.125,0.279-0.125,0.59v3.699c0,0.54,0.127,0.93,0.379,1.169
			c0.253,0.24,0.66,0.36,1.223,0.36c0.531,0,0.933-0.128,1.204-0.385c0.271-0.256,0.407-0.638,0.407-1.144v-3.699
			c0-0.315-0.041-0.512-0.123-0.593c-0.081-0.081-0.291-0.121-0.63-0.121h-0.446v-0.871H57.1v0.871h-0.356
			c-0.339,0-0.549,0.041-0.631,0.121s-0.123,0.278-0.123,0.593v3.699c0,0.87-0.258,1.532-0.775,1.987
			c-0.517,0.456-1.268,0.683-2.254,0.683c-0.978,0-1.721-0.227-2.229-0.68s-0.761-1.117-0.761-1.99V61.108z"/>
		<path class="st3" d="M65.395,67.246H63.78l-3.813-6.296v4.705c0,0.315,0.041,0.513,0.122,0.593
			c0.082,0.081,0.293,0.121,0.631,0.121h0.524v0.877H57.48V66.37h0.535c0.338,0,0.549-0.04,0.63-0.121
			c0.082-0.08,0.123-0.278,0.123-0.593v-4.548c0-0.315-0.041-0.512-0.123-0.593c-0.081-0.081-0.292-0.121-0.63-0.121h-0.491v-0.871
			h3.28l3.392,5.604v-4.02c0-0.315-0.041-0.512-0.122-0.593c-0.082-0.081-0.293-0.121-0.631-0.121h-0.541v-0.871h3.626v0.871H66.16
			c-0.342,0-0.555,0.042-0.639,0.124c-0.084,0.083-0.126,0.279-0.126,0.59V67.246z"/>
		<path class="st3" d="M66.991,67.246V66.37h0.446c0.338,0,0.549-0.04,0.631-0.121c0.081-0.08,0.122-0.278,0.122-0.593v-4.548
			c0-0.315-0.041-0.512-0.122-0.593c-0.082-0.081-0.293-0.121-0.631-0.121h-0.446v-0.871h4.351c1.34,0,2.352,0.326,3.038,0.978
			c0.687,0.652,1.029,1.611,1.029,2.878c0,1.267-0.345,2.228-1.032,2.884s-1.699,0.984-3.035,0.984H66.991z M69.803,66.37h1.004
			c0.6,0,1.047-0.047,1.345-0.141s0.554-0.253,0.77-0.478c0.216-0.225,0.386-0.547,0.511-0.967c0.125-0.419,0.188-0.888,0.188-1.405
			s-0.063-0.983-0.188-1.399s-0.295-0.737-0.511-0.961c-0.216-0.225-0.472-0.385-0.77-0.48c-0.298-0.096-0.745-0.144-1.345-0.144
			h-1.004V66.37z"/>
		<path class="st3" d="M75.633,67.246V66.37h0.239c0.29,0,0.507-0.051,0.649-0.155c0.144-0.103,0.268-0.301,0.371-0.593l2.137-6.099
			h1.607l2.287,6.099c0.129,0.356,0.25,0.57,0.359,0.641c0.109,0.071,0.299,0.107,0.566,0.107h0.229v0.877h-3.967V66.37h0.619
			c0.25,0,0.418-0.021,0.506-0.064c0.087-0.043,0.131-0.121,0.131-0.233c0-0.042-0.007-0.088-0.02-0.141
			c-0.014-0.052-0.041-0.131-0.081-0.236l-0.329-0.911H78.41l-0.329,0.973c-0.007,0.026-0.021,0.066-0.039,0.118
			c-0.037,0.109-0.056,0.186-0.056,0.23c0,0.101,0.036,0.17,0.109,0.208c0.072,0.038,0.242,0.056,0.51,0.056h0.592v0.877H75.633z
			 M80.625,63.873l-0.993-2.67l-0.903,2.67H80.625z"/>
		<path class="st3" d="M87.096,65.656c0,0.311,0.043,0.508,0.126,0.59s0.296,0.124,0.639,0.124h0.536v0.877h-4.111V66.37h0.445
			c0.339,0,0.549-0.04,0.631-0.121c0.082-0.08,0.123-0.278,0.123-0.593v-4.548c0-0.315-0.041-0.512-0.123-0.593
			s-0.292-0.121-0.631-0.121h-0.445v-0.871h4.58c0.959,0,1.671,0.151,2.136,0.455s0.697,0.77,0.697,1.4
			c0,0.555-0.185,0.998-0.555,1.329c-0.37,0.332-0.916,0.541-1.638,0.627c0.547,0.083,0.93,0.239,1.146,0.469
			c0.218,0.23,0.346,0.631,0.383,1.2l0.05,0.691c0.019,0.27,0.052,0.446,0.101,0.529c0.048,0.083,0.128,0.124,0.24,0.124
			c0.223,0,0.342-0.421,0.356-1.265c0-0.015,0-0.026,0-0.034h0.726c0.007,0.048,0.012,0.1,0.014,0.154s0.002,0.132,0.002,0.233
			c0,0.708-0.127,1.226-0.381,1.551c-0.256,0.326-0.658,0.489-1.209,0.489c-0.453,0-0.809-0.125-1.064-0.376
			c-0.257-0.251-0.393-0.6-0.408-1.046l-0.033-0.905c-0.021-0.604-0.155-1.013-0.398-1.229c-0.244-0.215-0.706-0.323-1.387-0.323
			h-0.547V65.656z M87.096,62.721h1.351c0.543,0,0.94-0.093,1.194-0.278c0.252-0.186,0.379-0.48,0.379-0.885
			c0-0.416-0.121-0.714-0.363-0.894c-0.241-0.18-0.658-0.27-1.249-0.27h-1.312V62.721z"/>
		<path class="st3" d="M93.138,67.246V66.37h0.491c0.338,0,0.548-0.04,0.63-0.121c0.081-0.08,0.122-0.278,0.122-0.593v-4.548
			c0-0.315-0.041-0.512-0.122-0.593c-0.082-0.081-0.292-0.121-0.63-0.121h-0.491v-0.871h4.14v0.871h-0.492
			c-0.342,0-0.554,0.041-0.635,0.121c-0.082,0.081-0.123,0.278-0.123,0.593v4.548c0,0.315,0.041,0.513,0.123,0.593
			c0.081,0.081,0.293,0.121,0.635,0.121h0.492v0.877H93.138z"/>
		<path class="st3" d="M97.974,63.379c0-1.222,0.387-2.206,1.162-2.954c0.776-0.748,1.796-1.121,3.061-1.121
			c1.268,0,2.288,0.374,3.06,1.121c0.772,0.748,1.157,1.732,1.157,2.954c0,1.226-0.387,2.213-1.16,2.962
			c-0.773,0.75-1.793,1.125-3.057,1.125c-1.265,0-2.284-0.375-3.061-1.127C98.361,65.587,97.974,64.6,97.974,63.379z M99.776,63.379
			c0,0.997,0.214,1.774,0.642,2.33c0.428,0.557,1.021,0.835,1.779,0.835s1.352-0.277,1.777-0.832s0.639-1.332,0.639-2.333
			c0-0.997-0.213-1.771-0.637-2.324s-1.018-0.829-1.779-0.829c-0.759,0-1.352,0.276-1.779,0.829S99.776,62.382,99.776,63.379z"/>
	</g>
	<g>
		<linearGradient id="SVGID_2_" gradientUnits="userSpaceOnUse" x1="114.8191" y1="224.4196" x2="6.6313" y2="116.2318">
			<stop  offset="0" style="stop-color:#D018A2"/>
			<stop  offset="1" style="stop-color:#DA1D1D"/>
		</linearGradient>
		<path class="st4" d="M66.011,227.951c36.457,0,66.011-29.554,66.011-66.011H0C0,198.397,29.554,227.951,66.011,227.951z"/>
		<radialGradient id="SVGID_3_" cx="76.6362" cy="178.6427" r="47.8101" gradientUnits="userSpaceOnUse">
			<stop  offset="0" style="stop-color:#000000"/>
			<stop  offset="0.1832" style="stop-color:#333333"/>
			<stop  offset="0.5888" style="stop-color:#A0A0A0"/>
			<stop  offset="0.8695" style="stop-color:#E4E4E4"/>
			<stop  offset="1" style="stop-color:#FFFFFF"/>
		</radialGradient>
		<circle class="st5" cx="76.636" cy="178.643" r="47.81"/>
		<circle class="st1" cx="66.011" cy="161.94" r="48.901"/>
		
			<radialGradient id="SVGID_4_" cx="-442.3566" cy="164.3549" r="38.9231" gradientTransform="matrix(-1 0 0 -1 -369.0321 332.4173)" gradientUnits="userSpaceOnUse">
			<stop  offset="0" style="stop-color:#000000"/>
			<stop  offset="0.1832" style="stop-color:#333333"/>
			<stop  offset="0.5888" style="stop-color:#A0A0A0"/>
			<stop  offset="0.8695" style="stop-color:#E4E4E4"/>
			<stop  offset="1" style="stop-color:#FFFFFF"/>
		</radialGradient>
		<circle class="st6" cx="73.325" cy="168.062" r="38.923"/>
		<linearGradient id="SVGID_5_" gradientUnits="userSpaceOnUse" x1="100.7152" y1="196.6444" x2="41.5715" y2="137.5007">
			<stop  offset="0" style="stop-color:#D018A2"/>
			<stop  offset="1" style="stop-color:#DA1D1D"/>
		</linearGradient>
		<circle class="st7" cx="66.011" cy="161.94" r="35.044"/>
		<g>
			<g>
				<path class="st1" d="M35.426,160.879v0.936c0,0.278,0.036,0.454,0.109,0.525c0.072,0.071,0.26,0.107,0.563,0.107h0.273v0.776
					h-3.424v-0.776h0.398c0.302,0,0.489-0.036,0.563-0.107c0.072-0.071,0.109-0.247,0.109-0.525v-4.026
					c0-0.278-0.037-0.454-0.109-0.525c-0.073-0.071-0.261-0.107-0.563-0.107h-0.398v-0.771h3.474v0.771h-0.323
					c-0.303,0-0.49,0.036-0.563,0.107c-0.073,0.071-0.109,0.247-0.109,0.525v1.926l2.304-2.16c0.06-0.063,0.103-0.114,0.13-0.154
					c0.026-0.04,0.039-0.077,0.039-0.11c0-0.046-0.031-0.08-0.097-0.102c-0.064-0.021-0.167-0.032-0.306-0.032h-0.453v-0.771h3.449
					v0.771h-0.234c-0.269,0-0.533,0.067-0.794,0.202s-0.575,0.371-0.942,0.709l-0.996,0.916l2.076,2.946
					c0.148,0.209,0.285,0.348,0.407,0.416c0.123,0.068,0.313,0.102,0.572,0.102h0.349v0.776h-3.803v-0.776h0.548
					c0.179,0,0.296-0.013,0.349-0.04c0.053-0.027,0.08-0.075,0.08-0.145c0-0.043-0.011-0.089-0.03-0.139
					c-0.021-0.05-0.06-0.118-0.12-0.204l-1.408-2.021L35.426,160.879z"/>
				<path class="st1" d="M40.263,163.223v-0.776h0.214c0.26,0,0.452-0.045,0.58-0.137s0.238-0.266,0.331-0.525l1.905-5.4h1.434
					l2.041,5.4c0.115,0.315,0.223,0.504,0.32,0.567c0.098,0.063,0.267,0.095,0.506,0.095h0.203v0.776H44.26v-0.776h0.552
					c0.222,0,0.372-0.019,0.45-0.057s0.117-0.107,0.117-0.207c0-0.037-0.006-0.078-0.018-0.125s-0.035-0.116-0.072-0.209
					l-0.293-0.806h-2.255l-0.294,0.861c-0.006,0.023-0.018,0.058-0.035,0.104c-0.033,0.096-0.049,0.165-0.049,0.204
					c0,0.09,0.032,0.151,0.097,0.184c0.065,0.033,0.216,0.05,0.456,0.05h0.527v0.776H40.263z M44.717,160.237l-0.886-2.364
					l-0.806,2.364H44.717z"/>
				<path class="st1" d="M50.116,157.136h-0.134c-0.548,0-0.945,0.164-1.195,0.49c-0.248,0.327-0.377,0.857-0.388,1.59h-0.781
					v-2.832h6.439v2.832h-0.781c-0.007-0.724-0.134-1.251-0.384-1.583c-0.248-0.332-0.645-0.498-1.188-0.498h-0.149v4.678
					c0,0.275,0.037,0.449,0.111,0.522c0.075,0.073,0.266,0.109,0.57,0.109h0.582v0.776h-3.966v-0.776h0.592
					c0.302,0,0.489-0.036,0.563-0.107s0.109-0.247,0.109-0.525V157.136z"/>
				<path class="st1" d="M54.53,163.223v-0.776h0.397c0.303,0,0.49-0.036,0.563-0.107c0.073-0.071,0.109-0.247,0.109-0.525v-4.026
					c0-0.278-0.036-0.454-0.109-0.525c-0.072-0.071-0.26-0.107-0.563-0.107H54.53v-0.771h3.667v0.771h-0.477
					c-0.306,0-0.496,0.037-0.57,0.109c-0.074,0.073-0.111,0.248-0.111,0.522v1.513h2.955v-1.513c0-0.278-0.036-0.454-0.109-0.525
					c-0.072-0.071-0.26-0.107-0.563-0.107H58.84v-0.771h3.673v0.771h-0.398c-0.306,0-0.495,0.037-0.569,0.109
					c-0.074,0.073-0.112,0.248-0.112,0.522v4.026c0,0.275,0.038,0.449,0.112,0.522c0.074,0.073,0.264,0.109,0.569,0.109h0.398v0.776
					H58.84v-0.776h0.482c0.303,0,0.49-0.036,0.563-0.107c0.073-0.071,0.109-0.247,0.109-0.525v-1.692h-2.955v1.692
					c0,0.275,0.037,0.449,0.111,0.522c0.074,0.073,0.265,0.109,0.57,0.109h0.477v0.776H54.53z"/>
				<path class="st1" d="M62.98,163.223v-0.776h0.398c0.302,0,0.489-0.036,0.563-0.107c0.072-0.071,0.109-0.247,0.109-0.525v-4.026
					c0-0.278-0.037-0.454-0.109-0.525c-0.073-0.071-0.261-0.107-0.563-0.107H62.98v-0.771h6.729v2.722h-0.777
					c-0.02-0.779-0.146-1.299-0.38-1.56c-0.233-0.26-0.708-0.391-1.421-0.391h-1.643v2.1h0.389c0.428,0,0.708-0.074,0.841-0.221
					c0.133-0.148,0.216-0.487,0.249-1.018l0.776-0.005v3.429l-0.776-0.005c-0.029-0.587-0.111-0.966-0.244-1.137
					s-0.411-0.256-0.836-0.256h-0.398v2.404h1.792c0.597,0,1.007-0.139,1.229-0.416c0.222-0.277,0.363-0.845,0.422-1.705h0.777
					v2.896H62.98z"/>
				<path class="st1" d="M73.181,161.814c0,0.275,0.037,0.449,0.112,0.522c0.075,0.073,0.265,0.109,0.569,0.109h0.479v0.776h-3.668
					v-0.776h0.398c0.302,0,0.489-0.036,0.563-0.107c0.072-0.071,0.109-0.247,0.109-0.525v-4.026c0-0.278-0.037-0.454-0.109-0.525
					c-0.073-0.071-0.261-0.107-0.563-0.107h-0.398v-0.771h4.086c0.855,0,1.491,0.135,1.906,0.403
					c0.414,0.269,0.621,0.682,0.621,1.239c0,0.491-0.164,0.883-0.494,1.177s-0.817,0.479-1.461,0.555
					c0.487,0.073,0.828,0.212,1.022,0.416c0.194,0.204,0.308,0.559,0.341,1.063l0.045,0.612c0.017,0.239,0.047,0.395,0.09,0.468
					c0.043,0.073,0.114,0.109,0.214,0.109c0.198,0,0.306-0.373,0.318-1.12c0-0.013,0-0.023,0-0.03h0.647
					c0.006,0.043,0.01,0.089,0.012,0.137c0.002,0.048,0.002,0.117,0.002,0.207c0,0.627-0.113,1.085-0.34,1.374
					c-0.228,0.289-0.587,0.433-1.078,0.433c-0.404,0-0.721-0.111-0.95-0.333s-0.351-0.531-0.363-0.926l-0.03-0.801
					c-0.02-0.534-0.139-0.896-0.355-1.087c-0.217-0.191-0.629-0.287-1.236-0.287h-0.488V161.814z M73.181,159.217h1.205
					c0.484,0,0.839-0.083,1.064-0.247s0.338-0.425,0.338-0.784c0-0.368-0.107-0.632-0.322-0.792
					c-0.217-0.159-0.588-0.239-1.115-0.239h-1.17V159.217z"/>
				<path class="st1" d="M78.572,163.223v-0.776h0.438c0.302,0,0.489-0.036,0.563-0.107c0.072-0.071,0.109-0.247,0.109-0.525v-4.026
					c0-0.278-0.037-0.454-0.109-0.525c-0.073-0.071-0.261-0.107-0.563-0.107h-0.438v-0.771h3.691v0.771h-0.438
					c-0.305,0-0.494,0.036-0.567,0.107s-0.109,0.247-0.109,0.525v4.026c0,0.278,0.036,0.454,0.109,0.525s0.263,0.107,0.567,0.107
					h0.438v0.776H78.572z"/>
				<path class="st1" d="M89.704,163.223h-1.44l-3.402-5.574v4.166c0,0.278,0.037,0.454,0.11,0.525s0.261,0.107,0.562,0.107h0.469
					v0.776h-3.359v-0.776h0.478c0.302,0,0.489-0.036,0.563-0.107s0.109-0.247,0.109-0.525v-4.026c0-0.278-0.036-0.454-0.109-0.525
					s-0.261-0.107-0.563-0.107h-0.438v-0.771h2.927l3.026,4.962v-3.559c0-0.278-0.037-0.454-0.109-0.525
					c-0.074-0.071-0.262-0.107-0.563-0.107h-0.483v-0.771h3.235v0.771h-0.329c-0.306,0-0.495,0.037-0.569,0.109
					c-0.075,0.073-0.112,0.248-0.112,0.522V163.223z"/>
				<path class="st1" d="M91.127,163.223v-0.776h0.398c0.303,0,0.49-0.036,0.563-0.107s0.109-0.247,0.109-0.525v-4.026
					c0-0.278-0.037-0.454-0.109-0.525s-0.26-0.107-0.563-0.107h-0.398v-0.771h6.729v2.722h-0.776c-0.02-0.779-0.146-1.299-0.38-1.56
					c-0.234-0.26-0.708-0.391-1.422-0.391h-1.642v2.1h0.388c0.428,0,0.709-0.074,0.842-0.221c0.133-0.148,0.215-0.487,0.248-1.018
					l0.777-0.005v3.429l-0.777-0.005c-0.029-0.587-0.111-0.966-0.244-1.137s-0.41-0.256-0.836-0.256h-0.397v2.404h1.792
					c0.597,0,1.006-0.139,1.229-0.416s0.363-0.845,0.423-1.705h0.776v2.896H91.127z"/>
				<path class="st1" d="M42.415,170.018c0-0.278-0.036-0.453-0.109-0.524s-0.261-0.107-0.563-0.107h-0.478v-0.771h3.598v0.771
					h-0.309c-0.302,0-0.489,0.036-0.563,0.107c-0.072,0.071-0.109,0.246-0.109,0.524v3.255c0,0.491-0.039,0.862-0.119,1.114
					c-0.08,0.253-0.213,0.475-0.398,0.667s-0.432,0.341-0.736,0.445s-0.643,0.157-1.01,0.157c-0.638,0-1.158-0.16-1.563-0.48
					c-0.405-0.32-0.607-0.728-0.607-1.222c0-0.318,0.085-0.568,0.256-0.749s0.406-0.271,0.704-0.271
					c0.239,0,0.435,0.075,0.587,0.225c0.153,0.149,0.229,0.34,0.229,0.572c0,0.226-0.058,0.407-0.172,0.545
					s-0.286,0.234-0.515,0.291c0.129,0.106,0.258,0.184,0.385,0.231c0.129,0.048,0.269,0.072,0.422,0.072
					c0.395,0,0.671-0.101,0.83-0.302c0.16-0.2,0.239-0.567,0.239-1.102V170.018z"/>
				<path class="st1" d="M44.59,175.453v-0.776h0.214c0.259,0,0.452-0.046,0.579-0.137c0.129-0.092,0.238-0.267,0.332-0.525
					l1.905-5.399h1.434l2.04,5.399c0.116,0.315,0.223,0.505,0.321,0.567c0.098,0.063,0.267,0.095,0.505,0.095h0.204v0.776h-3.538
					v-0.776h0.553c0.222,0,0.371-0.019,0.449-0.058c0.078-0.038,0.117-0.106,0.117-0.206c0-0.036-0.006-0.078-0.018-0.124
					c-0.012-0.047-0.035-0.116-0.072-0.209l-0.293-0.807h-2.254l-0.294,0.861c-0.007,0.022-0.019,0.058-0.035,0.104
					c-0.033,0.096-0.05,0.164-0.05,0.204c0,0.089,0.033,0.15,0.098,0.184s0.216,0.05,0.455,0.05h0.527v0.776H44.59z M49.043,172.466
					l-0.885-2.363l-0.807,2.363H49.043z"/>
				<path class="st1" d="M58.24,175.453v-0.776h0.457c0.303,0,0.49-0.035,0.563-0.107c0.073-0.071,0.109-0.246,0.109-0.524v-4.419
					l-2.203,5.827h-0.674l-2.074-5.942v4.534c0,0.278,0.037,0.453,0.109,0.524c0.073,0.072,0.261,0.107,0.563,0.107h0.408v0.776
					h-3.189v-0.776h0.367c0.303,0,0.49-0.035,0.563-0.107c0.073-0.071,0.109-0.246,0.109-0.524v-4.026
					c0-0.278-0.036-0.453-0.109-0.524c-0.072-0.071-0.26-0.107-0.563-0.107h-0.367v-0.771h3.18l1.523,4.435l1.696-4.435h3.05v0.771
					H61.37c-0.306,0-0.495,0.036-0.569,0.109s-0.112,0.247-0.112,0.522v4.026c0,0.275,0.038,0.449,0.112,0.522
					s0.264,0.109,0.569,0.109h0.388v0.776H58.24z"/>
				<path class="st1" d="M61.857,175.453v-0.776h0.215c0.259,0,0.451-0.046,0.58-0.137c0.127-0.092,0.237-0.267,0.33-0.525
					l1.906-5.399h1.434l2.04,5.399c0.116,0.315,0.224,0.505,0.321,0.567c0.098,0.063,0.266,0.095,0.505,0.095h0.204v0.776h-3.538
					v-0.776h0.552c0.223,0,0.373-0.019,0.451-0.058c0.078-0.038,0.117-0.106,0.117-0.206c0-0.036-0.006-0.078-0.018-0.124
					c-0.012-0.047-0.036-0.116-0.072-0.209l-0.294-0.807h-2.255l-0.293,0.861c-0.007,0.022-0.019,0.058-0.035,0.104
					c-0.033,0.096-0.05,0.164-0.05,0.204c0,0.089,0.032,0.15,0.097,0.184c0.065,0.033,0.217,0.05,0.456,0.05h0.527v0.776H61.857z
					 M66.312,172.466l-0.887-2.363l-0.806,2.363H66.312z"/>
				<path class="st1" d="M76.529,175.453h-1.441l-3.401-5.573v4.165c0,0.278,0.036,0.453,0.11,0.524
					c0.072,0.072,0.26,0.107,0.562,0.107h0.468v0.776h-3.359v-0.776h0.479c0.301,0,0.488-0.035,0.563-0.107
					c0.072-0.071,0.109-0.246,0.109-0.524v-4.026c0-0.278-0.037-0.453-0.109-0.524c-0.074-0.071-0.262-0.107-0.563-0.107h-0.438
					v-0.771h2.927l3.025,4.962v-3.559c0-0.278-0.037-0.453-0.109-0.524c-0.073-0.071-0.261-0.107-0.563-0.107h-0.482v-0.771h3.234
					v0.771h-0.328c-0.306,0-0.496,0.036-0.57,0.109s-0.111,0.247-0.111,0.522V175.453z"/>
				<path class="st1" d="M83.56,172.805h0.876c-0.066,0.909-0.346,1.611-0.839,2.107c-0.492,0.496-1.158,0.744-1.998,0.744
					c-0.5,0-0.953-0.078-1.358-0.234c-0.405-0.155-0.767-0.395-1.085-0.716c-0.352-0.349-0.617-0.751-0.799-1.207
					c-0.181-0.456-0.271-0.946-0.271-1.471c0-0.527,0.088-1.011,0.264-1.45c0.176-0.44,0.441-0.837,0.797-1.192
					c0.322-0.322,0.682-0.565,1.08-0.729s0.826-0.246,1.283-0.246c0.365,0,0.71,0.057,1.033,0.171
					c0.323,0.115,0.641,0.291,0.953,0.53L83.7,168.5h0.736v2.802H83.65c-0.08-0.653-0.289-1.159-0.63-1.518
					c-0.34-0.358-0.778-0.538-1.315-0.538c-0.627,0-1.119,0.251-1.477,0.752c-0.356,0.501-0.535,1.194-0.535,2.08
					c0,0.843,0.178,1.494,0.533,1.953c0.355,0.46,0.854,0.689,1.498,0.689c0.5,0,0.907-0.163,1.219-0.49
					C83.256,173.904,83.461,173.429,83.56,172.805z"/>
				<path class="st1" d="M84.61,175.453v-0.776h0.214c0.26,0,0.452-0.046,0.58-0.137c0.128-0.092,0.238-0.267,0.331-0.525
					l1.905-5.399h1.434l2.041,5.399c0.115,0.315,0.223,0.505,0.32,0.567c0.098,0.063,0.267,0.095,0.506,0.095h0.203v0.776h-3.537
					v-0.776h0.552c0.222,0,0.372-0.019,0.45-0.058c0.078-0.038,0.117-0.106,0.117-0.206c0-0.036-0.006-0.078-0.018-0.124
					c-0.012-0.047-0.035-0.116-0.072-0.209l-0.293-0.807h-2.255l-0.294,0.861c-0.006,0.022-0.018,0.058-0.035,0.104
					c-0.033,0.096-0.049,0.164-0.049,0.204c0,0.089,0.032,0.15,0.097,0.184c0.065,0.033,0.216,0.05,0.456,0.05h0.527v0.776H84.61z
					 M89.064,172.466l-0.886-2.363l-0.806,2.363H89.064z"/>
			</g>
		</g>
	</g>
</g>
</svg>