<!-- Generator: Adobe Illustrator 22.0.0, SVG Export Plug-In  -->
<svg version="1.1"
	 xmlns="http://www.w3.org/2000/svg" xmlns:xlink="http://www.w3.org/1999/xlink" xmlns:a="http://ns.adobe.com/AdobeSVGViewerExtensions/3.0/"
	 x="0px" y="0px" width="174.484px" height="174.484px" viewBox="0 0 174.484 174.484"
	 style="overflow:scroll;enable-background:new 0 0 174.484 174.484;" xml:space="preserve">
<style type="text/css">
	.st0{fill:url(#SVGID_1_);}
	.st1{fill:url(#SVGID_2_);}
	.st2{fill:url(#SVGID_3_);}
	.st3{fill:url(#SVGID_4_);}
	.st4{fill:url(#SVGID_5_);}
	.st5{fill:#FFFFFF;}
	.st6{fill:url(#SVGID_6_);}
	.st7{fill:url(#SVGID_7_);}
	.st8{fill:url(#SVGID_8_);}
	.st9{fill:url(#SVGID_9_);}
	.st10{fill:url(#SVGID_10_);}
</style>
<defs>
</defs>
<linearGradient id="SVGID_1_" gradientUnits="userSpaceOnUse" x1="0" y1="87.2419" x2="174.4836" y2="87.2419">
	<stop  offset="0" style="stop-color:#BD4B49"/>
	<stop  offset="1" style="stop-color:#B43532"/>
</linearGradient>
<circle class="st0" cx="87.242" cy="87.242" r="87.242"/>
<linearGradient id="SVGID_2_" gradientUnits="userSpaceOnUse" x1="16.9519" y1="87.2419" x2="157.5319" y2="87.2419">
	<stop  offset="0" style="stop-color:#E2DDDD"/>
	<stop  offset="1" style="stop-color:#C4BEBD"/>
</linearGradient>
<circle class="st1" cx="87.242" cy="87.242" r="70.29"/>
<radialGradient id="SVGID_3_" cx="88.9568" cy="89.7691" r="75.9736" gradientUnits="userSpaceOnUse">
	<stop  offset="0.7955" style="stop-color:#FFFFFF"/>
	<stop  offset="0.8694" style="stop-color:#FEFEFE"/>
	<stop  offset="0.8984" style="stop-color:#F6F6F6"/>
	<stop  offset="0.9195" style="stop-color:#E5E3E4"/>
	<stop  offset="0.9368" style="stop-color:#CCC8CA"/>
	<stop  offset="0.9517" style="stop-color:#AEA7A9"/>
	<stop  offset="0.965" style="stop-color:#8D8586"/>
	<stop  offset="0.9771" style="stop-color:#6B6465"/>
	<stop  offset="0.9883" style="stop-color:#4B4545"/>
	<stop  offset="0.9984" style="stop-color:#2D2929"/>
	<stop  offset="1" style="stop-color:#272324"/>
</radialGradient>
<circle class="st2" cx="87.242" cy="87.242" r="70.29"/>
<radialGradient id="SVGID_4_" cx="94.3883" cy="96.1844" r="52.7667" gradientUnits="userSpaceOnUse">
	<stop  offset="0" style="stop-color:#070308"/>
	<stop  offset="1" style="stop-color:#FFFFFF"/>
</radialGradient>
<circle class="st3" cx="94.388" cy="96.184" r="52.767"/>
<linearGradient id="SVGID_5_" gradientUnits="userSpaceOnUse" x1="29.7292" y1="87.6613" x2="143.5933" y2="87.6613">
	<stop  offset="0" style="stop-color:#BD4B49"/>
	<stop  offset="1" style="stop-color:#B43532"/>
</linearGradient>
<circle class="st4" cx="86.661" cy="87.661" r="56.932"/>
<g>
	<g>
		<path class="st5" d="M55.44,78.285h-0.198c-0.806,0-1.392,0.24-1.758,0.721c-0.366,0.481-0.557,1.262-0.571,2.34h-1.15v-4.167
			h9.479v4.167h-1.15c-0.01-1.063-0.197-1.84-0.564-2.328c-0.365-0.488-0.949-0.732-1.75-0.732h-0.22v6.885
			c0,0.405,0.055,0.661,0.165,0.769c0.109,0.107,0.389,0.161,0.838,0.161h0.857v1.143h-5.838v-1.143h0.872
			c0.444,0,0.72-0.053,0.827-0.157c0.107-0.105,0.162-0.362,0.162-0.772V78.285z"/>
		<path class="st5" d="M61.966,87.242v-1.143h0.645c0.444,0,0.721-0.053,0.828-0.157c0.107-0.105,0.161-0.362,0.161-0.772v-5.926
			c0-0.41-0.054-0.668-0.161-0.772c-0.107-0.105-0.384-0.157-0.828-0.157h-0.645v-1.136h5.436v1.136h-0.645
			c-0.45,0-0.729,0.052-0.836,0.157c-0.107,0.104-0.16,0.362-0.16,0.772v5.926c0,0.41,0.053,0.667,0.16,0.772
			c0.107,0.104,0.386,0.157,0.836,0.157h0.645v1.143H61.966z"/>
		<path class="st5" d="M71.81,85.17c0,0.405,0.056,0.661,0.165,0.769c0.11,0.107,0.39,0.161,0.839,0.161h0.703v1.143h-5.398v-1.143
			h0.586c0.444,0,0.721-0.053,0.828-0.157c0.107-0.105,0.161-0.362,0.161-0.772v-5.926c0-0.41-0.054-0.668-0.161-0.772
			c-0.107-0.105-0.384-0.157-0.828-0.157h-0.586v-1.136h5.296c1.357,0,2.382,0.232,3.072,0.696c0.691,0.464,1.036,1.152,1.036,2.064
			c0,0.498-0.094,0.934-0.281,1.305c-0.188,0.371-0.473,0.686-0.854,0.944c-0.273,0.181-0.654,0.311-1.143,0.388
			c-0.488,0.079-1.17,0.117-2.043,0.117H71.81V85.17z M71.81,81.558h1.004c0.923,0,1.571-0.123,1.944-0.37
			c0.374-0.246,0.561-0.663,0.561-1.249c0-0.6-0.18-1.021-0.538-1.263c-0.359-0.242-1.054-0.362-2.084-0.362H71.81V81.558z"/>
		<path class="st5" d="M78.592,82.203c0-1.592,0.509-2.875,1.527-3.849c1.018-0.975,2.356-1.462,4.017-1.462
			c1.665,0,3.005,0.487,4.018,1.462c1.014,0.974,1.52,2.257,1.52,3.849c0,1.597-0.508,2.884-1.523,3.859
			c-1.016,0.978-2.354,1.465-4.014,1.465s-2.999-0.489-4.017-1.468C79.101,85.08,78.592,83.795,78.592,82.203z M80.958,82.203
			c0,1.299,0.28,2.311,0.842,3.036c0.562,0.725,1.34,1.087,2.336,1.087s1.774-0.36,2.333-1.084c0.56-0.722,0.839-1.735,0.839-3.039
			c0-1.299-0.278-2.309-0.835-3.028c-0.557-0.721-1.336-1.081-2.337-1.081c-0.996,0-1.774,0.36-2.336,1.081
			C81.238,79.894,80.958,80.904,80.958,82.203z"/>
		<path class="st5" d="M95.239,87.242v-1.143h0.586c0.444,0,0.721-0.053,0.828-0.157c0.107-0.105,0.161-0.362,0.161-0.772v-5.926
			c0-0.41-0.054-0.668-0.161-0.772c-0.107-0.105-0.384-0.157-0.828-0.157h-0.586v-1.136h5.713c1.758,0,3.088,0.425,3.988,1.274
			c0.901,0.85,1.352,2.1,1.352,3.75s-0.452,2.903-1.355,3.758s-2.231,1.281-3.984,1.281H95.239z M98.931,86.099h1.318
			c0.786,0,1.375-0.061,1.766-0.184c0.391-0.121,0.728-0.329,1.011-0.622s0.507-0.713,0.67-1.26
			c0.164-0.547,0.245-1.157,0.245-1.831s-0.081-1.281-0.245-1.824c-0.163-0.541-0.387-0.959-0.67-1.252s-0.62-0.502-1.011-0.626
			c-0.391-0.125-0.979-0.187-1.766-0.187h-1.318V86.099z"/>
		<path class="st5" d="M107.405,87.242v-1.143h0.586c0.444,0,0.721-0.053,0.828-0.157c0.107-0.105,0.161-0.362,0.161-0.772v-5.926
			c0-0.41-0.054-0.668-0.161-0.772c-0.107-0.105-0.384-0.157-0.828-0.157h-0.586v-1.136h9.902v4.007h-1.143
			c-0.029-1.147-0.216-1.913-0.56-2.297c-0.345-0.383-1.042-0.574-2.091-0.574h-2.418v3.09h0.572c0.629,0,1.042-0.108,1.237-0.325
			c0.195-0.218,0.317-0.717,0.366-1.498l1.143-0.007v5.046l-1.143-0.007c-0.044-0.865-0.164-1.423-0.359-1.674
			c-0.195-0.252-0.605-0.377-1.23-0.377h-0.586v3.537h2.637c0.879,0,1.482-0.204,1.81-0.611c0.327-0.408,0.534-1.244,0.622-2.509
			h1.143v4.263H107.405z"/>
		<path class="st5" d="M50.76,103.17c0,0.405,0.056,0.661,0.165,0.769c0.11,0.107,0.39,0.161,0.839,0.161h0.703v1.143h-5.398v-1.143
			h0.586c0.444,0,0.721-0.053,0.828-0.157c0.107-0.105,0.161-0.362,0.161-0.772v-5.926c0-0.41-0.054-0.668-0.161-0.772
			c-0.107-0.105-0.384-0.157-0.828-0.157h-0.586v-1.136h5.296c1.357,0,2.382,0.232,3.072,0.696c0.691,0.464,1.036,1.152,1.036,2.064
			c0,0.498-0.094,0.934-0.281,1.305c-0.188,0.371-0.473,0.686-0.854,0.944c-0.273,0.181-0.654,0.311-1.143,0.388
			c-0.488,0.079-1.17,0.117-2.043,0.117H50.76V103.17z M50.76,99.558h1.004c0.923,0,1.571-0.123,1.944-0.37
			c0.374-0.246,0.561-0.663,0.561-1.249c0-0.6-0.18-1.021-0.538-1.263c-0.359-0.242-1.054-0.362-2.084-0.362H50.76V99.558z"/>
		<path class="st5" d="M61.036,103.17c0,0.405,0.056,0.661,0.165,0.769c0.11,0.107,0.39,0.161,0.839,0.161h0.703v1.143h-5.398
			v-1.143h0.586c0.444,0,0.721-0.053,0.828-0.157c0.107-0.105,0.161-0.362,0.161-0.772v-5.926c0-0.41-0.054-0.668-0.161-0.772
			c-0.107-0.105-0.384-0.157-0.828-0.157h-0.586v-1.136h6.014c1.26,0,2.194,0.198,2.805,0.593c0.61,0.396,0.916,1.004,0.916,1.824
			c0,0.723-0.243,1.3-0.729,1.732c-0.486,0.432-1.203,0.704-2.15,0.816c0.719,0.107,1.22,0.312,1.506,0.611
			c0.285,0.301,0.452,0.822,0.502,1.564l0.065,0.9c0.024,0.352,0.068,0.581,0.132,0.688s0.168,0.161,0.314,0.161
			c0.293,0,0.449-0.549,0.469-1.648c0-0.019,0-0.033,0-0.043h0.953c0.009,0.063,0.016,0.13,0.018,0.201
			c0.003,0.07,0.004,0.172,0.004,0.304c0,0.923-0.167,1.597-0.502,2.021c-0.334,0.425-0.863,0.638-1.586,0.638
			c-0.596,0-1.062-0.164-1.398-0.491s-0.516-0.781-0.535-1.362l-0.043-1.18c-0.029-0.785-0.204-1.319-0.524-1.6
			c-0.319-0.281-0.927-0.422-1.819-0.422h-0.719V103.17z M61.036,99.345h1.773c0.712,0,1.234-0.12,1.566-0.362
			c0.332-0.241,0.498-0.626,0.498-1.153c0-0.542-0.158-0.93-0.476-1.164s-0.864-0.352-1.641-0.352h-1.722V99.345z"/>
		<path class="st5" d="M69.137,100.203c0-1.592,0.509-2.875,1.527-3.849c1.018-0.975,2.356-1.462,4.017-1.462
			c1.665,0,3.005,0.487,4.018,1.462c1.014,0.974,1.52,2.257,1.52,3.849c0,1.597-0.508,2.884-1.523,3.859
			c-1.016,0.978-2.354,1.465-4.014,1.465s-2.999-0.489-4.017-1.468C69.646,103.08,69.137,101.795,69.137,100.203z M71.503,100.203
			c0,1.299,0.28,2.311,0.842,3.036c0.562,0.725,1.34,1.087,2.336,1.087s1.774-0.36,2.333-1.084c0.56-0.722,0.839-1.735,0.839-3.039
			c0-1.299-0.278-2.309-0.835-3.028c-0.557-0.721-1.336-1.081-2.337-1.081c-0.996,0-1.774,0.36-2.336,1.081
			C71.783,97.894,71.503,98.904,71.503,100.203z M73.121,94.065l2.044-2.161c0.238-0.258,0.445-0.44,0.618-0.545
			c0.174-0.105,0.346-0.158,0.517-0.158c0.229,0,0.422,0.077,0.578,0.231c0.156,0.153,0.234,0.341,0.234,0.56
			c0,0.176-0.06,0.334-0.179,0.473c-0.12,0.14-0.316,0.277-0.59,0.414l-2.38,1.187H73.121z"/>
		<path class="st5" d="M84.782,96.285h-0.198c-0.806,0-1.392,0.24-1.758,0.721c-0.366,0.481-0.557,1.262-0.571,2.34h-1.15v-4.167
			h9.479v4.167h-1.15c-0.01-1.063-0.197-1.84-0.564-2.328c-0.365-0.488-0.949-0.732-1.75-0.732h-0.22v6.885
			c0,0.405,0.055,0.661,0.165,0.769c0.109,0.107,0.389,0.161,0.838,0.161h0.857v1.143h-5.838v-1.143h0.872
			c0.444,0,0.72-0.053,0.827-0.157c0.107-0.105,0.162-0.362,0.162-0.772V96.285z"/>
		<path class="st5" d="M91.277,105.242v-1.143h0.586c0.444,0,0.721-0.053,0.828-0.157c0.107-0.105,0.161-0.362,0.161-0.772v-5.926
			c0-0.41-0.054-0.668-0.161-0.772c-0.107-0.105-0.384-0.157-0.828-0.157h-0.586v-1.136h9.902v4.007h-1.143
			c-0.029-1.147-0.216-1.913-0.56-2.297c-0.345-0.383-1.042-0.574-2.091-0.574h-2.418v3.09h0.572c0.629,0,1.042-0.108,1.237-0.325
			c0.195-0.218,0.317-0.717,0.366-1.498l1.143-0.007v5.046l-1.143-0.007c-0.044-0.865-0.164-1.423-0.359-1.674
			c-0.195-0.252-0.605-0.377-1.23-0.377h-0.586v3.537h2.637c0.879,0,1.482-0.204,1.81-0.611c0.327-0.408,0.534-1.244,0.622-2.509
			h1.143v4.263H91.277z"/>
		<path class="st5" d="M102.916,105.242v-4.152h1.172c0.161,1.001,0.532,1.766,1.113,2.296c0.581,0.529,1.335,0.794,2.263,0.794
			c0.669,0,1.181-0.111,1.535-0.336c0.354-0.225,0.531-0.55,0.531-0.975c0-0.381-0.136-0.69-0.407-0.93
			c-0.271-0.239-0.704-0.428-1.3-0.564l-1.633-0.381c-1.172-0.273-2.016-0.644-2.531-1.109c-0.515-0.467-0.772-1.09-0.772-1.871
			c0-0.947,0.329-1.707,0.989-2.278c0.658-0.571,1.54-0.856,2.644-0.856c0.547,0,1.059,0.084,1.534,0.252
			c0.477,0.169,0.938,0.429,1.389,0.78l0.527-0.732h0.9v3.809h-1.143c-0.171-0.913-0.531-1.621-1.08-2.124
			c-0.55-0.503-1.239-0.754-2.069-0.754c-0.605,0-1.074,0.113-1.406,0.34c-0.332,0.228-0.498,0.544-0.498,0.949
			c0,0.342,0.117,0.615,0.352,0.82s0.61,0.365,1.128,0.482l2.029,0.469c1.073,0.245,1.877,0.627,2.409,1.146
			c0.532,0.521,0.798,1.184,0.798,1.988c0,0.953-0.349,1.73-1.047,2.333c-0.698,0.604-1.604,0.905-2.717,0.905
			c-0.563,0-1.119-0.104-1.67-0.309c-0.553-0.205-1.111-0.517-1.678-0.938l-0.33,0.945H102.916z"/>
		<path class="st5" d="M112.29,105.242v-1.143h0.645c0.444,0,0.721-0.053,0.828-0.157c0.107-0.105,0.161-0.362,0.161-0.772v-5.926
			c0-0.41-0.054-0.668-0.161-0.772c-0.107-0.105-0.384-0.157-0.828-0.157h-0.645v-1.136h5.436v1.136h-0.645
			c-0.45,0-0.729,0.052-0.836,0.157c-0.107,0.104-0.16,0.362-0.16,0.772v5.926c0,0.41,0.053,0.667,0.16,0.772
			c0.107,0.104,0.386,0.157,0.836,0.157h0.645v1.143H112.29z"/>
		<path class="st5" d="M118.758,105.242v-4.152h1.172c0.161,1.001,0.532,1.766,1.113,2.296c0.581,0.529,1.335,0.794,2.263,0.794
			c0.669,0,1.181-0.111,1.535-0.336c0.354-0.225,0.531-0.55,0.531-0.975c0-0.381-0.136-0.69-0.407-0.93
			c-0.271-0.239-0.704-0.428-1.3-0.564l-1.633-0.381c-1.172-0.273-2.016-0.644-2.531-1.109c-0.515-0.467-0.772-1.09-0.772-1.871
			c0-0.947,0.329-1.707,0.989-2.278c0.658-0.571,1.54-0.856,2.644-0.856c0.547,0,1.059,0.084,1.534,0.252
			c0.477,0.169,0.938,0.429,1.389,0.78l0.527-0.732h0.9v3.809h-1.143c-0.171-0.913-0.531-1.621-1.08-2.124
			c-0.55-0.503-1.239-0.754-2.069-0.754c-0.605,0-1.074,0.113-1.406,0.34c-0.332,0.228-0.498,0.544-0.498,0.949
			c0,0.342,0.117,0.615,0.352,0.82s0.61,0.365,1.128,0.482l2.029,0.469c1.073,0.245,1.877,0.627,2.409,1.146
			c0.532,0.521,0.798,1.184,0.798,1.988c0,0.953-0.349,1.73-1.047,2.333c-0.698,0.604-1.604,0.905-2.717,0.905
			c-0.563,0-1.119-0.104-1.67-0.309c-0.553-0.205-1.111-0.517-1.678-0.938l-0.33,0.945H118.758z"/>
	</g>
</g>
</svg>