<!-- Generator: Adobe Illustrator 22.0.0, SVG Export Plug-In  -->
<svg version="1.1"
	 xmlns="http://www.w3.org/2000/svg" xmlns:xlink="http://www.w3.org/1999/xlink" xmlns:a="http://ns.adobe.com/AdobeSVGViewerExtensions/3.0/"
	 x="0px" y="0px" width="195.432px" height="133.57px" viewBox="0 0 195.432 133.57"
	 style="overflow:scroll;enable-background:new 0 0 195.432 133.57;" xml:space="preserve">
<style type="text/css">
	.st0{fill:url(#SVGID_1_);}
	.st1{fill:url(#SVGID_2_);}
	.st2{fill:url(#SVGID_3_);}
	.st3{fill:url(#SVGID_4_);}
	.st4{fill:url(#SVGID_5_);}
	.st5{fill:url(#SVGID_6_);}
	.st6{fill:url(#SVGID_7_);}
	.st7{fill:url(#SVGID_8_);}
	.st8{fill:url(#SVGID_9_);}
	.st9{fill:#FFFFFF;}
	.st10{fill:url(#SVGID_10_);}
	.st11{fill:url(#SVGID_11_);}
	.st12{fill:url(#SVGID_12_);}
	.st13{fill:url(#SVGID_13_);}
	.st14{fill:url(#SVGID_14_);}
	.st15{fill:url(#SVGID_15_);}
	.st16{fill:url(#SVGID_16_);}
	.st17{fill:url(#SVGID_17_);}
	.st18{fill:url(#SVGID_18_);}
	.st19{font-family:'ClarendonBT-Roman';}
	.st20{font-size:39.2376px;}
</style>
<defs>
</defs>
<g>
	
		<linearGradient id="SVGID_1_" gradientUnits="userSpaceOnUse" x1="-391.8032" y1="285.3787" x2="-447.9304" y2="229.2514" gradientTransform="matrix(-1 0 0 -1 -380.4426 309.6815)">
		<stop  offset="0" style="stop-color:#E2DDDD"/>
		<stop  offset="1" style="stop-color:#C4BEBD"/>
	</linearGradient>
	<path class="st0" d="M2.843,72.014l16.187,22.347c2.796,3.861,7.312,6.165,12.079,6.165h44.633V26.033H31.106
		c-4.764,0-9.277,2.302-12.073,6.158L2.848,54.51C-0.948,59.744-0.95,66.778,2.843,72.014z"/>
	
		<linearGradient id="SVGID_2_" gradientUnits="userSpaceOnUse" x1="-533.6111" y1="30.8292" x2="-533.6111" y2="3.2406" gradientTransform="matrix(-1 0 0 1 -486.0024 0)">
		<stop  offset="0" style="stop-color:#FFFFFF"/>
		<stop  offset="1" style="stop-color:#070308"/>
	</linearGradient>
	<path class="st1" d="M19.543,31.519c2.818-3.422,7.038-5.458,11.498-5.458h44.633v5.458H19.543z"/>
</g>
<linearGradient id="SVGID_3_" gradientUnits="userSpaceOnUse" x1="9.0616" y1="63.2768" x2="78.155" y2="63.2768">
	<stop  offset="0" style="stop-color:#E5C239"/>
	<stop  offset="1" style="stop-color:#DC9831"/>
</linearGradient>
<path class="st2" d="M32.957,93.287h45.198V63.26V33.267H32.954c-2.495,0-4.839,1.196-6.304,3.215L10.545,58.691
	c-1.977,2.726-1.978,6.413-0.003,9.139l16.108,22.238C28.115,92.09,30.46,93.287,32.957,93.287z"/>
<radialGradient id="SVGID_4_" cx="-513.4512" cy="238.5348" r="62.4233" gradientTransform="matrix(-1 0 0 -1 -380.4426 309.6815)" gradientUnits="userSpaceOnUse">
	<stop  offset="0" style="stop-color:#070308"/>
	<stop  offset="1" style="stop-color:#FFFFFF"/>
</radialGradient>
<circle class="st3" cx="133.009" cy="71.147" r="62.423"/>
<linearGradient id="SVGID_5_" gradientUnits="userSpaceOnUse" x1="168.9698" y1="108.2751" x2="76.8462" y2="16.1514">
	<stop  offset="0" style="stop-color:#DC9831"/>
	<stop  offset="1" style="stop-color:#E5C239"/>
</linearGradient>
<circle class="st4" cx="123.969" cy="63.275" r="63.275"/>
<linearGradient id="SVGID_6_" gradientUnits="userSpaceOnUse" x1="-555.3919" y1="246.4068" x2="-453.4322" y2="246.4068" gradientTransform="matrix(-1 0 0 -1 -380.4426 309.6815)">
	<stop  offset="0" style="stop-color:#E2DDDD"/>
	<stop  offset="1" style="stop-color:#C4BEBD"/>
</linearGradient>
<circle class="st5" cx="123.969" cy="63.275" r="50.98"/>
<radialGradient id="SVGID_7_" cx="160.0873" cy="195.1227" r="55.102" gradientTransform="matrix(1 0 0 1 -34.874 -130.0151)" gradientUnits="userSpaceOnUse">
	<stop  offset="0.7955" style="stop-color:#FFFFFF"/>
	<stop  offset="0.8694" style="stop-color:#FEFEFE"/>
	<stop  offset="0.8984" style="stop-color:#F6F6F6"/>
	<stop  offset="0.9195" style="stop-color:#E5E3E4"/>
	<stop  offset="0.9368" style="stop-color:#CCC8CA"/>
	<stop  offset="0.9517" style="stop-color:#AEA7A9"/>
	<stop  offset="0.965" style="stop-color:#8D8586"/>
	<stop  offset="0.9771" style="stop-color:#6B6465"/>
	<stop  offset="0.9883" style="stop-color:#4B4545"/>
	<stop  offset="0.9984" style="stop-color:#2D2929"/>
	<stop  offset="1" style="stop-color:#272324"/>
</radialGradient>
<circle class="st6" cx="123.969" cy="63.275" r="50.98"/>
<radialGradient id="SVGID_8_" cx="-511.293" cy="237.2489" r="38.2706" gradientTransform="matrix(-1 0 0 -1 -380.4426 309.6815)" gradientUnits="userSpaceOnUse">
	<stop  offset="0" style="stop-color:#070308"/>
	<stop  offset="1" style="stop-color:#FFFFFF"/>
</radialGradient>
<circle class="st7" cx="130.85" cy="72.433" r="38.271"/>
<linearGradient id="SVGID_9_" gradientUnits="userSpaceOnUse" x1="169.2816" y1="106.239" x2="104.4335" y2="41.3909">
	<stop  offset="0" style="stop-color:#DC9831"/>
	<stop  offset="1" style="stop-color:#E5C239"/>
</linearGradient>
<circle class="st8" cx="125.72" cy="62.678" r="30.833"/>
<g>
	<g>
		<path class="st9" d="M103.193,63.515c0-3.742,1.024-6.782,3.075-9.119c2.05-2.338,4.703-3.506,7.96-3.506s5.917,1.172,7.979,3.516
			s3.095,5.381,3.095,9.109c0,3.743-1.032,6.779-3.095,9.11s-4.723,3.497-7.979,3.497s-5.91-1.166-7.96-3.497
			C104.217,70.294,103.193,67.258,103.193,63.515z M109.286,63.515c0,3.296,0.396,5.71,1.188,7.242c0.792,1.533,2.043,2.3,3.755,2.3
			s2.97-0.77,3.774-2.309s1.207-3.95,1.207-7.233c0-3.282-0.402-5.696-1.207-7.241c-0.805-1.546-2.063-2.318-3.774-2.318
			c-1.698,0-2.947,0.775-3.745,2.327C109.684,57.835,109.286,60.245,109.286,63.515z"/>
		<path class="st9" d="M128.272,75.604c-0.014-0.128-0.022-0.262-0.029-0.402c-0.006-0.141-0.01-0.357-0.01-0.651
			c0-2.057,0.447-3.819,1.342-5.288c0.894-1.469,2.305-2.752,4.234-3.851c0.805-0.473,1.839-1.006,3.104-1.6
			c1.265-0.595,2.088-0.993,2.472-1.198c0.805-0.434,1.437-1.044,1.896-1.829c0.46-0.786,0.689-1.664,0.689-2.635
			c0-1.315-0.505-2.397-1.514-3.247s-2.299-1.274-3.87-1.274c-1.149,0-2.146,0.259-2.988,0.776
			c-0.844,0.517-1.495,1.268-1.954,2.251c0.204-0.063,0.414-0.111,0.632-0.144c0.217-0.032,0.453-0.048,0.709-0.048
			c0.817,0,1.472,0.233,1.964,0.699c0.491,0.466,0.737,1.096,0.737,1.887c0,0.92-0.291,1.667-0.872,2.242
			c-0.581,0.574-1.338,0.862-2.27,0.862c-1.086,0-1.983-0.387-2.692-1.159c-0.709-0.773-1.063-1.76-1.063-2.96
			c0-1.967,0.885-3.65,2.654-5.049c1.769-1.398,3.943-2.098,6.523-2.098c3.014,0,5.422,0.709,7.223,2.126
			c1.801,1.418,2.701,3.296,2.701,5.633c0,1.968-0.556,3.503-1.667,4.608c-1.11,1.104-3.097,2.021-5.958,2.749l-0.115,0.02
			c-4.61,1.149-7.459,2.842-8.545,5.077c0.523-0.346,1.063-0.604,1.619-0.776s1.152-0.259,1.791-0.259
			c1.048,0,2.472,0.211,4.272,0.633c1.802,0.421,3.047,0.632,3.736,0.632c1.073,0,1.858-0.335,2.356-1.006s0.799-1.811,0.9-3.42
			h2.242v0.536c0,2.747-0.534,4.88-1.6,6.399c-1.067,1.521-2.564,2.28-4.493,2.28c-0.702,0-1.504-0.128-2.404-0.384
			s-1.9-0.639-2.999-1.149c-0.229-0.115-0.562-0.287-0.996-0.518c-1.431-0.753-2.522-1.13-3.276-1.13
			c-0.664,0-1.172,0.214-1.522,0.642c-0.352,0.429-0.578,1.102-0.681,2.021H128.272z"/>
	</g>
</g>
</svg>