<!-- Generator: Adobe Illustrator 22.0.0, SVG Export Plug-In  -->
<svg version="1.1"
	 xmlns="http://www.w3.org/2000/svg" xmlns:xlink="http://www.w3.org/1999/xlink" xmlns:a="http://ns.adobe.com/AdobeSVGViewerExtensions/3.0/"
	 x="0px" y="0px" width="59.503px" height="57.999px" viewBox="0 0 59.503 57.999"
	 style="overflow:scroll;enable-background:new 0 0 59.503 57.999;" xml:space="preserve">
<style type="text/css">
	.st0{fill:url(#SVGID_1_);}
	.st1{fill:url(#SVGID_2_);}
</style>
<defs>
</defs>
<linearGradient id="SVGID_1_" gradientUnits="userSpaceOnUse" x1="0" y1="28.9994" x2="59.5032" y2="28.9994">
	<stop  offset="0" style="stop-color:#2E3192"/>
	<stop  offset="0.0985" style="stop-color:#28429F"/>
	<stop  offset="0.3868" style="stop-color:#1771C1"/>
	<stop  offset="0.6429" style="stop-color:#0A92DA"/>
	<stop  offset="0.8547" style="stop-color:#03A7E9"/>
	<stop  offset="0.9961" style="stop-color:#00AEEF"/>
</linearGradient>
<path class="st0" d="M49.118,40.522c-1.393-1.358-3.359-1.787-5.135-1.329l-2.961-2.886C44.129,32.484,46,27.665,46,22.42
	C46,10.057,35.682,0,23.001,0C10.318,0,0,10.057,0,22.42C0,34.78,10.318,44.837,23.001,44.837c5.381,0,10.326-1.824,14.248-4.853
	l2.961,2.886c-0.47,1.732-0.03,3.649,1.363,5.006l8.822,8.6c1.042,1.016,2.407,1.523,3.772,1.523c1.365,0,2.73-0.508,3.772-1.523
	c2.084-2.03,2.084-5.324,0-7.354L49.118,40.522z M23.001,39.637c-9.741,0-17.666-7.724-17.666-17.217
	C5.335,12.925,13.26,5.2,23.001,5.2c9.739,0,17.664,7.724,17.664,17.219C40.665,31.913,32.741,39.637,23.001,39.637z"/>
</svg>