<!-- Generator: Adobe Illustrator 22.0.0, SVG Export Plug-In  -->
<svg version="1.1"
	 xmlns="http://www.w3.org/2000/svg" xmlns:xlink="http://www.w3.org/1999/xlink" xmlns:a="http://ns.adobe.com/AdobeSVGViewerExtensions/3.0/"
	 x="0px" y="0px" width="621.104px" height="70.803px" viewBox="0 0 621.104 70.803"
	 style="overflow:scroll;enable-background:new 0 0 621.104 70.803;" xml:space="preserve">
<style type="text/css">
	.st0{fill:#CB6120;}
	.st1{font-family:'FranklinGothic-Heavy';}
	.st2{font-size:20px;}
</style>
<defs>
</defs>
<g>
	<path class="st0" d="M286.729,13.486v3.184h-10.029V3.34h10.029v3.076h-6.016V8.35h4.863v2.959h-4.863v2.178H286.729z"/>
	<path class="st0" d="M296.68,11.68h-4.346v4.99h-3.984V3.34h9.639v3.174h-5.654v2.168h4.346V11.68z"/>
	<path class="st0" d="M309.316,13.486v3.184h-10.029V3.34h10.029v3.076h-6.016V8.35h4.863v2.959h-4.863v2.178H309.316z"/>
	<path class="st0" d="M318.271,11.582l3.74,0.225c-0.176,1.635-0.779,2.888-1.812,3.76c-1.032,0.873-2.3,1.309-3.804,1.309
		c-1.81,0-3.271-0.599-4.385-1.797c-1.113-1.197-1.67-2.852-1.67-4.961c0-2.09,0.527-3.775,1.582-5.059
		c1.055-1.282,2.526-1.924,4.414-1.924c1.765,0,3.12,0.488,4.067,1.465s1.482,2.272,1.606,3.887l-3.818,0.205
		c0-0.892-0.171-1.536-0.513-1.934c-0.342-0.396-0.744-0.596-1.206-0.596c-1.289,0-1.934,1.296-1.934,3.887
		c0,1.452,0.168,2.438,0.503,2.959c0.335,0.521,0.806,0.781,1.411,0.781C317.536,13.789,318.142,13.054,318.271,11.582z"/>
	<path class="st0" d="M328.984,6.533V16.67h-3.877V6.533h-2.764V3.34h9.404v3.193H328.984z"/>
	<path class="st0" d="M338.672,16.875c-1.875,0-3.403-0.621-4.585-1.865c-1.182-1.243-1.772-2.906-1.772-4.99
		c0-1.992,0.564-3.638,1.694-4.937s2.697-1.948,4.702-1.948c1.855,0,3.367,0.612,4.536,1.836C344.416,6.195,345,7.829,345,9.873
		c0,2.116-0.589,3.813-1.768,5.088C342.054,16.237,340.534,16.875,338.672,16.875z M338.652,13.848c0.69,0,1.187-0.301,1.489-0.903
		c0.303-0.602,0.454-1.704,0.454-3.306c0-2.317-0.622-3.477-1.865-3.477c-1.341,0-2.012,1.322-2.012,3.965
		C336.719,12.607,337.363,13.848,338.652,13.848z"/>
	<path d="M1.162,40.67V27.34H7.93c1.406,0,2.432,0.354,3.076,1.064s0.967,1.521,0.967,2.432c0,0.664-0.187,1.265-0.562,1.802
		s-0.933,0.906-1.675,1.108c1.725,0.417,2.588,1.452,2.588,3.105c0,0.989-0.304,1.873-0.913,2.651S9.502,40.67,7.51,40.67H1.162z
		 M4.932,32.447h1.895c0.475,0,0.811-0.12,1.006-0.361s0.293-0.498,0.293-0.771c0-0.742-0.456-1.113-1.367-1.113H4.932V32.447z
		 M4.932,37.701h1.992c0.495,0,0.858-0.122,1.089-0.366s0.347-0.52,0.347-0.825s-0.112-0.588-0.337-0.845s-0.636-0.386-1.235-0.386
		H4.932V37.701z"/>
	<path d="M21.364,40.67l-0.753-2.627H17.04l-0.8,2.627h-3.322l4.115-13.33h4.326l4.181,13.33H21.364z M17.735,35.133h2.157
		l-1.079-3.867L17.735,35.133z"/>
	<path d="M32.9,27.34v8.398c0,1.289-0.116,2.271-0.347,2.944s-0.682,1.208-1.353,1.602s-1.579,0.591-2.725,0.591
		c-1.009,0-1.92-0.107-2.734-0.322v-3.184c0.573,0.163,1.107,0.244,1.602,0.244c0.586,0,1.002-0.135,1.25-0.405
		s0.371-0.76,0.371-1.47V27.34H32.9z"/>
	<path d="M42.194,40.67l-0.753-2.627H37.87l-0.8,2.627h-3.322l4.115-13.33h4.326l4.181,13.33H42.194z M38.565,35.133h2.157
		l-1.079-3.867L38.565,35.133z"/>
	<path d="M59.948,40.67l-0.753-2.627h-3.571l-0.8,2.627h-3.322l4.115-13.33h4.326l4.181,13.33H59.948z M56.319,35.133h2.157
		l-1.079-3.867L56.319,35.133z"/>
	<path d="M65.352,40.67V27.34h5.156c2.24,0,3.916,0.664,5.029,1.992s1.67,2.864,1.67,4.609c0,1.992-0.597,3.611-1.792,4.858
		s-2.746,1.87-4.653,1.87H65.352z M69.443,37.604h1.064c0.677,0,1.249-0.329,1.714-0.986s0.698-1.553,0.698-2.686
		c0-0.97-0.207-1.807-0.62-2.51s-1.011-1.055-1.792-1.055h-1.064V37.604z"/>
	<path d="M90.244,27.34v13.33h-4.092v-5.186h-3.125v5.186h-4.092V27.34h4.092v4.902h3.125V27.34H90.244z"/>
	<path d="M102.588,37.486v3.184H92.559V27.34h10.029v3.076h-6.016v1.934h4.863v2.959h-4.863v2.178H102.588z"/>
	<path d="M116.074,40.67h-4.536l-1.947-5.098h-1.29v5.098h-4.092V27.34h6.963c1.537,0,2.729,0.359,3.579,1.079
		s1.274,1.668,1.274,2.847c0,0.769-0.156,1.447-0.469,2.036s-0.944,1.108-1.895,1.558L116.074,40.67z M108.301,32.721h1.748
		c0.514,0,0.928-0.107,1.24-0.322s0.469-0.53,0.469-0.947c0-0.853-0.524-1.279-1.572-1.279h-1.885V32.721z"/>
	<path d="M128.037,37.486v3.184h-10.029V27.34h10.029v3.076h-6.016v1.934h4.863v2.959h-4.863v2.178H128.037z"/>
	<path d="M141.055,40.67h-3.33l-3.651-5.89c-0.469-0.756-0.941-1.673-1.417-2.753c0.215,0.859,0.322,1.589,0.322,2.188v6.455h-3.32
		V27.34h3.867l3.106,4.883c0.619,0.97,1.087,1.823,1.406,2.559c-0.208-1.14-0.313-2.305-0.313-3.496V27.34h3.33V40.67z"/>
	<path d="M150.713,35.582l3.74,0.225c-0.176,1.634-0.78,2.888-1.812,3.76s-2.3,1.309-3.804,1.309c-1.81,0-3.271-0.599-4.385-1.797
		s-1.67-2.852-1.67-4.961c0-2.09,0.527-3.776,1.582-5.059s2.526-1.924,4.414-1.924c1.764,0,3.12,0.488,4.067,1.465
		s1.483,2.272,1.606,3.887l-3.818,0.205c0-0.892-0.171-1.536-0.513-1.934s-0.744-0.596-1.206-0.596
		c-1.289,0-1.934,1.296-1.934,3.887c0,1.452,0.167,2.438,0.503,2.959s0.806,0.781,1.411,0.781
		C149.977,37.789,150.583,37.054,150.713,35.582z"/>
	<path d="M160.039,27.34v13.33h-4.092V27.34H160.039z"/>
	<path d="M169.713,40.67l-0.753-2.627h-3.571l-0.8,2.627h-3.322l4.115-13.33h4.326l4.181,13.33H169.713z M166.085,35.133h2.157
		l-1.079-3.867L166.085,35.133z"/>
	<path d="M187.467,40.67l-0.753-2.627h-3.571l-0.8,2.627h-3.322l4.115-13.33h4.326l4.181,13.33H187.467z M183.839,35.133h2.157
		l-1.079-3.867L183.839,35.133z"/>
	<path d="M202.217,37.398v3.271h-9.346V27.34h4.092v10.059H202.217z"/>
	<path d="M214.121,30.533V40.67h-3.877V30.533h-2.764V27.34h9.404v3.193H214.121z"/>
	<path d="M229.912,40.67h-4.536l-1.947-5.098h-1.29v5.098h-4.092V27.34h6.963c1.537,0,2.729,0.359,3.579,1.079
		s1.274,1.668,1.274,2.847c0,0.769-0.156,1.447-0.469,2.036s-0.944,1.108-1.895,1.558L229.912,40.67z M222.139,32.721h1.748
		c0.514,0,0.928-0.107,1.24-0.322s0.469-0.53,0.469-0.947c0-0.853-0.524-1.279-1.572-1.279h-1.885V32.721z"/>
	<path d="M239.196,40.67l-0.753-2.627h-3.571l-0.8,2.627h-3.322l4.115-13.33h4.326l4.181,13.33H239.196z M235.567,35.133h2.157
		l-1.079-3.867L235.567,35.133z"/>
	<path d="M249.316,30.533V40.67h-3.877V30.533h-2.764V27.34h9.404v3.193H249.316z"/>
	<path d="M259.87,40.67l-0.753-2.627h-3.571l-0.8,2.627h-3.322l4.115-13.33h4.326l4.181,13.33H259.87z M256.241,35.133h2.157
		l-1.079-3.867L256.241,35.133z"/>
	<path d="M279.766,27.34v13.33h-3.799v-9.531l-2.466,9.531h-2.598l-2.563-9.531v9.531h-3.066V27.34h5.347l1.934,7.08l1.846-7.08
		H279.766z"/>
	<path d="M286.182,27.34v13.33h-4.092V27.34H286.182z"/>
	<path d="M298.535,37.486v3.184h-10.029V27.34h10.029v3.076h-6.016v1.934h4.863v2.959h-4.863v2.178H298.535z"/>
	<path d="M311.553,40.67h-3.33l-3.651-5.89c-0.469-0.756-0.941-1.673-1.417-2.753c0.215,0.859,0.322,1.589,0.322,2.188v6.455h-3.32
		V27.34h3.867l3.106,4.883c0.619,0.97,1.087,1.823,1.406,2.559c-0.208-1.14-0.313-2.305-0.313-3.496V27.34h3.33V40.67z"/>
	<path d="M319.355,30.533V40.67h-3.877V30.533h-2.764V27.34h9.404v3.193H319.355z"/>
	<path d="M329.043,40.875c-1.875,0-3.403-0.622-4.585-1.865s-1.772-2.907-1.772-4.99c0-1.992,0.564-3.638,1.694-4.937
		s2.697-1.948,4.702-1.948c1.855,0,3.367,0.612,4.536,1.836s1.753,2.858,1.753,4.902c0,2.116-0.589,3.812-1.768,5.088
		S330.905,40.875,329.043,40.875z M329.023,37.848c0.69,0,1.187-0.301,1.489-0.903s0.454-1.704,0.454-3.306
		c0-2.317-0.622-3.477-1.865-3.477c-1.341,0-2.012,1.321-2.012,3.965C327.09,36.607,327.734,37.848,329.023,37.848z"/>
	<path d="M352.129,37.486v3.184H342.1V27.34h10.029v3.076h-6.016v1.934h4.863v2.959h-4.863v2.178H352.129z"/>
	<path d="M365.146,40.67h-3.33l-3.65-5.89c-0.469-0.756-0.941-1.673-1.418-2.753c0.215,0.859,0.322,1.589,0.322,2.188v6.455h-3.32
		V27.34h3.867l3.105,4.883c0.619,0.97,1.088,1.823,1.406,2.559c-0.208-1.14-0.313-2.305-0.313-3.496V27.34h3.33V40.67z"/>
	<path d="M381.816,37.398v3.271h-9.346V27.34h4.092v10.059H381.816z"/>
	<path d="M390.593,40.67l-0.754-2.627h-3.57l-0.801,2.627h-3.321l4.114-13.33h4.326l4.181,13.33H390.593z M386.964,35.133h2.156
		l-1.078-3.867L386.964,35.133z"/>
	<path d="M411.025,37.486v3.184h-10.029V27.34h10.029v3.076h-6.016v1.934h4.863v2.959h-4.863v2.178H411.025z"/>
	<path d="M418.125,30.533V40.67h-3.877V30.533h-2.764V27.34h9.404v3.193H418.125z"/>
	<path d="M428.679,40.67l-0.754-2.627h-3.57l-0.801,2.627h-3.321l4.114-13.33h4.326l4.181,13.33H428.679z M425.05,35.133h2.156
		l-1.078-3.867L425.05,35.133z"/>
	<path d="M438.232,35.826v4.844h-4.15V27.34h5.693c1.419,0,2.498,0.163,3.237,0.488s1.325,0.823,1.758,1.494
		s0.649,1.423,0.649,2.256c0,1.27-0.442,2.295-1.328,3.076s-2.067,1.172-3.545,1.172H438.232z M438.174,32.965h1.367
		c1.204,0,1.807-0.442,1.807-1.328c0-0.833-0.557-1.25-1.67-1.25h-1.504V32.965z"/>
	<path d="M453.435,40.67l-0.754-2.627h-3.57l-0.801,2.627h-3.321l4.114-13.33h4.326l4.181,13.33H453.435z M449.806,35.133h2.156
		l-1.078-3.867L449.806,35.133z"/>
	<path d="M467.988,35.826v4.844h-4.15V27.34h5.693c1.419,0,2.498,0.163,3.237,0.488s1.325,0.823,1.758,1.494
		s0.649,1.423,0.649,2.256c0,1.27-0.442,2.295-1.328,3.076s-2.067,1.172-3.545,1.172H467.988z M467.93,32.965h1.367
		c1.204,0,1.807-0.442,1.807-1.328c0-0.833-0.557-1.25-1.67-1.25h-1.504V32.965z"/>
	<path d="M482.461,40.875c-1.875,0-3.403-0.622-4.585-1.865s-1.772-2.907-1.772-4.99c0-1.992,0.564-3.638,1.694-4.937
		s2.697-1.948,4.702-1.948c1.855,0,3.367,0.612,4.536,1.836s1.753,2.858,1.753,4.902c0,2.116-0.589,3.812-1.768,5.088
		S484.323,40.875,482.461,40.875z M482.441,37.848c0.69,0,1.187-0.301,1.489-0.903s0.454-1.704,0.454-3.306
		c0-2.317-0.622-3.477-1.865-3.477c-1.341,0-2.012,1.321-2.012,3.965C480.508,36.607,481.152,37.848,482.441,37.848z"/>
	<path d="M489.141,36.813l3.799-0.684c0.319,1.074,1.14,1.611,2.461,1.611c1.028,0,1.543-0.273,1.543-0.82
		c0-0.286-0.119-0.51-0.356-0.669s-0.662-0.301-1.274-0.425c-2.338-0.447-3.839-1.033-4.502-1.756
		c-0.664-0.723-0.996-1.572-0.996-2.55c0-1.257,0.477-2.302,1.431-3.136c0.954-0.833,2.326-1.25,4.116-1.25
		c2.715,0,4.509,1.091,5.381,3.271l-3.389,1.025c-0.352-0.892-1.064-1.338-2.139-1.338c-0.892,0-1.338,0.276-1.338,0.83
		c0,0.247,0.101,0.439,0.303,0.576s0.593,0.267,1.172,0.39c1.596,0.338,2.729,0.636,3.399,0.896s1.23,0.704,1.679,1.332
		c0.449,0.629,0.674,1.37,0.674,2.224c0,1.349-0.547,2.441-1.641,3.278s-2.529,1.256-4.307,1.256
		C491.907,40.875,489.902,39.521,489.141,36.813z"/>
	<path d="M508.301,30.533V40.67h-3.877V30.533h-2.764V27.34h9.404v3.193H508.301z"/>
	<path d="M516.377,35.826v4.844h-4.15V27.34h5.693c1.419,0,2.498,0.163,3.237,0.488s1.325,0.823,1.758,1.494
		s0.649,1.423,0.649,2.256c0,1.27-0.442,2.295-1.328,3.076s-2.067,1.172-3.545,1.172H516.377z M516.318,32.965h1.367
		c1.204,0,1.807-0.442,1.807-1.328c0-0.833-0.557-1.25-1.67-1.25h-1.504V32.965z"/>
	<path d="M536.953,40.67h-4.536l-1.947-5.098h-1.29v5.098h-4.092V27.34h6.963c1.536,0,2.729,0.359,3.579,1.079
		s1.274,1.668,1.274,2.847c0,0.769-0.156,1.447-0.469,2.036s-0.944,1.108-1.895,1.558L536.953,40.67z M529.18,32.721h1.748
		c0.515,0,0.928-0.107,1.24-0.322s0.469-0.53,0.469-0.947c0-0.853-0.524-1.279-1.572-1.279h-1.885V32.721z"/>
	<path d="M544.492,40.875c-1.875,0-3.403-0.622-4.585-1.865s-1.772-2.907-1.772-4.99c0-1.992,0.564-3.638,1.694-4.937
		s2.697-1.948,4.702-1.948c1.855,0,3.367,0.612,4.536,1.836s1.753,2.858,1.753,4.902c0,2.116-0.589,3.812-1.768,5.088
		S546.354,40.875,544.492,40.875z M544.473,37.848c0.69,0,1.187-0.301,1.489-0.903s0.454-1.704,0.454-3.306
		c0-2.317-0.622-3.477-1.865-3.477c-1.341,0-2.012,1.321-2.012,3.965C542.539,36.607,543.184,37.848,544.473,37.848z"/>
	<path d="M558.027,30.533V40.67h-3.877V30.533h-2.764V27.34h9.404v3.193H558.027z"/>
	<path d="M571.982,37.486v3.184h-10.029V27.34h10.029v3.076h-6.016v1.934h4.863v2.959h-4.863v2.178H571.982z M565.166,24.859
		l4.463-2.188l0.713,1.904l-4.668,1.621L565.166,24.859z"/>
	<path d="M572.227,36.813l3.799-0.684c0.319,1.074,1.14,1.611,2.461,1.611c1.028,0,1.543-0.273,1.543-0.82
		c0-0.286-0.119-0.51-0.356-0.669s-0.662-0.301-1.274-0.425c-2.338-0.447-3.839-1.033-4.502-1.756
		c-0.664-0.723-0.996-1.572-0.996-2.55c0-1.257,0.477-2.302,1.431-3.136c0.954-0.833,2.326-1.25,4.116-1.25
		c2.715,0,4.509,1.091,5.381,3.271l-3.389,1.025c-0.352-0.892-1.064-1.338-2.139-1.338c-0.892,0-1.338,0.276-1.338,0.83
		c0,0.247,0.101,0.439,0.303,0.576s0.593,0.267,1.172,0.39c1.596,0.338,2.729,0.636,3.399,0.896s1.23,0.704,1.679,1.332
		c0.449,0.629,0.674,1.37,0.674,2.224c0,1.349-0.547,2.441-1.641,3.278s-2.529,1.256-4.307,1.256
		C574.993,40.875,572.988,39.521,572.227,36.813z"/>
	<path d="M589.844,27.34v13.33h-4.092V27.34H589.844z"/>
	<path d="M599.502,35.582l3.74,0.225c-0.176,1.634-0.779,2.888-1.812,3.76s-2.3,1.309-3.804,1.309c-1.81,0-3.271-0.599-4.385-1.797
		s-1.67-2.852-1.67-4.961c0-2.09,0.527-3.776,1.582-5.059s2.526-1.924,4.414-1.924c1.765,0,3.12,0.488,4.067,1.465
		s1.482,2.272,1.606,3.887l-3.818,0.205c0-0.892-0.171-1.536-0.513-1.934s-0.744-0.596-1.206-0.596
		c-1.289,0-1.934,1.296-1.934,3.887c0,1.452,0.168,2.438,0.503,2.959s0.806,0.781,1.411,0.781
		C598.767,37.789,599.372,37.054,599.502,35.582z"/>
	<path d="M611.862,40.67l-0.754-2.627h-3.57l-0.801,2.627h-3.321l4.114-13.33h4.326l4.181,13.33H611.862z M608.233,35.133h2.156
		l-1.078-3.867L608.233,35.133z"/>
	<path d="M103.506,61.486v3.184H93.477V51.34h10.029v3.076H97.49v1.934h4.863v2.959H97.49v2.178H103.506z"/>
	<path d="M116.523,64.67h-3.33l-3.651-5.89c-0.469-0.756-0.941-1.673-1.417-2.753c0.215,0.859,0.322,1.589,0.322,2.188v6.455h-3.32
		V51.34h3.867l3.106,4.883c0.619,0.97,1.087,1.823,1.406,2.559c-0.208-1.14-0.313-2.305-0.313-3.496V51.34h3.33V64.67z"/>
	<path d="M127.998,59.826v4.844h-4.15V51.34h5.693c1.419,0,2.499,0.163,3.237,0.488s1.325,0.823,1.758,1.494
		s0.649,1.423,0.649,2.256c0,1.27-0.443,2.295-1.328,3.076s-2.067,1.172-3.545,1.172H127.998z M127.939,56.965h1.367
		c1.205,0,1.807-0.442,1.807-1.328c0-0.833-0.557-1.25-1.67-1.25h-1.504V56.965z"/>
	<path d="M143.2,64.67l-0.753-2.627h-3.571l-0.8,2.627h-3.322l4.115-13.33h4.326l4.181,13.33H143.2z M139.571,59.133h2.157
		l-1.079-3.867L139.571,59.133z"/>
	<path d="M155.537,59.582l3.74,0.225c-0.176,1.634-0.78,2.888-1.812,3.76s-2.3,1.309-3.804,1.309c-1.81,0-3.271-0.599-4.385-1.797
		s-1.67-2.852-1.67-4.961c0-2.09,0.527-3.776,1.582-5.059s2.526-1.924,4.414-1.924c1.764,0,3.12,0.488,4.067,1.465
		s1.483,2.272,1.606,3.887l-3.818,0.205c0-0.892-0.171-1.536-0.513-1.934s-0.744-0.596-1.206-0.596
		c-1.289,0-1.934,1.296-1.934,3.887c0,1.452,0.167,2.438,0.503,2.959s0.806,0.781,1.411,0.781
		C154.801,61.789,155.407,61.054,155.537,59.582z"/>
	<path d="M164.863,51.34v13.33h-4.092V51.34H164.863z"/>
	<path d="M177.217,61.486v3.184h-10.029V51.34h10.029v3.076h-6.016v1.934h4.863v2.959h-4.863v2.178H177.217z"/>
	<path d="M190.234,64.67h-3.33l-3.651-5.89c-0.469-0.756-0.941-1.673-1.417-2.753c0.215,0.859,0.322,1.589,0.322,2.188v6.455h-3.32
		V51.34h3.867l3.106,4.883c0.619,0.97,1.087,1.823,1.406,2.559c-0.208-1.14-0.313-2.305-0.313-3.496V51.34h3.33V64.67z"/>
	<path d="M198.037,54.533V64.67h-3.877V54.533h-2.764V51.34h9.404v3.193H198.037z"/>
	<path d="M211.992,61.486v3.184h-10.029V51.34h10.029v3.076h-6.016v1.934h4.863v2.959h-4.863v2.178H211.992z"/>
	<path d="M212.236,60.813l3.799-0.684c0.319,1.074,1.139,1.611,2.461,1.611c1.029,0,1.543-0.273,1.543-0.82
		c0-0.286-0.119-0.51-0.356-0.669s-0.663-0.301-1.274-0.425c-2.338-0.447-3.838-1.033-4.502-1.756
		c-0.664-0.723-0.996-1.572-0.996-2.55c0-1.257,0.477-2.302,1.431-3.136c0.954-0.833,2.326-1.25,4.116-1.25
		c2.715,0,4.508,1.091,5.381,3.271l-3.389,1.025c-0.352-0.892-1.064-1.338-2.139-1.338c-0.892,0-1.338,0.276-1.338,0.83
		c0,0.247,0.101,0.439,0.303,0.576s0.592,0.267,1.172,0.39c1.596,0.338,2.729,0.636,3.399,0.896c0.67,0.26,1.23,0.704,1.679,1.332
		c0.449,0.629,0.673,1.37,0.673,2.224c0,1.349-0.547,2.441-1.641,3.278s-2.529,1.256-4.307,1.256
		C215.003,64.875,212.998,63.521,212.236,60.813z"/>
	<path d="M238.096,59.582l3.74,0.225c-0.176,1.634-0.78,2.888-1.812,3.76s-2.3,1.309-3.804,1.309c-1.81,0-3.271-0.599-4.385-1.797
		s-1.67-2.852-1.67-4.961c0-2.09,0.527-3.776,1.582-5.059s2.526-1.924,4.414-1.924c1.764,0,3.12,0.488,4.067,1.465
		s1.483,2.272,1.606,3.887l-3.818,0.205c0-0.892-0.171-1.536-0.513-1.934s-0.744-0.596-1.206-0.596
		c-1.289,0-1.934,1.296-1.934,3.887c0,1.452,0.167,2.438,0.503,2.959s0.806,0.781,1.411,0.781
		C237.36,61.789,237.965,61.054,238.096,59.582z"/>
	<path d="M249.092,64.875c-1.875,0-3.403-0.622-4.585-1.865s-1.772-2.907-1.772-4.99c0-1.992,0.565-3.638,1.694-4.937
		s2.697-1.948,4.702-1.948c1.855,0,3.368,0.612,4.536,1.836s1.753,2.858,1.753,4.902c0,2.116-0.589,3.812-1.768,5.088
		S250.954,64.875,249.092,64.875z M249.072,61.848c0.69,0,1.187-0.301,1.489-0.903s0.454-1.704,0.454-3.306
		c0-2.317-0.622-3.477-1.865-3.477c-1.341,0-2.012,1.321-2.012,3.965C247.139,60.607,247.783,61.848,249.072,61.848z"/>
	<path d="M268.545,64.67h-3.33l-3.651-5.89c-0.469-0.756-0.941-1.673-1.417-2.753c0.215,0.859,0.322,1.589,0.322,2.188v6.455h-3.32
		V51.34h3.867l3.106,4.883c0.619,0.97,1.087,1.823,1.406,2.559c-0.208-1.14-0.313-2.305-0.313-3.496V51.34h3.33V64.67z"/>
	<path d="M283.219,64.67l-0.753-2.627h-3.571l-0.8,2.627h-3.322l4.115-13.33h4.326l4.181,13.33H283.219z M279.591,59.133h2.157
		l-1.079-3.867L279.591,59.133z"/>
	<path d="M303.115,51.34v13.33h-3.799v-9.531l-2.466,9.531h-2.598l-2.563-9.531v9.531h-3.066V51.34h5.347l1.934,7.08l1.846-7.08
		H303.115z"/>
	<path d="M309.59,59.826v4.844h-4.15V51.34h5.693c1.419,0,2.498,0.163,3.237,0.488s1.325,0.823,1.758,1.494s0.649,1.423,0.649,2.256
		c0,1.27-0.442,2.295-1.328,3.076s-2.067,1.172-3.545,1.172H309.59z M309.531,56.965h1.367c1.204,0,1.807-0.442,1.807-1.328
		c0-0.833-0.557-1.25-1.67-1.25h-1.504V56.965z"/>
	<path d="M329.111,51.34v8.828c0,1.673-0.496,2.876-1.489,3.608s-2.287,1.099-3.882,1.099c-1.68,0-3.029-0.352-4.048-1.055
		s-1.528-1.849-1.528-3.438V51.34h4.16v8.564c0,0.638,0.135,1.104,0.404,1.396s0.699,0.439,1.29,0.439
		c0.493,0,0.897-0.105,1.213-0.317c0.314-0.212,0.503-0.451,0.564-0.718s0.093-0.788,0.093-1.563V51.34H329.111z"/>
	<path d="M336.777,54.533V64.67H332.9V54.533h-2.764V51.34h9.404v3.193H336.777z"/>
	<path d="M347.331,64.67l-0.754-2.627h-3.57l-0.801,2.627h-3.321l4.114-13.33h4.326l4.181,13.33H347.331z M343.702,59.133h2.156
		l-1.078-3.867L343.702,59.133z"/>
	<path d="M359.668,59.582l3.74,0.225c-0.176,1.634-0.779,2.888-1.812,3.76s-2.3,1.309-3.804,1.309c-1.81,0-3.271-0.599-4.385-1.797
		s-1.67-2.852-1.67-4.961c0-2.09,0.527-3.776,1.582-5.059s2.526-1.924,4.414-1.924c1.765,0,3.12,0.488,4.067,1.465
		s1.482,2.272,1.606,3.887l-3.818,0.205c0-0.892-0.171-1.536-0.513-1.934s-0.744-0.596-1.206-0.596
		c-1.289,0-1.934,1.296-1.934,3.887c0,1.452,0.168,2.438,0.503,2.959s0.806,0.781,1.411,0.781
		C358.933,61.789,359.538,61.054,359.668,59.582z"/>
	<path d="M368.994,51.34v13.33h-4.092V51.34H368.994z"/>
	<path d="M377.08,64.875c-1.875,0-3.403-0.622-4.585-1.865s-1.772-2.907-1.772-4.99c0-1.992,0.564-3.638,1.694-4.937
		s2.697-1.948,4.702-1.948c1.855,0,3.367,0.612,4.536,1.836s1.753,2.858,1.753,4.902c0,2.116-0.589,3.812-1.768,5.088
		S378.942,64.875,377.08,64.875z M377.061,61.848c0.69,0,1.187-0.301,1.489-0.903s0.454-1.704,0.454-3.306
		c0-2.317-0.622-3.477-1.865-3.477c-1.341,0-2.012,1.321-2.012,3.965C375.127,60.607,375.771,61.848,377.061,61.848z
		 M375.273,48.859l4.463-2.188l0.713,1.904l-4.668,1.621L375.273,48.859z"/>
	<path d="M396.533,64.67h-3.33l-3.65-5.89c-0.469-0.756-0.941-1.673-1.418-2.753c0.215,0.859,0.322,1.589,0.322,2.188v6.455h-3.32
		V51.34h3.867l3.105,4.883c0.619,0.97,1.088,1.823,1.406,2.559c-0.208-1.14-0.313-2.305-0.313-3.496V51.34h3.33V64.67z"/>
	<path d="M409.336,54.533V64.67h-3.877V54.533h-2.764V51.34h9.404v3.193H409.336z"/>
	<path d="M425.127,64.67h-4.536l-1.947-5.098h-1.29v5.098h-4.092V51.34h6.963c1.536,0,2.729,0.359,3.579,1.079
		s1.274,1.668,1.274,2.847c0,0.769-0.156,1.447-0.469,2.036s-0.944,1.108-1.895,1.558L425.127,64.67z M417.354,56.721h1.748
		c0.515,0,0.928-0.107,1.24-0.322s0.469-0.53,0.469-0.947c0-0.853-0.524-1.279-1.572-1.279h-1.885V56.721z"/>
	<path d="M434.411,64.67l-0.754-2.627h-3.57l-0.801,2.627h-3.321l4.114-13.33h4.326l4.181,13.33H434.411z M430.782,59.133h2.156
		l-1.078-3.867L430.782,59.133z"/>
	<path d="M451.211,64.67h-3.33l-3.65-5.89c-0.469-0.756-0.941-1.673-1.418-2.753c0.215,0.859,0.322,1.589,0.322,2.188v6.455h-3.32
		V51.34h3.867l3.105,4.883c0.619,0.97,1.088,1.823,1.406,2.559c-0.208-1.14-0.313-2.305-0.313-3.496V51.34h3.33V64.67z"/>
	<path d="M452.158,60.813l3.799-0.684c0.319,1.074,1.14,1.611,2.461,1.611c1.028,0,1.543-0.273,1.543-0.82
		c0-0.286-0.119-0.51-0.356-0.669s-0.662-0.301-1.274-0.425c-2.338-0.447-3.839-1.033-4.502-1.756
		c-0.664-0.723-0.996-1.572-0.996-2.55c0-1.257,0.477-2.302,1.431-3.136c0.954-0.833,2.326-1.25,4.116-1.25
		c2.715,0,4.509,1.091,5.381,3.271l-3.389,1.025c-0.352-0.892-1.064-1.338-2.139-1.338c-0.892,0-1.338,0.276-1.338,0.83
		c0,0.247,0.101,0.439,0.303,0.576s0.593,0.267,1.172,0.39c1.596,0.338,2.729,0.636,3.399,0.896s1.23,0.704,1.679,1.332
		c0.449,0.629,0.674,1.37,0.674,2.224c0,1.349-0.547,2.441-1.641,3.278s-2.529,1.256-4.307,1.256
		C454.925,64.875,452.92,63.521,452.158,60.813z"/>
	<path d="M471.318,54.533V64.67h-3.877V54.533h-2.764V51.34h9.404v3.193H471.318z"/>
	<path d="M479.336,51.34v13.33h-4.092V51.34H479.336z"/>
	<path d="M481.66,64.67V51.34h6.768c1.406,0,2.432,0.354,3.076,1.064s0.967,1.521,0.967,2.432c0,0.664-0.188,1.265-0.562,1.802
		s-0.933,0.906-1.675,1.108c1.726,0.417,2.588,1.452,2.588,3.105c0,0.989-0.305,1.873-0.913,2.651S490,64.67,488.008,64.67H481.66z
		 M485.43,56.447h1.895c0.476,0,0.811-0.12,1.006-0.361s0.293-0.498,0.293-0.771c0-0.742-0.456-1.113-1.367-1.113h-1.826V56.447z
		 M485.43,61.701h1.992c0.495,0,0.857-0.122,1.089-0.366s0.347-0.52,0.347-0.825s-0.112-0.588-0.337-0.845s-0.637-0.386-1.235-0.386
		h-1.855V61.701z"/>
	<path d="M498.604,51.34v13.33h-4.092V51.34H498.604z"/>
	<path d="M508.278,64.67l-0.754-2.627h-3.57l-0.801,2.627h-3.321l4.114-13.33h4.326l4.181,13.33H508.278z M504.649,59.133h2.156
		l-1.078-3.867L504.649,59.133z"/>
	<path d="M523.027,61.398v3.271h-9.346V51.34h4.092v10.059H523.027z"/>
	<path d="M527.891,61.105v3.564h-3.711v-3.564H527.891z"/>
</g>
</svg>