<!-- Generator: Adobe Illustrator 22.0.0, SVG Export Plug-In  -->
<svg version="1.1"
	 xmlns="http://www.w3.org/2000/svg" xmlns:xlink="http://www.w3.org/1999/xlink" xmlns:a="http://ns.adobe.com/AdobeSVGViewerExtensions/3.0/"
	 x="0px" y="0px" width="791.836px" height="897.179px" viewBox="0 0 791.836 897.179"
	 style="overflow:scroll;enable-background:new 0 0 791.836 897.179;" xml:space="preserve">
<style type="text/css">
	.st0{font-family:'MyriadPro-Regular';}
	.st1{font-size:21px;}
	.st2{font-size:23px;}
	.st3{letter-spacing:-1.079;}
	.st4{letter-spacing:-1.112;}
	.st5{font-size:20.8617px;}
</style>
<defs>
</defs>
<g>
	<path d="M478.867,3.615c0.886-0.189,2.154-0.294,3.363-0.294c1.873,0,3.082,0.357,3.928,1.155c0.685,0.63,1.067,1.596,1.067,2.688
		c0,1.869-1.128,3.107-2.558,3.611v0.063c1.047,0.378,1.671,1.386,1.993,2.855c0.443,1.974,0.766,3.338,1.048,3.884h-1.813
		c-0.222-0.399-0.524-1.617-0.906-3.38c-0.403-1.953-1.129-2.688-2.72-2.75h-1.651v6.131h-1.752V3.615z M480.619,10.061h1.793
		c1.873,0,3.061-1.071,3.061-2.688c0-1.827-1.269-2.625-3.121-2.646c-0.847,0-1.45,0.084-1.732,0.168V10.061z"/>
	<path d="M496.733,10.942h-5.277v5.102h5.881v1.533h-7.634V3.426h7.332v1.533h-5.579v4.472h5.277V10.942z"/>
	<path d="M502.776,17.577l-4.431-14.151h1.893l2.115,6.971c0.584,1.911,1.088,3.632,1.45,5.291h0.04
		c0.383-1.638,0.947-3.422,1.551-5.27l2.297-6.992h1.873l-4.854,14.151H502.776z"/>
	<path d="M512.788,3.426v14.151h-1.753V3.426H512.788z"/>
	<path d="M515.608,15.352c0.785,0.504,1.934,0.924,3.142,0.924c1.793,0,2.841-0.987,2.841-2.415c0-1.323-0.726-2.079-2.559-2.813
		c-2.216-0.819-3.585-2.016-3.585-4.01c0-2.205,1.752-3.842,4.391-3.842c1.39,0,2.397,0.336,3.001,0.693l-0.483,1.491
		c-0.442-0.252-1.35-0.672-2.578-0.672c-1.853,0-2.558,1.155-2.558,2.121c0,1.323,0.826,1.974,2.699,2.729
		c2.296,0.924,3.464,2.079,3.464,4.157c0,2.184-1.551,4.073-4.753,4.073c-1.31,0-2.739-0.399-3.465-0.903L515.608,15.352z"/>
	<path d="M527.533,3.426v14.151h-1.752V3.426H527.533z"/>
	<path d="M542.197,10.354c0,4.871-2.841,7.454-6.305,7.454c-3.585,0-6.104-2.897-6.104-7.181c0-4.493,2.68-7.433,6.305-7.433
		C539.799,3.195,542.197,6.155,542.197,10.354z M531.663,10.585c0,3.023,1.57,5.732,4.33,5.732c2.779,0,4.351-2.667,4.351-5.879
		c0-2.813-1.41-5.753-4.33-5.753C533.113,4.686,531.663,7.478,531.663,10.585z M538.933,0.171l-2.558,2.436h-1.45l1.873-2.436
		H538.933z"/>
	<path d="M544.474,17.577V3.426h1.913l4.351,7.16c1.007,1.659,1.793,3.149,2.438,4.598l0.04-0.021
		c-0.161-1.89-0.202-3.611-0.202-5.816V3.426h1.652v14.151h-1.772l-4.311-7.181c-0.946-1.575-1.853-3.191-2.538-4.724l-0.061,0.021
		c0.102,1.785,0.142,3.485,0.142,5.837v6.047H544.474z"/>
	<path d="M562,3.594c0.846-0.147,1.953-0.273,3.363-0.273c1.732,0,3.001,0.42,3.807,1.176c0.745,0.672,1.188,1.701,1.188,2.96
		c0,1.281-0.362,2.289-1.048,3.023c-0.926,1.029-2.437,1.554-4.148,1.554c-0.524,0-1.008-0.021-1.41-0.126v5.669H562V3.594z
		 M563.751,10.417c0.383,0.105,0.866,0.147,1.45,0.147c2.114,0,3.403-1.071,3.403-3.023c0-1.869-1.269-2.771-3.202-2.771
		c-0.766,0-1.35,0.063-1.651,0.147V10.417z"/>
	<path d="M584.316,10.354c0,4.871-2.84,7.454-6.304,7.454c-3.585,0-6.103-2.897-6.103-7.181c0-4.493,2.679-7.433,6.304-7.433
		C581.919,3.195,584.316,6.155,584.316,10.354z M573.783,10.585c0,3.023,1.57,5.732,4.33,5.732c2.779,0,4.351-2.667,4.351-5.879
		c0-2.813-1.41-5.753-4.33-5.753C575.233,4.686,573.783,7.478,573.783,10.585z"/>
	<path d="M586.593,3.615c0.887-0.189,2.155-0.294,3.364-0.294c1.873,0,3.081,0.357,3.928,1.155c0.685,0.63,1.067,1.596,1.067,2.688
		c0,1.869-1.128,3.107-2.559,3.611v0.063c1.048,0.378,1.672,1.386,1.994,2.855c0.443,1.974,0.766,3.338,1.048,3.884h-1.813
		c-0.222-0.399-0.524-1.617-0.907-3.38c-0.402-1.953-1.127-2.688-2.719-2.75h-1.651v6.131h-1.753V3.615z M588.346,10.061h1.792
		c1.874,0,3.063-1.071,3.063-2.688c0-1.827-1.27-2.625-3.122-2.646c-0.847,0-1.45,0.084-1.732,0.168V10.061z"/>
	<path d="M601.701,3.615c1.068-0.168,2.337-0.294,3.727-0.294c2.518,0,4.311,0.609,5.499,1.764c1.208,1.155,1.913,2.792,1.913,5.081
		c0,2.31-0.685,4.199-1.953,5.501c-1.27,1.323-3.364,2.037-6.003,2.037c-1.249,0-2.296-0.063-3.183-0.168V3.615z M603.454,16.128
		c0.443,0.084,1.088,0.105,1.772,0.105c3.746,0,5.78-2.184,5.78-6.005c0.021-3.338-1.792-5.459-5.498-5.459
		c-0.907,0-1.592,0.084-2.055,0.189V16.128z"/>
	<path d="M626.718,10.354c0,4.871-2.84,7.454-6.304,7.454c-3.585,0-6.103-2.897-6.103-7.181c0-4.493,2.679-7.433,6.304-7.433
		C624.322,3.195,626.718,6.155,626.718,10.354z M616.185,10.585c0,3.023,1.57,5.732,4.33,5.732c2.779,0,4.351-2.667,4.351-5.879
		c0-2.813-1.41-5.753-4.33-5.753C617.635,4.686,616.185,7.478,616.185,10.585z"/>
	<path d="M638.483,17.115c-0.645,0.336-1.934,0.672-3.585,0.672c-3.827,0-6.707-2.52-6.707-7.16c0-4.43,2.88-7.433,7.09-7.433
		c1.691,0,2.759,0.378,3.223,0.63l-0.424,1.491c-0.664-0.336-1.611-0.588-2.739-0.588c-3.182,0-5.297,2.121-5.297,5.837
		c0,3.464,1.913,5.69,5.217,5.69c1.067,0,2.155-0.231,2.86-0.588L638.483,17.115z"/>
	<path d="M643.822,4.979h-4.13V3.426h10.051v1.554h-4.149v12.598h-1.771V4.979z"/>
	<path d="M662.312,10.354c0,4.871-2.84,7.454-6.304,7.454c-3.585,0-6.103-2.897-6.103-7.181c0-4.493,2.679-7.433,6.304-7.433
		C659.916,3.195,662.312,6.155,662.312,10.354z M651.779,10.585c0,3.023,1.57,5.732,4.33,5.732c2.779,0,4.351-2.667,4.351-5.879
		c0-2.813-1.41-5.753-4.33-5.753C653.229,4.686,651.779,7.478,651.779,10.585z"/>
	<path d="M664.589,3.615c0.887-0.189,2.155-0.294,3.364-0.294c1.873,0,3.081,0.357,3.928,1.155c0.685,0.63,1.067,1.596,1.067,2.688
		c0,1.869-1.128,3.107-2.559,3.611v0.063c1.048,0.378,1.672,1.386,1.994,2.855c0.443,1.974,0.766,3.338,1.048,3.884h-1.813
		c-0.222-0.399-0.524-1.617-0.907-3.38c-0.402-1.953-1.127-2.688-2.719-2.75h-1.651v6.131h-1.753V3.615z M666.342,10.061h1.792
		c1.874,0,3.063-1.071,3.063-2.688c0-1.827-1.27-2.625-3.122-2.646c-0.847,0-1.45,0.084-1.732,0.168V10.061z"/>
	<path d="M681.792,17.577v-6.005l-4.29-8.146h1.994l1.913,3.905c0.524,1.071,0.927,1.932,1.35,2.918h0.041
		c0.382-0.924,0.846-1.848,1.369-2.918l1.954-3.905h1.993l-4.552,8.125v6.026H681.792z"/>
	<path d="M478.867,28.794c0.846-0.147,1.953-0.273,3.363-0.273c1.732,0,3.001,0.42,3.807,1.176c0.745,0.672,1.188,1.701,1.188,2.96
		c0,1.281-0.362,2.289-1.048,3.023c-0.926,1.029-2.437,1.554-4.148,1.554c-0.524,0-1.008-0.021-1.41-0.126v5.669h-1.752V28.794z
		 M480.619,35.618c0.383,0.105,0.866,0.147,1.45,0.147c2.114,0,3.403-1.071,3.403-3.023c0-1.869-1.269-2.771-3.202-2.771
		c-0.766,0-1.35,0.063-1.651,0.147V35.618z"/>
	<path d="M489.583,28.815c0.886-0.189,2.154-0.294,3.363-0.294c1.873,0,3.082,0.357,3.928,1.155c0.685,0.63,1.067,1.596,1.067,2.688
		c0,1.869-1.128,3.107-2.558,3.611v0.063c1.047,0.378,1.671,1.386,1.993,2.855c0.443,1.974,0.766,3.338,1.048,3.884h-1.813
		c-0.222-0.399-0.524-1.617-0.906-3.38c-0.403-1.953-1.129-2.688-2.72-2.75h-1.651v6.131h-1.752V28.815z M491.335,35.261h1.793
		c1.873,0,3.061-1.071,3.061-2.688c0-1.827-1.269-2.625-3.121-2.646c-0.847,0-1.45,0.084-1.732,0.168V35.261z"/>
	<path d="M507.45,36.143h-5.277v5.102h5.881v1.533h-7.634V28.626h7.332v1.533h-5.579v4.472h5.277V36.143z"/>
	<path d="M510.088,40.552c0.785,0.504,1.934,0.924,3.142,0.924c1.793,0,2.841-0.987,2.841-2.415c0-1.323-0.726-2.079-2.559-2.813
		c-2.216-0.819-3.585-2.016-3.585-4.01c0-2.205,1.752-3.842,4.391-3.842c1.39,0,2.397,0.336,3.001,0.693l-0.483,1.491
		c-0.442-0.252-1.35-0.672-2.578-0.672c-1.853,0-2.558,1.155-2.558,2.121c0,1.323,0.826,1.974,2.699,2.729
		c2.296,0.924,3.464,2.079,3.464,4.157c0,2.184-1.551,4.073-4.753,4.073c-1.31,0-2.739-0.399-3.465-0.903L510.088,40.552z"/>
	<path d="M529.749,42.315c-0.645,0.336-1.934,0.672-3.585,0.672c-3.827,0-6.707-2.52-6.707-7.16c0-4.43,2.88-7.433,7.09-7.433
		c1.691,0,2.759,0.378,3.223,0.63l-0.424,1.491c-0.664-0.336-1.611-0.588-2.739-0.588c-3.182,0-5.297,2.121-5.297,5.837
		c0,3.464,1.913,5.69,5.217,5.69c1.067,0,2.155-0.231,2.86-0.588L529.749,42.315z"/>
	<path d="M531.945,28.815c0.886-0.189,2.154-0.294,3.363-0.294c1.873,0,3.082,0.357,3.928,1.155c0.685,0.63,1.067,1.596,1.067,2.688
		c0,1.869-1.128,3.107-2.558,3.611v0.063c1.047,0.378,1.671,1.386,1.993,2.855c0.443,1.974,0.766,3.338,1.048,3.884h-1.813
		c-0.222-0.399-0.524-1.617-0.906-3.38c-0.403-1.953-1.129-2.688-2.72-2.75h-1.651v6.131h-1.752V28.815z M533.697,35.261h1.793
		c1.873,0,3.061-1.071,3.061-2.688c0-1.827-1.269-2.625-3.121-2.646c-0.847,0-1.45,0.084-1.732,0.168V35.261z"/>
	<path d="M544.535,28.626v14.151h-1.752V28.626H544.535z"/>
	<path d="M547.595,28.794c0.847-0.147,1.954-0.273,3.364-0.273c1.732,0,3.001,0.42,3.807,1.176c0.745,0.672,1.188,1.701,1.188,2.96
		c0,1.281-0.362,2.289-1.048,3.023c-0.926,1.029-2.437,1.554-4.148,1.554c-0.524,0-1.008-0.021-1.41-0.126v5.669h-1.753V28.794z
		 M549.348,35.618c0.383,0.105,0.866,0.147,1.45,0.147c2.115,0,3.404-1.071,3.404-3.023c0-1.869-1.27-2.771-3.203-2.771
		c-0.766,0-1.35,0.063-1.651,0.147V35.618z"/>
	<path d="M567.799,42.315c-0.645,0.336-1.934,0.672-3.585,0.672c-3.827,0-6.707-2.52-6.707-7.16c0-4.43,2.88-7.433,7.09-7.433
		c1.691,0,2.759,0.378,3.223,0.63l-0.424,1.491c-0.664-0.336-1.611-0.588-2.739-0.588c-3.182,0-5.297,2.121-5.297,5.837
		c0,3.464,1.913,5.69,5.217,5.69c1.067,0,2.155-0.231,2.86-0.588L567.799,42.315z"/>
	<path d="M571.749,28.626v14.151h-1.753V28.626H571.749z"/>
	<path d="M586.412,35.555c0,4.871-2.84,7.454-6.304,7.454c-3.585,0-6.103-2.897-6.103-7.181c0-4.493,2.679-7.433,6.304-7.433
		C584.015,28.395,586.412,31.355,586.412,35.555z M575.878,35.786c0,3.023,1.57,5.732,4.33,5.732c2.779,0,4.351-2.667,4.351-5.879
		c0-2.813-1.41-5.753-4.33-5.753C577.329,29.886,575.878,32.678,575.878,35.786z M583.149,25.372l-2.558,2.436h-1.45l1.873-2.436
		H583.149z"/>
	<path d="M588.689,42.777V28.626h1.914l4.351,7.16c1.007,1.659,1.792,3.149,2.437,4.598l0.041-0.021
		c-0.161-1.89-0.201-3.611-0.201-5.816v-5.921h1.651v14.151h-1.772l-4.311-7.181c-0.946-1.575-1.854-3.191-2.538-4.724l-0.061,0.021
		c0.101,1.785,0.142,3.485,0.142,5.837v6.047H588.689z"/>
	<path d="M606.214,28.815c1.067-0.168,2.336-0.294,3.726-0.294c2.518,0,4.311,0.609,5.499,1.764
		c1.208,1.155,1.913,2.792,1.913,5.081c0,2.31-0.685,4.199-1.954,5.501c-1.269,1.323-3.363,2.037-6.002,2.037
		c-1.248,0-2.296-0.063-3.182-0.168V28.815z M607.966,41.329c0.443,0.084,1.088,0.105,1.772,0.105c3.746,0,5.78-2.184,5.78-6.005
		c0.021-3.338-1.792-5.459-5.498-5.459c-0.906,0-1.592,0.084-2.055,0.189V41.329z"/>
	<path d="M626.659,36.143h-5.277v5.102h5.881v1.533h-7.634V28.626h7.332v1.533h-5.579v4.472h5.277V36.143z"/>
	<path d="M629.541,28.626h1.752v12.619h5.801v1.533h-7.553V28.626z"/>
	<path d="M645.07,30.18h-4.129v-1.554h10.051v1.554h-4.148v12.598h-1.773V30.18z"/>
	<path d="M654.256,28.626v14.151h-1.753V28.626H654.256z"/>
	<path d="M657.318,28.794c0.847-0.147,1.954-0.273,3.364-0.273c1.732,0,3.001,0.42,3.807,1.176c0.745,0.672,1.188,1.701,1.188,2.96
		c0,1.281-0.362,2.289-1.048,3.023c-0.926,1.029-2.437,1.554-4.148,1.554c-0.524,0-1.008-0.021-1.41-0.126v5.669h-1.753V28.794z
		 M659.071,35.618c0.383,0.105,0.866,0.147,1.45,0.147c2.115,0,3.404-1.071,3.404-3.023c0-1.869-1.27-2.771-3.203-2.771
		c-0.766,0-1.35,0.063-1.651,0.147V35.618z"/>
	<path d="M679.636,35.555c0,4.871-2.841,7.454-6.305,7.454c-3.585,0-6.104-2.897-6.104-7.181c0-4.493,2.68-7.433,6.305-7.433
		C677.239,28.395,679.636,31.355,679.636,35.555z M669.102,35.786c0,3.023,1.57,5.732,4.33,5.732c2.779,0,4.351-2.667,4.351-5.879
		c0-2.813-1.41-5.753-4.33-5.753C670.552,29.886,669.102,32.678,669.102,35.786z"/>
	<path d="M686.183,28.815c1.068-0.168,2.337-0.294,3.727-0.294c2.518,0,4.311,0.609,5.499,1.764
		c1.208,1.155,1.913,2.792,1.913,5.081c0,2.31-0.685,4.199-1.953,5.501c-1.27,1.323-3.364,2.037-6.003,2.037
		c-1.249,0-2.296-0.063-3.183-0.168V28.815z M687.936,41.329c0.443,0.084,1.088,0.105,1.772,0.105c3.746,0,5.78-2.184,5.78-6.005
		c0.021-3.338-1.792-5.459-5.498-5.459c-0.907,0-1.592,0.084-2.055,0.189V41.329z"/>
	<path d="M706.629,36.143h-5.277v5.102h5.881v1.533h-7.634V28.626h7.332v1.533h-5.579v4.472h5.277V36.143z"/>
	<path d="M713.781,28.794c0.846-0.147,1.953-0.273,3.363-0.273c1.732,0,3.001,0.42,3.807,1.176c0.745,0.672,1.188,1.701,1.188,2.96
		c0,1.281-0.362,2.289-1.048,3.023c-0.926,1.029-2.437,1.554-4.148,1.554c-0.524,0-1.008-0.021-1.41-0.126v5.669h-1.752V28.794z
		 M715.533,35.618c0.383,0.105,0.866,0.147,1.45,0.147c2.114,0,3.403-1.071,3.403-3.023c0-1.869-1.269-2.771-3.202-2.771
		c-0.766,0-1.35,0.063-1.651,0.147V35.618z"/>
	<path d="M724.496,28.815c0.887-0.189,2.155-0.294,3.364-0.294c1.873,0,3.081,0.357,3.928,1.155c0.685,0.63,1.067,1.596,1.067,2.688
		c0,1.869-1.128,3.107-2.559,3.611v0.063c1.048,0.378,1.672,1.386,1.994,2.855c0.443,1.974,0.766,3.338,1.048,3.884h-1.813
		c-0.222-0.399-0.524-1.617-0.907-3.38c-0.402-1.953-1.127-2.688-2.719-2.75h-1.651v6.131h-1.753V28.815z M726.249,35.261h1.792
		c1.874,0,3.063-1.071,3.063-2.688c0-1.827-1.27-2.625-3.122-2.646c-0.847,0-1.45,0.084-1.732,0.168V35.261z"/>
	<path d="M746.996,35.555c0,4.871-2.84,7.454-6.304,7.454c-3.585,0-6.103-2.897-6.103-7.181c0-4.493,2.679-7.433,6.304-7.433
		C744.599,28.395,746.996,31.355,746.996,35.555z M736.462,35.786c0,3.023,1.57,5.732,4.33,5.732c2.779,0,4.351-2.667,4.351-5.879
		c0-2.813-1.41-5.753-4.33-5.753C737.913,29.886,736.462,32.678,736.462,35.786z M743.733,25.372l-2.558,2.436h-1.45l1.873-2.436
		H743.733z"/>
	<path d="M751.347,30.18h-4.129v-1.554h10.051v1.554h-4.148v12.598h-1.773V30.18z"/>
	<path d="M765.811,36.143h-5.277v5.102h5.881v1.533h-7.634V28.626h7.332v1.533h-5.579v4.472h5.277V36.143z"/>
	<path d="M768.45,40.552c0.785,0.504,1.934,0.924,3.142,0.924c1.793,0,2.841-0.987,2.841-2.415c0-1.323-0.726-2.079-2.559-2.813
		c-2.216-0.819-3.585-2.016-3.585-4.01c0-2.205,1.752-3.842,4.391-3.842c1.39,0,2.397,0.336,3.001,0.693l-0.483,1.491
		c-0.442-0.252-1.35-0.672-2.578-0.672c-1.853,0-2.558,1.155-2.558,2.121c0,1.323,0.826,1.974,2.699,2.729
		c2.296,0.924,3.464,2.079,3.464,4.157c0,2.184-1.551,4.073-4.753,4.073c-1.31,0-2.739-0.399-3.465-0.903L768.45,40.552z"/>
	<path d="M780.375,28.626v14.151h-1.752V28.626H780.375z"/>
	<path d="M783.195,40.552c0.785,0.504,1.934,0.924,3.143,0.924c1.792,0,2.84-0.987,2.84-2.415c0-1.323-0.726-2.079-2.559-2.813
		c-2.215-0.819-3.585-2.016-3.585-4.01c0-2.205,1.752-3.842,4.391-3.842c1.39,0,2.397,0.336,3.001,0.693l-0.483,1.491
		c-0.442-0.252-1.349-0.672-2.578-0.672c-1.853,0-2.558,1.155-2.558,2.121c0,1.323,0.826,1.974,2.699,2.729
		c2.296,0.924,3.464,2.079,3.464,4.157c0,2.184-1.551,4.073-4.753,4.073c-1.31,0-2.739-0.399-3.465-0.903L783.195,40.552z"/>
</g>
<g>
	<path d="M38.704,120.786h-4.37v-1.702h10.637v1.702H40.58v13.797h-1.876V120.786z"/>
	<path d="M54.008,127.316h-5.585v5.588h6.225v1.679h-8.079v-15.499h7.759v1.679h-5.905v4.898h5.585V127.316z"/>
	<path d="M57.055,119.292c0.938-0.207,2.281-0.322,3.56-0.322c1.983,0,3.262,0.391,4.157,1.265c0.725,0.689,1.13,1.748,1.13,2.943
		c0,2.046-1.194,3.403-2.707,3.955v0.069c1.108,0.414,1.769,1.518,2.11,3.127c0.469,2.161,0.81,3.656,1.108,4.254h-1.918
		c-0.234-0.437-0.554-1.771-0.959-3.702c-0.426-2.139-1.193-2.943-2.877-3.012H58.91v6.714h-1.854V119.292z M58.91,126.351h1.897
		c1.982,0,3.24-1.172,3.24-2.943c0-2-1.343-2.874-3.304-2.897c-0.895,0-1.535,0.092-1.833,0.184V126.351z"/>
	<path d="M70.952,129.708l-1.492,4.875h-1.918l4.882-15.499h2.238l4.903,15.499h-1.982l-1.535-4.875H70.952z M75.663,128.145
		l-1.407-4.461c-0.32-1.012-0.533-1.932-0.746-2.829h-0.042c-0.213,0.92-0.448,1.863-0.725,2.805l-1.407,4.484H75.663z"/>
	<path d="M81.673,119.269c0.895-0.161,2.068-0.299,3.56-0.299c1.833,0,3.176,0.46,4.029,1.288c0.789,0.736,1.258,1.862,1.258,3.242
		c0,1.403-0.384,2.506-1.108,3.311c-0.98,1.127-2.579,1.702-4.391,1.702c-0.554,0-1.066-0.023-1.492-0.138v6.208h-1.854V119.269z
		 M83.528,126.742c0.405,0.115,0.917,0.161,1.535,0.161c2.238,0,3.603-1.173,3.603-3.312c0-2.046-1.343-3.035-3.389-3.035
		c-0.81,0-1.428,0.069-1.748,0.161V126.742z"/>
	<path d="M94.867,119.084v15.499h-1.854v-15.499H94.867z"/>
	<path d="M100.43,129.708l-1.492,4.875H97.02l4.882-15.499h2.238l4.903,15.499h-1.983l-1.535-4.875H100.43z M105.141,128.145
		l-1.407-4.461c-0.32-1.012-0.533-1.932-0.746-2.829h-0.042c-0.213,0.92-0.448,1.863-0.725,2.805l-1.407,4.484H105.141z"/>
	<path d="M115.67,119.292c1.13-0.184,2.473-0.322,3.943-0.322c2.665,0,4.562,0.667,5.819,1.932c1.279,1.265,2.025,3.059,2.025,5.565
		c0,2.529-0.725,4.599-2.068,6.024c-1.343,1.449-3.56,2.231-6.352,2.231c-1.322,0-2.43-0.069-3.368-0.184V119.292z M117.524,132.997
		c0.469,0.092,1.151,0.115,1.876,0.115c3.965,0,6.118-2.392,6.118-6.577c0.021-3.656-1.897-5.979-5.819-5.979
		c-0.959,0-1.684,0.092-2.174,0.207V132.997z"/>
	<path d="M137.305,127.316h-5.585v5.588h6.225v1.679h-8.079v-15.499h7.759v1.679h-5.905v4.898h5.585V127.316z"/>
	<path d="M144.87,119.292c0.938-0.207,2.281-0.322,3.56-0.322c1.982,0,3.262,0.391,4.157,1.265c0.725,0.689,1.13,1.748,1.13,2.943
		c0,2.046-1.194,3.403-2.707,3.955v0.069c1.108,0.414,1.769,1.518,2.11,3.127c0.469,2.161,0.81,3.656,1.108,4.254h-1.918
		c-0.234-0.437-0.554-1.771-0.959-3.702c-0.426-2.139-1.193-2.943-2.877-3.012h-1.748v6.714h-1.854V119.292z M146.725,126.351h1.897
		c1.982,0,3.24-1.172,3.24-2.943c0-2-1.343-2.874-3.304-2.897c-0.895,0-1.535,0.092-1.833,0.184V126.351z"/>
	<path d="M163.777,127.316h-5.585v5.588h6.225v1.679h-8.079v-15.499h7.759v1.679h-5.905v4.898h5.585V127.316z"/>
	<path d="M168.678,119.084v6.484h6.949v-6.484h1.876v15.499h-1.876v-7.267h-6.949v7.267h-1.854v-15.499H168.678z"/>
	<path d="M183.044,129.708l-1.492,4.875h-1.918l4.882-15.499h2.238l4.903,15.499h-1.982l-1.535-4.875H183.044z M187.755,128.145
		l-1.407-4.461c-0.32-1.012-0.533-1.932-0.746-2.829h-0.042c-0.213,0.92-0.448,1.863-0.725,2.805l-1.407,4.484H187.755z"/>
	<path d="M193.765,119.292c0.81-0.184,2.089-0.322,3.389-0.322c1.854,0,3.048,0.345,3.944,1.127
		c0.746,0.598,1.193,1.518,1.193,2.736c0,1.495-0.917,2.806-2.43,3.403v0.046c1.364,0.368,2.963,1.587,2.963,3.886
		c0,1.333-0.49,2.346-1.215,3.104c-1.001,0.989-2.622,1.449-4.967,1.449c-1.279,0-2.259-0.092-2.877-0.184V119.292z M195.62,125.638
		h1.684c1.961,0,3.112-1.104,3.112-2.599c0-1.816-1.279-2.529-3.155-2.529c-0.853,0-1.343,0.069-1.641,0.138V125.638z
		 M195.62,133.065c0.362,0.069,0.896,0.092,1.556,0.092c1.918,0,3.688-0.759,3.688-3.012c0-2.116-1.684-2.989-3.709-2.989h-1.535
		V133.065z"/>
	<path d="M207.172,119.084v15.499h-1.854v-15.499H207.172z"/>
	<path d="M210.412,119.084h1.854v13.82h6.139v1.679h-7.994V119.084z"/>
	<path d="M222.326,119.084v15.499h-1.854v-15.499H222.326z"/>
	<path d="M228.294,120.786h-4.37v-1.702h10.637v1.702h-4.391v13.797h-1.876V120.786z"/>
	<path d="M236.884,129.708l-1.492,4.875h-1.918l4.882-15.499h2.238l4.903,15.499h-1.982l-1.535-4.875H236.884z M241.595,128.145
		l-1.407-4.461c-0.32-1.012-0.533-1.932-0.746-2.829h-0.042c-0.213,0.92-0.448,1.863-0.725,2.805l-1.407,4.484H241.595z"/>
	<path d="M257.326,134.077c-0.682,0.368-2.046,0.736-3.794,0.736c-4.05,0-7.098-2.759-7.098-7.841c0-4.852,3.048-8.14,7.503-8.14
		c1.791,0,2.92,0.414,3.411,0.69l-0.448,1.632c-0.704-0.368-1.706-0.644-2.899-0.644c-3.368,0-5.606,2.322-5.606,6.393
		c0,3.794,2.025,6.231,5.521,6.231c1.13,0,2.281-0.253,3.027-0.644L257.326,134.077z"/>
	<path d="M261.502,119.084v15.499h-1.854v-15.499H261.502z"/>
	<path d="M277.02,126.673c0,5.335-3.006,8.163-6.672,8.163c-3.794,0-6.458-3.173-6.458-7.864c0-4.921,2.835-8.14,6.672-8.14
		C274.483,118.832,277.02,122.074,277.02,126.673z M265.872,126.926c0,3.311,1.663,6.277,4.583,6.277
		c2.941,0,4.604-2.92,4.604-6.438c0-3.081-1.492-6.301-4.583-6.301C267.406,120.464,265.872,123.522,265.872,126.926z
		 M273.567,115.52l-2.708,2.667h-1.535l1.982-2.667H273.567z"/>
	<path d="M279.428,134.583v-15.499h2.025l4.604,7.841c1.066,1.816,1.897,3.449,2.579,5.036l0.043-0.023
		c-0.171-2.069-0.213-3.955-0.213-6.37v-6.484h1.748v15.499h-1.876l-4.562-7.864c-1.002-1.725-1.961-3.495-2.686-5.174l-0.064,0.023
		c0.106,1.955,0.149,3.817,0.149,6.393v6.623H279.428z"/>
</g>
<g>
	<path d="M8.028,341.688H3.079v5.102h5.516v1.533h-7.16v-14.151h6.876v1.533H3.079v4.472h4.949V341.688z"/>
	<path d="M10.728,334.172h1.644v12.619h5.44v1.533h-7.084V334.172z"/>
	<path d="M21.7,343.872l-1.322,4.451h-1.7l4.326-14.151h1.983l4.345,14.151h-1.757l-1.36-4.451H21.7z M25.875,342.444l-1.247-4.073
		c-0.284-0.924-0.472-1.764-0.661-2.583h-0.038c-0.189,0.84-0.396,1.701-0.642,2.562l-1.247,4.094H25.875z"/>
	<path d="M31.2,334.361c0.718-0.168,1.852-0.294,3.004-0.294c1.643,0,2.701,0.315,3.495,1.029c0.661,0.546,1.058,1.386,1.058,2.499
		c0,1.365-0.812,2.562-2.153,3.107v0.042c1.209,0.336,2.625,1.449,2.625,3.548c0,1.218-0.434,2.142-1.077,2.834
		c-0.888,0.903-2.323,1.323-4.401,1.323c-1.133,0-2.002-0.084-2.55-0.168V334.361z M32.843,340.156h1.492
		c1.738,0,2.758-1.008,2.758-2.373c0-1.659-1.134-2.31-2.796-2.31c-0.756,0-1.19,0.063-1.455,0.126V340.156z M32.843,346.938
		c0.321,0.063,0.793,0.084,1.379,0.084c1.7,0,3.268-0.693,3.268-2.75c0-1.932-1.492-2.729-3.287-2.729h-1.36V346.938z"/>
	<path d="M52.316,341.101c0,4.871-2.664,7.454-5.913,7.454c-3.362,0-5.724-2.897-5.724-7.181c0-4.493,2.512-7.433,5.913-7.433
		C50.068,333.941,52.316,336.901,52.316,341.101z M42.437,341.332c0,3.023,1.473,5.732,4.061,5.732c2.607,0,4.081-2.667,4.081-5.879
		c0-2.813-1.322-5.753-4.062-5.753C43.797,335.432,42.437,338.224,42.437,341.332z"/>
	<path d="M54.448,334.361c0.831-0.189,2.021-0.294,3.155-0.294c1.757,0,2.89,0.357,3.684,1.155c0.642,0.63,1.001,1.596,1.001,2.688
		c0,1.869-1.058,3.107-2.399,3.611v0.063c0.982,0.378,1.568,1.386,1.87,2.855c0.416,1.974,0.718,3.338,0.982,3.884h-1.7
		c-0.208-0.399-0.491-1.617-0.85-3.38c-0.377-1.953-1.058-2.688-2.55-2.75h-1.549v6.131h-1.644V334.361z M56.092,340.807h1.681
		c1.757,0,2.872-1.071,2.872-2.688c0-1.827-1.19-2.625-2.928-2.646c-0.793,0-1.36,0.084-1.625,0.168V340.807z"/>
	<path d="M66.762,343.872l-1.322,4.451h-1.7l4.326-14.151h1.983l4.345,14.151h-1.757l-1.36-4.451H66.762z M70.937,342.444
		l-1.247-4.073c-0.284-0.924-0.472-1.764-0.661-2.583h-0.038c-0.189,0.84-0.396,1.701-0.642,2.562l-1.247,4.094H70.937z"/>
	<path d="M84.875,347.861c-0.604,0.336-1.813,0.672-3.362,0.672c-3.589,0-6.291-2.52-6.291-7.16c0-4.43,2.701-7.433,6.649-7.433
		c1.587,0,2.588,0.378,3.022,0.63l-0.397,1.491c-0.623-0.336-1.511-0.588-2.569-0.588c-2.985,0-4.968,2.121-4.968,5.837
		c0,3.464,1.794,5.69,4.893,5.69c1.001,0,2.021-0.231,2.683-0.588L84.875,347.861z"/>
	<path d="M88.575,334.172v14.151h-1.644v-14.151H88.575z"/>
	<path d="M102.326,341.101c0,4.871-2.664,7.454-5.913,7.454c-3.362,0-5.724-2.897-5.724-7.181c0-4.493,2.512-7.433,5.913-7.433
		C100.078,333.941,102.326,336.901,102.326,341.101z M92.447,341.332c0,3.023,1.473,5.732,4.061,5.732
		c2.607,0,4.081-2.667,4.081-5.879c0-2.813-1.322-5.753-4.062-5.753C93.807,335.432,92.447,338.224,92.447,341.332z M99.266,330.917
		l-2.399,2.436h-1.36l1.757-2.436H99.266z"/>
	<path d="M104.458,348.323v-14.151h1.795l4.08,7.16c0.944,1.659,1.681,3.149,2.286,4.598l0.038-0.021
		c-0.151-1.89-0.189-3.611-0.189-5.816v-5.921h1.549v14.151h-1.662l-4.043-7.181c-0.888-1.575-1.738-3.191-2.38-4.724l-0.057,0.021
		c0.094,1.785,0.132,3.485,0.132,5.837v6.047H104.458z"/>
	<path d="M120.888,334.361c1.001-0.168,2.191-0.294,3.495-0.294c2.361,0,4.043,0.609,5.157,1.764
		c1.133,1.155,1.794,2.792,1.794,5.081c0,2.31-0.642,4.199-1.832,5.501c-1.19,1.323-3.155,2.037-5.629,2.037
		c-1.171,0-2.153-0.063-2.985-0.168V334.361z M122.532,346.875c0.416,0.084,1.02,0.105,1.663,0.105c3.513,0,5.421-2.184,5.421-6.005
		c0.019-3.338-1.681-5.459-5.157-5.459c-0.85,0-1.492,0.084-1.927,0.189V346.875z"/>
	<path d="M140.059,341.688h-4.949v5.102h5.516v1.533h-7.16v-14.151h6.876v1.533h-5.233v4.472h4.949V341.688z"/>
	<path d="M157.492,342.108c-0.095-1.974-0.208-4.346-0.189-6.11h-0.057c-0.435,1.659-0.963,3.422-1.606,5.375l-2.248,6.866h-1.247
		l-2.059-6.74c-0.604-1.995-1.114-3.821-1.473-5.501h-0.038c-0.038,1.764-0.132,4.136-0.246,6.257l-0.34,6.068h-1.568l0.888-14.151
		h2.097l2.173,6.845c0.529,1.743,0.963,3.296,1.284,4.766h0.057c0.321-1.428,0.775-2.981,1.341-4.766l2.267-6.845h2.097
		l0.793,14.151h-1.606L157.492,342.108z"/>
	<path d="M172.827,341.101c0,4.871-2.664,7.454-5.913,7.454c-3.362,0-5.724-2.897-5.724-7.181c0-4.493,2.512-7.433,5.913-7.433
		C170.579,333.941,172.827,336.901,172.827,341.101z M162.947,341.332c0,3.023,1.473,5.732,4.062,5.732
		c2.606,0,4.08-2.667,4.08-5.879c0-2.813-1.322-5.753-4.062-5.753C164.307,335.432,162.947,338.224,162.947,341.332z"/>
	<path d="M174.958,334.172h1.644v12.619h5.44v1.533h-7.084V334.172z"/>
	<path d="M183.872,334.361c1.001-0.168,2.191-0.294,3.495-0.294c2.361,0,4.043,0.609,5.157,1.764
		c1.133,1.155,1.794,2.792,1.794,5.081c0,2.31-0.642,4.199-1.832,5.501c-1.19,1.323-3.155,2.037-5.629,2.037
		c-1.171,0-2.154-0.063-2.985-0.168V334.361z M185.516,346.875c0.416,0.084,1.02,0.105,1.663,0.105c3.513,0,5.421-2.184,5.421-6.005
		c0.019-3.338-1.681-5.459-5.157-5.459c-0.85,0-1.492,0.084-1.927,0.189V346.875z"/>
	<path d="M203.043,341.688h-4.949v5.102h5.516v1.533h-7.16v-14.151h6.876v1.533h-5.232v4.472h4.949V341.688z"/>
	<path d="M209.746,348.323v-14.151h1.795l4.08,7.16c0.944,1.659,1.681,3.149,2.286,4.598l0.038-0.021
		c-0.151-1.89-0.189-3.611-0.189-5.816v-5.921h1.549v14.151h-1.662l-4.042-7.181c-0.888-1.575-1.738-3.191-2.38-4.724l-0.057,0.021
		c0.094,1.785,0.132,3.485,0.132,5.837v6.047H209.746z"/>
	<path d="M228.765,341.688h-4.949v5.102h5.516v1.533h-7.16v-14.151h6.876v1.533h-5.233v4.472h4.949V341.688z"/>
	<path d="M241.155,347.693c-0.737,0.294-2.191,0.777-3.91,0.777c-1.927,0-3.514-0.546-4.761-1.869
		c-1.096-1.176-1.775-3.065-1.775-5.27c0.019-4.22,2.625-7.307,6.895-7.307c1.473,0,2.625,0.357,3.173,0.651l-0.396,1.491
		c-0.68-0.336-1.53-0.609-2.815-0.609c-3.098,0-5.119,2.142-5.119,5.69c0,3.59,1.946,5.711,4.912,5.711
		c1.077,0,1.813-0.168,2.191-0.378v-4.22h-2.588v-1.47h4.194V347.693z"/>
	<path d="M245.724,343.872l-1.322,4.451h-1.7l4.326-14.151h1.983l4.345,14.151h-1.757l-1.36-4.451H245.724z M249.898,342.444
		l-1.247-4.073c-0.284-0.924-0.472-1.764-0.661-2.583h-0.038c-0.189,0.84-0.396,1.701-0.642,2.562l-1.247,4.094H249.898z"/>
	<path d="M256.187,335.726h-3.873v-1.554h9.426v1.554h-3.891v12.598h-1.663V335.726z"/>
	<path d="M264.798,334.172v14.151h-1.644v-14.151H264.798z"/>
	<path d="M270.465,348.323l-4.156-14.151h1.775l1.984,6.971c0.548,1.911,1.02,3.632,1.36,5.291h0.038
		c0.359-1.638,0.888-3.422,1.455-5.27l2.154-6.992h1.757l-4.553,14.151H270.465z"/>
	<path d="M289.088,341.101c0,4.871-2.664,7.454-5.913,7.454c-3.362,0-5.724-2.897-5.724-7.181c0-4.493,2.512-7.433,5.913-7.433
		C286.84,333.941,289.088,336.901,289.088,341.101z M279.208,341.332c0,3.023,1.473,5.732,4.061,5.732
		c2.607,0,4.081-2.667,4.081-5.879c0-2.813-1.322-5.753-4.062-5.753C280.568,335.432,279.208,338.224,279.208,341.332z"/>
</g>
<g>
	<path d="M484.554,232.931h-4.404v-1.543h10.721v1.543h-4.426v12.515h-1.891V232.931z"/>
	<path d="M504.276,238.271c0,4.839-3.029,7.405-6.725,7.405c-3.824,0-6.51-2.878-6.51-7.134c0-4.464,2.857-7.384,6.725-7.384
		C501.719,231.158,504.276,234.099,504.276,238.271z M493.04,238.5c0,3.003,1.676,5.694,4.619,5.694c2.965,0,4.641-2.649,4.641-5.84
		c0-2.795-1.504-5.715-4.619-5.715C494.586,232.639,493.04,235.413,493.04,238.5z"/>
	<path d="M518.905,239.271c-0.107-1.96-0.236-4.318-0.215-6.07h-0.064c-0.494,1.648-1.096,3.4-1.826,5.34l-2.557,6.821h-1.418
		l-2.342-6.696c-0.688-1.981-1.268-3.796-1.676-5.465h-0.043c-0.043,1.752-0.15,4.109-0.279,6.216l-0.387,6.028h-1.783l1.01-14.059
		h2.385l2.471,6.8c0.602,1.731,1.096,3.275,1.461,4.735h0.064c0.365-1.418,0.881-2.962,1.525-4.735l2.578-6.8h2.385l0.902,14.059
		h-1.826L518.905,239.271z"/>
	<path d="M526.099,241.024l-1.504,4.422h-1.934l4.92-14.059h2.256l4.941,14.059h-1.998l-1.547-4.422H526.099z M530.847,239.605
		l-1.418-4.047c-0.322-0.917-0.537-1.752-0.752-2.565h-0.043c-0.215,0.834-0.451,1.689-0.73,2.545l-1.418,4.067H530.847z"/>
	<path d="M541.458,231.575c1.139-0.167,2.492-0.292,3.975-0.292c2.686,0,4.598,0.605,5.865,1.752
		c1.289,1.147,2.041,2.774,2.041,5.048c0,2.294-0.73,4.172-2.084,5.465c-1.354,1.314-3.588,2.023-6.402,2.023
		c-1.332,0-2.449-0.063-3.395-0.167V231.575z M543.328,244.006c0.473,0.083,1.16,0.104,1.891,0.104c3.996,0,6.166-2.169,6.166-5.966
		c0.021-3.316-1.912-5.423-5.865-5.423c-0.967,0-1.697,0.083-2.191,0.188V244.006z"/>
	<path d="M563.263,238.854h-5.629v5.069h6.273v1.522h-8.143v-14.059h7.82v1.522h-5.951v4.443h5.629V238.854z"/>
	<path d="M583.09,239.271c-0.107-1.96-0.236-4.318-0.215-6.07h-0.064c-0.494,1.648-1.096,3.4-1.826,5.34l-2.557,6.821h-1.418
		l-2.342-6.696c-0.688-1.981-1.268-3.796-1.676-5.465h-0.043c-0.043,1.752-0.15,4.109-0.279,6.216l-0.387,6.028H570.5l1.01-14.059
		h2.385l2.471,6.8c0.602,1.731,1.096,3.275,1.461,4.735h0.064c0.365-1.418,0.881-2.962,1.525-4.735l2.578-6.8h2.385l0.902,14.059
		h-1.826L583.09,239.271z"/>
	<path d="M595.657,238.854h-5.629v5.069h6.273v1.522h-8.143v-14.059h7.82v1.522h-5.951v4.443h5.629V238.854z"/>
	<path d="M598.727,231.575c1.139-0.167,2.492-0.292,3.975-0.292c2.686,0,4.598,0.605,5.865,1.752
		c1.289,1.147,2.041,2.774,2.041,5.048c0,2.294-0.73,4.172-2.084,5.465c-1.354,1.314-3.588,2.023-6.402,2.023
		c-1.332,0-2.449-0.063-3.395-0.167V231.575z M600.596,244.006c0.473,0.083,1.16,0.104,1.891,0.104c3.996,0,6.166-2.169,6.166-5.966
		c0.021-3.316-1.912-5.423-5.865-5.423c-0.967,0-1.697,0.083-2.191,0.188V244.006z"/>
	<path d="M614.903,231.387v14.059h-1.869v-14.059H614.903z"/>
	<path d="M618.167,231.575c1.139-0.167,2.492-0.292,3.975-0.292c2.686,0,4.598,0.605,5.865,1.752
		c1.289,1.147,2.041,2.774,2.041,5.048c0,2.294-0.73,4.172-2.084,5.465c-1.354,1.314-3.588,2.023-6.402,2.023
		c-1.332,0-2.449-0.063-3.395-0.167V231.575z M620.037,244.006c0.473,0.083,1.16,0.104,1.891,0.104c3.996,0,6.166-2.169,6.166-5.966
		c0.021-3.316-1.912-5.423-5.865-5.423c-0.967,0-1.697,0.083-2.191,0.188V244.006z"/>
	<path d="M634.515,241.024l-1.504,4.422h-1.934l4.92-14.059h2.256l4.941,14.059h-1.998l-1.547-4.422H634.515z M639.263,239.605
		l-1.418-4.047c-0.322-0.917-0.537-1.752-0.752-2.565h-0.043c-0.215,0.834-0.451,1.689-0.73,2.545l-1.418,4.067H639.263z"/>
	<path d="M645.063,243.235c0.838,0.5,2.063,0.917,3.352,0.917c1.912,0,3.029-0.98,3.029-2.398c0-1.314-0.773-2.065-2.729-2.795
		c-2.363-0.813-3.824-2.002-3.824-3.984c0-2.19,1.869-3.817,4.684-3.817c1.482,0,2.557,0.333,3.201,0.688l-0.516,1.481
		c-0.473-0.25-1.439-0.667-2.75-0.667c-1.977,0-2.729,1.147-2.729,2.107c0,1.314,0.881,1.961,2.879,2.711
		c2.449,0.918,3.695,2.065,3.695,4.13c0,2.169-1.654,4.046-5.07,4.046c-1.396,0-2.922-0.396-3.695-0.897L645.063,243.235z"/>
</g>
<g>
	<path d="M138.891,782.414c0.9,0.504,2.216,0.924,3.602,0.924c2.055,0,3.255-0.987,3.255-2.415c0-1.322-0.832-2.078-2.932-2.813
		c-2.54-0.819-4.109-2.016-4.109-4.011c0-2.204,2.008-3.843,5.033-3.843c1.593,0,2.748,0.336,3.44,0.693l-0.554,1.49
		c-0.508-0.252-1.547-0.672-2.955-0.672c-2.124,0-2.932,1.155-2.932,2.121c0,1.322,0.947,1.974,3.094,2.729
		c2.632,0.924,3.971,2.079,3.971,4.157c0,2.184-1.778,4.073-5.449,4.073c-1.5,0-3.14-0.399-3.971-0.903L138.891,782.414z"/>
	<path d="M153.067,780.188l-1.616,4.451h-2.078l5.287-14.151h2.424l5.31,14.151h-2.147l-1.663-4.451H153.067z M158.169,778.761
		l-1.523-4.073c-0.347-0.924-0.577-1.764-0.808-2.583h-0.046c-0.231,0.84-0.485,1.701-0.785,2.563l-1.524,4.094H158.169z"/>
	<path d="M164.681,770.488h2.009v12.618h6.649v1.533h-8.658V770.488z"/>
	<path d="M177.588,770.488v14.151h-2.009v-14.151H177.588z"/>
	<path d="M181.097,770.677c1.224-0.168,2.678-0.293,4.271-0.293c2.886,0,4.941,0.608,6.303,1.764
		c1.385,1.154,2.193,2.792,2.193,5.08c0,2.311-0.785,4.199-2.239,5.502c-1.455,1.322-3.855,2.036-6.88,2.036
		c-1.432,0-2.632-0.063-3.648-0.168V770.677z M183.106,783.19c0.508,0.084,1.247,0.105,2.032,0.105c4.294,0,6.625-2.184,6.625-6.005
		c0.023-3.339-2.055-5.459-6.302-5.459c-1.039,0-1.824,0.084-2.355,0.188V783.19z"/>
	<path d="M198.668,780.188l-1.616,4.451h-2.078l5.287-14.151h2.424l5.31,14.151h-2.147l-1.662-4.451H198.668z M203.77,778.761
		l-1.523-4.073c-0.347-0.924-0.577-1.764-0.808-2.583h-0.046c-0.231,0.84-0.485,1.701-0.785,2.563l-1.524,4.094H203.77z"/>
	<path d="M215.177,770.677c1.224-0.168,2.678-0.293,4.271-0.293c2.886,0,4.941,0.608,6.303,1.764
		c1.385,1.154,2.193,2.792,2.193,5.08c0,2.311-0.785,4.199-2.239,5.502c-1.455,1.322-3.855,2.036-6.88,2.036
		c-1.432,0-2.632-0.063-3.648-0.168V770.677z M217.186,783.19c0.508,0.084,1.247,0.105,2.032,0.105c4.294,0,6.625-2.184,6.625-6.005
		c0.023-3.339-2.055-5.459-6.302-5.459c-1.039,0-1.824,0.084-2.355,0.188V783.19z"/>
	<path d="M238.612,778.005h-6.049v5.102h6.741v1.533h-8.75v-14.151h8.404v1.532h-6.395v4.473h6.049V778.005z"/>
	<path d="M241.914,770.488h2.009v12.618h6.649v1.533h-8.658V770.488z"/>
	<path d="M259.715,770.488v14.151h-2.009v-14.151H259.715z"/>
	<path d="M263.225,784.64v-14.151h2.193l4.987,7.159c1.154,1.659,2.055,3.15,2.793,4.599l0.046-0.021
		c-0.185-1.891-0.23-3.611-0.23-5.816v-5.921h1.893v14.151h-2.032l-4.94-7.181c-1.085-1.575-2.124-3.191-2.909-4.724l-0.069,0.021
		c0.116,1.784,0.162,3.485,0.162,5.837v6.047H263.225z"/>
	<path d="M278.417,770.677c1.016-0.188,2.47-0.293,3.855-0.293c2.147,0,3.532,0.356,4.502,1.154c0.785,0.63,1.224,1.596,1.224,2.688
		c0,1.869-1.293,3.107-2.932,3.611v0.063c1.201,0.379,1.917,1.387,2.286,2.855c0.508,1.975,0.877,3.339,1.201,3.885h-2.078
		c-0.254-0.398-0.601-1.617-1.039-3.381c-0.462-1.952-1.293-2.688-3.117-2.75h-1.893v6.131h-2.009V770.677z M280.426,777.123h2.055
		c2.147,0,3.509-1.071,3.509-2.688c0-1.827-1.455-2.624-3.579-2.646c-0.97,0-1.662,0.084-1.985,0.168V777.123z"/>
</g>
<g>
	<path d="M484.716,666.813h-4.567v-1.554h11.117v1.554h-4.59v12.598h-1.96V666.813z"/>
	<path d="M500.708,672.775h-5.837v5.102h6.506v1.533h-8.443v-14.151h8.109v1.532h-6.172v4.473h5.837V672.775z"/>
	<path d="M503.89,665.447c0.98-0.188,2.384-0.293,3.72-0.293c2.072,0,3.409,0.356,4.345,1.154c0.758,0.63,1.181,1.596,1.181,2.688
		c0,1.869-1.248,3.107-2.829,3.611v0.063c1.158,0.379,1.849,1.387,2.205,2.855c0.49,1.975,0.847,3.339,1.158,3.885h-2.005
		c-0.245-0.398-0.579-1.617-1.002-3.381c-0.446-1.952-1.248-2.688-3.008-2.75h-1.827v6.131h-1.938V665.447z M505.828,671.894h1.983
		c2.071,0,3.386-1.071,3.386-2.688c0-1.827-1.403-2.624-3.453-2.646c-0.936,0-1.604,0.084-1.916,0.168V671.894z"/>
	<path d="M518.411,674.959l-1.56,4.451h-2.005l5.102-14.151h2.34l5.124,14.151h-2.072l-1.604-4.451H518.411z M523.334,673.531
		l-1.471-4.073c-0.334-0.924-0.557-1.764-0.779-2.583h-0.045c-0.223,0.84-0.468,1.701-0.757,2.563l-1.471,4.094H523.334z"/>
	<path d="M529.613,665.427c0.936-0.147,2.161-0.272,3.72-0.272c1.916,0,3.319,0.42,4.211,1.176c0.824,0.672,1.314,1.7,1.314,2.96
		c0,1.28-0.401,2.288-1.158,3.023c-1.025,1.028-2.696,1.554-4.59,1.554c-0.579,0-1.113-0.021-1.56-0.126v5.669h-1.938V665.427z
		 M531.55,672.25c0.424,0.105,0.958,0.147,1.604,0.147c2.339,0,3.765-1.071,3.765-3.023c0-1.868-1.403-2.771-3.542-2.771
		c-0.847,0-1.492,0.063-1.827,0.147V672.25z"/>
	<path d="M543.398,665.259v14.151h-1.938v-14.151H543.398z"/>
	<path d="M549.21,674.959l-1.56,4.451h-2.005l5.102-14.151h2.34l5.124,14.151h-2.072l-1.604-4.451H549.21z M554.134,673.531
		l-1.471-4.073c-0.334-0.924-0.557-1.764-0.779-2.583h-0.045c-0.223,0.84-0.468,1.701-0.757,2.563l-1.471,4.094H554.134z"/>
	<path d="M575.625,678.948c-0.713,0.336-2.139,0.672-3.965,0.672c-4.233,0-7.419-2.52-7.419-7.159c0-4.431,3.186-7.434,7.842-7.434
		c1.871,0,3.053,0.379,3.564,0.631l-0.468,1.49c-0.735-0.336-1.782-0.588-3.029-0.588c-3.521,0-5.859,2.121-5.859,5.837
		c0,3.464,2.116,5.69,5.77,5.69c1.181,0,2.384-0.231,3.164-0.588L575.625,678.948z"/>
	<path d="M590.415,672.188c0,4.871-3.142,7.453-6.974,7.453c-3.965,0-6.75-2.896-6.75-7.18c0-4.494,2.963-7.434,6.974-7.434
		C587.763,665.027,590.415,667.988,590.415,672.188z M578.763,672.418c0,3.023,1.737,5.732,4.789,5.732
		c3.075,0,4.813-2.666,4.813-5.879c0-2.813-1.56-5.753-4.79-5.753C580.367,666.519,578.763,669.311,578.763,672.418z"/>
	<path d="M592.927,679.41v-14.151h2.116l4.812,7.159c1.114,1.659,1.983,3.15,2.696,4.599l0.044-0.021
		c-0.178-1.891-0.223-3.611-0.223-5.816v-5.921h1.827v14.151h-1.961l-4.767-7.181c-1.048-1.575-2.05-3.191-2.808-4.724l-0.066,0.021
		c0.111,1.784,0.155,3.485,0.155,5.837v6.047H592.927z"/>
	<path d="M612.302,665.427c0.936-0.147,2.161-0.272,3.72-0.272c1.916,0,3.319,0.42,4.211,1.176c0.824,0.672,1.314,1.7,1.314,2.96
		c0,1.28-0.401,2.288-1.158,3.023c-1.025,1.028-2.696,1.554-4.59,1.554c-0.579,0-1.113-0.021-1.56-0.126v5.669h-1.938V665.427z
		 M614.24,672.25c0.424,0.105,0.958,0.147,1.604,0.147c2.339,0,3.765-1.071,3.765-3.023c0-1.868-1.403-2.771-3.542-2.771
		c-0.847,0-1.492,0.063-1.827,0.147V672.25z"/>
	<path d="M624.15,665.447c0.98-0.188,2.384-0.293,3.72-0.293c2.072,0,3.409,0.356,4.345,1.154c0.758,0.63,1.181,1.596,1.181,2.688
		c0,1.869-1.248,3.107-2.829,3.611v0.063c1.158,0.379,1.849,1.387,2.205,2.855c0.49,1.975,0.847,3.339,1.158,3.885h-2.005
		c-0.245-0.398-0.579-1.617-1.002-3.381c-0.446-1.952-1.248-2.688-3.008-2.75h-1.827v6.131h-1.938V665.447z M626.087,671.894h1.983
		c2.071,0,3.386-1.071,3.386-2.688c0-1.827-1.403-2.624-3.453-2.646c-0.936,0-1.604,0.084-1.916,0.168V671.894z"/>
	<path d="M649.031,672.188c0,4.871-3.142,7.453-6.974,7.453c-3.965,0-6.75-2.896-6.75-7.18c0-4.494,2.963-7.434,6.974-7.434
		C646.379,665.027,649.031,667.988,649.031,672.188z M637.379,672.418c0,3.023,1.737,5.732,4.79,5.732
		c3.074,0,4.812-2.666,4.812-5.879c0-2.813-1.56-5.753-4.79-5.753C638.983,666.519,637.379,669.311,637.379,672.418z
		 M645.421,662.004l-2.829,2.436h-1.604l2.072-2.436H645.421z"/>
	<path d="M653.837,666.813h-4.567v-1.554h11.117v1.554h-4.59v12.598h-1.96V666.813z"/>
	<path d="M669.829,672.775h-5.837v5.102h6.506v1.533h-8.443v-14.151h8.109v1.532h-6.172v4.473h5.837V672.775z"/>
	<path d="M672.744,677.185c0.869,0.504,2.139,0.924,3.476,0.924c1.982,0,3.141-0.987,3.141-2.415c0-1.322-0.802-2.078-2.829-2.813
		c-2.45-0.819-3.965-2.016-3.965-4.011c0-2.204,1.938-3.843,4.856-3.843c1.537,0,2.65,0.336,3.319,0.693l-0.535,1.49
		c-0.49-0.252-1.492-0.672-2.852-0.672c-2.05,0-2.829,1.155-2.829,2.121c0,1.322,0.913,1.974,2.985,2.729
		c2.539,0.924,3.832,2.079,3.832,4.157c0,2.184-1.716,4.073-5.258,4.073c-1.448,0-3.03-0.399-3.832-0.903L672.744,677.185z"/>
	<path d="M685.928,665.259v14.151h-1.938v-14.151H685.928z"/>
	<path d="M689.045,677.185c0.869,0.504,2.139,0.924,3.476,0.924c1.982,0,3.141-0.987,3.141-2.415c0-1.322-0.802-2.078-2.829-2.813
		c-2.45-0.819-3.966-2.016-3.966-4.011c0-2.204,1.938-3.843,4.857-3.843c1.537,0,2.65,0.336,3.319,0.693l-0.535,1.49
		c-0.49-0.252-1.492-0.672-2.852-0.672c-2.05,0-2.829,1.155-2.829,2.121c0,1.322,0.913,1.974,2.985,2.729
		c2.54,0.924,3.832,2.079,3.832,4.157c0,2.184-1.716,4.073-5.258,4.073c-1.448,0-3.03-0.399-3.832-0.903L689.045,677.185z"/>
</g>
<g>
	<path d="M83.772,561.998h-5.217v5.102h5.814v1.533h-7.547v-14.151h7.248v1.532h-5.516v4.473h5.217V561.998z"/>
	<path d="M86.623,568.633v-14.151h1.892l4.301,7.159c0.996,1.659,1.772,3.15,2.409,4.599l0.04-0.021
		c-0.159-1.891-0.199-3.611-0.199-5.816v-5.921h1.633v14.151h-1.752l-4.262-7.181c-0.936-1.575-1.832-3.191-2.509-4.724l-0.06,0.021
		c0.1,1.784,0.14,3.485,0.14,5.837v6.047H86.623z"/>
	<path d="M102.279,556.035h-4.082v-1.554h9.937v1.554h-4.103v12.598h-1.752V556.035z"/>
	<path d="M109.63,554.67c0.876-0.188,2.13-0.293,3.325-0.293c1.852,0,3.047,0.356,3.883,1.154c0.677,0.63,1.056,1.596,1.056,2.688
		c0,1.869-1.115,3.107-2.529,3.611v0.063c1.035,0.379,1.653,1.387,1.972,2.855c0.438,1.975,0.757,3.339,1.035,3.885h-1.792
		c-0.219-0.398-0.518-1.617-0.896-3.381c-0.397-1.952-1.114-2.688-2.688-2.75h-1.633v6.131h-1.732V554.67z M111.362,561.116h1.771
		c1.853,0,3.027-1.071,3.027-2.688c0-1.827-1.255-2.624-3.087-2.646c-0.836,0-1.434,0.084-1.712,0.168V561.116z"/>
	<path d="M127.296,561.998h-5.217v5.102h5.814v1.533h-7.547v-14.151h7.248v1.532h-5.516v4.473h5.217V561.998z"/>
	<path d="M140.361,568.003c-0.776,0.294-2.31,0.776-4.122,0.776c-2.031,0-3.703-0.545-5.018-1.868
		c-1.155-1.176-1.872-3.065-1.872-5.271c0.02-4.22,2.768-7.307,7.269-7.307c1.553,0,2.768,0.357,3.345,0.651l-0.418,1.491
		c-0.717-0.336-1.613-0.609-2.967-0.609c-3.266,0-5.396,2.142-5.396,5.689c0,3.591,2.051,5.711,5.178,5.711
		c1.135,0,1.911-0.168,2.31-0.377v-4.221h-2.729v-1.47h4.421V568.003z"/>
	<path d="M145.185,564.182l-1.394,4.451h-1.792l4.56-14.151h2.091l4.58,14.151h-1.852l-1.434-4.451H145.185z M149.586,562.754
		l-1.314-4.073c-0.299-0.924-0.498-1.764-0.697-2.583h-0.04c-0.199,0.84-0.418,1.701-0.677,2.563l-1.314,4.094H149.586z"/>
	<path d="M159.428,554.67c1.055-0.168,2.31-0.293,3.684-0.293c2.489,0,4.262,0.608,5.437,1.764c1.194,1.154,1.892,2.792,1.892,5.08
		c0,2.311-0.678,4.199-1.932,5.502c-1.255,1.322-3.325,2.036-5.935,2.036c-1.234,0-2.27-0.063-3.146-0.168V554.67z M161.16,567.184
		c0.438,0.084,1.075,0.105,1.752,0.105c3.704,0,5.715-2.184,5.715-6.005c0.021-3.339-1.772-5.459-5.436-5.459
		c-0.896,0-1.573,0.084-2.031,0.188V567.184z"/>
	<path d="M179.643,561.998h-5.217v5.102h5.814v1.533h-7.547v-14.151h7.248v1.532h-5.516v4.473h5.217V561.998z"/>
	<path d="M186.717,554.481h1.732V567.1h5.734v1.533h-7.467V554.481z"/>
	<path d="M198.288,564.182l-1.394,4.451h-1.792l4.56-14.151h2.091l4.58,14.151h-1.852l-1.434-4.451H198.288z M202.689,562.754
		l-1.314-4.073c-0.299-0.924-0.498-1.764-0.697-2.583h-0.04c-0.199,0.84-0.418,1.701-0.677,2.563l-1.314,4.094H202.689z"/>
	<path d="M212.531,554.649c0.836-0.147,1.932-0.272,3.325-0.272c1.713,0,2.967,0.42,3.764,1.176c0.736,0.672,1.175,1.7,1.175,2.96
		c0,1.28-0.358,2.288-1.036,3.023c-0.915,1.028-2.409,1.554-4.102,1.554c-0.518,0-0.996-0.021-1.394-0.126v5.669h-1.732V554.649z
		 M214.264,561.473c0.378,0.105,0.855,0.147,1.434,0.147c2.091,0,3.365-1.071,3.365-3.023c0-1.868-1.255-2.771-3.166-2.771
		c-0.757,0-1.334,0.063-1.633,0.147V561.473z"/>
	<path d="M223.129,554.67c0.876-0.188,2.13-0.293,3.325-0.293c1.852,0,3.047,0.356,3.883,1.154c0.677,0.63,1.056,1.596,1.056,2.688
		c0,1.869-1.115,3.107-2.529,3.611v0.063c1.036,0.379,1.653,1.387,1.972,2.855c0.438,1.975,0.757,3.339,1.035,3.885h-1.792
		c-0.219-0.398-0.518-1.617-0.896-3.381c-0.397-1.952-1.114-2.688-2.688-2.75h-1.633v6.131h-1.732V554.67z M224.861,561.116h1.771
		c1.853,0,3.027-1.071,3.027-2.688c0-1.827-1.255-2.624-3.087-2.646c-0.836,0-1.434,0.084-1.712,0.168V561.116z"/>
	<path d="M245.375,561.41c0,4.871-2.808,7.453-6.233,7.453c-3.544,0-6.033-2.896-6.033-7.18c0-4.494,2.648-7.434,6.232-7.434
		C243.005,554.25,245.375,557.211,245.375,561.41z M234.96,561.641c0,3.023,1.554,5.732,4.281,5.732
		c2.748,0,4.302-2.666,4.302-5.879c0-2.813-1.395-5.753-4.281-5.753C236.395,555.741,234.96,558.533,234.96,561.641z
		 M242.148,551.227l-2.528,2.436h-1.434l1.852-2.436H242.148z"/>
	<path d="M249.681,556.035h-4.082v-1.554h9.937v1.554h-4.103v12.598h-1.752V556.035z"/>
	<path d="M263.98,561.998h-5.217v5.102h5.814v1.533h-7.547v-14.151h7.248v1.532h-5.516v4.473h5.217V561.998z"/>
	<path d="M266.592,566.407c0.776,0.504,1.911,0.924,3.106,0.924c1.772,0,2.808-0.987,2.808-2.415c0-1.322-0.717-2.078-2.529-2.813
		c-2.19-0.819-3.544-2.016-3.544-4.011c0-2.204,1.732-3.843,4.341-3.843c1.374,0,2.37,0.336,2.967,0.693l-0.478,1.49
		c-0.438-0.252-1.334-0.672-2.549-0.672c-1.832,0-2.529,1.155-2.529,2.121c0,1.322,0.816,1.974,2.669,2.729
		c2.27,0.924,3.425,2.079,3.425,4.157c0,2.184-1.533,4.073-4.699,4.073c-1.295,0-2.709-0.399-3.426-0.903L266.592,566.407z"/>
	<path d="M278.384,554.481v14.151h-1.732v-14.151H278.384z"/>
	<path d="M281.173,566.407c0.776,0.504,1.912,0.924,3.106,0.924c1.772,0,2.808-0.987,2.808-2.415c0-1.322-0.717-2.078-2.529-2.813
		c-2.19-0.819-3.544-2.016-3.544-4.011c0-2.204,1.732-3.843,4.341-3.843c1.374,0,2.37,0.336,2.967,0.693l-0.478,1.49
		c-0.438-0.252-1.334-0.672-2.549-0.672c-1.832,0-2.529,1.155-2.529,2.121c0,1.322,0.816,1.974,2.669,2.729
		c2.27,0.924,3.425,2.079,3.425,4.157c0,2.184-1.533,4.073-4.699,4.073c-1.295,0-2.709-0.399-3.426-0.903L281.173,566.407z"/>
</g>
<g>
	<path d="M494.922,885.714c-0.114-1.974-0.252-4.347-0.229-6.11h-0.068c-0.526,1.659-1.168,3.423-1.947,5.375l-2.726,6.866h-1.511
		l-2.497-6.739c-0.732-1.995-1.352-3.822-1.786-5.502h-0.046c-0.046,1.764-0.16,4.137-0.298,6.258l-0.412,6.067H481.5l1.077-14.151
		h2.542l2.634,6.845c0.642,1.743,1.168,3.296,1.558,4.767h0.068c0.39-1.428,0.939-2.982,1.626-4.767l2.749-6.845h2.542l0.962,14.151
		h-1.946L494.922,885.714z"/>
	<path d="M513.517,884.706c0,4.871-3.229,7.454-7.168,7.454c-4.077,0-6.94-2.898-6.94-7.182c0-4.492,3.047-7.432,7.169-7.432
		C510.792,877.547,513.517,880.507,513.517,884.706z M501.539,884.938c0,3.023,1.787,5.731,4.925,5.731
		c3.16,0,4.947-2.667,4.947-5.879c0-2.813-1.604-5.753-4.925-5.753C503.188,879.037,501.539,881.83,501.539,884.938z"/>
	<path d="M516.103,877.777h8.314v1.533h-6.321v4.703h5.84v1.512h-5.84v6.403h-1.993V877.777z"/>
	<path d="M529.249,877.777v14.151h-1.993v-14.151H529.249z"/>
	<path d="M543.517,891.467c-0.733,0.336-2.199,0.672-4.077,0.672c-4.352,0-7.627-2.52-7.627-7.16c0-4.43,3.275-7.432,8.063-7.432
		c1.924,0,3.138,0.377,3.664,0.629l-0.48,1.491c-0.756-0.336-1.832-0.588-3.115-0.588c-3.618,0-6.023,2.12-6.023,5.837
		c0,3.465,2.176,5.689,5.932,5.689c1.214,0,2.451-0.23,3.253-0.588L543.517,891.467z"/>
	<path d="M548.599,887.478l-1.604,4.451h-2.062l5.245-14.151h2.405l5.268,14.151h-2.13l-1.649-4.451H548.599z M553.661,886.05
		l-1.512-4.073c-0.344-0.924-0.572-1.764-0.802-2.582h-0.046c-0.229,0.84-0.48,1.7-0.778,2.561l-1.512,4.095H553.661z"/>
	<path d="M570.562,891.467c-0.733,0.336-2.199,0.672-4.077,0.672c-4.352,0-7.627-2.52-7.627-7.16c0-4.43,3.275-7.432,8.063-7.432
		c1.924,0,3.138,0.377,3.664,0.629l-0.48,1.491c-0.756-0.336-1.832-0.588-3.115-0.588c-3.618,0-6.023,2.12-6.023,5.837
		c0,3.465,2.176,5.689,5.932,5.689c1.214,0,2.451-0.23,3.253-0.588L570.562,891.467z"/>
	<path d="M575.049,877.777v14.151h-1.993v-14.151H575.049z"/>
	<path d="M591.722,884.706c0,4.871-3.229,7.454-7.168,7.454c-4.077,0-6.94-2.898-6.94-7.182c0-4.492,3.047-7.432,7.169-7.432
		C588.998,877.547,591.722,880.507,591.722,884.706z M579.744,884.938c0,3.023,1.787,5.731,4.925,5.731
		c3.16,0,4.947-2.667,4.947-5.879c0-2.813-1.604-5.753-4.925-5.753C581.393,879.037,579.744,881.83,579.744,884.938z
		 M588.012,874.523l-2.909,2.436h-1.648l2.13-2.436H588.012z"/>
	<path d="M594.308,891.929v-14.151h2.176l4.947,7.16c1.146,1.658,2.039,3.148,2.771,4.598l0.046-0.021
		c-0.184-1.889-0.229-3.611-0.229-5.815v-5.921h1.878v14.151h-2.016l-4.901-7.181c-1.076-1.574-2.107-3.191-2.886-4.725
		l-0.069,0.021c0.115,1.785,0.161,3.485,0.161,5.837v6.047H594.308z"/>
	<path d="M614.231,877.967c1.214-0.168,2.657-0.295,4.237-0.295c2.863,0,4.901,0.609,6.253,1.764
		c1.374,1.155,2.176,2.793,2.176,5.082c0,2.309-0.778,4.199-2.222,5.5c-1.442,1.323-3.825,2.037-6.825,2.037
		c-1.42,0-2.611-0.063-3.619-0.168V877.967z M616.224,890.48c0.504,0.084,1.236,0.104,2.016,0.104c4.26,0,6.573-2.184,6.573-6.005
		c0.022-3.338-2.039-5.459-6.253-5.459c-1.03,0-1.81,0.084-2.336,0.189V890.48z"/>
	<path d="M637.477,885.294h-6.001v5.103h6.688v1.532h-8.681v-14.151h8.337v1.533h-6.344v4.472h6.001V885.294z"/>
	<path d="M653.598,885.294h-6.001v5.103h6.688v1.532h-8.681v-14.151h8.337v1.533h-6.344v4.472h6.001V885.294z"/>
	<path d="M656.872,891.929v-14.151h2.176l4.947,7.16c1.146,1.658,2.039,3.148,2.771,4.598l0.046-0.021
		c-0.184-1.889-0.229-3.611-0.229-5.815v-5.921h1.878v14.151h-2.016l-4.901-7.181c-1.076-1.574-2.107-3.191-2.886-4.725
		l-0.069,0.021c0.115,1.785,0.161,3.485,0.161,5.837v6.047H656.872z"/>
	<path d="M682.728,891.467c-0.733,0.336-2.199,0.672-4.077,0.672c-4.352,0-7.627-2.52-7.627-7.16c0-4.43,3.275-7.432,8.063-7.432
		c1.924,0,3.138,0.377,3.664,0.629l-0.48,1.491c-0.756-0.336-1.832-0.588-3.115-0.588c-3.618,0-6.023,2.12-6.023,5.837
		c0,3.465,2.176,5.689,5.932,5.689c1.214,0,2.451-0.23,3.253-0.588L682.728,891.467z"/>
	<path d="M687.81,887.478l-1.604,4.451h-2.062l5.245-14.151h2.405l5.268,14.151h-2.13l-1.649-4.451H687.81z M692.872,886.05
		l-1.512-4.073c-0.344-0.924-0.572-1.764-0.802-2.582h-0.046c-0.229,0.84-0.48,1.7-0.778,2.561l-1.512,4.095H692.872z"/>
	<path d="M702.924,877.777h1.992v9.469c0,3.759-2.015,4.914-4.672,4.914c-0.733,0-1.626-0.147-2.13-0.336l0.298-1.491
		c0.412,0.147,1.008,0.272,1.672,0.272c1.786,0,2.84-0.734,2.84-3.506V877.777z"/>
	<path d="M716.231,885.294h-6.001v5.103h6.688v1.532h-8.681v-14.151h8.337v1.533h-6.344v4.472h6.001V885.294z"/>
</g>
<g>
	<path d="M488.416,452.539h-5.745v5.102h6.402v1.533h-8.311v-14.151h7.981v1.533h-6.073v4.472h5.745V452.539z"/>
	<path d="M491.552,445.022h1.908v12.619h6.314v1.533h-8.223V445.022z"/>
	<path d="M504.293,454.723l-1.535,4.451h-1.974l5.021-14.151h2.303l5.043,14.151h-2.039l-1.579-4.451H504.293z M509.139,453.295
		l-1.447-4.073c-0.329-0.924-0.548-1.764-0.768-2.583h-0.044c-0.219,0.84-0.46,1.701-0.745,2.562l-1.447,4.094H509.139z"/>
	<path d="M515.325,445.211c0.834-0.168,2.149-0.294,3.486-0.294c1.908,0,3.136,0.315,4.057,1.029
		c0.768,0.546,1.229,1.386,1.229,2.499c0,1.365-0.943,2.562-2.5,3.107v0.042c1.403,0.336,3.048,1.449,3.048,3.548
		c0,1.218-0.504,2.142-1.25,2.834c-1.03,0.903-2.697,1.323-5.108,1.323c-1.316,0-2.324-0.084-2.961-0.168V445.211z M517.233,451.006
		h1.732c2.017,0,3.201-1.008,3.201-2.373c0-1.659-1.315-2.31-3.245-2.31c-0.877,0-1.382,0.063-1.688,0.126V451.006z
		 M517.233,457.788c0.373,0.063,0.921,0.084,1.601,0.084c1.974,0,3.793-0.693,3.793-2.75c0-1.932-1.731-2.729-3.815-2.729h-1.578
		V457.788z"/>
	<path d="M539.841,451.951c0,4.871-3.091,7.454-6.862,7.454c-3.903,0-6.645-2.897-6.645-7.181c0-4.493,2.917-7.433,6.863-7.433
		C537.233,444.792,539.841,447.752,539.841,451.951z M528.374,452.182c0,3.023,1.711,5.732,4.715,5.732
		c3.025,0,4.736-2.667,4.736-5.879c0-2.813-1.535-5.753-4.715-5.753C529.953,446.282,528.374,449.075,528.374,452.182z"/>
	<path d="M542.322,445.211c0.965-0.189,2.347-0.294,3.662-0.294c2.039,0,3.354,0.357,4.275,1.155
		c0.746,0.63,1.162,1.596,1.162,2.688c0,1.869-1.228,3.107-2.784,3.611v0.063c1.14,0.378,1.82,1.386,2.171,2.855
		c0.482,1.974,0.833,3.338,1.14,3.884h-1.973c-0.241-0.399-0.57-1.617-0.987-3.38c-0.438-1.953-1.228-2.688-2.96-2.75h-1.798v6.131
		h-1.908V445.211z M544.23,451.657h1.951c2.039,0,3.333-1.071,3.333-2.688c0-1.827-1.381-2.625-3.398-2.646
		c-0.921,0-1.579,0.084-1.886,0.168V451.657z"/>
	<path d="M556.621,454.723l-1.535,4.451h-1.974l5.021-14.151h2.303l5.043,14.151h-2.039l-1.579-4.451H556.621z M561.466,453.295
		l-1.447-4.073c-0.329-0.924-0.548-1.764-0.768-2.583h-0.044c-0.219,0.84-0.46,1.701-0.745,2.562l-1.447,4.094H561.466z"/>
	<path d="M577.651,458.712c-0.702,0.336-2.105,0.672-3.903,0.672c-4.166,0-7.302-2.52-7.302-7.16c0-4.43,3.136-7.433,7.719-7.433
		c1.842,0,3.004,0.378,3.508,0.63l-0.46,1.491c-0.724-0.336-1.754-0.588-2.982-0.588c-3.464,0-5.767,2.121-5.767,5.837
		c0,3.464,2.083,5.69,5.679,5.69c1.162,0,2.347-0.231,3.114-0.588L577.651,458.712z"/>
	<path d="M581.95,445.022v14.151h-1.908v-14.151H581.95z"/>
	<path d="M597.914,451.951c0,4.871-3.091,7.454-6.862,7.454c-3.903,0-6.645-2.897-6.645-7.181c0-4.493,2.917-7.433,6.863-7.433
		C595.305,444.792,597.914,447.752,597.914,451.951z M586.446,452.182c0,3.023,1.711,5.732,4.715,5.732
		c3.025,0,4.736-2.667,4.736-5.879c0-2.813-1.535-5.753-4.715-5.753C588.025,446.282,586.446,449.075,586.446,452.182z
		 M594.362,441.768l-2.785,2.436h-1.578l2.039-2.436H594.362z"/>
	<path d="M600.394,459.174v-14.151h2.083l4.736,7.16c1.097,1.659,1.952,3.149,2.653,4.598l0.044-0.021
		c-0.176-1.89-0.219-3.611-0.219-5.816v-5.921h1.798v14.151h-1.93l-4.692-7.181c-1.03-1.575-2.018-3.191-2.763-4.724l-0.066,0.021
		c0.11,1.785,0.154,3.485,0.154,5.837v6.047H600.394z"/>
	<path d="M619.473,445.211c1.162-0.168,2.544-0.294,4.057-0.294c2.741,0,4.692,0.609,5.986,1.764
		c1.315,1.155,2.083,2.792,2.083,5.081c0,2.31-0.745,4.199-2.127,5.501c-1.381,1.323-3.662,2.037-6.534,2.037
		c-1.359,0-2.5-0.063-3.465-0.168V445.211z M621.381,457.725c0.482,0.084,1.184,0.105,1.93,0.105c4.078,0,6.293-2.184,6.293-6.005
		c0.021-3.338-1.952-5.459-5.986-5.459c-0.986,0-1.732,0.084-2.236,0.189V457.725z"/>
	<path d="M641.732,452.539h-5.745v5.102h6.402v1.533h-8.311v-14.151h7.981v1.533h-6.073v4.472h5.745V452.539z"/>
	<path d="M649.518,445.19c0.921-0.147,2.127-0.273,3.662-0.273c1.886,0,3.268,0.42,4.145,1.176c0.812,0.672,1.293,1.701,1.293,2.96
		c0,1.281-0.395,2.289-1.14,3.023c-1.009,1.029-2.653,1.554-4.517,1.554c-0.57,0-1.097-0.021-1.535-0.126v5.669h-1.908V445.19z
		 M651.426,452.014c0.416,0.105,0.942,0.147,1.578,0.147c2.303,0,3.706-1.071,3.706-3.023c0-1.869-1.381-2.771-3.486-2.771
		c-0.833,0-1.469,0.063-1.798,0.147V452.014z"/>
	<path d="M661.185,445.211c0.965-0.189,2.347-0.294,3.662-0.294c2.039,0,3.354,0.357,4.275,1.155
		c0.746,0.63,1.162,1.596,1.162,2.688c0,1.869-1.228,3.107-2.784,3.611v0.063c1.14,0.378,1.82,1.386,2.171,2.855
		c0.482,1.974,0.833,3.338,1.14,3.884h-1.973c-0.241-0.399-0.57-1.617-0.987-3.38c-0.438-1.953-1.228-2.688-2.96-2.75h-1.798v6.131
		h-1.908V445.211z M663.093,451.657h1.951c2.039,0,3.333-1.071,3.333-2.688c0-1.827-1.381-2.625-3.398-2.646
		c-0.921,0-1.579,0.084-1.886,0.168V451.657z"/>
	<path d="M685.679,451.951c0,4.871-3.091,7.454-6.862,7.454c-3.903,0-6.645-2.897-6.645-7.181c0-4.493,2.917-7.433,6.863-7.433
		C683.071,444.792,685.679,447.752,685.679,451.951z M674.211,452.182c0,3.023,1.711,5.732,4.715,5.732
		c3.025,0,4.736-2.667,4.736-5.879c0-2.813-1.535-5.753-4.715-5.753C675.791,446.282,674.211,449.075,674.211,452.182z
		 M682.127,441.768l-2.785,2.436h-1.578l2.039-2.436H682.127z"/>
	<path d="M690.418,446.576h-4.494v-1.554h10.941v1.554h-4.518v12.598h-1.93V446.576z"/>
	<path d="M706.165,452.539h-5.745v5.102h6.402v1.533h-8.311v-14.151h7.981v1.533h-6.073v4.472h5.745V452.539z"/>
	<path d="M709.038,456.948c0.855,0.504,2.104,0.924,3.421,0.924c1.951,0,3.092-0.987,3.092-2.415c0-1.323-0.79-2.079-2.785-2.813
		c-2.412-0.819-3.903-2.016-3.903-4.01c0-2.205,1.908-3.842,4.78-3.842c1.513,0,2.609,0.336,3.268,0.693l-0.526,1.491
		c-0.482-0.252-1.47-0.672-2.807-0.672c-2.018,0-2.785,1.155-2.785,2.121c0,1.323,0.899,1.974,2.938,2.729
		c2.5,0.924,3.771,2.079,3.771,4.157c0,2.184-1.688,4.073-5.175,4.073c-1.425,0-2.982-0.399-3.771-0.903L709.038,456.948z"/>
	<path d="M722.021,445.022v14.151h-1.908v-14.151H722.021z"/>
	<path d="M725.091,456.948c0.855,0.504,2.105,0.924,3.421,0.924c1.951,0,3.092-0.987,3.092-2.415c0-1.323-0.79-2.079-2.785-2.813
		c-2.412-0.819-3.903-2.016-3.903-4.01c0-2.205,1.908-3.842,4.78-3.842c1.513,0,2.609,0.336,3.268,0.693l-0.526,1.491
		c-0.482-0.252-1.47-0.672-2.807-0.672c-2.018,0-2.785,1.155-2.785,2.121c0,1.323,0.899,1.974,2.938,2.729
		c2.5,0.924,3.771,2.079,3.771,4.157c0,2.184-1.688,4.073-5.175,4.073c-1.425,0-2.982-0.399-3.771-0.903L725.091,456.948z"/>
</g>
</svg>